<svg xmlns="http://www.w3.org/2000/svg" xmlns:se="http://svg-edit.googlecode.com" xmlns:xlink="http://www.w3.org/1999/xlink" xmlns:dc="http://purl.org/dc/elements/1.1/" xmlns:cc="http://creativecommons.org/ns#" xmlns:rdf="http://www.w3.org/1999/02/22-rdf-syntax-ns#" xmlns:inkscape="http://www.inkscape.org/namespaces/inkscape" width="100" height="100.33333587646484">
    <title>my vector image</title>
    <!-- Created with Vector Paint - http://www.vectorpaint.yaks.com/ https://chrome.google.com/webstore/detail/hnbpdiengicdefcjecjbnjnoifekhgdo -->
    <rect id="backgroundrect" width="100%" height="100%" x="0" y="0" fill="none" stroke="none" class="" />
    <g class="currentLayer">
        <title>Layer 1</title>
        <path fill="#000000" fill-opacity="1" stroke="#b6b6b6" stroke-opacity="1" stroke-width="5" stroke-dasharray="none" stroke-linejoin="round" stroke-linecap="butt" stroke-dashoffset="" fill-rule="nonzero" opacity="1" marker-start="" marker-mid="" marker-end="" id="svg_1" d="M395.1999918619792,-22 " style="color: rgb(0, 0, 0);" />
        <path fill="#242424" stroke="#6d6d6d" stroke-width="3" stroke-linejoin="round" stroke-dashoffset="" fill-rule="nonzero" marker-start="" marker-mid="" marker-end="" id="svg_3" d="M67.21238730381616,34.834017932202414 C67.21238730381616,34.834017932202414 70.25429059647027,19.609846560030423 67.21238730381616,14.452712724841712 C64.16690108620017,9.295578889653083 62.952289524115706,5.86038124670143 56.255802770322596,3.401092025042879 S51.99928791558397,1.4319256994115364 47.13009289236035,1.6834932035670733 C42.26089786913667,1.9307233369613008 38.20144388730272,5.118690846518699 38.20144388730272,6.836289667994469 C38.20144388730272,6.836289667994469 35.15954059464867,7.08351980138874 33.94492903256416,8.558225860231596 C32.72673454551778,10.032931919074441 30.6987990170818,16.90332720497768 30.6987990170818,18.625263397214788 S31.712766781299884,31.888943185277885 32.72673454551778,34.3438950361751 L31.51928883335712,34.834017932202414 C30.505321069139125,49.073606141558564 35.5751598902292,50.79554233379561 35.5751598902292,50.79554233379561 C37.39886869583688,64.05922212185871 39.22616042640655,58.41196539064281 39.22616042640655,61.84716303359459 S37.39886869583688,64.05922212185871 37.39886869583688,64.05922212185871 S35.779386613057646,69.45924871968042 31.723515556185497,71.4240776745504 C27.667644499313457,73.38456925865921 5.152544038726813,83.94172969166956 3.3216693831953052,86.15378877993395 C1.490794727663849,88.37018523895946 1.698604375454116,98.68011553857556 1.698604375454116,98.68011553857556 L98.2476833238037,98.68011553857556 C98.2476833238037,98.68011553857556 98.4590758965558,88.37018523895946 96.6282012410243,86.15378877993395 C94.793743660531,83.93739232090836 72.27864319994437,73.38456925865921 68.22277214307233,71.4240776745504 C64.16690108620017,69.45924871968042 62.54741900342081,64.05922212185871 62.54741900342081,64.05922212185871 S60.72012727285128,65.28236067654615 60.72012727285128,61.84716303359459 S62.54741900342081,64.05922212185871 64.3747107339904,50.79554233379561 C64.3747107339904,50.79554233379561 69.44096663011865,49.073606141558564 68.43058179086258,34.834017932202414 L67.21238730381616,34.834017932202414 z" style="color: rgb(0, 0, 0);" class="" stroke-dasharray="none" stroke-opacity="1" fill-opacity="1" />
    </g>
    <defs>
        <filter id="f014" inkscape:label="Ridged border" inkscape:menu="Bevels" inkscape:menu-tooltip="Ridged border with inner bevel" color-interpolation-filters="sRGB">
            <feMorphology radius="4.3" in="SourceAlpha" result="result91" />
            <feComposite operator="out" in="SourceGraphic" in2="result91" />
            <feGaussianBlur result="result0" stdDeviation="1.2" />
            <feDiffuseLighting diffuseConstant="1">
                <feDistantLight elevation="66" azimuth="225" />
            </feDiffuseLighting>
            <feBlend mode="multiply" in2="SourceGraphic" />
            <feComposite operator="in" in2="SourceAlpha" />
        </filter>
    </defs>
</svg>