<?xml version="1.0" encoding="UTF-8"?>
<!DOCTYPE svg PUBLIC "-//W3C//DTD SVG 1.1//EN" "http://www.w3.org/Graphics/SVG/1.1/DTD/svg11.dtd">
<!-- Creator: CorelDRAW X8 -->
<svg xmlns="http://www.w3.org/2000/svg" xml:space="preserve" width="1000px" height="1000px" version="1.1" shape-rendering="geometricPrecision" text-rendering="geometricPrecision" image-rendering="optimizeQuality" fill-rule="evenodd" clip-rule="evenodd"
viewBox="0 0 1000 1000"
 xmlns:xlink="http://www.w3.org/1999/xlink">
 <g id="interface-icon-jump-to-mother">
  <metadata id="CorelCorpID_0Corel-Layer"/>
  <circle fill="black" cx="500" cy="500" r="500"/>
  <g id="interface-icon-jump-to-mother-body">
   <path fill="#4E8E50" d="M813 639l0 -1 -1 0 0 0 -1 -1 0 0c-2,-1 -1,0 -2,-1l-1 0c1,1 2,1 3,2 0,0 0,0 1,1 1,0 0,0 1,0z"/>
   <path fill="#4E8E50" d="M811 637l0 0 1 1 0 0 1 0c1,1 0,1 2,1 -1,-1 -2,-1 -2,-2 -1,0 -2,-1 -3,-1l1 1z"/>
   <polygon fill="#4E8E50" points="813,639 813,640 814,640 "/>
   <path fill="#C0C5C5" d="M558 506c1,0 4,1 6,0 1,0 1,0 1,-1 0,-2 0,-2 -1,-2 -3,-1 -4,-1 -6,0 0,1 0,2 0,3z"/>
   <path fill="#C0C5C5" d="M565 512c10,1 8,-5 0,-4 -2,2 -2,3 0,4z"/>
   <path fill="#C0C5C5" d="M606 495c0,3 4,3 6,3 1,0 2,-1 2,-2 -1,-2 -2,-1 -3,-2 -1,0 -2,0 -3,0 -1,0 -1,1 -2,1z"/>
   <path fill="#C0C5C5" d="M605 489l-1 0c-2,0 -3,0 -4,1 1,3 5,4 7,2 0,-3 0,-2 -2,-3z"/>
   <path fill="#B1B1B0" d="M606 570l4 -1c0,-1 0,-1 0,-1l1 -3c0,-1 0,-1 -2,-1l-1 -1c-3,1 -2,-1 -5,-1 0,0 -3,1 -3,2 0,1 0,0 1,1 0,1 0,0 -1,1l1 1c0,1 0,1 2,2 1,0 2,0 3,1z"/>
   <path fill="#B1B1B0" d="M704 526c1,1 0,0 -1,2 2,1 2,1 3,1 1,0 1,0 1,0l1 1c3,0 4,2 7,-1 0,-1 0,0 -1,-1 1,-1 0,0 1,-1 -1,-2 -2,-3 -4,-3 -3,1 -2,0 -4,0 -3,0 -2,0 -2,1 -1,0 -1,0 -1,1z"/>
   <path fill="#B1B1B0" d="M574 474c3,0 -2,2 3,3 4,1 0,-1 6,0 0,-1 0,-1 0,-1 1,0 1,2 2,-1 0,0 0,0 0,0 0,-5 -8,-6 -11,-1z"/>
   <path fill="#B1B1B0" d="M533 485l-1 2 6 3c2,0 0,0 2,-1 0,0 -1,0 0,0l3 -1 0 -2c-1,-1 -3,-2 -5,-2 -3,-1 -3,1 -5,1z"/>
   <path fill="#B1B1B0" d="M484 460c1,1 0,1 2,1 2,1 4,1 7,0 0,-4 1,-3 -4,-4 -5,-1 -5,3 -5,3z"/>
   <path fill="#B1B1B0" d="M575 435c1,0 7,2 8,0 0,0 0,0 0,0l2 -2c-2,-2 -3,-1 -4,-1 -2,0 -4,-1 -5,0 -1,1 0,0 0,1l0 1c-1,0 -1,0 -1,1z"/>
   <path fill="#0B0B0B" d="M481 401l-4 2c-1,4 -3,4 1,7 3,2 7,4 9,3 1,-1 0,0 1,-1 -1,-1 1,0 -4,-1 -2,0 -3,-1 -4,-1l7 1c1,1 -1,1 2,0 2,0 2,-1 4,0 1,1 2,2 3,2l-2 -2c1,0 1,0 2,-2 2,-4 -1,-6 -5,-8l0 3c1,0 2,-1 3,0 0,2 -1,2 -3,2 -3,1 -8,3 -10,1 1,-1 0,0 1,-1l3 -1c-1,-1 -3,-1 -4,-4z"/>
   <path fill="#0B0B0B" d="M750 579c1,0 3,1 3,2 4,0 7,-2 7,-5 -4,0 -3,3 -7,3 -1,-3 2,-6 5,-8l1 0c-3,-2 -5,0 -7,3 -1,0 -1,0 -1,1 -1,1 -1,2 -1,4z"/>
   <path fill="#969696" d="M430 401l-6 5 -2 7 0 1 10 3 12 -10 1 1c-2,-7 -7,-8 -15,-7z"/>
   <path fill="#969696" d="M436 421c4,1 11,3 14,2 4,-2 10,-3 6,-8 -7,-6 -20,-4 -20,6z"/>
   <path fill="#969696" d="M528 400l0 -1c-3,-2 -5,-6 -12,-5 -1,1 -1,1 -3,2 -1,0 0,0 -1,0l3 3c1,0 4,3 4,4 0,1 -1,1 0,2l7 -1c1,0 2,-2 2,-4z"/>
   <path fill="#81858B" d="M690 594c1,-1 6,-5 7,-5l-2 -2 4 -2c3,2 1,3 6,1 4,-1 3,-1 6,-1l-10 -8 1 -1c-4,1 -9,-6 -14,-7 -3,-1 -6,-1 -9,1 -2,2 -6,1 -7,2l0 5 18 17z"/>
   <path fill="#81858B" d="M629 699l0 0 6 6 0 1 23 -10 -2 -3 -7 1c-1,-1 0,-6 0,-7l-2 -1 -7 0c0,0 -1,-1 -2,-2l2 -4 -2 0 -4 23 -3 -6 -2 2z"/>
   <path fill="#202328" d="M544 465c-8,0 -8,5 -9,5l-2 -8 3 2c1,-2 -2,-3 1,-2 1,0 1,2 3,1 0,-1 -4,-11 6,-2 4,2 7,5 10,7 6,5 15,11 19,16 -2,2 -5,-3 -12,5l-6 -6 4 2 -1 -3 4 2 -2 -4c-7,0 -7,4 -9,6l-2 -9 4 2 -1 -2c1,-1 3,1 4,1 2,-2 -3,-3 -6,-2 -7,2 -2,3 -5,5 -1,-2 -2,-8 -2,-9l3 2c1,-1 -2,-3 1,-2 3,1 0,1 4,1 -4,-2 -1,-4 -7,-2 -7,2 -2,3 -6,5l-2 -9c1,1 3,2 4,2l0 -3 3 2 -1 -3zm-1 24l-7 3 0 -1c6,5 12,11 18,17 4,3 14,14 21,13l5 -2c0,-6 -5,-6 -7,-10 -2,2 0,1 -1,2 0,1 -1,2 -2,2 -2,1 -4,0 -5,-1 -2,-1 -2,-2 0,-4l4 -1 0 0 -3 -3c-1,0 2,2 -2,3 -3,1 -5,1 -6,-1 0,-1 0,-2 0,-3 2,-1 3,-1 6,0l-4 -5 5 1 2 -3 0 2 15 -2 0 -2c1,1 3,2 3,3l-3 3 10 3 2 -3 6 5c-2,3 -3,0 -6,-1l-2 3c1,0 4,1 4,3l6 0c-1,1 -2,5 -2,7l0 0c6,0 1,-8 4,-11l1 0 0 8 0 1 12 -4 0 -4 -7 3 -10 -9 0 0c-3,-2 1,0 -2,-3l-7 -5c-3,-2 -2,1 -4,-3l6 -3 2 4c2,0 -2,1 0,0 2,-1 2,0 2,1 2,3 2,1 6,5 1,2 -1,-1 1,1 2,1 0,0 2,1 1,2 1,-1 3,2 1,1 3,5 6,5 2,-3 4,-1 4,-5 0,-3 -2,-3 -4,-5l-1 3c-4,1 -11,-1 -8,-4 1,0 1,-1 2,-1 1,0 2,0 3,0l-2 -3c-2,0 1,0 -2,2 -4,3 -7,-1 -11,-3l0 -1 8 0 1 0 -4 -4 2 -1 -10 -3 4 5 -5 -5 -1 4c-3,2 -7,1 -9,-1 -3,-3 -1,-1 -2,0 -2,0 0,-1 -1,-3 -6,-5 -8,-1 -13,-10 -3,-4 -3,0 -5,-4 -2,-2 -3,-2 -4,-2 -2,-1 0,-1 -2,-3 -4,-5 -3,1 -6,-4 -1,-2 -2,-2 -3,-2 -3,-1 0,-1 -2,-2l0 -2 -9 4c0,1 2,2 3,3l0 1 -9 2 -9 -3 -4 1 0 1 4 3c7,-3 12,5 16,8 4,3 4,4 8,6 3,2 3,6 8,5 0,3 1,4 3,6 3,2 1,-1 2,3 0,2 1,1 1,4l-10 1 0 -1 2 -1c-6,-3 -2,-3 -2,-4 0,-1 -3,2 -5,-2z"/>
   <path fill="#202328" d="M661 624l-4 0 1 -5 -8 2 0 -1 7 -5c-7,-5 -15,6 -7,13l-6 3 8 -1c-2,2 -10,4 -13,6 -2,1 -3,3 -5,5 -1,1 -3,2 -4,5l24 -10 1 1 -50 24 24 -9 1 2 -12 6 -1 1 10 -3 0 2 -10 5 13 -2 0 2 13 16 -5 -13 1 -1 -9 -17c3,-2 6,-1 9,-1 4,1 2,1 3,3 0,0 3,2 4,2 2,2 12,11 12,13l-2 16 4 4 -2 -5c0,-14 6,-11 -4,-20 -1,-2 -15,-14 -10,-16l2 2 3 1c3,-3 10,6 12,7 2,2 10,7 6,12l-2 9c1,1 1,0 1,0 2,-1 3,-13 2,-15 0,-1 -3,-3 -4,-5 -1,0 -2,-2 -3,-2 -1,-2 0,-3 0,-3l-8 -6c1,-2 2,-1 6,-2l1 -1 17 16c0,2 0,3 -1,7 0,2 -1,5 -1,7 0,-1 3,-10 3,-11 0,-4 -2,-6 -5,-8 -3,-3 -13,-13 -13,-16 2,1 5,0 8,1 3,1 1,2 4,0l5 -2c0,0 2,0 4,-1 7,-4 8,-4 2,1l9 0 -1 -14 2 -3 -22 8c-2,-1 -1,-5 -2,-7l1 0c-6,-1 -4,-9 -4,-9 -5,12 1,10 -5,12z"/>
   <path fill="#202328" d="M604 670l8 2 -2 4 1 7 -5 4 -2 -3 -1 14 7 -1c-3,10 -12,-4 -13,-6l-5 -1 0 1 2 3 -26 12 16 -3 -2 3 6 -2 8 6c3,-3 -2,-2 5,-5 4,-1 7,-5 11,-1 4,4 1,3 -1,4 3,0 3,1 5,-1 3,-1 4,-1 4,-1 2,-1 7,-6 8,-6l1 -1 0 0 -4 -6c-2,0 -3,5 -7,3 -3,-1 -4,-4 -3,-7 1,-1 2,-11 2,-16l-5 -6 -8 3z"/>
   <path fill="#202328" d="M369 316c2,0 0,2 0,0zm-5 -3l0 -1 1 0 -1 1zm5 -2c0,-1 1,0 0,0 0,0 -1,0 0,0zm-5 -4c0,0 0,-2 0,0 1,1 0,0 0,0zm-4 -2l-3 3 -1 0 3 5 0 -6 1 0 -1 1 2 2 4 0 0 0 -3 1 -1 1 3 4 0 -3 2 1 4 0 -3 5 5 5 0 -6c1,-1 3,0 4,1l-4 1c-1,5 1,5 4,7 2,2 5,5 7,5l0 -5 9 -2 -3 -5 -2 4c1,-2 -1,2 -2,-2 0,-1 0,-5 0,-6 -7,0 -3,-2 -6,-4 -1,-1 -3,-1 -4,0 0,1 1,1 1,3l-1 0 -1 -8c-10,1 -2,-6 -10,-4l-2 -4 -4 -1 2 7z"/>
   <path fill="#202328" d="M321 345c-1,1 -13,4 -15,1 -6,2 -7,8 -14,-3l-2 1 4 5 -7 1 0 1 8 -1 15 14c2,0 6,-1 8,-1l-2 -4c0,0 5,-4 7,-3 2,0 4,4 7,4l0 0 -7 -8 4 2c1,-2 -2,-9 -6,-9z"/>
   <path fill="#202328" d="M570 666l1 4 -1 0 6 5 -3 -4 3 -3c0,-2 -1,-3 -2,-5 -3,-3 0,0 -4,-1 -1,-3 1,-3 -3,-7 -1,-1 -4,-5 -6,-5l1 2 -4 -1c1,-3 2,-6 -2,-7 -4,-2 -2,-6 -5,-7l-6 3 1 -10c-4,2 -3,1 -4,6 0,5 0,4 3,7 2,3 5,6 8,10 4,4 10,12 13,14 6,4 3,0 4,-1z"/>
   <path fill="#202328" d="M440 435l5 5 20 -1 0 1 0 -8 0 -1 0 -1 -4 -9c-3,1 3,7 -9,8 -8,1 -5,2 -14,1l2 5z"/>
   <path fill="#202328" d="M715 617l7 5c5,-1 5,-3 8,-1 1,1 7,5 7,6l4 2 -2 -14 1 0 -8 -11 -4 2 0 1 2 1 0 0 -15 9z"/>
   <path fill="#202328" d="M593 518l6 -1 -7 0 -2 -4 3 -2 -4 -4 -6 2 -1 -1 2 -2 -4 -1 4 -2 -5 -2c0,-1 4,-2 -1,-1 -3,1 -3,0 -5,-1 -3,-2 -6,-2 -9,0l8 4 -2 5 5 0 5 3c1,1 -3,2 1,5 4,2 0,-3 3,-1 4,2 3,3 9,3z"/>
   <polygon fill="#202328" points="528,388 528,399 528,400 529,402 541,411 540,411 545,397 546,397 542,399 529,387 "/>
   <polygon fill="#202328" points="524,635 509,641 515,649 522,645 532,640 527,634 "/>
   <path fill="#202328" d="M528 618c-6,2 2,21 7,21 7,0 -2,-22 -7,-21z"/>
   <path fill="#202328" d="M742 583l0 1c1,1 2,1 3,2 2,4 0,1 1,3 -1,0 -1,0 -1,2 0,-1 1,0 2,1 -4,1 -3,2 -3,4 0,1 0,-1 -1,0 4,-2 17,-5 18,-10l-2 -1c-5,-1 -3,0 -4,2l-1 -1 -1 0c0,0 -1,0 -1,0 -2,2 -1,2 -1,2 0,1 3,1 -1,1l-1 1c-1,-4 -3,-1 -1,-4 0,-1 0,-1 1,-2 1,0 0,1 1,0 2,-1 0,0 1,-1l-5 -4c-3,0 -4,1 -4,4z"/>
   <path fill="#202328" d="M637 608c1,1 6,4 6,5 0,1 -2,3 -1,5 0,1 0,1 1,2 1,2 0,1 2,2 0,0 0,-1 0,-1l1 -1c1,-3 1,-3 2,-4 1,-1 1,-1 2,-2 2,-1 3,-1 4,-2 -3,-3 -5,-1 -7,1 -3,1 -3,3 -4,5 0,-5 4,-7 8,-8 -1,0 -4,-3 -5,-5 -1,-1 -2,-2 -3,-1 -2,0 -2,0 -2,1l-2 1c0,0 -2,0 -2,2z"/>
   <path fill="#202328" d="M501 397l1 3c-1,1 1,1 -3,1 0,0 -1,-1 -1,-1 -4,-1 -1,-1 -2,1 -1,-2 -1,-2 -3,-2 0,0 -1,-1 0,1 1,1 0,1 2,2 0,0 0,1 1,1 0,0 -1,0 0,0 2,1 0,0 1,1 0,0 0,0 0,0l4 -1c0,1 0,1 0,1 0,0 0,0 0,0 0,0 0,1 1,1l0 1 4 0c-2,0 1,0 -1,0 -2,0 -1,0 -2,-1 0,0 0,0 0,0 1,1 0,0 1,-1 2,-1 1,0 2,0 0,-2 0,0 1,-1 0,0 0,-1 0,-2 0,-3 0,1 -1,-2 0,-1 1,-6 1,-7 -1,2 -2,2 -5,2 -1,0 -1,-1 -1,0 0,1 0,2 0,3z"/>
   <path fill="#202328" d="M435 422l1 -4c-3,0 -1,1 -5,1 -2,0 -4,-1 -5,-1 0,2 0,5 0,8 3,1 5,1 8,1 0,-1 -1,-2 -1,-4 2,-1 0,-1 2,-1z"/>
   <path fill="#5D6166" d="M511 510l100 98 9 -5c1,1 9,8 9,8 1,1 3,13 -4,10 7,6 8,13 19,10l6 -3c-8,-7 0,-18 7,-13l-7 5 0 1 8 -2 -1 5 4 0c-2,-4 -3,-10 -1,-15 1,-3 6,-4 10,-6 7,-2 17,-6 23,-9 7,-5 13,-6 21,-9 7,-3 17,-8 23,-10l1 0 4 8c0,-3 1,-4 4,-4l5 4 2 -2c0,-1 -2,-2 -3,-2l-6 -4c0,-4 2,-8 5,-9 5,-3 7,5 6,-2l-4 -4 -4 2 3 2 -6 4c-4,-6 -9,2 -13,-3 -4,-3 1,-4 -9,-11 -9,-6 -16,-12 -24,-18 -2,-1 -1,-2 -3,-2 -1,-1 -1,-1 -3,-3 -7,-6 -12,-6 -17,-11 -3,-3 -8,-7 -12,-9 -3,-2 -4,-4 -6,-3 -1,0 -6,3 -7,3l4 0 -4 5c1,1 1,-1 4,2l11 8c2,-2 0,0 2,-1 1,0 1,-1 2,-1 2,0 4,-1 5,0 1,0 5,4 6,4 1,1 0,2 0,2 0,0 1,0 0,1 -1,1 1,0 -1,0 -2,1 0,0 -2,0 1,1 3,3 5,2 0,0 2,-4 4,-4l15 12c1,2 -2,1 0,5 1,2 3,1 5,2 1,0 7,5 8,6 1,2 -1,2 1,3l1 0c1,-1 2,-2 3,-3l9 7 -1 1 -3 1 2 2 0 1 2 3 9 2 0 1 -7 4 0 1 -19 8c-3,0 -2,0 -6,1 -5,2 -3,1 -6,-1l-4 2 2 2c-1,0 -6,4 -7,5l-31 12 0 -1 1 -5 -1 0 -4 2 -2 -5 5 2 -6 -3 0 6 -6 3c1,2 4,5 5,5 -4,1 -8,3 -8,8 1,-2 1,-4 4,-5 2,-2 4,-4 7,-1 -1,1 -2,1 -4,2 -1,1 -1,1 -2,2 -1,1 -1,1 -2,4l-1 1c0,0 0,1 0,1 -2,-1 -1,0 -2,-2 -1,-1 -1,-1 -1,-2 -1,-2 1,-4 1,-5 0,-1 -5,-4 -6,-5 -3,0 -3,3 -7,0 -2,-2 -1,-3 -3,-6 -1,-2 -6,-7 -8,-9 -2,-2 -3,-3 -5,-5 -3,-3 -18,-4 -17,-9l7 2c-1,-1 -5,-6 -7,-6l-2 3c0,-1 -8,-7 -9,-8l0 0c1,-7 -4,-7 -7,-11 -3,-4 -6,-6 -10,-8 -7,-5 -5,-2 -11,-9 -2,-1 -3,-3 -5,-4 -8,-7 6,1 -12,-15 -2,-2 -2,1 -5,-3 -1,-2 -3,-4 -4,-4 -6,1 -9,-11 -21,-14l0 8z"/>
   <path fill="#5D6166" d="M547 436l5 9 0 -1 0 4 -5 -1c1,5 5,6 9,8 8,4 15,8 22,12 6,3 -2,-5 9,3 6,4 13,10 19,14 10,6 9,6 14,11 2,3 0,3 4,4l-1 -1 4 0 0 -1c3,4 10,1 12,6l-9 3 1 1c1,-1 0,-2 5,-3 4,-1 1,0 3,0l1 0c1,0 -1,-1 1,0l0 1c-1,0 -8,2 -9,3l5 3 0 -1 -2 -4 8 1 -1 -2 1 0 4 11c0,-7 1,-10 -5,-13l6 -2 -6 -4c8,0 -14,-9 -11,-14 1,0 13,10 16,11 3,3 5,5 8,4 4,-1 7,-3 7,-7l-14 -9 5 -2 -7 1 0 -5 -27 -19 5 5 0 0c-9,1 -5,-3 -10,-1 -1,1 -5,1 -5,1 0,0 0,1 -2,0 -2,-1 0,-1 -2,-1l1 -3 -1 -2 2 0 -3 -3 -6 5 32 24 -1 3 -3 -1 4 7 -2 1c-1,-2 -3,-6 -3,-7l0 3 -28 -21c-5,-5 -25,-15 -31,-18 -3,-1 -17,-12 -18,-14l-1 1z"/>
   <path fill="#5D6166" d="M687 548l0 0 -28 -22c-1,2 -6,8 -6,9l2 -1 -1 5c0,-1 0,-2 -2,0 -4,3 6,0 -15,8 -4,1 -9,1 -13,2 -6,0 -6,-1 -11,-1l0 -1c0,0 0,0 0,0 -2,-4 -2,-3 -4,-4 -3,-2 -3,-4 -7,-4 2,0 5,-2 2,-4l1 0 2 -10c-6,1 -4,4 -9,-1l-2 9 -2 0 -2 -6 -7 1 9 9 -2 -1c0,2 4,4 5,4 2,0 3,3 7,0 1,3 2,1 1,3 -1,2 0,0 1,1 1,4 3,1 3,4l17 19c2,-1 -2,-1 3,-3 2,-1 3,-1 4,0 2,1 5,5 7,3 2,-1 -1,-3 -2,-4 -3,-3 3,-3 -1,-4 -2,-1 -2,2 -6,-1 -1,-1 -1,-2 -2,-2 -2,-2 -1,0 -3,-2l6 0 29 -12 6 5 -3 2 5 4 0 -3 -2 0 1 -1 9 4 1 0 -4 -6 7 -2 1 8c2,-1 4,-4 5,-5z"/>
   <path fill="#5D6166" d="M515 649l48 60 4 -2 3 -3c-6,-5 -1,-4 -5,-8 -7,-9 -41,-51 -43,-51l-7 4z"/>
   <path fill="#5D6166" d="M625 693l4 6 2 -2 3 6 4 -23 2 0 -2 4c1,1 2,2 2,2l7 0 2 1c0,1 -1,6 0,7l7 -1 5 -4c-3,-2 -9,6 -11,3 -2,-4 6,-8 6,-9l2 -16 -6 1 -3 18 0 0 -6 -5 -13 -16c-6,4 0,12 -2,16l-3 -1 1 -6 -4 0 -2 -4c-1,1 -4,2 -1,5 2,4 0,5 1,6l4 -1 1 13z"/>
   <path fill="#5D6166" d="M538 567c-3,2 -6,3 -11,4 -12,0 1,-4 -8,-4l2 -2 -4 0c-4,-6 -6,3 -5,-6 -1,2 -1,11 1,13 0,0 4,3 4,3 4,1 4,1 5,-1 2,2 1,2 3,1 1,2 -1,2 4,1 2,0 3,0 4,-1 3,-3 3,-3 5,-8z"/>
   <path fill="#5D6166" d="M691 679l12 -6 2 -10 -1 0 2 2 5 -7 -7 -3 -2 3c-3,2 2,-1 -1,0 -2,0 -7,-1 -6,3l2 1 4 10 1 0c-11,4 -11,3 -11,7z"/>
   <path fill="#5D6166" d="M675 673c0,-2 1,-5 1,-7 1,-4 1,-5 1,-7 -3,0 -4,1 -6,1 0,1 -1,2 -1,2 1,2 0,0 1,1 0,1 -1,2 -1,4 0,2 0,0 0,2 -1,2 0,0 -1,3 0,2 0,3 -1,5 2,0 4,0 5,-1 3,-2 1,-1 2,-3z"/>
   <path fill="#6E7279" d="M436 421c0,-10 13,-12 20,-6 4,5 -2,6 -6,8 -3,1 -10,-1 -14,-2zm-26 -25c5,3 18,-2 20,5 8,-1 13,0 15,7l-1 -1 -12 10 4 1 -1 4c-4,9 18,9 24,4l-1 -8 1 0 10 10 -4 3 0 1 22 20 0 -1 -12 6c1,1 15,-4 18,-4 11,0 7,9 11,13 2,3 1,0 2,3 0,1 1,2 3,3l15 14c3,3 2,0 4,1 1,2 -2,1 1,4l10 8c2,1 2,0 3,2 1,2 1,2 3,3 3,3 3,4 7,5 0,2 -3,0 1,3 1,1 2,2 4,3 2,2 4,5 7,7 7,3 6,9 15,10 -1,2 -4,1 1,4l12 10c3,2 1,0 3,3 1,1 3,3 4,4 8,8 4,4 7,4l0 1 2 4 0 1 1 1c2,0 2,0 2,1l-1 3c0,0 0,0 0,1l-4 1c1,1 3,1 4,0 3,-2 1,-1 1,-3l3 -2c3,4 5,7 9,9 1,1 8,8 9,9 14,8 1,1 8,7 3,4 10,2 12,6l6 3 -5 -2 2 5 4 -2 1 0 -1 5 0 1 31 -12 -18 -17 0 -5c1,-1 5,0 7,-2 3,-2 6,-2 9,-1 5,1 10,8 14,7l-1 1 10 8 19 -8 0 -1 7 -4 0 -1 -9 -2 -2 -3 0 -1 -2 -2 3 -1 1 -1 -9 -7c-1,1 -2,2 -3,3l-1 0c-2,-1 0,-1 -1,-3 -1,-1 -7,-6 -8,-6 -2,-1 -4,0 -5,-2 -2,-4 1,-3 0,-5l-15 -12c-2,0 -4,4 -4,4 -2,1 -4,-1 -5,-2 2,0 0,1 2,0 2,0 0,1 1,0 1,-1 0,-1 0,-1 0,0 1,-1 0,-2 -1,0 -5,-4 -6,-4 -1,-1 -3,0 -5,0 -1,0 -1,1 -2,1 -2,1 0,-1 -2,1 3,2 9,7 13,10 4,3 9,5 9,12 -1,1 -3,4 -5,5l-1 -8 -7 2 4 6 -1 0 -9 -4 -1 1 2 0 0 3 -5 -4 3 -2 -6 -5 -29 12 -6 0c2,2 1,0 3,2 1,0 1,1 2,2 4,3 4,0 6,1 4,1 -2,1 1,4 1,1 4,3 2,4 -2,2 -5,-2 -7,-3 -1,-1 -2,-1 -4,0 -5,2 -1,2 -3,3l-17 -19c0,-3 -2,0 -3,-4 -1,-1 -2,1 -1,-1 1,-2 0,0 -1,-3 -4,3 -5,0 -7,0 -1,0 -5,-2 -5,-4l2 1 -9 -9 7 -1 2 6 2 0 2 -9 -1 -1 0 -5 3 -1 0 0 -1 0 -6 1c-4,3 -14,7 -18,3 -7,1 -17,-10 -21,-13 -6,-6 -12,-12 -18,-17l0 1 7 -3 0 -3 0 2 -3 1c-1,0 0,0 0,0 -2,1 0,1 -2,1l-6 -3 1 -2 -2 1c-1,-1 -2,-2 -4,-3 -1,-1 -1,-2 -2,-4 -2,-2 -4,-5 -6,-7 -2,-2 -11,-15 -10,-16 1,-2 16,-5 19,-6 8,-2 11,-5 19,-3l5 1 0 -4 0 1 -5 -9c-3,-3 -25,-20 -30,-20l15 10c-2,2 1,5 -7,10 -4,2 -8,2 -11,4l1 4 9 -3 -1 -3 1 -1 1 3c2,-1 2,-1 3,-1 2,-2 1,-1 3,-3 3,-2 1,-3 3,-6 7,9 -18,20 -38,16 -6,-1 -4,0 -6,0 -3,-3 -7,-4 -10,-6 -6,-4 -3,-8 -4,-12 -3,-1 -3,1 -7,-3 -2,-1 -4,-3 -5,-4 -3,-4 0,-10 0,-16 -4,-2 -10,-1 -15,-4 -5,-2 -8,-5 -11,-8 -3,-2 -2,-1 -7,-1 -4,1 -2,-1 -7,0 -3,1 -13,1 -14,4z"/>
   <path fill="#6E7279" d="M277 312c1,2 7,8 9,10 2,2 1,4 2,6 0,1 0,1 0,2 2,4 2,2 2,4l0 -1 -4 4 0 1 6 5c7,11 8,5 14,3l5 -3 -11 0 -1 -1 16 -4 4 -3 -2 -18 1 0 2 3 1 0 2 12 -1 -10 1 0 2 7 0 -4c3,1 1,2 2,4 1,2 0,-6 2,0 1,2 1,8 2,11l-1 -10 1 0 2 6 0 -4 1 0 2 7 0 -4 1 0 1 3 2 0 3 16 -8 5c3,10 -1,5 6,12 2,2 6,8 9,9l-1 -8c3,-1 7,-3 10,-4 7,-3 3,-1 10,-2 2,-1 22,-4 22,-6l-7 -1c-8,4 -19,3 -25,0 -1,-1 -1,-3 -1,-3 0,-1 -1,-2 1,-3 2,-1 1,0 1,1 0,0 -3,-1 1,1 1,1 4,0 5,-1l-2 -5 3 -2c-10,1 -14,-5 -19,-11 -3,-3 -14,-12 -16,-15 -2,-1 -10,-9 -11,-10 -3,-3 -4,-2 -9,-1 -6,1 -3,0 -8,4l-4 -6 -7 1 -1 0 2 5 -10 2c-2,-3 -3,-5 -7,-4z"/>
   <path fill="#6E7279" d="M390 297l-1 -2c3,1 5,3 7,4 1,1 5,3 6,5 -3,1 -6,2 -9,2 0,-2 0,-2 1,-2 -1,0 -4,0 -4,-2 1,-1 1,-1 1,0 -2,0 -2,0 -4,-1l1 -2c-5,0 -4,2 -8,-1 -2,-2 -3,-3 -6,-2l4 3 -8 2 26 20c8,2 7,3 13,7 2,1 9,8 10,9l-11 -17 -3 -18 0 0 -4 -2 -2 -2 -1 0 -3 -2 -6 -3 -1 0 2 4z"/>
   <path fill="#6E7279" d="M548 435c1,2 15,13 18,14 6,3 26,13 31,18l28 21 0 -3c0,1 2,5 3,7l2 -1 -4 -7c-2,-2 -5,-5 -8,-6 -2,-2 -4,-4 -7,-6 -6,-4 -11,-10 -16,-12 -6,-3 -11,-9 -16,-12 -2,-2 -6,-2 -10,-4 -4,-2 -7,0 -10,-4 -2,-9 10,-6 11,-9 -9,0 -6,1 -13,-5l0 1 5 4 -2 1 -2 0 -10 3z"/>
   <path fill="#6E7279" d="M711 658l-5 7 -2 -2 1 0 -2 10c5,1 0,5 10,0 4,-1 5,-3 9,-5 3,-1 16,-10 18,-13l-5 2c0,0 0,-3 -4,0 -2,2 1,4 -2,2 -3,-4 -4,4 -6,7l-5 -3 20 -11 -18 7 -1 -5c4,-1 10,-4 8,-7 -3,1 -6,3 -10,5 -2,1 -3,1 -5,2 -4,2 -5,-2 -6,1l0 0 0 2 5 1z"/>
   <path fill="#6E7279" d="M752 650l8 -4c9,-5 6,-14 9,-16 4,-3 3,-5 4,-8 1,-3 3,-6 1,-9l-4 2c-1,1 -1,17 -6,16l2 -9c-10,1 -3,14 -10,13l4 -14 -5 1 -5 18 7 -5 -2 6 1 0 -10 6 6 3z"/>
   <path fill="#6E7279" d="M512 559c-1,9 1,0 5,6l4 0 -2 2c9,0 -4,4 8,4 5,-1 8,-2 11,-4l1 -1 2 -4c-3,-2 -3,-9 -14,-10 -11,0 -10,3 -15,7z"/>
   <path fill="#6E7279" d="M722 622l-7 -5c-2,-2 -2,-4 -7,-3 -3,0 -6,3 -4,5 -3,1 -3,-1 -2,5 1,5 0,-3 4,2 1,2 0,3 1,6 0,0 4,4 4,5 7,1 14,-8 11,-15z"/>
   <path fill="#6E7279" d="M507 392c0,1 -1,6 -1,7 1,3 1,-1 1,2 0,1 0,2 0,2 -1,6 6,9 12,8 8,-1 12,-1 10,-9l-1 -2c0,2 -1,4 -2,4l-7 1c-1,-1 0,-1 0,-2 0,-1 -3,-4 -4,-4l-3 -3c1,0 0,0 1,0 2,-1 2,-1 3,-2 -2,0 -2,-11 -10,-10l0 6 1 2z"/>
   <path fill="#6E7279" d="M678 498l6 6 0 3c1,1 5,4 6,5 2,0 9,-2 9,-2l1 -2c-3,-9 -8,-11 -19,-11l-3 1z"/>
   <path fill="#6E7279" d="M696 652c0,0 0,0 -1,1l-3 1c-5,2 -1,-1 -4,1 0,0 2,0 -3,2l-5 2 0 2 0 1c2,-1 3,-2 4,-2l1 0c-1,1 0,0 -2,1 -2,0 -2,1 -4,1l-1 6c0,1 0,1 -1,3 0,2 0,0 0,2 2,0 3,0 5,-1 2,-2 1,-3 1,-5 3,-1 6,0 6,-5 -2,1 -3,1 -5,2 0,-2 5,-3 9,-5 8,-5 11,-5 6,-8l-3 1z"/>
   <path fill="#6E7279" d="M475 380l0 2c2,1 0,8 2,12 2,3 0,8 -2,9l2 0 4 -2 4 -4c-1,-3 -3,-1 -2,-3 1,-3 2,-1 5,-3l-8 -6c1,-1 2,-1 2,-2 3,-2 -1,0 2,-1 1,0 4,1 4,-2 -1,-4 -10,0 -13,0z"/>
   <path fill="#6E7279" d="M434 488c2,1 0,1 3,2l1 1c0,0 0,0 0,0 0,2 2,4 4,5 0,-3 -1,-8 0,-11 -1,-1 -1,0 -1,-1 0,-1 1,0 -1,-3 -2,-2 -1,-1 -3,-2 0,0 0,0 -1,-1 -1,-3 -2,-3 -3,-4 -1,0 -2,-4 -6,-5 1,3 2,10 2,12 0,2 1,3 3,4 2,2 0,0 2,3z"/>
   <path fill="#6E7279" d="M444 495l0 1c1,1 1,1 2,2 2,2 1,3 4,2 -1,3 -1,2 2,5 2,2 1,0 2,1l4 6 1 -5c0,0 0,-1 0,-1l0 -1c0,-3 -1,-3 -2,-4 -1,-1 0,-1 -1,-2 0,-1 -1,-1 -2,-1 0,-1 0,-1 -1,-2 0,0 0,0 -1,0 -1,-2 -1,-4 -3,-3l-1 0c0,-1 0,-1 -1,-2 -1,-1 -1,-1 -3,-2 0,0 0,0 0,0 0,2 0,2 0,4l0 0c1,1 0,1 1,1 -1,1 0,1 -1,1z"/>
   <path fill="#6E7279" d="M407 447c-2,-3 -1,-1 -4,-4 -1,-1 0,-1 -1,-2l-2 -2c-1,0 -1,0 0,3l0 8 2 2c1,0 1,1 1,1 1,1 1,0 1,1 2,3 1,0 4,4 3,4 0,0 2,3 1,0 0,0 1,1 1,-1 0,-3 0,-4 0,0 0,-1 0,-1 0,0 0,0 0,0 0,-2 0,-1 0,-2l0 -1c0,0 0,0 0,0l0 -3c0,-2 -2,-2 -3,-4l-1 0z"/>
   <path fill="#6E7279" d="M388 433l-1 1c0,0 0,1 0,1 1,2 2,3 4,4 0,2 0,2 1,2 0,1 1,1 1,1 2,1 1,3 5,5 0,0 0,-1 0,-1 -1,-6 0,-10 -2,-12 -2,-1 -2,0 -3,-2 -2,-4 -2,-3 -3,-4 -1,-1 0,-2 -4,-3l0 2c0,1 0,2 0,3l0 0c1,1 0,3 2,3z"/>
   <path fill="#6E7279" d="M426 475c0,-2 0,-3 0,-4 0,-1 0,0 0,-2 0,-1 0,-1 0,-2 0,-1 0,-1 -1,-1 -2,-2 -1,-1 -2,-2 -3,-3 0,-1 -3,-3 -1,-1 -1,-1 -2,-3l0 4c0,0 0,1 0,1l-1 -1c0,0 0,-1 0,-1 0,0 0,0 0,0 0,0 0,0 0,-1 0,0 1,-1 -2,-3 2,2 2,1 2,0 -1,-3 0,1 -3,-3 -1,1 -1,0 -1,2l1 6c0,3 3,4 4,5 0,0 1,2 3,4 3,1 0,1 3,3 1,1 1,2 2,1 1,0 0,2 0,0z"/>
   <path fill="#6E7279" d="M496 387c-1,1 -2,2 -3,3 0,2 0,4 0,6 2,3 4,4 9,4l-1 -3c-1,-1 0,-2 0,-3l0 -10c-3,1 -3,2 -5,3z"/>
   <path fill="#6E7279" d="M567 728c2,0 7,-4 11,-5 1,-1 2,-1 3,-2l-4 -4c-2,0 -12,5 -13,6l3 5z"/>
   <path fill="#6E7279" d="M666 677c0,0 0,1 -1,0l2 -9 0 -2c-2,0 -5,1 -6,2l0 3c-1,2 -1,3 -1,4l0 1c0,0 0,1 0,1 0,0 0,0 0,0l-1 5c2,0 3,-1 4,-2l3 -2c0,-1 0,1 0,-1z"/>
   <path fill="#6E7279" d="M797 612c-2,2 -6,2 -7,4l5 3c2,-1 5,-3 8,-3 1,-1 0,0 1,-2 -2,0 -3,-1 -3,-2 -2,-1 -2,0 -4,0z"/>
   <path fill="#4C4B50" d="M570 666c-1,1 2,5 -4,1 -3,-2 -9,-10 -13,-14 -3,-4 -6,-7 -8,-10 -3,-3 -3,-2 -3,-7 1,-5 0,-4 4,-6l-1 10 6 -3c3,1 1,5 5,7 4,1 3,4 2,7l4 1 -1 -2c2,0 5,4 6,5 4,4 2,4 3,7 4,1 1,-2 4,1 1,2 2,3 2,5l-3 3 3 4 -6 -5 1 0 -1 -4zm-42 -48c5,-1 14,21 7,21 -5,0 -13,-19 -7,-21zm-87 -77l5 -1 45 55 2 -3 4 11 1 0 1 -2c4,2 2,2 3,7 0,2 4,6 4,1l1 -1 4 12 1 0 2 -3 5 12 3 -3 2 9 3 -1 5 6 -10 5c2,0 36,42 43,51 4,4 -1,3 5,8l-3 3 1 -1 26 -12 -4 2c5,-4 0,-5 1,-9l4 -3 1 5 1 -11c-4,0 -2,-1 -6,1 -3,1 -3,3 -5,3 -4,1 -13,-1 -10,-5 3,-2 6,10 14,-1l-5 0 0 -1 33 -15 12 -6 -1 -2 -24 9 -4 -1 25 -12 -7 -11 -5 2c0,-2 0,-3 -1,-4l-5 2 1 2 -12 1c0,-2 0,-5 0,-6 -1,-2 -1,-2 -3,-2 -4,-1 1,0 -2,-1l-5 2 3 -2 -11 -5 0 -1 8 -6 4 6 1 -1 -3 -4 5 1c0,0 -3,2 0,4 2,1 2,0 3,1 4,1 -2,0 1,1l1 1c9,-5 16,-9 25,-15l-2 -3 -3 1 -7 -1 -1 2 6 2 0 -1c0,1 -2,2 -2,2 -3,0 -2,-1 -4,-1 -1,0 -1,1 -3,-1 -3,-2 2,-1 -1,-3l-10 3c-12,-14 -11,-7 -15,-4l3 5c-3,-3 -5,-1 -10,-1 -2,0 -10,1 -7,4l-4 -1 0 0 15 17 -1 1 22 24 -13 -11 -1 1 0 -2 -14 2 0 -1 9 -2 0 -1 -6 -3 -1 -3 -6 -1c1,-2 10,1 5,-4 -2,-2 -2,-4 -8,-4l0 -3 -5 -1 0 -2 4 2c0,-2 -3,-3 -3,-3 -1,-1 0,-1 0,-4 -3,-1 0,2 -3,-2 -3,-3 0,-2 -4,-4 -2,-2 -1,-2 -2,-2 -1,-1 -2,-1 -3,-2 -2,-2 3,-1 -4,-2l1 -3c-1,0 -5,-7 -7,-9 -2,-3 -4,-3 -5,-4 -2,-2 -4,-2 -4,-3l1 0 -1 -7 19 20 -1 -5c5,-3 2,0 3,2l8 8 -1 0 -6 -7 -2 1 12 13 1 -3 1 2 3 -4 -2 0 -1 -5 -5 -2 1 -3 3 -1 -3 -2 -2 3 -2 -4 -2 2 -2 -3 12 -5c2,1 3,3 5,4 5,3 0,4 5,2l2 5 1 -1 -1 -4 -5 -4 1 -1c-3,-3 -7,-8 -11,-11 -4,-4 -5,-8 -12,-8 0,1 2,3 -5,5 -2,0 -8,3 -10,2 3,-5 4,1 5,-10l-1 1c-2,5 -2,5 -5,8 -1,1 -2,1 -4,1 -5,1 -3,1 -4,-1 -2,1 -1,1 -3,-1 -1,2 -1,2 -5,1 0,0 -4,-3 -4,-3 -2,-2 -2,-11 -1,-13 5,-4 4,-7 15,-7 11,1 11,8 14,10 -1,-6 -8,-12 -12,-16 -4,1 -7,5 -9,0l7 -2c-3,-4 -10,-8 -12,-9 -2,0 -6,1 -8,1 -1,1 -2,2 -3,2 -3,2 2,0 -1,3 -7,3 -8,4 -2,10 1,1 12,9 2,10 1,-1 4,-2 -1,-3 -4,-2 -1,0 -2,-2 -3,-2 -1,0 -3,-2l3 -1 -5 -5c-2,2 0,0 -3,2 -4,2 0,1 -1,3l-7 -4 8 -4 -5 -5c-4,0 -3,-2 -7,0 -8,3 -3,-2 -3,-2l-2 -4 -4 1 0 3 -3 -5 6 1 1 -3c1,-3 -7,-4 -9,-4l0 2c-5,-4 0,-1 0,-4 -1,-2 -1,1 -4,0 2,-2 3,1 2,-2 -1,-1 -2,-1 -3,-1 -6,-1 -3,-1 -6,-4 -2,-2 -3,-3 -5,-5 -3,-3 -1,-4 -4,-3 0,-3 -4,-5 -4,-5 -1,-1 -1,-3 -4,-6 -3,-3 -6,-6 -9,-10 -1,-1 -3,-4 -5,-4 0,0 0,0 -2,-2 -2,-4 -7,-9 -10,-13 -3,-3 -8,-7 -9,-9l-13 -15c-2,-3 -4,-4 -4,-4l-4 -5c0,-1 -4,-5 -4,-5l-4 3 3 -5c-3,-2 -3,-2 -4,-3 0,-2 -1,-1 -1,-1 -3,-2 1,3 -1,-2 -2,-4 0,4 -3,-2 -1,-3 -1,-1 -2,-3 -1,-3 -3,-4 -5,-7 -2,-1 -2,-2 -3,-3 -3,-3 -3,-2 -4,-2l1 0 -9 -12 -3 2c-1,8 6,13 10,17 4,5 8,10 13,15 17,21 34,39 51,60 7,8 19,23 26,29 0,3 -1,4 0,7 0,3 2,1 4,4 2,4 6,6 7,10l-5 -2 17 19 0 -1 -12 -14 1 -1c3,1 7,8 9,11 3,3 6,5 9,9 2,3 1,2 4,5 4,3 0,2 5,4 1,0 9,9 9,9l-4 -2 -1 1c-2,-1 -16,-17 -18,-20l-1 1 17 20 -3 0c-2,-3 3,0 -2,-4 -4,-2 -1,-1 -2,-2 -2,-1 -2,0 -4,-2 1,-2 1,-2 -1,-4 -1,-1 -1,0 -3,-2 0,-1 0,0 -1,-1 -4,-3 -1,-1 -2,-3l-2 -1c0,0 0,0 0,0 -1,-3 -3,0 -3,-6 -1,0 -1,2 -3,-1 -2,-4 -1,-1 -3,-3 0,-2 0,-3 -1,-4 0,0 -1,-1 -2,-1l-2 -3c-1,-1 -1,-1 -1,-1 0,-3 2,2 0,-1 0,0 -1,-2 -3,-2 -4,-2 -2,-4 -3,-9 -2,-1 0,2 -3,-2 -1,-1 -2,-2 -3,-3l-40 -47 1 3c-4,0 -5,1 -5,-1 1,-3 1,1 0,-2 0,0 -1,-1 0,-2l2 1 0 -4c-10,-2 -6,0 -14,-8l1 -3 -3 -1 0 -1 -2 0 3 -2 -9 -7 -3 0 0 -1c2,0 3,0 4,-1l-10 -6 0 1c1,-4 2,-2 -2,-3l-4 -3 2 -4 -3 1 -3 -3 -1 1c5,9 58,65 59,73 -3,-1 -5,-7 -8,-4 -1,1 -2,-1 -2,1 3,3 3,6 8,5 4,-1 9,-4 11,-3 1,0 13,15 14,17 3,5 12,12 10,20l-2 1z"/>
   <path fill="#4C4B50" d="M493 461c-3,1 -5,1 -7,0 -2,0 -1,0 -2,-1 0,0 0,-4 5,-3 5,1 4,0 4,4zm-18 -4l-6 3c1,3 0,3 7,4 3,1 2,4 5,5 -1,3 -3,-2 -2,3 0,1 1,2 1,3 2,1 -1,-2 2,0 1,1 2,2 2,3 -1,3 0,-1 0,2 2,0 1,-3 2,2 1,5 0,4 2,6 5,4 21,21 23,22l0 -8c12,3 15,15 21,14 1,0 3,2 4,4 3,4 3,1 5,3 18,16 4,8 12,15 2,1 3,3 5,4 6,7 4,4 11,9 4,2 7,4 10,8 3,4 8,4 7,11l0 0c1,1 9,7 9,8l2 -3c2,0 6,5 7,6l-7 -2c-1,5 14,6 17,9 2,2 3,3 5,5 2,2 7,7 8,9 2,3 1,4 3,6 4,3 4,0 7,0 0,-2 2,-2 2,-2l2 -1c0,-1 0,-1 2,-1 1,-1 2,0 3,1l6 -3 0 -6c-2,-4 -9,-2 -12,-6 -7,-6 6,1 -8,-7 -1,-1 -8,-8 -9,-9 -4,-2 -6,-5 -9,-9l-3 2c0,2 2,1 -1,3 -1,1 -3,1 -4,0 -1,-1 -2,-1 -3,-1 -2,-1 -2,-1 -2,-2l-1 -1c1,-1 1,0 1,-1 -1,-1 -1,0 -1,-1 0,-1 3,-2 3,-2 3,0 2,2 5,1l0 -1 -2 -4 0 -1c-3,0 1,4 -7,-4 -1,-1 -3,-3 -4,-4 -2,-3 0,-1 -3,-3l-12 -10c-5,-3 -2,-2 -1,-4 -9,-1 -8,-7 -15,-10 -3,-2 -5,-5 -7,-7 -2,-1 -3,-2 -4,-3 -4,-3 -1,-1 -1,-3 -4,-1 -4,-2 -7,-5 -2,-1 -2,-1 -3,-3 -1,-2 -1,-1 -3,-2l-10 -8c-3,-3 0,-2 -1,-4 -2,-1 -1,2 -4,-1l-15 -14c-2,-1 -3,-2 -3,-3 -1,-3 0,0 -2,-3 -4,-4 0,-13 -11,-13 -3,0 -17,5 -18,4z"/>
   <path fill="#4C4B50" d="M490 344l2 -2 1 21c-6,-3 -1,-10 -3,-15l0 13 -2 0 0 -11 0 10 -6 -3 -13 2 6 2c-4,2 -6,0 -6,0 -2,1 0,0 -1,1 -2,1 2,-1 -1,0 -1,1 0,1 -1,0 -2,-1 -1,-2 -2,-3 -4,1 2,4 -5,-1 -2,-1 -7,1 -9,1l-1 1c5,5 5,5 11,10l4 0 0 5 -3 3c1,1 6,4 2,6l-2 -4c-3,0 -7,-4 -11,-7 0,0 0,0 0,0 0,0 0,0 0,0l-1 -1c-3,-2 -4,-2 -5,-4 -3,-4 -5,-2 -6,-2l-2 -3 -1 2c-3,6 -10,-4 -13,-4 -2,-1 -1,0 -3,0 -4,1 -1,-1 -3,-1 -4,0 -3,3 -4,-1l-6 0 0 -1c0,2 1,12 1,13l0 2 -26 9 -7 0 0 -1 2 -1c-1,-1 -5,-8 -6,-9l3 0 0 -1 -8 -1 -4 5c4,4 11,11 15,15 2,1 2,1 3,2 2,2 -1,-1 1,1 0,1 2,3 4,4 5,6 2,3 8,6l-7 -7 2 0c-1,-3 -1,-1 1,-4 1,-2 1,-2 3,-3 2,0 10,-2 11,-2 -1,0 -3,2 -7,3 -3,1 -5,0 -6,4 0,0 14,-5 16,-6 3,-1 6,-1 8,-2 8,-3 6,-2 8,-1 -1,2 -29,5 -30,11l32 -10 1 1c-3,3 -13,2 -18,4 -3,2 -2,2 -7,3 -3,1 -6,1 -5,6 1,-1 0,-2 3,-3l12 -4c5,-2 13,-6 17,-4 -2,3 -13,3 -17,4 -2,1 -1,2 -6,3 -4,1 -7,1 -7,4l31 -10 1 1c0,-1 0,-7 1,-8 7,1 4,1 6,-1 1,-2 1,-1 2,-2 3,-1 1,-3 3,-4l5 5 0 1 -4 -1 1 15 2 1 0 -8 1 0 3 12 1 0 0 -6 7 1 0 -1c1,2 -1,2 3,2 5,2 0,-2 3,-1 5,1 -3,-1 2,3l3 -5 1 5 -12 -1 0 1 7 1 0 3 -6 0 0 1 6 1 0 -1 10 -2 0 -12c0,-1 -6,-1 -7,-1l0 -9c1,-1 3,-1 4,-2l-5 -2 0 -10 16 -1 -12 3 0 1 15 -2 0 1 -14 2 0 1 16 -2 0 1 -16 2 1 1 18 -2 0 1 -18 2 0 2 21 -3 -21 4 0 1 24 -3c-11,3 -19,1 -29,7l2 3 7 -2 0 -2 -2 0c2,-2 10,-2 14,-3 4,0 11,-3 11,1l-10 2 8 7c2,-1 2,-2 5,-3l0 10c0,1 -1,2 0,3 0,-1 0,-2 0,-3 0,-1 0,0 1,0 3,0 4,0 5,-2l-1 -2 0 -6c8,-1 8,10 10,10 7,-1 9,3 12,5l0 -11 -4 -3c0,-4 2,-8 -3,-9l0 7c-6,-4 1,-10 -5,-10l0 6 -11 -7 0 -22 -1 0 0 21 -9 -6 0 -26 -5 5z"/>
   <path fill="#4C4B50" d="M400 439l2 2c1,1 0,1 1,2 3,3 2,1 4,4l1 0c1,2 3,2 3,4l0 3c0,0 0,0 0,0l0 1c0,1 0,0 0,2 0,0 0,0 0,0 0,0 0,1 0,1 0,1 1,3 0,4 -1,-1 0,-1 -1,-1 -2,-3 1,1 -2,-3 -3,-4 -2,-1 -4,-4 0,-1 0,0 -1,-1 0,0 0,-1 -1,-1l-2 -2 0 -8c-1,-3 -1,-3 0,-3zm-12 -6c-2,0 -1,-2 -2,-3l0 0c0,-1 0,-2 0,-3l0 -2c4,1 3,2 4,3 1,1 1,0 3,4 1,2 1,1 3,2 2,2 1,6 2,12 0,0 0,1 0,1 -4,-2 -3,-4 -5,-5 0,0 -1,0 -1,-1 -1,0 -1,0 -1,-2 -2,-1 -3,-2 -4,-4 0,0 0,-1 0,-1l1 -1zm50 58c0,0 0,0 0,0l-1 -1c-3,-1 -1,-1 -3,-2 0,3 -5,-5 -6,-5 -6,-7 2,-2 -2,-8 0,2 1,0 0,0 -1,1 -1,0 -2,-1 -3,-2 0,-2 -3,-3 -2,-2 -3,-4 -3,-4 -1,-1 -4,-2 -4,-5l-1 -6c0,-2 0,-1 1,-2 3,4 2,0 3,3 0,1 0,2 -2,0 3,2 2,3 2,3 0,1 0,1 0,1 0,0 0,0 0,0 0,0 0,1 0,1l1 1c0,0 0,-1 0,-1l0 -4c1,2 1,2 2,3 3,2 0,0 3,3 1,1 0,0 2,2 1,0 1,0 1,1l8 -7 -3 -4 -1 1c1,-1 -1,-2 -2,-3 -2,-2 -2,-2 -3,-4 -3,-5 -5,0 -9,-3l5 -3 -4 -7 1 -1 18 19 1 -1 -1 -2c1,-2 1,-3 2,-5 1,-2 2,-2 3,-2l0 -4c1,1 2,6 4,2 1,-3 2,1 0,-3l-5 -5c-3,-2 -7,-8 -10,-7 -2,1 -4,0 -7,1 -2,2 -2,4 -4,5 -2,0 -3,-2 -4,-3 -2,-3 -4,0 -5,-2l1 -2c0,-1 -18,-18 -22,-22 -6,-8 -6,0 -10,-4l5 -2c-2,-1 -7,-7 -10,-9 -2,-2 -12,-7 -14,-6l4 3 -10 -1c-1,-3 0,-3 -5,-1 -8,1 -4,0 -8,3l101 112c0,-3 -8,-8 -4,-9z"/>
   <path fill="#4C4B50" d="M549 496l-1 0 1 0zm25 -22c3,-5 11,-4 11,1 0,0 0,0 0,0 -1,3 -1,1 -2,1 0,0 0,0 0,1 -6,-1 -2,1 -6,0 -5,-1 0,-3 -3,-3zm-41 11c2,0 2,-2 5,-1 2,0 4,1 5,2l0 3c2,4 5,1 5,2 0,1 -4,1 2,4l-2 1 0 1 10 -1c0,-3 -1,-2 -1,-4 -1,-4 1,-1 -2,-3 -2,-2 -3,-3 -3,-6 -5,1 -5,-3 -8,-5 -4,-2 -4,-3 -8,-6 -4,-3 -9,-11 -16,-8l-4 -3 0 -1 4 -1 9 3 9 -2 0 -1c-1,-1 -3,-2 -3,-3l9 -4 0 2c2,1 -1,1 2,2 1,0 2,0 3,2 3,5 2,-1 6,4 2,2 0,2 2,3 1,0 2,0 4,2 2,4 2,0 5,4 5,9 7,5 13,10 1,2 -1,3 1,3 1,-1 -1,-3 2,0 2,2 6,3 9,1l1 -4 5 5 -4 -5 10 3 18 14 -1 7c1,1 2,-1 7,3 2,1 4,2 5,4 3,8 0,10 0,18 9,-2 3,-4 7,-6 4,-1 2,1 2,1 1,2 -3,2 6,0l0 -9 -4 -11 -1 0 1 2 -8 -1 2 4 0 1 -5 -3c1,-1 8,-3 9,-3l0 -1c-2,-1 0,0 -1,0l-1 0c-2,0 1,-1 -3,0 -5,1 -4,2 -5,3l-1 -1 9 -3c-2,-5 -9,-2 -12,-6l0 1 -4 0 1 1c-4,-1 -2,-1 -4,-4 -5,-5 -4,-5 -14,-11 -6,-4 -13,-10 -19,-14 -11,-8 -3,0 -9,-3 -7,-4 -14,-8 -22,-12 -4,-2 -8,-3 -9,-8 -8,-2 -11,1 -19,3 -3,1 -18,4 -19,6 -1,1 8,14 10,16 2,2 4,5 6,7 1,2 1,3 2,4 2,1 3,2 4,3l2 -1z"/>
   <path fill="#4C4B50" d="M491 401c4,2 7,4 5,8 -1,2 -1,2 -2,2l2 2c-1,0 -2,-1 -3,-2 -2,-1 -2,0 -4,0 -3,1 -1,1 -2,0l-7 -1c1,0 2,1 4,1 5,1 3,0 4,1 -1,1 0,0 -1,1 -2,1 -6,-1 -9,-3 -4,-3 -2,-3 -1,-7l-2 0 -5 0 -1 6 10 8 -2 1 -8 -5 -3 2 4 -1 0 1 -4 1 -2 -11c0,6 -3,12 0,16 1,1 3,3 5,4 4,4 4,2 7,3 1,4 -2,8 4,12 3,2 7,3 10,6 2,0 0,-1 6,0 20,4 45,-7 38,-16 -2,3 0,4 -3,6 -2,2 -1,1 -3,3 -1,0 -1,0 -3,1l-1 -3 -1 1 1 3 -9 3 -1 -4c3,-2 7,-2 11,-4 8,-5 5,-8 7,-10l-15 -10 -4 0 0 0 1 1 -18 -14c-1,0 0,0 0,0 -1,0 -1,-1 -1,-1 -2,-1 -1,-1 -2,-2l-2 1z"/>
   <path fill="#4C4B50" d="M338 453c1,2 2,0 5,4 1,2 1,5 1,8 1,3 1,13 5,14l-2 -17c1,5 1,22 6,22l-5 -26 30 38c1,2 4,5 5,7 1,4 -1,8 2,9 0,-6 -1,-16 -2,-21 -1,-7 1,-18 -4,-18l1 12 -19 -24 -1 1 3 3 -4 0c1,-8 1,-6 -5,-13 -1,-2 -6,-8 -9,-10 -5,10 5,13 -1,13 -3,0 -2,0 -2,-2l-3 -20c0,-2 0,-4 -1,-6 -1,-6 1,-4 3,-5 -1,-2 -21,-25 -24,-29 -4,-5 -8,-10 -12,-15 -4,-4 -7,-12 -14,-12 5,8 16,20 22,28 4,5 8,9 12,14 5,7 7,6 8,17l-7 -8 1 3 -3 0c-1,-3 3,-3 1,-6 -1,-1 -3,-2 -4,-4 -3,-3 -1,-2 -3,-4 -2,-1 -3,-4 -4,-5 -2,1 -2,6 -1,6 0,2 1,1 2,4 0,1 0,2 0,3 1,2 16,20 18,23 4,5 2,12 6,14l-1 0 -4 -30 1 0 5 33 -2 -1z"/>
   <path fill="#4C4B50" d="M704 526c0,-1 0,-1 1,-1 0,-1 -1,-1 2,-1 2,0 1,1 4,0 2,0 3,1 4,3 -1,1 0,0 -1,1 3,-1 5,-1 2,2 -4,4 0,0 1,4l-13 2c1,2 7,6 8,7 3,2 1,2 4,3 2,1 2,1 4,3 2,2 5,4 8,6 3,3 1,7 6,9l18 -7 -13 -13 -1 1 0 3 -14 -9 1 -6c0,-1 -13,-11 -15,-12 -3,0 -5,3 -6,2l2 -6 -1 0 -1 3 -7 -4 2 -6c0,0 -7,2 -9,2 -1,-1 -5,-4 -6,-5l0 -3 -6 -6c-5,-1 -9,-9 -15,-6 -2,3 1,6 3,7 3,2 4,0 6,-1l-4 2 3 2 -13 3 0 1c2,3 2,-2 6,1 2,2 3,3 5,4 9,6 23,18 29,21l3 -8 3 2z"/>
   <path fill="#4C4B50" d="M359 316l3 1 -1 1 -2 -2zm-3 -6l0 0zm2 -12l4 1 2 4c8,-2 0,5 10,4l1 8 1 0c0,-2 -1,-2 -1,-3 1,-1 3,-1 4,0 3,2 -1,4 6,4 0,1 0,5 0,6 1,4 3,0 2,2l2 -4 3 5 -9 2 0 5c-2,0 -5,-3 -7,-5 -3,-2 -5,-2 -4,-7l4 -1c-1,-1 -3,-2 -4,-1l0 6 -5 -5 3 -5 -4 0 0 2 -2 0 -3 -4 1 -1 3 -1 0 0 -4 0 0 5 -2 -2 -3 -5 1 0 3 -3c-4,0 -4,1 -4,5l-3 -2 0 1 4 5 -3 -2 -1 0 4 6c1,-2 1,-2 4,1l10 8c2,2 12,9 12,12l1 2 -2 1 -15 5 -3 2 2 5c-1,1 -4,2 -5,1 -4,-2 -1,-1 -1,-1 0,-1 1,-2 -1,-1 -2,1 -1,2 -1,3 0,0 0,2 1,3 6,3 17,4 25,0 -5,0 7,0 4,-4l1 1 -19 3 0 0c-3,-1 1,0 -2,-2 -2,-1 -3,-1 -2,-2 2,-2 22,1 22,-7l-9 1 0 -2 15 -4 1 4 1 0 -1 -11 2 0 2 9 -1 -15c5,0 -2,11 7,10l-3 -1 1 -1 5 3 0 -7c3,2 -3,1 7,7 4,3 2,4 10,2l-6 -6c-1,-1 -8,-8 -10,-9 -6,-4 -5,-5 -13,-7l-26 -20 8 -2 -4 -3 -11 -1c-1,-2 -12,-8 -14,-5l8 2 -3 2 6 2 -2 2z"/>
   <path fill="#4C4B50" d="M585 433l-2 2c0,0 0,0 0,0 -1,2 -7,0 -8,0 0,-1 0,-1 1,-1l0 -1c0,-1 -1,0 0,-1 1,-1 3,0 5,0 1,0 2,-1 4,1zm-15 -2c-1,3 -13,0 -11,9 3,4 6,2 10,4 4,2 8,2 10,4 5,3 10,9 16,12 5,2 10,8 16,12 3,2 5,4 7,6 3,1 6,4 8,6l3 1 1 -3 -32 -24 6 -5 3 3 -2 0 1 2 -1 3c2,0 0,0 2,1 2,1 2,0 2,0 0,0 4,0 5,-1 5,-2 1,2 10,1l0 0 -5 -5c-2,-2 -24,-17 -31,-22 -4,-3 0,-1 -1,-4 -2,-3 -4,-1 -6,-4 -1,-1 -2,-1 -3,-2 -2,-2 -2,-2 -3,-1l0 2 -1 1 1 1 0 2 -2 -1c-2,2 1,1 -3,0l0 2z"/>
   <path fill="#4C4B50" d="M193 371c2,0 2,7 5,7 0,0 5,-4 7,0 -1,2 -3,1 -4,2 -2,0 -1,1 -1,3l69 -23 -10 -4 0 -3c4,-3 4,1 6,-7l12 15c3,-2 1,-9 -5,-8 0,-4 2,-1 -2,-6 0,0 -3,-5 -3,-5l-3 7c-3,1 -20,6 -24,7 -5,2 -4,3 -8,0l0 3 -3 -2c0,4 -1,2 -7,4 -5,2 -28,8 -29,10z"/>
   <path fill="#4C4B50" d="M263 365l1 4c-1,0 -4,0 -5,0l-1 -3 -2 2c-4,-1 -21,5 -27,7 -7,2 -4,0 -6,4l-9 2c0,0 3,1 3,1 4,1 1,1 3,2 3,1 0,-1 4,0 3,1 1,-1 2,-1l-1 3c5,0 7,-2 10,-2 1,-1 2,0 2,0 1,1 0,1 1,4l7 -2 1 2c1,-1 12,-1 13,-1 16,0 9,-1 12,-2 1,1 1,1 1,2l8 -2 0 -1 -6 -1 2 -2 5 1 1 -1 -9 -5 2 -1 -14 -1 -4 -4 6 1 2 -1 2 0 5 0 -3 -3 -3 -2 -3 0z"/>
   <path fill="#4C4B50" d="M491 327c-1,-1 -9,-6 -11,-7 -6,-4 -8,-2 -16,-2l-26 2c-2,0 -2,1 -4,0 -3,-1 0,-1 -2,1l-3 -3 -1 3 -1 -6 -2 1 -5 -5 -2 1 0 8 -1 0 -1 -10 -2 0 1 11 -1 0 -1 -13c-3,1 -2,1 -1,7 0,3 1,6 -1,7 10,1 11,12 22,7l-1 -8 2 0 1 9 56 -3z"/>
   <path fill="#4C4B50" d="M339 397l1 6 -9 2 0 -2 6 -1 -3 -29c-3,1 -2,2 -1,5 1,4 1,8 2,14l-8 -3c2,-4 3,-2 0,-5l-12 -13c-1,-1 -2,-2 -4,-4 -3,-3 -2,-2 -4,-2 -1,0 -1,-1 -5,-1 -2,0 -5,0 -6,1l53 63 -1 -4 -11 -11 5 -4 -2 -12 -1 0z"/>
   <path fill="#4C4B50" d="M478 332c-6,0 -2,-1 -2,-2l-49 2 9 9 8 -3 -5 -3 0 0 17 -2 -12 3 2 4 9 -4 6 3 0 2 -15 4 -5 4c3,0 7,1 10,3 3,1 2,0 4,1 2,1 1,2 2,3l4 -4 0 -4c2,-1 5,-3 7,-4 6,-3 4,-5 5,-6 3,1 -1,1 1,3 1,0 2,-1 3,-2 0,-3 -2,-2 -3,-3l11 -2 0 -1 -3 1c1,-3 -7,-10 -4,-2z"/>
   <path fill="#4C4B50" d="M444 495c1,0 0,0 1,-1 -1,0 0,0 -1,-1l0 0c0,-2 0,-2 0,-4 0,0 0,0 0,0 2,1 2,1 3,2 1,1 1,1 1,2l1 0c2,-1 2,1 3,3 1,0 1,0 1,0 1,1 1,1 1,2 1,0 2,0 2,1 1,1 0,1 1,2 1,1 2,1 2,4l0 1c0,0 0,1 0,1l-1 5 -4 -6c-1,-1 0,1 -2,-1 -3,-3 -3,-2 -2,-5 -3,1 -2,0 -4,-2 -1,-1 -1,-1 -2,-2l1 5 -3 -2c0,3 11,14 13,16 2,2 4,6 8,4 4,-2 7,-1 10,-2l-13 -1c0,0 1,-13 2,-14 2,-4 8,-4 12,-7 -1,-2 -15,-16 -16,-17 -2,0 -11,1 -12,3 -3,2 -4,10 -2,14z"/>
   <path fill="#4C4B50" d="M306 346c2,3 14,0 15,-1l0 -10 3 11 0 -6 1 0 1 9 0 -7 1 0 2 12 0 -9 1 0 1 11 0 -9 1 0 3 12 8 -5 -3 -16 -2 0 -1 -3 -1 0 0 4 -2 -7 -1 0 0 4 -2 -6 -1 0 1 10c-1,-3 -1,-9 -2,-11 -2,-6 -1,2 -2,0 -1,-2 1,-3 -2,-4l0 4 -2 -7 -1 0 1 10 -2 -12 -1 0 -2 -3 -1 0 2 18 -4 3 -16 4 1 1 11 0 -5 3z"/>
   <path fill="#4C4B50" d="M755 564c1,7 -1,-1 -6,2 -3,1 -5,5 -5,9l6 4c0,-2 0,-3 1,-4 0,-1 0,-1 1,-1 2,-3 4,-5 7,-3l-1 0c-3,2 -6,5 -5,8 4,0 3,-3 7,-3 0,3 -3,5 -7,5l-2 2c-1,1 1,0 -1,1 -1,1 0,0 -1,0 -1,1 -1,1 -1,2 -2,3 0,0 1,4l1 -1c4,0 1,0 1,-1 0,0 -1,0 1,-2 0,0 1,0 1,0l8 -1c1,1 0,3 0,5l0 0c3,-2 -1,-2 4,-4 5,-2 10,-5 16,-6 -1,-6 -13,-13 -18,-17 -5,-4 -4,0 -8,1z"/>
   <path fill="#4C4B50" d="M741 629l-4 -2 -6 -1 -2 -4 0 1c-2,-1 -4,2 -2,4 3,3 4,5 3,6 -9,0 -1,0 -5,2 -2,2 -1,-1 -1,2 0,2 0,0 -2,3l0 -1 -6 0 0 4c-5,-5 -2,0 -5,-2 -2,-1 1,-2 -1,1 -5,-1 -3,-1 -5,1l-7 -2c1,2 6,5 8,7 4,4 3,5 9,2 6,-3 15,-6 20,-9 0,3 5,0 6,-1 6,-5 2,0 6,-3l0 -1 -7 1 4 -3 -3 -5z"/>
   <path fill="#4C4B50" d="M600 517l-3 1 0 5 0 -2 5 5c2,1 8,-2 12,-3 4,0 5,0 7,1 5,2 1,1 6,1l2 -8 1 0 -1 13c3,-6 3,-16 -2,-20 -7,-6 -9,-5 -17,0l7 -3 0 4 -12 4 0 -1 0 -8 -1 0c-3,3 2,11 -4,11z"/>
   <path fill="#4C4B50" d="M540 463c-2,1 -2,-1 -3,-1 -3,-1 0,0 -1,2l-3 -2 2 8c1,0 1,-5 9,-5l1 3 -3 -2 0 3c-1,0 -3,-1 -4,-2l2 9c4,-2 -1,-3 6,-5 6,-2 3,0 7,2 -4,0 -1,0 -4,-1 -3,-1 0,1 -1,2l-3 -2c0,1 1,7 2,9 3,-2 -2,-3 5,-5 3,-1 8,0 6,2 -1,0 -3,-2 -4,-1l1 2 -4 -2 2 9c2,-2 2,-6 9,-6l2 4 -4 -2 1 3 -4 -2 6 6c7,-8 10,-3 12,-5 -4,-5 -13,-11 -19,-16 -3,-2 -6,-5 -10,-7 -10,-9 -6,1 -6,2z"/>
   <path fill="#4C4B50" d="M564 503c1,0 1,0 1,2 0,1 0,1 -1,1 -2,1 -5,0 -6,0 1,2 3,2 6,1 4,-1 1,-3 2,-3l3 3 0 0 -4 1c8,-1 10,5 0,4 1,1 3,2 5,1 1,0 2,-1 2,-2 1,-1 -1,0 1,-2 2,4 7,4 7,10l-5 2c4,4 14,0 18,-3 -6,0 -5,-1 -9,-3 -3,-2 1,3 -3,1 -4,-3 0,-4 -1,-5l-5 -3 -5 0 2 -5 -8 -4c3,-2 6,-2 9,0 2,1 2,2 5,1 5,-1 1,0 1,1l5 2 -4 2 4 1 -2 2 1 1 6 -2 4 4 -3 2 2 4 7 0 1 0c0,-2 1,-6 2,-7l-6 0c0,-2 -3,-3 -4,-3l2 -3c3,1 4,4 6,1l-6 -5 -2 3 -10 -3 3 -3c0,-1 -2,-2 -3,-3l0 2 -15 2 0 -2 -2 3 -5 -1 4 5z"/>
   <path fill="#4C4B50" d="M459 459c2,2 6,0 2,-4 -2,-1 -3,-2 -5,-4 -5,-4 0,-6 -11,-4 -4,1 -5,2 -5,5 0,3 0,7 1,8 2,2 4,2 6,5 1,1 2,4 5,4l-4 -5c5,8 5,-1 9,-2 3,-2 0,0 2,-3z"/>
   <path fill="#4C4B50" d="M427 469c4,1 5,5 6,5 1,1 2,1 3,4 1,1 1,1 1,1 2,1 1,0 3,2 2,3 1,2 1,3 0,1 0,0 1,1 -1,-8 9,-7 14,-9 -7,-8 -7,-3 -12,-8 -4,-2 0,1 -2,-2 -3,-3 -3,-4 -8,-3 -5,1 -5,2 -7,6z"/>
   <path fill="#4C4B50" d="M597 691c1,2 10,16 13,6l-7 1 1 -14 2 3 5 -4 -1 -7 2 -4 -8 -2c-11,-3 -5,6 -5,10 0,2 1,0 1,3 1,4 0,3 -1,2 -2,0 -1,-1 -1,3 0,4 -2,1 -1,3z"/>
   <path fill="#4C4B50" d="M680 661l0 -2 5 -2c5,-2 3,-2 3,-2 3,-2 -1,1 4,-1l3 -1c1,-1 1,-1 1,-1l-7 -7 2 -2c-6,-5 -7,-3 -16,2l10 9c-4,1 -8,3 -5,7z"/>
   <path fill="#4C4B50" d="M424 406l6 -5c-2,-7 -15,-2 -20,-5 0,5 0,1 -4,3 0,1 5,6 6,6 3,1 11,0 12,1z"/>
   <path fill="#4C4B50" d="M390 297l0 2 -2 0 -1 2c2,1 2,1 4,1 0,-1 0,-1 -1,0 0,2 3,2 4,2 -1,0 -1,0 -1,2 3,0 6,-1 9,-2 -1,-2 -5,-4 -6,-5 -2,-1 -4,-3 -7,-4l1 2z"/>
   <path fill="#31343A" d="M392 516c0,-1 0,-2 1,-1 0,1 0,2 -1,1zm2 -227l2 0 2 7 0 -5 1 0 2 7 0 -5 1 0 2 5 0 -2 1 -1 3 6 0 -3 1 0 2 7 0 -5 1 0 6 12 0 8 -1 0 -1 -10 -2 0 1 11 -1 0 -1 -13c-3,1 -2,1 -1,7 0,3 1,6 -1,7 10,1 11,12 22,7l-1 -8 2 0 1 9 56 -3 7 4 1 1 -4 7 -5 5 0 4 0 13 -2 0 0 -11 0 -5c-6,0 -21,6 -25,9 -6,5 5,2 8,1 4,-1 10,-2 11,2l-13 2 6 2c-4,2 -6,0 -6,0 -2,1 0,0 -1,1 -2,1 2,-1 -1,0 -1,1 0,1 -1,0 -2,-1 -1,-2 -2,-3 -4,1 2,4 -5,-1 -2,-1 -7,1 -9,1l-1 1c5,5 5,5 11,10l4 0 0 5 -3 3c1,1 6,4 2,6l-2 -4c-3,0 -7,-4 -11,-7 0,0 0,0 0,0 0,0 0,0 0,0l-1 -1c-3,-2 -4,-2 -5,-4 -3,-4 -5,-2 -6,-2l-2 -3 -1 2c-3,6 -10,-4 -13,-4 -2,-1 -1,0 -3,0 -4,1 -1,-1 -3,-1 -4,0 -3,3 -4,-1l-6 0 0 -1c0,2 1,12 1,13l0 2 -26 9 -7 0 0 -1 2 -1c-1,-1 -5,-8 -6,-9l3 0 0 -1 -8 -1 -4 5c4,4 11,11 15,15 2,1 2,1 3,2 2,2 -1,-1 1,1 0,1 2,3 4,4 5,6 2,3 8,6l-7 -7 2 0c-1,-3 -1,-1 1,-4 1,-2 1,-2 3,-3 2,0 10,-2 11,-2 -1,0 -3,2 -7,3 -3,1 -5,0 -6,4 0,0 14,-5 16,-6 3,-1 6,-1 8,-2 8,-3 6,-2 8,-1 -1,2 -29,5 -30,11l32 -10 1 1c-3,3 -13,2 -18,4 -3,2 -2,2 -7,3 -3,1 -6,1 -5,6 1,-1 0,-2 3,-3l12 -4c5,-2 13,-6 17,-4 -2,3 -13,3 -17,4 -2,1 -1,2 -6,3 -4,1 -7,1 -7,4l31 -10 1 1c0,-1 0,-7 1,-8 7,1 4,1 6,-1 1,-2 1,-1 2,-2 3,-1 1,-3 3,-4l5 5 0 1 -4 -1 1 15 2 1 0 -8 1 0 3 12 1 0 0 -6 7 1 0 -1c1,2 -1,2 3,2 5,2 0,-2 3,-1 5,1 -3,-1 2,3l3 -5 1 5 -12 -1 0 1 7 1 0 3 -6 0 0 1 6 1 0 -1 10 -2 0 -12c0,-1 -6,-1 -7,-1l0 -9c1,-1 3,-1 4,-2l-5 -2 0 -10 16 -1 -12 3 0 1 15 -2 0 1 -14 2 0 1 16 -2 0 1 -16 2 1 1 18 -2 0 1 -18 2 0 2 21 -3 -21 4 0 1 24 -3c-11,3 -19,1 -29,7l2 3 7 -2c2,1 0,8 2,12 2,3 0,8 -2,9l-5 0 -1 6 10 8 -2 1 -8 -5 -3 2 4 -1 0 1 -4 1 -2 -11c-4,-2 -10,-1 -15,-4 -5,-2 -8,-5 -11,-8 -3,-2 -2,-1 -7,-1 -4,1 -2,-1 -7,0 -3,1 -13,1 -14,4 0,5 0,1 -4,3 0,1 5,6 6,6 3,1 11,0 12,1l-2 7 0 1 10 3 4 1c-3,0 -1,1 -5,1 -2,0 -4,-1 -5,-1 0,2 0,5 0,8 3,1 5,1 8,1 0,-1 -1,-2 -1,-4 2,-1 0,-1 2,-1 -4,9 18,9 24,4l-1 -8 1 0 10 10 -4 3 0 -1 -4 -9c-3,1 3,7 -9,8 -8,1 -5,2 -14,1l2 5c-3,-2 -7,-8 -10,-7 -2,1 -4,0 -7,1 -2,2 -2,4 -4,5 -2,0 -3,-2 -4,-3 -2,-3 -4,0 -5,-2l1 -2c0,-1 -18,-18 -22,-22 -6,-8 -6,0 -10,-4l5 -2c-2,-1 -7,-7 -10,-9 -2,-2 -12,-7 -14,-6l4 3 -10 -1c-1,-3 0,-3 -5,-1 -8,1 -4,0 -8,3l101 112c0,-3 -8,-8 -4,-9 0,2 2,4 4,5 0,-3 -1,-8 0,-11 -1,-8 9,-7 14,-9 -7,-8 -7,-3 -12,-8 -4,-2 0,1 -2,-2 -3,-3 -3,-4 -8,-3 -5,1 -5,2 -7,6 1,3 2,10 2,12 0,2 1,3 3,4 2,2 0,0 2,3 0,3 -5,-5 -6,-5 -6,-7 2,-2 -2,-8 0,-2 0,-3 0,-4 0,-1 0,0 0,-2 0,-1 0,-1 0,-2l8 -7 -3 -4 -1 1c1,-1 -1,-2 -2,-3 -2,-2 -2,-2 -3,-4 -3,-5 -5,0 -9,-3l5 -3 -4 -7 1 -1 18 19 1 -1 -1 -2c1,-2 1,-3 2,-5 1,-2 2,-2 3,-2l0 -4c1,1 2,6 4,2 1,-3 2,1 0,-3l20 -1 0 1 0 -8 22 20 0 -1 -12 6 -6 3c1,3 0,3 7,4 3,1 2,4 5,5 -1,3 -3,-2 -2,3 0,1 1,2 1,3 2,1 -1,-2 2,0 1,1 2,2 2,3 -1,3 0,-1 0,2 2,0 1,-3 2,2 1,5 0,4 2,6 5,4 21,21 23,22l100 98 9 -5c1,1 9,8 9,8 1,1 3,13 -4,10 7,6 8,13 19,10l8 -1c-2,2 -10,4 -13,6 -2,1 -3,3 -5,5 -1,1 -3,2 -4,5l24 -10 1 1 -50 24 -4 -1 25 -12 -7 -11 -5 2c0,-2 0,-3 -1,-4l-5 2 1 2 -12 1c0,-2 0,-5 0,-6 -1,-2 -1,-2 -3,-2 -4,-1 1,0 -2,-1l-5 2 3 -2 -11 -5 0 -1 8 -6 4 6 1 -1 -3 -4 5 1c0,0 -3,2 0,4 2,1 2,0 3,1 4,1 -2,0 1,1l1 1c9,-5 16,-9 25,-15l-2 -3 -3 1 -7 -1 -1 2 6 2 0 -1c0,1 -2,2 -2,2 -3,0 -2,-1 -4,-1 -1,0 -1,1 -3,-1 -3,-2 2,-1 -1,-3l-10 3c-12,-14 -11,-7 -15,-4l3 5c-3,-3 -5,-1 -10,-1 -2,0 -10,1 -7,4l-4 -1 0 0 15 17 -1 1 22 24 -13 -11 -1 1 0 -2 -14 2 0 -1 9 -2 0 -1 -6 -3 -1 -3 -6 -1c1,-2 10,1 5,-4 -2,-2 -2,-4 -8,-4l0 -3 -5 -1 0 -2 4 2c0,-2 -3,-3 -3,-3 -1,-1 0,-1 0,-4 -3,-1 0,2 -3,-2 -3,-3 0,-2 -4,-4 -2,-2 -1,-2 -2,-2 -1,-1 -2,-1 -3,-2 -2,-2 3,-1 -4,-2l1 -3c-1,0 -5,-7 -7,-9 -2,-3 -4,-3 -5,-4 -2,-2 -4,-2 -4,-3l1 0 -1 -7 19 20 -1 -5c5,-3 2,0 3,2l8 8 -1 0 -6 -7 -2 1 12 13 1 -3 1 2 3 -4 -2 0 -1 -5 -5 -2 1 -3 3 -1 -3 -2 -2 3 -2 -4 -2 2 -2 -3 12 -5c2,1 3,3 5,4 5,3 0,4 5,2l2 5 1 -1 -1 -4 -5 -4 1 -1c-3,-3 -7,-8 -11,-11 -4,-4 -5,-8 -12,-8 0,1 2,3 -5,5 -2,0 -8,3 -10,2 3,-5 4,1 5,-10l2 -4c-1,-6 -8,-12 -12,-16 -4,1 -7,5 -9,0l7 -2c-3,-4 -10,-8 -12,-9 -2,0 -6,1 -8,1 -1,1 -2,2 -3,2 -3,2 2,0 -1,3 -7,3 -8,4 -2,10 1,1 12,9 2,10 1,-1 4,-2 -1,-3 -4,-2 -1,0 -2,-2 -3,-2 -1,0 -3,-2l3 -1 -5 -5c-2,2 0,0 -3,2 -4,2 0,1 -1,3l-7 -4 8 -4 -5 -5c-4,0 -3,-2 -7,0 -8,3 -3,-2 -3,-2l-2 -4 -4 1 0 3 -3 -5 6 1 1 -3c1,-3 -7,-4 -9,-4l0 2c-5,-4 0,-1 0,-4 -1,-2 -1,1 -4,0 2,-2 3,1 2,-2 -1,-1 -2,-1 -3,-1 -6,-1 -3,-1 -6,-4 -2,-2 -3,-3 -5,-5 -3,-3 -1,-4 -4,-3 0,-3 -4,-5 -4,-5 -1,-1 -1,-3 -4,-6 -3,-3 -6,-6 -9,-10 -1,-1 -3,-4 -5,-4 0,0 0,0 -2,-2 -2,-4 -7,-9 -10,-13 -3,-3 -8,-7 -9,-9l-13 -15c-2,-3 -4,-4 -4,-4l-4 -5c0,-1 -4,-5 -4,-5l-4 3 3 -5c-3,-2 -3,-2 -4,-3 0,-2 -1,-1 -1,-1 -3,-2 1,3 -1,-2 -2,-4 0,4 -3,-2 -1,-3 -1,-1 -2,-3 -1,-3 -3,-4 -5,-7 -2,-1 -2,-2 -3,-3 -3,-3 -3,-2 -4,-2l1 0 -9 -12 -3 2c-1,8 6,13 10,17 4,5 8,10 13,15 17,21 34,39 51,60 7,8 19,23 26,29 0,3 -1,4 0,7 0,3 2,1 4,4 2,4 6,6 7,10l-5 -2 17 19 0 -1 -12 -14 1 -1c3,1 7,8 9,11 3,3 6,5 9,9 2,3 1,2 4,5 4,3 0,2 5,4 1,0 9,9 9,9l-4 -2 -1 1c-2,-1 -16,-17 -18,-20l-1 1 17 20 -3 0c-2,-3 3,0 -2,-4 -4,-2 -1,-1 -2,-2 -2,-1 -2,0 -4,-2 1,-2 1,-2 -1,-4 -1,-1 -1,0 -3,-2 0,-1 0,0 -1,-1 -4,-3 -1,-1 -2,-3l-2 -1c0,0 0,0 0,0 -1,-3 -3,0 -3,-6 -1,0 -1,2 -3,-1 -2,-4 -1,-1 -3,-3 0,-2 0,-3 -1,-4 0,0 -1,-1 -2,-1l-2 -3c-1,-1 -1,-1 -1,-1 0,-3 2,2 0,-1 0,0 -1,-2 -3,-2 -4,-2 -2,-4 -3,-9 -2,-1 0,2 -3,-2 -1,-1 -2,-2 -3,-3l-40 -47 1 3c-4,0 -5,1 -5,-1 1,-3 1,1 0,-2 0,0 -1,-1 0,-2l2 1 0 -4c-10,-2 -6,0 -14,-8l1 -3 -3 -1 0 -1 -2 0 3 -2 -9 -7 -3 0 0 -1c2,0 3,0 4,-1l-10 -6 0 1c1,-4 2,-2 -2,-3l-4 -3 2 -4 -3 1 -3 -3 -1 1c5,9 58,65 59,73 -3,-1 -5,-7 -8,-4 -1,1 -2,-1 -2,1 3,3 3,6 8,5 4,-1 9,-4 11,-3 1,0 13,15 14,17 3,5 12,12 10,20l-2 1c-6,0 -2,-2 -6,-5 -4,-3 -1,-5 -3,-8l-3 -7 -3 1 -3 -6 -1 1c-3,-7 -2,-6 -10,-4 -9,3 -4,2 -15,3l4 34c-7,0 -2,-22 -7,-25l2 18c-5,0 -4,-11 -4,-15 -2,-15 -3,-6 -4,-14l-3 -2c0,-6 -1,-16 -2,-21 -1,-7 1,-18 -4,-18l1 12 -19 -24 -1 1 3 3 -4 0c1,-8 1,-6 -5,-13 -1,-2 -6,-8 -9,-10 -5,10 5,13 -1,13 -3,0 -2,0 -2,-2l-3 -20c0,-2 0,-4 -1,-6 -1,-6 1,-4 3,-5 -1,-2 -21,-25 -24,-29 -4,-5 -8,-10 -12,-15 -4,-4 -7,-12 -14,-12 5,8 16,20 22,28 4,5 8,9 12,14 5,7 7,6 8,17l-7 -8 1 3 -3 0c-1,-3 3,-3 1,-6 -1,-1 -3,-2 -4,-4 -3,-3 -1,-2 -3,-4 -2,-1 -3,-4 -4,-5 -2,1 -2,6 -1,6 0,2 1,1 2,4 0,1 0,2 0,3 1,2 16,20 18,23 4,5 2,12 6,14l-1 0 -4 -30 1 0 5 33 -2 -1c-5,2 -6,-2 -8,-4l-17 -23c-7,-9 -3,-5 -7,-6 0,0 -6,-7 -6,-7 -2,-4 -4,-5 -6,-8 -2,-2 -2,-8 -3,-10 -5,0 -12,1 -17,1 -6,1 -9,-1 -16,-1 -5,0 -11,1 -16,1 -5,0 -34,9 -40,-2 -2,-3 -12,-22 -9,-23 2,0 2,7 5,7 0,0 5,-4 7,0 -1,2 -3,1 -4,2 -2,0 -1,1 -1,3l69 -23 -10 -4 0 -3c4,-3 4,1 6,-7l12 15c3,-2 1,-9 -5,-8 0,-4 2,-1 -2,-6 0,0 -3,-5 -3,-5 3,-3 3,-2 7,-3 6,-1 6,1 5,-4l0 1 -2 -4 -4 -2c-1,-2 -1,-5 -2,-8 0,-4 -2,-5 2,-6l0 -8 1 0 3 4c1,2 7,8 9,10 2,2 1,4 2,6 0,1 0,1 0,2 2,4 2,2 2,4l0 -1 -4 4 -1 -1 0 1 1 1 6 5 -2 1 4 5 -7 1 0 1 8 -1 15 14c2,0 6,-1 8,-1l-2 -4c0,0 5,-4 7,-3 2,0 4,4 7,4l0 0 -7 -8 4 2c1,-2 -2,-9 -6,-9l0 -10 3 11 0 -6 1 0 1 9 0 -7 1 0 2 12 0 -9 1 0 1 11 0 -9 1 0 3 12c3,10 -1,5 6,12 2,2 6,8 9,9l-1 -8c3,-1 7,-3 10,-4 7,-3 3,-1 10,-2 2,-1 22,-4 22,-6l-7 -1c-5,0 7,0 4,-4l1 1 -19 3 0 0c-3,-1 1,0 -2,-2 -2,-1 -3,-1 -2,-2 2,-2 22,1 22,-7l-9 1 0 -2 15 -4 1 4 1 0 -1 -11 2 0 2 9 -1 -15c5,0 -2,11 7,10l-3 -1 1 -1 5 3 0 -7c3,2 -3,1 7,7 4,3 2,4 10,2l-6 -6 -11 -17 -3 -18 0 0 -4 -2 -2 -2 -1 0 -3 -2 -1 -7 0 0zm-7 221l-1 -3 1 0 0 3zm57 -14l0 -1c-2,-4 -1,-12 2,-14 1,-2 10,-3 12,-3 1,1 15,15 16,17 -4,3 -10,3 -12,7 -1,1 -2,14 -2,14l13 1c-3,1 -6,0 -10,2 -4,2 -6,-2 -8,-4 -2,-2 -13,-13 -13,-16l3 2 -1 -5zm15 -37c-2,3 1,1 -2,3 -4,1 -4,10 -9,2l4 5c-3,0 -4,-3 -5,-4 -2,-3 -4,-3 -6,-5 -1,-1 -1,-5 -1,-8 0,-3 1,-4 5,-5 11,-2 6,0 11,4 2,2 3,3 5,4 4,4 0,6 -2,4zm-193 -94l3 2 3 3 -5 0 -2 0 -2 1 -6 -1 4 4 14 1 -2 1 9 5 -1 1 -5 -1 -2 2 6 1 0 1 -8 2c0,-1 0,-1 -1,-2 -3,1 4,2 -12,2 -1,0 -12,0 -13,1l-1 -2 -7 2c-1,-3 0,-3 -1,-4 0,0 -1,-1 -2,0 -3,0 -5,2 -10,2l1 -3c-1,0 1,2 -2,1 -4,-1 -1,1 -4,0 -2,-1 1,-1 -3,-2 0,0 -3,-1 -3,-1l9 -2c2,-4 -1,-2 6,-4 6,-2 23,-8 27,-7l2 -2 1 3c1,0 4,0 5,0l-1 -4 3 0zm61 24l8 3c-1,-6 -1,-10 -2,-14 -1,-3 -2,-4 1,-5l3 29 -6 1 0 2 9 -2 -1 -6 1 0 2 12 -5 4 11 11 1 4 -53 -63c1,-1 4,-1 6,-1 4,0 4,1 5,1 2,0 1,-1 4,2 2,2 3,3 4,4l12 13c3,3 2,1 0,5zm-46 -52c0,-2 1,2 0,0zm2 -3l1 3 -1 -3zm0 0l0 0zm-4 0c-1,-3 0,1 0,0zm1 -4l1 6 0 0 -1 -6zm-2 2c0,-3 1,1 0,0zm177 21c-2,-1 -1,0 -4,-1 -3,-2 -7,-3 -10,-3l5 -4 15 -4 0 -2 -6 -3 -9 4 -2 -4 12 -3 -17 2 0 0 5 3 -8 3 -9 -9 49 -2c0,1 -4,2 2,2 -3,-8 5,-1 4,2l3 -1 0 1 -11 2c1,1 3,0 3,3 -1,1 -2,2 -3,2 -2,-2 2,-2 -1,-3 -1,1 1,3 -5,6 -2,1 -5,3 -7,4l0 4 -4 4c-1,-1 0,-2 -2,-3zm-179 -25l1 4 -1 -4zm2 2c-1,-4 0,1 0,0zm-4 -1c-1,-2 1,2 0,0zm2 -1l0 -2 0 2zm-2 -1c-1,-3 0,2 0,0zm2 -2l-1 1 1 -1zm-3 -1l1 2 -1 -2zm0 0l0 -1 0 1zm135 -23l0 1 0 -1zm-4 -3l1 2 -1 0 0 -2zm-3 2l0 0z"/>
   <path fill="#31343A" d="M696 652l3 -1c5,3 2,3 -6,8 -4,2 -9,3 -9,5 2,-1 3,-1 5,-2 0,5 -3,4 -6,5 0,2 1,3 -1,5 -2,1 -3,1 -5,1 0,-2 0,0 0,-2 1,-2 1,-2 1,-3l1 -6c2,0 2,-1 4,-1 2,-1 1,0 2,-1l-1 0c-1,0 -2,1 -4,2l0 -1c-3,-4 1,-6 5,-7l-10 -9c9,-5 10,-7 16,-2l-2 2 7 7zm112 -17l-1 -1 1 1zm-1 -1l-1 -1 1 1zm-1 -1l0 0 0 0zm0 0l-2 -1 2 1zm-2 -1l-1 -1 1 1zm-1 -1l-1 -1 1 1zm-1 -1l-1 0 1 0zm-1 0l0 0zm-60 -1l3 5 -4 3 7 -1 0 1c-4,3 0,-2 -6,3 -1,1 -6,4 -6,1 -5,3 -14,6 -20,9 -6,3 -5,2 -9,-2 -2,-2 -7,-5 -8,-7l7 2c2,-2 0,-2 5,-1 2,-3 -1,-2 1,-1 3,2 0,-3 5,2l0 -4 6 0 0 1c2,-3 2,-1 2,-3 0,-3 -1,0 1,-2 4,-2 -4,-2 5,-2 1,-1 0,-3 -3,-6 -2,-2 0,-5 2,-4l0 -1 2 4 6 1c0,-1 -6,-5 -7,-6 -3,-2 -3,0 -8,1 3,7 -4,16 -11,15 0,-1 -4,-5 -4,-5 -1,-3 0,-4 -1,-6 -4,-5 -3,3 -4,-2 -1,-6 -1,-4 2,-5 -2,-2 1,-5 4,-5 5,-1 5,1 7,3l15 -9 0 0 -2 -1 0 -1 4 -2 8 11 -1 0 2 14zm-212 -242l13 12 4 -2 -1 0 -5 14 1 0 -12 -9c2,8 -2,8 -10,9 -6,1 -13,-2 -12,-8 -1,1 -1,-1 -1,1 -1,0 0,-1 -2,0 -1,1 0,2 -1,1 0,0 0,0 0,0 1,1 0,1 2,1 2,0 -1,0 1,0l-4 0 0 -1c-1,0 -1,-1 -1,-1 0,0 0,0 0,0 0,0 0,0 0,-1l-4 1c0,0 0,0 0,0 -1,-1 1,0 -1,-1l18 14 -1 -1 0 0 4 0c5,0 27,17 30,20l1 -1 10 -3 2 0 2 -1 -5 -4 0 -1c7,6 4,5 13,5l0 -2c4,1 1,2 3,0l2 1 0 -2 -1 -1 1 -1 0 -2c1,-1 1,-1 3,1 1,1 2,1 3,2 2,3 4,1 6,4 1,3 -3,1 1,4 7,5 29,20 31,22l27 19 0 5 7 -1 -5 2 14 9c0,4 -3,6 -7,7 -3,1 -5,-1 -8,-4 -3,-1 -15,-11 -16,-11 -3,5 19,14 11,14l6 4 -6 2c6,3 5,6 5,13l0 9c-9,2 -5,2 -6,0 0,0 2,-2 -2,-1 -4,2 2,4 -7,6 0,-8 3,-10 0,-18 -1,-2 -3,-3 -5,-4 -5,-4 -6,-2 -7,-3l1 -7 -18 -14 -2 1 4 4c2,1 2,0 2,3 -2,2 -6,1 -7,-2 1,-1 2,-1 4,-1l-8 0 0 1c4,2 7,6 11,3 3,-2 0,-2 2,-2l2 3c1,1 2,0 3,2 0,1 -1,2 -2,2 -2,0 -6,0 -6,-3 -3,3 4,5 8,4l1 -3c2,2 4,2 4,5 0,4 -2,2 -4,5 -3,0 -5,-4 -6,-5 -2,-3 -2,0 -3,-2 -2,-1 0,0 -2,-1 -2,-2 0,1 -1,-1 -4,-4 -4,-2 -6,-5 0,-1 0,-2 -2,-1 -2,1 2,0 0,0l-2 -4 -6 3c2,4 1,1 4,3l7 5c3,3 -1,1 2,3l0 0 10 9c8,-5 10,-6 17,0 5,4 5,14 2,20l1 -13 -1 0 -2 8c-5,0 -1,1 -6,-1 -2,-1 -3,-1 -7,-1 -4,1 -10,4 -12,3l-5 -5 0 2 1 1c5,5 3,2 9,1l-2 10 -1 0c3,2 0,4 -2,4 4,0 4,2 7,4 2,1 2,0 4,4 0,0 0,0 0,0l0 1c5,0 5,1 11,1 4,-1 9,-1 13,-2 21,-8 11,-5 15,-8 2,-2 2,-1 2,0l1 -5 -2 1c0,-1 5,-7 6,-9l28 22 0 0c0,-7 -5,-9 -9,-12 -4,-3 -10,-8 -13,-10l-11 -8c-3,-3 -3,-1 -4,-2l4 -5 -4 0c1,0 6,-3 7,-3 2,-1 3,1 6,3 4,2 9,6 12,9 5,5 10,5 17,11 2,2 2,2 3,3 2,0 1,1 3,2 8,6 15,12 24,18 10,7 5,8 9,11 4,5 9,-3 13,3l6 -4 -3 -2 4 -2 4 4c4,-1 3,-5 8,-1 5,4 17,11 18,17 -6,1 -11,4 -16,6 -5,2 -1,2 -4,4l0 0c0,-2 1,-4 0,-5l-8 1 1 0 1 1c1,-2 -1,-3 4,-2l2 1c-1,5 -14,8 -18,10 1,-1 1,1 1,0 0,-2 -1,-3 3,-4 -1,-1 -2,-2 -2,-1 0,-2 0,-2 1,-2 -1,-2 1,1 -1,-3 -1,-1 -2,-1 -3,-2l0 -1 -4 -8 -1 0c-6,2 -16,7 -23,10 -8,3 -14,4 -21,9 -6,3 -16,7 -23,9 -4,2 -9,3 -10,6 -2,5 -1,11 1,15 6,-2 0,0 5,-12 0,0 -2,8 4,9l-1 0c1,2 0,6 2,7l22 -8 -2 3 1 14 -9 0c6,-5 5,-5 -2,-1 -2,1 -4,1 -4,1l-5 2c-3,2 -1,1 -4,0 -3,-1 -6,0 -8,-1 0,3 10,13 13,16 3,2 5,4 5,8 0,1 -3,10 -3,11 -1,2 1,1 -2,3 -1,1 -3,1 -5,1 1,-2 1,-3 1,-5 1,-3 0,-1 1,-3 0,-2 0,0 0,-2 0,-2 1,-3 1,-4 -1,-1 0,1 -1,-1 0,0 1,-1 1,-2 2,0 3,-1 6,-1l-17 -16 -1 1c-4,1 -5,0 -6,2l8 6c0,0 -1,1 0,3 1,0 2,2 3,2 1,2 4,4 4,5 1,2 0,14 -2,15 0,2 0,0 0,1l-3 2c-1,1 -2,2 -4,2l1 -5c0,0 0,0 0,0 0,0 0,-1 0,-1l0 -1c0,-1 0,-2 1,-4l0 -3c1,-1 4,-2 6,-2l0 2c4,-5 -4,-10 -6,-12 -2,-1 -9,-10 -12,-7l-3 -1 -2 -2c-5,2 9,14 10,16 10,9 4,6 4,20l2 5 -4 -4c0,1 -8,5 -6,9 2,3 8,-5 11,-3l-5 4 2 3c4,2 2,-2 8,-4 3,-1 7,-1 10,-2 4,-1 17,-6 15,-11 0,-4 0,-3 11,-7l-1 0 -4 -10 -2 -1c-1,-4 4,-3 6,-3 3,-1 -2,2 1,0l2 -3 7 3 -5 -1 0 -2 0 0c1,-3 2,1 6,-1 2,-1 3,-1 5,-2 4,-2 7,-4 10,-5 2,3 -4,6 -8,7l1 5 18 -7 -20 11 5 3c2,-3 3,-11 6,-7 3,2 0,0 2,-2 4,-3 4,0 4,0l5 -2 12 -5 -6 -3 10 -6 -1 0 2 -6 -7 5 5 -18 5 -1 -4 14c7,1 0,-12 10,-13l-2 9c5,1 5,-15 6,-16l4 -2c2,3 0,6 -1,9 -1,3 0,5 -4,8 -3,2 0,11 -9,16 4,4 12,-2 15,-2 3,0 1,3 6,0 2,-1 5,-2 5,-3l18 12 -17 -13c4,-6 3,-6 10,-9 6,-3 6,3 11,5l0 -1 1 1 1 0 -9 -8c2,0 6,-2 6,-3 0,-2 -2,0 0,-2 1,-1 2,-1 2,-3l-6 -4c-3,0 -6,2 -8,3l-5 -3c1,-2 5,-2 7,-4l-6 -5 6 -20c-1,0 -2,-2 -3,-5 -2,-2 -1,-3 0,-6l-27 -19c6,0 6,-6 2,-9 -7,-4 -6,-1 -12,0 -4,1 -4,-1 -5,-3 -1,-2 -12,-9 -14,-11 -3,-2 -7,-5 -10,-5 -3,-1 -7,-5 -10,-7 -4,-2 -7,-4 -9,-8 -1,-1 -8,-6 -9,-6l-1 2 -2 6 7 4 1 -3 1 0 -2 6c1,1 3,-2 6,-2 2,1 15,11 15,12l-1 6 14 9 0 -3 1 -1 13 13 -18 7c-5,-2 -3,-6 -6,-9 -3,-2 -6,-4 -8,-6 -2,-2 -2,-2 -4,-3 -3,-1 -1,-1 -4,-3 -1,-1 -7,-5 -8,-7l13 -2c-1,-4 -5,0 -1,-4 3,-3 1,-3 -2,-2 1,1 1,0 1,1 -3,3 -4,1 -7,1l-1 -1c0,0 0,0 -1,0 -1,0 -1,0 -3,-1 1,-2 2,-1 1,-2l-3 -2 -3 8c-6,-3 -20,-15 -29,-21 -2,-1 -3,-2 -5,-4 -4,-3 -4,2 -6,-1l0 -1 13 -3 -3 -2 4 -2c-2,1 -3,3 -6,1 -2,-1 -5,-4 -3,-7 6,-3 10,5 15,6l3 -1 -42 -30c-10,-7 -6,-5 -6,-17 -17,-12 -34,-24 -51,-36 -8,-5 -17,-12 -26,-17 -4,-3 -8,-6 -12,-9 -2,-1 -5,-4 -7,-4 -2,0 -8,1 -8,3z"/>
   <path fill="#31343A" d="M567 728l-3 -5c1,-1 11,-6 13,-6l4 4c-1,1 -2,1 -3,2 -4,1 -9,5 -11,5zm61 -28c-1,0 -6,5 -8,6 0,0 -1,0 -4,1 -2,2 -2,1 -5,1 2,-1 5,0 1,-4 -4,-4 -7,0 -11,1 -7,3 -2,2 -5,5l-8 -6 -6 2 2 -3 -16 3 -1 1 -4 2 -48 -60 -6 -8 -6 3 -1 5c5,7 13,16 18,23 12,14 24,31 36,45 3,3 7,8 9,11 1,3 -1,4 3,6 2,1 4,2 5,5l11 -3 1 0 11 13 -10 -13c5,0 2,4 9,0 6,-4 5,0 6,-7l6 -4 17 20 -16 -21 9 -6 -2 -2 13 -16z"/>
   <path fill="#31343A" d="M332 321l0 0zm-32 -13l4 6c5,-4 2,-3 8,-4 5,-1 6,-2 9,1 1,1 9,9 11,10 2,3 13,12 16,15 5,6 9,12 19,11l15 -5 2 -1 -1 -2c0,-3 -10,-10 -12,-12l-10 -8c-3,-3 -3,-3 -4,-1 -3,-1 -12,3 -13,5 -2,2 1,3 -4,3l0 -2 11 -9c-4,-3 -11,5 -13,7l-3 -2 11 -10c-6,-4 -10,10 -16,6l0 -1 10 -9c-3,-2 -6,1 -8,3 -4,4 -2,3 -7,3 0,-3 6,-7 8,-9 6,-3 0,-3 -5,1 -1,1 -4,4 -5,4 -1,1 -4,0 -1,-3 1,-1 9,-7 9,-8 -4,-1 -6,2 -8,3 -4,3 -3,4 -7,4l0 -1 10 -10c-4,-2 -10,6 -13,8l2 7c-3,-2 -2,-5 -7,-4 -3,1 -8,1 -8,4z"/>
   <path fill="#31343A" d="M618 660l-33 15 0 1 5 0c-8,11 -11,-1 -14,1 -3,4 6,6 10,5 2,0 2,-2 5,-3 4,-2 2,-1 6,-1l-1 11 -1 -5 -4 3c-1,4 4,5 -1,9l4 -2 -2 -3 0 -1 5 1c-1,-2 1,1 1,-3 0,-4 -1,-3 1,-3 1,1 2,2 1,-2 0,-3 -1,-1 -1,-3 0,-4 -6,-13 5,-10l8 -3 5 6c0,5 -1,15 -2,16 -1,3 0,6 3,7 4,2 5,-3 7,-3l-1 -13 -4 1c-1,-1 1,-2 -1,-6 -3,-3 0,-4 1,-5l2 4 4 0 -1 6 3 1c2,-4 -4,-12 2,-16l0 -2 -13 2 10 -5 0 -2 -10 3 1 -1z"/>
   <path fill="#31343A" d="M643 681l6 5 0 0 3 -18 6 -1c0,-2 -10,-11 -12,-13 -1,0 -4,-2 -4,-2 -1,-2 1,-2 -3,-3 -3,0 -6,-1 -9,1l9 17 -1 1 5 13z"/>
   <path fill="#31343A" d="M475 380c3,0 12,-4 13,0 0,3 -3,2 -4,2 -3,1 1,-1 -2,1 0,1 -1,1 -2,2l8 6c-3,2 -4,0 -5,3 -1,2 1,0 2,3l-4 4c1,3 3,3 4,4l-3 1c-1,1 0,0 -1,1 2,2 7,0 10,-1 2,0 3,0 3,-2 -1,-1 -2,0 -3,0l0 -3 2 -1c-1,-2 0,-1 0,-1 2,0 2,0 3,2 1,-2 -2,-2 2,-1 0,0 1,1 1,1 4,0 2,0 3,-1 -5,0 -7,-1 -9,-4 0,-2 0,-4 0,-6 1,-1 2,-2 3,-3l-8 -7 10 -2c0,-4 -7,-1 -11,-1 -4,1 -12,1 -14,3l2 0z"/>
  </g>
  <path fill="#4F65B7" d="M476 888l-2 44 -2 41c10,1 20,1 30,1 46,0 90,-6 132,-19l-25 -81c-34,10 -70,15 -107,15 -9,0 -17,-1 -26,-1zm411 -404l85 -6c-1,-20 -3,-39 -7,-59l-84 17c3,16 5,32 6,48zm85 43l-85 -6c0,6 -1,11 -1,16 -8,91 -47,173 -107,234l60 61c74,-76 123,-177 132,-289 1,-6 1,-11 1,-16z"/>
  <path fill="#FEFEFE" d="M510 33l0 0c-3,0 -5,0 -8,0 -9,0 -18,0 -27,1l0 5 6 75 0 4c7,-1 14,-1 21,-1 3,0 5,0 8,0l0 2c7,0 15,0 23,1l8 -85c-10,-1 -21,-2 -31,-2zm-412 229c-31,52 -52,110 -61,172 21,-29 55,-48 93,-48 2,0 3,0 4,0 9,-28 21,-54 35,-79l-71 -45zm383 -148c4,0 7,0 10,0l-10 0zm151 27c64,23 120,62 163,112l66 -54c-54,-63 -123,-111 -202,-139l-27 81zm340 337l-85 6c0,6 0,13 0,20 0,6 0,12 0,17l85 6c1,-8 1,-16 1,-23 0,-9 0,-18 -1,-26zm-349 391l25 82c69,-22 130,-60 181,-109l-60 -60c-4,4 -9,7 -13,11l11 13 -13 11 -11 -13c-3,3 -7,5 -10,8l10 14 -14 10 -10 -14c-3,2 -7,5 -10,7l8 14 -15 9 -8 -14c-4,2 -7,4 -11,6l7 15 -15 7 -7 -14c-5,2 -9,3 -13,5l6 15 -16 7 -6 -15c-5,2 -11,4 -16,5zm-305 38l30 12c7,3 11,10 8,17 -3,7 -10,10 -17,7l-30 -11c-7,-3 -10,-11 -8,-17 3,-7 10,-10 17,-8zm38 29l0 0zm-55 -21l0 0zm-37 -37l28 16c6,3 9,11 5,17 -3,7 -11,9 -18,5l-28 -15c-6,-4 -9,-12 -5,-18 3,-7 11,-9 18,-5zm33 33l0 0zm-51 -28l0 0zm-32 -42l26 20c6,4 7,12 2,18 -4,6 -12,7 -18,2l-26 -19c-6,-5 -7,-13 -2,-19 4,-5 12,-7 18,-2zm28 38l0 0zm-46 -36l0 0zm-26 -46l23 24c5,5 5,13 0,18 -5,5 -14,5 -19,0l-23 -23c-5,-5 -5,-14 0,-19 5,-5 14,-5 19,0zm23 42l0 0zm-42 -42l0 0zm-19 -49l20 26c4,6 3,14 -3,19 -6,4 -14,3 -18,-3l-20 -26c-4,-6 -3,-14 3,-18 6,-5 14,-3 18,2zm17 45l0 0zm-35 -47l0 0zm-18 -133l-48 14c1,5 3,9 4,14l79 -23 -1 0c-12,0 -23,-2 -34,-5zm-31 -15l-23 5c1,5 2,9 3,14l39 -9c-7,-3 -13,-6 -19,-10zm-22 -20l-5 1c0,5 1,9 2,14l15 -3c-4,-3 -9,-8 -12,-12z"/>
  <path fill="#26526A" d="M476 888c-23,-2 -46,-5 -68,-11 1,-2 0,-5 0,-8 -1,-2 -3,-5 -5,-6 -4,-3 -9,-4 -14,-2 -4,1 -7,4 -8,8 -4,-1 -8,-2 -12,-4 1,-2 1,-5 1,-8 -1,-3 -2,-5 -4,-7 -4,-3 -9,-5 -13,-3 -5,1 -8,4 -10,7 -4,-1 -7,-3 -11,-5 1,-2 2,-5 1,-8 0,-3 -1,-5 -3,-7 -3,-4 -8,-6 -13,-5 -4,0 -8,3 -10,7 -4,-2 -7,-5 -10,-7 1,-2 2,-5 2,-8 0,-3 -1,-5 -3,-7 -2,-4 -7,-7 -12,-7 -4,0 -8,3 -11,6 -3,-2 -6,-5 -9,-7 1,-2 2,-5 3,-8 0,-3 -1,-6 -2,-8 -2,-4 -6,-7 -11,-7 -5,-1 -9,1 -12,4 -3,-2 -6,-5 -9,-8 2,-2 3,-5 4,-7 1,-3 0,-6 -1,-9 -2,-4 -6,-7 -10,-8 -5,-1 -9,0 -13,3 -2,-3 -5,-6 -7,-9 2,-2 3,-4 4,-7 1,-3 1,-6 0,-8 -1,-5 -5,-8 -9,-10 -5,-1 -9,0 -13,3 -19,-27 -34,-56 -46,-87l-41 15 -39 14c7,20 9,27 19,45l44 -6c54,101 148,177 260,209l3 43c32,8 50,11 84,13l2 -41 2 -44zm479 -512l-82 25c3,9 5,18 7,28l84 -16c-2,-12 -5,-25 -9,-37zm-57 -29l-37 15c3,9 6,18 9,27l39 -11c-3,-10 -7,-21 -11,-31zm-42 5l38 -16c-5,-10 -10,-20 -15,-30l-35 20c4,8 8,17 12,26zm8 -149l-65 56c6,7 12,15 18,22l71 -48c-8,-10 -16,-20 -24,-30zm30 39l-71 49c6,8 11,16 15,24l76 -40c-7,-11 -13,-22 -20,-33z"/>
  <path id="interface-icon-jump-to-mother-active" fill="#603882" d="M393 37l20 92c16,-3 32,-5 49,-6l-5 -94c-21,1 -43,4 -64,8zm-187 217l-72 -60c-13,16 -25,33 -36,50l80 49c9,-14 18,-26 28,-39zm-65 -69l72 61c11,-12 22,-24 34,-34l-61 -72c-16,14 -31,29 -45,45zm54 -52l61 71c12,-10 25,-19 38,-27l-48 -81c-18,11 -35,23 -51,37zm60 -43l49 81c13,-8 28,-15 42,-21l-35 -88c-19,8 -38,18 -56,28zm67 -32l35 87c14,-5 30,-10 45,-13l-20 -92c-21,5 -41,11 -60,18z"/>
  <path fill="#E31E24" fill-rule="nonzero" d="M505 134c6,0 12,0 18,1 3,5 7,8 13,9 6,0 12,-2 15,-7 4,1 7,1 10,2 2,5 7,9 13,10 6,1 11,-1 15,-5 3,1 7,2 10,2 1,6 6,10 11,12 6,2 12,0 16,-3 3,1 6,2 9,3 1,6 5,11 11,13 5,2 11,2 16,-1 3,1 6,2 9,4 0,5 3,11 8,14 6,2 12,2 17,0 3,1 5,3 8,5 0,6 3,11 7,15 5,3 11,3 16,1 3,2 6,5 8,7 0,5 2,11 6,15 5,4 10,5 16,3 2,3 5,5 8,8 66,67 107,159 107,260 0,102 -41,194 -107,260 -67,67 -159,108 -260,108 -32,0 -63,-4 -92,-12 -1,-5 -6,-9 -11,-11 -6,-2 -12,0 -16,3 -3,-1 -7,-2 -10,-3 -1,-6 -4,-10 -10,-13 -5,-2 -11,-1 -16,2 -3,-1 -6,-3 -9,-4 0,-6 -4,-11 -9,-14 -5,-3 -11,-3 -16,0 -3,-2 -6,-4 -8,-5 0,-6 -3,-11 -8,-15 -5,-3 -11,-4 -16,-2 -3,-2 -5,-4 -8,-6 1,-5 -1,-11 -6,-15 -4,-4 -10,-5 -15,-3 -3,-3 -5,-5 -8,-7 2,-6 0,-11 -4,-16 -4,-4 -10,-6 -15,-5 -2,-2 -5,-5 -7,-7 2,-6 1,-12 -2,-16 -4,-5 -10,-8 -15,-7 -21,-30 -38,-63 -49,-98 5,-1 10,-3 14,-4 18,53 48,101 86,139 64,64 152,104 250,104 97,0 185,-40 249,-104 64,-63 103,-152 103,-249 0,-97 -39,-185 -103,-249 -64,-64 -152,-103 -249,-103 -98,0 -186,39 -250,103 -38,39 -68,87 -86,140 -4,-2 -9,-3 -14,-4 18,-56 49,-106 90,-147 66,-67 158,-108 260,-108z"/>
  <g id="interface-icon-jump-to-mother-play">
   <path id="interface-icon-jump-to-mother-play_0" fill="#4F65B7" d="M77 437c-2,2 -4,4 -6,6 -15,15 -25,36 -25,59 0,24 10,45 25,60 2,2 4,4 6,6 0,2 0,4 0,7 1,3 3,6 7,8l0 1c4,1 7,2 11,1 2,-1 4,-2 6,-4 9,4 19,6 29,6 24,0 45,-10 60,-25 12,-12 21,-28 24,-46 2,-1 4,-2 6,-4 2,-2 4,-6 4,-10 0,-4 -2,-7 -4,-10 -2,-2 -4,-3 -6,-4 -3,-17 -12,-33 -24,-45 -15,-16 -36,-25 -60,-25 -10,0 -20,2 -29,5 -2,-1 -4,-2 -7,-3 -3,-1 -7,0 -10,1l0 1c-4,2 -6,5 -7,8 -1,3 -1,5 0,7zm-52 65c0,-29 12,-55 31,-74 19,-19 45,-31 74,-31 30,0 56,12 75,31 19,19 31,45 31,74 0,29 -12,56 -31,75 -19,19 -45,31 -75,31 -29,0 -55,-12 -74,-31 -19,-19 -31,-46 -31,-75zm215 39c4,-12 7,-25 7,-39 0,-32 -13,-61 -34,-82 -3,-2 -5,-4 -8,-6 -20,-17 -46,-28 -75,-28 -16,0 -32,4 -46,10 -14,6 -26,14 -36,24 -2,3 -4,5 -7,8 0,0 0,0 0,0 -17,20 -27,46 -27,74 0,32 13,61 34,82 10,10 22,19 35,24 15,7 31,10 47,10 29,0 55,-10 75,-27 3,-2 5,-4 8,-7 12,-12 21,-26 27,-43 0,0 0,0 0,0zm-143 -96c-6,3 -13,1 -17,-5 -3,-6 -1,-13 5,-17 5,-3 13,-1 16,5 4,6 2,13 -4,17zm-40 57c0,-20 8,-38 21,-52 2,-1 3,-3 5,-4 1,1 3,1 4,2 4,1 7,0 11,-2 3,-2 6,-5 7,-8 0,-2 0,-3 0,-5 8,-3 17,-4 25,-4 21,0 39,8 52,21 11,11 18,24 21,39 -1,1 -3,2 -4,3 -2,3 -4,6 -4,10 0,4 2,8 4,10 1,1 3,2 4,3 -3,15 -10,29 -21,39 -13,14 -31,22 -52,22 -8,0 -17,-2 -25,-4 0,-2 0,-3 0,-5 -1,-3 -3,-7 -7,-8 -3,-2 -7,-3 -11,-2 -1,0 -2,1 -4,2 -1,-2 -3,-3 -5,-5 -13,-13 -21,-31 -21,-52zm28 79c-6,-3 -8,-10 -4,-16 3,-6 10,-8 16,-5 6,4 8,11 5,17 -4,6 -11,8 -17,4zm125 -67c-7,0 -13,-5 -13,-12 0,-7 6,-12 13,-12 6,0 12,5 12,12 0,7 -6,12 -12,12z"/>
   <path id="interface-icon-jump-to-mother-arrow" fill="#E31E24" d="M105 458l0 89 76 -45 -68 -39 -8 -5zm11 19l22 13 22 12 -44 26 0 -51z"/>
   <polygon id="interface-icon-jump-to-mother-arrow_1" fill="#E97968" points="116,477 116,528 160,502 138,490 "/>
   <path id="interface-icon-jump-to-mother-play_2" fill="#FEFEFE" d="M210 490c-7,0 -13,5 -13,12 0,7 6,12 13,12 6,0 12,-5 12,-12 0,-7 -6,-12 -12,-12zm-113 -45c6,-4 8,-11 4,-17 -3,-6 -11,-8 -16,-5 -6,4 -8,11 -5,17 4,6 11,8 17,5zm5 132c3,-6 1,-13 -5,-17 -6,-3 -13,-1 -16,5 -4,6 -2,13 4,16 6,4 13,2 17,-4z"/>
  </g>
 </g>
</svg>
