<?xml version="1.0" encoding="iso-8859-1"?>
<!-- Generator: Adobe Illustrator 17.0.0, SVG Export Plug-In . SVG Version: 6.00 Build 0)  -->
<!DOCTYPE svg PUBLIC "-//W3C//DTD SVG 1.1//EN" "http://www.w3.org/Graphics/SVG/1.1/DTD/svg11.dtd">
<svg version="1.1" id="&#x421;&#x43B;&#x43E;&#x439;_1"
	 xmlns="http://www.w3.org/2000/svg" xmlns:xlink="http://www.w3.org/1999/xlink" x="0px" y="0px" width="2474px" height="1597px"
	 viewBox="0 0 2474 1597" style="enable-background:new 0 0 2474 1597;" xml:space="preserve">
<path style="fill-rule:evenodd;clip-rule:evenodd;stroke:#1D1D1B;stroke-width:2;stroke-miterlimit:10;" d="M987.997,386.327
	c262.283,0.568,388.661,0.944,454.976,0c48.07-2.047,59.28,4.094,67.996,12.99c12.247,9.135,16.446,27.632,15.999,49.96
	c-0.298,11.462-1,170.862-1,170.862s-51.784-141.435-92.995-174.859c-6.723-5.453-16.549-9.445-27.399-11.807
	c-30.478-6.635-55.63,2.174-95.595,14.805c-44.643,14.109-101.03,17.11-140.992,3.997c-67.049-22.002-81.208-38.06-143.992-15.987
	C965.559,457.182,951.36,533.562,947,540.203c0-36.633,0-73.278,0-109.911C947.958,409.506,964.374,391.125,987.997,386.327z
	 M1169.988,473.257c105.801,41.826,182.243-54.151,240.987-0.999c8.5,11.189,39.826,49.539,74.996,131.894
	c13.469,33.14,38.606,105.236,31.998,142.885c-2.571,14.648-15.245,70.696-86.995,29.976c-25.616-14.538-44.907-37.94-96.53-54.088
	c-46.46-14.533-105.851-10.87-158.456,34.104c-32.719,27.973-55.085,67.387-90.995,91.926
	c-85.127,58.171-111.529,3.446-113.994-0.999c-20.406-36.803-27.591-202.005,8-290.766
	C1020.603,453.429,1073.268,435.02,1169.988,473.257z M1526.969,818.978c0,23.645,0,47.298,0,70.943c-145.644,0-291.332,0-436.977,0
	c0-0.666,0-1.332,0-1.998c25.339-10.86,36.107-45.612,92.995-102.917c104.978-87.247,171.869-23.399,276.985,30.975
	C1503.824,838.664,1527.115,818.943,1526.969,818.978z"/>
<linearGradient id="SVGID_1_" gradientUnits="userSpaceOnUse" x1="1002.4841" y1="618.0388" x2="1458.3623" y2="618.0388">
	<stop  offset="0" style="stop-color:#00ACDE"/>
	<stop  offset="1" style="stop-color:#F61AA0"/>
</linearGradient>
<path style="fill-rule:evenodd;clip-rule:evenodd;fill:url(#SVGID_1_);" d="M1071.901,504.336
	c-26.852,11.003-91.142,55.277-61.997,144.883c14.662,45.079,39.401,75.074,85.995,87.929c22.451,6.194,64.877-4.529,65.996-4.996
	c51.96-21.692,90.882-94.697,98.995-104.915c14.247,14.523,54.977,57.88,96.995,74.94c24.413,9.912,57.25,0.746,58.997,0
	c22.588-9.647,33.878-32.557,39.998-58.953c3.457-14.907,0.203-33.923-3-45.963c-11.564-43.474-25.754-66.345-59.997-86.93
	c-13.609-8.181-38.673-14.38-58.997-6.994c-42.362,15.395-70.224,72.781-79.996,85.931
	C1239.252,572.763,1153.443,468.872,1071.901,504.336z M1436.881,589.268c7.927,25.001,3.459,60.299-10,75.939
	c-52.623,61.15-133.801-42.861-152.992-58.953c10.749-12.203,27.674-46.245,50.997-66.946
	C1327.41,537.307,1395.413,485.104,1436.881,589.268z M1242.892,610.251c-16.852,19.626-43.09,83.237-114,99.321
	c-1.779,0.404-3.886,0.469-5.376,0.433c-16.382-0.392-102.838-5.497-91.119-122.249c2.225-22.164,25.221-47.621,45.503-56.442
	C1149.894,502.032,1232.678,600.365,1242.892,610.251z M1380.885,557.294c-10.504,8.555-5.129,33.074,13.999,32.974
	C1414.408,589.001,1410.31,544.797,1380.885,557.294z M1099.9,592.266c-15.328-0.573-29.95,1.496-31.998,13.989
	c0.9,13.562-4.765,31.564,37.998,27.977c1.524,23.435,3.789,43.347,25.999,42.965c19.532-0.335,19.18-17.796,15.999-44.964
	c4.924-2.936,33.631,4.089,31.998-13.989c2.504-28.214-11.328-29.005-37.998-27.977c-0.979-21.355-1.392-36.428-15.999-34.972
	C1108.157,554.931,1098.795,559.587,1099.9,592.266z M1341.887,558.293c-8.349,3.93-10.395,36.718,13.999,33.973
	C1383.58,584.521,1362.976,546.329,1341.887,558.293z M1395.884,603.257c-25.477,8.13-5.231,48.802,15.999,32.973
	C1421.475,628.972,1417.356,602.102,1395.884,603.257z M1349.886,608.253c-8.583,3.811-9.172,37.101,14.999,33.973
	C1390.486,637.399,1375.863,593.93,1349.886,608.253z"/>
<g>
	<path d="M1009.214,981.5h-45c-2.734,0-5.084-0.983-7.05-2.95c-1.967-1.965-2.95-4.315-2.95-7.05v-50c0-2.733,0.983-5.083,2.95-7.05
		c1.966-1.966,4.316-2.95,7.05-2.95h45v13.9h-40v10.1h40v13.9h-40v18.2h40V981.5z"/>
	<path d="M1075.213,925.399h-21.5v56.1h-15v-56.1h-23.5v-13.9h60V925.399z"/>
	<path d="M1136.212,981.5h-45c-2.734,0-5.084-0.983-7.05-2.95c-1.967-1.965-2.95-4.315-2.95-7.05v-50c0-2.733,0.983-5.083,2.95-7.05
		c1.965-1.966,4.315-2.95,7.05-2.95h45v13.9h-40v10.1h40v13.9h-40v18.2h40V981.5z"/>
	<path d="M1202.21,981.5h-15v-32.1h-30v32.1h-15v-70h50c2.733,0,5.083,0.984,7.05,2.95c1.966,1.967,2.95,4.317,2.95,7.05v11
		c0,2.734-0.984,5.084-2.95,7.05c-1.967,1.967-4.317,2.95-7.05,2.95c2.733,0,5.083,0.984,7.05,2.95
		c1.966,1.967,2.95,4.317,2.95,7.05V981.5z M1187.21,935.5v-10.1h-30v10.1H1187.21z"/>
	<path d="M1268.209,981.5h-15l-30-41.997V981.5h-15v-70h15.031l29.969,41.956V911.5h15V981.5z"/>
	<path d="M1334.208,939.426c0,2.727-0.984,5.07-2.95,7.031c-1.967,1.962-4.317,2.942-7.05,2.942h-35v32.1h-15v-70h50
		c2.733,0,5.083,0.981,7.05,2.942c1.966,1.962,2.95,4.306,2.95,7.031V939.426z M1319.208,935.5v-10.1h-30v10.1H1319.208z"/>
	<path d="M1395.207,981.5h-45c-2.734,0-5.084-0.983-7.05-2.95c-1.967-1.965-2.95-4.315-2.95-7.05v-60h15v56.1h40V981.5z"/>
	<path d="M1473.207,981.5h-17.126l-6.292-16h-28.166l-6.4,16h-17.017l28.001-70h18.999L1473.207,981.5z M1444.229,951.6
		l-8.577-21.439l-8.469,21.439H1444.229z"/>
	<path d="M1525.507,911.5l-27.5,38.003V981.5h-15v-32l-27.499-38h19.008l15.991,21.927l15.991-21.927H1525.507z"/>
	<path d="M1008.524,1084.7h-43c-2.352,0-4.373-0.845-6.063-2.537c-1.692-1.69-2.537-3.711-2.537-6.063v-43
		c0-2.35,0.845-4.371,2.537-6.063c1.69-1.69,3.711-2.537,6.063-2.537h43v11.954h-38.7v36.292h25.8v-15.652h-17.2v-11.954h30.1
		V1084.7z"/>
	<path d="M1075.604,1084.7h-14.729l-5.411-13.76h-24.223l-5.504,13.76h-14.635l24.081-60.2h16.339L1075.604,1084.7z
		 M1050.683,1058.986l-7.376-18.438l-7.283,18.438H1050.683z"/>
	<path d="M1143.543,1084.7h-12.9v-30.1l-14.619,30.1h-10.321l-14.62-30.103v30.103h-12.9v-60.2h12.911l19.579,40.904l19.961-40.904
		h12.909V1084.7z"/>
	<path d="M1196.003,1084.7h-38.7c-2.352,0-4.373-0.845-6.063-2.537c-1.692-1.69-2.537-3.711-2.537-6.063v-43
		c0-2.35,0.845-4.371,2.537-6.063c1.69-1.69,3.711-2.537,6.063-2.537h38.7v11.954h-34.4v8.686h34.4v11.954h-34.4v15.652h34.4V1084.7
		z"/>
	<path d="M1295.762,1076.1c0,2.352-0.847,4.373-2.537,6.063c-1.692,1.692-3.713,2.537-6.063,2.537h-43v-11.954h38.7v-15.652h-30.1
		c-2.352,0-4.373-0.843-6.063-2.53c-1.692-1.687-2.537-3.702-2.537-6.047v-15.44c0-2.343,0.845-4.359,2.537-6.047
		c1.69-1.686,3.711-2.53,6.063-2.53h43v11.954h-38.7v8.686h30.1c2.35,0,4.371,0.847,6.063,2.537c1.69,1.692,2.537,3.713,2.537,6.063
		V1076.1z"/>
	<path d="M1352.521,1036.454h-18.49v48.246h-12.9v-48.246h-20.21V1024.5h51.6V1036.454z"/>
	<path d="M1409.28,1076.1c0,2.352-0.847,4.373-2.537,6.063c-1.692,1.692-3.713,2.537-6.063,2.537h-34.4
		c-2.352,0-4.373-0.845-6.063-2.537c-1.692-1.69-2.537-3.711-2.537-6.063v-51.6h12.9v48.246h25.8V1024.5h12.9V1076.1z"/>
	<path d="M1466.038,1076.1c0,2.352-0.847,4.373-2.537,6.063c-1.692,1.692-3.713,2.537-6.063,2.537h-43v-60.2h43
		c2.35,0,4.371,0.847,6.063,2.537c1.69,1.692,2.537,3.713,2.537,6.063V1076.1z M1453.138,1072.746v-36.292h-25.8v36.292H1453.138z"
		/>
	<path d="M1522.797,1076.1c0,2.352-0.847,4.373-2.537,6.063c-1.692,1.692-3.713,2.537-6.063,2.537h-34.4
		c-2.352,0-4.373-0.845-6.063-2.537c-1.692-1.69-2.537-3.711-2.537-6.063v-43c0-2.35,0.845-4.371,2.537-6.063
		c1.69-1.69,3.711-2.537,6.063-2.537h34.4c2.35,0,4.371,0.847,6.063,2.537c1.69,1.692,2.537,3.713,2.537,6.063V1076.1z
		 M1509.897,1072.746v-36.292h-25.8v36.292H1509.897z"/>
</g>
</svg>
