<?xml version="1.0" encoding="UTF-8"?>
<!DOCTYPE svg PUBLIC "-//W3C//DTD SVG 1.1//EN" "http://www.w3.org/Graphics/SVG/1.1/DTD/svg11.dtd">
<!-- Creator: CorelDRAW X8 -->
<svg xmlns="http://www.w3.org/2000/svg" xml:space="preserve" width="1000px" height="1000px" version="1.1" shape-rendering="geometricPrecision" text-rendering="geometricPrecision" image-rendering="optimizeQuality" fill-rule="evenodd" clip-rule="evenodd"
viewBox="0 0 1000 1000"
 xmlns:xlink="http://www.w3.org/1999/xlink">
 <g id="interface-icon-open-bookmarks">
  <metadata id="CorelCorpID_0Corel-Layer"/>
  <circle fill="black" cx="500" cy="500" r="500"/>
  <path fill="#E97968" d="M193 353c-83,166 -21,368 141,458l19 -35c-142,-81 -197,-258 -124,-404l-36 -19z"/>
  <path fill="#4F65B7" d="M789 452l-43 -105c-6,-16 3,-30 18,-40l25 -18c27,34 47,73 59,114 6,20 11,41 14,63l-33 3c-17,3 -34,-1 -40,-17zm-508 402l-22 -15 -20 31 22 15 20 -31zm511 -491l-5 10 -5 10 6 9 6 9 11 0 11 0 5 -10 5 -10 -6 -9 -6 -9 -11 0 -11 0z"/>
  <path fill="#FEFEFE" d="M562 47l-11 76c-18,-3 -37,-3 -56,-3l-3 -77c23,0 47,1 70,4zm-304 782l34 22 -30 45 -33 -22 29 -45zm-205 -438l1 -3 -1 3 0 0zm28 -79c6,-11 11,-22 17,-33l67 39c-3,4 -5,9 -7,14l0 0c-96,187 -26,416 159,517l-36 68c-29,-16 -50,-30 -74,-50l20 -33c-49,-42 -88,-94 -113,-152l-38 10c-6,-12 -8,-18 -12,-31l13 -8c-10,-36 -15,-74 -15,-114 0,-71 17,-138 48,-197l-29 -30zm246 542c188,97 420,24 520,-164 99,-188 29,-420 -157,-522l36 -68c224,122 308,401 189,626 -7,12 -13,23 -20,34l-57 -29 -2 3c-9,15 -18,30 -29,44l39 45 -9 10 -46 -36c-12,15 -26,29 -41,42l26 46c-4,4 -9,7 -14,11l-33 -40c-16,12 -33,24 -51,34l14 44c-5,2 -11,5 -16,7l-21 -40c-19,10 -39,17 -59,23l4 40c-6,1 -12,2 -18,3l-10 -36c-21,5 -43,9 -65,10l-4 33c-6,0 -12,0 -18,-1l-2 -31c-23,1 -46,-1 -68,-4l-9 26c-6,-2 -12,-3 -17,-5l3 -25c-22,-4 -45,-11 -67,-20l-11 19c-8,-3 -16,-7 -23,-11l36 -68zm301 -713l24 -74c22,8 43,17 64,28l-36 68c-17,-9 -34,-16 -52,-22zm13 -77l-23 73c-19,-6 -37,-10 -55,-13l10 -76c23,4 46,9 68,16zm117 124l23 -31 -15 -11 -23 31 15 11zm27 23l26 -28 -14 -13 -26 29 14 12zm25 26l28 -26 -13 -14 -28 26 13 14zm22 28l30 -24 -11 -15 -30 24 11 15zm20 29l32 -21 -10 -15 -32 21 10 15zm17 31l34 -18 -8 -16 -34 18 8 16zm15 33l35 -15 -7 -17 -35 15 7 17zm12 34l36 -12 -5 -18 -37 12 6 18zm8 34l38 -8 -4 -18 -38 8 4 18zm6 36l38 -6 -2 -18 -39 5 3 19zm3 35l38 -2 -1 -18 -38 2 1 18zm-1 36l38 1 1 -18 -38 -2 -1 19zm-4 35l38 5 3 -18 -38 -5 -3 18zm-6 35l37 8 4 -18 -38 -8 -3 18zm-10 35l36 11 6 -18 -37 -11 -5 18zm-13 33l36 15 7 -17 -36 -15 -7 17zm-150 -504l20 -33 -15 -9 -21 32 16 10zm134 536l35 18 8 -17 -34 -17 -9 16z"/>
  <path id="interface-icon-open-bookmarks-active" fill="#603882" d="M401 32l21 96c17,-3 34,-6 51,-7l-5 -98c-23,2 -45,5 -67,9zm-195 227l-75 -64c-14,17 -27,35 -38,53l84 51c9,-14 18,-28 29,-40zm-68 -73l75 64c11,-13 23,-25 36,-36l-64 -75c-16,15 -32,31 -47,47zm56 -54l64 74c12,-10 26,-20 40,-29l-51 -84c-18,12 -36,25 -53,39zm64 -45l50 84c14,-8 29,-15 44,-22l-36 -91c-20,9 -40,18 -58,29zm69 -33l36 91c15,-6 31,-11 47,-15l-21 -95c-21,5 -42,11 -62,19z"/>
  <path fill="#177798" d="M774 652c-78,147 -259,205 -407,131l-19 36c168,84 374,19 462,-148 31,-59 44,-122 40,-184l-40 3c3,54 -8,110 -36,162zm-452 -391l0 0zm166 -59l0 0zm178 0c-167,-89 -373,-27 -465,137l35 19c22,-39 52,-72 86,-97l11 -40c61,-29 68,-31 126,-41l29 22c53,-3 108,8 159,35 35,19 65,43 89,71l30 -26c-27,-32 -61,-59 -100,-80z"/>
  <path fill="#473128" d="M542 432c0,-23 -19,-42 -42,-42 -23,0 -42,19 -42,42 0,24 19,43 42,43 23,0 42,-19 42,-43z"/>
  <path fill="#546650" d="M209 528l56 -9c-7,-7 -15,-14 -22,-20 3,-1 7,-1 10,-2 8,6 15,13 23,20 33,-6 66,-11 97,-17 -9,-6 -17,-12 -25,-18 3,0 6,-1 9,-1 8,5 17,11 26,18 29,-6 58,-10 86,-15 -9,-6 -18,-11 -27,-17 3,0 5,-1 8,-1 9,5 18,11 27,16 27,-4 53,-9 78,-13 -7,-4 -14,-7 -21,-11 1,-1 1,-2 2,-4 9,5 17,9 26,14 24,-4 47,-8 70,-12 -11,-5 -20,-10 -30,-14 2,-1 4,-1 7,-1 9,4 19,9 30,14 21,-4 42,-8 62,-11 -10,-5 -20,-9 -30,-13 2,-1 4,-1 6,-1 10,4 20,8 31,13 16,-3 33,-6 49,-9 1,1 3,1 4,2 -16,3 -33,5 -50,8 13,6 26,11 39,17 16,-3 31,-6 46,-9 0,1 0,2 0,2 -14,3 -27,6 -42,8 14,6 28,12 43,18l3 0c0,2 0,4 0,6l-5 -3c-21,5 -43,10 -65,14 15,7 30,14 46,22l25 -6c0,1 0,2 0,3l-21 5c7,3 14,6 21,9 0,2 -1,4 -1,5 -9,-4 -18,-8 -27,-12 -23,5 -48,11 -73,17 16,9 32,17 49,26 17,-4 33,-9 49,-13 0,2 0,3 0,4 -14,4 -29,8 -43,12 12,6 24,13 36,19 -1,2 -1,4 -2,6 -14,-8 -29,-15 -42,-23 -27,7 -56,15 -85,23 18,10 35,21 54,33 24,-8 47,-15 70,-22 -1,2 -1,4 -2,6 -20,6 -41,13 -62,19 13,8 27,17 41,26 -1,2 -2,4 -4,6 -16,-10 -32,-19 -47,-29 -31,10 -65,20 -99,31 18,13 38,27 58,42 27,-9 53,-18 78,-27 -2,3 -4,6 -6,9 -21,7 -43,15 -66,23 9,6 18,12 27,19 -3,2 -5,5 -8,7 -10,-8 -20,-15 -30,-22 -38,13 -78,27 -121,42 14,12 28,25 42,38 -5,2 -10,3 -16,4 -13,-13 -27,-25 -40,-37 -32,11 -66,23 -100,35 -5,-1 -9,-2 -13,-3 37,-13 73,-26 107,-38 -18,-17 -36,-33 -53,-49 -44,13 -90,27 -139,42l6 7c-46,-31 -83,-75 -105,-127 4,5 8,10 12,15 44,-10 85,-20 125,-30 -12,-11 -24,-22 -36,-32 -35,7 -72,15 -111,23 0,-1 -1,-2 -1,-4 38,-8 74,-15 109,-22 -11,-10 -22,-20 -32,-29 -28,5 -56,10 -86,16 0,-1 0,-2 -1,-3 29,-6 57,-11 84,-16 -10,-9 -20,-18 -29,-26l-58 10 -1 -3zm330 224c42,-15 83,-29 120,-42 -20,-15 -39,-29 -57,-43 -37,11 -76,23 -117,36 17,15 35,32 54,49zm251 -270c-14,-7 -28,-13 -42,-18 -21,4 -42,8 -64,12 14,6 27,13 42,19 22,-4 43,-9 64,-13zm-46 -20c-13,-6 -26,-11 -39,-17 -20,4 -41,8 -63,11 13,6 25,12 38,18 22,-4 43,-8 64,-12zm24 58c-15,-7 -30,-14 -45,-21 -23,5 -47,10 -72,15 14,8 29,16 44,24 26,-6 50,-12 73,-18zm-49 -23c-15,-7 -28,-13 -42,-20 -23,5 -46,9 -70,14 12,7 26,14 40,21 24,-5 48,-10 72,-15zm-46 -22c-13,-6 -25,-12 -38,-17 -22,4 -45,8 -69,12 12,6 24,12 36,19 25,-5 48,-9 71,-14zm68 93c-17,-9 -33,-17 -49,-26 -26,7 -54,13 -82,20 15,9 31,19 47,29 29,-8 57,-15 84,-23zm-54 -28c-15,-9 -30,-16 -44,-24 -26,6 -53,11 -81,17 14,9 28,17 43,26 28,-7 56,-13 82,-19zm-48 -26c-14,-8 -27,-15 -40,-22 -26,5 -52,10 -80,16 13,7 26,15 39,23 28,-6 55,-12 81,-17zm-44 -24c-13,-6 -25,-13 -37,-19 -25,4 -50,9 -77,13 11,7 23,14 35,21 27,-5 53,-10 79,-15zm111 139c-18,-11 -36,-22 -53,-32 -31,8 -63,17 -97,26 16,11 33,24 51,37 35,-11 68,-21 99,-31zm-58 -36c-17,-10 -32,-19 -48,-29 -30,7 -61,15 -94,23 15,10 30,21 45,32 34,-9 66,-18 97,-26zm-52 -32c-15,-9 -29,-17 -43,-26 -29,7 -60,13 -91,20 13,9 26,19 40,29 32,-8 64,-16 94,-23zm-47 -28c-13,-8 -26,-16 -38,-24 -29,6 -58,11 -89,17 11,9 23,17 36,26 31,-7 62,-13 91,-19zm-42 -26c-12,-7 -23,-14 -35,-21 -27,5 -56,10 -86,15 10,7 21,15 32,23 31,-6 61,-12 89,-17zm89 156c-17,-13 -34,-25 -51,-37 -35,9 -73,19 -112,30 15,13 31,27 47,42 41,-12 79,-24 116,-35zm-56 -41c-15,-11 -30,-22 -44,-33 -35,8 -71,17 -109,26 13,12 27,24 41,37 40,-11 77,-21 112,-30zm-49 -36c-13,-10 -27,-20 -39,-29 -34,7 -69,15 -105,22 12,11 24,21 36,33 38,-9 74,-18 108,-26zm-43 -32c-13,-9 -25,-17 -36,-26 -32,6 -66,13 -101,19 10,10 21,19 32,29 36,-7 71,-15 105,-22zm-40 -28c-11,-8 -21,-16 -32,-24 -31,6 -64,11 -97,17 9,9 19,17 29,26 35,-7 68,-13 100,-19zm59 176c-16,-15 -32,-29 -46,-43 -42,11 -86,23 -133,36 13,15 27,32 41,49 48,-15 94,-29 138,-42zm-51 -47c-14,-13 -28,-25 -41,-37 -40,9 -82,19 -126,30 11,13 23,27 36,42 45,-12 89,-24 131,-35z"/>
  <path fill="#E31E24" d="M500 329c55,0 105,39 105,101 -1,62 -80,115 -105,271 -25,-156 -104,-209 -105,-271 0,-62 49,-101 105,-101zm3 -197c104,0 198,43 266,111 68,68 110,162 110,265 0,104 -42,198 -110,266 -68,68 -162,110 -266,110 -103,0 -197,-42 -265,-110 -68,-68 -110,-162 -110,-266 0,-103 42,-197 110,-265 68,-68 162,-111 265,-111zm255 121c-65,-65 -155,-105 -255,-105 -99,0 -189,40 -255,105 -65,66 -105,156 -105,255 0,100 40,190 105,255 66,66 156,106 255,106 100,0 190,-40 255,-106 66,-65 106,-155 106,-255 0,-99 -40,-189 -106,-255zm-258 137c23,0 42,19 42,42 0,24 -19,43 -42,43 -23,0 -42,-19 -42,-43 0,-23 19,-42 42,-42z"/>
 </g>
</svg>
