<?xml version="1.0" encoding="UTF-8"?>
<!DOCTYPE svg PUBLIC "-//W3C//DTD SVG 1.1//EN" "http://www.w3.org/Graphics/SVG/1.1/DTD/svg11.dtd">
<!-- Creator: CorelDRAW X8 -->
<svg xmlns="http://www.w3.org/2000/svg" xml:space="preserve" width="1000px" height="739px" version="1.1" shape-rendering="geometricPrecision" text-rendering="geometricPrecision" image-rendering="optimizeQuality" fill-rule="evenodd" clip-rule="evenodd"
viewBox="0 0 101124 74838"
 xmlns:xlink="http://www.w3.org/1999/xlink">
 <g id="interface-icon-jump-to-mother">
  <metadata id="CorelCorpID_0Corel-Layer"/>
  <g id="interface-icon-jump-to-mother-body">
   <path fill="#4E8E50" d="M100939 57001l-123 -185 -62 -62 -61 -61 -124 -62 -62 -62c-215,-57 -138,-23 -246,-184l-123 0c112,168 184,197 353,325 79,59 134,102 210,159 155,116 44,80 238,132z"/>
   <path fill="#4E8E50" d="M100507 56569l62 62 124 62 61 61 62 62c228,61 79,62 308,123 -89,-133 -188,-187 -325,-291 -143,-108 -245,-218 -415,-263l123 184z"/>
   <polygon fill="#4E8E50" points="100939,57001 100939,57063 101011,57011 "/>
   <path fill="#C0C5C5" d="M59422 35251c245,96 595,220 944,94 130,-48 247,-121 247,-279 -1,-206 -94,-184 -247,-291 -501,-167 -621,-92 -981,91 -13,165 10,302 37,385z"/>
   <path fill="#C0C5C5" d="M60628 36253c1575,140 1211,-789 -24,-624 -345,266 -308,415 24,624z"/>
   <path fill="#C0C5C5" d="M67307 33461c-46,584 550,598 885,535 211,-40 405,-135 316,-384 -76,-213 -229,-139 -400,-303 -170,15 -339,5 -506,43 -188,44 -176,105 -295,109z"/>
   <path fill="#C0C5C5" d="M67133 32503l-214 4c-383,-42 -548,-3 -692,276 114,474 902,496 1224,185 0,-360 -141,-263 -318,-465z"/>
   <path fill="#B1B1B0" d="M67269 45640l626 -177c8,-11 19,-25 27,-37l100 -503c-39,-257 12,-150 -369,-266l-179 -63c-406,85 -265,-193 -659,-148 -130,15 -489,156 -607,230 56,146 36,84 187,147 -56,314 81,147 -182,263l135 158c106,139 95,174 318,259 275,106 395,43 603,137z"/>
   <path fill="#B1B1B0" d="M83188 38552c161,236 -98,-38 -121,332 208,190 225,128 492,206 19,5 69,23 89,28l101 23c556,104 709,364 1261,-35 -81,-181 -99,-13 -228,-222 125,-177 -81,-66 221,-185 -159,-260 -379,-432 -791,-402 -425,31 -206,-83 -561,-61 -473,28 -287,-13 -356,135 -194,66 -72,-30 -107,181z"/>
   <path fill="#B1B1B0" d="M61967 30043c579,80 -272,386 563,584 703,168 20,-276 937,-68 47,-94 -29,-96 67,-125 51,-16 164,243 212,-111 1,-12 4,-31 4,-44 29,-812 -1288,-906 -1783,-236z"/>
   <path fill="#B1B1B0" d="M55342 31942l-90 223 1005 534c178,-25 -55,-57 190,-157 120,-49 -112,43 110,-23l459 -167 -5 -232c-135,-161 -485,-411 -761,-443 -579,-68 -604,151 -908,265z"/>
   <path fill="#B1B1B0" d="M47423 27853c90,167 -104,86 230,164 364,85 768,67 1132,0 70,-644 291,-476 -638,-685 -790,-178 -725,519 -724,521z"/>
   <path fill="#B1B1B0" d="M62232 23727c128,67 1094,365 1305,72 7,-10 15,-28 22,-39l189 -282c-322,-311 -378,-186 -595,-191 -243,-6 -562,-200 -779,11 -135,131 0,-48 -70,205l-26 85c-12,37 -28,-9 -46,139z"/>
   <path fill="#0B0B0B" d="M46950 18321l-661 166c-219,667 -545,689 170,1293 389,328 1077,496 1352,392 182,-70 82,28 179,-145 -141,-229 159,-70 -627,-187 -221,-33 -372,-88 -573,-87l1107 149c228,63 -112,143 304,38 284,-72 334,-229 626,-65 190,107 347,338 522,388l-342 -324c193,-146 210,-26 338,-357 271,-705 -198,-971 -853,-1355l-1 527c205,-13 298,-184 544,-21 -54,341 -99,285 -467,356 -441,85 -1257,417 -1641,76 99,-80 -9,-27 185,-102l439 -100c-189,-288 -466,-244 -601,-642z"/>
   <path fill="#0B0B0B" d="M90690 47203c183,36 355,173 480,304 595,48 1052,-368 1149,-823 -680,17 -530,527 -1254,482 -56,-483 346,-1024 854,-1227l228 -115c-550,-351 -943,57 -1231,486 -78,116 -70,75 -161,208 -156,227 -81,395 -65,685z"/>
   <path fill="#969696" d="M38589 18178l-935 812 -285 1216 -20 129 1600 518 2011 -1612 64 94c-360,-1169 -1180,-1260 -2435,-1157z"/>
   <path fill="#969696" d="M39651 21533c531,122 1780,479 2283,263 570,-244 1635,-505 898,-1224 -1072,-1047 -3200,-724 -3181,961z"/>
   <path fill="#969696" d="M54516 18052l25 -60c-454,-411 -838,-1002 -1924,-876 -179,158 -243,70 -503,252 -136,95 -62,31 -159,133l465 393c137,89 595,571 623,708 29,140 -68,87 9,215l1130 -24c235,-130 399,-415 334,-741z"/>
   <path fill="#81858B" d="M80835 49553c198,-123 1035,-696 1197,-693l-374 -431 673 -239c453,199 166,472 990,145 589,-234 462,-140 1051,-270l-1710 -1162 179 -270c-710,147 -1436,-993 -2250,-1124 -575,-93 -1046,-76 -1429,250 -356,302 -1048,125 -1204,332l-81 802 2958 2660z"/>
   <path fill="#81858B" d="M71012 66683l-12 54 937 901 59 213 3650 -1668 -323 -432 -1153 59c-144,-183 -31,-909 -21,-1169l-275 -33 -1042 30c-128,-121 -258,-305 -433,-342l369 -732 -308 -22 -717 3742 -473 -861 -258 260z"/>
   <path fill="#202328" d="M57101 28612c-1275,78 -1277,855 -1422,852l-356 -1281 502 336c207,-300 -291,-516 147,-388 263,77 229,302 467,160 63,-103 -592,-1790 1113,-377 525,436 1056,821 1573,1261 920,783 2344,1763 3106,2560 -436,337 -935,-453 -1918,887l-1115 -1046 665 288 -78 -468 625 292 -260 -569c-1261,-72 -1185,656 -1501,982l-426 -1468 692 360 -134 -477c137,-33 501,228 638,304 254,-458 -411,-591 -934,-431 -1150,351 -342,604 -892,845 -48,-238 -208,-1334 -337,-1442l541 355c202,-272 -352,-600 173,-389 479,192 -65,207 618,122 -548,-337 -208,-597 -1060,-331 -1181,367 -418,620 -963,831l-312 -1401c144,88 482,358 633,323l-106 -435 612 286 -291 -541zm-126 3896l-1081 467 -43 -109c906,749 1934,1824 2919,2704 650,581 2237,2382 3464,2230l770 -316c28,-1013 -769,-1021 -1139,-1681 -339,345 6,79 -143,391 -30,64 -163,191 -270,225 -387,121 -663,40 -824,-166 -332,-209 -369,-358 -24,-624l644 -136 46 -44 -500 -506c-197,86 236,394 -437,565 -388,99 -726,81 -935,-257 -27,-83 -50,-220 -37,-385 360,-183 480,-258 981,-91l-601 -749 811 132 292 -425 36 204 2467 -315 -38 -195c150,117 465,291 511,469l-479 405 1653 588 327 -545 954 747c-405,600 -524,122 -983,-176l-438 477c195,104 695,290 768,482l890 72c-103,150 -239,865 -294,1089l-1 2c977,56 124,-1246 678,-1806l119 4 -48 1411 36 135 2038 -601 27 -658 -1252 446 -1529 -1534 -136 137c-336,-464 171,-147 -239,-487l-1089 -885c-580,-392 -436,171 -689,-560l1014 -351 223 596c296,-28 -277,143 42,-40 281,-161 287,41 350,136 336,506 347,177 938,851 235,268 -96,-99 237,156 264,202 -10,26 209,241 255,251 142,-200 486,215 242,292 498,846 988,878 436,-436 759,-199 761,-750 1,-562 -331,-542 -721,-962l-203 530c-672,194 -1692,-163 -1174,-678 119,-4 107,-65 295,-109 167,-38 336,-28 506,-43l-466 -513c-305,59 180,111 -247,388 -670,434 -1140,-84 -1832,-524l-20 -182 1376 29 214 -4 -724 -558 304 -208 -1544 -546 611 894 -867 -763 -198 494c-373,444 -1124,233 -1437,-96 -404,-424 -128,-75 -230,-41 -317,110 -26,-159 -274,-417 -839,-872 -1257,-204 -2103,-1673 -358,-623 -435,27 -836,-663 -189,-326 -435,-241 -557,-273 -373,-98 -65,-155 -325,-475 -671,-830 -563,193 -941,-714 -151,-364 -403,-287 -538,-312 -427,-80 -3,-119 -269,-373l-69 -186 -1528 559c35,226 403,404 581,540l-11 152 -1481 242 -1443 -403 -588 103 -34 197 605 496c1105,-522 1954,745 2680,1376 545,474 641,510 1285,929 360,234 478,1016 1192,853 1,475 231,563 618,865 404,315 123,-70 215,463 56,320 128,210 195,639l-1621 254 -17 -228 345 -60c-928,-498 -278,-564 -299,-645 -41,-155 -539,256 -855,-417z"/>
   <path fill="#202328" d="M76171 54451l-632 104 205 -907 -1378 317 -67 -197 1228 -685c-1097,-917 -2456,955 -1108,2102l-968 479 1214 -266c-299,368 -1603,699 -2063,1001 -334,218 -529,545 -764,778 -285,284 -537,359 -662,934l3928 -1699 85 193 -8146 3908 3976 -1423 91 201 -1973 1084 -107 66 1575 -386 112 293 -1734 863 2136 -360 -38 328 2181 2503 -873 -2022 125 -132 -1349 -2774c423,-291 880,-270 1395,-159 759,165 307,177 524,398 16,17 478,285 617,409 403,362 1980,1746 2040,2073l-313 2658 619 577 -438 -869c70,-2128 1026,-1646 -521,-3245 -244,-252 -2469,-2135 -1760,-2484l390 207 535 163c523,-371 1602,969 1888,1254 343,344 1659,1143 981,1917l-252 1470c88,61 51,12 128,18 249,-159 547,-2120 381,-2448 -95,-188 -544,-581 -735,-784 -75,-80 -320,-311 -398,-420 -246,-343 -17,-436 -144,-455l-1243 -1026c218,-230 365,-167 999,-238l70 -120 2787 2458c-8,451 5,623 -96,1144 -64,328 -188,880 -195,1195 89,-105 471,-1637 477,-1773 34,-734 -319,-945 -771,-1388 -478,-469 -2153,-1980 -2200,-2455 416,89 874,-28 1435,167 481,166 176,172 533,-11l825 -399c68,-11 344,-36 639,-189 1130,-587 1322,-621 400,180l1401 29 -158 -2317 385 -390 -3652 1269c-191,-199 -187,-896 -224,-1189l73 -9c-861,-204 -551,-1415 -561,-1427 -780,1893 185,1682 -855,1906z"/>
   <path fill="#202328" d="M66827 61930l1425 393 -373 557 209 1263 -815 524 -305 -390 -202 2251 1052 -154c-368,1582 -1896,-612 -2080,-992l-775 -185 -63 135 378 491 -4145 2002 2546 -546 -296 531 996 -394 1304 1003c367,-476 -406,-312 665,-716 660,-249 1239,-858 1825,-243 620,651 119,477 -172,716 455,14 603,43 877,-127 453,-280 548,-179 677,-260 205,-130 1113,-903 1247,-928l198 -124 12 -54 -766 -1040c-240,132 -465,836 -1110,606 -430,-153 -582,-795 -373,-1124 159,-252 296,-1829 211,-2727l-726 -867 -1421 399z"/>
   <path fill="#202328" d="M28708 4375c395,43 33,390 0,0zm-852 -419l-11 -259 246 0 -235 259zm852 -382c65,-65 233,98 68,32 -1,-1 -172,71 -68,-32zm-801 -616c-1,-2 -48,-382 71,-71 107,280 -43,147 -71,71zm-740 -370l-452 459 -82 17 472 817 -74 -860 198 -1 -99 33 283 415 604 -74 -3 72 -503 192 -77 74 411 766 71 -492 237 145 660 -52 -501 823 808 729 63 -917c166,-88 441,60 616,111l-604 203c-86,786 200,839 664,1199 302,234 774,754 1096,852l81 -814 1482 -469 -550 -703 -277 675c95,-368 -209,226 -345,-381 -48,-217 -90,-768 -115,-1040 -1116,-16 -485,-246 -948,-662 -117,-105 -453,-152 -534,74 -78,217 154,137 161,494l-186 38 -260 -1270c-1509,52 -212,-1052 -1498,-698l-335 -749 -711 -167 247 1161z"/>
   <path fill="#202328" d="M20900 9136c-164,145 -2149,681 -2379,198 -1060,217 -1239,1256 -2293,-460l-428 85 688 793 -1168 234 26 139 1358 -118 2417 2241c264,-53 1032,-256 1249,-212l-246 -641c-25,-26 844,-569 1042,-534 366,65 672,646 1132,718l92 -83 -1162 -1157 604 273c158,-350 -320,-1472 -932,-1476z"/>
   <path fill="#202328" d="M61372 61314l149 671 -130 49 911 757 -382 -700 423 -451c-52,-388 -148,-554 -332,-791 -415,-529 -63,-34 -578,-159 -190,-457 62,-523 -544,-1112 -203,-197 -673,-848 -935,-869l175 292 -645 -191c39,-486 310,-860 -440,-1149 -600,-232 -311,-866 -815,-1086l-881 483 66 -1529c-626,276 -499,155 -556,928 -59,797 18,622 383,1042 452,520 861,1120 1376,1644 682,694 1625,2033 2096,2346 1010,669 478,11 659,-175z"/>
   <path fill="#202328" d="M40227 23826l910 786 3120 -202 10 116 -5 -1258 12 -164 22 -130 -554 -1487c-498,186 356,1182 -1529,1374 -1304,133 -883,239 -2364,22l378 943z"/>
   <path fill="#202328" d="M85012 53333l1149 855c663,-115 803,-562 1284,-154 178,151 1049,788 1101,894l566 393 -338 -2272 169 -24 -1217 -1789 -672 302 -37 150 346 172 83 101 -2434 1372z"/>
   <path fill="#202328" d="M65084 37331l1058 -313 -1121 88 -363 -735 523 -294 -712 -616 -1006 337 -93 -130 244 -363 -616 -125 704 -331 -789 -352c-12,-144 549,-295 -261,-138 -430,83 -521,20 -766,-179 -467,-381 -970,-263 -1486,11l1257 687 -219 734 740 -25 810 499c137,263 -475,390 104,786 675,462 37,-392 584,-111 701,359 457,440 1408,570z"/>
   <polygon fill="#202328" points="54592,16083 54541,17992 54516,18052 54712,18389 56736,19942 56579,19841 57356,17518 57472,17531 56888,17877 54654,16022 "/>
   <polygon fill="#202328" points="53915,56303 51509,57309 52498,58516 53498,57835 55275,57142 54421,56083 "/>
   <path fill="#202328" d="M54594 53536c-1070,237 307,3443 1117,3438 1062,-7 -322,-3613 -1117,-3438z"/>
   <path fill="#202328" d="M89323 47753l-20 296c178,26 375,151 443,278 326,611 47,101 285,416 -150,1 -275,130 -248,370 73,-118 228,30 309,123 -642,190 -406,363 -457,633 -39,201 18,-54 -98,137 637,-401 2700,-916 2895,-1632l-298 -156c-792,-305 -525,-124 -680,303l-161 -293 -179 36c-56,10 -166,24 -230,99 -227,266 -31,194 -28,344 2,111 402,64 -269,153l-188 74c-25,-581 -339,-105 -100,-666 76,-178 84,-159 234,-239 149,-78 3,48 169,-86 218,-176 -20,117 158,-185l-934 -653c-395,80 -515,253 -603,648z"/>
   <path fill="#202328" d="M72326 51947c97,32 866,663 879,682 -4,297 -320,502 -171,894 70,186 60,84 193,251 249,311 31,203 348,326 10,-16 16,-40 20,-53l67 -224c154,-517 221,-513 388,-656 167,-145 133,-208 400,-331 199,-93 374,-114 522,-272 -364,-482 -741,-222 -1160,55 -410,272 -335,497 -614,888 47,-841 696,-1124 1264,-1313 -38,-51 -624,-553 -800,-861 -119,-106 -199,-196 -458,-161 -350,47 -259,138 -336,205l-202 110c-47,17 -356,18 -340,460z"/>
   <path fill="#202328" d="M50161 17593l90 451c-104,119 215,136 -345,139 -92,0 -274,-63 -297,-68 -555,-139 -93,-123 -338,133 -74,-317 -141,-262 -410,-371 -78,108 -118,-195 -70,235 171,113 152,106 316,253 35,32 161,152 162,153 142,125 -110,82 146,96 179,129 15,7 124,116 13,12 27,28 40,41l566 -126c24,45 38,52 44,87 6,33 24,42 32,57 8,14 20,37 28,53l91 200 618 -54c-235,40 107,93 -187,40 -299,-53 -122,59 -307,-171 15,-2 33,-34 39,-23 114,203 -9,-22 176,-92 341,-130 118,-25 278,-9 0,-381 -27,-27 140,-184 23,-33 80,-221 75,-325 -27,-467 -49,181 -141,-357 -26,-153 50,-850 80,-1025 -203,204 -329,223 -802,218 -110,-1 -82,-96 -128,75 -26,99 -21,352 -20,458z"/>
   <path fill="#202328" d="M39473 21605l118 -592c-558,0 -208,218 -834,125 -293,-44 -601,-81 -863,-128 131,363 103,815 76,1236 424,197 748,194 1384,295 -139,-296 -226,-410 -215,-770 306,-106 -13,-56 334,-166z"/>
   <path fill="#5D6166" d="M51839 36003l16138 15800 1592 -675c101,65 1316,1209 1379,1293 130,172 439,1984 -585,1606 1067,1017 1247,2135 3088,1637l968 -479c-1348,-1147 11,-3019 1108,-2102l-1228 685 67 197 1378 -317 -205 907 632 -104c-265,-591 -474,-1536 -201,-2390 186,-579 1053,-649 1670,-918 1053,-459 2772,-1041 3664,-1563 1276,-747 2247,-912 3520,-1472 1022,-449 2719,-1280 3666,-1566l160 -65 673 1276c88,-395 208,-568 603,-648l934 653 310 -251c-125,-131 -297,-268 -480,-304l-968 -678c0,-620 323,-1288 699,-1482 821,-425 1116,898 1088,-384l-683 -632 -610 400 483 365 -1036 607c-632,-1059 -1523,288 -2201,-430 -539,-571 321,-791 -1430,-1902 -1478,-938 -2488,-1885 -3851,-2863 -273,-195 -239,-279 -436,-423 -197,-144 -275,-121 -531,-340 -1165,-998 -2004,-1123 -2817,-1926 -445,-440 -1325,-1135 -1874,-1458 -474,-280 -624,-594 -1042,-495 -78,19 -995,504 -1073,610l674 -94 -754 772c243,173 178,-81 699,334l1774 1383c264,-365 -21,-58 416,-213 57,-21 161,-53 323,-99 223,-63 530,-155 731,-76 173,68 841,633 1035,767 32,162 -77,253 -80,264 -5,21 169,-79 -37,160 -134,157 157,14 -111,59 -271,45 -9,-54 -326,-52 246,127 490,548 777,374 81,-49 303,-662 635,-738l2556 1966c126,298 -308,133 8,874 152,357 355,166 801,250 157,29 1156,868 1216,966 215,354 -58,373 217,457l89 95c175,-163 433,-359 553,-559l1381 1192 -82 186 -508 118 391 274 -117 152 402 496 1522 337 5 256 -1234 569 65 138 -3057 1285c-589,130 -462,36 -1051,270 -824,327 -537,54 -990,-145l-673 239 374 431c-162,-3 -999,570 -1197,693l-4923 1931 -39 -149 147 -731 -167 -37 -664 266 -326 -711 774 236 -886 -383 -59 894 -1030 464c176,308 762,810 800,861 -568,189 -1217,472 -1264,1313 279,-391 204,-616 614,-888 419,-277 796,-537 1160,-55 -148,158 -323,179 -522,272 -267,123 -233,186 -400,331 -167,143 -234,139 -388,656l-67 224c-4,13 -10,37 -20,53 -317,-123 -99,-15 -348,-326 -133,-167 -123,-65 -193,-251 -149,-392 167,-597 171,-894 -13,-19 -782,-650 -879,-682 -487,-5 -624,441 -1118,-35 -355,-342 -295,-553 -516,-962 -174,-323 -1084,-1253 -1387,-1578 -216,-232 -527,-473 -774,-701 -538,-497 -2913,-731 -2706,-1565l1064 361c-202,-186 -880,-885 -1082,-943l-409 486c-13,-141 -1200,-1160 -1392,-1336l-45 50c159,-1158 -565,-1154 -1143,-1820 -499,-575 -983,-954 -1639,-1361 -1149,-711 -802,-202 -1786,-1309 -227,-254 -532,-543 -775,-768 -1253,-1158 922,242 -1934,-2387 -423,-390 -298,120 -791,-553 -143,-197 -528,-527 -703,-522 -893,26 -1493,-1882 -3457,-2422l106 1421z"/>
   <path fill="#5D6166" d="M57571 23957l829 1418 83 -82 -30 655 -786 -307c159,843 813,974 1491,1325 1286,667 2340,1346 3516,1985 951,516 -303,-831 1428,428 1088,791 2143,1634 3168,2316 1595,1060 1350,1079 2235,1883 385,350 50,475 644,666l-213 -247 731 50 11 -154c502,627 1579,84 1838,953l-1336 457 66 195c236,-195 -35,-381 836,-544 638,-120 119,66 503,3l105 -23c183,-23 -112,-133 206,6l50 137c-258,94 -1407,417 -1497,604l767 473 107 -136 -335 -691 1235 183 -196 -339 156 -70 784 1785c-97,-1025 146,-1588 -883,-2073l920 -323 -942 -586c1350,-36 -2284,-1504 -1774,-2306 213,-47 2140,1553 2568,1824 546,345 817,784 1392,616 621,-181 1022,-488 1027,-1184l-2145 -1456 698 -340 -1171 108 15 -700 -4349 -3047 876 700 -76 104c-1444,44 -732,-536 -1590,-217 -243,91 -844,84 -851,89 -8,6 -2,224 -318,83 -371,-166 -18,-193 -337,-247l203 -452 -197 -237 356 -137 -506 -379 -945 818 5236 3823 -171 517 -448 -210 538 1176 -298 109c-89,-218 -457,-951 -407,-1132l-141 525 -4472 -3328c-807,-908 -4007,-2464 -5036,-2941 -465,-216 -2790,-1996 -2942,-2287l-226 161z"/>
   <path fill="#5D6166" d="M80470 42117l-68 24 -4565 -3542c-136,203 -931,1290 -905,1434l325 -230 -173 806c-15,-40 -55,-186 -322,0 -688,478 994,99 -2544,1357 -569,202 -1396,211 -2052,274 -953,90 -1023,-126 -1768,-134l3 -80c-1,-4 -8,-19 -9,-23 -297,-663 -295,-503 -674,-724 -418,-244 -476,-590 -1132,-579 343,23 798,-361 241,-675l157 37 444 -1607c-1069,150 -683,604 -1546,-164l-213 1385 -457 22 -329 -956 -1028 192 1393 1467 -367 -161c114,223 664,634 909,628 322,-8 403,510 1190,38 94,337 280,160 121,413 -158,249 -17,64 63,232 293,619 480,99 581,549l2709 3047c274,-119 -331,-124 503,-410 258,-89 444,-153 707,-21 242,121 750,753 1153,500 182,-225 -263,-439 -410,-617 -417,-502 477,-505 -170,-691 -348,-101 -350,278 -897,-194 -164,-141 -234,-266 -338,-339 -324,-228 -208,64 -458,-215l908 -11 4789 -1916 838 689 -397 320 727 687 118 -418 -309 -106 81 -159 1511 777 111 -103 -664 -1014 1192 -245 165 1228c251,-33 664,-576 856,-772z"/>
   <path fill="#5D6166" d="M52498 58516l7724 9802 743 -338 407 -565c-998,-668 -227,-509 -754,-1151 -1219,-1486 -6772,-8370 -7120,-8429l-1000 681z"/>
   <path fill="#5D6166" d="M70246 65643l766 1040 258 -260 473 861 717 -3742 308 22 -369 732c175,37 305,221 433,342l1042 -30 275 33c-10,260 -123,986 21,1169l1153 -59 840 -678c-460,-315 -1533,899 -1857,382 -332,-533 999,-1199 1122,-1322l313 -2658 -976 104 -481 3015 -147 -31 -875 -881 -2181 -2503c-961,574 110,1991 -294,2637l-536 -202 167 -975 -668 -85 -181 -554c-244,161 -708,242 -290,772 458,580 52,763 294,958l591 -198 82 2111z"/>
   <path fill="#5D6166" d="M56133 45210c-520,315 -962,544 -1721,580 -1973,95 117,-523 -1404,-577l354 -358 -661 114c-660,-975 -943,347 -797,-1018 -156,318 -42,1836 230,2078 3,2 702,432 709,435 540,260 520,181 702,-108 332,391 178,394 493,91 190,318 -194,362 612,292 397,-34 512,-65 727,-287 457,-474 542,-432 756,-1242z"/>
   <path fill="#5D6166" d="M81094 63410l1943 -925 252 -1593 -104 -33 342 285 692 -1166 -1116 -441 -224 490c-502,238 218,-206 -273,-89 -302,70 -1053,-125 -938,632l343 37 631 1650 137 -52c-1760,727 -1685,577 -1685,1205z"/>
   <path fill="#5D6166" d="M78424 62447c7,-315 131,-867 195,-1195 101,-521 88,-693 96,-1144 -494,-10 -672,217 -994,296 -6,48 -18,195 -15,235 17,271 1,0 37,171 34,160 -40,362 -80,644 -47,331 -17,60 -54,263 -64,345 67,91 -115,547 -107,266 -60,548 -159,899 316,-22 541,-144 728,-240 469,-242 167,-74 361,-476z"/>
   <path fill="#6E7279" d="M39651 21533c-19,-1685 2109,-2008 3181,-961 737,719 -328,980 -898,1224 -503,216 -1752,-141 -2283,-263zm-4300 -4057c860,501 2942,-330 3238,702 1255,-103 2075,-12 2435,1157l-64 -94 -2011 1612 642 160 -118 592c-627,1537 2946,1444 3815,640l-37 -1163 33 -78 1687 1587 -697 513 -12 164 3626 3186 -62 -14 -1961 982c186,131 2472,-682 2991,-690 1866,-27 1086,1458 1729,2115 425,433 277,-14 390,424 53,204 204,267 414,494l2579 2294c466,444 257,58 562,235 120,195 -298,21 219,511l1532 1311c327,256 324,97 553,432 163,237 232,282 448,477 490,442 482,609 1117,688 20,323 -460,10 215,565 214,176 399,352 600,514 422,341 763,805 1223,1062 1049,586 997,1486 2396,1728 -87,226 -587,64 140,595l1923 1659c503,375 241,-9 539,454 118,185 417,428 580,579 1455,1350 654,650 1292,804l-110 62 381 678 -104 181 179 63c381,116 330,9 369,266l-100 503c-8,12 -19,26 -27,37l-626 177c129,261 472,167 676,64 490,-246 144,-228 101,-543l446 -315c482,676 814,1177 1492,1575 235,138 1259,1256 1537,1414 2138,1214 89,82 1185,1160 545,537 1731,324 2045,980l886 383 -774 -236 326 711 664 -266 167 37 -147 731 39 149 4923 -1931 -2958 -2660 81 -802c156,-207 848,-30 1204,-332 383,-326 854,-343 1429,-250 814,131 1540,1271 2250,1124l-179 270 1710 1162 3057 -1285 -65 -138 1234 -569 -5 -256 -1522 -337 -402 -496 117 -152 -391 -274 508 -118 82 -186 -1381 -1192c-120,200 -378,396 -553,559l-89 -95c-275,-84 -2,-103 -217,-457 -60,-98 -1059,-937 -1216,-966 -446,-84 -649,107 -801,-250 -316,-741 118,-576 -8,-874l-2556 -1966c-332,76 -554,689 -635,738 -287,174 -531,-247 -777,-374 317,-2 55,97 326,52 268,-45 -23,98 111,-59 206,-239 32,-139 37,-160 3,-11 112,-102 80,-264 -194,-134 -862,-699 -1035,-767 -201,-79 -508,13 -731,76 -162,46 -266,78 -323,99 -437,155 -152,-152 -416,213 504,269 1559,1159 2067,1559 648,509 1555,934 1602,1991 -192,196 -605,739 -856,772l-165 -1228 -1192 245 664 1014 -111 103 -1511 -777 -81 159 309 106 -118 418 -727 -687 397 -320 -838 -689 -4789 1916 -908 11c250,279 134,-13 458,215 104,73 174,198 338,339 547,472 549,93 897,194 647,186 -247,189 170,691 147,178 592,392 410,617 -403,253 -911,-379 -1153,-500 -263,-132 -449,-68 -707,21 -834,286 -229,291 -503,410l-2709 -3047c-101,-450 -288,70 -581,-549 -80,-168 -221,17 -63,-232 159,-253 -27,-76 -121,-413 -787,472 -868,-46 -1190,-38 -245,6 -795,-405 -909,-628l367 161 -1393 -1467 1028 -192 329 956 457 -22 213 -1385 -145 -175 -45 -818 549 -261 1 -2 -100 -17 -1058 313c-622,398 -2283,1009 -2850,469 -1227,152 -2814,-1649 -3464,-2230 -985,-880 -2013,-1955 -2919,-2704l43 109 1081 -467 36 -388 5 232 -459 167c-222,66 10,-26 -110,23 -245,100 -12,132 -190,157l-1005 -534 90 -223 -333 177c-188,-282 -366,-328 -558,-550 -164,-189 -239,-375 -441,-611 -322,-378 -625,-793 -950,-1204 -264,-334 -1700,-2380 -1544,-2620 147,-297 2553,-829 3041,-972 1240,-364 1795,-702 3110,-521l786 307 30 -655 -83 82 -829 -1418c-452,-552 -4049,-3307 -4857,-3267l2411 1546c-260,365 179,939 -1046,1638 -743,424 -1266,351 -1797,624l160 651 1381 -369 -136 -587 155 -47 258 498c224,-204 343,-148 515,-288 227,-185 27,-132 376,-367 560,-379 136,-541 465,-1047 1187,1518 -2806,3208 -6138,2618 -970,-173 -612,14 -889,56 -483,-503 -1233,-663 -1750,-1064 -836,-647 -399,-1324 -636,-1892 -509,-233 -453,162 -1080,-461 -264,-261 -725,-508 -862,-684 -520,-662 28,-1575 6,-2613 -595,-267 -1654,-192 -2459,-591 -682,-337 -1249,-898 -1749,-1340 -490,-433 -345,-268 -1068,-161 -658,97 -302,-255 -1196,-45 -526,123 -2126,228 -2284,711z"/>
   <path fill="#6E7279" d="M13716 3697c123,418 1119,1354 1439,1661 466,446 159,703 350,1072 51,98 66,87 102,208 219,742 255,378 340,754l-63 -135 -674 517 0 156 1018 944c1054,1716 1233,677 2293,460l769 -565 -1857 109 -42 -250 2496 -579 764 -531 -394 -2864 219 -36 203 445 211 -34 358 1924 -136 -1489 187 -31 258 1172 -37 -756c510,156 211,375 369,676 200,378 -40,-976 349,1 140,351 195,1331 305,1811l-159 -1636 201 -32 245 1010 -3 -585 189 -26 265 1078 23 -583 221 -12 175 425 247 -38 459 2592 -1229 848c451,1598 -134,804 935,1968 320,349 1078,1260 1436,1487l-21 -1259c477,-250 1007,-486 1531,-730 1150,-534 528,-121 1611,-369 443,-102 3613,-643 3688,-890l-1279 -102c-1199,550 -3014,342 -4034,-25 -191,-251 -87,-457 -64,-611 22,-156 -216,-205 106,-385 270,-151 102,29 124,65 38,62 -370,-15 202,232 204,88 696,46 802,-99l-294 -906 541 -291c-1724,113 -2306,-829 -3214,-1752 -473,-480 -2290,-2018 -2520,-2403 -317,-165 -1623,-1463 -1871,-1709 -428,-425 -672,-267 -1387,-157 -1019,157 -586,65 -1279,615l-659 -976 -1212 175 -68 36 320 858 -1671 270c-297,-430 -529,-859 -1184,-723z"/>
   <path fill="#6E7279" d="M32051 1417l-49 -339c467,97 733,365 1064,608 234,171 862,519 934,717 -441,200 -868,416 -1373,328 20,-216 -3,-315 160,-274 -224,-22 -740,80 -633,-279 57,-187 64,-115 142,-94 -382,11 -386,53 -686,-122l159 -298c-782,14 -629,334 -1241,-156 -359,-287 -582,-572 -1083,-337l652 539 -1186 233 4234 3375c1263,204 1135,413 2028,1034 326,226 1577,1389 1689,1417l-1808 -2711 -492 -2864 -61 -7 -535 -355 -399 -353 -114 -13 -447 -357 -1122 -459 -66 95 233 672z"/>
   <path fill="#6E7279" d="M57797 23796c152,291 2477,2071 2942,2287 1029,477 4229,2033 5036,2941l4472 3328 141 -525c-50,181 318,914 407,1132l298 -109 -538 -1176c-398,-292 -952,-724 -1308,-956 -429,-281 -767,-660 -1241,-984 -881,-602 -1819,-1536 -2553,-1937 -939,-513 -1725,-1378 -2574,-1931 -387,-253 -1084,-302 -1620,-595 -681,-371 -1177,27 -1612,-622 -378,-1453 1534,-1002 1669,-1578 -1355,66 -868,234 -1989,-715l-121 153 885 667 -349 37 -326 57 -1619 526z"/>
   <path fill="#6E7279" d="M84219 59978l-692 1166 -342 -285 104 33 -252 1593c692,75 11,792 1550,42 623,-303 776,-584 1508,-895 512,-218 2662,-1684 2887,-2043l-725 315c-21,-17 -115,-595 -643,-83 -399,386 74,724 -324,314 -520,-535 -760,761 -1052,1231l-856 -531 3282 -1766 -2890 1025 -173 -782c685,-194 1595,-602 1348,-1078 -598,207 -1001,460 -1644,770 -297,143 -508,214 -796,358 -646,322 -844,-317 -966,133l-31 98 -48 178 755 207z"/>
   <path fill="#6E7279" d="M90899 58726l1369 -616c1477,-876 1003,-2339 1528,-2695 616,-418 407,-762 600,-1318 152,-437 403,-957 154,-1481l-672 407c-193,234 -101,2776 -988,2566l345 -1422c-1615,228 -543,2311 -1560,2085l510 -2295 -803 203 -749 2994 1059 -835 -170 899 137 87 -1630 941 870 480z"/>
   <path fill="#6E7279" d="M51904 43951c-146,1365 137,43 797,1018l661 -114 -354 358c1521,54 -569,672 1404,577 759,-36 1201,-265 1721,-580l220 -233 240 -539c-480,-310 -382,-1549 -2127,-1599 -1826,-52 -1698,471 -2562,1112z"/>
   <path fill="#6E7279" d="M86161 54188l-1149 -855c-406,-287 -458,-635 -1240,-499 -443,77 -1001,432 -657,852 -458,171 -390,-225 -281,763 104,926 26,-466 574,289 297,411 92,618 273,1023 3,4 573,741 598,758 1186,227 2362,-1154 1882,-2331z"/>
   <path fill="#6E7279" d="M51111 16842c-30,175 -106,872 -80,1025 92,538 114,-110 141,357 5,104 -52,292 -75,325 -66,1062 955,1401 1982,1315 1277,-108 1906,-176 1633,-1475l-196 -337c65,326 -99,611 -334,741l-1130 24c-77,-128 20,-75 -9,-215 -28,-137 -486,-619 -623,-708l-465 -393c97,-102 23,-38 159,-133 260,-182 324,-94 503,-252 -316,-48 -389,-1841 -1563,-1566l-76 859 133 433z"/>
   <path fill="#6E7279" d="M78912 33978l1065 1034 -140 502c287,139 934,656 1104,705 225,64 1344,-187 1419,-230l90 -433c-402,-1315 -1265,-1725 -2958,-1725l-580 147z"/>
   <path fill="#6E7279" d="M81870 59017c-93,92 -5,32 -171,130l-529 200c-790,271 -79,-128 -590,98 -4,31 270,98 -500,419l-905 313 8 255 0 204c426,-78 529,-251 801,-307l65 -1c-127,233 64,8 -244,110 -334,112 -325,193 -725,289l-159 867c-48,205 -69,283 -87,514 -27,348 -12,55 -86,382 264,-4 548,-124 773,-268 305,-196 170,-402 299,-698 394,-264 860,-95 870,-792 -350,28 -454,158 -771,270 -1,-392 751,-582 1397,-892 1432,-688 1791,-717 1067,-1270l-513 177z"/>
   <path fill="#6E7279" d="M45990 14847l10 255c317,205 -6,1431 305,1945 331,546 35,1296 -407,1488l391 -48 661 -166 557 -696c-167,-468 -467,-152 -292,-592 136,-344 422,-130 756,-395l-1164 -1040c178,-162 233,-124 343,-224 341,-312 -265,-90 216,-231 203,-59 660,226 606,-348 -62,-664 -1519,64 -1982,52z"/>
   <path fill="#6E7279" d="M39345 32374c221,213 5,122 385,351l120 81c7,-12 29,18 39,32 69,333 366,650 735,776 -66,-381 -149,-1291 -84,-1654 -194,-192 -75,-76 -69,-250 7,-216 26,-30 -303,-461 -254,-332 -146,-127 -355,-271 -98,-67 -42,2 -135,-173 -275,-512 -486,-524 -629,-646 -112,-96 -323,-682 -837,-813 130,432 170,1548 172,1943 155,199 313,429 499,568 447,335 99,54 462,517z"/>
   <path fill="#6E7279" d="M40928 33544l-18 77c105,264 155,288 359,465 316,273 193,352 554,243 -91,465 -57,270 419,817 243,280 90,45 290,207l721 942 84 -891c1,-10 1,-30 2,-40l21 -148c40,-532 -211,-631 -290,-711 -215,-220 -20,-98 -176,-312 -123,-169 -197,-133 -442,-116 11,-206 49,-218 -68,-364 -66,-82 -70,-46 -142,-106 -236,-200 -133,-600 -552,-409l-60 37c-114,-229 -129,-180 -269,-341 -189,-218 -94,-236 -389,-356 -9,17 -9,27 -10,56 -10,242 -48,267 4,589l14 88c30,113 -14,61 107,151 -117,162 27,46 -159,122z"/>
   <path fill="#6E7279" d="M34887 25686c-322,-480 -130,-158 -588,-592 -156,-149 -35,-113 -211,-340l-327 -413c-119,125 -167,53 -85,534l122 1408 267 207c93,90 188,148 241,198 104,100 21,-7 102,144 303,567 76,-18 562,614 507,659 137,122 450,473 96,108 20,101 190,235 51,-131 -17,-513 -38,-717 -1,-12 -2,-30 -3,-42 -3,-24 -3,-59 -11,-130 -33,-284 -8,-39 -44,-228l-18 -117c0,-13 0,-31 0,-44l13 -482c-46,-325 -246,-340 -539,-610l-83 -98z"/>
   <path fill="#6E7279" d="M31820 23478l-151 178c-9,12 -38,53 -52,69 119,320 348,605 626,729 39,206 83,236 245,357 40,30 140,88 188,120 320,215 135,493 790,800 -3,-13 -43,-176 -44,-180 -190,-951 47,-1566 -388,-1959 -254,-230 -189,1 -415,-331 -384,-563 -411,-418 -537,-569 -129,-155 -32,-339 -662,-631l95 453c10,164 11,261 27,408l11 85c17,186 -36,362 267,471z"/>
   <path fill="#6E7279" d="M38041 30207c-69,-196 -47,-436 -63,-598 -19,-192 -35,8 -27,-284 6,-187 -17,-175 44,-402 -86,-92 -76,-89 -199,-172 -366,-247 -97,-111 -343,-336 -523,-477 39,-98 -486,-499 -194,-148 -84,-157 -309,-345l-6 664c0,-8 8,24 6,36l-92 -134c-9,-18 -45,-119 -49,-138 -2,-14 -3,-31 -4,-45 -1,-14 1,-32 1,-46 -3,-122 125,-290 -276,-519 259,317 277,38 285,33 -187,-508 16,127 -482,-616 -211,203 -121,108 -129,308l73 1014c66,575 548,666 653,786 96,109 132,424 484,631 496,291 118,167 505,606 165,188 211,240 309,192 261,-128 10,224 105,-136z"/>
   <path fill="#6E7279" d="M49359 15916c-144,245 -349,332 -434,600 -65,206 -129,664 -135,923 415,442 715,571 1461,605l-90 -451c-116,-172 -61,-268 -29,-522l23 -1538c-424,89 -542,251 -796,383z"/>
   <path fill="#6E7279" d="M60956 71414c205,-42 1106,-634 1654,-852 208,-82 356,-173 559,-273l-626 -733c-304,53 -1931,837 -2104,1080l517 778z"/>
   <path fill="#6E7279" d="M76998 63141c-77,-6 -40,43 -128,-18l252 -1470 41 -417c-275,6 -826,211 -925,447l-126 495c-35,275 -35,409 -49,562l-65 255c-4,14 -10,31 -14,45 -4,15 -9,32 -12,48l-153 805c328,-41 440,-125 721,-288l387 -357c113,-155 -14,154 71,-107z"/>
   <path fill="#6E7279" d="M98281 52502c-281,300 -935,430 -1076,616l714 515c394,-113 862,-514 1294,-498 189,-98 96,119 124,-201 -183,-49 -336,-207 -483,-321 -278,-216 -212,-139 -573,-111z"/>
   <path fill="#4C4B50" d="M61372 61314c-181,186 351,844 -659,175 -471,-313 -1414,-1652 -2096,-2346 -515,-524 -924,-1124 -1376,-1644 -365,-420 -442,-245 -383,-1042 57,-773 -70,-652 556,-928l-66 1529 881 -483c504,220 215,854 815,1086 750,289 479,663 440,1149l645 191 -175 -292c262,21 732,672 935,869 606,589 354,655 544,1112 515,125 163,-370 578,159 184,237 280,403 332,791l-423 451 382 700 -911 -757 130 -49 -149 -671zm-6778 -7778c795,-175 2179,3431 1117,3438 -810,5 -2187,-3201 -1117,-3438zm-14237 -12557l909 -223 7294 9000 293 -436 619 1809 180 -22 174 -401c616,408 326,425 469,1164 62,322 661,1000 661,139l127 -46 710 1949 201 -35 290 -545 815 2023 407 -544 409 1492 506 -220 854 1059 -1777 693c348,59 5901,6943 7120,8429 527,642 -244,483 754,1151l-407 565 168 -155 4145 -2002 -717 326c955,-694 126,-719 170,-1487l663 -382 266 773 137 -1749c-694,29 -419,-186 -1048,111 -431,203 -502,434 -852,509 -560,121 -2054,-214 -1600,-822 500,-326 1106,1662 2390,-235l-879 133 -53 -293 5382 -2332 1973 -1084 -91 -201 -3976 1423 -688 -243 4148 -1959 -1162 -1634 -782 321c-75,-423 -37,-498 -215,-696l-864 276 213 340 -1915 207c-67,-445 -25,-882 -76,-993 -168,-372 -106,-272 -376,-347 -631,-176 109,-69 -318,-200l-899 352 484 -356 -1743 -770 -36 -206 1398 -922 641 883 131 -99 -509 -677 836 136c-45,97 -550,372 17,719 207,127 261,74 473,143 602,198 -285,2 193,191l54 100c1477,-818 2639,-1415 4047,-2330l-294 -523 -464 166 -1196 -163 -93 249 898 418 68 -146c59,158 -318,271 -387,279 -379,43 -216,-252 -533,-231 -233,17 -140,295 -539,-67 -461,-419 265,-143 -204,-598l-1655 610c-1822,-2262 -1647,-1220 -2403,-681l514 722c-452,-470 -725,-161 -1571,-102 -445,31 -1599,117 -1159,704l-601 -278 -102 108 2451 2705 -101 134 3552 3895 -2185 -1663 -172 132 87 -385 -2302 398 -38 -231 1458 -225 37 -224 -949 -457 -249 -536 -856 -176c68,-329 1494,185 824,-579 -366,-418 -367,-707 -1326,-736l-22 -419 -873 -275 109 -241 630 264c-27,-223 -519,-446 -605,-503 -147,-99 10,-51 29,-588 -514,-224 -20,380 -522,-338 -351,-503 33,-330 -533,-689 -309,-195 -201,-203 -360,-328 -110,-86 -331,-146 -442,-238 -428,-353 438,-269 -716,-393l225 -406c-152,-56 -903,-1213 -1229,-1548 -357,-368 -536,-414 -751,-621 -354,-339 -633,-376 -741,-480l196 -4 -59 -1170 2949 3340 -146 -840c885,-500 357,50 481,314l1386 1251 -112 111 -1114 -1151 -191 180 1831 1988 287 -459 49 400 531 -691 -271 0 -238 -807 -834 -299 175 -522 583 -101 -554 -367 -325 422 -259 -552 -452 221 -211 -525 1941 -759c265,225 463,500 835,708 704,394 -92,592 748,223l291 868 180 -68 -189 -804 -736 -650 114 -108c-513,-390 -1161,-1232 -1710,-1744 -658,-614 -919,-1307 -1936,-1343 -111,188 256,507 -909,823 -240,66 -1252,523 -1584,298 462,-771 630,164 802,-1671l-220 233c-214,810 -299,768 -756,1242 -215,222 -330,253 -727,287 -806,70 -422,26 -612,-292 -315,303 -161,300 -493,-91 -182,289 -162,368 -702,108 -7,-3 -706,-433 -709,-435 -272,-242 -386,-1760 -230,-2078 864,-641 736,-1164 2562,-1112 1745,50 1647,1289 2127,1599 -23,-968 -1269,-2056 -1815,-2578 -720,27 -1145,714 -1461,-63l993 -387c-336,-508 -1467,-1248 -1884,-1371 -278,-82 -1041,117 -1329,192 -185,47 -278,208 -399,295 -459,334 251,-19 -173,391 -1223,587 -1338,676 -390,1685 243,259 1904,1538 423,1621 19,-107 653,-299 -206,-542 -692,-195 -145,25 -414,-265 -349,-376 -151,24 -476,-239l562 -158 -849 -938c-384,401 31,125 -532,416 -596,308 112,166 -90,473l-1125 -603 1191 -654 -683 -944c-772,-15 -508,-193 -1249,82 -1209,448 -365,-271 -355,-300l-320 -632 -663 141 -112 424 -417 -761 916 169 201 -505c84,-486 -1112,-746 -1504,-749l-10 435c-732,-684 102,-159 -17,-628 -97,-383 -131,79 -601,-114 274,-254 475,144 285,-224 -87,-169 -279,-255 -486,-280 -871,-104 -444,-100 -973,-602 -325,-309 -436,-495 -738,-802 -536,-545 -216,-577 -737,-422 -4,-480 -542,-787 -643,-933 -116,-167 -171,-411 -569,-827 -518,-542 -973,-1064 -1480,-1662 -218,-258 -511,-636 -754,-711 -107,-33 -112,30 -343,-348 -410,-673 -1109,-1377 -1730,-2092 -461,-531 -1239,-1141 -1413,-1423l-2107 -2513c-372,-455 -608,-508 -711,-613l-551 -787c-74,-141 -624,-761 -710,-786l-614 393 411 -759c-391,-248 -361,-251 -510,-497 -143,-235 -277,-190 -283,-193 -399,-217 266,471 -87,-203 -375,-715 -35,511 -436,-327 -230,-480 -254,-252 -349,-480 -200,-485 -584,-707 -941,-1133 -199,-236 -292,-427 -479,-634 -431,-478 -485,-189 -597,-247l112 -85 -1458 -1899 -459 320c-195,1376 1024,2148 1613,2828 691,798 1384,1609 2077,2420 2853,3339 5601,6400 8434,9686 1137,1318 3006,3744 4199,4802 15,485 -196,613 -72,1137 97,411 300,167 618,656 379,581 1066,927 1127,1518l-663 -341 2628 3114 105 -86 -1922 -2359 99 -81c536,157 1083,1295 1450,1689 459,492 1001,966 1449,1514 375,460 177,397 709,835 588,486 -69,326 820,627 156,53 1485,1484 1488,1494l-745 -271 -204 137c-257,-141 -2463,-2815 -2843,-3254l-114 98 2747 3221 -505 133c-293,-484 521,-77 -435,-724 -530,-358 -96,-127 -318,-336 -243,-228 -230,15 -536,-233 113,-340 43,-413 -185,-693 -142,-176 -201,2 -455,-364 -126,-183 -9,-69 -279,-236 -603,-375 -41,-21 -333,-339l-194 -241c-3,-5 -9,-22 -11,-27 -189,-380 -602,9 -509,-874 -122,-17 -246,287 -526,-305 -295,-626 -190,-160 -416,-478 -132,-186 -71,-428 -271,-619 -7,-6 -121,-66 -267,-206l-421 -485c-27,-62 -19,-105 -21,-115 -67,-542 214,303 -15,-79 -5,-8 -280,-322 -501,-408 -704,-271 -371,-616 -535,-1501 -287,-142 -15,442 -537,-251 -162,-216 -304,-378 -478,-577l-6476 -7560 160 506c-550,0 -738,199 -710,-249 27,-437 106,177 -32,-206 -35,-97 -240,-132 26,-365l285 223 26 -786c-1637,-262 -1101,12 -2268,-1169l61 -558 -436 -145 59 -232 -360 57 419 -360 -1408 -1103 -435 13 -8 -158c183,-39 486,-42 621,-175l-1605 -975 -101 165c235,-607 336,-329 -208,-573l-677 -456 220 -610 -460 116 -418 -458 -149 136c728,1551 9451,10621 9478,11963 -416,-260 -746,-1188 -1225,-762 -215,192 -266,-33 -296,242 401,402 445,940 1326,718 506,-127 1449,-513 1726,-410 114,75 2103,2507 2283,2772 524,774 1966,1869 1617,3252l-385 138z"/>
   <path fill="#4C4B50" d="M48785 28017c-364,67 -768,85 -1132,0 -334,-78 -140,3 -230,-164 -1,-2 -66,-699 724,-521 929,209 708,41 638,685zm-2920 -595l-955 364c221,557 2,592 1161,728 565,66 334,680 816,824 -142,403 -528,-317 -307,403 81,266 100,434 107,454 356,207 -84,-301 374,72 166,135 292,281 280,481 -29,495 47,-159 70,346 262,60 223,-502 328,368 87,731 9,525 381,892 713,705 3299,3447 3719,3649l-106 -1421c1964,540 2564,2448 3457,2422 175,-5 560,325 703,522 493,673 368,163 791,553 2856,2629 681,1229 1934,2387 243,225 548,514 775,768 984,1107 637,598 1786,1309 656,407 1140,786 1639,1361 578,666 1302,662 1143,1820l45 -50c192,176 1379,1195 1392,1336l409 -486c202,58 880,757 1082,943l-1064 -361c-207,834 2168,1068 2706,1565 247,228 558,469 774,701 303,325 1213,1255 1387,1578 221,409 161,620 516,962 494,476 631,30 1118,35 -16,-442 293,-443 340,-460l202 -110c77,-67 -14,-158 336,-205 259,-35 339,55 458,161l1030 -464 59 -894c-314,-656 -1500,-443 -2045,-980 -1096,-1078 953,54 -1185,-1160 -278,-158 -1302,-1276 -1537,-1414 -678,-398 -1010,-899 -1492,-1575l-446 315c43,315 389,297 -101,543 -204,103 -547,197 -676,-64 -208,-94 -328,-31 -603,-137 -223,-85 -212,-120 -318,-259l-135 -158c263,-116 126,51 182,-263 -151,-63 -131,-1 -187,-147 118,-74 477,-215 607,-230 394,-45 253,233 659,148l104 -181 -381 -678 110 -62c-638,-154 163,546 -1292,-804 -163,-151 -462,-394 -580,-579 -298,-463 -36,-79 -539,-454l-1923 -1659c-727,-531 -227,-369 -140,-595 -1399,-242 -1347,-1142 -2396,-1728 -460,-257 -801,-721 -1223,-1062 -201,-162 -386,-338 -600,-514 -675,-555 -195,-242 -215,-565 -635,-79 -627,-246 -1117,-688 -216,-195 -285,-240 -448,-477 -229,-335 -226,-176 -553,-432l-1532 -1311c-517,-490 -99,-316 -219,-511 -305,-177 -96,209 -562,-235l-2579 -2294c-210,-227 -361,-290 -414,-494 -113,-438 35,9 -390,-424 -643,-657 137,-2142 -1729,-2115 -519,8 -2805,821 -2991,690z"/>
   <path fill="#4C4B50" d="M48363 8935l360 -206 96 3349c-869,-449 -60,-1636 -437,-2403l-6 2114 -307 6 -71 -1874 0 1602 -893 -493 -2110 357 930 321c-614,283 -950,28 -1036,64 -253,105 69,-65 -114,97 -278,244 351,-164 -98,84 -177,98 -79,93 -241,10 -322,-166 -83,-314 -259,-624 -614,317 324,748 -846,-27 -263,-173 -1100,28 -1524,63l-122 123c867,889 848,965 1806,1661l599 10 79 880 -542 417c171,223 1060,620 371,1074l-349 -689c-549,0 -1087,-661 -1705,-1100 -16,-11 -99,-69 -114,-80 -11,-9 -25,-19 -36,-28l-67 -59c-440,-424 -622,-383 -876,-711 -469,-609 -753,-297 -908,-379l-363 -447 -142 352c-470,947 -1579,-598 -2054,-738 -421,-124 -166,25 -575,86 -643,95 -77,-137 -505,-150 -613,-19 -463,441 -632,-258l-927 92 -88 -146c28,315 209,1853 150,2039l132 395 -4330 1363 -1050 55 -28 -192 352 -160c-175,-56 -827,-1243 -972,-1480l389 33 22 -178 -1229 -124 -694 745c728,731 1782,1912 2511,2515 184,153 301,169 381,261 307,351 -198,-145 143,273 140,170 460,464 642,643 899,890 403,476 1448,926l-1188 -1196 367 90c-192,-512 -197,-271 97,-651 232,-301 133,-313 560,-454 247,-81 1499,-446 1716,-460 -114,26 -433,342 -1077,508 -615,157 -921,24 -1011,648 0,0 2219,-756 2612,-873 451,-135 865,-254 1337,-415 1292,-443 874,-217 1184,-67 -192,246 -4630,723 -4767,1725l5174 -1645 54 179c-471,549 -2009,266 -2812,666 -494,247 -306,301 -1204,536 -502,132 -1012,149 -769,854 212,-20 35,-251 395,-466l1985 -604c830,-241 2149,-892 2723,-567 -316,410 -1964,356 -2622,575 -439,146 -310,293 -1103,501 -664,175 -997,70 -1030,711l5069 -1638 90 159c27,-279 66,-1192 174,-1384 1192,164 578,147 879,-189 179,-201 292,-171 442,-221 434,-147 159,-574 428,-754l829 783 -27 164 -590 -140 107 2412 285 257 63 -1243 214 -9 407 1957 138 -28 -4 -970 1223 87 11 -147c144,324 -141,267 375,407 882,239 105,-360 596,-242 703,169 -485,-142 327,436l383 -763 239 875 -1897 -250 -41 243 1178 194 -56 466 -976 -62 -23 185 936 185 -17 -178 1748 -285 -3 -1994c-41,-107 -1030,-189 -1192,-211l-35 -1489c213,-45 604,-44 732,-227l-776 -393 -118 -1626 2694 -80 -1993 382 24 172 2400 -281 15 123 -2237 288 30 232 2588 -344 18 144 -2626 312 33 267 3059 -407 18 139 -3077 367 36 281 3437 -457 -3455 597 35 257 3876 -456c-1803,454 -2981,125 -4709,1156l366 415 1205 -366 -10 -255 -312 -43c293,-300 1590,-333 2136,-413 650,-96 1836,-591 1821,134l-1518 358 1242 1033c254,-132 372,-294 796,-383l-23 1538c-32,254 -87,350 29,522 -1,-106 -6,-359 20,-458 46,-171 18,-76 128,-75 473,5 599,-14 802,-218l-133 -433 76 -859c1174,-275 1247,1518 1563,1566 1086,-126 1470,465 1924,876l51 -1909 -744 -424c19,-645 338,-1322 -365,-1486l-70 1171c-916,-619 205,-1642 -793,-1725l-65 1113 -1713 -1187 -109 -3567 -147 5 0 3327 -1339 -886 -16 -4289 -868 800z"/>
   <path fill="#4C4B50" d="M33761 24341l327 413c176,227 55,191 211,340 458,434 266,112 588,592l83 98c293,270 493,285 539,610l-13 482c0,13 0,31 0,44l18 117c36,189 11,-56 44,228 8,71 8,106 11,130 1,12 2,30 3,42 21,204 89,586 38,717 -170,-134 -94,-127 -190,-235 -313,-351 57,186 -450,-473 -486,-632 -259,-47 -562,-614 -81,-151 2,-44 -102,-144 -53,-50 -148,-108 -241,-198l-267 -207 -122 -1408c-82,-481 -34,-409 85,-534zm-1941 -863c-303,-109 -250,-285 -267,-471l-11 -85c-16,-147 -17,-244 -27,-408l-95 -453c630,292 533,476 662,631 126,151 153,6 537,569 226,332 161,101 415,331 435,393 198,1008 388,1959 1,4 41,167 44,180 -655,-307 -470,-585 -790,-800 -48,-32 -148,-90 -188,-120 -162,-121 -206,-151 -245,-357 -278,-124 -507,-409 -626,-729 14,-16 43,-57 52,-69l151 -178zm8069 9360c-10,-14 -32,-44 -39,-32l-120 -81c-380,-229 -164,-138 -385,-351 -147,435 -953,-727 -1082,-886 -900,-1112 287,-170 -222,-1281 -95,360 156,8 -105,136 -98,48 -144,-4 -309,-192 -387,-439 -9,-315 -505,-606 -352,-207 -388,-522 -484,-631 -105,-120 -587,-211 -653,-786l-73 -1014c8,-200 -82,-105 129,-308 498,743 295,108 482,616 -8,5 -26,284 -285,-33 401,229 273,397 276,519 0,14 -2,32 -1,46 1,14 2,31 4,45 4,19 40,120 49,138l92 134c2,-12 -6,-44 -6,-36l6 -664c225,188 115,197 309,345 525,401 -37,22 486,499 246,225 -23,89 343,336 123,83 113,80 199,172l1323 -1146 -466 -598 -216 238c69,-300 -158,-373 -381,-608 -297,-314 -216,-340 -373,-562 -601,-851 -947,-116 -1558,-478l899 -476 -711 -1210 186 -150 2972 3003 150 -140 -204 -299c216,-370 123,-474 280,-825 160,-358 363,-224 557,-343l26 -562c97,71 186,950 505,380 298,-535 377,62 153,-535l-910 -786c-497,-317 -1166,-1387 -1676,-1171 -294,125 -568,7 -1029,207 -430,185 -308,525 -679,801 -266,-4 -450,-362 -656,-577 -393,-410 -624,5 -888,-299l275 -255c-93,-256 -2978,-3058 -3545,-3669 -1112,-1199 -1022,-52 -1648,-561l799 -308c-397,-257 -1183,-1291 -1604,-1604 -395,-292 -1928,-1060 -2270,-861l570 403 -1572 -93c-131,-564 -87,-462 -864,-280 -1209,285 -675,104 -1262,631l16389 18151c14,-463 -1307,-1347 -678,-1503z"/>
   <path fill="#4C4B50" d="M57910 33636l-41 82 41 -82zm4057 -3593c495,-670 1812,-576 1783,236 0,13 -3,32 -4,44 -48,354 -161,95 -212,111 -96,29 -20,31 -67,125 -917,-208 -234,236 -937,68 -835,-198 16,-504 -563,-584zm-6625 1899c304,-114 329,-333 908,-265 276,32 626,282 761,443l-36 388c316,673 814,262 855,417 21,81 -629,147 299,645l-345 60 17 228 1621 -254c-67,-429 -139,-319 -195,-639 -92,-533 189,-148 -215,-463 -387,-302 -617,-390 -618,-865 -714,163 -832,-619 -1192,-853 -644,-419 -740,-455 -1285,-929 -726,-631 -1575,-1898 -2680,-1376l-605 -496 34 -197 588 -103 1443 403 1481 -242 11 -152c-178,-136 -546,-314 -581,-540l1528 -559 69 186c266,254 -158,293 269,373 135,25 387,-52 538,312 378,907 270,-116 941,714 260,320 -48,377 325,475 122,32 368,-53 557,273 401,690 478,40 836,663 846,1469 1264,801 2103,1673 248,258 -43,527 274,417 102,-34 -174,-383 230,41 313,329 1064,540 1437,96l198 -494 867 763 -611 -894 1544 546 2957 2304 -118 1084c162,108 249,-181 1014,428 332,264 672,422 834,800 508,1181 33,1580 47,2866 1480,-323 477,-711 1223,-953 559,-182 283,70 283,70 160,373 -539,322 858,92l156 -1542 -784 -1785 -156 70 196 339 -1235 -183 335 691 -107 136 -767 -473c90,-187 1239,-510 1497,-604l-50 -137c-318,-139 -23,-29 -206,-6l-105 23c-384,63 135,-123 -503,-3 -871,163 -600,349 -836,544l-66 -195 1336 -457c-259,-869 -1336,-326 -1838,-953l-11 154 -731 -50 213 247c-594,-191 -259,-316 -644,-666 -885,-804 -640,-823 -2235,-1883 -1025,-682 -2080,-1525 -3168,-2316 -1731,-1259 -477,88 -1428,-428 -1176,-639 -2230,-1318 -3516,-1985 -678,-351 -1332,-482 -1491,-1325 -1315,-181 -1870,157 -3110,521 -488,143 -2894,675 -3041,972 -156,240 1280,2286 1544,2620 325,411 628,826 950,1204 202,236 277,422 441,611 192,222 370,268 558,550l333 -177z"/>
   <path fill="#4C4B50" d="M48492 18227c655,384 1124,650 853,1355 -128,331 -145,211 -338,357l342 324c-175,-50 -332,-281 -522,-388 -292,-164 -342,-7 -626,65 -416,105 -76,25 -304,-38l-1107 -149c201,-1 352,54 573,87 786,117 486,-42 627,187 -97,173 3,75 -179,145 -275,104 -963,-64 -1352,-392 -715,-604 -389,-626 -170,-1293l-391 48 -818 19 -137 1059 1595 1220 -273 225 -1236 -933 -525 316 579 -49 20 136 -707 106 -289 -1732c22,1038 -526,1951 -6,2613 137,176 598,423 862,684 627,623 571,228 1080,461 237,568 -200,1245 636,1892 517,401 1267,561 1750,1064 277,-42 -81,-229 889,-56 3332,590 7325,-1100 6138,-2618 -329,506 95,668 -465,1047 -349,235 -149,182 -376,367 -172,140 -291,84 -515,288l-258 -498 -155 47 136 587 -1381 369 -160 -651c531,-273 1054,-200 1797,-624 1225,-699 786,-1273 1046,-1638l-2411 -1546 -587 -47 -70 83 179 138 -2821 -2250c-256,-14 -4,29 -146,-96 -1,-1 -127,-121 -162,-153 -164,-147 -145,-140 -316,-253l-299 115z"/>
   <path fill="#4C4B50" d="M23654 26744c180,228 399,-7 817,662 189,304 182,822 242,1237 79,549 128,2185 666,2230l-246 -2650c170,732 134,3572 934,3439l-695 -4187 4808 6239c229,285 660,729 745,1104 142,623 -46,1239 432,1539 -6,-984 -215,-2662 -356,-3547 -168,-1055 87,-2905 -608,-2841l162 1939 -3109 -3936 -134 102 420 618 -569 -99c87,-1291 24,-925 -830,-2002 -285,-360 -1096,-1441 -1446,-1724 -842,1617 685,2142 -246,2171 -549,17 -250,-23 -283,-395l-532 -3169c34,-355 -15,-626 -89,-1023 -188,-994 121,-555 468,-760 -198,-413 -3392,-4170 -3928,-4762 -655,-723 -1292,-1635 -1946,-2365 -660,-736 -1104,-2010 -2336,-2031 799,1338 2650,3270 3674,4581 587,752 1203,1516 1851,2278 890,1046 1166,999 1298,2758l-1028 -1327 165 531 -514 -102c-209,-341 378,-423 61,-843 -118,-157 -444,-451 -625,-686 -375,-488 -93,-332 -525,-712 -216,-191 -422,-606 -642,-741 -278,154 -217,868 -169,982 144,344 200,157 334,539 71,200 80,455 129,593 89,252 2480,3256 2852,3713 681,838 296,1957 997,2278l-127 19 -724 -4942 229 -34 773 5383 -350 -57z"/>
   <path fill="#4C4B50" d="M83188 38552c35,-211 -87,-115 107,-181 69,-148 -117,-107 356,-135 355,-22 136,92 561,61 412,-30 632,142 791,402 -302,119 -96,8 -221,185 412,-111 866,-110 377,295 -744,618 -70,100 47,641l-2126 420c171,241 1151,941 1366,1089 497,342 168,377 607,511 363,110 392,165 671,427 414,391 901,676 1331,1015 552,436 207,1061 1017,1426l2812 -1142 -1985 -2058 -168 120 17 486 -2277 -1436 158 -1055c-139,-174 -2151,-1727 -2534,-1812 -512,-113 -746,435 -968,210l404 -850 -173 -84 -258 490 -1138 -657 398 -931c-75,43 -1194,294 -1419,230 -170,-49 -817,-566 -1104,-705l140 -502 -1065 -1034c-738,-128 -1509,-1473 -2502,-887 -324,478 247,875 506,1046 503,330 638,-28 1112,-108l-797 272 611 408 -2134 417 24 122c257,501 204,-259 953,275 312,224 448,372 776,585 1509,983 3720,2987 4715,3467l543 -1283 469 260z"/>
   <path fill="#4C4B50" d="M27124 4353l385 229 -90 91 -295 -320zm-512 -902l0 0zm308 -2024l711 167 335 749c1286,-354 -11,750 1498,698l260 1270 186 -38c-7,-357 -239,-277 -161,-494 81,-226 417,-179 534,-74 463,416 -168,646 948,662 25,272 67,823 115,1040 136,607 440,13 345,381l277 -675 550 703 -1482 469 -81 814c-322,-98 -794,-618 -1096,-852 -464,-360 -750,-413 -664,-1199l604 -203c-175,-51 -450,-199 -616,-111l-63 917 -808 -729 501 -823 -660 52 83 346 -391 1 -411 -766 77 -74 503 -192 3 -72 -604 74 52 723 -360 -310 -472 -817 82 -17 452 -459c-644,102 -555,143 -555,863l-465 -287 -97 105 719 767 -559 -319 -87 91 674 998c141,-425 203,-318 577,33l1602 1358c416,352 1993,1430 2039,2047l132 259 -383 159 -2303 801 -541 291 294 906c-106,145 -598,187 -802,99 -572,-247 -164,-170 -202,-232 -22,-36 146,-216 -124,-65 -322,180 -84,229 -106,385 -23,154 -127,360 64,611 1020,367 2835,575 4034,25 -786,-87 1196,-86 773,-761l30 157 -3012 592 -26 -133c-530,-154 250,12 -376,-245 -263,-107 -381,-166 -199,-371 255,-289 3497,149 3576,-1170l-1453 175 -31 -196 2415 -664 91 675 168 -2 -45 -1818 226 -30 352 1384 -148 -2301c804,-51 -373,1674 1111,1622l-377 -302 110 -148 714 498 29 -1111c487,418 -409,120 1127,1199 624,439 427,683 1615,279l-886 -1043c-112,-28 -1363,-1191 -1689,-1417 -893,-621 -765,-830 -2028,-1034l-4234 -3375 1186 -233 -652 -539 -1785 -124c-34,-406 -1950,-1313 -2281,-862l1301 346 -447 308 1078 387 -391 201z"/>
   <path fill="#4C4B50" d="M63748 23478l-189 282c-7,11 -15,29 -22,39 -211,293 -1177,-5 -1305,-72 18,-148 34,-102 46,-139l26 -85c70,-253 -65,-74 70,-205 217,-211 536,-17 779,-11 217,5 273,-120 595,191zm-2432 -407c-135,576 -2047,125 -1669,1578 435,649 931,251 1612,622 536,293 1233,342 1620,595 849,553 1635,1418 2574,1931 734,401 1672,1335 2553,1937 474,324 812,703 1241,984 356,232 910,664 1308,956l448 210 171 -517 -5236 -3823 945 -818 506 379 -356 137 197 237 -203 452c319,54 -34,81 337,247 316,141 310,-77 318,-83 7,-5 608,2 851,-89 858,-319 146,261 1590,217l76 -104 -876 -700c-232,-327 -3958,-2773 -5001,-3634 -591,-489 7,-193 -190,-658 -356,-438 -603,-248 -980,-633 -140,-142 -265,-230 -442,-369 -346,-272 -351,-348 -597,-66l48 179 -132 183 153 180 -1 396 -378 -258c-255,418 167,246 -493,0l6 332z"/>
   <path fill="#4C4B50" d="M111 13372c348,17 375,1055 845,1106 35,4 798,-624 1052,65 -103,270 -400,163 -608,208 -364,79 -134,213 -144,555l11239 -3719 -1645 -639 -90 -541c760,-413 771,183 1044,-1055l1891 2446c485,-372 228,-1488 -723,-1303 23,-780 339,-199 -274,-963 -93,-115 -624,-899 -631,-905l-493 1171c-400,192 -3123,946 -3890,1164 -767,218 -660,386 -1225,7l3 367 -553 -311c59,774 -37,433 -1030,768 -872,294 -4678,1236 -4768,1579z"/>
   <path fill="#4C4B50" d="M11492 12441l91 548c-147,111 -547,65 -739,70l-117 -488 -324 253c-708,-179 -3404,881 -4462,1225 -1117,365 -612,-28 -961,661l-1493 326c42,26 474,158 565,177 527,112 70,97 472,219 446,136 29,-108 540,44 527,157 224,-87 470,-180l-208 438c845,-10 1113,-191 1616,-320 212,-55 340,100 340,100 150,141 -49,195 59,657l1249 -292 91 203c211,-119 2008,-132 2156,-128 2652,65 1410,-161 1906,-367 132,241 170,243 138,381l1443 -251 -14 -190 -1099 -216 365 -307 897 188 17 -163 -1402 -781 362 -255 -2352 -152 -540 -646 927 222 372 -257 341 48 762 -58 -479 -501 -539 -214 -450 6z"/>
   <path fill="#4C4B50" d="M48553 6230c-114,-166 -1520,-1025 -1821,-1205 -949,-571 -1337,-289 -2556,-220l-4247 320c-364,29 -298,85 -636,-11 -528,-150 -52,-143 -416,124l-342 -524 -227 464 -208 -861 -305 82 -807 -815 -391 175 70 1326 -191 11 -188 -1707 -184 0 90 1788 -199 11 -125 -2107c-424,137 -301,198 -211,1205 39,438 234,933 -87,1040 1519,217 1740,1998 3524,1206l-94 -1275 277 -28 201 1489 9073 -488z"/>
   <path fill="#4C4B50" d="M23798 17581l131 1064 -1365 201 -43 -260 1060 -195 -605 -4649c-365,123 -249,310 -144,797 149,689 111,1342 336,2275l-1216 -546c266,-551 407,-285 -86,-798l-1910 -2036c-246,-243 -396,-468 -657,-698 -559,-493 -420,-329 -711,-349 -136,-9 -49,-200 -768,-208 -314,-4 -735,5 -920,188l8541 10295 -188 -670 -1680 -1818 828 -692 -429 -1921 -174 20z"/>
   <path fill="#4C4B50" d="M46375 7006c-896,-8 -243,-71 -203,-372l-8111 410 1587 1389 1329 -433 -855 -428 22 -137 2711 -174 -2031 456 479 550 1320 -538 1079 362 -7 369 -2390 633 -886 705c496,8 1203,183 1576,403 490,289 362,16 659,211 357,235 121,392 290,506l717 -583 -50 -789c353,-46 922,-380 1260,-545 907,-442 573,-838 785,-939 367,172 -279,156 148,387 142,77 347,-80 393,-265 142,-567 -296,-266 -392,-454l1830 -345 -37 -197 -577 104c267,-401 -1078,-1488 -646,-286z"/>
   <path fill="#4C4B50" d="M40928 33544c186,-76 42,40 159,-122 -121,-90 -77,-38 -107,-151l-14 -88c-52,-322 -14,-347 -4,-589 1,-29 1,-39 10,-56 295,120 200,138 389,356 140,161 155,112 269,341l60 -37c419,-191 316,209 552,409 72,60 76,24 142,106 117,146 79,158 68,364 245,-17 319,-53 442,116 156,214 -39,92 176,312 79,80 330,179 290,711l-21 148c-1,10 -1,30 -2,40l-84 891 -721 -942c-200,-162 -47,73 -290,-207 -476,-547 -510,-352 -419,-817 -361,109 -238,30 -554,-243 -204,-177 -254,-201 -359,-465l222 946 -575 -358c83,418 1764,2194 2074,2524 321,342 705,1012 1327,707 669,-328 1235,-115 1704,-415l-2132 -31c-8,-41 115,-2219 243,-2396 434,-598 1374,-569 2060,-1085 -151,-280 -2576,-2673 -2686,-2709 -341,-112 -1686,189 -2000,491 -359,346 -550,1605 -219,2249z"/>
   <path fill="#4C4B50" d="M18521 9334c230,483 2215,-53 2379,-198l73 -1640 343 1757 10 -973 181 -13 236 1575 -36 -1253 206 -18 269 2036 5 -1465 189 -9 191 1850 6 -1450 190 -15 414 1860 1229 -848 -459 -2592 -247 38 -175 -425 -221 12 -23 583 -265 -1078 -189 26 3 585 -245 -1010 -201 32 159 1636c-110,-480 -165,-1460 -305,-1811 -389,-977 -149,377 -349,-1 -158,-301 141,-520 -369,-676l37 756 -258 -1172 -187 31 136 1489 -358 -1924 -211 34 -203 -445 -219 36 394 2864 -764 531 -2496 579 42 250 1857 -109 -769 565z"/>
   <path fill="#4C4B50" d="M91509 44659c28,1282 -267,-41 -1088,384 -376,194 -699,862 -699,1482l968 678c-16,-290 -91,-458 65,-685 91,-133 83,-92 161,-208 288,-429 681,-837 1231,-486l-228 115c-508,203 -910,744 -854,1227 724,45 574,-465 1254,-482 -97,455 -554,871 -1149,823l-310 251c-178,302 60,9 -158,185 -166,134 -20,8 -169,86 -150,80 -158,61 -234,239 -239,561 75,85 100,666l188 -74c671,-89 271,-42 269,-153 -3,-150 -199,-78 28,-344 64,-75 174,-89 230,-99l1379 -181c54,253 -70,613 -121,873l62 12c419,-302 -140,-300 642,-616 848,-342 1675,-839 2561,-1101 -156,-916 -2060,-2003 -2950,-2710 -721,-574 -662,-7 -1178,118z"/>
   <path fill="#4C4B50" d="M89112 55321l-566 -393 -922 -76 -357 -645 -115 64c-312,-160 -658,321 -205,757 478,460 522,698 371,953 -1400,-69 -160,-87 -681,335 -368,297 -285,-186 -284,320 1,323 51,-115 -254,380l-10 -133 -973 73 -16 552c-748,-676 -292,-12 -732,-244 -372,-196 63,-280 -249,184 -723,-222 -539,-272 -846,163l-1069 -425c125,430 908,951 1266,1254 661,559 550,716 1488,260 903,-439 2465,-1025 3223,-1515 20,561 744,130 1006,-102 895,-791 335,12 930,-452l-29 -203 -1030 147 590 -426 -536 -828z"/>
   <path fill="#4C4B50" d="M66241 37037l-549 261 45 818 52 -328 760 745c362,141 1378,-381 2032,-433 583,-47 792,-68 1138,129 690,392 87,99 905,93l296 -1262 183 42 -117 2071c447,-1013 414,-2614 -376,-3245 -1179,-941 -1446,-794 -2771,40l1252 -446 -27 658 -2038 601 -36 -135 48 -1411 -119 -4c-554,560 299,1862 -678,1806z"/>
   <path fill="#4C4B50" d="M56439 28291c-238,142 -204,-83 -467,-160 -438,-128 60,88 -147,388l-502 -336 356 1281c145,3 147,-774 1422,-852l291 541 -612 -286 106 435c-151,35 -489,-235 -633,-323l312 1401c545,-211 -218,-464 963,-831 852,-266 512,-6 1060,331 -683,85 -139,70 -618,-122 -525,-211 29,117 -173,389l-541 -355c129,108 289,1204 337,1442 550,-241 -258,-494 892,-845 523,-160 1188,-27 934,431 -137,-76 -501,-337 -638,-304l134 477 -692 -360 426 1468c316,-326 240,-1054 1501,-982l260 569 -625 -292 78 468 -665 -288 1115 1046c983,-1340 1482,-550 1918,-887 -762,-797 -2186,-1777 -3106,-2560 -517,-440 -1048,-825 -1573,-1261 -1705,-1413 -1050,274 -1113,377z"/>
   <path fill="#4C4B50" d="M60366 34775c153,107 246,85 247,291 0,158 -117,231 -247,279 -349,126 -699,2 -944,-94 209,338 547,356 935,257 673,-171 240,-479 437,-565l500 506 -46 44 -644 136c1235,-165 1599,764 24,624 161,206 437,287 824,166 107,-34 240,-161 270,-225 149,-312 -196,-46 143,-391 370,660 1167,668 1139,1681l-770 316c567,540 2228,-71 2850,-469 -951,-130 -707,-211 -1408,-570 -547,-281 91,573 -584,111 -579,-396 33,-523 -104,-786l-810 -499 -740 25 219 -734 -1257 -687c516,-274 1019,-392 1486,-11 245,199 336,262 766,179 810,-157 249,-6 261,138l789 352 -704 331 616 125 -244 363 93 130 1006 -337 712 616 -523 294 363 735 1121 -88 100 17c55,-224 191,-939 294,-1089l-890 -72c-73,-192 -573,-378 -768,-482l438 -477c459,298 578,776 983,176l-954 -747 -327 545 -1653 -588 479 -405c-46,-178 -361,-352 -511,-469l38 195 -2467 315 -36 -204 -292 425 -811 -132 601 749z"/>
   <path fill="#4C4B50" d="M43403 27709c286,295 896,21 235,-611 -309,-297 -502,-428 -822,-688 -774,-628 -3,-1100 -1832,-621 -518,136 -765,223 -723,753 31,401 34,1062 229,1300 238,289 610,384 816,728 166,277 432,690 898,762l-625 -795c773,1164 798,-169 1355,-439 563,-273 87,3 469,-389z"/>
   <path fill="#4C4B50" d="M38212 29346c514,131 725,717 837,813 143,122 354,134 629,646 93,175 37,106 135,173 209,144 101,-61 355,271 329,431 310,245 303,461 -6,174 -125,58 69,250 -91,-1300 1482,-1154 2248,-1580 -1101,-1171 -1010,-505 -1944,-1170 -642,-458 3,18 -336,-410 -377,-477 -461,-634 -1282,-461 -803,168 -802,263 -1014,1007z"/>
   <path fill="#4C4B50" d="M65738 65382c184,380 1712,2574 2080,992l-1052 154 202 -2251 305 390 815 -524 -209 -1263 373 -557 -1425 -393c-1638,-448 -747,993 -709,1598 23,368 140,60 199,571 70,618 -136,414 -257,365 -257,-103 -148,-149 -162,419 -17,725 -257,210 -160,499z"/>
   <path fill="#4C4B50" d="M79183 60432l-8 -255 905 -313c770,-321 496,-388 500,-419 511,-226 -200,173 590,-98l529 -200c166,-98 78,-38 171,-130l-1217 -1175 440 -287c-950,-776 -1204,-448 -2622,286l1556 1550c-568,61 -1328,447 -844,1041z"/>
   <path fill="#4C4B50" d="M37654 18990l935 -812c-296,-1032 -2378,-201 -3238,-702 -11,748 -45,166 -665,407 -16,119 775,963 1077,1038 499,125 1744,-58 1891,69z"/>
   <path fill="#4C4B50" d="M32051 1417l115 179 -397 68 -159 298c300,175 304,133 686,122 -78,-21 -85,-93 -142,94 -107,359 409,257 633,279 -163,-41 -140,58 -160,274 505,88 932,-128 1373,-328 -72,-198 -700,-546 -934,-717 -331,-243 -597,-511 -1064,-608l49 339z"/>
   <path fill="#31343A" d="M32467 36850c-34,-104 44,-234 68,-29 9,71 3,245 -68,29zm363 -36850l198 0 402 1111 -53 -740 159 -54 452 1165 -112 -741 159 -69 404 869 0 -432 152 -62 403 987 0 -555 157 -59 446 1169 -38 -738 89 -23 949 1931 70 1326 -191 11 -188 -1707 -184 0 90 1788 -199 11 -125 -2107c-424,137 -301,198 -211,1205 39,438 234,933 -87,1040 1519,217 1740,1998 3524,1206l-94 -1275 277 -28 201 1489 9073 -488 1169 674 124 43 -615 1188 -868 800 19 740 -6 2114 -307 6 -71 -1874 0 -801c-867,20 -3425,1063 -3951,1476 -1060,833 731,309 1195,205 702,-157 1590,-441 1863,229l-2110 357 930 321c-614,283 -950,28 -1036,64 -253,105 69,-65 -114,97 -278,244 351,-164 -98,84 -177,98 -79,93 -241,10 -322,-166 -83,-314 -259,-624 -614,317 324,748 -846,-27 -263,-173 -1100,28 -1524,63l-122 123c867,889 848,965 1806,1661l599 10 79 880 -542 417c171,223 1060,620 371,1074l-349 -689c-549,0 -1087,-661 -1705,-1100 -16,-11 -99,-69 -114,-80 -11,-9 -25,-19 -36,-28l-67 -59c-440,-424 -622,-383 -876,-711 -469,-609 -753,-297 -908,-379l-363 -447 -142 352c-470,947 -1579,-598 -2054,-738 -421,-124 -166,25 -575,86 -643,95 -77,-137 -505,-150 -613,-19 -463,441 -632,-258l-927 92 -88 -146c28,315 209,1853 150,2039l132 395 -4330 1363 -1050 55 -28 -192 352 -160c-175,-56 -827,-1243 -972,-1480l389 33 22 -178 -1229 -124 -694 745c728,731 1782,1912 2511,2515 184,153 301,169 381,261 307,351 -198,-145 143,273 140,170 460,464 642,643 899,890 403,476 1448,926l-1188 -1196 367 90c-192,-512 -197,-271 97,-651 232,-301 133,-313 560,-454 247,-81 1499,-446 1716,-460 -114,26 -433,342 -1077,508 -615,157 -921,24 -1011,648 0,0 2219,-756 2612,-873 451,-135 865,-254 1337,-415 1292,-443 874,-217 1184,-67 -192,246 -4630,723 -4767,1725l5174 -1645 54 179c-471,549 -2009,266 -2812,666 -494,247 -306,301 -1204,536 -502,132 -1012,149 -769,854 212,-20 35,-251 395,-466l1985 -604c830,-241 2149,-892 2723,-567 -316,410 -1964,356 -2622,575 -439,146 -310,293 -1103,501 -664,175 -997,70 -1030,711l5069 -1638 90 159c27,-279 66,-1192 174,-1384 1192,164 578,147 879,-189 179,-201 292,-171 442,-221 434,-147 159,-574 428,-754l829 783 -27 164 -590 -140 107 2412 285 257 63 -1243 214 -9 407 1957 138 -28 -4 -970 1223 87 11 -147c144,324 -141,267 375,407 882,239 105,-360 596,-242 703,169 -485,-142 327,436l383 -763 239 875 -1897 -250 -41 243 1178 194 -56 466 -976 -62 -23 185 936 185 -17 -178 1748 -285 -3 -1994c-41,-107 -1030,-189 -1192,-211l-35 -1489c213,-45 604,-44 732,-227l-776 -393 -118 -1626 2694 -80 -1993 382 24 172 2400 -281 15 123 -2237 288 30 232 2588 -344 18 144 -2626 312 33 267 3059 -407 18 139 -3077 367 36 281 3437 -457 -3455 597 35 257 3876 -456c-1803,454 -2981,125 -4709,1156l366 415 1205 -366c317,205 -6,1431 305,1945 331,546 35,1296 -407,1488l-818 19 -137 1059 1595 1220 -273 225 -1236 -933 -525 316 579 -49 20 136 -707 106 -289 -1732c-595,-267 -1654,-192 -2459,-591 -682,-337 -1249,-898 -1749,-1340 -490,-433 -345,-268 -1068,-161 -658,97 -302,-255 -1196,-45 -526,123 -2126,228 -2284,711 -11,748 -45,166 -665,407 -16,119 775,963 1077,1038 499,125 1744,-58 1891,69l-285 1216 -20 129 1600 518 642 160c-558,0 -208,218 -834,125 -293,-44 -601,-81 -863,-128 131,363 103,815 76,1236 424,197 748,194 1384,295 -139,-296 -226,-410 -215,-770 306,-106 -13,-56 334,-166 -627,1537 2946,1444 3815,640l-37 -1163 33 -78 1687 1587 -697 513 22 -130 -554 -1487c-498,186 356,1182 -1529,1374 -1304,133 -883,239 -2364,22l378 943c-497,-317 -1166,-1387 -1676,-1171 -294,125 -568,7 -1029,207 -430,185 -308,525 -679,801 -266,-4 -450,-362 -656,-577 -393,-410 -624,5 -888,-299l275 -255c-93,-256 -2978,-3058 -3545,-3669 -1112,-1199 -1022,-52 -1648,-561l799 -308c-397,-257 -1183,-1291 -1604,-1604 -395,-292 -1928,-1060 -2270,-861l570 403 -1572 -93c-131,-564 -87,-462 -864,-280 -1209,285 -675,104 -1262,631l16389 18151c14,-463 -1307,-1347 -678,-1503 69,333 366,650 735,776 -66,-381 -149,-1291 -84,-1654 -91,-1300 1482,-1154 2248,-1580 -1101,-1171 -1010,-505 -1944,-1170 -642,-458 3,18 -336,-410 -377,-477 -461,-634 -1282,-461 -803,168 -802,263 -1014,1007 130,432 170,1548 172,1943 155,199 313,429 499,568 447,335 99,54 462,517 -147,435 -953,-727 -1082,-886 -900,-1112 287,-170 -222,-1281 -69,-196 -47,-436 -63,-598 -19,-192 -35,8 -27,-284 6,-187 -17,-175 44,-402l1323 -1146 -466 -598 -216 238c69,-300 -158,-373 -381,-608 -297,-314 -216,-340 -373,-562 -601,-851 -947,-116 -1558,-478l899 -476 -711 -1210 186 -150 2972 3003 150 -140 -204 -299c216,-370 123,-474 280,-825 160,-358 363,-224 557,-343l26 -562c97,71 186,950 505,380 298,-535 377,62 153,-535l3120 -202 10 116 -5 -1258 3626 3186 -62 -14 -1961 982 -955 364c221,557 2,592 1161,728 565,66 334,680 816,824 -142,403 -528,-317 -307,403 81,266 100,434 107,454 356,207 -84,-301 374,72 166,135 292,281 280,481 -29,495 47,-159 70,346 262,60 223,-502 328,368 87,731 9,525 381,892 713,705 3299,3447 3719,3649l16138 15800 1592 -675c101,65 1316,1209 1379,1293 130,172 439,1984 -585,1606 1067,1017 1247,2135 3088,1637l1214 -266c-299,368 -1603,699 -2063,1001 -334,218 -529,545 -764,778 -285,284 -537,359 -662,934l3928 -1699 85 193 -8146 3908 -688 -243 4148 -1959 -1162 -1634 -782 321c-75,-423 -37,-498 -215,-696l-864 276 213 340 -1915 207c-67,-445 -25,-882 -76,-993 -168,-372 -106,-272 -376,-347 -631,-176 109,-69 -318,-200l-899 352 484 -356 -1743 -770 -36 -206 1398 -922 641 883 131 -99 -509 -677 836 136c-45,97 -550,372 17,719 207,127 261,74 473,143 602,198 -285,2 193,191l54 100c1477,-818 2639,-1415 4047,-2330l-294 -523 -464 166 -1196 -163 -93 249 898 418 68 -146c59,158 -318,271 -387,279 -379,43 -216,-252 -533,-231 -233,17 -140,295 -539,-67 -461,-419 265,-143 -204,-598l-1655 610c-1822,-2262 -1647,-1220 -2403,-681l514 722c-452,-470 -725,-161 -1571,-102 -445,31 -1599,117 -1159,704l-601 -278 -102 108 2451 2705 -101 134 3552 3895 -2185 -1663 -172 132 87 -385 -2302 398 -38 -231 1458 -225 37 -224 -949 -457 -249 -536 -856 -176c68,-329 1494,185 824,-579 -366,-418 -367,-707 -1326,-736l-22 -419 -873 -275 109 -241 630 264c-27,-223 -519,-446 -605,-503 -147,-99 10,-51 29,-588 -514,-224 -20,380 -522,-338 -351,-503 33,-330 -533,-689 -309,-195 -201,-203 -360,-328 -110,-86 -331,-146 -442,-238 -428,-353 438,-269 -716,-393l225 -406c-152,-56 -903,-1213 -1229,-1548 -357,-368 -536,-414 -751,-621 -354,-339 -633,-376 -741,-480l196 -4 -59 -1170 2949 3340 -146 -840c885,-500 357,50 481,314l1386 1251 -112 111 -1114 -1151 -191 180 1831 1988 287 -459 49 400 531 -691 -271 0 -238 -807 -834 -299 175 -522 583 -101 -554 -367 -325 422 -259 -552 -452 221 -211 -525 1941 -759c265,225 463,500 835,708 704,394 -92,592 748,223l291 868 180 -68 -189 -804 -736 -650 114 -108c-513,-390 -1161,-1232 -1710,-1744 -658,-614 -919,-1307 -1936,-1343 -111,188 256,507 -909,823 -240,66 -1252,523 -1584,298 462,-771 630,164 802,-1671l240 -539c-23,-968 -1269,-2056 -1815,-2578 -720,27 -1145,714 -1461,-63l993 -387c-336,-508 -1467,-1248 -1884,-1371 -278,-82 -1041,117 -1329,192 -185,47 -278,208 -399,295 -459,334 251,-19 -173,391 -1223,587 -1338,676 -390,1685 243,259 1904,1538 423,1621 19,-107 653,-299 -206,-542 -692,-195 -145,25 -414,-265 -349,-376 -151,24 -476,-239l562 -158 -849 -938c-384,401 31,125 -532,416 -596,308 112,166 -90,473l-1125 -603 1191 -654 -683 -944c-772,-15 -508,-193 -1249,82 -1209,448 -365,-271 -355,-300l-320 -632 -663 141 -112 424 -417 -761 916 169 201 -505c84,-486 -1112,-746 -1504,-749l-10 435c-732,-684 102,-159 -17,-628 -97,-383 -131,79 -601,-114 274,-254 475,144 285,-224 -87,-169 -279,-255 -486,-280 -871,-104 -444,-100 -973,-602 -325,-309 -436,-495 -738,-802 -536,-545 -216,-577 -737,-422 -4,-480 -542,-787 -643,-933 -116,-167 -171,-411 -569,-827 -518,-542 -973,-1064 -1480,-1662 -218,-258 -511,-636 -754,-711 -107,-33 -112,30 -343,-348 -410,-673 -1109,-1377 -1730,-2092 -461,-531 -1239,-1141 -1413,-1423l-2107 -2513c-372,-455 -608,-508 -711,-613l-551 -787c-74,-141 -624,-761 -710,-786l-614 393 411 -759c-391,-248 -361,-251 -510,-497 -143,-235 -277,-190 -283,-193 -399,-217 266,471 -87,-203 -375,-715 -35,511 -436,-327 -230,-480 -254,-252 -349,-480 -200,-485 -584,-707 -941,-1133 -199,-236 -292,-427 -479,-634 -431,-478 -485,-189 -597,-247l112 -85 -1458 -1899 -459 320c-195,1376 1024,2148 1613,2828 691,798 1384,1609 2077,2420 2853,3339 5601,6400 8434,9686 1137,1318 3006,3744 4199,4802 15,485 -196,613 -72,1137 97,411 300,167 618,656 379,581 1066,927 1127,1518l-663 -341 2628 3114 105 -86 -1922 -2359 99 -81c536,157 1083,1295 1450,1689 459,492 1001,966 1449,1514 375,460 177,397 709,835 588,486 -69,326 820,627 156,53 1485,1484 1488,1494l-745 -271 -204 137c-257,-141 -2463,-2815 -2843,-3254l-114 98 2747 3221 -505 133c-293,-484 521,-77 -435,-724 -530,-358 -96,-127 -318,-336 -243,-228 -230,15 -536,-233 113,-340 43,-413 -185,-693 -142,-176 -201,2 -455,-364 -126,-183 -9,-69 -279,-236 -603,-375 -41,-21 -333,-339l-194 -241c-3,-5 -9,-22 -11,-27 -189,-380 -602,9 -509,-874 -122,-17 -246,287 -526,-305 -295,-626 -190,-160 -416,-478 -132,-186 -71,-428 -271,-619 -7,-6 -121,-66 -267,-206l-421 -485c-27,-62 -19,-105 -21,-115 -67,-542 214,303 -15,-79 -5,-8 -280,-322 -501,-408 -704,-271 -371,-616 -535,-1501 -287,-142 -15,442 -537,-251 -162,-216 -304,-378 -478,-577l-6476 -7560 160 506c-550,0 -738,199 -710,-249 27,-437 106,177 -32,-206 -35,-97 -240,-132 26,-365l285 223 26 -786c-1637,-262 -1101,12 -2268,-1169l61 -558 -436 -145 59 -232 -360 57 419 -360 -1408 -1103 -435 13 -8 -158c183,-39 486,-42 621,-175l-1605 -975 -101 165c235,-607 336,-329 -208,-573l-677 -456 220 -610 -460 116 -418 -458 -149 136c728,1551 9451,10621 9478,11963 -416,-260 -746,-1188 -1225,-762 -215,192 -266,-33 -296,242 401,402 445,940 1326,718 506,-127 1449,-513 1726,-410 114,75 2103,2507 2283,2772 524,774 1966,1869 1617,3252l-385 138c-877,0 -320,-332 -961,-766 -671,-454 -197,-857 -458,-1268l-425 -1148 -544 158 -561 -958 -134 100c-516,-1076 -239,-988 -1603,-617 -1510,410 -643,291 -2392,507l666 5394c-1107,137 -419,-3425 -1127,-3927l265 2833c-732,-16 -627,-1683 -689,-2392 -212,-2444 -470,-929 -615,-2362l-422 -176c-6,-984 -215,-2662 -356,-3547 -168,-1055 87,-2905 -608,-2841l162 1939 -3109 -3936 -134 102 420 618 -569 -99c87,-1291 24,-925 -830,-2002 -285,-360 -1096,-1441 -1446,-1724 -842,1617 685,2142 -246,2171 -549,17 -250,-23 -283,-395l-532 -3169c34,-355 -15,-626 -89,-1023 -188,-994 121,-555 468,-760 -198,-413 -3392,-4170 -3928,-4762 -655,-723 -1292,-1635 -1946,-2365 -660,-736 -1104,-2010 -2336,-2031 799,1338 2650,3270 3674,4581 587,752 1203,1516 1851,2278 890,1046 1166,999 1298,2758l-1028 -1327 165 531 -514 -102c-209,-341 378,-423 61,-843 -118,-157 -444,-451 -625,-686 -375,-488 -93,-332 -525,-712 -216,-191 -422,-606 -642,-741 -278,154 -217,868 -169,982 144,344 200,157 334,539 71,200 80,455 129,593 89,252 2480,3256 2852,3713 681,838 296,1957 997,2278l-127 19 -724 -4942 229 -34 773 5383 -350 -57c-781,302 -1022,-338 -1329,-767l-2756 -3714c-1041,-1384 -526,-725 -1102,-962 -17,-7 -929,-1070 -974,-1153 -348,-640 -588,-766 -923,-1233 -297,-416 -318,-1273 -558,-1599 -717,0 -2010,33 -2672,102 -1058,110 -1612,-139 -2629,-102 -792,28 -1863,105 -2653,119 -850,16 -5521,1384 -6563,-394 -264,-449 -1934,-3493 -1384,-3669 348,17 375,1055 845,1106 35,4 798,-624 1052,65 -103,270 -400,163 -608,208 -364,79 -134,213 -144,555l11239 -3719 -1645 -639 -90 -541c760,-413 771,183 1044,-1055l1891 2446c485,-372 228,-1488 -723,-1303 23,-780 339,-199 -274,-963 -93,-115 -624,-899 -631,-905 517,-400 478,-298 1228,-436 959,-177 885,104 868,-673l-149 88 -283 -520 -616 -369c-97,-418 -174,-833 -263,-1278 -132,-664 -326,-850 289,-1001l-26 -1295 185 0 416 554c123,418 1119,1354 1439,1661 466,446 159,703 350,1072 51,98 66,87 102,208 219,742 255,378 340,754l-63 -135 -674 517 -108 -47 -39 57 147 146 1018 944 -428 85 688 793 -1168 234 26 139 1358 -118 2417 2241c264,-53 1032,-256 1249,-212l-246 -641c-25,-26 844,-569 1042,-534 366,65 672,646 1132,718l92 -83 -1162 -1157 604 273c158,-350 -320,-1472 -932,-1476l73 -1640 343 1757 10 -973 181 -13 236 1575 -36 -1253 206 -18 269 2036 5 -1465 189 -9 191 1850 6 -1450 190 -15 414 1860c451,1598 -134,804 935,1968 320,349 1078,1260 1436,1487l-21 -1259c477,-250 1007,-486 1531,-730 1150,-534 528,-121 1611,-369 443,-102 3613,-643 3688,-890l-1279 -102c-786,-87 1196,-86 773,-761l30 157 -3012 592 -26 -133c-530,-154 250,12 -376,-245 -263,-107 -381,-166 -199,-371 255,-289 3497,149 3576,-1170l-1453 175 -31 -196 2415 -664 91 675 168 -2 -45 -1818 226 -30 352 1384 -148 -2301c804,-51 -373,1674 1111,1622l-377 -302 110 -148 714 498 29 -1111c487,418 -409,120 1127,1199 624,439 427,683 1615,279l-886 -1043 -1808 -2711 -492 -2864 -61 -7 -535 -355 -399 -353 -114 -13 -447 -357 -189 -1105 13 -4zm-1175 35901l-174 -468 104 -15 70 483zm9255 -2280l18 -77c-331,-644 -140,-1903 219,-2249 314,-302 1659,-603 2000,-491 110,36 2535,2429 2686,2709 -686,516 -1626,487 -2060,1085 -128,177 -251,2355 -243,2396l2132 31c-469,300 -1035,87 -1704,415 -622,305 -1006,-365 -1327,-707 -310,-330 -1991,-2106 -2074,-2524l575 358 -222 -946zm2493 -5912c-382,392 94,116 -469,389 -557,270 -582,1603 -1355,439l625 795c-466,-72 -732,-485 -898,-762 -206,-344 -578,-439 -816,-728 -195,-238 -198,-899 -229,-1300 -42,-530 205,-617 723,-753 1829,-479 1058,-7 1832,621 320,260 513,391 822,688 661,632 51,906 -235,611zm-31461 -15274l539 214 479 501 -762 58 -341 -48 -372 257 -927 -222 540 646 2352 152 -362 255 1402 781 -17 163 -897 -188 -365 307 1099 216 14 190 -1443 251c32,-138 -6,-140 -138,-381 -496,206 746,432 -1906,367 -148,-4 -1945,9 -2156,128l-91 -203 -1249 292c-108,-462 91,-516 -59,-657 0,0 -128,-155 -340,-100 -503,129 -771,310 -1616,320l208 -438c-246,93 57,337 -470,180 -511,-152 -94,92 -540,-44 -402,-122 55,-107 -472,-219 -91,-19 -523,-151 -565,-177l1493 -326c349,-689 -156,-296 961,-661 1058,-344 3754,-1404 4462,-1225l324 -253 117 488c192,-5 592,41 739,-70l-91 -548 450 -6zm10010 3833l1216 546c-225,-933 -187,-1586 -336,-2275 -105,-487 -221,-674 144,-797l605 4649 -1060 195 43 260 1365 -201 -131 -1064 174 -20 429 1921 -828 692 1680 1818 188 670 -8541 -10295c185,-183 606,-192 920,-188 719,8 632,199 768,208 291,20 152,-144 711,349 261,230 411,455 657,698l1910 2036c493,513 352,247 86,798zm-7481 -8380c-71,-374 52,275 0,0zm246 -555l118 547 -118 -547zm0 0l0 0zm-677 -61c-114,-450 55,221 0,0zm229 -491l213 910 -64 10 -149 -920zm-291 182c-114,-449 56,222 0,0zm28676 3449c-297,-195 -169,78 -659,-211 -373,-220 -1080,-395 -1576,-403l886 -705 2390 -633 7 -369 -1079 -362 -1320 538 -479 -550 2031 -456 -2711 174 -22 137 855 428 -1329 433 -1587 -1389 8111 -410c-40,301 -693,364 203,372 -432,-1202 913,-115 646,286l577 -104 37 197 -1830 345c96,188 534,-113 392,454 -46,185 -251,342 -393,265 -427,-231 219,-215 -148,-387 -212,101 122,497 -785,939 -338,165 -907,499 -1260,545l50 789 -717 583c-169,-114 67,-271 -290,-506zm-29046 -4003l123 677 -123 -677zm308 246c-163,-583 67,239 0,0zm-616 -61c-114,-450 56,221 0,0zm308 -185l-48 -370 48 370zm-370 -124c-163,-582 67,239 0,0zm298 -379l-41 82 41 -82zm-359 -237l69 308 -69 -308zm0 0l-71 -183 71 183zm21817 -3635l70 183 -70 -183zm-555 -493l76 299 -76 9 0 -308zm-473 291l0 0z"/>
   <path fill="#31343A" d="M81870 59017l513 -177c724,553 365,582 -1067,1270 -646,310 -1398,500 -1397,892 317,-112 421,-242 771,-270 -10,697 -476,528 -870,792 -129,296 6,502 -299,698 -225,144 -509,264 -773,268 74,-327 59,-34 86,-382 18,-231 39,-309 87,-514l159 -867c400,-96 391,-177 725,-289 308,-102 117,123 244,-110l-65 1c-272,56 -375,229 -801,307l0 -204c-484,-594 276,-980 844,-1041l-1556 -1550c1418,-734 1672,-1062 2622,-286l-440 287 1217 1175zm18145 -2817l-62 -62 62 62zm-62 -62l-185 -123 185 123zm-185 -123l-62 -62 62 62zm-62 -62l-246 -185 246 185zm-246 -185l-247 -184 247 184zm-247 -184l-61 -62 61 62zm-61 -62l-185 -124 185 124zm-185 -124l0 0zm-9855 -77l536 828 -590 426 1030 -147 29 203c-595,464 -35,-339 -930,452 -262,232 -986,663 -1006,102 -758,490 -2320,1076 -3223,1515 -938,456 -827,299 -1488,-260 -358,-303 -1141,-824 -1266,-1254l1069 425c307,-435 123,-385 846,-163 312,-464 -123,-380 249,-184 440,232 -16,-432 732,244l16 -552 973 -73 10 133c305,-495 255,-57 254,-380 -1,-506 -84,-23 284,-320 521,-422 -719,-404 681,-335 151,-255 107,-493 -371,-953 -453,-436 -107,-917 205,-757l115 -64 357 645 922 76c-52,-106 -923,-743 -1101,-894 -481,-408 -621,39 -1284,154 480,1177 -696,2558 -1882,2331 -25,-17 -595,-754 -598,-758 -181,-405 24,-612 -273,-1023 -548,-755 -470,637 -574,-289 -109,-988 -177,-592 281,-763 -344,-420 214,-775 657,-852 782,-136 834,212 1240,499l2434 -1372 -83 -101 -346 -172 37 -150 672 -302 1217 1789 -169 24 338 2272zm-34458 -39299l2234 1855 584 -346 -116 -13 -777 2323 157 101 -2024 -1553c273,1299 -356,1367 -1633,1475 -1027,86 -2048,-253 -1982,-1315 -167,157 -140,-197 -140,184 -160,-16 63,-121 -278,9 -185,70 -62,295 -176,92 -6,-11 -24,21 -39,23 185,230 8,118 307,171 294,53 -48,0 187,-40l-618 54 -91 -200c-8,-16 -20,-39 -28,-53 -8,-15 -26,-24 -32,-57 -6,-35 -20,-42 -44,-87l-566 126c-13,-13 -27,-29 -40,-41 -109,-109 55,13 -124,-116l2821 2250 -179 -138 70 -83 587 47c808,-40 4405,2715 4857,3267l226 -161 1619 -526 326 -57 349 -37 -885 -667 121 -153c1121,949 634,781 1989,715l-6 -332c660,246 238,418 493,0l378 258 1 -396 -153 -180 132 -183 -48 -179c246,-282 251,-206 597,66 177,139 302,227 442,369 377,385 624,195 980,633 197,465 -401,169 190,658 1043,861 4769,3307 5001,3634l4349 3047 -15 700 1171 -108 -698 340 2145 1456c-5,696 -406,1003 -1027,1184 -575,168 -846,-271 -1392,-616 -428,-271 -2355,-1871 -2568,-1824 -510,802 3124,2270 1774,2306l942 586 -920 323c1029,485 786,1048 883,2073l-156 1542c-1397,230 -698,281 -858,-92 0,0 276,-252 -283,-70 -746,242 257,630 -1223,953 -14,-1286 461,-1685 -47,-2866 -162,-378 -502,-536 -834,-800 -765,-609 -852,-320 -1014,-428l118 -1084 -2957 -2304 -304 208 724 558c177,202 318,105 318,465 -322,311 -1110,289 -1224,-185 144,-279 309,-318 692,-276l-1376 -29 20 182c692,440 1162,958 1832,524 427,-277 -58,-329 247,-388l466 513c171,164 324,90 400,303 89,249 -105,344 -316,384 -335,63 -931,49 -885,-535 -518,515 502,872 1174,678l203 -530c390,420 722,400 721,962 -2,551 -325,314 -761,750 -490,-32 -746,-586 -988,-878 -344,-415 -231,36 -486,-215 -219,-215 55,-39 -209,-241 -333,-255 -2,112 -237,-156 -591,-674 -602,-345 -938,-851 -63,-95 -69,-297 -350,-136 -319,183 254,12 -42,40l-223 -596 -1014 351c253,731 109,168 689,560l1089 885c410,340 -97,23 239,487l136 -137 1529 1534c1325,-834 1592,-981 2771,-40 790,631 823,2232 376,3245l117 -2071 -183 -42 -296 1262c-818,6 -215,299 -905,-93 -346,-197 -555,-176 -1138,-129 -654,52 -1670,574 -2032,433l-760 -745 -52 328 145 175c863,768 477,314 1546,164l-444 1607 -157 -37c557,314 102,698 -241,675 656,-11 714,335 1132,579 379,221 377,61 674,724 1,4 8,19 9,23l-3 80c745,8 815,224 1768,134 656,-63 1483,-72 2052,-274 3538,-1258 1856,-879 2544,-1357 267,-186 307,-40 322,0l173 -806 -325 230c-26,-144 769,-1231 905,-1434l4565 3542 68 -24c-47,-1057 -954,-1482 -1602,-1991 -508,-400 -1563,-1290 -2067,-1559l-1774 -1383c-521,-415 -456,-161 -699,-334l754 -772 -674 94c78,-106 995,-591 1073,-610 418,-99 568,215 1042,495 549,323 1429,1018 1874,1458 813,803 1652,928 2817,1926 256,219 334,196 531,340 197,144 163,228 436,423 1363,978 2373,1925 3851,2863 1751,1111 891,1331 1430,1902 678,718 1569,-629 2201,430l1036 -607 -483 -365 610 -400 683 632c516,-125 457,-692 1178,-118 890,707 2794,1794 2950,2710 -886,262 -1713,759 -2561,1101 -782,316 -223,314 -642,616l-62 -12c51,-260 175,-620 121,-873l-1379 181 179 -36 161 293c155,-427 -112,-608 680,-303l298 156c-195,716 -2258,1231 -2895,1632 116,-191 59,64 98,-137 51,-270 -185,-443 457,-633 -81,-93 -236,-241 -309,-123 -27,-240 98,-369 248,-370 -238,-315 41,195 -285,-416 -68,-127 -265,-252 -443,-278l20 -296 -673 -1276 -160 65c-947,286 -2644,1117 -3666,1566 -1273,560 -2244,725 -3520,1472 -892,522 -2611,1104 -3664,1563 -617,269 -1484,339 -1670,918 -273,854 -64,1799 201,2390 1040,-224 75,-13 855,-1906 10,12 -300,1223 561,1427l-73 9c37,293 33,990 224,1189l3652 -1269 -385 390 158 2317 -1401 -29c922,-801 730,-767 -400,-180 -295,153 -571,178 -639,189l-825 399c-357,183 -52,177 -533,11 -561,-195 -1019,-78 -1435,-167 47,475 1722,1986 2200,2455 452,443 805,654 771,1388 -6,136 -388,1668 -477,1773 -194,402 108,234 -361,476 -187,96 -412,218 -728,240 99,-351 52,-633 159,-899 182,-456 51,-202 115,-547 37,-203 7,68 54,-263 40,-282 114,-484 80,-644 -36,-171 -20,100 -37,-171 -3,-40 9,-187 15,-235 322,-79 500,-306 994,-296l-2787 -2458 -70 120c-634,71 -781,8 -999,238l1243 1026c127,19 -102,112 144,455 78,109 323,340 398,420 191,203 640,596 735,784 166,328 -132,2289 -381,2448 -85,261 42,-48 -71,107l-387 357c-281,163 -393,247 -721,288l153 -805c3,-16 8,-33 12,-48 4,-14 10,-31 14,-45l65 -255c14,-153 14,-287 49,-562l126 -495c99,-236 650,-441 925,-447l-41 417c678,-774 -638,-1573 -981,-1917 -286,-285 -1365,-1625 -1888,-1254l-535 -163 -390 -207c-709,349 1516,2232 1760,2484 1547,1599 591,1117 521,3245l438 869 -619 -577c-123,123 -1454,789 -1122,1322 324,517 1397,-697 1857,-382l-840 678 323 432c683,364 360,-312 1272,-602 570,-181 1142,-265 1758,-398 593,-129 2719,-995 2418,-1773 0,-628 -75,-478 1685,-1205l-137 52 -631 -1650 -343 -37c-115,-757 636,-562 938,-632 491,-117 -229,327 273,89l224 -490 1116 441 -755 -207 48 -178 31 -98c122,-450 320,189 966,-133 288,-144 499,-215 796,-358 643,-310 1046,-563 1644,-770 247,476 -663,884 -1348,1078l173 782 2890 -1025 -3282 1766 856 531c292,-470 532,-1766 1052,-1231 398,410 -75,72 324,-314 528,-512 622,66 643,83l725 -315 1917 -863 -870 -480 1630 -941 -137 -87 170 -899 -1059 835 749 -2994 803 -203 -510 2295c1017,226 -55,-1857 1560,-2085l-345 1422c887,210 795,-2332 988,-2566l672 -407c249,524 -2,1044 -154,1481 -193,556 16,900 -600,1318 -525,356 -51,1819 -1528,2695 672,563 1879,-300 2446,-431 495,132 163,536 953,93 295,-166 793,-300 896,-586l2807 1991 -2674 -2126c675,-1010 371,-863 1585,-1418 984,-451 930,504 1857,752l-123 -185 246 185 123 0 -1391 -1189c332,-44 929,-379 942,-551 28,-379 -367,40 -55,-361 127,-163 289,-59 319,-426l-986 -723c-432,-16 -900,385 -1294,498l-714 -515c141,-186 795,-316 1076,-616l-991 -784 1003 -3200c-142,-46 -397,-369 -578,-804 -190,-456 -42,-479 81,-1004l-4331 -3058c963,-102 843,-1042 180,-1480 -1128,-746 -940,-276 -1948,-8 -515,137 -532,-146 -699,-489 -149,-305 -1980,-1497 -2325,-1742 -467,-331 -1062,-917 -1618,-951 -557,-34 -1211,-714 -1659,-1011 -600,-395 -1077,-639 -1426,-1285 -158,-292 -1300,-1125 -1520,-1130l-90 433 -398 931 1138 657 258 -490 173 84 -404 850c222,225 456,-323 968,-210 383,85 2395,1638 2534,1812l-158 1055 2277 1436 -17 -486 168 -120 1985 2058 -2812 1142c-810,-365 -465,-990 -1017,-1426 -430,-339 -917,-624 -1331,-1015 -279,-262 -308,-317 -671,-427 -439,-134 -110,-169 -607,-511 -215,-148 -1195,-848 -1366,-1089l2126 -420c-117,-541 -791,-23 -47,-641 489,-405 35,-406 -377,-295 129,209 147,41 228,222 -552,399 -705,139 -1261,35l-101 -23c-20,-5 -70,-23 -89,-28 -267,-78 -284,-16 -492,-206 23,-370 282,-96 121,-332l-469 -260 -543 1283c-995,-480 -3206,-2484 -4715,-3467 -328,-213 -464,-361 -776,-585 -749,-534 -696,226 -953,-275l-24 -122 2134 -417 -611 -408 797 -272c-474,80 -609,438 -1112,108 -259,-171 -830,-568 -506,-1046 993,-586 1764,759 2502,887l580 -147 -6965 -4930c-1608,-1088 -863,-735 -863,-2773 -2777,-1860 -5536,-3842 -8326,-5725 -1389,-937 -2763,-1958 -4172,-2853 -727,-461 -1391,-916 -2090,-1423 -272,-197 -777,-642 -1095,-619 -366,26 -1266,177 -1327,514z"/>
   <path fill="#31343A" d="M60956 71414l-517 -778c173,-243 1800,-1027 2104,-1080l626 733c-203,100 -351,191 -559,273 -548,218 -1449,810 -1654,852zm9846 -4553c-134,25 -1042,798 -1247,928 -129,81 -224,-20 -677,260 -274,170 -422,141 -877,127 291,-239 792,-65 172,-716 -586,-615 -1165,-6 -1825,243 -1071,404 -298,240 -665,716l-1304 -1003 -996 394 296 -531 -2546 546 -168 155 -743 338 -7724 -9802 -989 -1207 -1033 429 -74 865c729,1089 2001,2605 2875,3657 1899,2287 3876,4994 5821,7367 439,535 1061,1269 1448,1828 234,339 -128,649 461,946 355,179 738,358 858,807l1720 -449 185 -151 1897 2230 -1660 -2174c767,-11 306,692 1459,16 975,-570 736,26 1021,-1198l883 -573 2854 3191 -2712 -3401 1507 -872 -277 -421 2060 -2545z"/>
   <path fill="#31343A" d="M22727 5308l0 0zm-5196 -2227l659 976c693,-550 260,-458 1279,-615 715,-110 959,-268 1387,157 248,246 1554,1544 1871,1709 230,385 2047,1923 2520,2403 908,923 1490,1865 3214,1752l2303 -801 383 -159 -132 -259c-46,-617 -1623,-1695 -2039,-2047l-1602 -1358c-374,-351 -436,-458 -577,-33 -520,-174 -2046,506 -2191,706 -285,390 173,465 -582,465l0 -246 1762 -1507c-708,-463 -1734,891 -2194,1199l-468 -356 1785 -1598c-964,-613 -1555,1538 -2488,968l-98 -109 1745 -1575c-597,-275 -999,226 -1293,497 -661,609 -395,572 -1155,509 9,-392 962,-1198 1272,-1385 909,-545 -109,-519 -888,167 -109,96 -625,559 -705,591 -195,80 -754,-71 -246,-484 140,-113 1416,-1179 1430,-1231 -614,-294 -958,211 -1260,466 -590,497 -408,576 -1082,520l-114 -125 1704 -1552c-693,-325 -1651,895 -2083,1184l214 1177c-465,-339 -329,-703 -1093,-588 -520,78 -1264,76 -1238,582z"/>
   <path fill="#31343A" d="M69137 60375l-5382 2332 53 293 879 -133c-1284,1897 -1890,-91 -2390,235 -454,608 1040,943 1600,822 350,-75 421,-306 852,-509 629,-297 354,-82 1048,-111l-137 1749 -266 -773 -663 382c-44,768 785,793 -170,1487l717 -326 -378 -491 63 -135 775 185c-97,-289 143,226 160,-499 14,-568 -95,-522 162,-419 121,49 327,253 257,-365 -59,-511 -176,-203 -199,-571 -38,-605 -929,-2046 709,-1598l1421 -399 726 867c85,898 -52,2475 -211,2727 -209,329 -57,971 373,1124 645,230 870,-474 1110,-606l-82 -2111 -591 198c-242,-195 164,-378 -294,-958 -418,-530 46,-611 290,-772l181 554 668 85 -167 975 536 202c404,-646 -667,-2063 294,-2637l38 -328 -2136 360 1734 -863 -112 -293 -1575 386 107 -66z"/>
   <path fill="#31343A" d="M73262 63682l875 881 147 31 481 -3015 976 -104c-60,-327 -1637,-1711 -2040,-2073 -139,-124 -601,-392 -617,-409 -217,-221 235,-233 -524,-398 -515,-111 -972,-132 -1395,159l1349 2774 -125 132 873 2022z"/>
   <path fill="#31343A" d="M45990 14847c463,12 1920,-716 1982,-52 54,574 -403,289 -606,348 -481,141 125,-81 -216,231 -110,100 -165,62 -343,224l1164 1040c-334,265 -620,51 -756,395 -175,440 125,124 292,592l-557 696c135,398 412,354 601,642l-439 100c-194,75 -86,22 -185,102 384,341 1200,9 1641,-76 368,-71 413,-15 467,-356 -246,-163 -339,8 -544,21l1 -527 299 -115c-48,-430 -8,-127 70,-235 269,109 336,54 410,371 245,-256 -217,-272 338,-133 23,5 205,68 297,68 560,-3 241,-20 345,-139 -746,-34 -1046,-163 -1461,-605 6,-259 70,-717 135,-923 85,-268 290,-355 434,-600l-1242 -1033 1518 -358c15,-725 -1171,-230 -1821,-134 -546,80 -1843,113 -2136,413l312 43z"/>
  </g>
 </g>
</svg>
