<?xml version="1.0" encoding="UTF-8"?>
<!DOCTYPE svg PUBLIC "-//W3C//DTD SVG 1.1//EN" "http://www.w3.org/Graphics/SVG/1.1/DTD/svg11.dtd">
<!-- Creator: CorelDRAW X8 -->
<svg xmlns="http://www.w3.org/2000/svg" xml:space="preserve" width="1000px" height="1000px" version="1.1" shape-rendering="geometricPrecision" text-rendering="geometricPrecision" image-rendering="optimizeQuality" fill-rule="evenodd" clip-rule="evenodd"
viewBox="0 0 100000 100000"
 xmlns:xlink="http://www.w3.org/1999/xlink">
 <g id="interface-icon-e">
  <metadata id="CorelCorpID_0Corel-Layer"/>
  <g id="interface-icon-e-bg-border">
   <circle fill="black" cx="50000" cy="50000" r="50000"/>
   <path fill="#4F65B7" d="M47581 88387l-216 4416 -202 4124c1002,64 2013,96 3030,96 4583,0 9012,-655 13200,-1876l-2525 -8171c-3390,975 -6971,1498 -10675,1498 -877,0 -1749,-29 -2612,-87zm41076 -40395l8529 -599c-107,-1988 -337,-3943 -683,-5858l-8389 1661c278,1568 461,3168 543,4796zm8541 4305l-8532 -557c-24,519 -57,1035 -101,1548 -778,9086 -4710,17272 -10697,23457l6031 6061c7414,-7608 12275,-17717 13196,-28941 43,-520 77,-1043 103,-1568z"/>
   <path fill="#FEFEFE" d="M50920 2905l0 6c-241,-4 -484,-6 -727,-6 -917,0 -1830,26 -2735,78l37 473 591 7591 24 317c690,-37 1384,-55 2083,-55 243,0 486,2 727,7l0 139c778,15 1550,52 2316,112l837 -8509c-1041,-86 -2093,-137 -3153,-153zm-41142 22942c-4218,7052 -6641,15300 -6641,24115 0,243 2,486 6,729l-8 0c18,1230 84,2449 196,3655l8500 -928c-80,-901 -129,-1810 -146,-2727l-137 0c-5,-243 -7,-486 -7,-729 0,-7182 1958,-13906 5371,-19668l-7134 -4447zm38308 -14800c334,-14 669,-23 1005,-28l-1005 28zm15062 2636c6377,2277 11977,6188 16297,11229l6599 -5437c-5327,-6259 -12265,-11106 -20173,-13900l-2723 8108zm34036 33710l-8530 599c33,652 50,1309 50,1969 0,597 -14,1190 -41,1779l8532 557c38,-774 57,-1552 57,-2336 0,-861 -23,-1718 -68,-2568zm-34924 39152l2525 8171c6850,-2232 13010,-5993 18077,-10881l-6030 -6061c-4097,3925 -9059,6954 -14572,8771zm-30477 3772l3034 1182c673,263 1009,1027 746,1700 -262,673 -1027,1009 -1700,747l-3034 -1183c-672,-262 -1009,-1027 -746,-1700 262,-673 1027,-1009 1700,-746zm3780 2882l0 0zm-5480 -2136l0 0zm-3737 -3701l2839 1593c631,354 856,1158 503,1788 -354,630 -1158,856 -1787,502l-2840 -1593c-630,-353 -856,-1157 -503,-1787 354,-630 1158,-856 1788,-503zm3342 3381l0 0zm-5130 -2878l0 0zm-3186 -4185l2591 1972c575,438 686,1266 249,1840 -438,575 -1266,687 -1840,250l-2590 -1973c-575,-438 -687,-1266 -249,-1841 437,-574 1265,-686 1839,-248zm2840 3812l0 0zm-4679 -3564l0 0zm-2573 -4587l2291 2314c508,513 504,1349 -9,1856 -514,509 -1349,505 -1858,-9l-2290 -2314c-508,-513 -504,-1349 9,-1857 514,-508 1349,-504 1857,10zm2282 4170l0 0zm-4139 -4180l0 0zm-1908 -4901l1946 2610c432,580 311,1406 -268,1838 -579,432 -1406,311 -1837,-268l-1947 -2611c-431,-578 -311,-1405 268,-1837 580,-432 1406,-311 1838,268zm1678 4448l0 0zm-3516 -4716l0 0zm2031 -12836c-143,-464 -277,-931 -402,-1403l-8217 2368c127,471 261,938 402,1403l8217 -2368zm-544 -1942c-118,-470 -228,-944 -329,-1422l-8329 1935c103,477 212,951 328,1422l8330 -1935zm-443 -1967c-93,-476 -177,-955 -253,-1437l-8419 1496c77,481 162,960 253,1437l8419 -1496zm-338 -1988c-68,-480 -127,-963 -178,-1448l-8486 1053c52,485 112,967 178,1448l8486 -1053z"/>
   <path fill="#26526A" d="M47581 88387c-15313,-1026 -28174,-11001 -33398,-24741l-4164 1492 -3887 1394c753,2002 966,2644 1973,4505l4336 -611c5452,10037 14791,17656 25995,20840l348 4363c3191,753 5007,1084 8379,1298l202 -4124 216 -4416zm47915 -51179l-8194 2444c257,924 480,1857 669,2799l8416 -1509c-246,-1257 -544,-2503 -891,-3734zm-5738 -2934l-3728 1552c351,889 670,1795 955,2715l3878 -1124c-328,-1066 -697,-2114 -1105,-3143zm-4169 484l3740 -1523c-438,-1025 -916,-2028 -1430,-3009l-3545 1933c443,848 855,1715 1235,2599zm803 -14874l-6491 5566c610,739 1194,1501 1749,2284l7075 -4801c-737,-1048 -1515,-2066 -2333,-3049zm2946 3949l-7038 4857c530,798 1031,1617 1500,2454l7539 -4035c-623,-1120 -1290,-2213 -2001,-3276z"/>
  </g>
  <g id="interface-icon-e-capacity">
   <path id="interface-icon-e-energy00" fill="#232324" d="M51068 17632l0 -4902 -1751 0 0 4902 1751 0zm-3384 86l-513 -4875 -1741 183 513 4875 1741 -183zm-3356 439l-1020 -4795 -1713 364 1020 4795 1713 -364zm-3293 787l-1515 -4662 -1665 541 1515 4662 1665 -541zm-3192 1128l-1994 -4479 -1599 712 1994 4479 1599 -712zm-3057 1454l-2451 -4245 -1516 875 2451 4246 1516 -876zm-2888 1767l-2881 -3966 -1416 1029 2881 3966 1416 -1029zm-2687 2058l-3280 -3643 -1301 1172 3280 3643 1301 -1172zm-2457 2328l-3643 -3280 -1172 1301 3643 3280 1172 -1301zm-2201 2572l-3966 -2881 -1029 1416 3966 2882 1029 -1417zm-1920 2789l-4245 -2452 -876 1517 4245 2451 876 -1516zm-1618 2973l-4478 -1994 -712 1600 4478 1994 712 -1600zm-1298 3126l-4662 -1515 -541 1666 4662 1515 541 -1666zm-964 3245l-4795 -1019 -364 1713 4795 1019 364 -1713zm-803 5069l183 -1741 -4875 -512 -183 1741 4875 512zm-85 3385l0 -1751 -4903 0 0 1751 4903 0zm268 3374l-183 -1741 -4875 512 183 1742 4875 -513zm620 3328l-364 -1713 -4795 1020 364 1712 4795 -1019zm964 3245l-541 -1665 -4662 1515 541 1665 4662 -1515zm1299 3126l-712 -1599 -4479 1994 713 1599 4478 -1994zm1618 2974l-876 -1517 -4245 2451 876 1517 4245 -2451zm1920 2788l-1029 -1417 -3966 2882 1029 1416 3966 -2881zm2201 2572l-1172 -1301 -3643 3280 1172 1301 3643 -3280zm-823 5971l3280 -3643 -1301 -1172 -3280 3643 1301 1172zm3086 2381l2882 -3966 -1417 -1029 -2881 3966 1416 1029zm3319 2046l2451 -4246 -1516 -875 -2451 4245 1516 876zm3514 1687l1994 -4478 -1600 -712 -1994 4478 1600 712zm3671 1311l1515 -4662 -1666 -541 -1514 4662 1665 541zm3788 920l1019 -4795 -1712 -364 -1020 4795 1713 364zm3863 519l513 -4875 -1742 -183 -512 4875 1741 183zm3897 112l0 -4902 -1751 0 0 4902 1751 0zm3887 -295l-513 -4875 -1741 183 513 4875 1741 -183zm3834 -700l-1019 -4795 -1713 364 1020 4795 1712 -364zm3741 -1097l-1515 -4663 -1665 541 1515 4663 1665 -541zm3605 -1483l-1994 -4478 -1599 712 1994 4479 1599 -713zm3431 -1851l-2451 -4245 -1516 875 2451 4246 1516 -876zm3218 -2199l-2881 -3966 -1417 1029 2882 3966 1416 -1029zm2971 -2524l-3280 -3643 -1301 1172 3280 3643 1301 -1172zm2691 -2820l-3643 -3280 -1172 1301 3643 3280 1172 -1301zm2381 -3087l-3966 -2881 -1029 1416 3966 2882 1029 -1417zm2046 -3318l-4245 -2451 -876 1516 4245 2451 876 -1516zm1687 -3514l-4478 -1994 -712 1600 4478 1994 712 -1600zm1311 -3671l-4662 -1515 -541 1665 4662 1515 541 -1665zm920 -3788l-4795 -1019 -364 1712 4795 1020 364 -1713zm519 -3863l-4875 -513 -183 1741 4875 513 183 -1741zm113 -3897l-4903 0 0 1751 4903 0 0 -1751zm-113 -2146l-183 -1741 -4875 513 183 1741 4875 -513zm-519 -3863l-364 -1713 -4795 1020 364 1712 4795 -1019zm-920 -3788l-541 -1665 -4662 1515 541 1665 4662 -1515zm-1311 -3671l-713 -1600 -4478 1995 712 1599 4479 -1994zm-1688 -3514l-876 -1516 -4245 2451 875 1516 4246 -2451zm-6012 -437l3966 -2881 -1029 -1417 -3966 2882 1029 1416zm-2058 -2687l3643 -3280 -1172 -1301 -3643 3280 1172 1301zm-2328 -2457l3280 -3644 -1301 -1171 -3280 3643 1301 1172zm-2572 -2201l2881 -3966 -1417 -1029 -2881 3966 1417 1029zm-2789 -1920l2451 -4245 -1516 -876 -2451 4245 1516 876zm-2973 -1618l1994 -4478 -1600 -712 -1994 4478 1600 712zm-3126 -1298l1514 -4662 -1665 -541 -1515 4662 1666 541zm-3246 -964l1020 -4795 -1713 -364 -1019 4795 1712 364zm-3328 -620l513 -4875 -1741 -183 -513 4875 1741 183z"/>
   <path id="interface-icon-e-energy12" fill="#E31104" d="M30819 18156l1516 -875 2451 4245 -1516 876 -2451 -4246zm7036 -3333l1665 -541 1515 4662 -1665 541 -1515 -4662zm7575 -1797l1741 -183 513 4875 -1741 183 -513 -4875zm-3835 700l1713 -364 1020 4795 -1713 364 -1020 -4795zm-7345 2579l1599 -712 1994 4479 -1599 712 -1994 -4479z"/>
   <path id="interface-icon-e-energy11" fill="#C52C04" d="M17512 32105l876 -1517 4245 2452 -876 1516 -4245 -2451zm10089 -11749l1416 -1029 2881 3966 -1416 1029 -2881 -3966zm-2971 2524l1301 -1172 3280 3643 -1301 1172 -3280 -3643zm-2691 2820l1172 -1301 3643 3280 -1172 1301 -3643 -3280zm-2381 3086l1029 -1416 3966 2881 -1029 1417 -3966 -2882z"/>
   <path id="interface-icon-e-energy10" fill="#B23E04" d="M12962 50838l0 -1751 4903 0 0 1751 -4903 0zm2863 -15219l712 -1600 4478 1994 -712 1600 -4478 -1994zm-1311 3671l541 -1666 4662 1515 -541 1666 -4662 -1515zm-920 3788l364 -1713 4795 1019 -364 1713 -4795 -1019zm-519 3863l183 -1741 4875 512 -183 1741 -4875 -512z"/>
   <path id="interface-icon-e-energy09" fill="#995504" d="M18389 69336l-876 -1517 4245 -2451 876 1517 -4245 2451zm-5131 -14611l-183 -1742 4875 -512 183 1741 -4875 513zm700 3834l-364 -1712 4795 -1020 364 1713 -4795 1019zm1097 3741l-541 -1665 4662 -1515 541 1665 -4662 1515zm1483 3605l-713 -1599 4479 -1994 712 1599 -4478 1994z"/>
   <path id="interface-icon-e-energy08" fill="#8C6104" d="M32337 82643l-1516 -876 2451 -4245 1516 875 -2451 4246zm-11749 -10089l-1029 -1416 3966 -2882 1029 1417 -3966 2881zm2524 2971l-1172 -1301 3643 -3280 1172 1301 -3643 3280zm2820 2691l-1301 -1172 3280 -3643 1301 1172 -3280 3643zm3086 2381l-1416 -1029 2881 -3966 1417 1029 -2882 3966z"/>
   <path id="interface-icon-e-energy07" fill="#816B04" d="M51070 87192l-1751 0 0 -4902 1751 0 0 4902zm-15219 -2862l-1600 -712 1994 -4478 1600 712 -1994 4478zm3671 1311l-1665 -541 1514 -4662 1666 541 -1515 4662zm3788 920l-1713 -364 1020 -4795 1712 364 -1019 4795zm3863 519l-1741 -183 512 -4875 1742 183 -513 4875z"/>
   <path id="interface-icon-e-energy06" fill="#6C7D04" d="M69568 81766l-1516 876 -2451 -4246 1516 -875 2451 4245zm-14611 5131l-1741 183 -513 -4875 1741 -183 513 4875zm3834 -700l-1712 364 -1020 -4795 1713 -364 1019 4795zm3741 -1097l-1665 541 -1515 -4663 1665 -541 1515 4663zm3605 -1483l-1599 713 -1994 -4479 1599 -712 1994 4478z"/>
   <path id="interface-icon-e-energy05" fill="#40A603" d="M82875 67818l-876 1516 -4245 -2451 876 -1516 4245 2451zm-10089 11749l-1416 1029 -2882 -3966 1417 -1029 2881 3966zm2971 -2524l-1301 1172 -3280 -3643 1301 -1172 3280 3643zm2691 -2820l-1172 1301 -3643 -3280 1172 -1301 3643 3280zm2381 -3087l-1029 1417 -3966 -2882 1029 -1416 3966 2881z"/>
   <path id="interface-icon-e-energy04" fill="#40A603" d="M87425 49085l0 1751 -4903 0 0 -1751 4903 0zm-2863 15219l-712 1600 -4478 -1994 712 -1600 4478 1994zm1311 -3671l-541 1665 -4662 -1515 541 -1665 4662 1515zm920 -3788l-364 1713 -4795 -1020 364 -1712 4795 1019zm519 -3863l-183 1741 -4875 -513 183 -1741 4875 513z"/>
   <path id="interface-icon-e-energy03" fill="#28BC03" d="M81998 30587l876 1516 -4246 2451 -875 -1516 4245 -2451zm5131 14611l183 1741 -4875 513 -183 -1741 4875 -513zm-700 -3835l364 1713 -4795 1019 -364 -1712 4795 -1020zm-1097 -3740l541 1665 -4662 1515 -541 -1665 4662 -1515zm-1483 -3606l713 1600 -4479 1994 -712 -1599 4478 -1995z"/>
   <path id="interface-icon-e-energy02" fill="#0ED403" d="M68050 17280l1516 876 -2451 4245 -1516 -876 2451 -4245zm11749 10088l1029 1417 -3966 2881 -1029 -1416 3966 -2882zm-2524 -2970l1172 1301 -3643 3280 -1172 -1301 3643 -3280zm-2820 -2691l1301 1171 -3280 3644 -1301 -1172 3280 -3643zm-3087 -2381l1417 1029 -2881 3966 -1417 -1029 2881 -3966z"/>
   <path id="interface-icon-e-energy01" fill="#0ED403" d="M49317 12730l1751 0 0 4902 -1751 0 0 -4902zm15219 2863l1600 712 -1994 4478 -1600 -712 1994 -4478zm-3671 -1311l1665 541 -1514 4662 -1666 -541 1515 -4662zm-3788 -920l1713 364 -1020 4795 -1712 -364 1019 -4795zm-3863 -519l1741 183 -513 4875 -1741 -183 513 -4875z"/>
  </g>
  <path id="interface-icon-e-event-default" fill="#603882" d="M39275 3338l2013 9173c1590,-321 3219,-537 4877,-642l-451 -9379c-2192,131 -4342,418 -6439,848zm-18741 21702l-7177 -6055c-1317,1599 -2528,3290 -3620,5062l8060 4819c830,-1336 1744,-2614 2737,-3826zm-6443 -6924l7176 6056c1058,-1214 2197,-2356 3406,-3418l-6081 -7154c-1603,1398 -3108,2908 -4501,4516zm5367 -5253l6081 7154c1217,-1002 2500,-1926 3843,-2765l-4842 -8046c-1779,1103 -3477,2326 -5082,3657zm6055 -4244l4842 8046c1357,-788 2769,-1491 4230,-2101l-3476 -8725c-1936,800 -3805,1731 -5596,2780zm6652 -3201l3477 8725c1468,-559 2982,-1024 4535,-1389l-2013 -9173c-2057,476 -4060,1092 -5999,1837z"/>

  <image x="20%" y="20%" width="60%" height="60%" xlink:href="/_svg/interface/interface-icon-e-body.svg"/>
  
 </g>
</svg>
