<?xml version="1.0" encoding="UTF-8"?>
<!DOCTYPE svg PUBLIC "-//W3C//DTD SVG 1.1//EN" "http://www.w3.org/Graphics/SVG/1.1/DTD/svg11.dtd">
<!-- Creator: CorelDRAW X8 -->
<svg xmlns="http://www.w3.org/2000/svg" xml:space="preserve" width="1000px" height="1000px" version="1.1" shape-rendering="geometricPrecision" text-rendering="geometricPrecision" image-rendering="optimizeQuality" fill-rule="evenodd" clip-rule="evenodd"
viewBox="0 0 100000 100000"
 xmlns:xlink="http://www.w3.org/1999/xlink">
 <g id="interface-icon-planet-info">
  <metadata id="CorelCorpID_0Corel-Layer"/>
  <g id="interface-icon-planet-info-bg-border">
   <circle fill="black" cx="50000" cy="50000" r="50000"/>
   <path fill="#1EAFE3" fill-rule="nonzero" d="M49986 17435c8991,0 17131,3645 23023,9537 5892,5892 9536,14032 9536,23022 0,8991 -3644,17131 -9536,23022 -5892,5892 -14032,9537 -23023,9537 -8990,0 -17130,-3645 -23022,-9537 -5892,-5891 -9537,-14031 -9537,-23022 0,-8990 3645,-17130 9537,-23022 5892,-5892 14032,-9537 23022,-9537zm21957 10603c-5619,-5619 -13382,-9095 -21957,-9095 -8574,0 -16338,3476 -21956,9095 -5619,5618 -9095,13382 -9095,21956 0,8575 3476,16338 9095,21957 5618,5619 13382,9095 21956,9095 8575,0 16338,-3476 21957,-9095 5619,-5619 9095,-13382 9095,-21957 0,-8574 -3476,-16338 -9095,-21956z"/>
   <path fill="#E8513A" fill-rule="nonzero" d="M49986 19697c8366,0 15941,3392 21423,8874 5483,5483 8874,13057 8874,21423 0,8366 -3391,15941 -8874,21423 -5482,5483 -13057,8874 -21423,8874 -8366,0 -15940,-3391 -21423,-8874 -5482,-5482 -8874,-13057 -8874,-21423 0,-8366 3392,-15940 8874,-21423 5483,-5482 13057,-8874 21423,-8874zm20358 9940c-5210,-5210 -12408,-8432 -20358,-8432 -7950,0 -15147,3222 -20357,8432 -5210,5209 -8432,12407 -8432,20357 0,7950 3222,15148 8432,20358 5210,5209 12407,8432 20357,8432 7950,0 15148,-3223 20358,-8432 5209,-5210 8432,-12408 8432,-20358 0,-7950 -3223,-15148 -8432,-20357z"/>
   <path fill="#1EAFE3" fill-rule="nonzero" d="M49986 21955c7743,0 14753,3139 19827,8213 5074,5074 8212,12084 8212,19826 0,7743 -3138,14753 -8212,19827 -5074,5073 -12084,8212 -19827,8212 -7742,0 -14752,-3139 -19826,-8212 -5074,-5074 -8213,-12084 -8213,-19827 0,-7742 3139,-14752 8213,-19826 5074,-5074 12084,-8213 19826,-8213zm18761 9278c-4801,-4800 -11434,-7770 -18761,-7770 -7326,0 -13959,2970 -18761,7770 -4800,4801 -7770,11435 -7770,18761 0,7327 2970,13960 7770,18761 4802,4801 11435,7771 18761,7771 7327,0 13960,-2970 18761,-7771 4801,-4801 7771,-11434 7771,-18761 0,-7326 -2970,-13960 -7771,-18761z"/>
   <path fill="black" d="M12461 38947c6105,0 11054,4948 11054,11053 0,6105 -4949,11054 -11054,11054 -6104,0 -11053,-4949 -11053,-11054 0,-6105 4949,-11053 11053,-11053z"/>
   <path fill="#003363" d="M87919 32373c330,629 1114,874 1743,544 629,-329 874,-1114 545,-1742l-1486 -2836c-329,-630 -1113,-875 -1742,-545 -630,329 -874,1113 -545,1742l1485 2837zm4924 12655l53 -9c698,-135 1157,-816 1022,-1513l-609 -3143c-135,-697 -815,-1157 -1513,-1022l-13 3c-25,4 -50,8 -75,13 -696,143 -1147,829 -1004,1525l646 3136c141,681 801,1127 1481,1012l12 -2zm-3766 19775l-1149 2988c-255,663 78,1414 741,1669 663,255 1414,-79 1669,-741l1149 -2989c255,-663 -78,-1413 -741,-1668 -663,-255 -1414,78 -1669,741zm958 -2720c-160,692 275,1389 967,1549 692,161 1389,-274 1549,-966l722 -3119c160,-692 -275,-1389 -967,-1550 -691,-160 -1388,275 -1549,967l-722 3119zm1293 -5946c-63,708 465,1337 1172,1400 39,3 77,5 116,5l11 1c709,54 1332,-481 1386,-1189l243 -3193c54,-708 -481,-1331 -1189,-1385 -35,-3 -69,-4 -103,-4 -690,-37 -1295,483 -1355,1176l-281 3189zm452 -6068c35,691 616,1231 1301,1224 36,1 72,0 108,-2 709,-45 1252,-661 1207,-1370l-203 -3183 -1 -13c-43,-703 -650,-1246 -1355,-1209 -693,36 -1233,618 -1224,1306l0 1 0 16 1 17 0 16 1 18 165 3179zm-1738 -11994c239,669 981,1021 1649,782 670,-238 1022,-981 783,-1650l-1076 -3015c-239,-669 -981,-1021 -1650,-782 -669,239 -1021,981 -782,1650l1076 3015z"/>
   <path fill="#FEFEFE" d="M25779 82336c-5160,-3864 -9132,-8725 -11851,-14115l-2460 1174 -2460 1173c3087,6161 7614,11718 13504,16129 4045,3030 8426,5290 12970,6807l811 -2602 811 -2602c-3967,-1337 -7792,-3318 -11325,-5964zm43591 -67815c2455,1338 4779,2934 6927,4772l1820 -2030 1820 -2029c-2496,-2147 -5203,-4005 -8066,-5555l-1251 2421 -1250 2421zm-9157 -3632c2706,704 5348,1691 7877,2954l1275 -2409 1274 -2409c-2941,-1479 -6017,-2628 -9170,-3439l-628 2652 -628 2651zm-9763 -1308c2796,28 5598,346 8358,961l654 -2647 654 -2646c-3212,-723 -6474,-1094 -9730,-1118l32 2725 32 2725zm39554 34669c1226,8543 -267,17476 -4683,25390l2351 1379 2350 1379c5058,-9007 6773,-19188 5375,-28922 -952,-6636 -3351,-13065 -7122,-18774l-2244 1549 -2243 1548c3289,5007 5382,10639 6216,16451zm-26497 42952c2705,-1050 6142,-2760 8588,-4407l4388 5717c-3261,2241 -6763,4035 -10413,5367l-2563 -6677zm-14945 2305c1942,69 3884,-5 5810,-219l1728 7035c-2653,350 -5337,472 -8019,363l481 -7179zm-3439 -273c608,75 1217,136 1827,183l-481 7177c-818,-61 -1635,-144 -2451,-248l1105 -7112zm-3403 -572c600,128 1201,242 1805,342l-1105 7108c-809,-132 -1616,-286 -2420,-461l1720 -6989zm-27326 -33559c1308,9113 6093,17727 14044,23683 7951,5955 17564,8123 26677,6815 9113,-1308 17727,-6092 23682,-14044 5955,-7951 8124,-17563 6816,-26677 -1308,-9112 -6093,-17727 -14044,-23682 -7951,-5955 -17564,-8124 -26677,-6816 -9113,1308 -17727,6093 -23682,14044 -5956,7951 -8124,17564 -6816,26677zm13064 24991c-8312,-6226 -13314,-15232 -14682,-24759 -1242,-8656 516,-17743 5516,-25566l532 263c0,0 3261,-6233 11720,-11732 8359,-5435 17380,-5425 17380,-5425l24 -436c8516,-471 17240,1937 24601,7450 8312,6226 13314,15232 14682,24759 1367,9527 -900,19577 -7125,27889 -6226,8312 -15232,13315 -24759,14682 -9527,1368 -19577,-899 -27889,-7125zm20358 -76783c10465,-497 21160,2506 30201,9277 10329,7736 16544,18926 18243,30764 1699,11839 -1117,24325 -8853,34654 -2108,2814 -4473,5323 -7038,7519l-4387 -5716c2059,-1798 3963,-3839 5668,-6115 6546,-8739 8929,-19304 7491,-29320 -1437,-10016 -6696,-19484 -15435,-26029 -7650,-5730 -16699,-8270 -25554,-7850l-46 -983 0 -2 0 0 -290 -6199zm-32540 26011l-4652 -2836c-5551,9273 -7469,19889 -6014,30021 526,3671 1496,7279 2895,10736l2504 -1076 2504 -1076c-1211,-3015 -2051,-6159 -2510,-9358 -1280,-8912 402,-18249 5273,-26411zm-4729 -3969l558 346 4634 2867 451 279 290 180c-5115,8158 -6905,17593 -5614,26584 1437,10016 6696,19484 15435,26029 4272,3200 8980,5404 13847,6654l-1720 6987c-5778,-1474 -11368,-4086 -16438,-7884 -10329,-7735 -16544,-18926 -18243,-30764 -1524,-10617 585,-21756 6617,-31391l183 113z"/>
  </g>
  <image xmlns="http://www.w3.org/2000/svg" xmlns:xlink="http://www.w3.org/1999/xlink" x="24%" y="24%" width="52%" height="52%" xlink:href="/_svg/interface/interface-icon-jump-to-user-planet-body.svg"/>
 
   <path fill="black" d="M13144 38270c6489,0 11749,5261 11749,11750 0,6489 -5260,11750 -11749,11750 -6490,0 -11750,-5261 -11750,-11750 0,-6489 5260,-11750 11750,-11750z"/>
   <path id="interface-icon-planet-info-play-1" fill="#4F65B7" d="M7394 43057c-221,183 -433,376 -635,578 -1634,1634 -2645,3892 -2645,6385 0,2493 1011,4751 2645,6384 214,215 439,418 674,610 -60,251 -54,509 11,750 102,379 349,720 716,933l58 32c353,185 749,218 1108,122 244,-65 472,-190 661,-369 982,367 2046,567 3157,567 2493,0 4750,-1011 6384,-2645 1311,-1310 2220,-3022 2529,-4935 246,-75 466,-209 643,-386 278,-278 451,-663 451,-1086 0,-425 -173,-809 -452,-1087 -179,-179 -401,-314 -650,-388 -316,-1893 -1221,-3588 -2521,-4887 -1633,-1634 -3891,-2644 -6384,-2644 -1129,0 -2208,207 -3204,584 -187,-175 -413,-299 -654,-363 -359,-96 -754,-62 -1108,122l-57 32c-368,212 -616,554 -717,933 -66,244 -71,505 -10,758zm-5536 6963c0,-3117 1263,-5938 3305,-7980 2042,-2042 4864,-3306 7981,-3306 3116,0 5938,1264 7980,3306 2042,2042 3305,4863 3305,7980 0,3116 -1263,5938 -3305,7980 -2042,2042 -4864,3306 -7980,3306 -3117,0 -5939,-1264 -7981,-3306 -2042,-2042 -3305,-4864 -3305,-7980zm23016 4138c456,-1295 705,-2687 705,-4138 0,-3434 -1393,-6543 -3642,-8793 -243,-243 -496,-476 -759,-699 -2167,-1836 -4971,-2943 -8034,-2943 -1784,0 -3479,375 -5012,1051 -1420,626 -2700,1509 -3782,2591 -261,261 -510,533 -747,816 -2,3 -4,5 -6,8 -1803,2158 -2889,4937 -2889,7969 0,3434 1392,6543 3642,8793 1068,1068 2330,1943 3728,2567 1547,691 3262,1075 5066,1075 3042,0 5829,-1093 7990,-2907 278,-233 546,-478 803,-735 1296,-1296 2307,-2877 2932,-4641 1,-5 3,-9 5,-14zm-15332 -10329c-625,361 -1425,147 -1786,-478 -361,-626 -147,-1426 479,-1787 625,-361 1425,-147 1786,479 361,625 147,1425 -479,1786zm-4279 6191c0,-2176 883,-4146 2309,-5572 157,-158 322,-309 493,-453 132,84 276,146 426,187 379,101 798,57 1165,-155 368,-212 616,-553 717,-933 41,-152 59,-312 51,-472 848,-312 1764,-482 2720,-482 2175,0 4145,882 5571,2308 1116,1116 1899,2565 2187,4185 -139,73 -266,167 -376,277 -278,278 -450,662 -450,1087 0,423 172,808 450,1087 112,112 241,206 383,280 -281,1637 -1068,3102 -2194,4228 -1426,1425 -3396,2308 -5571,2308 -941,0 -1843,-165 -2679,-467 6,-157 -11,-314 -51,-464 -102,-380 -349,-721 -717,-933 -368,-212 -786,-256 -1166,-155 -152,41 -299,106 -433,192 -182,-153 -358,-313 -526,-481 -1426,-1426 -2309,-3396 -2309,-5572zm3012 8479c-625,-361 -840,-1161 -479,-1786 361,-626 1161,-840 1787,-479 625,361 839,1161 478,1786 -361,626 -1161,840 -1786,479zm13338 -7195c-722,0 -1308,-585 -1308,-1307 0,-722 586,-1308 1308,-1308 722,0 1308,586 1308,1308 0,722 -586,1307 -1308,1307z"/>
   <path id="interface-icon-planet-info-play-arrow-1" fill="#E31E24" d="M10410 45287l2 9464 8195 -4731 -7335 -4236 -862 -497zm1149 1987l2377 1373 2380 1372 -4759 2749 2 -5494z"/>
   <polygon id="interface-icon-planet-info-play-arrow-2" fill="#E97968" points="11559,47274 11557,52768 16316,50019 13936,48647 "/>
   <path id="interface-icon-planet-info-play-2" fill="#FEFEFE" d="M21613 48689c-722,0 -1308,586 -1308,1308 0,722 586,1307 1308,1307 722,0 1308,-585 1308,-1307 0,-722 -586,-1308 -1308,-1308zm-12071 -4860c626,-361 840,-1161 479,-1786 -361,-626 -1161,-840 -1786,-479 -626,361 -840,1161 -479,1787 361,625 1161,839 1786,478zm519 14191c361,-625 147,-1425 -478,-1786 -626,-361 -1426,-147 -1787,479 -361,625 -146,1425 479,1786 625,361 1425,147 1786,-479z"/>
  </g>
          <g id="interface-icon-planet-info-i">
            <path fill="black" d="M13023 37053c6769,0 12256,5487 12256,12256 0,6769 -5487,12257 -12256,12257 -6769,0 -12256,-5488 -12256,-12257 0,-6769 5487,-12256 12256,-12256z" />
            <path fill="#4F65B7" d="M21029 58834c1051,-884 1972,-1957 2709,-3207 1745,-2959 2125,-6346 1329,-9428 -86,-333 -185,-662 -299,-986 -934,-2683 -2788,-5063 -5428,-6619 -1536,-906 -3188,-1443 -4852,-1640 -1541,-182 -3093,-71 -4575,311 -357,92 -711,201 -1058,324 -4,1 -7,3 -10,4 -2649,943 -4997,2787 -6537,5399 -1744,2959 -2124,6345 -1329,9427 378,1463 1021,2857 1908,4106 983,1381 2264,2583 3819,3499 2621,1546 5579,2020 8362,1555 358,-60 714,-135 1065,-226 1775,-458 3450,-1307 4884,-2510 4,-3 8,-6 12,-9zm-9882 -18360c-128,28 -256,57 -382,90 -399,103 -791,234 -1173,390l-43 17c-552,224 -1072,499 -1557,817l11 11c-1024,683 -1922,1586 -2617,2690l-32 -32c-71,110 -139,222 -205,335 -1163,1997 -1564,4438 -928,6850 635,2411 2189,4337 4186,5500 160,94 323,182 489,265l15 -56c1158,594 2392,913 3623,978l-8 33c897,43 1817,-49 2731,-291 433,-114 850,-258 1249,-428l13 -5 42 -18c1190,-506 2280,-1270 3176,-2268l-29 -16c397,-449 749,-936 1050,-1452 333,-571 603,-1178 805,-1811l51 29c543,-1663 576,-3416 154,-5051 -577,-2238 -2010,-4256 -4158,-5522 -865,-510 -1780,-859 -2710,-1057l0 45c-1204,-267 -2479,-289 -3753,-28l0 -15zm-5759 11077l67 -39c-22,-77 -44,-155 -64,-232 -504,-1953 -263,-4099 842,-5974 905,-1534 2248,-2649 3777,-3280 300,-121 612,-224 933,-309 2105,-555 4235,-205 5978,811 1205,702 2225,1721 2923,2980l74 -20c324,585 571,1207 737,1851 149,577 233,1171 249,1770l-70 19c42,1490 -345,2933 -1070,4178 -831,1426 -2107,2593 -3696,3274 -349,146 -709,267 -1074,361 -1953,504 -4099,264 -5974,-842 -637,-376 -1202,-827 -1690,-1336l-62 36c-855,-888 -1512,-1989 -1880,-3248zm-2090 -7975c1584,-2686 4106,-4475 6903,-5197 2797,-723 5870,-378 8556,1205 2685,1584 4474,4106 5197,6903 722,2797 377,5870 -1206,8555 -1583,2686 -4105,4475 -6902,5198 -2798,722 -5871,377 -8556,-1206 -2686,-1583 -4475,-4105 -5198,-6903 -722,-2797 -377,-5870 1206,-8555z" />
            <path fill="#F49911" fill-rule="nonzero" d="M15767 54972l0 -499c-1556,-140 -1572,-240 -1572,-1539l0 -6409c-1127,227 -2108,311 -3370,362l0 451c1454,192 1238,639 1238,1819l0 3777c0,1312 140,1425 -1393,1539l0 499 5097 0zm-3080 -9072c858,0 1498,-674 1498,-1447 0,-855 -640,-1497 -1460,-1497 -826,0 -1537,642 -1537,1497 0,773 711,1447 1499,1447z" />
        </g>
  <path id="interface-icon-planet-info-event-default" fill="#603882" d="M40249 3702l2013 9171c1590,-321 3218,-537 4876,-642l-451 -9376c-2191,131 -4341,417 -6438,847zm-19017 21553l-6893 -5910c-1317,1599 -2527,3289 -3619,5061l7657 4579c829,-1336 1863,-2518 2855,-3730zm-6160 -6778l6967 5879c1058,-1213 2255,-2305 3465,-3367l-5932 -7027c-1603,1398 -3107,2907 -4500,4515zm5366 -5252l6016 7078c1216,-1002 2563,-1852 3905,-2690l-4841 -8044c-1779,1103 -3476,2325 -5080,3656zm6054 -4243l4840 8045c1356,-789 2769,-1492 4229,-2102l-3475 -8722c-1936,800 -3804,1730 -5594,2779zm6650 -3200l3475 8723c1468,-559 2982,-1024 4535,-1389l-2013 -9171c-2056,476 -4059,1092 -5997,1837z"/>
 </g>
</svg>
