<?xml version="1.0" encoding="UTF-8"?>
<!DOCTYPE svg PUBLIC "-//W3C//DTD SVG 1.1//EN" "http://www.w3.org/Graphics/SVG/1.1/DTD/svg11.dtd">
<!-- Creator: CorelDRAW X8 -->
<svg xmlns="http://www.w3.org/2000/svg" xml:space="preserve" width="993px" height="1000px" version="1.1" shape-rendering="geometricPrecision" text-rendering="geometricPrecision" image-rendering="optimizeQuality" fill-rule="evenodd" clip-rule="evenodd"
viewBox="0 0 104257 105158"
 xmlns:xlink="http://www.w3.org/1999/xlink">
 <g id="interface-icon-dm">
  <metadata id="CorelCorpID_0Corel-Layer"/>
  <path id="interface-icon-dm-body" fill="#6315A6" d="M47899 40040c7806,-877 14846,4740 15723,12547 877,7806 -4741,14845 -12547,15722 -7807,877 -14846,-4740 -15723,-12547 -876,-7806 4741,-14845 12547,-15722zm50767 24683c-8069,18477 -29589,26915 -48066,18845 -16346,-7138 -24835,-24802 -20989,-41575 -8372,19610 622,42339 20199,50888 19677,8593 42594,-393 51187,-20070 4716,-10799 4138,-22574 -597,-32421 2158,7791 1753,16346 -1734,24333zm-82904 26768c-11967,-16227 -8514,-39082 7713,-51049 14354,-10588 33897,-9107 46500,2610 -12797,-17056 -36978,-20631 -54171,-7951 -17280,12744 -20957,37084 -8212,54364 6994,9484 17481,14871 28377,15693 -7827,-2026 -15034,-6654 -20207,-13667zm18270 -85181c20037,-2251 38104,12167 40354,32204 1991,17725 -9062,33908 -25510,38965 21168,-2555 36355,-21708 33970,-42937 -2397,-21338 -21637,-36692 -42974,-34295 -11711,1315 -21619,7704 -27780,16729 5669,-5765 13280,-9693 21940,-10666z"/>
 </g>
</svg>
