<?xml version="1.0" encoding="UTF-8"?>
<!DOCTYPE svg PUBLIC "-//W3C//DTD SVG 1.1//EN" "http://www.w3.org/Graphics/SVG/1.1/DTD/svg11.dtd">
<!-- Creator: CorelDRAW 2017 -->
<svg xmlns="http://www.w3.org/2000/svg" xml:space="preserve" width="1000px" height="1000px" version="1.1" shape-rendering="geometricPrecision" text-rendering="geometricPrecision" image-rendering="optimizeQuality" fill-rule="evenodd" clip-rule="evenodd"
viewBox="0 0 100000 100000"
 xmlns:xlink="http://www.w3.org/1999/xlink">
    <g id="interface-icon-star-info">
        <metadata id="CorelCorpID_0Corel-Layer" />
        <g id="interface-icon-star-info-bg-border">
            <circle fill="black" cx="50000" cy="50000" r="50000" />
            <path fill="#1EAFE3" d="M80604 78065l-2276 2254c-203,202 -306,468 -307,733 -1,265 98,531 298,733l2 2c200,203 466,305 731,306 265,1 531,-98 733,-297l2277 -2255c203,-202 306,-467 307,-733 1,-265 -98,-531 -298,-733l-2 -1c-200,-203 -466,-306 -731,-307 -264,-1 -530,98 -734,298zm-22658 -65175l1935 -8186c-1231,-270 -2472,-489 -3719,-658l-1002 8351c933,130 1863,294 2786,493zm2978 -7941l-1870 8200c915,227 1822,487 2720,782l2779 -7940c-1196,-396 -2407,-745 -3629,-1042zm-12881 82937l-213 4345 -199 4056c986,63 1980,95 2981,95 4508,0 8866,-645 12985,-1846l-851 -2757 -875 269c-407,125 -828,73 -1177,-112 -344,-183 -622,-495 -749,-893l-6 -19c-125,-406 -73,-827 112,-1176 182,-344 494,-622 891,-749l20 -7c120,-37 458,-145 868,-276l-716 -2318c-3335,959 -6858,1474 -10502,1474 -863,0 -1720,-29 -2569,-86zm16091 763l-3023 930c-272,83 -485,271 -609,506 -125,235 -161,517 -77,789 84,273 272,487 506,611 236,125 518,160 790,77l3062 -942c272,-84 485,-272 610,-506 122,-231 158,-506 82,-772l-18 -36 0 -20c-88,-254 -270,-454 -494,-572 -235,-125 -518,-161 -790,-77l-39 12zm17717 -8182l1919 1929c7294,-7484 12075,-17429 12982,-28471 42,-512 76,-1025 101,-1542l-8394 -547c-23,510 -56,1017 -99,1522 -765,8938 -4633,16991 -10523,23075l1833 1842 577 -572c301,-298 698,-446 1094,-444 395,2 790,154 1089,455l2 1c298,303 447,700 445,1096 -2,395 -154,791 -455,1089l-571 567zm6600 -32319l8390 -589c-105,-1956 -332,-3879 -672,-5763l-8253 1634c274,1542 454,3117 535,4718z" />
            <path fill="#E97968" d="M89120 24382l-6923 4778c522,785 1014,1590 1476,2414l7416 -3970c-613,-1101 -1269,-2177 -1969,-3222zm-56619 65402c-662,-258 -1414,73 -1672,735 -258,662 72,1415 734,1672l2984 1163c663,259 1415,-72 1673,-734 258,-662 -72,-1414 -734,-1672l-2985 -1164zm-16371 -13060l-1915 -2568c-424,-570 -1237,-688 -1807,-263 -570,424 -689,1238 -264,1807l1915 2568c425,570 1237,688 1807,263 570,-424 689,-1237 264,-1807zm1789 2263c-499,-505 -1321,-509 -1826,-10 -505,500 -509,1322 -10,1827l2254 2277c500,505 1321,509 1827,9 504,-500 509,-1322 9,-1827l-2254 -2276zm4341 4268c-565,-430 -1380,-320 -1810,245 -431,565 -320,1380 245,1810l2548 1941c565,431 1380,321 1810,-245 431,-565 321,-1380 -245,-1810l-2548 -1941zm4893 3623c-620,-348 -1411,-125 -1759,494 -348,620 -125,1411 494,1759l2794 1567c620,348 1411,125 1759,-494 347,-620 125,-1411 -495,-1759l-2793 -1567zm68025 -49339l-8060 2405c253,908 472,1826 657,2753l8280 -1484c-243,-1237 -535,-2463 -877,-3674zm-5645 -2886l-3667 1527c345,875 659,1765 939,2670l3816 -1105c-323,-1049 -686,-2080 -1088,-3092zm-4100 476l3679 -1498c-431,-1008 -901,-1996 -1408,-2961l-3487 1902c436,835 842,1688 1216,2557zm789 -14632l-6385 5476c600,726 1174,1476 1720,2247l6961 -4723c-725,-1032 -1491,-2032 -2296,-3000z" />
            <path fill="#025363" d="M48043 87886c-15064,-1009 -27717,-10823 -32856,-24339l-4096 1469 -3824 1370c741,1970 951,2601 1941,4432l4266 -601c5363,9874 14550,17370 25573,20501l342 4292c3139,741 4925,1067 8243,1277l198 -4056 213 -4345z" />
            <path fill="#4F65B7" fill-rule="nonzero" d="M50612 13484c10031,0 19113,4066 25686,10640 6574,6573 10640,15655 10640,25685 0,10031 -4066,19113 -10640,25686 -6573,6573 -15655,10639 -25686,10639 -10030,0 -19112,-4066 -25685,-10639 -4054,-4054 -7154,-9062 -8935,-14658 550,-135 1084,-310 1599,-523 1698,5342 4656,10123 8525,13992 6269,6269 14930,10146 24496,10146 9567,0 18228,-3877 24497,-10146 6269,-6269 10147,-14930 10147,-24497 0,-9567 -3878,-18228 -10147,-24496 -6269,-6269 -14930,-10147 -24497,-10147 -9566,0 -18227,3878 -24496,10147 -3951,3950 -6951,8850 -8630,14329 -517,-208 -1053,-378 -1605,-507 1762,-5739 4906,-10872 9046,-15011 6573,-6574 15655,-10640 25685,-10640zm0 5043c8638,0 16459,3501 22120,9162 5661,5661 9163,13482 9163,22120 0,8638 -3502,16459 -9163,22120 -5661,5661 -13482,9163 -22120,9163 -8638,0 -16459,-3502 -22120,-9163 -3683,-3684 -6452,-8282 -7937,-13425 494,-421 952,-884 1367,-1383 1331,5236 4057,9916 7760,13619 5356,5356 12756,8670 20930,8670 8175,0 15575,-3314 20931,-8670 5357,-5356 8670,-12757 8670,-20931 0,-8174 -3313,-15574 -8670,-20931 -5356,-5356 -12756,-8669 -20931,-8669 -8174,0 -15574,3313 -20930,8669 -3772,3772 -6531,8558 -7833,13913 -420,-495 -882,-954 -1381,-1369 1462,-5267 4268,-9976 8024,-13733 5661,-5661 13482,-9162 22120,-9162z" />
            <path fill="white" d="M51328 3794l0 6c-238,-4 -477,-6 -716,-6 -903,0 -1800,26 -2690,77l36 465 581 7467 24 313c679,-37 1362,-55 2049,-55 239,0 478,3 716,7l0 137c765,14 1524,51 2278,110l823 -8371c-1024,-84 -2059,-134 -3101,-150zm-40474 22569c-2944,4922 -4998,10436 -5944,16322 2046,-2354 5061,-3842 8424,-3842 314,0 625,13 932,39 885,-2875 2102,-5605 3606,-8144l-7018 -4375zm37685 -14560c329,-13 659,-22 989,-27l-989 27zm14817 2593c6273,2241 11783,6089 16033,11047l6492 -5348c-5241,-6158 -12066,-10926 -19845,-13674l-2680 7975zm33483 33163l-8391 589c32,642 48,1287 48,1937 0,587 -13,1171 -39,1751l8393 547c37,-761 56,-1527 56,-2298 0,-847 -23,-1690 -67,-2526zm-34357 38515l714 2310c455,-140 813,-245 869,-245 394,-110 798,-55 1135,124 345,182 621,494 749,891l18 59c110,396 55,800 -124,1138 -182,344 -494,621 -892,749l-836 257 851 2755c6740,-2196 12799,-5896 17784,-10704l-1920 -1930 -684 677c-303,300 -700,448 -1096,446 -396,-1 -791,-154 -1090,-455l-1 -1c-299,-302 -448,-700 -446,-1095 2,-396 154,-791 455,-1090l680 -674 -1831 -1841c-4030,3862 -8911,6841 -14335,8629zm-48077 -24809l-47 -156c-338,30 -679,47 -1024,47 -910,0 -1794,-110 -2640,-315l-4768 1374c126,463 257,923 396,1379l8083 -2329zm-7080 -1864l-1972 458c101,470 208,936 323,1399l3644 -847c-702,-270 -1370,-610 -1995,-1010zm-2291 -1947l-131 23c77,474 160,945 250,1414l1176 -209c-464,-374 -897,-785 -1295,-1228z" />
        </g>
        <image xmlns="http://www.w3.org/2000/svg" xmlns:xlink="http://www.w3.org/1999/xlink" x="24%" y="24%" width="52%" height="52%" xlink:href="/_svg/interface/interface-icon-jump-to-star-body.svg" />

        <path id="interface-icon-star-info-event-default" fill="#603882" d="M39751 3529l2043 9311c1615,-325 3268,-545 4951,-651l-458 -9520c-2225,133 -4407,423 -6536,860zm-19024 22029l-7284 -6146c-1337,1623 -2566,3339 -3675,5138l8182 4892c842,-1356 1770,-2653 2777,-3884zm-6539 -7028l7284 6147c1074,-1232 2230,-2391 3457,-3469l-6172 -7262c-1628,1419 -3155,2951 -4569,4584zm5448 -5332l6172 7262c1235,-1017 2538,-1956 3900,-2807l-4914 -8168c-1806,1120 -3529,2362 -5158,3713zm6146 -4309l4915 8168c1377,-800 2811,-1514 4294,-2133l-3529 -8856c-1965,812 -3862,1757 -5680,2821zm6752 -3249l3529 8857c1491,-567 3028,-1040 4604,-1410l-2044 -9311c-2087,483 -4120,1108 -6089,1864z" />
        <g id="interface-icon-star-info-i">
            <path fill="black" d="M13196 37744c6769,0 12256,5487 12256,12256 0,6770 -5487,12257 -12256,12257 -6769,0 -12257,-5487 -12257,-12257 0,-6769 5488,-12256 12257,-12256z" />
            <path fill="#4F65B7" d="M21201 59525c1051,-884 1973,-1957 2710,-3207 1745,-2959 2124,-6346 1329,-9428 -86,-332 -186,-662 -299,-986 -934,-2683 -2788,-5063 -5428,-6619 -1537,-906 -3188,-1443 -4853,-1640 -1540,-182 -3092,-71 -4574,311 -358,93 -711,201 -1059,324 -3,1 -6,3 -9,4 -2650,943 -4997,2787 -6538,5399 -1744,2959 -2124,6345 -1328,9427 378,1463 1021,2858 1908,4106 982,1381 2264,2583 3818,3500 2622,1545 5579,2019 8363,1554 358,-60 713,-135 1065,-226 1775,-458 3450,-1307 4884,-2509 4,-4 7,-6 11,-10zm-9882 -18360c-128,28 -255,58 -382,90 -399,103 -790,234 -1172,390l-43 18c-552,223 -1073,498 -1557,816l11 11c-1024,683 -1923,1587 -2618,2690l-31 -31c-71,110 -140,221 -205,334 -1163,1997 -1565,4438 -929,6850 636,2412 2189,4337 4187,5501 160,93 323,182 489,265l15 -57c1158,594 2392,913 3623,979l-9 33c898,42 1817,-50 2732,-292 433,-114 849,-257 1249,-428l12 -5 42 -18c1191,-505 2281,-1269 3177,-2267l-30 -17c398,-449 750,-935 1050,-1451 333,-572 604,-1179 805,-1812l52 29c543,-1663 576,-3416 154,-5051 -577,-2238 -2010,-4255 -4158,-5522 -865,-510 -1780,-859 -2711,-1057l0 45c-1203,-267 -2478,-289 -3753,-28l0 -15zm-5758 11077l67 -39c-23,-77 -44,-154 -64,-232 -504,-1953 -264,-4099 842,-5974 904,-1534 2248,-2649 3776,-3280 301,-121 613,-224 934,-309 2104,-555 4235,-204 5978,811 1205,702 2225,1722 2923,2980l74 -20c323,585 570,1208 737,1851 149,577 233,1171 248,1770l-69 19c41,1490 -345,2933 -1070,4178 -831,1426 -2107,2593 -3697,3274 -349,146 -708,267 -1074,361 -1952,504 -4098,264 -5973,-842 -637,-375 -1202,-827 -1690,-1336l-63 36c-854,-888 -1512,-1988 -1879,-3248zm-2090 -7975c1583,-2686 4105,-4475 6903,-5197 2797,-722 5870,-378 8555,1206 2686,1583 4475,4105 5197,6902 723,2797 378,5870 -1206,8556 -1583,2685 -4105,4475 -6902,5197 -2797,722 -5870,378 -8556,-1206 -2685,-1583 -4474,-4105 -5197,-6903 -722,-2796 -377,-5870 1206,-8555z" />
            <path fill="#F49911" fill-rule="nonzero" d="M15940 55663l0 -498c-1556,-140 -1573,-241 -1573,-1539l0 -6410c-1126,227 -2108,312 -3370,363l0 450c1454,192 1239,639 1239,1819l0 3778c0,1311 140,1425 -1394,1539l0 498 5098 0zm-3080 -9072c858,0 1498,-673 1498,-1447 0,-855 -640,-1497 -1460,-1497 -826,0 -1537,642 -1537,1497 0,774 711,1447 1499,1447z" />
        </g>
    </g>
</svg>
