<?xml version="1.0" encoding="UTF-8"?>
<!DOCTYPE svg PUBLIC "-//W3C//DTD SVG 1.1//EN" "http://www.w3.org/Graphics/SVG/1.1/DTD/svg11.dtd">
<!-- Creator: CorelDRAW X8 -->
<svg xmlns="http://www.w3.org/2000/svg" xml:space="preserve" width="1000px" height="1000px" version="1.1" shape-rendering="geometricPrecision" text-rendering="geometricPrecision" image-rendering="optimizeQuality" fill-rule="evenodd" clip-rule="evenodd"
viewBox="0 0 1000 1000"
 xmlns:xlink="http://www.w3.org/1999/xlink">
 <g id="interface-icon-alliance">
  <metadata id="CorelCorpID_0Corel-Layer"/>
  <circle fill="black" cx="500" cy="500" r="500"/>
  <path fill="white" d="M773 457l10 30 32 0 -26 18 10 30 -26 -18 -25 18 10 -30 -26 -18 32 0 9 -30zm-272 -273l10 30 31 0 -25 19 9 30 -25 -19 -26 19 10 -30 -25 -19 31 0 10 -30zm136 37l10 30 31 0 -25 18 10 30 -26 -18 -25 18 9 -30 -25 -18 31 0 10 -30zm-272 0l9 30 32 0 -26 18 10 30 -25 -18 -26 18 10 -30 -26 -18 32 0 10 -30zm-136 236l9 30 32 0 -26 18 10 30 -25 -18 -26 18 10 -30 -26 -18 32 0 10 -30zm36 136l10 30 31 0 -25 18 10 31 -26 -19 -26 19 10 -31 -25 -18 31 0 10 -30zm100 100l9 30 32 0 -26 18 10 30 -25 -18 -26 18 10 -30 -26 -18 32 0 10 -30zm272 0l10 30 31 0 -25 18 10 30 -26 -18 -25 18 9 -30 -25 -18 31 0 10 -30zm100 -100l10 30 31 0 -25 18 9 31 -25 -19 -26 19 10 -31 -25 -18 31 0 10 -30z"/>
  <path fill="#E31E24" fill-rule="nonzero" d="M501 293c57,0 109,23 147,60 37,38 61,90 61,147 0,57 -24,109 -61,147 -38,37 -90,61 -147,61 -57,0 -109,-24 -147,-61 -37,-38 -61,-90 -61,-147 0,-57 24,-109 61,-147 38,-37 90,-60 147,-60zm7 -140c93,2 176,40 238,101 61,62 99,145 101,238l36 0 0 16 -36 0c-2,93 -40,176 -101,238 -62,61 -145,99 -238,101l0 36 -16 0 0 -36c-93,-2 -176,-40 -238,-101 -61,-62 -99,-145 -101,-238l-36 0 0 -16 36 0c2,-93 40,-176 101,-238 62,-61 145,-99 238,-101l0 -36 16 0 0 36zm226 113c-60,-60 -143,-97 -234,-97 -91,0 -174,37 -234,97 -60,60 -97,143 -97,234 0,91 37,174 97,234 60,60 143,97 234,97 91,0 174,-37 234,-97 60,-60 97,-143 97,-234 0,-91 -37,-174 -97,-234zm-94 95c-36,-36 -85,-58 -139,-58 -54,0 -104,22 -139,58 -36,36 -58,85 -58,139 0,54 22,104 58,139 35,36 85,58 139,58 54,0 103,-22 139,-58 36,-35 58,-85 58,-139 0,-54 -22,-103 -58,-139z"/>
  <path fill="#4F65B7" fill-rule="nonzero" d="M500 25c131,0 250,53 336,139 86,86 139,205 139,336 0,131 -53,250 -139,336 -86,86 -205,139 -336,139 -131,0 -250,-53 -336,-139 -86,-86 -139,-205 -139,-336 0,-90 25,-173 68,-245l14 8c-42,69 -66,150 -66,237 0,127 51,242 134,325 83,83 198,134 325,134 127,0 242,-51 325,-134 83,-83 134,-198 134,-325 0,-127 -51,-242 -134,-325 -83,-83 -198,-134 -325,-134 -8,0 -16,0 -24,0l-1 -16c9,0 17,0 25,0z"/>
  <path fill="#FEFEFE" fill-rule="nonzero" d="M510 50c121,3 229,53 308,132 79,79 129,187 132,308l-12 0c0,-17 -1,-34 -3,-50l-32 0 0 0c-13,-88 -55,-168 -115,-228 -60,-60 -140,-102 -228,-115l0 0 0 -32c-16,-2 -33,-3 -50,-3l0 -12zm440 460c-3,121 -53,229 -132,308 -79,79 -187,129 -308,132l0 -11c17,-1 34,-2 50,-4l0 -32 0 0c88,-13 168,-55 228,-115 60,-60 102,-140 115,-228l0 0 32 0c2,-16 3,-33 3,-50l12 0zm-460 440c-121,-3 -229,-53 -308,-132 -79,-79 -129,-187 -132,-308l12 0c0,17 1,34 3,50l32 0 0 0c13,88 55,168 115,228 60,60 140,102 228,115l0 0 0 32c16,2 33,3 50,4l0 11zm-440 -460c2,-82 25,-157 65,-223l37 21c-28,46 -47,97 -55,152l0 0 -32 0c-2,16 -3,33 -3,50l-12 0zm427 -439c4,-1 8,-1 13,-1l0 12c-5,0 -9,0 -13,0l0 -11z"/>
  <path fill="#177798" d="M75 454l34 0c7,-58 26,-112 55,-159l22 12c23,-36 51,-69 85,-95 18,-15 38,-28 59,-39 42,-22 90,-36 140,-41l0 3 0 7c-175,14 -314,153 -328,328l-68 0c0,-5 1,-10 1,-16zm426 -183c63,0 120,26 162,67 41,42 67,99 67,162 0,63 -26,120 -67,162 -42,41 -99,67 -162,67 -63,0 -120,-26 -162,-67 -41,-42 -67,-99 -67,-162 0,-63 26,-120 67,-162 42,-41 99,-67 162,-67zm151 78c-39,-38 -92,-62 -151,-62 -59,0 -112,24 -151,62 -39,39 -62,92 -62,151 0,59 23,112 62,151 39,39 92,62 151,62 59,0 112,-23 151,-62 38,-39 62,-92 62,-151 0,-59 -24,-112 -62,-151zm-122 -275c4,0 8,1 12,1l0 34c183,19 328,163 349,345l34 0c0,6 1,11 1,16l-68 0c-14,-175 -153,-314 -328,-328l0 -68zm396 456c0,5 -1,11 -1,16l-34 0c-21,182 -166,326 -349,345l0 34c-4,0 -8,1 -12,1l0 -68c175,-14 314,-153 328,-328l68 0zm-456 396c-6,0 -13,-1 -19,-2l0 -33c-179,-23 -321,-166 -342,-345l-34 0c0,-5 -1,-11 -1,-16l68 0c14,175 153,314 328,328l0 68z"/>
  <path fill="#1EAFE3" fill-rule="nonzero" stroke="#1EAFE3" stroke-width="15.3062" d="M379 610l106 -277 40 0 113 277 -42 0 -32 -84 -116 0 -30 84 -39 0zm79 -114l95 0 -29 -76c-9,-24 -15,-43 -20,-58 -4,18 -9,35 -15,53l-31 81z"/>
  <path id="interface-icon-alliance-active" fill="#603882" d="M397 37l20 91c16,-3 33,-5 49,-6l-4 -94c-22,2 -44,4 -65,9zm-187 217l-72 -61c-13,16 -25,33 -36,51l81 48c8,-13 17,-26 27,-38zm-65 -69l72 60c11,-12 22,-23 34,-34l-61 -72c-16,14 -31,29 -45,46zm54 -53l61 72c12,-10 25,-20 38,-28l-48 -81c-18,11 -35,24 -51,37zm61 -42l48 80c14,-8 28,-15 42,-21l-34 -87c-20,8 -38,17 -56,28zm66 -32l35 87c15,-6 30,-10 45,-14l-20 -92c-20,5 -40,11 -60,19z"/>
 </g>
</svg>
