<?xml version="1.0" encoding="UTF-8"?>
<!DOCTYPE svg PUBLIC "-//W3C//DTD SVG 1.1//EN" "http://www.w3.org/Graphics/SVG/1.1/DTD/svg11.dtd">
<!-- Creator: CorelDRAW X8 -->
<svg xmlns="http://www.w3.org/2000/svg" xml:space="preserve" width="1000px" height="1000px" version="1.1" shape-rendering="geometricPrecision" text-rendering="geometricPrecision" image-rendering="optimizeQuality" fill-rule="evenodd" clip-rule="evenodd"
viewBox="0 0 100000 100000"
 xmlns:xlink="http://www.w3.org/1999/xlink">
 <g id="interface-icon-jump-to-star">
  <metadata id="CorelCorpID_0Corel-Layer"/>
  <g id="interface-icon-jump-to-star-bg-border">
   <circle fill="black" cx="50000" cy="50000" r="50000"/>
   <path fill="#1EAFE3" d="M80604 78065l-2276 2254c-203,202 -306,468 -307,733 -1,265 98,531 298,733l2 2c200,203 466,305 731,306 265,1 531,-98 733,-297l2277 -2255c203,-202 306,-467 307,-733 1,-265 -98,-531 -298,-733l-2 -1c-200,-203 -466,-306 -731,-307 -264,-1 -530,98 -734,298zm-22658 -65175l1935 -8186c-1231,-270 -2472,-489 -3719,-658l-1002 8351c933,130 1863,294 2786,493zm2978 -7941l-1870 8200c915,227 1822,487 2720,782l2779 -7940c-1196,-396 -2407,-745 -3629,-1042zm-12881 82937l-213 4345 -199 4056c986,63 1980,95 2981,95 4508,0 8866,-645 12985,-1846l-851 -2757 -875 269c-407,125 -828,73 -1177,-112 -344,-183 -622,-495 -749,-893l-6 -19c-125,-406 -73,-827 112,-1176 182,-344 494,-622 891,-749l20 -7c120,-37 458,-145 868,-276l-716 -2318c-3335,959 -6858,1474 -10502,1474 -863,0 -1720,-29 -2569,-86zm16091 763l-3023 930c-272,83 -485,271 -609,506 -125,235 -161,517 -77,789 84,273 272,487 506,611 236,125 518,160 790,77l3062 -942c272,-84 485,-272 610,-506 122,-231 158,-506 82,-772l-18 -36 0 -20c-88,-254 -270,-454 -494,-572 -235,-125 -518,-161 -790,-77l-39 12zm17717 -8182l1919 1929c7294,-7484 12075,-17429 12982,-28471 42,-512 76,-1025 101,-1542l-8394 -547c-23,510 -56,1017 -99,1522 -765,8938 -4633,16991 -10523,23075l1833 1842 577 -572c301,-298 698,-446 1094,-444 395,2 790,154 1089,455l2 1c298,303 447,700 445,1096 -2,395 -154,791 -455,1089l-571 567zm6600 -32319l8390 -589c-105,-1956 -332,-3879 -672,-5763l-8253 1634c274,1542 454,3117 535,4718z"/>
   <path fill="#E97968" d="M89120 24382l-6923 4778c522,785 1014,1590 1476,2414l7416 -3970c-613,-1101 -1269,-2177 -1969,-3222zm-56619 65402c-662,-258 -1414,73 -1672,735 -258,662 72,1415 734,1672l2984 1163c663,259 1415,-72 1673,-734 258,-662 -72,-1414 -734,-1672l-2985 -1164zm-16371 -13060l-1915 -2568c-424,-570 -1237,-688 -1807,-263 -570,424 -689,1238 -264,1807l1915 2568c425,570 1237,688 1807,263 570,-424 689,-1237 264,-1807zm1789 2263c-499,-505 -1321,-509 -1826,-10 -505,500 -509,1322 -10,1827l2254 2277c500,505 1321,509 1827,9 504,-500 509,-1322 9,-1827l-2254 -2276zm4341 4268c-565,-430 -1380,-320 -1810,245 -431,565 -320,1380 245,1810l2548 1941c565,431 1380,321 1810,-245 431,-565 321,-1380 -245,-1810l-2548 -1941zm4893 3623c-620,-348 -1411,-125 -1759,494 -348,620 -125,1411 494,1759l2794 1567c620,348 1411,125 1759,-494 347,-620 125,-1411 -495,-1759l-2793 -1567zm68025 -49339l-8060 2405c253,908 472,1826 657,2753l8280 -1484c-243,-1237 -535,-2463 -877,-3674zm-5645 -2886l-3667 1527c345,875 659,1765 939,2670l3816 -1105c-323,-1049 -686,-2080 -1088,-3092zm-4100 476l3679 -1498c-431,-1008 -901,-1996 -1408,-2961l-3487 1902c436,835 842,1688 1216,2557zm789 -14632l-6385 5476c600,726 1174,1476 1720,2247l6961 -4723c-725,-1032 -1491,-2032 -2296,-3000z"/>
   <path fill="#025363" d="M48043 87886c-15064,-1009 -27717,-10823 -32856,-24339l-4096 1469 -3824 1370c741,1970 951,2601 1941,4432l4266 -601c5363,9874 14550,17370 25573,20501l342 4292c3139,741 4925,1067 8243,1277l198 -4056 213 -4345z"/>
   <path fill="#4F65B7" fill-rule="nonzero" d="M50612 13484c10031,0 19113,4066 25686,10640 6574,6573 10640,15655 10640,25685 0,10031 -4066,19113 -10640,25686 -6573,6573 -15655,10639 -25686,10639 -10030,0 -19112,-4066 -25685,-10639 -4054,-4054 -7076,-8820 -8857,-14417 658,-176 937,-216 1574,-598 1698,5343 4603,9957 8472,13826 6269,6269 14930,10146 24496,10146 9567,0 18228,-3877 24497,-10146 6269,-6269 10147,-14930 10147,-24497 0,-9567 -3878,-18228 -10147,-24496 -6269,-6269 -14930,-10147 -24497,-10147 -9566,0 -18227,3878 -24496,10147 -3951,3950 -6890,8716 -8570,14194 -517,-207 -1052,-439 -1604,-568 1762,-5739 4845,-10676 8985,-14815 6573,-6574 15655,-10640 25685,-10640zm0 5043c8638,0 16459,3501 22120,9162 5661,5661 9163,13482 9163,22120 0,8638 -3502,16459 -9163,22120 -5661,5661 -13482,9163 -22120,9163 -8638,0 -16459,-3502 -22120,-9163 -3683,-3684 -6393,-8078 -7878,-13221 495,-420 947,-878 1362,-1378 1331,5237 4003,9707 7706,13410 5356,5356 12756,8670 20930,8670 8175,0 15575,-3314 20931,-8670 5357,-5356 8670,-12757 8670,-20931 0,-8174 -3313,-15574 -8670,-20931 -5356,-5356 -12756,-8669 -20931,-8669 -8174,0 -15574,3313 -20930,8669 -3772,3772 -6464,8285 -7766,13640 -419,-495 -891,-886 -1390,-1302 1462,-5267 4210,-9770 7966,-13527 5661,-5661 13482,-9162 22120,-9162z"/>
   <path fill="white" d="M5110 57916l-130 23c76,474 83,483 173,952l673 -120c-464,-374 -317,-412 -716,-855zm46218 -54122l0 6c-238,-4 -477,-6 -716,-6 -903,0 -1800,26 -2690,77l36 465 581 7467 24 313c679,-37 1362,-55 2049,-55 239,0 478,3 716,7l0 137c765,14 1524,51 2278,110l823 -8371c-1024,-84 -2059,-134 -3101,-150zm12028 10602c6273,2241 11783,6089 16033,11047l6492 -5348c-5241,-6158 -12066,-10926 -19845,-13674l-2680 7975zm33483 33163l-8391 589c32,642 48,1287 48,1937 0,587 -13,1171 -39,1751l8393 547c37,-761 56,-1527 56,-2298 0,-847 -23,-1690 -67,-2526zm-34357 38515l714 2310c455,-140 813,-245 869,-245 394,-110 798,-55 1135,124 345,182 621,494 749,891l18 59c110,396 55,800 -124,1138 -182,344 -494,621 -892,749l-836 257 851 2755c6740,-2196 12799,-5896 17784,-10704l-1920 -1930 -684 677c-303,300 -700,448 -1096,446 -396,-1 -791,-154 -1090,-455l-1 -1c-299,-302 -448,-700 -446,-1095 2,-396 154,-791 455,-1090l680 -674 -1831 -1841c-4030,3862 -8911,6841 -14335,8629zm-51628 -59711c-2944,4922 -4833,9683 -5778,15568 2045,-2353 6585,-3842 8423,-3842 1839,0 625,14 932,39 886,-2875 1937,-4851 3441,-7390l-7018 -4375zm2863 35100l-229 -95c-338,31 -214,-14 -842,-14 -627,0 -1794,-109 -2640,-315l-4080 1176c126,463 257,923 396,1379l7395 -2131zm-6838 -1958l-1526 354c101,470 208,936 323,1399l3198 -743c-702,-270 -1370,-610 -1995,-1010z"/>
   <path fill="white" d="M48539 11803c329,-13 659,-22 989,-27l-989 27z"/>
  </g>
<image xmlns="http://www.w3.org/2000/svg" xmlns:xlink="http://www.w3.org/1999/xlink" x="24%" y="24%" width="52%" height="52%" xlink:href="/_svg/interface/interface-icon-jump-to-star-body.svg"/>
  
  <g id="interface-icon-jump-to-star-play">
   <path id="interface-icon-star-info-play-1" fill="#4F65B7" d="M7471 43063c-220,183 -433,376 -635,579 -1635,1634 -2646,3893 -2646,6387 0,2494 1011,4753 2646,6388 214,214 439,418 674,610 -59,250 -54,508 11,750 102,379 349,720 717,933l57 32c354,185 750,219 1110,123 244,-66 472,-191 660,-370 983,367 2047,567 3158,567 2495,0 4753,-1011 6388,-2645 1311,-1311 2221,-3024 2529,-4938 246,-75 467,-209 644,-386 278,-279 451,-663 451,-1087 0,-425 -173,-809 -452,-1088 -179,-178 -401,-314 -650,-387 -316,-1894 -1222,-3590 -2522,-4889 -1634,-1635 -3893,-2646 -6388,-2646 -1128,0 -2208,207 -3204,585 -188,-176 -413,-299 -655,-364 -359,-96 -755,-62 -1108,123l-58 31c-368,213 -615,554 -717,934 -65,244 -71,505 -10,758zm-5539 6966c0,-3118 1264,-5941 3307,-7984 2043,-2043 4866,-3307 7984,-3307 3118,0 5941,1264 7984,3307 2043,2043 3307,4866 3307,7984 0,3118 -1264,5941 -3307,7984 -2043,2043 -4866,3307 -7984,3307 -3118,0 -5941,-1264 -7984,-3307 -2043,-2043 -3307,-4866 -3307,-7984zm23026 4140c458,-1295 706,-2688 706,-4140 0,-3435 -1393,-6546 -3644,-8797 -243,-243 -496,-476 -758,-698 -2168,-1837 -4974,-2946 -8039,-2946 -1784,0 -3480,376 -5014,1052 -1420,626 -2701,1510 -3783,2592 -261,261 -510,534 -747,817 -2,2 -4,5 -7,7 -1804,2159 -2890,4940 -2890,7973 0,3436 1393,6546 3644,8797 1069,1069 2331,1944 3730,2568 1548,692 3263,1076 5067,1076 3044,0 5832,-1094 7995,-2908 278,-234 546,-479 802,-736 1297,-1297 2308,-2878 2934,-4643 1,-5 3,-9 4,-14zm-15338 -10334c-625,362 -1425,147 -1786,-478 -362,-626 -147,-1426 478,-1787 626,-361 1426,-147 1787,479 361,625 147,1425 -479,1786zm-4280 6194c0,-2177 882,-4148 2309,-5574 158,-158 322,-310 493,-454 133,84 277,147 427,187 379,102 798,58 1166,-154 368,-213 615,-554 717,-933 41,-153 58,-313 51,-473 848,-312 1764,-482 2720,-482 2177,0 4148,882 5575,2309 1116,1116 1899,2566 2187,4187 -139,73 -266,166 -376,276 -278,279 -451,663 -451,1088 0,424 173,808 451,1087 112,113 241,207 383,281 -281,1638 -1068,3103 -2194,4229 -1427,1427 -3398,2309 -5575,2309 -941,0 -1843,-164 -2680,-467 7,-157 -11,-314 -51,-464 -101,-380 -349,-721 -717,-933 -368,-212 -787,-256 -1166,-155 -153,41 -299,106 -433,192 -183,-153 -359,-313 -527,-482 -1427,-1426 -2309,-3397 -2309,-5574zm3012 8483c-625,-361 -839,-1161 -478,-1787 361,-626 1161,-840 1787,-479 625,361 840,1161 479,1787 -362,626 -1162,840 -1788,479zm13345 -7198c-723,0 -1309,-586 -1309,-1308 0,-723 586,-1308 1309,-1308 722,0 1308,585 1308,1308 0,722 -586,1308 -1308,1308z"/>
   <path id="interface-icon-star-info-play-arrow-1" fill="#E31E24" d="M10489 45294l2 9468 8198 -4732 -7338 -4238 -862 -498zm1149 1988l2379 1373 2380 1373 -4761 2750 2 -5496z"/>
   <polygon id="interface-icon-star-info-play-arrow-2" fill="#E97968" points="11638,47282 11636,52778 16397,50028 14017,48655 "/>
   <path id="interface-icon-star-info-play-2" fill="#FEFEFE" d="M21697 48698c-723,0 -1309,585 -1309,1308 0,722 586,1308 1309,1308 722,0 1308,-586 1308,-1308 0,-723 -586,-1308 -1308,-1308zm-12077 -4863c626,-361 840,-1161 479,-1786 -361,-626 -1161,-840 -1787,-479 -625,361 -840,1161 -478,1787 361,625 1161,840 1786,478zm520 14198c361,-626 146,-1426 -479,-1787 -626,-361 -1426,-147 -1787,479 -361,626 -147,1426 478,1787 626,361 1426,147 1788,-479z"/>
  </g>
  <path id="interface-icon-jump-to-star-event-default" fill="#603882" d="M39751 3529l2043 9311c1615,-325 3268,-545 4951,-651l-458 -9520c-2225,133 -4407,423 -6536,860zm-19024 22029l-7284 -6146c-1337,1623 -2566,3339 -3675,5138l8182 4892c842,-1356 1770,-2653 2777,-3884zm-6539 -7028l7284 6147c1074,-1232 2230,-2391 3457,-3469l-6172 -7262c-1628,1419 -3155,2951 -4569,4584zm5448 -5332l6172 7262c1235,-1017 2538,-1956 3900,-2807l-4914 -8168c-1806,1120 -3529,2362 -5158,3713zm6146 -4309l4915 8168c1377,-800 2811,-1514 4294,-2133l-3529 -8856c-1965,812 -3862,1757 -5680,2821zm6752 -3249l3529 8857c1491,-567 3028,-1040 4604,-1410l-2044 -9311c-2087,483 -4120,1108 -6089,1864z"/>
 </g>
</svg>
