<?xml version="1.0" encoding="UTF-8"?>
<!DOCTYPE svg PUBLIC "-//W3C//DTD SVG 1.1//EN" "http://www.w3.org/Graphics/SVG/1.1/DTD/svg11.dtd">
<!-- Creator: CorelDRAW X8 -->
<svg xmlns="http://www.w3.org/2000/svg" xml:space="preserve" width="1000px" height="1000px" version="1.1" shape-rendering="geometricPrecision" text-rendering="geometricPrecision" image-rendering="optimizeQuality" fill-rule="evenodd" clip-rule="evenodd"
viewBox="0 0 100000 100000"
 xmlns:xlink="http://www.w3.org/1999/xlink">
 <g id="interface-icon-jump-to-mother">
  <metadata id="CorelCorpID_0Corel-Layer"/>
  <g id="interface-icon-jump-to-mother-bg-border">
   <circle fill="black" cx="50000" cy="50000" r="50000"/>
   <path fill="#4F65B7" d="M47613 88789l-216 4416 -202 4124c1002,63 2012,96 3030,96 4582,0 9012,-655 13200,-1876l-2525 -8172c-3390,976 -6971,1499 -10675,1499 -878,0 -1749,-29 -2612,-87zm41076 -40395l8529 -599c-107,-1988 -337,-3943 -684,-5858l-8388 1661c277,1568 460,3168 543,4796zm8541 4305l-8532 -557c-24,519 -58,1035 -102,1548 -777,9086 -4709,17272 -10696,23456l6030 6062c7415,-7608 12275,-17717 13197,-28941 43,-520 77,-1043 103,-1568z"/>
   <path fill="#FEFEFE" d="M50952 3307l0 6c-242,-4 -484,-6 -727,-6 -918,0 -1830,26 -2735,78l37 472 590 7591 25 318c690,-37 1384,-55 2083,-55 243,0 485,2 727,6l0 140c778,14 1550,52 2316,112l837 -8510c-1042,-85 -2093,-136 -3153,-152zm-41143 22941c-3084,5159 -5209,10957 -6128,17149 2109,-2884 5518,-4758 9364,-4758 112,0 224,3 336,6 890,-2802 2091,-5465 3562,-7949l-7134 -4448zm38308 -14800c334,-13 670,-22 1006,-27l-1006 27zm15063 2636c6376,2278 11977,6189 16297,11230l6599 -5437c-5328,-6259 -12265,-11106 -20173,-13900l-2723 8107zm34035 33711l-8529 599c33,652 49,1309 49,1969 0,597 -13,1190 -40,1779l8532 557c38,-774 57,-1552 57,-2336 0,-862 -23,-1718 -69,-2568zm-34924 39152l2525 8171c6851,-2232 13011,-5994 18077,-10881l-6030 -6062c-406,389 -820,769 -1242,1140l1097 1328 -1319 1090 -1089 -1318c-329,264 -662,523 -1000,776l978 1390 -1399 985 -970 -1379c-347,238 -699,469 -1054,695l856 1440 -1471 874 -848 -1428c-366,210 -734,414 -1107,613l731 1480 -1534 757 -725 -1467c-422,201 -848,395 -1279,581l600 1510 -1590 632 -595 -1499c-532,202 -1069,393 -1612,572zm-30476 3772l3033 1182c674,262 1009,1027 747,1700 -262,673 -1027,1009 -1700,747l-3034 -1183c-673,-262 -1009,-1027 -746,-1700 262,-673 1027,-1009 1700,-746zm3780 2882l0 0zm-5480 -2136l0 0zm-3738 -3701l2840 1593c630,353 856,1158 503,1788 -354,629 -1158,856 -1788,502l-2840 -1593c-629,-353 -856,-1158 -502,-1788 353,-629 1157,-855 1787,-502zm3343 3381l0 0zm-5130 -2879l0 0zm-3186 -4185l2591 1973c574,438 686,1266 248,1840 -437,575 -1265,687 -1840,250l-2590 -1974c-575,-437 -687,-1265 -249,-1840 438,-574 1265,-686 1840,-249zm2839 3813l0 0zm-4679 -3564l0 0zm-2572 -4588l2290 2314c508,514 504,1349 -9,1857 -514,509 -1349,504 -1857,-9l-2291 -2314c-508,-514 -504,-1349 10,-1857 513,-508 1349,-504 1857,9zm2281 4171l0 0zm-4138 -4180l0 0zm-1909 -4901l1947 2610c431,579 311,1406 -268,1838 -580,431 -1406,311 -1838,-268l-1946 -2611c-432,-579 -311,-1405 268,-1837 579,-432 1406,-311 1837,268zm1679 4448l0 0zm-3516 -4716l0 0zm-1784 -13256l-4805 1385c128,471 262,938 403,1403l7873 -2269 -31 0c-1198,0 -2353,-181 -3440,-519zm-3143 -1530l-2244 521c102,477 212,951 328,1421l3805 -883c-665,-295 -1297,-650 -1889,-1059zm-2210 -1988l-491 87c77,482 161,961 253,1438l1500 -267c-452,-387 -874,-807 -1262,-1258z"/>
   <path fill="#26526A" d="M47613 88789c-2334,-156 -4610,-521 -6812,-1075 58,-254 47,-525 -46,-789 -95,-272 -265,-497 -479,-660 -370,-282 -870,-379 -1341,-213 -421,148 -730,474 -870,864 -382,-127 -761,-260 -1137,-399 89,-251 109,-529 43,-807 -67,-281 -212,-523 -408,-707 -338,-320 -825,-468 -1311,-352 -441,104 -784,403 -962,783 -367,-167 -730,-340 -1090,-517 120,-243 172,-523 134,-812 -37,-287 -156,-542 -331,-746 -303,-353 -772,-551 -1268,-487 -453,59 -828,323 -1045,688 -346,-205 -689,-414 -1028,-629 148,-231 230,-507 223,-802 -7,-289 -99,-556 -252,-777 -264,-382 -710,-628 -1209,-616 -460,11 -863,238 -1116,581 -323,-240 -642,-484 -957,-734 173,-215 287,-483 311,-780 23,-288 -41,-563 -170,-799 -223,-408 -640,-699 -1138,-739 -461,-38 -888,148 -1176,466 -296,-272 -587,-549 -875,-830 198,-196 340,-453 396,-748 53,-284 18,-564 -85,-812 -179,-429 -564,-763 -1055,-855 -457,-85 -903,57 -1222,346 -267,-302 -528,-608 -784,-918 219,-175 390,-417 476,-707 83,-276 77,-558 0,-816 -133,-445 -481,-817 -960,-960 -446,-133 -907,-38 -1255,219 -1877,-2640 -3430,-5526 -4600,-8602l-4163 1492 -3887 1394c753,2002 965,2644 1973,4505l4336 -611c5452,10037 14790,17656 25995,20840l348 4363c3191,753 5007,1084 8379,1298l202 -4124 216 -4416zm47915 -51179l-8194 2444c257,924 480,1857 668,2798l8417 -1508c-247,-1258 -545,-2503 -891,-3734zm-5739 -2934l-3728 1552c351,889 670,1795 955,2715l3879 -1124c-329,-1066 -698,-2115 -1106,-3143zm-4168 484l3740 -1523c-439,-1025 -916,-2029 -1431,-3010l-3545 1934c443,848 856,1715 1236,2599zm803 -14874l-6491 5566c610,739 1193,1501 1748,2284l7076 -4801c-737,-1049 -1516,-2066 -2333,-3049zm2945 3949l-7037 4857c530,798 1030,1617 1500,2454l7539 -4035c-624,-1120 -1291,-2213 -2002,-3276z"/>
   <path fill="#E31E24" fill-rule="nonzero" d="M50463 13431c612,0 1221,16 1825,45 265,486 760,835 1353,888 594,52 1144,-205 1489,-639 330,42 659,88 986,139 212,513 668,914 1254,1029 587,114 1162,-86 1551,-484 323,76 644,156 963,241 155,534 568,982 1140,1158 572,175 1166,36 1595,-320 312,109 622,222 930,339 98,549 462,1039 1013,1273 550,235 1155,158 1618,-150 300,142 597,287 891,437 42,554 353,1078 875,1368 522,290 1129,278 1622,22 284,172 565,349 843,530 -15,554 239,1106 727,1448 488,342 1091,394 1607,192 265,202 528,408 787,617 -72,549 123,1122 572,1513 448,391 1042,506 1575,360 268,252 532,507 791,767 6656,6655 10773,15851 10773,26007 0,10156 -4117,19351 -10773,26006 -6655,6656 -15851,10773 -26007,10773 -3158,0 -6223,-398 -9148,-1147 -160,-533 -576,-979 -1150,-1150 -573,-171 -1166,-27 -1592,332 -313,-107 -624,-218 -933,-333 -102,-547 -470,-1034 -1022,-1264 -553,-230 -1156,-149 -1618,163 -300,-140 -598,-282 -894,-430 -45,-554 -360,-1076 -885,-1362 -524,-286 -1131,-270 -1621,-9 -286,-171 -568,-346 -848,-524 11,-554 -247,-1104 -738,-1443 -490,-338 -1094,-386 -1609,-180 -267,-200 -530,-404 -791,-611 68,-549 -132,-1121 -583,-1508 -452,-388 -1047,-498 -1579,-348 -245,-228 -487,-458 -725,-691 124,-539 -15,-1128 -423,-1561 -409,-432 -989,-604 -1534,-510 -219,-251 -436,-506 -649,-763 180,-523 104,-1124 -257,-1596 -362,-474 -922,-706 -1475,-668 -2100,-2977 -3768,-6279 -4916,-9815 504,-108 996,-248 1473,-418 1740,5332 4717,10106 8592,13981 6379,6379 15192,10324 24925,10324 9734,0 18547,-3945 24925,-10324 6378,-6378 10324,-15191 10324,-24924 0,-9734 -3946,-18547 -10324,-24925 -6378,-6379 -15191,-10324 -24925,-10324 -9733,0 -18546,3945 -24925,10324 -3885,3885 -6867,8673 -8605,14022 -478,-170 -970,-309 -1474,-416 1811,-5605 4930,-10621 8997,-14688 6656,-6656 15851,-10773 26007,-10773z"/>
  </g>
  <image x="20%" y="20%" width="60%" height="60%" xlink:href="/_svg/interface/interface-icon-jump-to-mother-body.svg"/>
  <g id="interface-icon-jump-to-mother-play">
   <path id="interface-icon-jump-to-mother-play-1" fill="#4F65B7" d="M7293 43267c-221,183 -433,376 -636,579 -1634,1634 -2646,3893 -2646,6387 0,2495 1012,4754 2646,6388 214,214 440,418 675,610 -60,250 -54,508 11,750 102,379 349,721 716,933l58 32c354,185 749,219 1109,123 244,-65 472,-191 661,-370 983,367 2047,568 3158,568 2494,0 4753,-1011 6388,-2646 1311,-1311 2220,-3024 2529,-4938 246,-74 466,-209 644,-386 278,-279 450,-663 450,-1087 0,-424 -172,-809 -451,-1087 -179,-179 -402,-314 -650,-388 -317,-1894 -1222,-3590 -2522,-4889 -1635,-1635 -3894,-2646 -6388,-2646 -1129,0 -2209,207 -3205,585 -187,-176 -413,-299 -654,-364 -360,-96 -755,-62 -1109,123l-57 31c-368,213 -616,555 -718,934 -65,244 -70,505 -9,758zm-5539 6966c0,-3118 1264,-5940 3307,-7983 2043,-2044 4866,-3308 7984,-3308 3118,0 5941,1264 7984,3308 2043,2043 3307,4865 3307,7983 0,3118 -1264,5941 -3307,7984 -2043,2043 -4866,3307 -7984,3307 -3118,0 -5941,-1264 -7984,-3307 -2043,-2043 -3307,-4866 -3307,-7984zm23026 4140c457,-1295 706,-2688 706,-4140 0,-3435 -1393,-6545 -3644,-8797 -243,-243 -496,-476 -759,-698 -2168,-1837 -4974,-2945 -8038,-2945 -1784,0 -3480,375 -5014,1051 -1420,626 -2701,1510 -3783,2592 -261,261 -511,534 -748,817 -2,3 -4,5 -6,8 -1804,2159 -2890,4939 -2890,7972 0,3436 1393,6546 3644,8797 1068,1069 2330,1944 3729,2568 1548,692 3263,1076 5068,1076 3044,0 5832,-1093 7994,-2908 278,-234 546,-479 803,-736 1296,-1296 2308,-2878 2933,-4643 2,-5 4,-9 5,-14zm-15338 -10333c-625,361 -1425,147 -1787,-479 -361,-626 -147,-1426 479,-1787 625,-361 1426,-147 1787,479 361,625 147,1425 -479,1787zm-4281 6193c0,-2176 883,-4148 2309,-5574 158,-158 323,-309 494,-454 132,84 276,147 426,187 380,102 799,58 1166,-154 368,-212 616,-554 717,-933 42,-153 59,-313 51,-473 848,-312 1765,-482 2721,-482 2176,0 4148,882 5574,2309 1117,1116 1900,2566 2188,4187 -140,73 -267,167 -377,277 -277,278 -450,663 -450,1087 0,424 173,808 450,1088 113,112 242,206 384,280 -281,1638 -1069,3103 -2195,4230 -1426,1426 -3398,2309 -5574,2309 -941,0 -1844,-165 -2680,-468 6,-157 -11,-314 -51,-464 -102,-379 -349,-721 -718,-933 -367,-212 -786,-256 -1166,-155 -152,42 -298,106 -433,192 -182,-152 -358,-313 -527,-481 -1426,-1427 -2309,-3398 -2309,-5575zm3013 8483c-625,-361 -840,-1161 -479,-1787 362,-626 1162,-840 1787,-479 626,361 840,1161 479,1787 -361,626 -1161,840 -1787,479zm13344 -7198c-722,0 -1308,-586 -1308,-1308 0,-722 586,-1308 1308,-1308 723,0 1308,586 1308,1308 0,722 -585,1308 -1308,1308z"/>
   <path id="interface-icon-jump-to-mother-play-arrow-1" fill="#E31E24" d="M10310 45498l2 9468 8198 -4732 -7338 -4238 -862 -498zm1150 1988l2378 1373 2381 1373 -4762 2751 3 -5497z"/>
   <polygon id="interface-icon-jump-to-mother-play-arrow-2" fill="#E97968" points="11460,47486 11457,52983 16219,50232 13838,48859 "/>
   <path id="interface-icon-jump-to-mother-play-2" fill="#FEFEFE" d="M21518 48902c-722,0 -1308,586 -1308,1308 0,722 586,1308 1308,1308 723,0 1308,-586 1308,-1308 0,-722 -585,-1308 -1308,-1308zm-12076 -4862c626,-362 840,-1162 479,-1787 -361,-626 -1162,-840 -1787,-479 -626,361 -840,1161 -479,1787 362,626 1162,840 1787,479zm519 14197c361,-626 147,-1426 -479,-1787 -625,-361 -1425,-147 -1787,479 -361,626 -146,1426 479,1787 626,361 1426,147 1787,-479z"/>
  </g>
  <path id="interface-icon-jump-to-mother-event-default" fill="#603882" d="M39306 3740l2014 9173c1590,-321 3218,-537 4877,-642l-452 -9379c-2191,131 -4341,417 -6439,848zm-18741 21702l-7176 -6056c-1318,1600 -2528,3291 -3620,5062l8060 4820c829,-1336 1744,-2614 2736,-3826zm-6442 -6924l7176 6056c1058,-1214 2196,-2356 3406,-3418l-6081 -7154c-1604,1398 -3108,2908 -4501,4516zm5367 -5253l6081 7154c1216,-1002 2500,-1926 3842,-2765l-4841 -8046c-1780,1103 -3477,2326 -5082,3657zm6055 -4244l4842 8046c1356,-789 2769,-1492 4230,-2101l-3476 -8725c-1937,800 -3805,1730 -5596,2780zm6652 -3201l3476 8725c1469,-559 2983,-1024 4536,-1389l-2014 -9174c-2056,477 -4059,1093 -5998,1838z"/>

 </g>
</svg>
