<?xml version="1.0" encoding="UTF-8"?>
<!DOCTYPE svg PUBLIC "-//W3C//DTD SVG 1.1//EN" "http://www.w3.org/Graphics/SVG/1.1/DTD/svg11.dtd">
<!-- Creator: CorelDRAW X8 -->
<svg xmlns="http://www.w3.org/2000/svg" xml:space="preserve" width="1000px" height="400px" version="1.1" shape-rendering="geometricPrecision" text-rendering="geometricPrecision" image-rendering="optimizeQuality" fill-rule="evenodd" clip-rule="evenodd"
viewBox="0 0 104395 41796"
 xmlns:xlink="http://www.w3.org/1999/xlink">
 <g id="interface-icon-ir">
  <metadata id="CorelCorpID_0Corel-Layer"/>
  <g id="interface-icon-ir-body">
   <rect fill="darkgray" transform="matrix(0.648095 0.0398654 -0.589454 0.300682 39890.8 0.174258)" width="99529" height="65791"/>
   <path fill="#6B6868" d="M0 37829l64505 3967 38780 -19782 -8410 -517 -30065 15337 -56095 -3451 -8715 4446zm722 -11731l64504 3968 38781 -19782 -8410 -517 -30066 15337 -56094 -3451 -8715 4445zm-361 5865l64504 3968 38781 -19782 -8410 -517 -30065 15337 -56095 -3451 -8715 4445z"/>
   <path fill="#031C33" d="M8017 17811c-854,-53 -1583,511 -1629,1257 -2,24 -2,47 -2,70 1045,417 2091,436 3091,159 2,-12 3,-25 3,-38 46,-747 -609,-1396 -1463,-1448zm89948 -14375c-854,-53 -1583,510 -1630,1257 -1,23 -2,47 -2,70 1046,417 2091,436 3092,159 1,-13 2,-25 3,-39 46,-746 -609,-1395 -1463,-1447zm-5870 2956c-854,-52 -1583,511 -1629,1258 -2,24 -3,46 -3,70 1046,417 2092,436 3092,159 2,-13 2,-25 3,-38 46,-748 -609,-1396 -1463,-1449zm-5870 2957c-854,-52 -1583,511 -1629,1258 -2,23 -3,47 -3,70 1046,417 2092,436 3092,159 2,-12 2,-25 3,-39 46,-747 -609,-1395 -1463,-1448zm-5870 2958c-853,-53 -1583,510 -1629,1257 -2,23 -2,47 -2,70 1045,417 2091,436 3091,159 2,-13 2,-25 3,-39 46,-746 -609,-1395 -1463,-1447zm-5869 2956c-854,-52 -1584,511 -1630,1258 -2,23 -2,46 -2,70 1046,417 2091,436 3091,159 2,-13 2,-25 3,-39 46,-747 -609,-1395 -1462,-1448zm-5870 2957c-854,-52 -1584,511 -1630,1258 -2,23 -2,46 -2,69 1046,418 2091,437 3092,160 1,-13 1,-26 2,-39 46,-747 -609,-1395 -1462,-1448zm-5870 2957c-854,-52 -1584,511 -1630,1258 -1,23 -2,46 -2,70 1046,417 2091,436 3092,159 1,-13 2,-26 2,-39 47,-747 -608,-1395 -1462,-1448zm-9122 -561c-854,-52 -1583,511 -1629,1258 -2,23 -2,46 -2,69 1045,418 2091,437 3092,160 1,-13 1,-26 2,-39 46,-747 -609,-1395 -1463,-1448zm-9121 -561c-854,-52 -1584,511 -1629,1258 -2,23 -3,46 -3,69 1046,418 2092,436 3092,160 1,-13 2,-26 3,-39 46,-747 -610,-1395 -1463,-1448zm-9121 -561c-854,-52 -1584,511 -1630,1258 -1,23 -2,46 -2,69 1045,418 2091,436 3091,160 1,-13 2,-26 3,-39 46,-747 -609,-1395 -1462,-1448zm-9122 -561c-854,-53 -1584,511 -1630,1258 -1,23 -1,46 -1,69 1045,418 2091,436 3091,160 1,-13 2,-26 3,-39 46,-747 -609,-1396 -1463,-1448zm-9121 -561c-854,-53 -1584,511 -1630,1257 -1,24 -2,47 -2,70 1046,418 2091,436 3092,160 1,-13 2,-26 3,-39 46,-747 -609,-1396 -1463,-1448z"/>
  </g>
 </g>
</svg>
