<?xml version="1.0" encoding="UTF-8"?>
<!DOCTYPE svg PUBLIC "-//W3C//DTD SVG 1.1//EN" "http://www.w3.org/Graphics/SVG/1.1/DTD/svg11.dtd">
<!-- Creator: CorelDRAW X8 -->
<svg xmlns="http://www.w3.org/2000/svg" xml:space="preserve" width="1000px" height="1000px" version="1.1" shape-rendering="geometricPrecision" text-rendering="geometricPrecision" image-rendering="optimizeQuality" fill-rule="evenodd" clip-rule="evenodd"
viewBox="0 0 100000 100000"
 xmlns:xlink="http://www.w3.org/1999/xlink">
 <g id="interface-icon-jump-to-sector">
  <metadata id="CorelCorpID_0Corel-Layer"/>
  <g id="interface-icon-jump-to-sector-bg-border">
   <circle fill="black" cx="50000" cy="50000" r="50000"/>
   <path fill="#FEFEFE" d="M23284 54778c1097,5582 3844,10572 7712,14440 5092,5092 12128,8242 19899,8242 1473,0 2920,-113 4332,-332l826 5303c-1682,260 -3404,395 -5158,395 -9253,0 -17629,-3750 -23693,-9814 -3781,-3782 -6663,-8463 -8297,-13695 1846,-1078 3367,-2651 4379,-4539z"/>
   <path fill="#FEFEFE" d="M10738 71350c-155,-283 -307,-567 -456,-853l-2672 904c166,327 336,652 510,975l2618 -1026zm-531 -36691l814 918c146,-420 298,-840 457,-1258l-800 -903 -269 -303 -820 -925c-170,406 -332,814 -488,1223l833 940 273 308zm-1360 32812c-1150,-2673 -2043,-5447 -2667,-8279 -52,-233 -101,-465 -149,-698 -1489,-1147 -2692,-2647 -3481,-4376 190,1908 493,3804 905,5675 637,2888 1537,5719 2690,8453l2702 -775zm61234 -58574c-319,-152 -641,-300 -964,-445l-2159 2485c0,0 -1490,-42 -3042,-460 -1553,-419 -2951,-1447 -2951,-1447l-108 -3331c-366,-83 -735,-162 -1105,-236l176 3950c0,0 2006,1505 3717,1992 1711,485 3761,491 3761,491l2675 -2999zm-19186 6916c9252,0 17629,3750 23692,9814 6064,6064 9814,14440 9814,23692 0,3401 -507,6684 -1449,9777l-5134 -1566c791,-2597 1217,-5354 1217,-8211 0,-7770 -3150,-14806 -8242,-19898 -5092,-5092 -12128,-8242 -19898,-8242 -7771,0 -14807,3150 -19899,8242 -3868,3868 -6615,8857 -7712,14439 -1012,-1888 -2532,-3462 -4378,-4539 1633,-5232 4515,-9913 8296,-13694 6064,-6064 14440,-9814 23693,-9814zm42985 28517l326 -327c-154,-1248 -362,-2489 -623,-3718l-309 292 -922 872c243,1275 427,2563 552,3857l976 -976zm-6383 30716c1040,-1475 1992,-3014 2850,-4608l-567 -1310 -748 -1732c-749,1576 -1605,3122 -2568,4631 -121,189 -243,377 -366,564l791 1388 608 1067zm-37390 21483l-678 1169c4011,119 8011,-261 11906,-1121 875,-193 1739,-408 2591,-645l921 -1521 1986 -3282 952 -1575c-2376,994 -4874,1790 -7478,2364 -2732,603 -5446,936 -8120,1022l-645 1113 -1435 2476zm-25334 -7921l-648 1015c246,164 494,325 744,485 1254,801 2531,1536 3827,2208l1023 -821 2125 -1705 961 -771c-2130,-978 -4173,-2124 -6110,-3421l-600 939 -1322 2071zm-9787 -14535c-351,-510 -692,-1027 -1020,-1551l-1119 310 -1082 300c-150,-248 -298,-497 -443,-747l-2627 1030c395,695 809,1381 1240,2058l2821 -782 1097 -304 1133 -314zm-3530 -42492l741 978c177,-409 361,-815 552,-1219l-728 -962 -245 -323 -747 -985c-200,392 -394,786 -581,1182l759 1001 0 0 249 328zm-653 1520l778 949c161,-415 330,-828 505,-1239l-765 -934 -257 -313 -784 -957c-185,400 -363,801 -535,1204l797 972 261 318zm-1055 36334c-142,-291 -281,-584 -417,-878l-2712 777c152,336 307,670 466,1003l2663 -902z"/>
   <path fill="#177798" fill-rule="nonzero" d="M50895 11115c10549,0 20100,4276 27014,11190 6913,6914 11190,16465 11190,27014 0,10550 -4277,20101 -11190,27015 -6913,6913 -16465,11190 -27014,11190 -10550,0 -20101,-4277 -27015,-11190 -4290,-4290 -7564,-9596 -9431,-15526 1167,-138 2281,-449 3316,-907 1706,5346 4669,10131 8543,14005 6292,6291 14985,10184 24587,10184 9601,0 18294,-3893 24586,-10184 6292,-6292 10184,-14985 10184,-24587 0,-9601 -3892,-18294 -10184,-24586 -6292,-6291 -14985,-10184 -24586,-10184 -9602,0 -18295,3893 -24587,10184 -3873,3874 -6837,8658 -8543,14004 -1034,-459 -2148,-770 -3316,-908 1868,-5929 5142,-11234 9431,-15524 6914,-6913 16465,-11190 27015,-11190z"/>
   <path fill="#E97968" fill-rule="nonzero" d="M27632 85782c-9594,-6126 -15956,-15406 -18597,-25621 394,148 799,274 1212,378 2673,9705 8809,18493 17962,24338 9817,6269 21247,7965 31789,5639 10339,-2280 19824,-8429 26100,-17926l593 1042c-6435,9482 -16025,15630 -26462,17933 -10810,2384 -22530,645 -32597,-5783zm-18606 -47303c333,-1283 726,-2558 1182,-3819l813 917 110 -315c-333,940 -630,1887 -893,2839 -413,104 -818,231 -1212,378zm80006 28916c3354,-7053 4585,-14687 3872,-22089l975 -975c952,8154 -400,16622 -4287,24362l-560 -1298zm3320 -25946c-77,-405 -160,-809 -249,-1212 -2325,-10541 -8672,-20197 -18490,-26465 -1724,-1102 -3498,-2061 -5309,-2883l748 -838c1751,811 3468,1749 5139,2816 10067,6428 16576,16329 18960,27139 43,191 83,381 122,572l-921 871zm-32482 -33356c-2752,-597 -5536,-912 -8312,-952l3 -1073c2757,39 5523,342 8259,917l50 1108zm-46672 22327c-153,305 -303,612 -448,920l-730 -962c74,-151 149,-302 225,-452l953 494zm-2520 2997l127 -314 776 947c161,-415 330,-828 505,-1239l-763 -932c43,-99 88,-198 133,-297l741 977 109 -249c-352,794 -676,1595 -975,2402 49,-132 97,-262 147,-393l-800 -902zm1851 -1603c-73,159 -145,318 -215,477 70,-159 142,-318 215,-477zm-1227 2976c-51,138 -100,275 -149,413 49,-138 98,-275 149,-413z"/>
   <path fill="#4F65B7" fill-rule="nonzero" d="M26096 86536c-4978,-3317 -9081,-7468 -12244,-12149l1 0 1128 -313c3051,4433 6975,8367 11712,11527l-597 935zm-15072 -57470l748 985 4 4 0 1 148 -296 -6 -3 4793 2481c166,-333 338,-664 514,-993l-657 -340 -5121 -2649c-26,48 -52,96 -78,145 -117,221 -232,442 -345,665zm1823 43766c-2578,-4182 -4434,-8741 -5524,-13475 417,239 849,453 1296,640 1110,4401 2904,8634 5344,12526l-1115 309 -1 0zm15909 14065c1328,784 2681,1490 4056,2119l-951 782 -17 -8 961 -771c-1389,-638 -2740,-1346 -4049,-2122zm967 4595c6498,3275 13470,4909 20394,5019l-10 18 -677 1168c-7055,-209 -14140,-1964 -20733,-5381l1022 -821 4 -3zm22471 1435c2472,-75 4930,-358 7345,-847 -2472,501 -4929,782 -7352,860l-594 1025 601 -1038zm8113 -1009c162,-36 325,-73 487,-110 -162,37 -324,74 -487,110zm979 -227c10091,-2470 19319,-8526 25605,-17709l606 1064 3 5c-5304,7555 -12572,12998 -20665,16073l950 -1570c-2077,869 -4246,1586 -6499,2137zm32296 -51406l-77 -357c-2405,-10900 -8968,-20884 -19119,-27366 -1653,-1056 -3351,-1986 -5082,-2794l770 -863c1670,794 3310,1701 4909,2722 10410,6647 17140,16884 19606,28062 243,1101 444,2211 604,3327l-987 987c-154,-1248 -362,-2489 -623,-3718l-1 0zm-33778 -33674c-2731,-567 -5491,-866 -8243,-904l0 360 -11 5054c-373,-6 -746,-7 -1118,-2l14 -6525c3103,-35 6223,253 9307,874l51 1143zm-50215 25577l158 -375 795 970 1 2 -134 329 0 -1 -820 -925zm693 -1578c55,-119 110,-238 167,-358l758 1001 0 0 0 1 -141 312 -2 -2 -782 -954z"/>
  </g>
  <image xmlns="http://www.w3.org/2000/svg" x="28%" y="24%" width="48%" height="48%" xmlns:xlink="http://www.w3.org/1999/xlink" xlink:href="/_svg/interface/interface-icon-jump-to-sector-body.svg"/>
  <g id="interface-icon-jump-to-sector-play">
   <path id="interface-icon-jump-to-sector-play-1" fill="#4F65B7" d="M7329 42353c-221,182 -434,375 -636,578 -1635,1634 -2646,3893 -2646,6388 0,2494 1011,4753 2646,6387 214,215 439,418 674,610 -59,251 -54,509 11,750 102,379 349,721 717,934l57 31c354,185 750,219 1110,123 244,-65 472,-190 660,-370 983,367 2047,568 3158,568 2495,0 4754,-1011 6388,-2646 1311,-1311 2221,-3024 2530,-4938 246,-74 466,-209 643,-386 278,-278 451,-663 451,-1086 0,-425 -173,-810 -451,-1088 -179,-179 -402,-314 -651,-388 -316,-1894 -1222,-3589 -2522,-4889 -1634,-1635 -3893,-2646 -6388,-2646 -1128,0 -2208,207 -3204,585 -188,-176 -414,-299 -655,-364 -359,-95 -755,-62 -1108,123l-58 32c-368,212 -615,554 -717,933 -66,245 -71,506 -9,759zm-5540 6966c0,-3118 1264,-5941 3307,-7984 2044,-2043 4866,-3307 7984,-3307 3118,0 5941,1264 7984,3307 2043,2043 3307,4866 3307,7984 0,3117 -1264,5940 -3307,7983 -2043,2044 -4866,3308 -7984,3308 -3118,0 -5940,-1264 -7984,-3308 -2043,-2043 -3307,-4866 -3307,-7983zm23027 4140c457,-1296 705,-2689 705,-4140 0,-3436 -1393,-6546 -3644,-8797 -243,-244 -496,-477 -758,-699 -2168,-1837 -4974,-2945 -8039,-2945 -1783,0 -3480,376 -5013,1051 -1421,627 -2701,1510 -3784,2593 -261,261 -510,533 -747,816 -3,3 -5,5 -7,8 -1803,2159 -2890,4939 -2890,7973 0,3435 1393,6546 3644,8797 1069,1068 2331,1943 3729,2568 1548,691 3264,1075 5068,1075 3044,0 5833,-1093 7995,-2908 278,-233 546,-479 802,-735 1297,-1297 2309,-2879 2934,-4643 1,-5 3,-10 5,-14zm-15338 -10334c-626,361 -1426,147 -1787,-479 -362,-625 -147,-1425 478,-1787 626,-361 1426,-147 1788,479 361,626 146,1426 -479,1787zm-4281 6194c0,-2177 882,-4148 2309,-5575 158,-158 323,-309 494,-453 132,84 276,147 426,187 379,101 798,57 1166,-155 368,-212 615,-554 717,-933 41,-153 58,-312 51,-473 848,-312 1764,-482 2720,-482 2177,0 4148,883 5575,2309 1116,1117 1899,2566 2187,4188 -139,72 -266,166 -376,276 -278,278 -450,663 -450,1088 0,423 172,808 450,1087 112,112 241,207 383,280 -281,1638 -1068,3104 -2194,4230 -1427,1426 -3398,2309 -5575,2309 -941,0 -1843,-165 -2680,-467 7,-158 -11,-315 -51,-465 -101,-379 -349,-720 -717,-933 -368,-212 -786,-256 -1166,-154 -152,41 -299,105 -433,191 -183,-152 -359,-313 -527,-481 -1427,-1426 -2309,-3397 -2309,-5574zm3013 8482c-626,-361 -840,-1161 -479,-1787 361,-625 1161,-840 1787,-478 625,361 840,1161 479,1786 -362,626 -1162,840 -1787,479zm13344 -7197c-723,0 -1308,-586 -1308,-1308 0,-723 585,-1309 1308,-1309 722,0 1308,586 1308,1309 0,722 -586,1308 -1308,1308z"/>
   <path id="interface-icon-jump-to-sector-play-arrow-1" fill="#E31E24" d="M10346 44583l2 9468 8198 -4732 -7338 -4238 -862 -498zm1149 1989l2379 1372 2380 1374 -4761 2750 2 -5496z"/>
   <polygon id="interface-icon-jump-to-sector-play-arrow-2" fill="#E97968" points="11495,46572 11493,52068 16254,49318 13874,47944 "/>
   <path id="interface-icon-jump-to-sector-play-2" fill="#FEFEFE" d="M21554 47987c-723,0 -1308,586 -1308,1309 0,722 585,1308 1308,1308 722,0 1308,-586 1308,-1308 0,-723 -586,-1309 -1308,-1309zm-12076 -4862c625,-361 840,-1161 479,-1787 -362,-626 -1162,-840 -1788,-479 -625,362 -840,1162 -478,1787 361,626 1161,840 1787,479zm519 14197c361,-625 146,-1425 -479,-1786 -626,-362 -1426,-147 -1787,478 -361,626 -147,1426 479,1787 625,361 1425,147 1787,-479z"/>
  </g>
  <path id="interface-icon-jump-to-sector-event-default" fill="#603882" d="M40150 2269l2022 9211c1597,-322 3232,-540 4897,-645l-453 -9417c-2201,131 -4360,419 -6466,851zm-18818 21792l-7205 -6081c-1323,1606 -2539,3304 -3636,5083l8093 4840c833,-1342 1752,-2625 2748,-3842zm-6469 -6953l7206 6080c1062,-1218 2205,-2365 3420,-3431l-6106 -7184c-1610,1404 -3121,2920 -4520,4535zm5390 -5275l6105 7184c1222,-1006 2510,-1934 3858,-2776l-4861 -8080c-1787,1108 -3491,2336 -5102,3672zm6080 -4261l4861 8079c1362,-792 2781,-1498 4248,-2110l-3491 -8761c-1944,804 -3820,1738 -5618,2792zm6679 -3214l3490 8760c1475,-561 2995,-1028 4555,-1394l-2022 -9211c-2065,478 -4076,1097 -6023,1845z"/>
 </g>
</svg>
