<?xml version="1.0" encoding="UTF-8"?>
<!DOCTYPE svg PUBLIC "-//W3C//DTD SVG 1.1//EN" "http://www.w3.org/Graphics/SVG/1.1/DTD/svg11.dtd">
<!-- Creator: CorelDRAW X8 -->
<svg xmlns="http://www.w3.org/2000/svg" xml:space="preserve" width="1000px" height="1000px" version="1.1" shape-rendering="geometricPrecision" text-rendering="geometricPrecision" image-rendering="optimizeQuality" fill-rule="evenodd" clip-rule="evenodd"
viewBox="0 0 100000 100000"
 xmlns:xlink="http://www.w3.org/1999/xlink">
 <g id="interface-icon-jump-to-galaxy">
  <metadata id="CorelCorpID_0Corel-Layer"/>
  <g id="interface-icon-jump-to-galaxy-bg-border">
   <circle fill="black" cx="50000" cy="50000" r="50000"/>
   <path fill="#FEFEFE" d="M64577 15299l2091 -5173 -333 -123c-242,-89 -516,-187 -822,-293 -289,-101 -566,-194 -829,-279l-326 -105 -1820 5622 327 106c230,74 443,146 640,214l947 340 125 -309zm6968 3493l3120 -4625 -300 -190c-895,-567 -1819,-1105 -2767,-1610 -947,-505 -1908,-972 -2879,-1399l-324 -143 -2215 5482 303 135c797,355 1578,736 2341,1143 763,406 1516,842 2253,1305l283 177 185 -275zm14640 17793l5243 -1908 -131 -328c-400,-1003 -832,-1979 -1295,-2925 -472,-963 -978,-1906 -1515,-2825l-179 -305 -5012 3132 167 287c438,756 849,1524 1228,2302 382,783 735,1575 1058,2376l125 308 311 -114zm2069 7515l5525 -776 -59 -347c-180,-1057 -399,-2103 -655,-3135 -260,-1048 -557,-2074 -888,-3077l-111 -336 -5556 2022 102 315c268,825 508,1661 718,2505 207,834 387,1684 538,2547l57 329 329 -47zm463 7780l5566 389 13 -354c23,-584 35,-1153 35,-1705 0,-776 -22,-1559 -65,-2346 -43,-788 -107,-1569 -192,-2342l-38 -353 -5853 823 35 329c67,641 118,1288 152,1939 33,634 50,1284 50,1950l-5 660 -29 987 331 23zm-1153 7709l5364 1538 87 -345c262,-1030 486,-2074 670,-3126 181,-1038 327,-2097 434,-3176l35 -352 -5896 -412 -34 331c-89,861 -210,1723 -360,2582 -151,865 -332,1715 -539,2547l-80 321 319 92zm-2740 7297l4927 2620 157 -318c473,-955 911,-1930 1313,-2924 396,-979 759,-1984 1087,-3010l107 -337 -5683 -1629 -102 317c-266,822 -564,1638 -891,2446 -328,814 -683,1608 -1061,2381l-146 299 292 155zm-1397 11349l-4256 -3571 -222 247c-310,344 -621,677 -932,998 -316,327 -640,649 -968,964l-247 238 4089 4264 248 -238c401,-384 795,-777 1181,-1178 395,-409 776,-820 1143,-1232l236 -264 -272 -228zm-2803 -4784l4273 3585 219 -278c667,-843 1298,-1705 1890,-2582 598,-884 1163,-1791 1693,-2718l177 -308 -5220 -2776 -166 288c-433,748 -894,1484 -1380,2204 -492,728 -1004,1432 -1536,2110l-204 261 254 214zm2065 -52086l-3997 3860 222 246c585,648 1144,1313 1674,1991 531,678 1042,1382 1533,2110l186 275 5012 -3132 -197 -295c-594,-888 -1220,-1753 -1877,-2593 -661,-845 -1350,-1661 -2064,-2446l-237 -262 -255 246zm-5054 2289l4013 -3875 -254 -247c-761,-742 -1553,-1460 -2375,-2150 -817,-687 -1659,-1343 -2523,-1965l-287 -207 -3305 4900 268 195c710,516 1394,1050 2049,1601 662,556 1309,1140 1938,1748l238 230 238 -230zm-53514 48994c553,674 1130,1326 1727,1953l-443 1808 -6433 6717 -900 262c-1053,-1060 -2054,-2168 -3000,-3320 -944,-1150 -1836,-2348 -2672,-3588l464 -888 7771 -4939 1904 -82c498,706 1026,1399 1582,2077zm5405 5311c406,322 817,633 1230,933l-6661 9622c-734,-526 -1451,-1072 -2151,-1636 -737,-595 -1459,-1214 -2162,-1854l226 -924 6417 -6701 1796 -524c417,364 853,726 1305,1084zm3677 2555c422,255 858,505 1306,751l-5405 10382c-658,-356 -1304,-727 -1939,-1111 -646,-391 -1280,-795 -1901,-1213l6661 -9621c428,284 854,555 1278,812zm3459 1836c300,138 600,272 901,401l-4385 10852c-472,-200 -945,-409 -1417,-626 -475,-220 -940,-444 -1394,-672l5404 -10382c295,147 592,289 891,427zm3140 1270c313,109 629,214 944,314l-3325 11225c-489,-153 -977,-315 -1464,-484 -479,-167 -966,-348 -1460,-539l4384 -10851c300,114 607,225 921,335zm3264 965c319,78 640,151 962,220l-2234 11490c-506,-105 -1013,-220 -1520,-343 -491,-120 -988,-250 -1488,-390l3324 -11223c310,84 629,166 956,246zm3341 647c320,45 644,88 972,126l-1122 11648c-511,-56 -1023,-122 -1535,-195 -516,-74 -1026,-156 -1530,-246l2233 -11490c331,58 659,110 982,157zm3370 319c324,15 654,26 988,33l0 11703c-519,-8 -1040,-24 -1563,-48 -501,-24 -1011,-56 -1529,-98l1121 -11648c318,23 646,43 983,58zm24024 6121c-1308,706 -2651,1351 -4024,1931l-4385 -10853c912,-390 1808,-821 2687,-1289 929,-495 1831,-1028 2703,-1597l950 424 5936 8203 83 793c-1270,855 -2589,1653 -3950,2388zm-6786 2997c-492,171 -986,335 -1481,489l-3325 -11223c314,-100 628,-205 940,-314 315,-109 623,-222 924,-336l4385 10853c-488,189 -969,366 -1443,531zm-4342 1285c-504,123 -1008,237 -1513,342l-2233 -11490c323,-69 645,-142 965,-220 326,-80 644,-162 953,-246l3324 11221c-503,141 -1002,272 -1496,393zm-4431 856c-515,75 -1030,141 -1544,197l-1122 -11650c332,-38 659,-81 982,-128 320,-46 644,-97 972,-154l2233 11490c-501,89 -1008,171 -1521,245zm-4497 427c-521,25 -1039,41 -1555,49l0 -11703c332,-7 660,-18 983,-33 338,-16 667,-36 987,-59l1122 11647c-521,42 -1033,75 -1537,99zm-35263 -59663c129,-338 264,-673 403,-1007 2044,-4881 5156,-9224 9057,-12720l-6 -39c2782,-2479 5962,-4527 9470,-6072 4313,-1872 9071,-2910 14071,-2910 9771,0 18618,3961 25020,10363 6404,6404 10364,15250 10364,25021 0,5499 -1256,10707 -3496,15351 -2300,4765 -5636,8938 -9717,12223l118 1138 5820 8042 841 376c5597,-4370 10181,-9976 13340,-16408 3070,-6250 4794,-13284 4794,-20722 0,-13001 -5271,-24773 -13791,-33293 -8520,-8521 -20291,-13790 -33293,-13790 -306,0 -562,2 -776,6l-429 10 334 10134 -344 11c-6519,210 -12613,2111 -17857,5278 -5413,3269 -9920,7888 -13053,13390l-170 299 -8815 -5009c-981,1753 -1854,3575 -2608,5457 -707,1762 -1309,3576 -1801,5435l-18 88 -38 198c-209,810 -395,1628 -560,2452 2266,-2444 5504,-3975 9100,-3975 1415,0 2774,237 4040,673zm2306 30154c-1168,-2047 -2138,-4223 -2884,-6507 -1099,319 -2260,491 -3462,491 -3798,0 -7198,-1708 -9473,-4397 218,1522 509,3018 880,4486 42,169 69,330 113,498l-4 -17c551,2081 1241,4108 2061,6068 889,2127 1929,4176 3107,6129l894 -38 7914 -5030 854 -1683z"/>
   <path fill="#4F65B7" fill-rule="nonzero" d="M6660 37863l5 -1 168 587 -43 12 -160 -590 30 -8zm13782 29873c-660,-1169 -1258,-2382 -1786,-3634 -386,-913 -735,-1847 -1046,-2799 197,-52 393,-109 586,-170 303,928 645,1840 1022,2732 539,1277 1153,2516 1836,3712l81 142 -967 1906c-2685,1702 -5373,3404 -8051,5117l-1160 50 -93 -155c-593,-983 -1152,-1993 -1677,-3027 -520,-1027 -1005,-2076 -1451,-3143 -413,-989 -794,-1996 -1142,-3019 -342,-1007 -652,-2031 -927,-3070l-4 -17c-25,-95 -43,-179 -60,-262l-51 -224c-372,-1473 -664,-2976 -884,-4505 -25,-172 -49,-344 -71,-517 234,305 482,599 743,881 207,1352 474,2684 805,3993l56 245c17,80 34,159 52,231l5 17c271,1024 576,2035 915,3033 342,1007 719,2002 1128,2980 441,1055 919,2090 1432,3102 487,961 1008,1906 1561,2831l630 -27 7776 -4942 742 -1461zm-2250 -30258c132,-345 269,-688 411,-1028 1027,-2453 2323,-4772 3850,-6918 1505,-2113 3236,-4059 5162,-5800l-7 -41 125 -111c1407,-1254 2916,-2399 4517,-3426 1590,-1019 3271,-1922 5033,-2698l2 0c2205,-957 4525,-1698 6933,-2196 2346,-485 4775,-740 7259,-740 4832,0 9442,961 13648,2703 4369,1810 8300,4461 11589,7750 3289,3289 5940,7220 7750,11589 1742,4206 2703,8816 2703,13648 0,2730 -308,5393 -891,7952 -600,2634 -1490,5156 -2636,7531 -1156,2396 -2572,4643 -4210,6704 -1615,2031 -3447,3883 -5461,5520l93 892 5724 7911 598 266c2732,-2150 5219,-4598 7412,-7295 2217,-2728 4134,-5709 5697,-8893 1546,-3148 2749,-6498 3559,-10000 787,-3400 1202,-6944 1202,-10588 0,-6338 -1259,-12380 -3541,-17890 -2370,-5722 -5845,-10873 -10159,-15186 -4314,-4315 -9465,-7790 -15187,-10159 -5509,-2283 -11552,-3542 -17890,-3542 -345,0 -599,2 -770,5l-120 2 334 10132 -649 21c-3183,102 -6266,612 -9196,1478 -3017,892 -5874,2163 -8513,3757 -2686,1622 -5147,3579 -7324,5812 -2175,2232 -4069,4740 -5621,7467l-321 564 -8813 -5007c-435,789 -848,1591 -1236,2404 -428,897 -831,1813 -1206,2749 -349,872 -675,1764 -976,2672 -295,886 -565,1790 -808,2710 -20,98 -36,206 -60,302 -169,651 -322,1308 -461,1968 -278,274 -542,560 -793,858 187,-997 406,-1984 658,-2960 19,-100 36,-209 61,-307 245,-926 519,-1848 822,-2762 301,-910 632,-1813 990,-2708 377,-940 785,-1869 1223,-2785 440,-922 909,-1825 1402,-2708l151 -268 8817 5009 19 -33c1578,-2772 3503,-5322 5715,-7591 2214,-2271 4716,-4262 7445,-5910 2683,-1620 5587,-2911 8657,-3819 2977,-879 6110,-1398 9349,-1502l38 -1 -334 -10137 739 -17c257,-5 515,-8 781,-8 6417,0 12538,1277 18122,3590 5801,2403 11020,5923 15388,10290 4367,4368 7887,9587 10290,15388 2313,5584 3590,11705 3590,18122 0,3687 -422,7277 -1219,10724 -820,3546 -2039,6940 -3607,10132 -1585,3227 -3526,6248 -5771,9010 -2260,2779 -4830,5299 -7655,7504l-144 113 -1085 -484c-1974,-2723 -3945,-5447 -5914,-8173l-145 -1386 129 -104c2029,-1633 3874,-3489 5495,-5529 1611,-2027 3003,-4235 4139,-6589 1126,-2335 2002,-4814 2591,-7400 572,-2511 874,-5129 874,-7818 0,-4753 -944,-9285 -2656,-13416 -1777,-4290 -4383,-8153 -7618,-11388 -3235,-3235 -7098,-5841 -11388,-7618 -4132,-1712 -8663,-2656 -13416,-2656 -2448,0 -4836,250 -7137,726 -2367,489 -4646,1218 -6811,2157 -1734,764 -3387,1652 -4949,2653 -1526,979 -2968,2068 -4316,3258l6 37 -125 112c-1939,1737 -3682,3688 -5194,5811 -1501,2108 -2774,4387 -3783,6798 -138,329 -271,660 -398,993 -191,-71 -384,-137 -578,-199zm35567 60064c-254,12 -516,22 -783,31 -257,8 -518,14 -782,18l-310 5 0 -12312 792 -20 483 -19 496 -27 780 -54 1181 12254 -310 25c-247,19 -507,38 -780,56 -247,16 -503,30 -767,43zm-803 -579c250,-8 509,-19 774,-31 240,-11 493,-26 758,-43l461 -32 -1064 -11041 -698 39 -691 25 0 11095 460 -12zm5329 149c-236,35 -496,70 -783,107 -275,35 -534,66 -772,92l-306 34c-395,-4086 -789,-8172 -1181,-12258l788 -93 484 -67 478 -72 780 -132 2349 12089 -305 54c-212,38 -469,81 -764,129 -266,43 -523,82 -768,117zm-860 -498c231,-30 491,-66 774,-106 266,-39 519,-77 759,-116l446 -75 -2118 -10891 -685 106 -693 92 1064 11045 453 -55zm5320 -364c-256,63 -510,123 -761,179 -261,60 -515,115 -761,166l-303 64 -2350 -12088 773 -169 477 -113 475 -119 759 -203c1163,3936 2330,7870 3496,11805l-298 83c-252,71 -505,139 -758,206 -253,66 -503,129 -749,189zm-895 -416c253,-57 504,-117 751,-177 246,-60 492,-122 737,-186l450 -121 -3151 -10639 -673 171 -680 159 2117 10892 449 -99zm5266 -877c-279,97 -526,181 -744,253 -235,78 -486,158 -747,240l-296 92 -3498 -11807 752 -243 465 -159 464 -165 733 -275c1535,3807 3074,7612 4612,11417l-289 112c-261,101 -505,194 -731,277 -225,83 -465,169 -721,258zm-936 -328c276,-91 522,-174 735,-249 217,-75 456,-161 712,-255l431 -161 -4156 -10289 -653 235 -663 223 3152 10640 442 -144zm7765 -2688c-653,353 -1322,694 -2005,1021 -673,323 -1355,631 -2045,922l-286 120 -4612 -11417 275 -118c456,-195 903,-398 1339,-607 447,-215 889,-438 1324,-670 450,-239 903,-494 1357,-762 455,-269 896,-543 1324,-822l138 -91 1179 527 6030 8334 110 1057 -151 102c-640,431 -1293,848 -1958,1250 -658,398 -1331,783 -2019,1154zm-2268 471c662,-318 1322,-654 1979,-1009 672,-362 1337,-743 1993,-1140 602,-363 1195,-741 1779,-1131l-55 -527 -5841 -8072 -723 -323c-401,259 -803,508 -1206,746 -443,262 -904,520 -1381,774 -446,238 -896,465 -1348,682 -363,174 -726,341 -1087,500l4156 10288c583,-250 1162,-513 1734,-788zm-21887 -7166l487 20 794 18 0 12313 -309 -5c-266,-4 -528,-10 -785,-18l-788 -31c-266,-12 -520,-26 -764,-41l-1085 -80c391,-4086 785,-8171 1180,-12256l778 54 492 26zm468 630l-495 -20 -693 -38 -1064 11042 457 32c266,17 518,31 752,42 266,12 526,22 779,30l465 12 0 -11094 -201 -6zm-3808 -947l478 66 784 94c-395,4084 -789,8170 -1181,12255l-307 -34c-232,-26 -490,-57 -772,-93 -282,-36 -542,-71 -773,-104 -249,-36 -508,-75 -777,-118 -288,-46 -541,-89 -763,-129l-306 -54c781,-4030 1564,-8060 2349,-12089l784 133 484 73zm401 671l-487 -66 -696 -108 -2117 10891 447 75c242,39 499,78 767,116 280,41 535,75 764,104l454 56 1064 -11043 -196 -25zm-3713 -1311l479 112 768 168 -2350 12089 -303 -64c-247,-51 -503,-107 -765,-166 -251,-57 -507,-117 -764,-180 -247,-60 -497,-123 -750,-189 -250,-66 -500,-133 -749,-203l-299 -83 3497 -11807 755 202 481 121zm343 708l-487 -115 -675 -172 -3152 10641 439 117c247,64 494,127 740,187 249,60 500,120 755,177l452 100 2118 -10892 -190 -43zm-3579 -1665l467 159 754 244 -3497 11808 -296 -92c-259,-81 -505,-160 -738,-237l-735 -251c-260,-91 -502,-178 -729,-262l-1030 -392c1537,-3805 3073,-7611 4612,-11415l735 275 457 163zm274 737l-474 -161 -649 -233 -4156 10287 441 166c259,95 500,182 720,259 208,72 450,154 726,246l432 141 3152 -10641 -192 -64zm-3386 -1996l446 203 722 312 -4613 11417 -285 -121c-268,-113 -509,-217 -717,-309 -226,-100 -463,-207 -710,-321 -239,-110 -476,-223 -712,-336 -211,-102 -441,-215 -690,-340l-278 -139 5685 -10923 709 349 443 208zm199 760l-455 -206 -629 -298 -5123 9842 404 197c231,111 465,221 703,331 223,103 457,209 701,316l421 185 4157 -10287 -179 -80zm-3628 -2581c232,140 446,267 637,377 207,119 427,242 657,368l263 144c-1897,3640 -3792,7281 -5685,10922l-273 -147c-340,-184 -667,-366 -980,-545 -323,-185 -648,-376 -973,-573 -306,-185 -628,-385 -964,-600 -323,-206 -640,-414 -949,-621l-257 -173c2335,-3375 4670,-6750 7008,-10123l249 166c198,132 410,269 635,412 218,139 429,270 632,393zm334 905c-244,-140 -459,-266 -649,-381 -222,-134 -437,-268 -645,-400l-395 -255 -6315 9121c227,150 454,298 680,442 296,189 613,386 952,590 313,190 633,378 960,566 235,134 467,264 694,389l5123 -9842 -405 -230zm-3980 -3437c185,146 388,303 609,471 199,151 403,302 612,453l241 175c-2337,3374 -4674,6748 -7008,10124l-252 -180c-342,-245 -707,-515 -1093,-809 -377,-286 -734,-566 -1071,-838 -371,-299 -737,-604 -1099,-914 -366,-314 -726,-632 -1078,-952l-133 -122 289 -1180c2173,-2275 4348,-4550 6529,-6818l2035 -594 126 110c212,185 424,366 634,540 214,177 434,356 659,534zm240 958c-189,-143 -396,-304 -618,-480 -226,-179 -450,-360 -670,-543 -180,-149 -353,-296 -520,-440l-1558 455 -6304 6582 -163 667c308,279 618,552 929,818 358,307 720,609 1085,903 362,293 715,570 1056,829 258,196 535,401 830,615l6314 -9121 -381 -285zm-5599 -6224c275,334 555,663 840,986 281,317 572,634 873,950l115 121 -502 2050c-2187,2273 -4368,4553 -6546,6835l-1153 336 -128 -129c-523,-527 -1040,-1073 -1550,-1637 -505,-559 -995,-1127 -1468,-1704 -477,-581 -940,-1172 -1385,-1771 -454,-609 -889,-1223 -1305,-1840l-101 -150 587 -1125c2630,-1681 5268,-3356 7906,-5024l2154 -93 96 136c248,352 501,697 758,1035 267,351 538,693 809,1024zm383 1390c-290,-328 -575,-663 -854,-1003 -286,-349 -561,-696 -823,-1041 -233,-305 -459,-612 -677,-917l-1653 71 -7637 4853 -340 651c388,571 784,1128 1187,1669 444,597 900,1180 1366,1748 471,573 955,1135 1449,1682 452,500 920,996 1404,1487l647 -188 6320 -6600 384 -1566c-258,-273 -516,-556 -773,-846zm52684 -50409l3787 -3657 -29 -28c-385,-375 -771,-738 -1158,-1088 -381,-346 -782,-695 -1200,-1046 -401,-339 -814,-672 -1236,-1001 -418,-325 -841,-642 -1269,-951l-32 -23 -2964 4395 30 22c347,252 699,518 1053,795 340,265 678,539 1011,819 335,281 665,567 988,859 321,290 644,592 967,903l26 26 26 -25zm4436 -3436c-1487,1437 -2977,2871 -4463,4309l-449 -434c-308,-297 -626,-594 -952,-889 -321,-289 -645,-571 -970,-845 -321,-270 -653,-539 -995,-806 -329,-257 -675,-518 -1037,-781l-508 -369 3646 -5406 544 391c435,314 865,636 1288,965 419,327 837,665 1252,1014 402,337 808,692 1217,1062 406,367 798,736 1175,1103l479 467 -227 219zm1042 1586l-3784 3654 24 27c283,314 571,645 863,992 285,339 561,678 825,1016 275,352 538,701 788,1046 258,354 511,715 758,1081l20 30 4496 -2809 -22 -33c-289,-432 -593,-868 -911,-1306 -317,-439 -635,-862 -953,-1268 -322,-411 -656,-823 -1002,-1233 -343,-406 -693,-805 -1048,-1196l-26 -29 -28 28zm-4420 3420c1492,-1442 2983,-2885 4478,-4324l448 494c360,396 715,801 1062,1212 340,403 679,821 1016,1252 338,431 661,860 968,1285 309,427 617,869 923,1326l372 557 -5530 3456 -350 -520c-244,-361 -493,-717 -746,-1065 -260,-358 -519,-702 -774,-1028 -266,-341 -537,-674 -810,-999 -266,-316 -550,-642 -851,-976l-419 -464 213 -206zm2339 48211l4033 3384 24 -31c324,-410 647,-834 967,-1271 309,-422 612,-854 909,-1293 299,-442 588,-887 865,-1332 277,-445 549,-901 816,-1367l19 -34 -4680 -2489 -19 32c-210,363 -434,736 -672,1116 -235,377 -475,746 -719,1106 -237,351 -490,712 -760,1082 -261,359 -524,708 -788,1045l-23 29 28 23zm3881 4054l-4754 -3988 387 -494c267,-341 526,-684 776,-1027 242,-333 491,-688 746,-1066 245,-362 481,-725 708,-1086 220,-351 441,-718 662,-1100l314 -543 5758 3062 -333 581c-264,462 -541,925 -828,1387 -287,460 -579,910 -877,1351 -295,436 -603,874 -924,1312 -310,425 -638,855 -981,1288l-414 525 -240 -202zm-1470 1200l-4030 -3382 -25 27c-153,170 -309,341 -467,510 -150,161 -307,326 -472,496 -160,166 -321,329 -481,488 -161,160 -327,322 -496,484l-27 27 3667 3824 28 -27c197,-189 396,-384 595,-582 196,-196 389,-392 577,-588 187,-194 380,-397 574,-606 208,-224 395,-430 562,-616l25 -30 -30 -25zm-3864 -4041c1590,1334 3178,2670 4770,4002l-445 500c-204,227 -395,437 -571,626 -184,198 -377,403 -581,614 -195,203 -391,402 -587,597 -196,196 -398,393 -602,589l-469 450 -4512 -4705 467 -449c162,-155 325,-315 489,-477 161,-161 318,-320 471,-478 148,-153 303,-316 465,-489l460 -503 419 -466 226 189zm5601 -7813l4649 2472 17 -35c238,-480 465,-960 680,-1439 211,-470 419,-959 624,-1465 201,-496 390,-990 566,-1478 179,-497 351,-1001 513,-1509l12 -37 -5097 -1461 -12 35c-134,413 -275,825 -424,1234 -152,416 -309,827 -473,1232 -163,403 -335,807 -515,1212 -178,398 -363,795 -556,1189l-17 33 33 17zm4640 3160l-5480 -2913 276 -565c187,-381 369,-771 547,-1169 171,-386 340,-783 505,-1192 164,-406 320,-810 466,-1213 147,-403 286,-807 417,-1212l194 -599 6269 1797 -204 636c-164,516 -338,1027 -520,1531 -186,516 -378,1017 -573,1500 -197,487 -408,983 -634,1486 -223,497 -453,985 -689,1460l-297 601 -277 -148zm-1960 -10481l5061 1451 10 -39c130,-514 251,-1031 362,-1550 109,-510 210,-1028 302,-1554 94,-532 176,-1056 246,-1570 71,-523 134,-1051 186,-1583l4 -39 -5288 -370 -3 37c-45,433 -98,866 -157,1296 -63,449 -132,885 -205,1307 -75,429 -159,860 -251,1293 -89,424 -188,850 -294,1275l-8 35 35 11zm5196 2126l-5966 -1712 150 -606c102,-409 199,-828 289,-1256 88,-412 170,-837 246,-1271 77,-440 145,-870 203,-1286 59,-426 111,-851 154,-1274l65 -626 6504 455 -67 665c-53,540 -116,1076 -188,1604 -76,552 -159,1084 -248,1595 -91,521 -194,1047 -307,1575 -112,527 -235,1052 -367,1572l-165 652 -303 -87zm-4105 -9845l5251 366 1 -38c12,-296 21,-583 26,-858 5,-244 7,-523 7,-836 0,-412 -5,-799 -15,-1161 -10,-381 -26,-771 -48,-1170 -20,-374 -47,-761 -79,-1160 -33,-400 -70,-789 -111,-1164l-4 -40 -5249 738 3 37c36,338 66,665 91,978 24,310 46,636 63,977 16,313 29,639 37,977 9,354 14,684 14,988 -4,458 -13,905 -26,1363l39 3zm5523 998l-6189 -433 37 -1280 5 -651c-1,-358 -5,-683 -12,-974 -8,-315 -21,-636 -38,-960 -15,-307 -37,-628 -63,-961 -26,-336 -56,-657 -88,-963l-65 -621 6456 -908 73 667c44,402 82,796 113,1181 31,377 58,769 80,1177 21,389 37,784 48,1185 12,420 18,813 18,1177 0,240 -4,523 -10,848 -6,292 -15,582 -26,869l-25 669 -314 -22zm-6050 -8776l5213 -733 -6 -38c-89,-526 -188,-1046 -296,-1560 -109,-521 -227,-1039 -354,-1552 -131,-527 -269,-1040 -412,-1537 -144,-497 -301,-1003 -471,-1518l-12 -37 -4983 1814 11 35c137,420 266,841 386,1260 118,412 231,835 338,1266 105,423 204,850 294,1280 92,432 175,862 249,1289l6 36 37 -5zm5609 -172l-6147 864 -108 -621c-75,-432 -157,-855 -244,-1267 -89,-423 -186,-843 -289,-1258 -101,-409 -212,-824 -333,-1244 -119,-418 -246,-832 -379,-1239l-192 -596 6129 -2231 210 635c162,492 321,1006 475,1539 151,525 291,1045 419,1561 129,521 249,1046 359,1573 110,528 211,1057 301,1584l111 657 -312 43zm-7740 -7327l4947 -1801 -15 -36c-192,-484 -399,-975 -619,-1472 -213,-481 -436,-959 -667,-1432 -228,-469 -471,-941 -726,-1417 -255,-475 -515,-938 -777,-1388l-20 -33 -4495 2808 18 32c216,373 431,759 643,1157 215,403 415,792 596,1164 186,381 372,780 557,1197 180,403 350,804 510,1199l14 34 34 -12zm5451 -1335l-5831 2123 -235 -583c-162,-401 -329,-793 -500,-1178 -168,-378 -352,-772 -550,-1177 -196,-402 -391,-784 -584,-1145 -198,-373 -410,-752 -633,-1138l-316 -542 5530 -3455 337 576c275,470 538,940 789,1407 249,464 495,944 737,1438 233,473 458,958 678,1454 211,477 420,975 626,1493l248 620 -296 107zm-20240 -16342l2944 -4366 -33 -21c-445,-281 -898,-557 -1359,-825 -465,-270 -929,-529 -1389,-774 -462,-246 -936,-488 -1421,-723 -472,-229 -951,-451 -1438,-666l-36 -16 -1986 4917 33 15c417,185 814,371 1192,555 375,183 765,383 1168,598 394,209 776,422 1146,636 377,218 753,445 1127,680l32 20 20 -30zm3627 -4284c-1157,1715 -2316,3429 -3471,5145l-533 -335c-364,-228 -734,-451 -1108,-668 -382,-221 -758,-430 -1127,-626 -360,-192 -743,-388 -1149,-586 -402,-196 -793,-379 -1173,-548l-571 -254 2443 -6047 611 269c484,212 971,438 1458,674 475,231 957,477 1443,736 484,258 954,520 1408,784 465,270 925,549 1378,836l567 359 -176 261zm-10626 848l1973 -4882c-282,-106 -568,-205 -852,-306l-422 -144 -437 -144 -1633 5042c459,148 903,307 1357,470l14 -36zm2658 -4946l-2325 5754 -1224 -439c-415,-141 -832,-275 -1249,-410l2009 -6203 1024 333 859 297 1024 377 -118 291z"/>
  </g>
<image xmlns="http://www.w3.org/2000/svg" x="15%" y="15%" width="70%" height="70%" xmlns:xlink="http://www.w3.org/1999/xlink" xlink:href="/_svg/interface/interface-icon-jump-to-galaxy-body.svg"/>
  <g id="interface-icon-jump-to-galaxy-play">
   <path fill="black" d="M14442 37540c6498,0 11766,5268 11766,11766 0,6499 -5268,11766 -11766,11766 -6498,0 -11766,-5267 -11766,-11766 0,-6498 5268,-11766 11766,-11766z"/>
   <path id="interface-icon-jump-to-galaxy-play-1" fill="#4F65B7" d="M8702 42354c-220,183 -432,376 -634,578 -1631,1631 -2641,3885 -2641,6374 0,2490 1010,4744 2641,6375 213,214 438,417 673,608 -60,250 -54,508 11,749 101,378 348,719 715,931l57 32c353,185 748,218 1107,123 244,-66 471,-190 659,-369 981,366 2044,566 3152,566 2489,0 4744,-1009 6375,-2640 1308,-1309 2216,-3018 2524,-4928 245,-74 465,-209 642,-385 278,-278 450,-662 450,-1085 0,-424 -172,-808 -450,-1085 -179,-179 -401,-314 -650,-387 -315,-1890 -1219,-3582 -2516,-4879 -1631,-1631 -3886,-2641 -6375,-2641 -1126,0 -2204,207 -3198,584 -187,-175 -412,-298 -653,-363 -359,-96 -753,-62 -1106,123l-58 31c-367,212 -614,553 -715,932 -66,243 -71,504 -10,756zm-5528 6952c0,-3111 1262,-5928 3301,-7967 2039,-2039 4856,-3300 7967,-3300 3112,0 5929,1261 7968,3300 2038,2039 3300,4856 3300,7967 0,3112 -1262,5929 -3300,7968 -2039,2039 -4856,3300 -7968,3300 -3111,0 -5928,-1261 -7967,-3300 -2039,-2039 -3301,-4856 -3301,-7968zm22979 4132c456,-1293 704,-2683 704,-4132 0,-3428 -1390,-6532 -3636,-8779 -242,-242 -495,-475 -757,-697 -2164,-1833 -4964,-2939 -8022,-2939 -1780,0 -3473,375 -5003,1050 -1418,624 -2696,1506 -3776,2586 -261,261 -510,533 -746,815 -2,3 -4,6 -6,8 -1800,2154 -2884,4929 -2884,7956 0,3429 1390,6533 3636,8779 1066,1066 2326,1940 3722,2563 1545,690 3256,1073 5057,1073 3037,0 5820,-1091 7978,-2902 278,-233 545,-478 801,-734 1294,-1294 2304,-2872 2927,-4633 2,-5 4,-10 5,-14zm-15306 -10313c-625,361 -1423,147 -1783,-477 -361,-625 -147,-1423 477,-1784 625,-360 1423,-146 1784,478 360,624 146,1423 -478,1783zm-4272 6181c0,-2172 881,-4139 2304,-5563 158,-157 322,-308 493,-452 132,83 275,146 425,186 379,102 797,58 1163,-154 368,-212 615,-552 716,-931 41,-153 59,-312 51,-472 847,-311 1761,-481 2715,-481 2172,0 4140,881 5563,2304 1114,1114 1896,2561 2183,4179 -139,72 -266,166 -375,276 -278,277 -450,661 -450,1085 0,423 172,807 450,1085 111,112 240,207 382,280 -281,1635 -1066,3097 -2190,4221 -1423,1424 -3391,2304 -5563,2304 -939,0 -1839,-164 -2674,-466 6,-157 -11,-314 -51,-463 -102,-379 -349,-719 -716,-932 -367,-211 -785,-255 -1164,-154 -152,41 -298,105 -432,191 -182,-152 -358,-312 -526,-480 -1423,-1423 -2304,-3390 -2304,-5563zm3006 8465c-624,-360 -838,-1158 -477,-1783 360,-624 1158,-838 1783,-478 624,361 838,1159 478,1784 -361,624 -1159,838 -1784,477zm13317 -7182c-721,0 -1305,-585 -1305,-1306 0,-721 584,-1305 1305,-1305 721,0 1306,584 1306,1305 0,721 -585,1306 -1306,1306z"/>
   <path id="interface-icon-jump-to-galaxy-play-arrow-1" fill="#E31E24" d="M11713 44581l2 9448 8182 -4722 -7323 -4229 -861 -497zm1147 1984l2374 1370 2375 1370 -4751 2745 2 -5485z"/>
   <polygon id="interface-icon-jump-to-galaxy-play-arrow-2" fill="#E97968" points="12860,46565 12858,52050 17609,49305 15234,47935 "/>
   <path id="interface-icon-jump-to-galaxy-play-2" fill="#FEFEFE" d="M11365 57294c360,-625 146,-1423 -478,-1784 -625,-360 -1423,-146 -1783,478 -361,625 -147,1423 477,1783 625,361 1423,147 1784,-477zm-518 -14169c624,-360 838,-1159 478,-1783 -361,-624 -1159,-838 -1784,-478 -624,361 -838,1159 -477,1784 360,624 1158,838 1783,477zm12051 4853c-721,0 -1305,584 -1305,1305 0,721 584,1306 1305,1306 721,0 1306,-585 1306,-1306 0,-721 -585,-1305 -1306,-1305z"/>
  </g>
  <path id="interface-icon-jump-to-galaxy-event-default" fill="#603882" d="M40822 3496l2013 9173c1591,-321 3219,-538 4878,-642l-452 -9379c-2192,131 -4342,417 -6439,848zm-18741 21702l-7176 -6056c-1318,1600 -2528,3291 -3620,5062l8059 4820c830,-1336 1745,-2614 2737,-3826zm-6443 -6924l7176 6055c1059,-1213 2197,-2355 3407,-3417l-6082 -7155c-1603,1399 -3107,2908 -4501,4517zm5368 -5254l6081 7155c1216,-1002 2499,-1927 3842,-2765l-4842 -8047c-1779,1104 -3477,2326 -5081,3657zm6055 -4244l4842 8047c1356,-789 2769,-1492 4230,-2102l-3477 -8724c-1936,800 -3804,1730 -5595,2779zm6652 -3200l3476 8724c1468,-558 2983,-1024 4536,-1389l-2014 -9173c-2056,477 -4059,1092 -5998,1838z"/>

 </g>
 
</svg>
