<?xml version="1.0" encoding="UTF-8"?>
<!DOCTYPE svg PUBLIC "-//W3C//DTD SVG 1.1//EN" "http://www.w3.org/Graphics/SVG/1.1/DTD/svg11.dtd">
<!-- Creator: CorelDRAW X8 -->
<svg xmlns="http://www.w3.org/2000/svg" xml:space="preserve" width="1000px" height="1000px" version="1.1" shape-rendering="geometricPrecision" text-rendering="geometricPrecision" image-rendering="optimizeQuality" fill-rule="evenodd" clip-rule="evenodd"
viewBox="0 0 100000 100000"
 xmlns:xlink="http://www.w3.org/1999/xlink">
 <g id="interface-icon-dm">
  <metadata id="CorelCorpID_0Corel-Layer"/>
  <g id="interface-icon-dm-bg-border">
   <circle fill="black" cx="50000" cy="50000" r="50000"/>
   <path fill="black" d="M49999 22094c15429,0 27937,12508 27937,27937 0,15429 -12508,27936 -27937,27936 -15429,0 -27936,-12507 -27936,-27936 0,-15429 12507,-27937 27936,-27937zm-866 20921c3866,-435 7353,2347 7787,6214 434,3867 -2348,7353 -6214,7787 -3867,434 -7353,-2348 -7787,-6214 -435,-3867 2347,-7353 6214,-7787zm25144 12225c-3997,9151 -14655,13330 -23807,9334 -8095,-3536 -12300,-12285 -10395,-20592 -4147,9713 308,20970 10004,25204 9746,4256 21097,-194 25353,-9940 2335,-5349 2049,-11181 -296,-16058 1069,3859 868,8096 -859,12052zm-41061 13258c-5927,-8037 -4217,-19357 3820,-25284 7109,-5244 16789,-4511 23031,1293 -6339,-8448 -18315,-10219 -26830,-3938 -8559,6312 -10380,18367 -4068,26926 3464,4697 8658,7365 14055,7772 -3876,-1003 -7446,-3295 -10008,-6769zm9049 -42189c9924,-1115 18872,6026 19987,15950 986,8779 -4489,16794 -12635,19299 10484,-1266 18006,-10752 16825,-21266 -1187,-10569 -10717,-18174 -21285,-16986 -5800,651 -10707,3815 -13759,8285 2808,-2855 6577,-4800 10867,-5282z"/>
   <path fill="#177798" d="M49864 10219l270 0c304,0 552,248 552,552l0 6543c0,303 -248,552 -552,552l-270 0c-303,0 -552,-249 -552,-552l0 -6543c0,-304 249,-552 552,-552zm269 79634l-269 0c-304,0 -552,-249 -552,-552l0 -6543c0,-304 248,-552 552,-552l269 0c304,0 553,248 553,552l0 6543c0,303 -249,552 -553,552zm34416 -20025l-135 234c-152,263 -491,353 -754,202l-5666 -3272c-263,-152 -354,-491 -202,-754l134 -234c152,-263 492,-354 755,-202l5666 3272c263,151 354,491 202,754zm-68965 233l-135 -234c-152,-263 -61,-602 202,-754l5666 -3271c263,-152 602,-61 754,202l135 233c152,263 61,603 -202,755l-5666 3271c-263,152 -602,61 -754,-202zm68830 -40050l135 233c152,263 61,603 -202,754l-5666 3272c-263,152 -603,61 -754,-202l-135 -234c-152,-263 -61,-602 202,-754l5666 -3271c263,-152 602,-61 754,202zm-68965 233l135 -234c152,-263 491,-354 754,-202l5666 3271c263,152 354,492 202,755l-134 233c-152,263 -492,354 -755,202l-5666 -3271c-263,-152 -354,-491 -202,-754z"/>
   <path fill="#7688A1" fill-rule="nonzero" d="M50001 8553c11454,0 21825,4643 29331,12150 7506,7506 12149,17876 12149,29330 0,11455 -4643,21825 -12149,29332 -7506,7506 -17877,12149 -29331,12149 -11454,0 -21824,-4643 -29331,-12149 -7506,-7507 -12149,-17877 -12149,-29332 0,-8041 2289,-15549 6250,-21906l1702 989c-3792,6066 -5984,13236 -5984,20917 0,10912 4422,20790 11572,27940 7150,7150 17029,11573 27940,11573 10911,0 20790,-4423 27940,-11573 7150,-7150 11572,-17028 11572,-27940 0,-10911 -4422,-20789 -11572,-27939 -7150,-7150 -17029,-11573 -27940,-11573 -946,0 -1884,34 -2813,100l-60 -1969c949,-65 1907,-99 2873,-99z"/>
   <path fill="#FEFEFE" d="M37888 90869l-1306 4174c2513,747 5082,1282 7677,1601l476 -4347c-2314,-288 -4605,-765 -6847,-1428zm-21456 -14622c-7240,-9270 -10036,-20596 -8705,-31414 746,-6066 2790,-11973 6077,-17269l-3783 -2199c-1240,2011 -2319,4101 -3233,6251 2120,4095 1096,9247 -2671,12189 -239,186 -483,359 -733,520 -1460,11921 1625,24400 9601,34614 1083,1387 2229,2696 3430,3928l3086 -3100c-1074,-1104 -2099,-2278 -3069,-3520zm30662 -68710c2707,-183 5422,-107 8105,223 6759,831 13319,3274 19056,7250l2544 -3559c-6339,-4406 -13593,-7112 -21066,-8031 -2905,-357 -5843,-444 -8773,-257l134 4374zm32824 72814l5223 850c6454,-7261 10332,-16180 11471,-25435 372,-3028 451,-6092 232,-9145l-4358 376c195,2750 122,5509 -214,8235 -1142,9288 -5327,18202 -12354,25119zm-3412 3020l4357 2062c1231,-1072 2394,-2195 3487,-3365l-5323 -865c-805,748 -1646,1472 -2521,2168zm-873 675c-776,585 -1566,1140 -2369,1665l2334 3699c1126,-734 2229,-1521 3307,-2363 385,-300 764,-605 1136,-915l-4408 -2086zm-25554 8580l-57 4373c1079,0 2158,-37 3237,-111l-363 -4358c-938,63 -1878,95 -2817,96zm-4082 -190l-476 4347c1074,103 2152,169 3232,198l57 -4372c-940,-27 -1878,-85 -2813,-173z"/>
   <path fill="#0B3B53" fill-rule="nonzero" d="M23468 83364l-2774 3381c847,677 1713,1322 2598,1934l2438 -3633c-769,-533 -1523,-1094 -2262,-1682zm34738 8471l779 4304c1057,-205 2110,-447 3156,-726l-1188 -4210c-910,242 -1827,452 -2747,632zm-4045 591l363 4358c1073,-103 2144,-243 3211,-420l-778 -4304c-929,153 -1862,275 -2796,366zm15579 -4645l1969 3906c951,-497 1891,-1030 2817,-1598l-2335 -3699c-806,493 -1624,957 -2451,1391zm-3708 1722l1586 4077c996,-404 1983,-843 2958,-1320l-1969 -3906c-849,413 -1708,796 -2575,1149zm-3857 1355l1188 4210c1032,-306 2056,-648 3072,-1028l-1586 -4077c-884,329 -1775,628 -2674,895zm15657 -78668l-2544 3559c753,556 1490,1139 2211,1749l2873 -3298c-827,-702 -1675,-1373 -2540,-2010zm18473 29956l-4301 792c156,929 280,1861 375,2794l4357 -376c-107,-1073 -250,-2144 -431,-3210zm-966 -4403l-4206 1201c245,910 459,1826 642,2746l4301 -793c-209,-1057 -454,-2109 -737,-3154zm-1386 -4289l-4072 1599c332,883 633,1774 904,2670l4206 -1201c-309,-1030 -655,-2054 -1038,-3068zm-1794 -4135l-3900 1982c416,847 802,1705 1158,2570l4071 -1598c-406,-996 -849,-1981 -1329,-2954zm-2184 -3943l-3691 2346c496,805 962,1621 1399,2448l3899 -1982c-500,-950 -1036,-1888 -1607,-2812zm-2551 -3716l-3449 2690c571,754 1113,1522 1626,2302l3692 -2347c-589,-896 -1211,-1778 -1869,-2645zm-2889 -3457l-3176 3007c631,688 1243,1401 1836,2138l3449 -2689c-680,-848 -1384,-1667 -2109,-2456zm-3207 -3168l-2873 3298c695,625 1373,1277 2032,1954l3176 -3007c-757,-780 -1536,-1528 -2335,-2245zm-60929 65629l-3086 3099c779,757 1580,1482 2400,2176l2775 -3382c-713,-604 -1410,-1236 -2089,-1893zm13630 8860l-1701 4030c1003,406 2017,776 3042,1111l1306 -4174c-892,-293 -1775,-615 -2647,-967zm-3714 -1710l-2078 3849c959,501 1934,967 2921,1398l1700 -4029c-859,-377 -1707,-783 -2543,-1218zm-3531 -2059l-2438 3632c908,591 1833,1149 2773,1673l2079 -3849c-818,-457 -1623,-943 -2414,-1456z"/>
   <path fill="#177798" fill-rule="nonzero" d="M74570 25465c-6143,-6142 -14574,-9996 -23906,-10171l0 -3280c10237,176 19489,4396 26225,11132 2186,2186 4106,4637 5710,7300l-3 2 -2838 1638c-1460,-2414 -3204,-4637 -5188,-6621zm-25236 -10171c-9331,175 -17763,4029 -23906,10171 -1983,1983 -3728,4206 -5188,6621l-2839 -1639 -2 -1c1604,-2663 3524,-5114 5710,-7300 6736,-6736 15988,-10957 26225,-11132l0 3280zm-29760 17944c-2755,4978 -4323,10705 -4323,16798 0,6092 1568,11818 4323,16797l-2838 1639 -3 2c-3034,-5462 -4762,-11748 -4762,-18438 0,-6691 1728,-12977 4762,-18439l3 2 2838 1639zm666 34747c1459,2415 3204,4638 5188,6622 6142,6142 14574,9995 23905,10170l0 3281c-10236,-176 -19488,-4396 -26224,-11132 -2186,-2186 -4106,-4637 -5710,-7301l2 -1 2839 -1639zm30424 16792c9331,-175 17763,-4028 23906,-10170 1983,-1984 3728,-4207 5188,-6621l2838 1639 3 1c-1604,2663 -3525,5114 -5710,7300 -6736,6736 -15988,10956 -26225,11132l0 -3281zm29760 -17943c2755,-4979 4323,-10705 4323,-16798 0,-6093 -1568,-11819 -4323,-16798l2838 -1638 3 -2c3034,5461 4762,11748 4762,18438 0,6690 -1728,12977 -4762,18438l-3 -2 -2838 -1638z"/>
  </g>
  <g id="interface-icon-dm-capacity">
   <path id="interface-icon-dm-energy00" fill="#232324" d="M50771 21495l0 -4328 -1546 0 0 4328 1546 0zm-2988 75l-452 -4304 -1537 162 452 4304 1537 -162zm-2963 388l-900 -4233 -1512 321 900 4233 1512 -321zm-2906 695l-1338 -4116 -1470 478 1338 4116 1470 -478zm-2819 995l-1760 -3954 -1412 629 1761 3954 1411 -629zm-2698 1284l-2164 -3747 -1339 772 2165 3748 1338 -773zm-2550 1560l-2543 -3501 -1251 908 2544 3501 1250 -908zm-2372 1817l-2896 -3216 -1148 1034 2895 3216 1149 -1034zm-2169 2055l-3217 -2896 -1034 1149 3216 2896 1035 -1149zm-1943 2271l-3501 -2544 -909 1251 3501 2544 909 -1251zm-1695 2462l-3748 -2164 -773 1338 3748 2164 773 -1338zm-1429 2625l-3953 -1761 -629 1413 3954 1760 628 -1412zm-1146 2760l-4115 -1338 -478 1471 4116 1337 477 -1470zm-851 2865l-4233 -900 -321 1512 4233 899 321 -1511zm-708 4475l161 -1538 -4304 -452 -162 1537 4305 453zm-76 2987l0 -1545 -4328 0 0 1545 4328 0zm237 2980l-161 -1538 -4305 453 162 1537 4304 -452zm548 2938l-322 -1512 -4233 899 321 1512 4234 -899zm851 2864l-478 -1470 -4116 1337 478 1470 4116 -1337zm1146 2760l-629 -1412 -3953 1760 628 1412 3954 -1760zm1428 2625l-772 -1338 -3748 2163 773 1339 3747 -2164zm1696 2462l-909 -1251 -3501 2544 908 1251 3502 -2544zm1942 2270l-1034 -1148 -3216 2896 1035 1148 3215 -2896zm-726 5272l2896 -3216 -1149 -1035 -2895 3216 1148 1035zm2725 2102l2544 -3501 -1251 -909 -2544 3501 1251 909zm2930 1806l2163 -3748 -1338 -773 -2164 3748 1339 773zm3102 1490l1760 -3954 -1412 -629 -1760 3954 1412 629zm3241 1157l1337 -4116 -1470 -478 -1337 4116 1470 478zm3344 812l900 -4233 -1512 -321 -900 4233 1512 321zm3411 458l452 -4304 -1537 -161 -453 4304 1538 161zm3440 100l0 -4328 -1546 0 0 4328 1546 0zm3431 -261l-452 -4304 -1538 161 453 4304 1537 -161zm3385 -619l-899 -4233 -1512 322 899 4233 1512 -322zm3303 -968l-1338 -4116 -1470 477 1338 4116 1470 -477zm3183 -1309l-1761 -3953 -1412 628 1761 3954 1412 -629zm3028 -1634l-2164 -3748 -1338 773 2164 3748 1338 -773zm2842 -1941l-2544 -3502 -1251 909 2544 3501 1251 -908zm2622 -2229l-2895 -3216 -1149 1035 2896 3216 1148 -1035zm2376 -2490l-3216 -2895 -1035 1148 3217 2896 1034 -1149zm2102 -2724l-3501 -2544 -909 1250 3501 2544 909 -1250zm1806 -2930l-3748 -2164 -773 1339 3748 2164 773 -1339zm1490 -3102l-3954 -1760 -629 1412 3954 1760 629 -1412zm1157 -3241l-4116 -1337 -478 1470 4116 1337 478 -1470zm812 -3344l-4233 -900 -321 1512 4233 900 321 -1512zm459 -3411l-4305 -452 -161 1537 4304 452 162 -1537zm99 -3440l-4328 0 0 1546 4328 0 0 -1546zm-100 -1894l-161 -1537 -4304 452 161 1537 4304 -452zm-458 -3411l-322 -1512 -4233 900 322 1512 4233 -900zm-812 -3344l-478 -1470 -4116 1337 478 1470 4116 -1337zm-1158 -3241l-629 -1412 -3953 1760 628 1412 3954 -1760zm-1490 -3102l-773 -1339 -3748 2164 773 1339 3748 -2164zm-5307 -386l3501 -2543 -908 -1251 -3502 2544 909 1250zm-1817 -2372l3216 -2896 -1035 -1149 -3216 2896 1035 1149zm-2056 -2170l2896 -3216 -1149 -1034 -2895 3216 1148 1034zm-2271 -1943l2544 -3501 -1250 -908 -2544 3501 1250 908zm-2461 -1695l2164 -3747 -1339 -773 -2164 3748 1339 772zm-2625 -1428l1760 -3953 -1412 -629 -1760 3954 1412 628zm-2760 -1146l1337 -4116 -1470 -477 -1337 4116 1470 477zm-2865 -851l900 -4233 -1512 -322 -900 4234 1512 321zm-2938 -547l452 -4304 -1537 -162 -452 4304 1537 162z"/>
   <path id="interface-icon-dm-energy01" fill="#0ED403" d="M49225 17167l1546 0 0 4328 -1546 0 0 -4328zm13436 2527l1412 629 -1760 3953 -1412 -628 1760 -3954zm-3241 -1157l1470 477 -1337 4116 -1470 -477 1337 -4116zm-3344 -813l1512 322 -900 4233 -1512 -321 900 -4234zm-3411 -458l1537 162 -452 4304 -1537 -162 452 -4304z"/>
   <path id="interface-icon-dm-energy02" fill="#0ED403" d="M65763 21184l1339 773 -2164 3747 -1339 -772 2164 -3748zm10373 8906l908 1251 -3501 2543 -909 -1250 3502 -2544zm-2229 -2623l1035 1149 -3216 2896 -1035 -1149 3216 -2896zm-2490 -2375l1149 1034 -2896 3216 -1148 -1034 2895 -3216zm-2724 -2102l1250 908 -2544 3501 -1250 -908 2544 -3501z"/>
   <path id="interface-icon-dm-energy03" fill="#28BC03" d="M78077 32931l773 1339 -3748 2164 -773 -1339 3748 -2164zm4530 12900l161 1537 -4304 452 -161 -1537 4304 -452zm-619 -3386l322 1512 -4233 900 -322 -1512 4233 -900zm-968 -3302l478 1470 -4116 1337 -478 -1470 4116 -1337zm-1309 -3183l629 1412 -3954 1760 -628 -1412 3953 -1760z"/>
   <path id="interface-icon-dm-energy04" fill="#40A603" d="M82868 49262l0 1546 -4328 0 0 -1546 4328 0zm-2527 13436l-629 1412 -3954 -1760 629 -1412 3954 1760zm1157 -3241l-478 1470 -4116 -1337 478 -1470 4116 1337zm812 -3344l-321 1512 -4233 -900 321 -1512 4233 900zm459 -3411l-162 1537 -4304 -452 161 -1537 4305 452z"/>
   <path id="interface-icon-dm-energy05" fill="#40A603" d="M78851 65800l-773 1339 -3748 -2164 773 -1339 3748 2164zm-8906 10373l-1251 908 -2544 -3501 1251 -909 2544 3502zm2622 -2229l-1148 1035 -2896 -3216 1149 -1035 2895 3216zm2376 -2490l-1034 1149 -3217 -2896 1035 -1148 3216 2895zm2102 -2724l-909 1250 -3501 -2544 909 -1250 3501 2544z"/>
   <path id="interface-icon-dm-energy06" fill="#6C7D04" d="M67103 78114l-1338 773 -2164 -3748 1338 -773 2164 3748zm-12899 4530l-1537 161 -453 -4304 1538 -161 452 4304zm3385 -619l-1512 322 -899 -4233 1512 -322 899 4233zm3303 -968l-1470 477 -1338 -4116 1470 -477 1338 4116zm3183 -1309l-1412 629 -1761 -3954 1412 -628 1761 3953z"/>
   <path id="interface-icon-dm-energy07" fill="#816B04" d="M50773 82905l-1546 0 0 -4328 1546 0 0 4328zm-13436 -2527l-1412 -629 1760 -3954 1412 629 -1760 3954zm3241 1157l-1470 -478 1337 -4116 1470 478 -1337 4116zm3344 812l-1512 -321 900 -4233 1512 321 -900 4233zm3411 458l-1538 -161 453 -4304 1537 161 -452 4304z"/>
   <path id="interface-icon-dm-energy08" fill="#8C6104" d="M34235 78888l-1339 -773 2164 -3748 1338 773 -2163 3748zm-10373 -8906l-908 -1251 3501 -2544 909 1251 -3502 2544zm2229 2622l-1035 -1148 3216 -2896 1034 1148 -3215 2896zm2489 2376l-1148 -1035 2895 -3216 1149 1035 -2896 3216zm2725 2102l-1251 -909 2544 -3501 1251 909 -2544 3501z"/>
   <path id="interface-icon-dm-energy09" fill="#995504" d="M21921 67140l-773 -1339 3748 -2163 772 1338 -3747 2164zm-4530 -12899l-162 -1537 4305 -453 161 1538 -4304 452zm618 3385l-321 -1512 4233 -899 322 1512 -4234 899zm969 3302l-478 -1470 4116 -1337 478 1470 -4116 1337zm1308 3183l-628 -1412 3953 -1760 629 1412 -3954 1760z"/>
   <path id="interface-icon-dm-energy10" fill="#B23E04" d="M17130 50809l0 -1545 4328 0 0 1545 -4328 0zm2527 -13435l629 -1413 3953 1761 -628 1412 -3954 -1760zm-1157 3241l478 -1471 4115 1338 -477 1470 -4116 -1337zm-812 3344l321 -1512 4233 900 -321 1511 -4233 -899zm-459 3410l162 -1537 4304 452 -161 1538 -4305 -453z"/>
   <path id="interface-icon-dm-energy11" fill="#C52C04" d="M21147 34271l773 -1338 3748 2164 -773 1338 -3748 -2164zm8906 -10372l1251 -908 2543 3501 -1250 908 -2544 -3501zm-2622 2228l1148 -1034 2896 3216 -1149 1034 -2895 -3216zm-2376 2490l1034 -1149 3217 2896 -1035 1149 -3216 -2896zm-2102 2725l909 -1251 3501 2544 -909 1251 -3501 -2544z"/>
   <path id="interface-icon-dm-energy12" fill="#E31104" d="M32894 21957l1339 -772 2164 3747 -1338 773 -2165 -3748zm6212 -2942l1470 -478 1338 4116 -1470 478 -1338 -4116zm6688 -1587l1537 -162 452 4304 -1537 162 -452 -4304zm-3386 618l1512 -321 900 4233 -1512 321 -900 -4233zm-6485 2277l1412 -629 1760 3954 -1411 629 -1761 -3954z"/>
  </g>
  <path id="interface-icon-dm-event-default" fill="#603882" d="M39134 2710l2014 9174c1590,-322 3219,-538 4877,-642l-451 -9379c-2192,131 -4342,417 -6440,847zm-18741 21703l-7176 -6056c-1317,1599 -2528,3290 -3620,5062l8060 4820c829,-1336 1744,-2614 2736,-3826zm-6442 -6925l7176 6056c1058,-1213 2196,-2355 3406,-3417l-6081 -7155c-1604,1399 -3108,2908 -4501,4516zm5367 -5253l6081 7155c1217,-1003 2500,-1927 3842,-2765l-4841 -8047c-1780,1104 -3477,2326 -5082,3657zm6055 -4244l4842 8047c1357,-789 2769,-1492 4230,-2102l-3476 -8725c-1936,801 -3805,1731 -5596,2780zm6652 -3201l3476 8725c1469,-558 2983,-1024 4536,-1389l-2013 -9173c-2057,476 -4060,1092 -5999,1837z"/>
        <image x="23%" y="23%" width="56%" height="52%" xlink:href="/_svg/interface/interface-icon-dm-body.svg"/>
 </g>
</svg>
