<?xml version="1.0" encoding="UTF-8"?>
<!DOCTYPE svg PUBLIC "-//W3C//DTD SVG 1.1//EN" "http://www.w3.org/Graphics/SVG/1.1/DTD/svg11.dtd">
<!-- Creator: CorelDRAW X8 -->
<svg xmlns="http://www.w3.org/2000/svg" xml:space="preserve" width="1000px" height="1000px" version="1.1" shape-rendering="geometricPrecision" text-rendering="geometricPrecision" image-rendering="optimizeQuality" fill-rule="evenodd" clip-rule="evenodd"
viewBox="0 0 1000 1000"
 xmlns:xlink="http://www.w3.org/1999/xlink">
 <g id="interface-icon-message">
  <metadata id="CorelCorpID_0Corel-Layer"/>
  <circle fill="black" cx="500" cy="500" r="500"/>
  <path fill="#E31E24" fill-rule="nonzero" d="M503 132c104,0 198,43 266,111 68,68 110,162 110,265 0,104 -42,198 -110,266 -68,68 -162,110 -266,110 -103,0 -197,-42 -265,-110 -68,-68 -110,-162 -110,-266 0,-103 42,-197 110,-265 68,-68 162,-111 265,-111zm255 121c-65,-65 -155,-105 -255,-105 -99,0 -189,40 -255,105 -65,66 -105,156 -105,255 0,100 40,190 105,255 66,66 156,106 255,106 100,0 190,-40 255,-106 66,-65 106,-155 106,-255 0,-99 -40,-189 -106,-255z"/>
  <path fill="#177798" d="M512 162c185,4 334,153 338,338l-40 0c-4,-163 -135,-294 -298,-298l0 -40z"/>
  <path fill="#4F65B7" d="M495 243c-42,2 -82,13 -117,32l26 45c14,-3 29,-5 44,-5 17,0 32,2 47,6l0 -78zm-107 81l-24 -41c-35,22 -64,51 -86,86l26 15c19,-27 48,-48 84,-60zm-107 130c0,-20 5,-39 14,-57l-25 -14c-19,35 -30,75 -31,117l51 0c-6,-14 -9,-30 -9,-46zm56 105c-16,-12 -29,-26 -39,-43l-59 0c1,43 12,83 31,118l54 -31 16 -36c-1,-3 -2,-6 -3,-8zm73 95c-21,-13 -39,-31 -53,-52l-79 46c22,35 51,64 86,86l46 -80zm85 28c-25,-1 -50,-8 -71,-19l-46 79c35,19 75,30 117,31l0 -91zm93 -10c-6,-1 -12,-2 -18,-3 -18,7 -38,12 -58,13l0 91c42,-1 82,-12 117,-31l-41 -70zm108 18l-50 -24c-12,3 -25,6 -39,6l36 62c20,-12 37,-27 53,-44zm33 -42l-27 -15c-6,6 -14,12 -22,17l20 37c11,-12 20,-25 29,-39zm39 -132l-39 0c5,12 7,25 7,38 0,25 -8,47 -23,66l24 14c19,-35 30,-75 31,-118zm-31 -133l-79 46c3,7 7,14 9,22 23,11 42,28 55,49l46 0c-1,-42 -12,-82 -31,-117zm-8 -14c-22,-35 -51,-64 -86,-86l-46 79c21,14 39,32 53,53l79 -46zm-100 -94c-35,-19 -75,-30 -117,-32l0 82c11,4 22,9 31,14 14,4 28,9 40,15l46 -79z"/>
  <path fill="#E97968" d="M320 734l-73 -86c-11,-14 -28,-12 -44,-4l-28 14c18,40 43,75 73,105 16,16 32,29 50,42l18 -27c10,-14 15,-31 4,-44zm-80 -38l11 0 11 0 5 9 6 10 -6 9 -5 10 -11 0 -11 0 -6 -10 -5 -9 5 -10 6 -9z"/>
  <path fill="#FEFEFE" d="M892 514c-3,212 -176,383 -389,383 -212,0 -385,-171 -388,-383l-77 0c3,254 210,460 465,460 14,0 27,-1 40,-2l1 -63 3 -1c18,-1 35,-2 52,-5l22 56 14 -4 -11 -57c19,-4 38,-10 56,-17l29 45c5,-2 10,-5 16,-8l-20 -47c18,-9 36,-19 53,-30l33 33c5,-3 9,-7 14,-11l-25 -36c17,-13 33,-27 48,-42l33 22c4,-5 7,-10 11,-14l-27 -26c14,-17 28,-34 39,-53l31 12c3,-6 6,-11 8,-16l-27 -16c11,-20 21,-41 29,-63l26 4c2,-5 3,-11 5,-17l-24 -8c6,-23 11,-46 14,-69l22 -1c0,-9 1,-17 1,-26l-77 0zm-772 -67l-76 -14c-4,23 -6,46 -6,70l77 0c0,-19 2,-38 5,-56zm-52 -103l72 26c7,-18 15,-35 24,-51l-66 -38c-12,20 -22,41 -30,63zm-22 78l76 13c3,-18 8,-37 14,-54l-72 -26c-8,21 -14,44 -18,67zm564 -367c-38,-9 -78,-13 -119,-12l3 77c5,0 10,0 15,0l0 0c210,3 380,173 383,383l77 0c-1,-33 -4,-64 -11,-94l-38 8c-14,-64 -42,-122 -80,-171l30 -24c-64,-82 -155,-142 -260,-167l0 0zm-124 346c0,2 0,3 0,4 2,12 12,21 24,21 14,0 25,-11 25,-25 0,-12 -10,-23 -23,-24 0,0 -1,0 -2,0 -13,0 -24,11 -24,24zm147 114c0,1 0,3 1,4 1,10 10,18 21,18 12,0 21,-10 21,-22 0,-11 -8,-20 -20,-21 0,0 -1,0 -1,0 -12,0 -22,10 -22,21zm-108 0c0,1 0,3 0,4 2,10 11,18 22,18 11,0 21,-10 21,-22 0,-11 -9,-20 -20,-21 0,0 -1,0 -1,0 -12,0 -22,10 -22,21zm54 0c0,1 0,3 0,4 2,10 11,18 22,18 11,0 21,-10 21,-22 0,-11 -9,-20 -20,-21 0,0 -1,0 -1,0 -12,0 -22,10 -22,21zm-216 -114c0,2 1,3 1,4 2,12 12,21 24,21 13,0 24,-11 24,-25 0,-12 -10,-23 -22,-24 -1,0 -2,0 -2,0 -14,0 -25,11 -25,24zm62 0c0,2 0,3 0,4 2,12 12,21 24,21 13,0 24,-11 24,-25 0,-12 -10,-23 -22,-24 -1,0 -1,0 -2,0 -13,0 -24,11 -24,24zm-245 234c-15,-39 -23,-82 -23,-127 0,-189 151,-342 338,-346l0 40c-45,1 -87,12 -125,30l0 0 -41 -8c-54,40 -59,44 -95,92l6 35 0 0c-27,46 -43,100 -43,157 0,40 7,77 21,112l-38 15zm422 -199c74,0 134,53 134,118 0,40 -22,75 -56,96l24 44 -58 -28c-13,4 -28,6 -44,6 -74,0 -134,-53 -134,-118 0,-65 60,-118 134,-118zm-154 -121c79,0 145,45 163,106 -2,0 -5,0 -7,0 -84,0 -152,59 -152,133 0,14 3,27 7,39 -4,0 -7,0 -11,0 -19,0 -37,-2 -54,-7l-76 30 24 -54c-37,-25 -61,-64 -61,-108 0,-77 75,-139 167,-139zm402 201c-4,188 -158,339 -347,339 -66,0 -128,-18 -181,-51l21 -34c47,29 102,45 160,45 167,0 303,-133 307,-299l40 0zm-343 402l-1 38 -18 0 1 -39 18 1zm-411 -370l-38 2 -2 -18 39 -3 1 19zm375 368l-4 39 -18 -2 4 -38 18 1zm-35 -4l-7 38 -18 -4 7 -37 18 3zm-35 -7l-10 37 -18 -5 10 -37 18 5zm-34 -11l-14 36 -17 -6 14 -36 17 6zm-33 -13l-17 34 -17 -8 17 -34 17 8zm-32 -16l-20 33 -16 -10 20 -33 16 10zm-30 -19l-23 31 -15 -11 23 -31 15 11zm-29 -22l-25 29 -14 -12 25 -29 14 12zm-26 -24l-28 27 -13 -13 28 -27 13 13zm-25 -26l-30 24 -11 -14 30 -24 11 14zm-22 -28l-31 22 -11 -16 32 -21 10 15zm-19 -30l-34 19 -9 -16 34 -19 9 16zm-17 -31l-35 15 -8 -16 36 -16 7 17zm-14 -33l-36 12 -6 -17 36 -13 6 18zm-11 -34l-37 9 -5 -18 38 -9 4 18zm-8 -35l-38 6 -3 -18 38 -6 3 18z"/>
  <path id="interface-icon-message-active" fill="#603882" d="M401 32l21 96c17,-3 34,-6 51,-7l-5 -98c-23,2 -45,5 -67,9zm-195 227l-75 -64c-14,17 -27,35 -38,53l84 51c9,-14 18,-28 29,-40zm-68 -73l75 64c11,-13 23,-25 36,-36l-64 -75c-16,15 -32,31 -47,47zm56 -54l64 74c12,-10 26,-20 40,-29l-51 -84c-18,12 -36,25 -53,39zm64 -45l50 84c14,-8 29,-15 44,-22l-36 -91c-20,9 -40,18 -58,29zm69 -33l36 91c15,-6 31,-11 47,-15l-21 -95c-21,5 -42,11 -62,19z"/>
 </g>
</svg>
