<?xml version="1.0" encoding="UTF-8"?>
<!DOCTYPE svg PUBLIC "-//W3C//DTD SVG 1.1//EN" "http://www.w3.org/Graphics/SVG/1.1/DTD/svg11.dtd">
<!-- Creator: CorelDRAW 2017 -->
<svg xmlns="http://www.w3.org/2000/svg" xml:space="preserve" width="1000px" height="898px" version="1.1" shape-rendering="geometricPrecision" text-rendering="geometricPrecision" image-rendering="optimizeQuality" fill-rule="evenodd" clip-rule="evenodd"
viewBox="0 0 100001 89684"
 xmlns:xlink="http://www.w3.org/1999/xlink">
 <g id="toggle">
  <metadata id="CorelCorpID_0Corel-Layer"/>
  <path fill="#7688A1" d="M30293 10591c420,368 469,1000 109,1410 -359,410 -991,445 -1411,77 -420,-368 -469,-999 -109,-1410 359,-410 991,-445 1411,-77zm39485 68502c-420,-368 -469,-1000 -110,-1410 360,-410 992,-445 1412,-76 420,367 469,998 109,1409 -359,410 -991,445 -1411,77zm8466 -4661l-4370 -3642c-427,-357 -485,-998 -129,-1426l1667 -1999c356,-428 998,-486 1425,-130l4369 3642c428,356 486,998 130,1425l-1667 2000c-356,428 -998,486 -1425,130zm12142 -32126l-5673 415c-555,41 -1042,-380 -1083,-935l-190 -2596c-41,-556 380,-1043 935,-1084l5673 -415c555,-41 1043,380 1083,935l191 2596c40,556 -381,1043 -936,1084zm-644 8763l-5648 -674c-553,-66 -951,-573 -885,-1125l309 -2585c66,-553 572,-951 1125,-885l5648 675c552,66 951,572 885,1125l-309 2584c-66,553 -572,951 -1125,885zm-2305 8480l-5415 -1740c-530,-170 -824,-743 -654,-1273l796 -2479c171,-530 743,-824 1273,-654l5416 1740c530,171 824,743 654,1273l-797 2479c-170,530 -743,824 -1273,654zm-3880 7884l-4984 -2741c-488,-269 -667,-887 -399,-1375l1255 -2281c268,-488 886,-667 1374,-399l4984 2741c488,269 667,887 399,1375l-1254 2280c-269,489 -887,668 -1375,400zm-12358 6297c529,-179 1100,94 1275,611 175,516 -111,1081 -639,1261 -529,179 -1100,-94 -1276,-611 -175,-516 111,-1081 640,-1261zm3933 3912c-109,548 -631,906 -1166,800 -536,-107 -881,-637 -772,-1185 108,-548 630,-905 1166,-799 535,106 881,636 772,1184zm-53305 -62390l4369 3642c428,357 486,998 130,1426l-1667 1999c-356,428 -998,486 -1425,130l-4370 -3642c-427,-356 -485,-998 -129,-1425l1666 -2000c357,-428 998,-486 1426,-130zm-12142 32126l5672 -415c556,-41 1043,380 1084,935l190 2596c41,556 -380,1043 -935,1084l-5673 415c-555,41 -1043,-380 -1084,-935l-190 -2596c-40,-556 381,-1043 936,-1084zm644 -8763l5648 674c553,66 951,573 885,1125l-309 2585c-66,553 -572,951 -1125,885l-5648 -674c-553,-67 -951,-573 -885,-1126l309 -2584c66,-553 572,-951 1125,-885zm2305 -8480l5415 1740c530,170 824,743 654,1273l-796 2479c-171,530 -743,824 -1274,654l-5415 -1740c-530,-171 -824,-743 -654,-1273l797 -2479c170,-530 742,-824 1273,-654zm3880 -7884l4984 2741c487,269 667,887 399,1375l-1255 2281c-268,488 -887,667 -1375,399l-4983 -2741c-488,-269 -668,-887 -399,-1375l1254 -2281c269,-488 887,-667 1375,-399zm12358 -6297c-529,179 -1100,-94 -1275,-611 -176,-516 110,-1081 639,-1261 529,-179 1100,94 1276,611 175,516 -111,1081 -640,1261zm-3933 -3912c109,-548 631,-906 1166,-800 535,107 881,637 772,1185 -108,548 -630,905 -1166,799 -535,-107 -881,-636 -772,-1184z"/>
  <path fill="#FEFEFE" d="M91476 76308c-9775,8295 -22223,13422 -36518,12147 8145,-9333 11377,-20411 10728,-30970 632,1142 2142,3634 3708,5174 3633,-2570 9189,-12766 8831,-25903l3103 -2299 18 -251c1,-15 393,-5350 -2267,-11327 -2656,-5967 -6536,-9212 -6547,-9221l-242 -205 -2966 1071c-7232,-7879 -16493,-12472 -16712,-12839 -83,-140 -163,-312 -217,-491 19127,4971 28550,17758 28577,17795l298 398 5450 -3348c403,422 799,854 1187,1297l-280 207c-447,332 -541,969 -210,1416l1551 2091c332,447 969,542 1416,210l349 -259c434,640 850,1300 1248,1979l-284 131c-505,234 -728,838 -494,1344l1093 2363c233,505 838,727 1343,493l418 -193c99,233 199,465 293,702 221,557 423,1114 615,1671l-357 94c-538,141 -863,697 -722,1235l661 2518c141,539 697,864 1236,722l429 -113c708,3269 970,6499 907,9623 -125,-6 -251,-5 -378,5 -1694,124 -2969,1566 -2848,3222 108,1466 1274,2607 2716,2763 -86,583 -182,1161 -286,1732 -271,-53 -554,-72 -843,-51 -1694,124 -2969,1566 -2848,3222 96,1316 1047,2371 2284,2685 -183,613 -372,1214 -568,1804 -385,-131 -803,-188 -1235,-156 -1694,124 -2969,1566 -2848,3222 87,1183 863,2154 1917,2567 -250,572 -501,1125 -752,1656 -471,-224 -1007,-332 -1568,-291 -1694,124 -2969,1566 -2848,3222 78,1059 708,1948 1596,2420 -1196,2033 -2028,3178 -2029,3179 1743,951 2724,1328 4895,1537zm-82881 -62932c9775,-8295 22223,-13422 36518,-12147 -8145,9333 -11377,20411 -10728,30970 -633,-1142 -2142,-3634 -3708,-5174 -3633,2570 -9189,12766 -8832,25903l-3102 2299 -18 251c-1,15 -393,5350 2267,11327 2656,5967 6536,9212 6547,9221l242 205 2966 -1070c7232,7878 16493,12471 16712,12838 83,140 163,312 217,490 -19127,-4971 -28550,-17757 -28578,-17794l-297 -398 -5450 3349c-404,-423 -799,-855 -1187,-1298l280 -207c447,-332 541,-969 210,-1416l-1552 -2091c-331,-447 -968,-542 -1415,-210l-349 259c-434,-640 -850,-1300 -1248,-1979l284 -131c505,-234 727,-838 494,-1344l-1093 -2362c-233,-506 -838,-728 -1343,-495l-418 194c-99,-233 -199,-465 -293,-702 -221,-557 -424,-1114 -615,-1671l357 -93c538,-142 863,-698 722,-1236l-661 -2518c-141,-539 -697,-864 -1236,-722l-430 113c-707,-3269 -969,-6499 -906,-9623 125,6 251,5 378,-5 1694,-124 2969,-1566 2848,-3222 -108,-1466 -1274,-2607 -2716,-2763 86,-583 182,-1161 286,-1732 271,53 554,72 843,51 1694,-124 2969,-1566 2848,-3222 -97,-1316 -1047,-2371 -2284,-2685 182,-613 372,-1214 568,-1804 385,131 803,188 1235,156 1694,-124 2969,-1566 2848,-3222 -87,-1183 -863,-2154 -1917,-2567 250,-571 502,-1125 752,-1656 471,224 1007,332 1568,291 1694,-124 2969,-1566 2848,-3222 -78,-1059 -708,-1948 -1596,-2420 1196,-2032 2028,-3178 2029,-3179 -1743,-951 -2724,-1328 -4895,-1537zm21698 -2785c420,368 469,1000 109,1410 -359,410 -991,445 -1411,77 -420,-368 -469,-999 -109,-1410 359,-410 991,-445 1411,-77zm-8466 4661l4369 3642c428,357 486,998 130,1426l-1667 1999c-356,428 -998,486 -1425,130l-4370 -3642c-427,-356 -485,-998 -129,-1425l1666 -2000c357,-428 998,-486 1426,-130zm-12142 32126l5672 -415c556,-41 1043,380 1084,935l190 2596c41,556 -380,1043 -935,1084l-5673 415c-555,41 -1043,-380 -1084,-935l-190 -2596c-40,-556 381,-1043 936,-1084zm644 -8763l5648 674c553,66 951,573 885,1125l-309 2585c-66,553 -572,951 -1125,885l-5648 -674c-553,-67 -951,-573 -885,-1126l309 -2584c66,-553 572,-951 1125,-885zm2305 -8480l5415 1740c530,170 824,743 654,1273l-796 2479c-171,530 -743,824 -1274,654l-5415 -1740c-530,-171 -824,-743 -654,-1273l797 -2479c170,-530 742,-824 1273,-654zm3880 -7884l4984 2741c487,269 667,887 399,1375l-1255 2281c-268,488 -887,667 -1375,399l-4983 -2741c-488,-269 -668,-887 -399,-1375l1254 -2281c269,-488 887,-667 1375,-399zm12358 -6297c-529,179 -1100,-94 -1275,-611 -176,-516 110,-1081 639,-1261 529,-179 1100,94 1276,611 175,516 -111,1081 -640,1261zm-3933 -3912c109,-548 631,-906 1166,-800 535,107 881,637 772,1185 -108,548 -630,905 -1166,799 -535,-107 -881,-636 -772,-1184zm4083 -5395c-3908,1241 -6845,3546 -6845,3546l1046 888c980,-690 3394,-2254 6373,-3200 2432,-772 4890,-1069 6400,-1183 529,-790 909,-1305 909,-1305 0,0 -3975,13 -7883,1254zm-18037 48112c902,-71 1692,602 1763,1504 72,903 -602,1692 -1504,1763 -902,72 -1692,-602 -1763,-1504 -72,-902 602,-1692 1504,-1763zm3522 10873c856,-294 1789,160 2084,1016 294,856 -160,1788 -1016,2083 -855,295 -1788,-159 -2083,-1015 -295,-856 160,-1788 1015,-2084zm-2095 -5293c886,-186 1754,382 1940,1268 185,886 -383,1754 -1269,1939 -886,186 -1754,-382 -1940,-1268 -184,-886 383,-1754 1269,-1939zm34997 29207c-125,72 -290,121 -504,137 -907,66 -20081,-2668 -32769,-15240l4396 -2701c1777,2214 11343,13249 28877,17804zm22369 -10453c-420,-368 -469,-1000 -110,-1410 360,-410 992,-445 1412,-76 420,367 469,998 109,1409 -359,410 -991,445 -1411,77zm8466 -4661l-4370 -3642c-427,-357 -485,-998 -129,-1426l1667 -1999c356,-428 998,-486 1425,-130l4369 3642c428,356 486,998 130,1425l-1667 2000c-356,428 -998,486 -1425,130zm12142 -32126l-5673 415c-555,41 -1042,-380 -1083,-935l-190 -2596c-41,-556 380,-1043 935,-1084l5673 -415c555,-41 1043,380 1083,935l191 2596c40,556 -381,1043 -936,1084zm-644 8763l-5648 -674c-553,-66 -951,-573 -885,-1125l309 -2585c66,-553 572,-951 1125,-885l5648 675c552,66 951,572 885,1125l-309 2584c-66,553 -572,951 -1125,885zm-2305 8480l-5415 -1740c-530,-170 -824,-743 -654,-1273l796 -2479c171,-530 743,-824 1273,-654l5416 1740c530,171 824,743 654,1273l-797 2479c-170,530 -743,824 -1273,654zm-3880 7884l-4984 -2741c-488,-269 -667,-887 -399,-1375l1255 -2281c268,-488 886,-667 1374,-399l4984 2741c488,269 667,887 399,1375l-1254 2280c-269,489 -887,668 -1375,400zm-12358 6297c529,-179 1100,94 1275,611 175,516 -111,1081 -639,1261 -529,179 -1100,-94 -1276,-611 -175,-516 111,-1081 640,-1261zm3933 3912c-109,548 -631,906 -1166,800 -536,-107 -881,-637 -772,-1185 108,-548 630,-905 1166,-799 535,106 881,636 772,1184zm-4083 5395c3908,-1241 6845,-3546 6845,-3546l-1046 -888c-980,690 -3394,2254 -6373,3200 -2432,772 -4890,1069 -6400,1183 -529,790 -909,1305 -909,1305 0,0 3974,-13 7883,-1254zm18037 -48112c-903,71 -1692,-602 -1763,-1504 -72,-902 602,-1692 1504,-1763 902,-72 1691,602 1763,1504 71,902 -602,1692 -1504,1763zm-3523 -10873c-855,294 -1788,-160 -2083,-1016 -295,-856 160,-1788 1015,-2083 856,-295 1789,159 2084,1015 295,856 -160,1789 -1016,2084zm2096 5293c-886,186 -1755,-382 -1940,-1268 -185,-886 383,-1754 1269,-1939 885,-186 1754,382 1939,1268 185,886 -382,1754 -1268,1939zm-34997 -29207c125,-72 289,-121 503,-137 908,-66 20082,2668 32770,15240l-4396 2701c-1777,-2214 -11343,-13249 -28877,-17804z"/>
  <path fill="#E31E24" d="M21902 54243c115,2033 373,4130 804,6276 1056,5263 3879,9885 7257,13765l-1953 704c-850,-779 -3851,-3743 -6023,-8624 -2220,-4990 -2222,-9486 -2185,-10566l2100 -1555zm-12167 -37734c1694,-124 3165,1117 3286,2773 122,1655 -1153,3098 -2847,3222 -1694,124 -3166,-1117 -3287,-2773 -121,-1656 1154,-3098 2848,-3222zm-6879 22375c1694,-124 3165,1117 3287,2773 121,1655 -1154,3098 -2848,3222 -1694,124 -3166,-1117 -3287,-2773 -121,-1656 1154,-3098 2848,-3222zm1261 -7666c1694,-124 3165,1117 3287,2773 121,1655 -1154,3098 -2848,3222 -1694,124 -3165,-1118 -3287,-2773 -121,-1656 1154,-3098 2848,-3222zm2367 -7555c1694,-124 3165,1117 3287,2773 121,1655 -1154,3098 -2848,3222 -1694,124 -3165,-1117 -3287,-2773 -121,-1656 1154,-3098 2848,-3222z"/>
  <path fill="#00A0E3" d="M90266 70714c-1694,124 -3165,-1117 -3287,-2773 -121,-1655 1154,-3098 2848,-3222 1694,-124 3165,1117 3287,2773 121,1656 -1154,3098 -2848,3222zm-12097 -35273c-115,-2032 -373,-4130 -804,-6276 -1057,-5263 -3879,-9885 -7257,-13765l1952 -704c851,779 3851,3743 6023,8624 2221,4990 2223,9486 2186,10566l-2100 1555zm18976 12898c-1694,124 -3166,-1117 -3287,-2772 -121,-1656 1154,-3099 2848,-3223 1694,-124 3165,1118 3287,2773 121,1656 -1154,3098 -2848,3222zm-1261 7666c-1694,124 -3166,-1117 -3287,-2772 -121,-1656 1154,-3099 2848,-3223 1694,-124 3165,1118 3286,2773 122,1656 -1153,3098 -2847,3222zm-2367 7555c-1694,124 -3166,-1117 -3287,-2772 -121,-1656 1153,-3098 2848,-3223 1694,-124 3165,1118 3286,2773 122,1656 -1153,3098 -2847,3222z"/>
 </g>
</svg>
