<?xml version="1.0" encoding="UTF-8"?>
<!DOCTYPE svg PUBLIC "-//W3C//DTD SVG 1.1//EN" "http://www.w3.org/Graphics/SVG/1.1/DTD/svg11.dtd">
<!-- Creator: CorelDRAW X8 -->
<svg xmlns="http://www.w3.org/2000/svg" xml:space="preserve" width="1000px" height="1000px" version="1.1" shape-rendering="geometricPrecision" text-rendering="geometricPrecision" image-rendering="optimizeQuality" fill-rule="evenodd" clip-rule="evenodd"
viewBox="0 0 1000 1000"
 xmlns:xlink="http://www.w3.org/1999/xlink">
 <g id="interface-icon-journal">
  <metadata id="CorelCorpID_0Corel-Layer"/>
  <circle fill="black" cx="500" cy="500" r="500"/>
  <path fill="#FEFEFE" fill-rule="nonzero" d="M970 512c-2,130 -56,246 -142,330 -86,84 -204,135 -334,133 -129,-2 -246,-56 -329,-142 -84,-86 -135,-204 -133,-333 1,-87 26,-168 68,-238l61 40c-36,58 -56,126 -57,199 -2,109 41,209 112,282 71,73 170,118 279,120 110,1 210,-42 283,-113 72,-70 118,-169 120,-279 0,-53 -10,-104 -28,-151l67 -28c22,56 34,117 33,180zm-380 9c18,0 36,4 52,12l0 -169c0,-15 -13,-27 -27,-27l-254 0c-14,0 -27,12 -27,27l0 303c0,15 13,28 27,28l131 0c-3,-5 -6,-10 -8,-15l-100 0 0 -16 95 0c-3,-9 -4,-19 -4,-29l-91 0 0 -16 92 0c2,-10 4,-19 8,-28l-100 0 0 -16 109 0c4,-8 10,-15 16,-21 3,-3 6,-5 9,-8l-134 0 0 -16 161 0c14,-6 29,-9 45,-9zm-110 233l30 -36c0,-1 -1,-1 -1,-2 -3,-2 -5,-5 -8,-8l-144 0c-21,0 -38,-17 -38,-38l0 -348c0,-20 17,-37 38,-37l262 0c21,0 38,17 38,37l0 221c5,3 9,7 14,11 20,21 33,50 33,81 0,32 -13,60 -33,81 -21,21 -50,34 -81,34 -24,0 -46,-8 -65,-20l-30 37 -15 -13zm-128 -90l17 0 0 16 -17 0 0 -16zm0 -268l17 0 0 16 -17 0 0 -16zm32 0l245 0 0 16 -245 0 0 -16zm-32 45l17 0 0 16 -17 0 0 -16zm32 0l245 0 0 16 -245 0 0 -16zm-32 44l17 0 0 16 -17 0 0 -16zm32 0l245 0 0 16 -245 0 0 -16zm-32 45l17 0 0 16 -17 0 0 -16zm0 45l17 0 0 16 -17 0 0 -16zm0 44l17 0 0 16 -17 0 0 -16zm304 -50c-17,-17 -41,-27 -66,-27 -26,0 -50,10 -66,27 -17,17 -28,41 -28,66 0,26 11,49 28,66 16,17 40,28 66,28 25,0 49,-11 66,-28 16,-17 27,-40 27,-66 0,-25 -11,-49 -27,-66zm-183 -531c11,-1 22,-1 34,-1 35,1 70,5 103,13l-21 69c-27,-6 -54,-9 -83,-10 -10,0 -20,0 -29,1l-4 -72zm405 473c-1,104 -45,198 -114,266 -69,67 -164,108 -268,107 -105,-2 -198,-45 -266,-115 -67,-69 -108,-164 -107,-268 2,-104 45,-198 114,-265 70,-68 165,-109 269,-107 104,1 198,45 265,114 68,69 109,164 107,268zm-125 254c66,-65 107,-154 109,-254 1,-100 -38,-191 -103,-257 -64,-66 -154,-108 -253,-109 -100,-1 -191,38 -257,102 -66,65 -108,155 -109,254 -2,100 38,191 102,257 64,66 154,108 254,109 100,2 190,-38 257,-102zm110 -420c-2,-6 -5,-11 -7,-17l64 -33c3,8 7,15 10,23l-67 27zm-15 -31c-3,-6 -6,-11 -9,-16l61 -39c4,7 8,15 12,22l-64 33zm-18 -30c-11,-16 -23,-31 -36,-45l47 -56c18,19 35,40 50,63l-61 38zm-115 -112c-25,-16 -51,-29 -79,-39l21 -69c37,13 72,31 105,52l-47 56zm-545 569c-16,-23 -30,-47 -41,-73l-26 10 -25 10c13,31 29,59 48,86l22 -16 22 -17zm-47 -87c-10,-26 -18,-53 -22,-81l-28 4 -27 4c6,32 15,64 27,94l25 -10 25 -11zm-25 -95c-3,-28 -4,-57 -2,-85l-27 -3 -27 -2c-3,33 -2,65 2,98l27 -4 27 -4zm808 -47c-1,64 -17,125 -44,179l24 13 24 13c32,-61 50,-131 51,-205 1,-50 -7,-99 -21,-145l-26 9 -26 8c12,41 19,83 18,128zm-122 285c-75,72 -177,116 -289,115 -31,-1 -62,-5 -92,-12l-7 26 -7 27c34,8 69,13 106,13 127,2 242,-48 327,-130 26,-26 50,-55 70,-87l-24 -14 -23 -14c-18,28 -38,53 -61,76z"/>
  <path fill="#4F65B7" fill-rule="nonzero" d="M501 152c98,0 186,39 250,104 64,64 104,152 104,250 0,98 -40,187 -104,251 -64,64 -152,103 -250,103 -98,0 -187,-39 -251,-103 -64,-64 -104,-153 -104,-251 0,-98 40,-186 104,-250 64,-65 153,-104 251,-104zm0 49c84,0 160,34 215,89 56,56 90,132 90,216 0,84 -34,161 -90,216 -55,55 -131,89 -215,89 -85,0 -161,-34 -216,-89 -55,-55 -89,-132 -89,-216 0,-84 34,-160 89,-216 55,-55 131,-89 216,-89zm204 101c-52,-52 -125,-85 -204,-85 -80,0 -152,33 -204,85 -53,52 -85,124 -85,204 0,80 32,152 85,204 52,53 124,85 204,85 79,0 152,-32 204,-85 52,-52 84,-124 84,-204 0,-80 -32,-152 -84,-204zm35 -35c-61,-61 -146,-99 -239,-99 -94,0 -178,38 -239,99 -61,61 -99,146 -99,239 0,93 38,178 99,239 61,61 145,99 239,99 93,0 178,-38 239,-99 61,-61 99,-146 99,-239 0,-93 -38,-178 -99,-239z"/>
  <path fill="#E31E24" fill-rule="nonzero" d="M501 176c91,0 173,37 233,97 60,60 96,142 96,233 0,91 -36,174 -96,233 -60,60 -142,97 -233,97 -91,0 -174,-37 -233,-97 -60,-59 -97,-142 -97,-233 0,-91 37,-173 97,-233 59,-60 142,-97 233,-97zm221 109c-56,-57 -135,-92 -221,-92 -87,0 -165,35 -222,92 -57,56 -92,135 -92,221 0,87 35,165 92,222 57,56 135,91 222,91 86,0 165,-35 221,-91 57,-57 92,-135 92,-222 0,-86 -35,-165 -92,-221z"/>
  <path fill="#7688A1" d="M615 337l-254 0c-14,0 -27,12 -27,27l0 303c0,15 13,28 27,28l131 0c-3,-5 -6,-10 -8,-15l-100 0 0 -16 95 0c-3,-9 -4,-19 -4,-29l-91 0 0 -16 92 0c2,-10 4,-19 8,-28l-100 0 0 -16 109 0c4,-8 10,-15 16,-21 3,-3 6,-5 9,-8l-134 0 0 -16 161 0c14,-6 29,-9 45,-9 18,0 36,4 52,12l0 -169c0,-15 -13,-27 -27,-27zm-246 327l-17 0 0 16 17 0 0 -16zm260 -179l-245 0 0 16 245 0 0 -16zm0 -44l-245 0 0 16 245 0 0 -16zm0 -45l-245 0 0 16 245 0 0 -16zm-260 16l0 -16 -17 0 0 16 17 0zm0 45l0 -16 -17 0 0 16 17 0zm0 28l-17 0 0 16 17 0 0 -16zm0 45l-17 0 0 16 17 0 0 -16zm0 45l-17 0 0 16 17 0 0 -16zm0 60l0 -16 -17 0 0 16 17 0z"/>
  <path id="interface-icon-journal-active" fill="#603882" d="M395 34l21 93c16,-3 33,-5 50,-6l-5 -96c-22,1 -44,4 -66,9zm-191 222l-74 -62c-13,16 -26,33 -37,51l83 50c8,-14 17,-27 28,-39zm-66 -71l73 62c11,-13 23,-24 35,-35l-62 -73c-17,14 -32,29 -46,46zm55 -54l62 73c12,-10 25,-20 39,-28l-49 -82c-19,11 -36,23 -52,37zm62 -43l49 82c14,-8 28,-15 43,-22l-35 -89c-20,8 -39,18 -57,29zm68 -33l35 89c15,-6 31,-10 47,-14l-21 -94c-21,5 -42,11 -61,19z"/>
 </g>
</svg>
