<?xml version="1.0" encoding="UTF-8"?>
<!DOCTYPE svg PUBLIC "-//W3C//DTD SVG 1.1//EN" "http://www.w3.org/Graphics/SVG/1.1/DTD/svg11.dtd">
<!-- Creator: CorelDRAW X8 -->
<svg xmlns="http://www.w3.org/2000/svg" xml:space="preserve" width="1000px" height="891px" version="1.1" shape-rendering="geometricPrecision" text-rendering="geometricPrecision" image-rendering="optimizeQuality" fill-rule="evenodd" clip-rule="evenodd"
viewBox="0 0 100681 89494"
 xmlns:xlink="http://www.w3.org/1999/xlink">
 <g id="interface-icon-e">
  <metadata id="CorelCorpID_0Corel-Layer"/>
  <g id="interface-icon-e-body">
   <path fill="#CB83F2" d="M50340 25078c2688,0 5326,81 7899,236 -2590,-3582 -5250,-6833 -7899,-9689 -2650,2856 -5309,6106 -7898,9689 2572,-155 5211,-236 7898,-236zm11086 469c5312,456 10306,1234 14826,2275 659,-2385 1169,-4672 1528,-6833 1468,-8840 416,-15440 -3502,-17702 -3919,-2262 -10161,126 -17082,5817 -1693,1391 -3418,2977 -5155,4740 3163,3396 6333,7331 9385,11703zm5948 9366c1344,2327 2593,4651 3745,6958 1808,-4034 3295,-7962 4443,-11685 -3799,-867 -7944,-1544 -12342,-1996 1421,2152 2811,4396 4154,6723zm5137 9834c2261,4829 4083,9542 5443,13978 2394,-622 4631,-1323 6682,-2093 8389,-3149 13578,-7360 13578,-11885 0,-4525 -5189,-8735 -13578,-11885 -2051,-770 -4288,-1471 -6682,-2093 -1360,4436 -3183,9149 -5443,13978zm6129 16339c672,2444 1194,4790 1563,7011 1641,9887 206,17418 -4693,20246 -4898,2828 -12137,306 -19879,-6059 -1740,-1430 -3510,-3056 -5291,-4860 -1779,1804 -3551,3430 -5290,4860 -7742,6365 -14981,8887 -19880,6059 -4898,-2828 -6333,-10359 -4693,-20246 370,-2221 892,-4567 1564,-7011 -2452,-640 -4746,-1360 -6853,-2151 -9384,-3523 -15188,-8531 -15188,-14188 0,-5656 5804,-10665 15188,-14187 2107,-791 4401,-1512 6853,-2152 -672,-2444 -1194,-4790 -1564,-7010 -1640,-9887 -205,-17418 4693,-20247 4898,-2828 12138,-306 19880,6060 1739,1429 3511,3055 5290,4859 1781,-1804 3551,-3430 5291,-4859 7742,-6366 14981,-8888 19879,-6060 4899,2829 6334,10360 4693,20247 -369,2220 -891,4566 -1563,7010 2452,640 4745,1361 6853,2152 9384,3522 15188,8531 15188,14187 0,5657 -5804,10665 -15188,14188 -2108,791 -4401,1511 -6853,2151zm-30000 14564c-3163,-3394 -6333,-7330 -9385,-11702 -5313,-457 -10306,-1234 -14827,-2276 -658,2386 -1169,4672 -1527,6833 -1468,8841 -416,15440 3502,17702 3919,2262 10160,-126 17082,-5817 1693,-1391 3419,-2977 5155,-4740zm-11179 -14346c-1422,-2151 -2811,-4395 -4154,-6722 -1344,-2327 -2593,-4652 -3745,-6959 -1808,4035 -3294,7963 -4443,11685 3799,868 7944,1544 12342,1996zm-9291 -16557c-2261,-4829 -4083,-9542 -5442,-13978 -2396,622 -4632,1323 -6683,2093 -8389,3150 -13578,7360 -13578,11885 0,4525 5189,8736 13578,11885 2051,770 4287,1471 6683,2093 1359,-4436 3182,-9150 5442,-13978zm49610 23758c-359,-2161 -869,-4447 -1528,-6833 -4520,1041 -9514,1819 -14826,2276 -3052,4372 -6221,8308 -9384,11702 1736,1763 3461,3349 5154,4740 6921,5691 13163,8079 17082,5817 3918,-2262 4970,-8861 3502,-17702zm-2218 -9197c-1148,-3722 -2635,-7650 -4443,-11684 -1151,2306 -2401,4631 -3745,6958 -1343,2327 -2733,4571 -4154,6722 4398,-451 8543,-1128 12342,-1996zm-5779 -14561c-1363,-2839 -2879,-5716 -4545,-8601 -1665,-2885 -3399,-5638 -5176,-8238 -3139,-239 -6390,-363 -9722,-363 -3331,0 -6581,125 -9721,363 -1776,2600 -3511,5353 -5176,8238 -1666,2885 -3182,5762 -4546,8601 1364,2838 2880,5716 4546,8601 1665,2886 3400,5638 5176,8238 3139,239 6390,363 9721,363 3332,0 6582,-124 9722,-363 1777,-2600 3511,-5352 5176,-8238 1666,-2885 3182,-5763 4545,-8601zm-21144 -30903c-1736,-1763 -3462,-3349 -5154,-4740 -6922,-5691 -13163,-8079 -17082,-5817 -3918,2262 -4970,8862 -3502,17702 358,2161 869,4448 1527,6833 4521,-1040 9514,-1819 14827,-2275 3052,-4372 6221,-8308 9384,-11703zm-23520 16342c1149,3722 2635,7650 4443,11684 1151,-2306 2401,-4630 3745,-6957 1343,-2327 2733,-4572 4154,-6723 -4398,451 -8544,1129 -12342,1996zm17323 33994c2589,3583 5249,6834 7899,9689 2650,-2856 5309,-6106 7898,-9689 -2573,155 -5211,236 -7899,236 -2687,0 -5325,-81 -7898,-236z"/>
   <path fill="#49B7E6" fill-rule="nonzero" d="M50340 31309c3711,0 7071,1504 9502,3936 2432,2431 3936,5791 3936,9502 0,3711 -1504,7070 -3936,9502 -2431,2431 -5791,3936 -9502,3936 -3711,0 -7070,-1505 -9502,-3936 -2431,-2432 -3936,-5791 -3936,-9502 0,-3711 1505,-7071 3936,-9502 2432,-2432 5791,-3936 9502,-3936zm-11755 11543l152 0 0 -759 151 0 0 -607 152 0 0 -455 152 0 0 -454 152 0 0 -304 151 0 0 -455 152 0 0 -303 152 0 0 -304 151 0 0 -303 152 0 0 -152 152 0 0 -303 151 0 0 -303 152 0 0 -152 152 0 0 -152 152 0 0 -455 303 0 0 -152 152 0 0 -151 151 0 0 -304 152 0 0 -151 152 0 0 -152 151 0 0 -152 152 0 0 -151 152 0 0 -152 151 0 0 -152 304 0 0 -151 151 0 0 -152 152 0 0 -303 455 0 0 -152 152 0 0 -152 151 0 0 -151 304 0 0 -152 303 0 0 -152 152 0 0 -151 303 0 0 -152 303 0 0 -152 304 0 0 -151 455 0 0 -152 303 0 0 -303 910 0 0 -152 607 0 0 -152 759 0 0 -151 3792 0 0 151 758 0 0 152 607 0 0 152 455 0 0 151 455 0 0 152 303 0 0 152 455 0 0 151 304 0 0 152 303 0 0 152 303 0 0 151 152 0 0 152 303 0 0 152 304 0 0 151 151 0 0 152 152 0 0 152 455 0 0 303 152 0 0 152 151 0 0 151 304 0 0 152 151 0 0 152 152 0 0 151 152 0 0 152 152 0 0 152 151 0 0 151 152 0 0 304 152 0 0 151 151 0 0 152 304 0 0 455 151 0 0 152 152 0 0 152 152 0 0 303 151 0 0 303 152 0 0 152 152 0 0 303 152 0 0 304 151 0 0 303 152 0 0 455 152 0 0 304 151 0 0 454 152 0 0 455 152 0 0 607 151 0 0 759 152 0 0 3792 -152 0 0 758 -151 0 0 607 -152 0 0 910 -303 0 0 303 -152 0 0 455 -152 0 0 304 -151 0 0 303 -152 0 0 303 -152 0 0 152 -152 0 0 304 -151 0 0 303 -152 0 0 152 -152 0 0 151 -151 0 0 455 -304 0 0 152 -151 0 0 152 -152 0 0 303 -152 0 0 151 -151 0 0 152 -152 0 0 152 -152 0 0 151 -152 0 0 152 -151 0 0 152 -304 0 0 152 -151 0 0 151 -152 0 0 304 -455 0 0 151 -152 0 0 152 -151 0 0 152 -304 0 0 151 -303 0 0 152 -152 0 0 152 -303 0 0 151 -303 0 0 152 -304 0 0 152 -455 0 0 152 -303 0 0 151 -455 0 0 152 -455 0 0 152 -607 0 0 151 -758 0 0 152 -3792 0 0 -152 -759 0 0 -151 -607 0 0 -152 -455 0 0 -152 -455 0 0 -151 -303 0 0 -152 -455 0 0 -152 -304 0 0 -152 -303 0 0 -151 -303 0 0 -152 -152 0 0 -152 -303 0 0 -151 -304 0 0 -152 -151 0 0 -152 -152 0 0 -151 -455 0 0 -304 -152 0 0 -151 -151 0 0 -152 -304 0 0 -152 -151 0 0 -152 -152 0 0 -151 -152 0 0 -152 -151 0 0 -152 -152 0 0 -151 -152 0 0 -303 -151 0 0 -152 -152 0 0 -152 -303 0 0 -455 -152 0 0 -151 -152 0 0 -152 -152 0 0 -303 -151 0 0 -304 -152 0 0 -152 -152 0 0 -303 -151 0 0 -303 -152 0 0 -304 -152 0 0 -455 -151 0 0 -303 -152 0 0 -455 -152 0 0 -455 -152 0 0 -607 -151 0 0 -758 -152 0 0 -3792z"/>
   <path fill="#A8D6F2" d="M44046 43458l151 0 0 -910 152 0 0 -151 152 0 0 -304 151 0 0 -455 152 0 0 -152 152 0 0 -303 151 0 0 -303 304 0 0 -303 152 0 0 -152 151 0 0 -303 304 0 0 -152 151 0 0 -152 304 0 0 -151 151 0 0 -304 455 0 0 -152 304 0 0 -151 303 0 0 -152 304 0 0 -152 455 0 0 -151 606 0 0 -152 2579 0 0 152 607 0 0 151 455 0 0 152 303 0 0 152 455 0 0 151 152 0 0 152 303 0 0 152 304 0 0 303 303 0 0 152 152 0 0 152 303 0 0 303 152 0 0 152 151 0 0 303 304 0 0 303 151 0 0 303 152 0 0 152 152 0 0 455 151 0 0 304 152 0 0 151 152 0 0 910 151 0 0 2579 -151 0 0 607 -152 0 0 455 -152 0 0 303 -151 0 0 303 -152 0 0 304 -152 0 0 303 -151 0 0 152 -152 0 0 151 -152 0 0 304 -151 0 0 152 -152 0 0 303 -303 0 0 152 -152 0 0 151 -303 0 0 304 -304 0 0 151 -303 0 0 152 -152 0 0 152 -455 0 0 151 -152 0 0 152 -606 0 0 152 -304 0 0 152 -2882 0 0 -152 -606 0 0 -152 -455 0 0 -152 -304 0 0 -151 -303 0 0 -152 -304 0 0 -152 -303 0 0 -151 -152 0 0 -152 -151 0 0 -152 -304 0 0 -151 -151 0 0 -152 -304 0 0 -303 -151 0 0 -152 -152 0 0 -304 -152 0 0 -151 -152 0 0 -152 -151 0 0 -303 -152 0 0 -304 -152 0 0 -303 -151 0 0 -303 -152 0 0 -455 -152 0 0 -607 -151 0 0 -2579zm4399 -6674l-607 0 0 152 -455 0 0 152 -304 0 0 151 -303 0 0 152 -303 0 0 152 -304 0 0 152 -455 0 0 303 -303 0 0 152 -304 0 0 303 -151 0 0 152 -152 0 0 151 -152 0 0 152 -151 0 0 152 -152 0 0 151 -152 0 0 152 -151 0 0 152 -304 0 0 303 -151 0 0 304 -304 0 0 455 -151 0 0 303 -152 0 0 303 -152 0 0 303 -151 0 0 304 -152 0 0 455 -152 0 0 607 -151 0 0 3792 151 0 0 606 152 0 0 455 152 0 0 304 151 0 0 303 152 0 0 303 152 0 0 304 151 0 0 455 304 0 0 303 151 0 0 304 304 0 0 151 151 0 0 152 152 0 0 152 152 0 0 151 151 0 0 152 152 0 0 152 152 0 0 152 151 0 0 303 304 0 0 152 303 0 0 303 455 0 0 152 304 0 0 151 303 0 0 152 303 0 0 152 304 0 0 151 455 0 0 152 607 0 0 151 3792 0 0 -151 606 0 0 -152 455 0 0 -151 304 0 0 -152 303 0 0 -152 304 0 0 -151 303 0 0 -152 455 0 0 -303 303 0 0 -152 304 0 0 -303 151 0 0 -152 152 0 0 -152 152 0 0 -152 151 0 0 -151 152 0 0 -152 152 0 0 -152 151 0 0 -151 304 0 0 -304 151 0 0 -303 304 0 0 -455 151 0 0 -304 152 0 0 -303 152 0 0 -303 151 0 0 -304 152 0 0 -455 152 0 0 -606 151 0 0 -3792 -151 0 0 -607 -152 0 0 -455 -152 0 0 -304 -151 0 0 -303 -152 0 0 -303 -152 0 0 -303 -151 0 0 -455 -304 0 0 -304 -151 0 0 -303 -304 0 0 -152 -151 0 0 -152 -152 0 0 -151 -152 0 0 -152 -151 0 0 -152 -152 0 0 -151 -152 0 0 -152 -151 0 0 -303 -304 0 0 -152 -303 0 0 -303 -455 0 0 -152 -303 0 0 -152 -304 0 0 -152 -303 0 0 -151 -304 0 0 -152 -455 0 0 -152 -606 0 0 -151 -3792 0 0 151z"/>
   <path fill="#7DC5EC" d="M40861 43155l151 0 0 -758 152 0 0 -607 152 0 0 -304 151 0 0 -455 152 0 0 -303 152 0 0 -303 151 0 0 -152 152 0 0 -455 152 0 0 -151 151 0 0 -304 152 0 0 -152 152 0 0 -455 455 0 0 -303 151 0 0 -152 152 0 0 -303 152 0 0 -152 303 0 0 -151 152 0 0 -152 151 0 0 -152 152 0 0 -303 455 0 0 -152 152 0 0 -152 303 0 0 -151 152 0 0 -152 303 0 0 -152 304 0 0 -151 303 0 0 -152 303 0 0 -152 455 0 0 -151 304 0 0 -152 607 0 0 -152 758 0 0 -151 3185 0 0 151 759 0 0 152 606 0 0 152 304 0 0 151 455 0 0 152 303 0 0 152 304 0 0 151 303 0 0 152 303 0 0 152 152 0 0 151 303 0 0 152 152 0 0 152 303 0 0 151 152 0 0 152 152 0 0 152 151 0 0 152 152 0 0 151 303 0 0 152 152 0 0 303 152 0 0 152 151 0 0 303 304 0 0 152 151 0 0 303 152 0 0 152 152 0 0 304 151 0 0 151 152 0 0 304 152 0 0 303 152 0 0 303 151 0 0 303 152 0 0 455 152 0 0 304 151 0 0 607 152 0 0 758 152 0 0 3185 -152 0 0 759 -152 0 0 606 -151 0 0 304 -152 0 0 455 -152 0 0 303 -151 0 0 304 -152 0 0 303 -152 0 0 303 -152 0 0 152 -151 0 0 303 -152 0 0 152 -152 0 0 455 -303 0 0 152 -152 0 0 152 -151 0 0 151 -152 0 0 304 -152 0 0 151 -303 0 0 152 -152 0 0 152 -303 0 0 455 -455 0 0 151 -152 0 0 152 -303 0 0 151 -152 0 0 152 -303 0 0 152 -303 0 0 151 -304 0 0 152 -303 0 0 152 -455 0 0 152 -304 0 0 151 -606 0 0 152 -759 0 0 152 -3185 0 0 -152 -758 0 0 -152 -607 0 0 -151 -304 0 0 -152 -455 0 0 -152 -303 0 0 -152 -303 0 0 -151 -304 0 0 -152 -303 0 0 -152 -152 0 0 -151 -303 0 0 -152 -152 0 0 -151 -303 0 0 -152 -152 0 0 -152 -152 0 0 -151 -151 0 0 -152 -152 0 0 -152 -303 0 0 -151 -152 0 0 -304 -152 0 0 -151 -151 0 0 -152 -152 0 0 -152 -303 0 0 -455 -152 0 0 -152 -152 0 0 -303 -151 0 0 -152 -152 0 0 -303 -152 0 0 -303 -151 0 0 -304 -152 0 0 -303 -152 0 0 -455 -151 0 0 -304 -152 0 0 -606 -152 0 0 -759 -151 0 0 -3185zm8342 -9101l-1062 0 0 152 -606 0 0 152 -456 0 0 151 -455 0 0 152 -455 0 0 152 -303 0 0 151 -303 0 0 152 -304 0 0 152 -303 0 0 151 -304 0 0 152 -151 0 0 152 -304 0 0 151 -151 0 0 152 -304 0 0 152 -151 0 0 151 -152 0 0 152 -152 0 0 152 -151 0 0 151 -152 0 0 152 -303 0 0 152 -152 0 0 303 -152 0 0 152 -151 0 0 152 -152 0 0 151 -152 0 0 152 -151 0 0 152 -152 0 0 303 -152 0 0 152 -151 0 0 303 -152 0 0 152 -152 0 0 303 -151 0 0 304 -152 0 0 303 -152 0 0 303 -152 0 0 304 -151 0 0 454 -152 0 0 455 -152 0 0 455 -151 0 0 607 -152 0 0 1062 -152 0 0 2275 152 0 0 1062 152 0 0 607 151 0 0 455 152 0 0 455 152 0 0 455 151 0 0 303 152 0 0 304 152 0 0 303 152 0 0 303 151 0 0 304 152 0 0 151 152 0 0 304 151 0 0 152 152 0 0 303 152 0 0 152 151 0 0 151 152 0 0 152 152 0 0 152 151 0 0 151 152 0 0 304 152 0 0 151 303 0 0 152 152 0 0 151 151 0 0 152 152 0 0 152 152 0 0 151 151 0 0 152 304 0 0 152 151 0 0 152 304 0 0 151 151 0 0 152 304 0 0 152 303 0 0 151 304 0 0 152 303 0 0 152 303 0 0 151 455 0 0 152 455 0 0 152 456 0 0 151 606 0 0 152 1062 0 0 152 2275 0 0 -152 1062 0 0 -152 607 0 0 -151 455 0 0 -152 455 0 0 -152 455 0 0 -151 303 0 0 -152 304 0 0 -152 303 0 0 -151 303 0 0 -152 304 0 0 -152 151 0 0 -151 304 0 0 -152 151 0 0 -152 304 0 0 -152 151 0 0 -151 152 0 0 -152 152 0 0 -152 151 0 0 -151 152 0 0 -152 303 0 0 -151 152 0 0 -304 152 0 0 -151 151 0 0 -152 152 0 0 -152 152 0 0 -151 152 0 0 -152 151 0 0 -303 152 0 0 -152 152 0 0 -304 151 0 0 -151 152 0 0 -304 152 0 0 -303 151 0 0 -303 152 0 0 -304 152 0 0 -303 151 0 0 -455 152 0 0 -455 152 0 0 -455 152 0 0 -607 151 0 0 -1062 152 0 0 -2275 -152 0 0 -1062 -151 0 0 -607 -152 0 0 -455 -152 0 0 -455 -152 0 0 -454 -151 0 0 -304 -152 0 0 -303 -152 0 0 -303 -151 0 0 -304 -152 0 0 -303 -152 0 0 -152 -151 0 0 -303 -152 0 0 -152 -152 0 0 -303 -151 0 0 -152 -152 0 0 -152 -152 0 0 -151 -152 0 0 -152 -151 0 0 -152 -152 0 0 -303 -152 0 0 -152 -303 0 0 -152 -152 0 0 -151 -151 0 0 -152 -152 0 0 -152 -152 0 0 -151 -151 0 0 -152 -304 0 0 -152 -151 0 0 -151 -304 0 0 -152 -151 0 0 -152 -304 0 0 -151 -303 0 0 -152 -303 0 0 -152 -304 0 0 -151 -303 0 0 -152 -455 0 0 -152 -455 0 0 -151 -455 0 0 -152 -607 0 0 -152 -1062 0 0 -151 -2275 0 0 151z"/>
   <path fill="#C3E2F7" d="M46321 43155l152 0 0 -303 151 0 0 -304 455 0 0 -303 152 0 0 -304 152 0 0 -151 152 0 0 -304 151 0 0 -151 455 0 0 -304 304 0 0 -151 303 0 0 -152 3185 0 0 152 304 0 0 151 303 0 0 455 303 0 0 152 304 0 0 152 151 0 0 151 152 0 0 304 152 0 0 303 455 0 0 304 152 0 0 303 151 0 0 3185 -151 0 0 304 -152 0 0 303 -455 0 0 303 -152 0 0 304 -152 0 0 151 -151 0 0 152 -304 0 0 152 -303 0 0 455 -303 0 0 151 -304 0 0 152 -455 0 0 152 -2275 0 0 -152 -455 0 0 -152 -303 0 0 -151 -304 0 0 -455 -303 0 0 -152 -303 0 0 -152 -152 0 0 -151 -304 0 0 -152 -151 0 0 -455 -304 0 0 -303 -151 0 0 -304 -152 0 0 -3185zm2730 -4550l-606 0 0 151 -455 0 0 152 -304 0 0 152 -303 0 0 151 -304 0 0 152 -455 0 0 304 -151 0 0 151 -304 0 0 152 -151 0 0 152 -304 0 0 303 -151 0 0 152 -152 0 0 303 -304 0 0 303 -151 0 0 303 -152 0 0 152 -152 0 0 455 -151 0 0 304 -152 0 0 151 -152 0 0 910 -151 0 0 2579 151 0 0 607 152 0 0 455 152 0 0 303 151 0 0 303 152 0 0 304 152 0 0 303 151 0 0 152 152 0 0 151 152 0 0 304 152 0 0 152 151 0 0 303 304 0 0 152 151 0 0 151 304 0 0 152 151 0 0 152 152 0 0 151 303 0 0 152 304 0 0 152 303 0 0 151 304 0 0 152 455 0 0 152 606 0 0 152 2882 0 0 -152 304 0 0 -152 606 0 0 -152 152 0 0 -151 455 0 0 -152 152 0 0 -152 303 0 0 -151 304 0 0 -304 303 0 0 -151 152 0 0 -152 303 0 0 -303 152 0 0 -152 151 0 0 -304 152 0 0 -151 152 0 0 -152 151 0 0 -303 152 0 0 -304 152 0 0 -303 151 0 0 -303 152 0 0 -455 152 0 0 -607 151 0 0 -2579 -151 0 0 -910 -152 0 0 -151 -152 0 0 -304 -151 0 0 -455 -152 0 0 -152 -152 0 0 -303 -151 0 0 -303 -304 0 0 -303 -151 0 0 -152 -152 0 0 -303 -303 0 0 -152 -152 0 0 -152 -303 0 0 -303 -304 0 0 -152 -303 0 0 -152 -152 0 0 -151 -455 0 0 -152 -303 0 0 -152 -455 0 0 -151 -607 0 0 -152 -2579 0 0 152z"/>
   <path fill="#92CDEF" d="M42226 42852l151 0 0 -607 152 0 0 -455 152 0 0 -304 151 0 0 -303 152 0 0 -303 152 0 0 -303 151 0 0 -455 304 0 0 -304 151 0 0 -303 304 0 0 -152 151 0 0 -152 152 0 0 -151 152 0 0 -152 151 0 0 -152 152 0 0 -151 152 0 0 -152 151 0 0 -303 304 0 0 -152 303 0 0 -303 455 0 0 -152 304 0 0 -152 303 0 0 -152 303 0 0 -151 304 0 0 -152 455 0 0 -152 607 0 0 -151 3792 0 0 151 606 0 0 152 455 0 0 152 304 0 0 151 303 0 0 152 304 0 0 152 303 0 0 152 455 0 0 303 303 0 0 152 304 0 0 303 151 0 0 152 152 0 0 151 152 0 0 152 151 0 0 152 152 0 0 151 152 0 0 152 151 0 0 152 304 0 0 303 151 0 0 304 304 0 0 455 151 0 0 303 152 0 0 303 152 0 0 303 151 0 0 304 152 0 0 455 152 0 0 607 151 0 0 3792 -151 0 0 606 -152 0 0 455 -152 0 0 304 -151 0 0 303 -152 0 0 303 -152 0 0 304 -151 0 0 455 -304 0 0 303 -151 0 0 304 -304 0 0 151 -151 0 0 152 -152 0 0 152 -152 0 0 151 -151 0 0 152 -152 0 0 152 -152 0 0 152 -151 0 0 303 -304 0 0 152 -303 0 0 303 -455 0 0 152 -303 0 0 151 -304 0 0 152 -303 0 0 152 -304 0 0 151 -455 0 0 152 -606 0 0 151 -3792 0 0 -151 -607 0 0 -152 -455 0 0 -151 -304 0 0 -152 -303 0 0 -152 -303 0 0 -151 -304 0 0 -152 -455 0 0 -303 -303 0 0 -152 -304 0 0 -303 -151 0 0 -152 -152 0 0 -152 -152 0 0 -152 -151 0 0 -151 -152 0 0 -152 -152 0 0 -152 -151 0 0 -151 -304 0 0 -304 -151 0 0 -303 -304 0 0 -455 -151 0 0 -304 -152 0 0 -303 -152 0 0 -303 -151 0 0 -304 -152 0 0 -455 -152 0 0 -606 -151 0 0 -3792zm6522 -7433l-758 0 0 152 -607 0 0 152 -304 0 0 151 -455 0 0 152 -303 0 0 152 -303 0 0 151 -304 0 0 152 -303 0 0 152 -152 0 0 151 -303 0 0 152 -152 0 0 152 -455 0 0 303 -152 0 0 152 -151 0 0 152 -152 0 0 151 -303 0 0 152 -152 0 0 303 -152 0 0 152 -151 0 0 303 -455 0 0 455 -152 0 0 152 -152 0 0 304 -151 0 0 151 -152 0 0 455 -152 0 0 152 -151 0 0 303 -152 0 0 303 -152 0 0 455 -151 0 0 304 -152 0 0 607 -152 0 0 758 -151 0 0 3185 151 0 0 759 152 0 0 606 152 0 0 304 151 0 0 455 152 0 0 303 152 0 0 304 151 0 0 303 152 0 0 303 152 0 0 152 151 0 0 303 152 0 0 152 152 0 0 455 303 0 0 152 152 0 0 152 151 0 0 151 152 0 0 304 152 0 0 151 303 0 0 152 152 0 0 152 151 0 0 151 152 0 0 152 152 0 0 152 303 0 0 151 152 0 0 152 303 0 0 151 152 0 0 152 303 0 0 152 304 0 0 151 303 0 0 152 303 0 0 152 455 0 0 152 304 0 0 151 607 0 0 152 758 0 0 152 3185 0 0 -152 759 0 0 -152 606 0 0 -151 304 0 0 -152 455 0 0 -152 303 0 0 -152 304 0 0 -151 303 0 0 -152 303 0 0 -152 152 0 0 -151 303 0 0 -152 152 0 0 -151 455 0 0 -455 303 0 0 -152 152 0 0 -152 303 0 0 -151 152 0 0 -304 152 0 0 -151 151 0 0 -152 152 0 0 -152 303 0 0 -455 152 0 0 -152 152 0 0 -303 151 0 0 -152 152 0 0 -303 152 0 0 -303 152 0 0 -304 151 0 0 -303 152 0 0 -455 152 0 0 -304 151 0 0 -606 152 0 0 -759 152 0 0 -3185 -152 0 0 -758 -152 0 0 -607 -151 0 0 -304 -152 0 0 -455 -152 0 0 -303 -151 0 0 -303 -152 0 0 -303 -152 0 0 -304 -152 0 0 -151 -151 0 0 -304 -152 0 0 -152 -152 0 0 -303 -151 0 0 -152 -304 0 0 -303 -151 0 0 -152 -152 0 0 -303 -152 0 0 -152 -303 0 0 -151 -152 0 0 -152 -151 0 0 -152 -152 0 0 -152 -152 0 0 -151 -303 0 0 -152 -152 0 0 -152 -303 0 0 -151 -152 0 0 -152 -303 0 0 -152 -303 0 0 -151 -304 0 0 -152 -303 0 0 -152 -455 0 0 -151 -304 0 0 -152 -606 0 0 -152 -759 0 0 -151 -3185 0 0 151z"/>
   <path fill="#68BEEA" d="M39495 43610l152 0 0 -1062 152 0 0 -607 151 0 0 -455 152 0 0 -455 152 0 0 -454 151 0 0 -304 152 0 0 -303 152 0 0 -303 152 0 0 -304 151 0 0 -303 152 0 0 -152 152 0 0 -303 151 0 0 -152 152 0 0 -303 152 0 0 -152 151 0 0 -152 152 0 0 -151 152 0 0 -152 151 0 0 -152 152 0 0 -303 152 0 0 -152 303 0 0 -152 152 0 0 -151 151 0 0 -152 152 0 0 -152 152 0 0 -151 151 0 0 -152 304 0 0 -152 151 0 0 -151 304 0 0 -152 151 0 0 -152 304 0 0 -151 303 0 0 -152 304 0 0 -152 303 0 0 -151 303 0 0 -152 455 0 0 -152 455 0 0 -151 456 0 0 -152 606 0 0 -152 1062 0 0 -151 2275 0 0 151 1062 0 0 152 607 0 0 152 455 0 0 151 455 0 0 152 455 0 0 152 303 0 0 151 304 0 0 152 303 0 0 152 303 0 0 151 304 0 0 152 151 0 0 152 304 0 0 151 151 0 0 152 304 0 0 152 151 0 0 151 152 0 0 152 152 0 0 152 151 0 0 151 152 0 0 152 303 0 0 152 152 0 0 303 152 0 0 152 151 0 0 152 152 0 0 151 152 0 0 152 152 0 0 152 151 0 0 303 152 0 0 152 152 0 0 303 151 0 0 152 152 0 0 303 152 0 0 304 151 0 0 303 152 0 0 303 152 0 0 304 151 0 0 454 152 0 0 455 152 0 0 455 152 0 0 607 151 0 0 1062 152 0 0 2275 -152 0 0 1062 -151 0 0 607 -152 0 0 455 -152 0 0 455 -152 0 0 455 -151 0 0 303 -152 0 0 304 -152 0 0 303 -151 0 0 303 -152 0 0 304 -152 0 0 151 -151 0 0 304 -152 0 0 152 -152 0 0 303 -151 0 0 152 -152 0 0 151 -152 0 0 152 -152 0 0 152 -151 0 0 151 -152 0 0 304 -152 0 0 151 -303 0 0 152 -152 0 0 151 -151 0 0 152 -152 0 0 152 -152 0 0 151 -151 0 0 152 -304 0 0 152 -151 0 0 152 -304 0 0 151 -151 0 0 152 -304 0 0 152 -303 0 0 151 -303 0 0 152 -304 0 0 152 -303 0 0 151 -455 0 0 152 -455 0 0 152 -455 0 0 151 -607 0 0 152 -1062 0 0 152 -2275 0 0 -152 -1062 0 0 -152 -606 0 0 -151 -456 0 0 -152 -455 0 0 -152 -455 0 0 -151 -303 0 0 -152 -303 0 0 -152 -304 0 0 -151 -303 0 0 -152 -304 0 0 -152 -151 0 0 -151 -304 0 0 -152 -151 0 0 -152 -304 0 0 -152 -151 0 0 -151 -152 0 0 -152 -152 0 0 -152 -151 0 0 -151 -152 0 0 -152 -303 0 0 -151 -152 0 0 -304 -152 0 0 -151 -151 0 0 -152 -152 0 0 -152 -152 0 0 -151 -151 0 0 -152 -152 0 0 -303 -152 0 0 -152 -151 0 0 -304 -152 0 0 -151 -152 0 0 -304 -151 0 0 -303 -152 0 0 -303 -152 0 0 -304 -152 0 0 -303 -151 0 0 -455 -152 0 0 -455 -152 0 0 -455 -151 0 0 -607 -152 0 0 -1062 -152 0 0 -2275zm8950 -10466l-759 0 0 152 -607 0 0 152 -910 0 0 303 -303 0 0 152 -455 0 0 151 -304 0 0 152 -303 0 0 152 -303 0 0 151 -152 0 0 152 -303 0 0 152 -304 0 0 151 -151 0 0 152 -152 0 0 152 -455 0 0 303 -152 0 0 152 -151 0 0 151 -304 0 0 152 -151 0 0 152 -152 0 0 151 -152 0 0 152 -151 0 0 152 -152 0 0 151 -152 0 0 304 -151 0 0 151 -152 0 0 152 -303 0 0 455 -152 0 0 152 -152 0 0 152 -152 0 0 303 -151 0 0 303 -152 0 0 152 -152 0 0 303 -151 0 0 304 -152 0 0 303 -152 0 0 455 -151 0 0 304 -152 0 0 454 -152 0 0 455 -152 0 0 607 -151 0 0 759 -152 0 0 3792 152 0 0 758 151 0 0 607 152 0 0 455 152 0 0 455 152 0 0 303 151 0 0 455 152 0 0 304 152 0 0 303 151 0 0 303 152 0 0 152 152 0 0 304 151 0 0 303 152 0 0 152 152 0 0 151 152 0 0 455 303 0 0 152 152 0 0 152 151 0 0 303 152 0 0 151 152 0 0 152 151 0 0 152 152 0 0 151 152 0 0 152 151 0 0 152 304 0 0 152 151 0 0 151 152 0 0 304 455 0 0 151 152 0 0 152 151 0 0 152 304 0 0 151 303 0 0 152 152 0 0 152 303 0 0 151 303 0 0 152 304 0 0 152 455 0 0 152 303 0 0 151 455 0 0 152 455 0 0 152 607 0 0 151 759 0 0 152 3792 0 0 -152 758 0 0 -151 607 0 0 -152 455 0 0 -152 455 0 0 -151 303 0 0 -152 455 0 0 -152 304 0 0 -152 303 0 0 -151 303 0 0 -152 152 0 0 -152 303 0 0 -151 304 0 0 -152 151 0 0 -152 152 0 0 -151 455 0 0 -304 152 0 0 -151 151 0 0 -152 304 0 0 -152 151 0 0 -152 152 0 0 -151 152 0 0 -152 152 0 0 -152 151 0 0 -151 152 0 0 -303 152 0 0 -152 151 0 0 -152 304 0 0 -455 151 0 0 -151 152 0 0 -152 152 0 0 -303 151 0 0 -304 152 0 0 -152 152 0 0 -303 152 0 0 -303 151 0 0 -304 152 0 0 -455 152 0 0 -303 303 0 0 -910 152 0 0 -607 151 0 0 -758 152 0 0 -3792 -152 0 0 -759 -151 0 0 -607 -152 0 0 -455 -152 0 0 -454 -151 0 0 -304 -152 0 0 -455 -152 0 0 -303 -151 0 0 -304 -152 0 0 -303 -152 0 0 -152 -152 0 0 -303 -151 0 0 -303 -152 0 0 -152 -152 0 0 -152 -151 0 0 -455 -304 0 0 -152 -151 0 0 -151 -152 0 0 -304 -152 0 0 -151 -151 0 0 -152 -152 0 0 -152 -152 0 0 -151 -152 0 0 -152 -151 0 0 -152 -304 0 0 -151 -151 0 0 -152 -152 0 0 -303 -455 0 0 -152 -152 0 0 -152 -151 0 0 -151 -304 0 0 -152 -303 0 0 -152 -152 0 0 -151 -303 0 0 -152 -303 0 0 -152 -304 0 0 -151 -455 0 0 -152 -303 0 0 -152 -455 0 0 -151 -455 0 0 -152 -607 0 0 -152 -758 0 0 -151 -3792 0 0 151z"/>
   <path fill="#DBEDFA" d="M47838 44217l152 0 0 -304 151 0 0 -455 152 0 0 -303 152 0 0 -152 151 0 0 -151 152 0 0 -152 303 0 0 -152 304 0 0 -151 455 0 0 -152 1061 0 0 152 304 0 0 151 455 0 0 152 303 0 0 152 152 0 0 151 152 0 0 152 151 0 0 303 152 0 0 455 152 0 0 304 151 0 0 1062 -151 0 0 455 -152 0 0 303 -152 0 0 303 -151 0 0 152 -152 0 0 152 -152 0 0 151 -303 0 0 152 -455 0 0 303 -1365 0 0 -151 -455 0 0 -152 -304 0 0 -152 -303 0 0 -151 -152 0 0 -152 -151 0 0 -152 -152 0 0 -303 -152 0 0 -303 -151 0 0 -455 -152 0 0 -1062zm910 -3337l-303 0 0 151 -304 0 0 304 -455 0 0 151 -151 0 0 304 -152 0 0 151 -152 0 0 304 -152 0 0 303 -455 0 0 304 -151 0 0 303 -152 0 0 3185 152 0 0 304 151 0 0 303 304 0 0 455 151 0 0 152 304 0 0 151 152 0 0 152 303 0 0 152 303 0 0 455 304 0 0 151 303 0 0 152 455 0 0 152 2275 0 0 -152 455 0 0 -152 304 0 0 -151 303 0 0 -455 303 0 0 -152 304 0 0 -152 151 0 0 -151 152 0 0 -304 152 0 0 -303 455 0 0 -303 152 0 0 -304 151 0 0 -3185 -151 0 0 -303 -152 0 0 -304 -455 0 0 -303 -152 0 0 -304 -152 0 0 -151 -151 0 0 -152 -304 0 0 -152 -303 0 0 -455 -303 0 0 -151 -304 0 0 -152 -3185 0 0 152z"/>
   <polygon fill="#F2F6FC" points="49810,42397 49355,42397 49355,42548 49051,42548 49051,42700 48748,42700 48748,42852 48596,42852 48596,43003 48445,43003 48445,43155 48293,43155 48293,43458 48141,43458 48141,43913 47990,43913 47990,44217 47838,44217 47838,45279 47990,45279 47990,45734 48141,45734 48141,46037 48293,46037 48293,46340 48445,46340 48445,46492 48596,46492 48596,46644 48748,46644 48748,46795 49051,46795 49051,46947 49355,46947 49355,47099 49810,47099 49810,47250 51175,47250 51175,46947 51630,46947 51630,46795 51933,46795 51933,46644 52085,46644 52085,46492 52237,46492 52237,46340 52388,46340 52388,46037 52540,46037 52540,45734 52692,45734 52692,45279 52843,45279 52843,44217 52692,44217 52692,43913 52540,43913 52540,43458 52388,43458 52388,43155 52237,43155 52237,43003 52085,43003 52085,42852 51933,42852 51933,42700 51630,42700 51630,42548 51175,42548 51175,42397 50871,42397 50871,42245 49810,42245 "/>
  </g>
 </g>
</svg>
