<?xml version="1.0" encoding="UTF-8"?>
<!DOCTYPE svg PUBLIC "-//W3C//DTD SVG 1.1//EN" "http://www.w3.org/Graphics/SVG/1.1/DTD/svg11.dtd">
<!-- Creator: CorelDRAW 2017 -->
<svg xmlns="http://www.w3.org/2000/svg" xml:space="preserve" width="964px" height="1000px" version="1.1" shape-rendering="geometricPrecision" text-rendering="geometricPrecision" image-rendering="optimizeQuality" fill-rule="evenodd" clip-rule="evenodd"
viewBox="0 0 96401 99861"
 xmlns:xlink="http://www.w3.org/1999/xlink">
 <g id="interface-icon-confederation-bod">
  <metadata id="CorelCorpID_0Corel-Layer"/>
  <path fill="#5C531A" d="M50197 76641l10109 -17509 3776 -6541c-2730,135 -5827,124 -8412,233 -73,1782 -826,3390 -2005,4569 -931,931 -2128,1597 -3468,1872l0 17376zm13951 -24163l6258 -10839 -15087 8711c182,542 299,1115 340,1710 2586,165 5697,226 8489,418zm-9068 -1991l-1119 647c70,261 120,530 149,805 406,39 833,73 1277,103 -40,-539 -145,-1060 -307,-1555zm-955 2424c-171,2284 -1782,4166 -3928,4743l0 1335c1265,-271 2395,-904 3277,-1786 1128,-1128 1849,-2664 1925,-4367 -443,21 -869,45 -1274,75zm14925 -13691l-19923 0c49,2256 117,4530 244,6478 1672,135 3175,869 4294,1988 87,87 172,177 255,269l15130 -8735zm-20616 0l-19865 0 15131 8736c83,-93 168,-183 256,-271 1112,-1111 2603,-1843 4263,-1985 115,-1948 173,-4222 215,-6480zm-4495 8874l1109 640c808,-805 1873,-1353 3062,-1509 34,-397 65,-816 92,-1253 -1578,145 -2996,846 -4055,1904 -71,71 -140,144 -208,218zm5549 -873c1197,152 2272,701 3084,1512l1109 -640c-68,-74 -136,-146 -207,-217 -1066,-1065 -2495,-1768 -4085,-1906 30,436 63,854 99,1251zm-22273 -5580l6265 10850c2746,-151 5873,-214 8480,-394 38,-607 155,-1191 341,-1745l-15086 -8711zm6333 10967l3766 6524 10110 17512 0 -17379c-1339,-275 -2536,-940 -3468,-1872 -1171,-1171 -1921,-2764 -2003,-4531 -2562,-94 -5638,-81 -8405,-254zm13876 6381l0 -1335c-2138,-575 -3743,-2443 -3926,-4715 -405,-26 -831,-48 -1275,-66 85,1689 804,3210 1924,4331 882,881 2012,1515 3277,1785zm-3916 -7022c29,-284 80,-561 151,-831l-1119 -646c-165,505 -270,1037 -309,1587 444,-32 871,-68 1277,-110z"/>
  <polygon fill="#C2BEC3" points="51052,54126 51180,54126 51180,53869 51309,53869 51309,53612 51180,53612 51180,53741 51052,53741 "/>
  <polygon fill="#C2BEC3" points="50152,54769 50409,54769 50409,54640 50666,54640 50666,54512 50281,54512 50281,54640 50152,54640 "/>
  <polygon fill="#AFACB3" points="51309,53612 51309,53869 51566,53869 51566,53484 51694,53484 51694,52970 51566,52970 51566,53355 51437,53355 51437,53612 "/>
  <polygon fill="#AFACB3" points="47197,49757 46940,49757 46940,49886 47197,49886 "/>
  <polygon fill="#AFACB3" points="46426,50400 46297,50400 46297,50657 46426,50657 "/>
  <polygon fill="#AFACB3" points="51309,53869 51180,53869 51180,54126 51309,54126 "/>
  <polygon fill="#B1AEB3" points="49510,49372 49510,49243 48096,49243 48096,49372 "/>
  <polygon fill="#B1AEB3" points="51694,51556 51694,52970 51823,52970 51823,51556 "/>
  <polygon fill="#B1AEB3" points="49510,55154 48096,55154 48096,55283 49510,55283 "/>
  <polygon fill="#B1AEB3" points="50152,49629 50152,49500 50024,49500 50024,49372 49510,49372 49510,49500 49895,49500 49895,49629 "/>
  <polygon fill="#B1AEB3" points="48096,55154 48096,55026 47711,55026 47711,54897 47454,54897 47454,55026 47582,55026 47582,55154 "/>
  <polygon fill="#B1AEB3" points="48096,49372 47711,49372 47711,49500 48096,49500 "/>
  <polygon fill="#AEABB0" points="51694,51556 51694,51042 51566,51042 51566,50657 51437,50657 51437,50528 51309,50528 51309,50400 51180,50400 51180,50657 51309,50657 51309,50914 51437,50914 51437,51171 51566,51171 51566,51556 "/>
  <polygon fill="#AEABB0" points="50152,54769 50152,54897 49895,54897 49895,55026 49510,55026 49510,55154 50024,55154 50024,55026 50409,55026 50409,54897 50538,54897 50538,54769 50666,54769 50666,54640 50409,54640 50409,54769 "/>
  <polygon fill="#AEABB0" points="46426,50400 46683,50400 46683,50272 46811,50272 46811,50143 46940,50143 46940,49886 46683,49886 46683,50014 46554,50014 46554,50143 46426,50143 "/>
  <polygon fill="#AEABB0" points="51180,50400 51180,50143 51052,50143 51052,50014 50923,50014 50923,49886 50666,49886 50666,50143 50795,50143 50795,50272 50923,50272 50923,50400 "/>
  <polygon fill="#AEABB0" points="50666,54640 50923,54640 50923,54512 51052,54512 51052,54383 51180,54383 51180,54126 50923,54126 50923,54255 50795,54255 50795,54383 50666,54383 "/>
  <polygon fill="#E7E7E8" points="46683,53612 46683,53355 46554,53355 46554,53227 46426,53227 46426,52841 46297,52841 46297,51685 46426,51685 46426,51556 46554,51556 46554,51171 46683,51171 46683,50914 46811,50914 46811,50657 46940,50657 46940,50528 47068,50528 47068,50400 47197,50400 47197,50272 47454,50272 47454,50143 47711,50143 47711,50014 48096,50014 48096,49886 48225,49886 48225,49757 49381,49757 49381,49886 49510,49886 49510,50014 49895,50014 49895,50143 50152,50143 50152,50272 50409,50272 50409,50400 50538,50400 50538,50528 50666,50528 50666,50657 50795,50657 50795,50914 50923,50914 50923,51171 51052,51171 51052,51556 51180,51556 51180,51685 51309,51685 51309,52841 51180,52841 51180,53227 51052,53227 51052,53355 50923,53355 50923,53612 51052,53612 51052,53484 51180,53484 51180,53355 51309,53355 51309,52970 51437,52970 51437,51556 51309,51556 51309,51171 51180,51171 51180,51042 51052,51042 51052,50657 50923,50657 50923,50528 50795,50528 50795,50400 50666,50400 50666,50272 50538,50272 50538,50143 50409,50143 50409,50014 50024,50014 50024,49886 49895,49886 49895,49757 49510,49757 49510,49629 48096,49629 48096,49757 47711,49757 47711,49886 47582,49886 47582,50014 47197,50014 47197,50143 47068,50143 47068,50272 46940,50272 46940,50400 46811,50400 46811,50528 46683,50528 46683,50657 46554,50657 46554,51042 46426,51042 46426,51171 46297,51171 46297,51556 46169,51556 46169,52970 46297,52970 46297,53355 46426,53355 46426,53484 46554,53484 46554,53612 "/>
  <polygon fill="#E7E7E8" points="47454,54383 47454,54255 47197,54255 47197,54126 47068,54126 47068,53998 46940,53998 46940,53869 46811,53869 46811,53612 46683,53612 46683,53998 46811,53998 46811,54126 46940,54126 46940,54255 47068,54255 47068,54383 "/>
  <polygon fill="#E7E7E8" points="50152,54383 50538,54383 50538,54255 50666,54255 50666,54126 50795,54126 50795,53998 50923,53998 50923,53612 50795,53612 50795,53869 50666,53869 50666,53998 50538,53998 50538,54126 50409,54126 50409,54255 50152,54255 "/>
  <polygon fill="#FAFCFB" points="46683,53612 46811,53612 46811,53869 46940,53869 46940,53998 47068,53998 47068,54126 47197,54126 47197,54255 47454,54255 47454,54383 47711,54383 47711,54512 47839,54512 47839,54640 48225,54640 48225,54769 49381,54769 49381,54640 49767,54640 49767,54512 49895,54512 49895,54383 50152,54383 50152,54255 50409,54255 50409,54126 50538,54126 50538,53998 50666,53998 50666,53869 50795,53869 50795,53612 50923,53612 50923,53355 51052,53355 51052,53227 51180,53227 51180,52841 51309,52841 51309,51685 51180,51685 51180,51556 51052,51556 51052,51171 50923,51171 50923,50914 50795,50914 50795,50657 50666,50657 50666,50528 50538,50528 50538,50400 50409,50400 50409,50272 50152,50272 50152,50143 49895,50143 49895,50014 49510,50014 49510,49886 49381,49886 49381,49757 48225,49757 48225,49886 48096,49886 48096,50014 47711,50014 47711,50143 47454,50143 47454,50272 47197,50272 47197,50400 47068,50400 47068,50528 46940,50528 46940,50657 46811,50657 46811,50914 46683,50914 46683,51171 46554,51171 46554,51556 46426,51556 46426,51685 46297,51685 46297,52841 46426,52841 46426,53227 46554,53227 46554,53355 46683,53355 "/>
  <path fill="#4E4952" d="M45013 51428l128 0 0 -386 128 0 0 -385 129 0 0 -257 129 0 0 -257 128 0 0 -129 128 0 0 -257 129 0 0 -257 128 0 0 -128 257 0 0 -129 257 0 0 -128 129 0 0 -128 257 0 0 -129 257 0 0 -129 385 0 0 -128 386 0 0 -128 1670 0 0 128 771 0 0 128 643 0 0 129 128 0 0 129 129 0 0 128 128 0 0 128 129 0 0 257 128 0 0 386 129 0 0 128 128 0 0 129 129 0 0 257 128 0 0 257 129 0 0 385 128 0 0 386 128 0 0 1670 -128 0 0 771 -128 0 0 257 -257 0 0 257 -129 0 0 129 -128 0 0 128 -129 0 0 386 -128 0 0 128 -257 0 0 129 -257 0 0 128 -129 0 0 129 -257 0 0 128 -257 0 0 129 -385 0 0 128 -386 0 0 129 -1670 0 0 -129 -514 0 0 -128 -129 0 0 -129 -385 0 0 -128 -257 0 0 -129 -129 0 0 -128 -128 0 0 -257 -129 0 0 -129 -128 0 0 -128 -129 0 0 -129 -257 0 0 -128 -128 0 0 -129 -128 0 0 -257 -129 0 0 -257 -129 0 0 -385 -128 0 0 -386 -128 0 0 -1670zm2569 -3341l-385 0 0 128 -257 0 0 129 -257 0 0 129 -129 0 0 128 -128 0 0 128 -129 0 0 129 -257 0 0 129 -257 0 0 128 -128 0 0 128 -128 0 0 257 -129 0 0 129 -129 0 0 257 -128 0 0 514 -128 0 0 257 -258 0 0 257 -128 0 0 128 -128 0 0 386 -129 0 0 1670 129 0 0 643 128 0 0 257 128 0 0 257 129 0 0 128 129 0 0 129 128 0 0 128 128 0 0 129 129 0 0 385 129 0 0 129 128 0 0 128 128 0 0 129 129 0 0 128 385 0 0 129 129 0 0 128 128 0 0 129 129 0 0 128 128 0 0 129 386 0 0 128 385 0 0 128 386 0 0 129 1670 0 0 -129 386 0 0 -128 128 0 0 -128 257 0 0 -129 514 0 0 -128 129 0 0 -129 128 0 0 -128 257 0 0 -129 129 0 0 -128 257 0 0 -129 128 0 0 -128 129 0 0 -129 385 0 0 -128 128 0 0 -643 129 0 0 -128 129 0 0 -386 128 0 0 -514 128 0 0 -257 129 0 0 -1670 -129 0 0 -386 -128 0 0 -514 -128 0 0 -256 -129 0 0 -129 -129 0 0 -386 -128 0 0 -514 -257 0 0 -128 -128 0 0 -128 -129 0 0 -129 -128 0 0 -257 -514 0 0 -128 -129 0 0 -129 -128 0 0 -129 -129 0 0 -128 -899 0 0 -128 -2442 0 0 128z"/>
  <path fill="#363039" d="M44370 51428l129 0 0 -386 128 0 0 -128 128 0 0 -257 258 0 0 -257 128 0 0 -514 128 0 0 -257 129 0 0 -129 129 0 0 -257 128 0 0 -128 128 0 0 -128 257 0 0 -129 257 0 0 -129 129 0 0 -128 128 0 0 -128 129 0 0 -129 257 0 0 -129 257 0 0 -128 385 0 0 -128 2442 0 0 128 899 0 0 128 129 0 0 129 128 0 0 129 129 0 0 128 514 0 0 257 128 0 0 129 129 0 0 128 128 0 0 128 257 0 0 514 128 0 0 386 129 0 0 129 129 0 0 256 128 0 0 514 128 0 0 386 129 0 0 1670 -129 0 0 257 -128 0 0 514 -128 0 0 386 -129 0 0 128 -129 0 0 643 -128 0 0 128 -385 0 0 129 -129 0 0 128 -128 0 0 129 -257 0 0 128 -129 0 0 129 -257 0 0 128 -128 0 0 129 -129 0 0 128 -514 0 0 129 -257 0 0 128 -128 0 0 128 -386 0 0 129 -1670 0 0 -129 -386 0 0 -128 -385 0 0 -128 -386 0 0 -129 -128 0 0 -128 -129 0 0 -129 -128 0 0 -128 -129 0 0 -129 -385 0 0 -128 -129 0 0 -129 -128 0 0 -128 -128 0 0 -129 -129 0 0 -385 -129 0 0 -129 -128 0 0 -128 -128 0 0 -129 -129 0 0 -128 -129 0 0 -257 -128 0 0 -257 -128 0 0 -643 -129 0 0 -1670zm3341 -3855l-386 0 0 129 -257 0 0 128 -385 0 0 129 -386 0 0 128 -257 0 0 128 -128 0 0 129 -129 0 0 129 -128 0 0 128 -257 0 0 128 -129 0 0 129 -128 0 0 257 -128 0 0 128 -129 0 0 129 -129 0 0 128 -128 0 0 257 -128 0 0 386 -129 0 0 385 -128 0 0 386 -129 0 0 257 -129 0 0 2184 129 0 0 771 129 0 0 386 257 0 0 257 128 0 0 257 128 0 0 128 129 0 0 257 257 0 0 257 128 0 0 129 129 0 0 128 257 0 0 129 128 0 0 128 129 0 0 129 128 0 0 128 257 0 0 128 257 0 0 129 257 0 0 129 129 0 0 128 771 0 0 129 2184 0 0 -129 257 0 0 -128 386 0 0 -129 385 0 0 -129 386 0 0 -128 257 0 0 -128 128 0 0 -129 129 0 0 -128 128 0 0 -129 257 0 0 -128 129 0 0 -129 128 0 0 -257 257 0 0 -257 129 0 0 -128 128 0 0 -257 128 0 0 -257 129 0 0 -257 129 0 0 -129 128 0 0 -771 129 0 0 -2184 -129 0 0 -386 -128 0 0 -513 -129 0 0 -258 -129 0 0 -257 -128 0 0 -257 -128 0 0 -128 -129 0 0 -129 -129 0 0 -128 -128 0 0 -257 -128 0 0 -129 -129 0 0 -128 -257 0 0 -128 -128 0 0 -129 -129 0 0 -129 -128 0 0 -128 -257 0 0 -128 -257 0 0 -129 -257 0 0 -128 -129 0 0 -129 -771 0 0 -129 -2184 0 0 129z"/>
  <path fill="#68636D" d="M46811 49500l0 -128 129 0 0 -129 128 0 0 -128 386 0 0 -257 257 0 0 -129 2184 0 0 129 257 0 0 129 386 0 0 128 257 0 0 128 128 0 0 129 129 0 0 257 257 0 0 128 128 0 0 257 257 0 0 129 129 0 0 129 128 0 0 385 129 0 0 642 128 0 0 1928 -128 0 0 642 -129 0 0 386 -128 0 0 128 -129 0 0 129 -257 0 0 257 -128 0 0 128 -257 0 0 257 -129 0 0 129 -128 0 0 128 -386 0 0 129 -642 0 0 128 -1928 0 0 -128 -642 0 0 -129 -386 0 0 -128 -128 0 0 -129 -129 0 0 -257 -128 0 0 -128 -129 0 0 -129 -128 0 0 -128 -257 0 0 -129 -129 0 0 -128 -128 0 0 -386 -128 0 0 -642 -129 0 0 -1928 129 0 0 -642 128 0 0 -385 128 0 0 -129 129 0 0 -129 257 0 0 -257 128 0 0 -128 257 0 0 -129 257 0zm1157 -899l-386 0 0 128 -385 0 0 129 -257 0 0 129 -257 0 0 128 -129 0 0 128 -257 0 0 129 -257 0 0 128 -128 0 0 257 -129 0 0 257 -128 0 0 129 -128 0 0 257 -129 0 0 257 -129 0 0 385 -128 0 0 386 -128 0 0 1670 128 0 0 386 128 0 0 385 129 0 0 257 129 0 0 257 128 0 0 129 128 0 0 128 257 0 0 129 129 0 0 128 128 0 0 129 129 0 0 257 128 0 0 128 129 0 0 129 257 0 0 128 385 0 0 129 129 0 0 128 514 0 0 129 1670 0 0 -129 386 0 0 -128 385 0 0 -129 257 0 0 -128 257 0 0 -129 129 0 0 -128 257 0 0 -129 257 0 0 -128 128 0 0 -386 129 0 0 -128 128 0 0 -129 129 0 0 -257 257 0 0 -257 128 0 0 -771 128 0 0 -1670 -128 0 0 -386 -128 0 0 -385 -129 0 0 -257 -128 0 0 -257 -129 0 0 -129 -128 0 0 -128 -129 0 0 -386 -128 0 0 -257 -129 0 0 -128 -128 0 0 -128 -129 0 0 -129 -128 0 0 -129 -643 0 0 -128 -771 0 0 -128 -1670 0 0 128z"/>
  <path fill="#807B83" d="M46811 49500l257 0 0 -128 386 0 0 -129 257 0 0 -128 385 0 0 -128 1414 0 0 128 385 0 0 128 257 0 0 129 514 0 0 128 129 0 0 129 128 0 0 128 129 0 0 129 128 0 0 128 129 0 0 129 128 0 0 129 129 0 0 256 128 0 0 386 129 0 0 257 128 0 0 385 129 0 0 1414 -129 0 0 385 -128 0 0 257 -129 0 0 386 -128 0 0 257 -129 0 0 128 -128 0 0 129 -129 0 0 128 -128 0 0 129 -129 0 0 128 -128 0 0 129 -257 0 0 128 -386 0 0 129 -257 0 0 128 -385 0 0 129 -1414 0 0 -129 -385 0 0 -128 -257 0 0 -129 -386 0 0 -128 -257 0 0 -129 -128 0 0 -128 -129 0 0 -129 -128 0 0 -128 -129 0 0 -129 -128 0 0 -128 -129 0 0 -257 -128 0 0 -386 -129 0 0 -257 -128 0 0 -2184 128 0 0 -257 129 0 0 -386 128 0 0 -256 129 0 0 -129 128 0 0 -129 129 0 0 -128 128 0 0 -129 129 0 0 -128 128 0 0 -129zm0 0l-257 0 0 129 -257 0 0 128 -128 0 0 257 -257 0 0 129 -129 0 0 129 -128 0 0 385 -128 0 0 642 -129 0 0 1928 129 0 0 642 128 0 0 386 128 0 0 128 129 0 0 129 257 0 0 128 128 0 0 129 129 0 0 128 128 0 0 257 129 0 0 129 128 0 0 128 386 0 0 129 642 0 0 128 1928 0 0 -128 642 0 0 -129 386 0 0 -128 128 0 0 -129 129 0 0 -257 257 0 0 -128 128 0 0 -257 257 0 0 -129 129 0 0 -128 128 0 0 -386 129 0 0 -642 128 0 0 -1928 -128 0 0 -642 -129 0 0 -385 -128 0 0 -129 -129 0 0 -129 -257 0 0 -257 -128 0 0 -128 -257 0 0 -257 -129 0 0 -129 -128 0 0 -128 -257 0 0 -128 -386 0 0 -129 -257 0 0 -129 -2184 0 0 129 -257 0 0 257 -386 0 0 128 -128 0 0 129 -129 0 0 128z"/>
  <path fill="#9E989F" d="M46426 50400l0 -257 128 0 0 -129 129 0 0 -128 257 0 0 -129 385 0 0 -128 129 0 0 -129 257 0 0 -128 385 0 0 -129 1414 0 0 129 514 0 0 128 128 0 0 257 257 0 0 129 514 0 0 128 129 0 0 129 128 0 0 257 129 0 0 128 128 0 0 129 129 0 0 385 128 0 0 514 129 0 0 1414 -129 0 0 514 -128 0 0 385 -257 0 0 257 -129 0 0 257 -128 0 0 129 -129 0 0 128 -257 0 0 129 -128 0 0 128 -129 0 0 129 -385 0 0 128 -514 0 0 129 -1414 0 0 -129 -514 0 0 -128 -128 0 0 -129 -257 0 0 -257 -514 0 0 -128 -129 0 0 -129 -128 0 0 -514 -129 0 0 -257 -128 0 0 -257 -129 0 0 -385 -128 0 0 -1414 128 0 0 -385 129 0 0 -257 128 0 0 -514 129 0zm385 -900l0 129 -128 0 0 128 -129 0 0 129 -128 0 0 128 -129 0 0 129 -128 0 0 129 -129 0 0 256 -128 0 0 386 -129 0 0 257 -128 0 0 2184 128 0 0 257 129 0 0 386 128 0 0 257 129 0 0 128 128 0 0 129 129 0 0 128 128 0 0 129 129 0 0 128 128 0 0 129 257 0 0 128 386 0 0 129 257 0 0 128 385 0 0 129 1414 0 0 -129 385 0 0 -128 257 0 0 -129 386 0 0 -128 257 0 0 -129 128 0 0 -128 129 0 0 -129 128 0 0 -128 129 0 0 -129 128 0 0 -128 129 0 0 -257 128 0 0 -386 129 0 0 -257 128 0 0 -385 129 0 0 -1414 -129 0 0 -385 -128 0 0 -257 -129 0 0 -386 -128 0 0 -256 -129 0 0 -129 -128 0 0 -129 -129 0 0 -128 -128 0 0 -129 -129 0 0 -128 -128 0 0 -129 -129 0 0 -128 -514 0 0 -129 -257 0 0 -128 -385 0 0 -128 -1414 0 0 128 -385 0 0 128 -257 0 0 129 -386 0 0 128 -257 0z"/>
  <path fill="#C9C7CB" d="M50923 53612l0 386 -128 0 0 128 -129 0 0 129 -128 0 0 128 -386 0 0 129 -128 0 0 128 -129 0 0 129 -385 0 0 128 -1414 0 0 -128 -385 0 0 -129 -129 0 0 -128 -128 0 0 -129 -386 0 0 -128 -128 0 0 -129 -129 0 0 -128 -128 0 0 -386 -129 0 0 -128 -128 0 0 -129 -129 0 0 -385 -128 0 0 -1414 128 0 0 -385 129 0 0 -129 128 0 0 -385 129 0 0 -129 128 0 0 -128 129 0 0 -128 128 0 0 -129 129 0 0 -129 385 0 0 -128 129 0 0 -129 385 0 0 -128 1414 0 0 128 385 0 0 129 129 0 0 128 385 0 0 129 129 0 0 129 128 0 0 128 129 0 0 128 128 0 0 129 129 0 0 385 128 0 0 129 129 0 0 385 128 0 0 1414 -128 0 0 385 -129 0 0 129 -128 0 0 128 -129 0zm-3726 -3855l0 129 -257 0 0 257 -129 0 0 129 -128 0 0 128 -257 0 0 257 -129 0 0 257 -128 0 0 257 -129 0 0 385 -128 0 0 1414 128 0 0 385 129 0 0 257 257 0 0 129 128 0 0 385 129 0 0 129 128 0 0 128 129 0 0 129 385 0 0 128 129 0 0 257 257 0 0 129 385 0 0 128 1414 0 0 -128 385 0 0 -129 257 0 0 -257 129 0 0 -128 385 0 0 -129 129 0 0 -128 128 0 0 -129 129 0 0 -385 128 0 0 -129 257 0 0 -257 129 0 0 -385 128 0 0 -1414 -128 0 0 -385 -129 0 0 -257 -128 0 0 -257 -129 0 0 -257 -257 0 0 -128 -128 0 0 -129 -129 0 0 -257 -257 0 0 -129 -257 0 0 -128 -257 0 0 -129 -385 0 0 -128 -1414 0 0 128 -642 0 0 129 -129 0 0 128 -128 0z"/>
  <polygon fill="#E5E6E6" points="50152,54383 49895,54383 49895,54512 49767,54512 49767,54640 49381,54640 49381,54769 48225,54769 48225,54640 47839,54640 47839,54512 47711,54512 47711,54383 47454,54383 47454,54512 47582,54512 47582,54640 47711,54640 47711,54769 48096,54769 48096,54897 49510,54897 49510,54769 49895,54769 49895,54640 50024,54640 50024,54512 50152,54512 "/>
  <polygon fill="#B7B4BA" points="47454,54897 47454,54640 47325,54640 47325,54512 46940,54512 46940,54383 46811,54383 46811,54255 46683,54255 46683,54126 46554,54126 46554,53741 46426,53741 46426,53612 46297,53612 46297,53869 46426,53869 46426,54383 46554,54383 46554,54512 46683,54512 46683,54640 47197,54640 47197,54897 "/>
  <path fill="#174171" d="M30251 30026l-3449 445 -625 3421 -1489 -3142 -3447 462 2529 -2387 -1504 -3135 3051 1668 2517 -2401 -643 3417 3060 1652zm21887 -15490c4491,391 8757,1567 12662,3387l-5005 8670c-2087,-893 -4304,-1540 -6616,-1903l-119 -363 6946 -5018 -7868 20 0 -4793zm15234 15490l3448 445 625 3421 1489 -3142 3447 462 -2529 -2387 1505 -3135 -3051 1668 -2517 -2401 643 3417 -3060 1652zm8636 12261l2764 2109 -1169 3275 2860 -1977 2754 2124 -996 -3331 2871 -1963 -3477 -81 -979 -3337 -1152 3280 -3476 -99zm1348 14936l1340 3209 -2651 2252 3466 -282 1324 3216 802 -3383 3468 -265 -2970 -1808 820 -3380 -2638 2265 -2961 -1824zm-6300 13610l-444 3448 -3421 625 3143 1489 -463 3447 2387 -2529 3135 1505 -1668 -3051 2401 -2517 -3417 643 -1653 -3060zm-12260 8636l-2110 2764 -3275 -1169 1977 2860 -2123 2754 3331 -996 1963 2871 81 -3477 3337 -979 -3281 -1152 100 -3476zm-19969 0l2109 2764 3275 -1169 -1977 2860 2124 2754 -3331 -996 -1963 2871 -82 -3477 -3337 -979 3281 -1152 -99 -3476zm-12261 -8636l444 3448 3422 625 -3143 1489 463 3447 -2387 -2529 -3136 1505 1668 -3051 -2400 -2517 3417 643 1652 -3060zm-6300 -13610l-1340 3209 2651 2252 -3466 -282 -1323 3216 -803 -3383 -3467 -265 2970 -1808 -821 -3380 2638 2265 2961 -1824zm1349 -14936l-2765 2109 1170 3275 -2861 -1977 -2754 2124 997 -3331 -2871 -1963 3476 -81 980 -3337 1152 3280 3476 -99zm48944 -21032c3600,2529 6740,5668 9268,9267l-8670 5006c-1593,-2122 -3480,-4010 -5603,-5603l5005 -8670zm12600 15028c1821,3904 2994,8170 3385,12661l-10010 0c-319,-2687 -1021,-5256 -2047,-7655l8672 -5006zm3385 19315c-390,4492 -1566,8758 -3386,12662l-8671 -5004c1028,-2399 1728,-4970 2047,-7658l10010 0zm-6718 18421c-2529,3601 -5668,6740 -9267,9268l-5006 -8670c2122,-1592 4010,-3479 5603,-5602l8670 5004zm-15028 12600c-3904,1821 -8170,2995 -12661,3386l0 -10010c2687,-319 5256,-1022 7655,-2047l5006 8671zm-19316 3386c-4491,-390 -8757,-1566 -12661,-3387l5004 -8670c2399,1027 4970,1728 7657,2047l0 10010zm-18420 -6719c-3601,-2528 -6740,-5668 -9268,-9267l8670 -5006c1592,2122 3479,4010 5602,5603l-5004 8670zm-12600 -15027c-1821,-3905 -2995,-8171 -3386,-12662l10010 0c319,2687 1022,5257 2047,7656l-8671 5006zm-3386 -19316c391,-4491 1566,-8757 3387,-12662l8670 5005c-1027,2399 -1728,4969 -2047,7657l-10010 0zm6719 -18421c2528,-3599 5668,-6738 9267,-9268l5006 8670c-2122,1593 -4010,3480 -5603,5603l-8670 -5005zm15027 -12600c3904,-1819 8172,-2994 12662,-3386l0 4792 -7869 -19 6945 5017 -119 364c-2310,364 -4526,1011 -6613,1903l-5006 -8671z"/>
  <path fill="#2A9695" fill-rule="nonzero" d="M52564 4827c11644,909 22114,6009 29897,13793 8611,8611 13940,20510 13940,33650 0,7170 -1587,13971 -4427,20069l2 -17 457 -3883 -1720 1541c2303,-5443 3577,-11428 3577,-17710 0,-12559 -5092,-23930 -13320,-32159 -7368,-7367 -17256,-12220 -28259,-13155l-1 0 -859 -1049 6 -9 -18 -22 725 -1049zm35459 74416c-1650,2394 -3513,4629 -5562,6679 -8611,8610 -20510,13939 -33651,13939 -13140,0 -25039,-5329 -33651,-13939 -1937,-1938 -3708,-4042 -5290,-6290l3130 2334 -477 -2270 -2 -10c1268,1676 2648,3261 4131,4744 8228,8228 19600,13320 32159,13320 12560,0 23931,-5092 32160,-13320 1883,-1884 3602,-3933 5134,-6123l2 0 1339 -220 4 10 28 -4 546 1150zm-82185 -6499c-2960,-6202 -4618,-13145 -4618,-20474 0,-13140 5328,-25039 13939,-33650 7680,-7680 17975,-12748 29433,-13755l-3591 1546 2204 722 1 0c-10319,1268 -19570,5993 -26555,12978 -8228,8229 -13320,19600 -13320,32159 0,6897 1535,13436 4282,19292l-476 1260 -10 -1 -10 26 -1272 -103 -7 0z"/>
  <path fill="#2A9695" d="M0 72273l6314 4708 3550 2647 3135 2338 -477 -2270 -1143 -5438 -1710 -8141 -2052 5436 -480 1269 -10 -1 -10 26 -1272 -103 -5845 -471zm55895 -72273l-7235 3114 -4067 1751 -3592 1546 2204 722 5281 1729 7906 2589 -3682 -4495 -859 -1049 6 -9 -18 -22 725 -1050 3331 -4826zm34643 84543l920 -7823 518 -4398 457 -3883 -1727 1548 -4139 3708 -6194 5553 5733 -941 1339 -220 4 10 28 -4 547 1152 2514 5298z"/>
  <path fill="white" d="M30251 30026l-3449 445 -625 3421 -1489 -3142 -3447 462 2529 -2387 -1504 -3135 3051 1668 2517 -2401 -643 3417 3060 1652zm18560 -18851l2627 8156 8568 -22 -6946 5018 2669 8142 -6919 -5054 -6918 5054 2668 -8143 -6945 -5017 8569 21 2627 -8155zm560 34523c1672,135 3175,869 4294,1988 1136,1136 1876,2669 1994,4374 2846,182 6327,237 9320,480 -2931,190 -6436,163 -9309,284 -73,1782 -826,3390 -2005,4569 -1113,1114 -2608,1848 -4271,1987 -319,5718 -181,14035 -581,16808 -312,-2708 -196,-11064 -545,-16804 -1679,-132 -3189,-868 -4312,-1991 -1171,-1171 -1921,-2764 -2003,-4531 -2850,-104 -6335,-76 -9325,-320 2935,-190 6450,-246 9332,-445 109,-1720 851,-3267 1996,-4412 1112,-1111 2603,-1843 4263,-1985 333,-5640 184,-14015 590,-16824 315,2743 194,11158 562,16822zm18 272c185,2694 488,4713 1015,5105 733,547 2619,806 4983,967 -121,-1623 -829,-3082 -1913,-4166 -1066,-1065 -2495,-1768 -4085,-1906zm6010 6866c-2370,110 -4271,332 -4995,880 -537,406 -826,2552 -994,5392 1582,-142 3003,-844 4064,-1905 1128,-1128 1849,-2664 1925,-4367zm-7148 6276c-184,-2844 -488,-4993 -1028,-5396 -734,-547 -2627,-747 -5000,-843 85,1689 804,3210 1924,4331 1070,1069 2506,1774 4104,1908zm-6020 -7035c2369,-174 4269,-454 4992,-1002 523,-395 810,-2412 979,-5103 -1578,145 -2996,846 -4055,1904 -1092,1092 -1802,2565 -1916,4201zm25141 -22051l3448 445 625 3421 1489 -3142 3447 462 -2529 -2387 1505 -3135 -3051 1668 -2517 -2401 643 3417 -3060 1652zm8636 12261l2764 2109 -1169 3275 2860 -1977 2754 2124 -996 -3331 2871 -1963 -3477 -81 -979 -3337 -1152 3280 -3476 -99zm1348 14936l1340 3209 -2651 2252 3466 -282 1324 3216 802 -3383 3468 -265 -2970 -1808 820 -3380 -2638 2265 -2961 -1824zm-6300 13610l-444 3448 -3421 625 3143 1489 -463 3447 2387 -2529 3135 1505 -1668 -3051 2401 -2517 -3417 643 -1653 -3060zm-12260 8636l-2110 2764 -3275 -1169 1977 2860 -2123 2754 3331 -996 1963 2871 81 -3477 3337 -979 -3281 -1152 100 -3476zm-19969 0l2109 2764 3275 -1169 -1977 2860 2124 2754 -3331 -996 -1963 2871 -82 -3477 -3337 -979 3281 -1152 -99 -3476zm-12261 -8636l444 3448 3422 625 -3143 1489 463 3447 -2387 -2529 -3136 1505 1668 -3051 -2400 -2517 3417 643 1652 -3060zm-6300 -13610l-1340 3209 2651 2252 -3466 -282 -1323 3216 -803 -3383 -3467 -265 2970 -1808 -821 -3380 2638 2265 2961 -1824zm1349 -14936l-2765 2109 1170 3275 -2861 -1977 -2754 2124 997 -3331 -2871 -1963 3476 -81 980 -3337 1152 3280 3476 -99z"/>
 </g>
</svg>
