<?xml version="1.0" encoding="UTF-8"?>
<!DOCTYPE svg PUBLIC "-//W3C//DTD SVG 1.1//EN" "http://www.w3.org/Graphics/SVG/1.1/DTD/svg11.dtd">
<!-- Creator: CorelDRAW X8 -->
<svg xmlns="http://www.w3.org/2000/svg" xml:space="preserve" width="1000px" height="1000px" version="1.1" shape-rendering="geometricPrecision" text-rendering="geometricPrecision" image-rendering="optimizeQuality" fill-rule="evenodd" clip-rule="evenodd"
viewBox="0 0 100000 100000"
 xmlns:xlink="http://www.w3.org/1999/xlink">
 <g id="interface-icon-ir">
  <metadata id="CorelCorpID_0Corel-Layer"/>
  <g id="interface-icon-ir-bg-border">
   <circle fill="black" cx="50000" cy="50000" r="50000"/>
   <path fill="#FEFEFE" d="M49942 3810c1096,0 1643,-32 3085,102l933 4578c14198,1009 26648,8345 34544,19206l1904 -660c4177,7008 6387,14870 6388,23621l0 1 -5588 1c0,1 0,3 0,4l-2150 0c0,-21603 -17512,-39116 -39116,-39116 -629,0 -1254,17 -1876,46l-255 -7733c707,-32 1036,-50 2131,-50zm41069 27098l-4417 2060c167,344 329,690 486,1039l4416 -2060c-157,-349 -319,-695 -485,-1039zm4093 13640l-4837 594c52,378 98,757 138,1138l4837 -594c-41,-381 -88,-760 -138,-1138zm-379 -2352l-4799 846c71,375 137,751 197,1129l4799 -846c-61,-378 -127,-754 -197,-1129zm-503 -2330l-4748 1097c91,370 176,742 257,1117l4748 -1097c-81,-374 -166,-746 -257,-1117zm-624 -2300l-4685 1344c111,365 216,732 316,1102l4685 -1344c-101,-369 -206,-736 -316,-1102zm-745 -2264l-4608 1587c130,359 254,721 373,1084l4609 -1587c-120,-363 -245,-724 -374,-1084zm-863 -2221l-4518 1826c148,352 291,706 429,1063l4519 -1826c-139,-357 -282,-711 -430,-1063zm-35895 58391c-2071,321 -3976,456 -6136,457l-15 5588 -2 0c-25876,0 -46854,-20977 -46854,-46854 0,-8756 2405,-16949 6586,-23960l6792 3717c-3579,5905 -5640,12833 -5640,20243 0,21604 17513,39117 39116,39117 2053,0 4069,-159 6036,-464l117 2156zm-30623 -6246l362 254c170,119 211,355 92,525l-1483 2119c-119,171 -356,212 -526,93l-362 -253c-171,-120 -212,-356 -93,-526l1483 -2119c120,-170 356,-212 527,-93zm13296 6285l427 115c201,53 321,261 267,462l-669 2499c-54,200 -262,321 -463,267l-427 -115c-200,-54 -320,-262 -267,-462l670 -2499c54,-200 262,-320 462,-267zm-3517 -1129l415 151c195,71 297,289 226,484l-885 2431c-71,195 -289,297 -484,226l-415 -152c-195,-71 -297,-289 -226,-484l885 -2430c71,-196 288,-297 484,-226zm-3406 -1432l401 187c188,88 270,314 182,502l-1093 2344c-88,189 -314,271 -502,183l-401 -187c-188,-88 -270,-314 -182,-502l1093 -2344c88,-188 314,-270 502,-183zm-3268 -1723l383 222c180,103 242,335 138,515l-1293 2240c-104,180 -336,242 -516,139l-383 -221c-180,-104 -242,-336 -138,-516l1293 -2240c104,-180 336,-243 516,-139zm-17899 -26481l219 818c103,384 -127,782 -511,885l-3240 868c-384,103 -782,-127 -885,-511l-219 -818c-103,-384 127,-782 511,-885l3240 -868c384,-103 782,127 885,511zm1318 -24344l-289 795c-137,374 -554,568 -927,433l-3152 -1148c-374,-136 -568,-553 -432,-927l289 -795c136,-374 553,-568 927,-432l3152 1147c373,136 568,553 432,927zm-1455 4731l-191 825c-89,387 -479,631 -867,541l-3268 -754c-387,-90 -632,-480 -542,-867l190 -825c90,-388 480,-631 868,-542l3268 754c387,90 631,480 542,868zm-868 4872l-88 842c-42,396 -400,685 -795,644l-3336 -351c-396,-41 -685,-399 -644,-795l89 -841c42,-396 399,-685 795,-644l3335 351c396,41 686,399 644,794zm-268 4943l15 846c7,398 -312,729 -710,736l-3354 58c-398,7 -728,-312 -735,-710l-15 -847c-7,-397 312,-728 710,-735l3354 -58c398,-7 728,312 735,710zm337 4938l118 838c56,394 -221,762 -615,817l-3322 467c-394,55 -761,-222 -816,-616l-118 -838c-56,-394 221,-761 615,-817l3322 -467c393,-55 761,222 816,616z"/>
   <path fill="#E97968" d="M59395 90446l0 0 3914 3865c4796,-1467 9257,-3703 13238,-6564l-1327 -4952 -482 -1798 482 1798c3710,-2923 6902,-6475 9414,-10495l4781 1282c3004,-5163 5025,-10969 5804,-17160l-4476 -3195 -1864 -117c-424,6858 -2620,13237 -6136,18684 -2203,3412 -4924,6459 -8052,9028 -4508,3704 -9862,6417 -15727,7806l431 1818z"/>
  </g>
  <g id="interface-icon-ir-capacity">
   <path id="interface-icon-ir-energy00" fill="#232324" d="M50862 18940l0 -4814 -1720 0 0 4814 1720 0zm-3324 84l-503 -4788 -1710 180 503 4788 1710 -180zm-3296 432l-1001 -4710 -1682 358 1001 4709 1682 -357zm-3234 773l-1488 -4579 -1635 531 1488 4579 1635 -531zm-3135 1107l-1958 -4398 -1571 699 1958 4399 1571 -700zm-3002 1429l-2407 -4170 -1489 860 2407 4170 1489 -860zm-2836 1734l-2830 -3894 -1391 1010 2830 3895 1391 -1011zm-2640 2022l-3221 -3578 -1278 1151 3221 3578 1278 -1151zm-2413 2286l-3578 -3221 -1151 1278 3578 3221 1151 -1278zm-2161 2527l-3895 -2830 -1011 1391 3895 2830 1011 -1391zm-1886 2738l-4169 -2407 -860 1489 4169 2407 860 -1489zm-1589 2921l-4398 -1959 -700 1571 4399 1958 699 -1570zm-1275 3070l-4579 -1488 -531 1636 4579 1488 531 -1636zm-947 3187l-4709 -1001 -358 1682 4710 1001 357 -1682zm-788 4979l179 -1710 -4788 -504 -180 1710 4789 504zm-84 3323l0 -1719 -4815 0 0 1719 4815 0zm264 3314l-180 -1710 -4788 504 179 1710 4789 -504zm609 3269l-358 -1682 -4709 1001 357 1682 4710 -1001zm947 3187l-532 -1636 -4579 1488 532 1635 4579 -1487zm1275 3070l-700 -1571 -4398 1958 699 1571 4399 -1958zm1589 2921l-860 -1490 -4169 2407 859 1490 4170 -2407zm1886 2738l-1011 -1391 -3895 2829 1010 1392 3896 -2830zm2161 2526l-1151 -1278 -3577 3222 1150 1277 3578 -3221zm-808 5864l3222 -3578 -1278 -1150 -3222 3578 1278 1150zm3031 2339l2830 -3895 -1391 -1011 -2830 3895 1391 1011zm3259 2009l2408 -4170 -1489 -859 -2408 4169 1489 860zm3451 1657l1959 -4398 -1571 -700 -1958 4399 1570 699zm3606 1288l1488 -4579 -1636 -532 -1488 4579 1636 532zm3720 903l1001 -4709 -1682 -358 -1001 4710 1682 357zm3795 510l503 -4788 -1710 -180 -503 4788 1710 180zm3826 110l0 -4814 -1719 0 0 4814 1719 0zm3818 -290l-503 -4788 -1710 180 503 4788 1710 -180zm3766 -688l-1001 -4709 -1682 357 1001 4710 1682 -358zm3674 -1077l-1488 -4579 -1635 531 1488 4579 1635 -531zm3541 -1456l-1958 -4398 -1571 699 1958 4398 1571 -699zm3369 -1818l-2407 -4169 -1489 859 2407 4170 1489 -860zm3161 -2160l-2830 -3895 -1391 1011 2830 3895 1391 -1011zm2918 -2479l-3222 -3577 -1278 1150 3222 3578 1278 -1151zm2642 -2770l-3577 -3221 -1151 1278 3578 3221 1150 -1278zm2339 -3031l-3895 -2830 -1011 1391 3895 2830 1011 -1391zm2009 -3259l-4169 -2407 -860 1489 4169 2407 860 -1489zm1657 -3451l-4398 -1958 -699 1571 4398 1958 699 -1571zm1288 -3606l-4579 -1487 -531 1635 4578 1488 532 -1636zm904 -3720l-4710 -1001 -357 1682 4709 1001 358 -1682zm509 -3794l-4788 -503 -179 1710 4788 503 179 -1710zm111 -3827l-4815 0 0 1719 4815 0 0 -1719zm-111 -2107l-180 -1711 -4788 504 180 1710 4788 -503zm-510 -3795l-357 -1682 -4710 1001 358 1682 4709 -1001zm-904 -3720l-531 -1635 -4579 1487 532 1636 4578 -1488zm-1287 -3605l-700 -1571 -4398 1958 699 1571 4399 -1958zm-1658 -3451l-860 -1490 -4169 2408 860 1489 4169 -2407zm-5904 -430l3895 -2829 -1010 -1391 -3896 2830 1011 1390zm-2021 -2639l3577 -3221 -1150 -1278 -3578 3221 1151 1278zm-2287 -2413l3221 -3578 -1277 -1151 -3222 3578 1278 1151zm-2526 -2162l2830 -3895 -1392 -1011 -2830 3895 1392 1011zm-2739 -1885l2408 -4170 -1490 -860 -2407 4170 1489 860zm-2920 -1589l1958 -4399 -1571 -699 -1958 4398 1571 700zm-3071 -1275l1488 -4579 -1635 -531 -1488 4578 1635 532zm-3186 -947l1001 -4709 -1683 -358 -1000 4709 1682 358zm-3269 -609l503 -4788 -1710 -180 -503 4788 1710 180z"/>
   <path id="interface-icon-ir-energy01" fill="#0ED403" d="M49142 14126l1720 0 0 4814 -1720 0 0 -4814zm14947 2811l1571 699 -1958 4399 -1571 -700 1958 -4398zm-3605 -1287l1635 531 -1488 4579 -1635 -532 1488 -4578zm-3721 -904l1683 358 -1001 4709 -1682 -358 1000 -4709zm-3794 -510l1710 180 -503 4788 -1710 -180 503 -4788z"/>
   <path id="interface-icon-ir-energy02" fill="#0ED403" d="M67540 18594l1490 860 -2408 4170 -1489 -860 2407 -4170zm11540 9909l1010 1391 -3895 2829 -1011 -1390 3896 -2830zm-2479 -2918l1150 1278 -3577 3221 -1151 -1278 3578 -3221zm-2770 -2643l1277 1151 -3221 3578 -1278 -1151 3222 -3578zm-3032 -2339l1392 1011 -2830 3895 -1392 -1011 2830 -3895z"/>
   <path id="interface-icon-ir-energy03" fill="#28BC03" d="M81239 31663l860 1490 -4169 2407 -860 -1489 4169 -2408zm5039 14350l180 1711 -4788 503 -180 -1710 4788 -504zm-687 -3766l357 1682 -4709 1001 -358 -1682 4710 -1001zm-1078 -3673l531 1635 -4578 1488 -532 -1636 4579 -1487zm-1456 -3541l700 1571 -4399 1958 -699 -1571 4398 -1958z"/>
   <path id="interface-icon-ir-energy04" fill="#40A603" d="M86569 49831l0 1719 -4815 0 0 -1719 4815 0zm-2812 14947l-699 1571 -4398 -1958 699 -1571 4398 1958zm1288 -3606l-532 1636 -4578 -1488 531 -1635 4579 1487zm904 -3720l-358 1682 -4709 -1001 357 -1682 4710 1001zm509 -3794l-179 1710 -4788 -503 179 -1710 4788 503z"/>
   <path id="interface-icon-ir-energy05" fill="#40A603" d="M82100 68229l-860 1489 -4169 -2407 860 -1489 4169 2407zm-9908 11539l-1391 1011 -2830 -3895 1391 -1011 2830 3895zm2918 -2479l-1278 1151 -3222 -3578 1278 -1150 3222 3577zm2642 -2770l-1150 1278 -3578 -3221 1151 -1278 3577 3221zm2339 -3031l-1011 1391 -3895 -2830 1011 -1391 3895 2830z"/>
   <path id="interface-icon-ir-energy06" fill="#6C7D04" d="M69031 81928l-1489 860 -2407 -4170 1489 -859 2407 4169zm-14350 5039l-1710 180 -503 -4788 1710 -180 503 4788zm3766 -688l-1682 358 -1001 -4710 1682 -357 1001 4709zm3674 -1077l-1635 531 -1488 -4579 1635 -531 1488 4579zm3541 -1456l-1571 699 -1958 -4398 1571 -699 1958 4398z"/>
   <path id="interface-icon-ir-energy07" fill="#816B04" d="M50863 87257l-1719 0 0 -4814 1719 0 0 4814zm-14947 -2811l-1570 -699 1958 -4399 1571 700 -1959 4398zm3606 1288l-1636 -532 1488 -4579 1636 532 -1488 4579zm3720 903l-1682 -357 1001 -4710 1682 358 -1001 4709zm3795 510l-1710 -180 503 -4788 1710 180 -503 4788z"/>
   <path id="interface-icon-ir-energy08" fill="#8C6104" d="M32465 82789l-1489 -860 2408 -4169 1489 859 -2408 4170zm-11539 -9908l-1010 -1392 3895 -2829 1011 1391 -3896 2830zm2479 2917l-1150 -1277 3577 -3222 1151 1278 -3578 3221zm2770 2643l-1278 -1150 3222 -3578 1278 1150 -3222 3578zm3031 2339l-1391 -1011 2830 -3895 1391 1011 -2830 3895z"/>
   <path id="interface-icon-ir-energy09" fill="#995504" d="M18766 69720l-859 -1490 4169 -2407 860 1490 -4170 2407zm-5039 -14350l-179 -1710 4788 -504 180 1710 -4789 504zm688 3766l-357 -1682 4709 -1001 358 1682 -4710 1001zm1078 3673l-532 -1635 4579 -1488 532 1636 -4579 1487zm1455 3541l-699 -1571 4398 -1958 700 1571 -4399 1958z"/>
   <path id="interface-icon-ir-energy10" fill="#B23E04" d="M13437 51552l0 -1719 4815 0 0 1719 -4815 0zm2811 -14947l700 -1571 4398 1959 -699 1570 -4399 -1958zm-1287 3606l531 -1636 4579 1488 -531 1636 -4579 -1488zm-904 3720l358 -1682 4709 1001 -357 1682 -4710 -1001zm-510 3794l180 -1710 4788 504 -179 1710 -4789 -504z"/>
   <path id="interface-icon-ir-energy11" fill="#C52C04" d="M17906 33154l860 -1489 4169 2407 -860 1489 -4169 -2407zm9908 -11539l1391 -1010 2830 3894 -1391 1011 -2830 -3895zm-2918 2479l1278 -1151 3221 3578 -1278 1151 -3221 -3578zm-2643 2770l1151 -1278 3578 3221 -1151 1278 -3578 -3221zm-2338 3031l1011 -1391 3895 2830 -1011 1391 -3895 -2830z"/>
   <path id="interface-icon-ir-energy12" fill="#E31104" d="M30975 19455l1489 -860 2407 4170 -1489 860 -2407 -4170zm6910 -3274l1635 -531 1488 4579 -1635 531 -1488 -4579zm7440 -1765l1710 -180 503 4788 -1710 180 -503 -4788zm-3766 688l1682 -358 1001 4710 -1682 357 -1001 -4709zm-7215 2533l1571 -699 1958 4398 -1571 700 -1958 -4399z"/>
  </g>
  <path id="interface-icon-ir-event-defaul" fill="#603882" d="M39575 3693l2013 9173c1591,-321 3219,-537 4878,-642l-452 -9379c-2192,131 -4342,417 -6439,848zm-18741 21702l-7176 -6056c-1318,1600 -2528,3291 -3620,5063l8059 4819c830,-1336 1745,-2614 2737,-3826zm-6443 -6924l7176 6056c1059,-1214 2197,-2356 3407,-3418l-6081 -7154c-1604,1398 -3108,2908 -4502,4516zm5368 -5253l6081 7154c1216,-1002 2500,-1926 3842,-2765l-4842 -8046c-1779,1103 -3477,2326 -5081,3657zm6055 -4244l4842 8046c1356,-789 2769,-1492 4230,-2101l-3476 -8725c-1937,800 -3805,1731 -5596,2780zm6652 -3201l3476 8725c1468,-559 2983,-1024 4536,-1389l-2014 -9173c-2056,476 -4059,1092 -5998,1837z"/>
    <image x="21%" y="20%" width="58%" height="60%" xlink:href="/_svg/interface/interface-icon-ir-body.svg"/>
 </g>
</svg>
