<?xml version="1.0" encoding="UTF-8"?>
<!DOCTYPE svg PUBLIC "-//W3C//DTD SVG 1.1//EN" "http://www.w3.org/Graphics/SVG/1.1/DTD/svg11.dtd">
<!-- Creator: CorelDRAW X8 -->
<svg xmlns="http://www.w3.org/2000/svg" xml:space="preserve" width="1000px" height="986px" version="1.1" shape-rendering="geometricPrecision" text-rendering="geometricPrecision" image-rendering="optimizeQuality" fill-rule="evenodd" clip-rule="evenodd"
viewBox="0 0 116734 115105"
 xmlns:xlink="http://www.w3.org/1999/xlink">
 <g id="interface-icon-jump-to-sector">
  <metadata id="CorelCorpID_0Corel-Layer"/>
  <g id="interface-icon-jump-to-sector-body">
   <path fill="#031C33" d="M57964 0c32944,2941 58770,30613 58770,64321 0,9779 -2177,19047 -6067,27354l-20527 0 -85105 0 42552 -73703 10377 -17972zm-35876 85446l27650 -1878c-70,-355 -107,-721 -107,-1096l10 -335 -27649 1879c68,360 104,732 104,1113l-8 317zm52799 -47859l27944 19384c250,-411 548,-789 889,-1125l-28142 -19522c-165,459 -399,884 -691,1263zm-23091 5197l15390 -5737c-234,-411 -407,-861 -506,-1339l-15384 5736c243,404 416,857 500,1340zm-3879 4651l5624 29653c447,-145 920,-237 1408,-266l-5624 -29653c-437,169 -912,264 -1408,266zm64835 10452l-2956 2556 1532 3594 -3344 -2020 -2945 2567 888 -3805 -3351 -2008 3893 -330 874 -3808 1517 3600 3892 -346zm-91861 25244l-2817 2438 1460 3426 -3188 -1926 -2809 2447 847 -3627 -3195 -1914 3711 -316 834 -3630 1447 3432 3710 -330zm38885 -2560l-2680 2319 1389 3260 -3033 -1833 -2672 2328 806 -3450 -3039 -1821 3530 -300 793 -3454 1376 3265 3530 -314zm-8661 -38460l-1924 1663 996 2340 -2176 -1315 -1919 1671 579 -2477 -2183 -1307 2536 -215 568 -2480 989 2344 2534 -224zm24134 -8917l-2268 1962 1175 2757 -2566 -1550 -2260 1971 682 -2920 -2572 -1541 2987 -253 670 -2923 1165 2763 2987 -266z"/>
   <path fill="#FEFEFE" d="M12284 32285c420,0 759,339 759,759 0,420 -339,760 -759,760 -420,0 -760,-340 -760,-760 0,-420 340,-759 760,-759zm90547 24686l-27944 -19384c292,-379 526,-804 691,-1263l28142 19522c-341,336 -639,713 -889,1125zm-35645 -19924l-15391 5737c-83,-483 -257,-936 -498,-1340l15383 -5736c99,478 272,928 506,1339zm-17861 10122l5624 29653c-488,29 -961,121 -1409,266l-5623 -29653c496,-3 971,-96 1408,-266zm413 36399l-27650 1878c6,-105 8,-210 8,-317 0,-381 -36,-753 -104,-1113l27649 -1879c-6,111 -10,222 -10,335 0,376 37,741 107,1096zm-24220 -60782c383,0 696,312 696,697 0,384 -313,696 -696,696 -386,0 -697,-312 -697,-696 0,-385 311,-697 697,-697zm87234 35101l-2956 2557 1532 3593 -3344 -2020 -2945 2567 888 -3805 -3351 -2007 3893 -331 874 -3807 1517 3599 3892 -346zm-89072 44808c1189,0 2153,964 2153,2153 0,1188 -964,2153 -2153,2153 -1188,0 -2152,-965 -2152,-2153 0,-1189 964,-2153 2152,-2153zm69905 -4306c1049,0 1899,851 1899,1900 0,1049 -850,1900 -1899,1900 -1050,0 -1901,-851 -1901,-1900 0,-1049 851,-1900 1901,-1900zm-15324 12411c279,0 506,227 506,507 0,279 -227,506 -506,506 -280,0 -506,-227 -506,-506 0,-280 226,-507 506,-507zm-11398 -13170c840,0 1520,679 1520,1519 0,839 -680,1520 -1520,1520 -838,0 -1518,-681 -1518,-1520 0,-840 680,-1519 1518,-1519zm-14310 12664c1330,0 2407,1076 2407,2405 0,1329 -1077,2406 -2407,2406 -1328,0 -2406,-1077 -2406,-2406 0,-1329 1078,-2405 2406,-2405zm-16715 -13171c350,0 632,284 632,633 0,350 -282,633 -632,633 -350,0 -634,-283 -634,-633 0,-349 284,-633 634,-633zm-14947 -13993l-2818 2438 1461 3427 -3188 -1926 -2809 2447 847 -3627 -3195 -1914 3711 -316 834 -3631 1447 3433 3710 -331zm38885 -2559l-2680 2319 1389 3260 -3033 -1833 -2672 2328 806 -3450 -3039 -1822 3531 -299 792 -3455 1376 3266 3530 -314zm-8660 -38461l-1925 1664 996 2340 -2176 -1315 -1919 1671 579 -2477 -2183 -1307 2536 -215 568 -2480 989 2344 2535 -225zm24133 -8916l-2268 1962 1175 2757 -2566 -1550 -2260 1971 682 -2920 -2572 -1541 2987 -253 670 -2923 1165 2762 2987 -265zm-35359 -20664c1049,0 1899,850 1899,1899 0,1050 -850,1900 -1899,1900 -1050,0 -1900,-850 -1900,-1900 0,-1049 850,-1899 1900,-1899zm-38561 42169c734,0 1330,595 1330,1330 0,734 -596,1329 -1330,1329 -734,0 -1329,-595 -1329,-1329 0,-735 595,-1330 1329,-1330zm17857 -8358c383,0 696,312 696,697 0,385 -313,696 -696,696 -386,0 -696,-311 -696,-696 0,-385 310,-697 696,-697z"/>
  </g>
 </g>
</svg>
