<?xml version="1.0" encoding="UTF-8"?>
<!DOCTYPE svg PUBLIC "-//W3C//DTD SVG 1.1//EN" "http://www.w3.org/Graphics/SVG/1.1/DTD/svg11.dtd">
<!-- Creator: CorelDRAW X8 -->
<svg xmlns="http://www.w3.org/2000/svg" xml:space="preserve" width="1000px" height="1000px" version="1.1" shape-rendering="geometricPrecision" text-rendering="geometricPrecision" image-rendering="optimizeQuality" fill-rule="evenodd" clip-rule="evenodd"
viewBox="0 0 100000 100000"
 xmlns:xlink="http://www.w3.org/1999/xlink">
 <g id="interface-icon-cc">
  <metadata id="CorelCorpID_0Corel-Layer"/>
  <g id="interface-icon-cc-bg-border">
   <circle fill="black" cx="50000" cy="50000" r="50000"/>
   <path fill="#FEFEFE" d="M11729 80108c-1349,-1714 -2564,-3491 -3648,-5317l2240 -1764c-739,-1268 -1411,-2563 -2016,-3877l-2796 679c-367,-820 -712,-1647 -1031,-2480l2461 -1494c-423,-1145 -798,-2302 -1126,-3467l-2867 233c-233,-867 -440,-1739 -624,-2614l2661 -1088c-237,-1195 -425,-2396 -565,-3600l-2867 -218c-94,-893 -166,-1786 -211,-2680l2802 -660c-47,-1215 -46,-2429 3,-3641l-2798 -664c46,-896 118,-1790 213,-2681l2867 -214c143,-1205 332,-2404 569,-3595l-2659 -1094c184,-877 391,-1750 624,-2615l2867 237c328,-1168 702,-2324 1123,-3465l-2456 -1496c319,-836 662,-1664 1028,-2484l2792 683c546,-1187 1143,-2354 1793,-3498l-2257 -1744c339,-585 690,-1164 1055,-1736l7238 4608c-2078,3262 -3650,6777 -4703,10426l-2550 -304c-1172,4218 -1692,8597 -1542,12972l2547 213c341,8136 3150,16245 8573,23131 13724,17427 38976,20429 56402,6706 10407,-8195 13788,-20569 13736,-20390l2548 303c1173,-4217 1693,-8596 1543,-12971l-2549 -303c9,196 -288,-12523 -8572,-23042 -8194,-10406 -20568,-13786 -20389,-13735l303 -2548c-4218,-1173 -8596,-1693 -12972,-1542l-303 2548c38,-2 -410,8 -1232,86l-656 -8565c7251,-544 14564,536 21361,3172l-673 2772c1364,541 2692,1145 3980,1805l1781 -2260c790,417 1570,856 2340,1319l-1013 2690c1040,640 2049,1319 3026,2034l2111 -1952c714,535 1417,1091 2105,1669l-1421 2499c923,794 1812,1623 2666,2484l2390 -1598c621,640 1226,1301 1818,1981l-1795 2246c786,926 1535,1883 2245,2867l2613 -1206c521,737 1016,1483 1489,2239l-2127 1941c632,1036 1223,2097 1771,3180l2776 -784c398,806 771,1621 1121,2442l-2408 1586c463,1121 882,2261 1255,3420l2861 -340c265,858 508,1720 724,2587l-2623 1188c303,1271 554,2558 749,3859l2846 -21c2318,16603 -3996,33960 -18118,45080 -21148,16654 -51794,13011 -68449,-8138zm49880 12897c-288,-925 228,-1909 1153,-2197 925,-289 1909,227 2198,1152 288,926 -228,1909 -1153,2198 -925,288 -1909,-228 -2198,-1153zm21055 -12682c-735,-632 -819,-1739 -187,-2474 631,-735 1739,-819 2474,-187 735,631 819,1739 187,2474 -632,735 -1740,819 -2474,187zm-4545 4247c-640,-728 -568,-1836 159,-2476 728,-640 1837,-569 2477,159 640,728 568,1837 -160,2477 -728,640 -1836,568 -2476,-160zm-5091 3573c-533,-809 -308,-1897 502,-2430 810,-532 1898,-307 2430,503 533,810 307,1898 -503,2430 -809,532 -1897,307 -2429,-503zm-5540 2831c-414,-877 -40,-1923 836,-2337 876,-415 1923,-41 2337,836 414,876 40,1922 -836,2336 -876,415 -1922,40 -2337,-835zm-54473 -10573l-1269 -1611c-315,-400 -245,-984 155,-1299l3908 -3078c400,-314 984,-245 1298,155l1269 1611c314,400 245,983 -154,1298l-3909 3078c-399,315 -984,245 -1298,-154zm44873 16826l-2029 293c-503,72 -974,-280 -1047,-783l-711 -4924c-73,-503 279,-974 782,-1047l2029 -293c504,-73 975,279 1048,783l711 4923c73,504 -279,975 -783,1048zm-8328 647l-2050 -64c-508,-15 -911,-444 -895,-952l155 -4973c15,-508 444,-911 952,-895l2050 63c508,16 911,445 895,953l-155 4973c-15,508 -444,911 -952,895zm-8315 -809l-2007 -418c-498,-104 -820,-596 -717,-1094l1016 -4870c104,-498 596,-820 1094,-716l2007 418c498,104 820,596 716,1094l-1015 4871c-104,497 -596,819 -1094,715zm-8048 -2240l-1904 -760c-472,-189 -704,-729 -516,-1202l1847 -4620c189,-472 729,-704 1201,-515l1904 761c472,188 704,729 516,1201l-1846 4620c-189,472 -729,704 -1202,515zm-7536 -3603l-1744 -1080c-432,-268 -566,-841 -299,-1273l2621 -4229c268,-432 840,-567 1273,-299l1743 1080c432,268 566,841 299,1272l-2621 4230c-267,432 -840,567 -1272,299zm-6797 -4857l-1529 -1366c-379,-339 -412,-927 -73,-1306l3315 -3710c338,-379 926,-412 1305,-73l1529 1366c379,339 412,926 73,1305l-3314 3710c-339,379 -926,412 -1306,74z"/>
   <path fill="#D40C0C" d="M21150 72689c-5748,-7298 -8287,-16097 -7824,-24697l-2898 -344c-637,-76 -1096,-659 -1021,-1296l288 -2423c76,-638 659,-1097 1296,-1021l2898 345c1566,-8470 6098,-16427 13397,-22175 7302,-5750 16105,-8289 24709,-7823l332 -2898c74,-638 659,-1097 1297,-1021l2422 288c637,76 1099,659 1021,1296l-357 2896c8474,1564 16437,6096 22187,13398 5747,7299 8287,16097 7824,24698l2897 344c637,76 1097,659 1021,1296l-288 2423c-76,637 -659,1096 -1296,1021l-2898 -345c-1567,8469 -6098,16427 -13396,22174 -15947,12558 -39054,9811 -51611,-6136zm1378 -1085c-11958,-15185 -9342,-37189 5843,-49147 15186,-11958 37189,-9342 49147,5843 11958,15185 9342,37189 -5843,49147 -15185,11958 -37189,9342 -49147,-5843z"/>
   <path fill="#3571C4" fill-rule="nonzero" d="M19465 74016c-5689,-7224 -8410,-15837 -8338,-24369l1169 139c-41,8232 2599,16536 8088,23507 6445,8184 15598,12982 25185,14122 9588,1139 19610,-1378 27795,-7824 6970,-5489 11483,-12942 13373,-20955l1169 139c-1930,8311 -6594,16046 -13819,21735 -8438,6645 -18771,9241 -28656,8066 -9884,-1175 -19321,-6121 -25966,-14560zm-7325 -32887c1930,-8311 6595,-16047 13819,-21736 7226,-5690 15841,-8410 24374,-8337l-138 1169c-8234,-43 -16540,2597 -23512,8087 -6971,5490 -11484,12943 -13374,20955l-1169 -138zm46712 -29059c8308,1931 16042,6595 21730,13818 5689,7224 8409,15837 8337,24369l-1169 -139c42,-8233 -2598,-16536 -8087,-23507 -5488,-6969 -12939,-11481 -20949,-13372l138 -1169z"/>
   <path fill="#E31104" d="M13015 80401c314,399 898,468 1298,154l228 -180c-533,-481 -1058,-977 -1574,-1487 -415,-409 -821,-825 -1218,-1246 -260,328 -272,805 -3,1148l1269 1611zm41126 11696l671 4640c73,503 544,855 1047,783l2029 -293c504,-73 856,-544 783,-1048l-701 -4851c-1267,309 -2544,565 -3829,769zm-3629 4882l139 -4458c-1300,110 -2603,167 -3907,171l-129 4166c-16,508 387,937 895,952l2050 64c508,16 937,-387 952,-895zm-8173 -630l789 -3782c-1302,-94 -2600,-241 -3892,-440l-714 3426c-104,498 218,990 716,1094l2007 419c498,103 990,-219 1094,-717zm-7940 -2039l1159 -2901c-1270,-299 -2530,-651 -3777,-1056l-1003 2510c-189,473 43,1013 515,1202l1904 760c472,189 1013,-43 1202,-515zm-7466 -3387l1192 -1924c-1203,-503 -2390,-1057 -3557,-1662l-949 1532c-268,433 -134,1005 299,1273l1743 1080c432,268 1005,133 1272,-299zm-6763 -4632l873 -978c-1100,-696 -2178,-1441 -3231,-2236l-550 616c-339,379 -306,967 73,1305l1529 1367c380,338 967,305 1306,-74z"/>
  </g>
  <path id="interface-icon-cc-event-default" fill="#603882" d="M38783 2360l1902 8623c1589,-321 3078,-657 4816,-838l-435 -8828c-2138,213 -4235,563 -6283,1043zm-18754 20992l-6739 -5692c-1347,1531 -2600,3145 -3749,4836l7598 4543c829,-1335 1899,-2476 2890,-3687zm-5979 -6536l6747 5698c1121,-1209 2261,-2254 3475,-3279l-5718 -6721c-1591,1337 -3096,2774 -4504,4302zm5382 -5024l5722 6726c1216,-1002 2471,-1827 3812,-2665l-4554 -7570c-1735,1067 -3397,2240 -4980,3509zm5955 -4093l4552 7567c1356,-788 2688,-1458 4148,-2089l-3271 -8208c-1873,799 -3685,1713 -5429,2730zm6480 -3163l3271 8204c1468,-558 2883,-1070 4450,-1479l-1908 -8630c-1991,515 -3931,1154 -5813,1905z"/>
  <image x="20%" y="20%" width="60%" height="60%" xlink:href="/_svg/interface/interface-icon-cc-body.svg"/>
 </g>
</svg>
