<?xml version="1.0" encoding="UTF-8"?>
<!DOCTYPE svg PUBLIC "-//W3C//DTD SVG 1.1//EN" "http://www.w3.org/Graphics/SVG/1.1/DTD/svg11.dtd">
<!-- Creator: CorelDRAW 2017 -->
<svg xmlns="http://www.w3.org/2000/svg" xml:space="preserve" width="1000px" height="1000px" version="1.1" shape-rendering="geometricPrecision" text-rendering="geometricPrecision" image-rendering="optimizeQuality" fill-rule="evenodd" clip-rule="evenodd"
viewBox="0 0 100000 100000"
 xmlns:xlink="http://www.w3.org/1999/xlink">
 <g id="interface-icon-user-planet-info">
  <metadata id="CorelCorpID_0Corel-Layer"/>
  <g id="interface-icon-user-planet-info-bg-border">
   <circle fill="black" cx="50000" cy="50000" r="50000"/>
   <path fill="#FEFEFE" d="M10547 25353l558 346 4634 2867 451 279 290 180c-5115,8158 -6905,17593 -5614,26584 1437,10016 6696,19484 15435,26029 4272,3200 8980,5404 13847,6654l-1720 6987c-5778,-1474 -11368,-4086 -16438,-7884 -10329,-7735 -16544,-18926 -18243,-30764 -1524,-10617 585,-21756 6617,-31391l183 113zm4729 3969l-4652 -2836c-5551,9273 -7469,19889 -6014,30021 526,3671 1496,7279 2895,10736l2504 -1076 2504 -1076c-1211,-3015 -2051,-6159 -2510,-9358 -1280,-8912 402,-18249 5273,-26411zm32540 -26011c10465,-497 21160,2506 30201,9277 10329,7736 16544,18926 18243,30764 1699,11839 -1117,24325 -8853,34654 -2108,2814 -4473,5323 -7038,7519l-4387 -5716c2059,-1798 3963,-3839 5668,-6115 6546,-8739 8929,-19304 7491,-29320 -1437,-10016 -6696,-19484 -15435,-26029 -7650,-5730 -16699,-8270 -25554,-7850l-46 -983 0 -2 0 0 -290 -6199zm-20358 76783c-8312,-6226 -13314,-15232 -14682,-24759 -1242,-8656 516,-17743 5516,-25566l532 263c0,0 3261,-6233 11720,-11732 8359,-5435 17380,-5425 17380,-5425l24 -436c8516,-471 17240,1937 24601,7450 8312,6226 13314,15232 14682,24759 1367,9527 -900,19577 -7125,27889 -6226,8312 -15232,13315 -24759,14682 -9527,1368 -19577,-899 -27889,-7125zm-13064 -24991c1308,9113 6093,17727 14044,23683 7951,5955 17564,8123 26677,6815 9113,-1308 17727,-6092 23682,-14044 5955,-7951 8124,-17563 6816,-26677 -1308,-9112 -6093,-17727 -14044,-23682 -7951,-5955 -17564,-8124 -26677,-6816 -9113,1308 -17727,6093 -23682,14044 -5956,7951 -8124,17564 -6816,26677zm27326 33559c600,128 1201,242 1805,342l-1105 7108c-809,-132 -1616,-286 -2420,-461l1720 -6989zm3403 572c608,75 1217,136 1827,183l-481 7177c-818,-61 -1635,-144 -2451,-248l1105 -7112zm3439 273c1942,69 3884,-5 5810,-219l1728 7035c-2653,350 -5337,472 -8019,363l481 -7179zm14945 -2305c2705,-1050 6142,-2760 8588,-4407l4388 5717c-3261,2241 -6763,4035 -10413,5367l-2563 -6677zm26497 -42952c1226,8543 -267,17476 -4683,25390l2351 1379 2350 1379c5058,-9007 6773,-19188 5375,-28922 -952,-6636 -3351,-13065 -7122,-18774l-2244 1549 -2243 1548c3289,5007 5382,10639 6216,16451zm-39554 -34669c2796,28 5598,346 8358,961l654 -2647 654 -2646c-3212,-723 -6474,-1094 -9730,-1118l32 2725 32 2725zm9763 1308c2706,704 5348,1691 7877,2954l1275 -2409 1274 -2409c-2941,-1479 -6017,-2628 -9170,-3439l-628 2652 -628 2651zm9157 3632c2455,1338 4779,2934 6927,4772l1820 -2030 1820 -2029c-2496,-2147 -5203,-4005 -8066,-5555l-1251 2421 -1250 2421zm-43591 67815c-5160,-3864 -9132,-8725 -11851,-14115l-2460 1174 -2460 1173c3087,6161 7614,11718 13504,16129 4045,3030 8426,5290 12970,6807l811 -2602 811 -2602c-3967,-1337 -7792,-3318 -11325,-5964z"/>
   <path fill="#1EAFE3" fill-rule="nonzero" d="M49986 17435c8991,0 17131,3645 23023,9537 5892,5892 9536,14032 9536,23022 0,8991 -3644,17131 -9536,23022 -5892,5892 -14032,9537 -23023,9537 -8990,0 -17130,-3645 -23022,-9537 -5892,-5891 -9537,-14031 -9537,-23022 0,-8990 3645,-17130 9537,-23022 5892,-5892 14032,-9537 23022,-9537zm21957 10603c-5619,-5619 -13382,-9095 -21957,-9095 -8574,0 -16338,3476 -21956,9095 -5619,5618 -9095,13382 -9095,21956 0,8575 3476,16338 9095,21957 5618,5619 13382,9095 21956,9095 8575,0 16338,-3476 21957,-9095 5619,-5619 9095,-13382 9095,-21957 0,-8574 -3476,-16338 -9095,-21956z"/>
   <path fill="#E8513A" fill-rule="nonzero" d="M49986 19697c8366,0 15941,3392 21423,8874 5483,5483 8874,13057 8874,21423 0,8366 -3391,15941 -8874,21423 -5482,5483 -13057,8874 -21423,8874 -8366,0 -15940,-3391 -21423,-8874 -5482,-5482 -8874,-13057 -8874,-21423 0,-8366 3392,-15940 8874,-21423 5483,-5482 13057,-8874 21423,-8874zm20358 9940c-5210,-5210 -12408,-8432 -20358,-8432 -7950,0 -15147,3222 -20357,8432 -5210,5209 -8432,12407 -8432,20357 0,7950 3222,15148 8432,20358 5210,5209 12407,8432 20357,8432 7950,0 15148,-3223 20358,-8432 5209,-5210 8432,-12408 8432,-20358 0,-7950 -3223,-15148 -8432,-20357z"/>
   <path fill="#1EAFE3" fill-rule="nonzero" d="M49986 21955c7743,0 14753,3139 19827,8213 5074,5074 8212,12084 8212,19826 0,7743 -3138,14753 -8212,19827 -5074,5073 -12084,8212 -19827,8212 -7742,0 -14752,-3139 -19826,-8212 -5074,-5074 -8213,-12084 -8213,-19827 0,-7742 3139,-14752 8213,-19826 5074,-5074 12084,-8213 19826,-8213zm18761 9278c-4801,-4800 -11434,-7770 -18761,-7770 -7326,0 -13959,2970 -18761,7770 -4800,4801 -7770,11435 -7770,18761 0,7327 2970,13960 7770,18761 4802,4801 11435,7771 18761,7771 7327,0 13960,-2970 18761,-7771 4801,-4801 7771,-11434 7771,-18761 0,-7326 -2970,-13960 -7771,-18761z"/>
   <circle fill="black" cx="12461" cy="50000" r="11054"/>
   <path fill="#003363" d="M87919 32373c330,629 1114,874 1743,544 629,-329 874,-1114 545,-1742l-1486 -2836c-329,-630 -1113,-875 -1742,-545 -630,329 -874,1113 -545,1742l1485 2837zm4924 12655l53 -9c698,-135 1157,-816 1022,-1513l-609 -3143c-135,-697 -815,-1157 -1513,-1022l-13 3c-25,4 -50,8 -75,13 -696,143 -1147,829 -1004,1525l646 3136c141,681 801,1127 1481,1012l12 -2zm-3766 19775l-1149 2988c-255,663 78,1414 741,1669 663,255 1414,-79 1669,-741l1149 -2989c255,-663 -78,-1413 -741,-1668 -663,-255 -1414,78 -1669,741zm958 -2720c-160,692 275,1389 967,1549 692,161 1389,-274 1549,-966l722 -3119c160,-692 -275,-1389 -967,-1550 -691,-160 -1388,275 -1549,967l-722 3119zm1293 -5946c-63,708 465,1337 1172,1400 39,3 77,5 116,5l11 1c709,54 1332,-481 1386,-1189l243 -3193c54,-708 -481,-1331 -1189,-1385 -35,-3 -69,-4 -103,-4 -690,-37 -1295,483 -1355,1176l-281 3189zm452 -6068c35,691 616,1231 1301,1224 36,1 72,0 108,-2 709,-45 1252,-661 1207,-1370l-203 -3183 -1 -13c-43,-703 -650,-1246 -1355,-1209 -693,36 -1233,618 -1224,1306l0 1 0 16 1 17 0 16 1 18 165 3179zm-1738 -11994c239,669 981,1021 1649,782 670,-238 1022,-981 783,-1650l-1076 -3015c-239,-669 -981,-1021 -1650,-782 -669,239 -1021,981 -782,1650l1076 3015z"/>
  </g>
  <path id="interface-icon-user-planet-info-event-default" fill="#603882" d="M40249 3702l2013 9171c1590,-321 3218,-537 4876,-642l-451 -9376c-2191,131 -4341,417 -6438,847zm-19017 21553l-6893 -5910c-1317,1599 -2527,3289 -3619,5061l7657 4579c829,-1336 1863,-2518 2855,-3730zm-6160 -6778l6967 5879c1058,-1213 2255,-2305 3465,-3367l-5932 -7027c-1603,1398 -3107,2907 -4500,4515zm5366 -5252l6016 7078c1216,-1002 2563,-1852 3905,-2690l-4841 -8044c-1779,1103 -3476,2325 -5080,3656zm6054 -4243l4840 8045c1356,-789 2769,-1492 4229,-2102l-3475 -8722c-1936,800 -3804,1730 -5594,2779zm6650 -3200l3475 8723c1468,-559 2982,-1024 4535,-1389l-2013 -9171c-2056,476 -4059,1092 -5997,1837z"/>
  <g id="interface-icon-user-planet-info-i">
   <path fill="black" d="M13497 37780c6767,0 12252,5485 12252,12251 0,6766 -5485,12251 -12252,12251 -6766,0 -12251,-5485 -12251,-12251 0,-6766 5485,-12251 12251,-12251z"/>
   <path fill="#4F65B7" d="M21499 59551c1051,-883 1972,-1956 2709,-3206 1744,-2957 2123,-6342 1328,-9423 -86,-333 -185,-662 -298,-986 -935,-2682 -2788,-5060 -5426,-6616 -1536,-905 -3187,-1442 -4850,-1639 -1541,-182 -3092,-71 -4573,311 -358,92 -710,201 -1058,324 -3,1 -6,2 -10,3 -2648,943 -4995,2786 -6534,5397 -1744,2958 -2123,6343 -1328,9423 378,1462 1020,2856 1907,4104 982,1381 2263,2582 3817,3498 2620,1545 5576,2019 8359,1554 358,-60 713,-135 1064,-226 1774,-458 3448,-1306 4882,-2508 4,-4 8,-6 11,-10zm-9877 -18351c-128,27 -255,57 -382,90 -399,103 -790,233 -1172,390l-43 17c-552,224 -1072,498 -1556,816l10 11c-1023,683 -1920,1586 -2616,2688l-31 -31c-71,110 -139,222 -205,334 -1163,1996 -1564,4437 -928,6848 635,2410 2188,4335 4185,5498 160,93 323,182 489,264l14 -56c1158,593 2391,913 3622,978l-9 33c897,42 1816,-50 2731,-291 432,-114 849,-258 1248,-428l13 -5 41 -18c1191,-506 2280,-1269 3176,-2267l-30 -17c398,-448 749,-934 1050,-1450 332,-571 603,-1178 804,-1811l52 30c542,-1663 576,-3415 154,-5050 -577,-2236 -2009,-4253 -4157,-5519 -864,-510 -1779,-859 -2709,-1057l0 45c-1203,-266 -2477,-289 -3751,-27l0 -15zm-5756 11071l67 -39c-22,-77 -44,-154 -64,-232 -504,-1952 -263,-4097 841,-5970 905,-1534 2248,-2649 3776,-3279 300,-121 612,-225 933,-309 2103,-555 4233,-204 5975,810 1204,702 2224,1721 2921,2979l74 -20c324,585 571,1207 737,1850 149,577 233,1171 249,1770l-70 19c42,1489 -345,2931 -1070,4176 -830,1425 -2106,2591 -3694,3272 -349,146 -708,267 -1074,361 -1952,504 -4097,264 -5971,-841 -637,-376 -1201,-827 -1689,-1336l-62 36c-855,-888 -1512,-1988 -1879,-3247zm-2089 -7971c1582,-2684 4104,-4473 6899,-5195 2796,-722 5868,-377 8552,1205 2684,1583 4473,4104 5195,6900 722,2796 378,5867 -1205,8552 -1583,2683 -4103,4473 -6899,5195 -2796,721 -5868,377 -8552,-1206 -2685,-1582 -4473,-4103 -5195,-6899 -722,-2796 -378,-5868 1205,-8552z"/>
   <path fill="#F49911" fill-rule="nonzero" d="M16240 55691l0 -498c-1555,-140 -1571,-241 -1571,-1539l0 -6407c-1127,228 -2108,312 -3369,363l0 450c1454,192 1238,639 1238,1818l0 3776c0,1311 140,1425 -1393,1539l0 498 5095 0zm-3079 -9068c858,0 1498,-673 1498,-1446 0,-855 -640,-1497 -1459,-1497 -826,0 -1537,642 -1537,1497 0,773 711,1446 1498,1446z"/>
  </g>
 </g>
</svg>
