<?xml version="1.0" encoding="UTF-8"?>
<!DOCTYPE svg PUBLIC "-//W3C//DTD SVG 1.1//EN" "http://www.w3.org/Graphics/SVG/1.1/DTD/svg11.dtd">
<!-- Creator: CorelDRAW X8 -->
<svg xmlns="http://www.w3.org/2000/svg" xml:space="preserve" width="828px" height="1000px" version="1.1" shape-rendering="geometricPrecision" text-rendering="geometricPrecision" image-rendering="optimizeQuality" fill-rule="evenodd" clip-rule="evenodd"
viewBox="0 0 73902 89242"
 xmlns:xlink="http://www.w3.org/1999/xlink">
 <g id="interface-icon-jump-to-user-plan">
  <metadata id="CorelCorpID_0Corel-Layer"/>
  <g id="interface-icon-jump-to-user-planet-body">
   <path fill="#8A2ADE" d="M8214 74949c1706,-876 3271,-1682 4120,-2119 1044,-537 2794,-3194 3340,-3465 546,-271 1287,-1995 3017,-3444 1730,-1449 6337,-857 6883,-1219 546,-362 420,-3789 2696,-4423 2276,-633 3092,2771 5368,3133 2275,362 5650,1359 6828,1359 1176,0 4121,541 5644,452 1522,-88 5735,-2444 7192,-4346 1456,-1901 2371,-3808 3368,-5071 997,-1262 2276,-1267 2731,-2445 455,-1177 637,-4708 -637,-5795 -1275,-1087 -4647,-7475 -8081,-8963 -3434,-1487 -12860,446 -12860,446 0,0 -5203,1052 -6767,-1805 -1081,-1975 -3635,-1789 -4344,-1085 -563,561 -3873,925 -4921,89 -837,-667 652,-2428 -363,-3060 -1827,-1138 -4144,-1130 -4144,-1130 -1087,1268 -1276,380 -1817,0 -900,-633 -1515,-2177 -3661,-2296 -1397,-77 -3543,630 -5275,100 -2528,-773 -4482,-2852 -4482,-2852l-2049 -895c2274,-5176 5491,-9843 9433,-13785 6151,-6150 14067,-10535 22924,-12330l1008 569 13288 3582c0,0 3952,1678 5226,2040 1275,362 4393,4549 7670,5273 1076,238 5917,-360 7115,-17 2447,701 3835,2280 3835,2280 -37,377 5147,7840 1044,4729 -930,-706 -1636,-1325 -3443,-1113 -1725,201 -2659,-1462 -3524,-409 -222,270 -509,4923 -253,5227 1932,2291 2179,3943 2179,3943 0,0 -160,-1182 1611,2441 2110,3413 78,-716 1786,5063 926,3134 4003,1687 4003,3014 0,2413 -2909,7049 -3452,8679 -543,1630 -362,4527 -1267,5614 -906,1087 -4166,1630 -4166,1630 0,0 -121,1919 -1283,4330 -1163,2412 -1266,2524 -3078,4332l0 -5c-854,-855 -2036,-1384 -3340,-1384 -1305,0 -2486,529 -3341,1384 -855,855 -1384,2036 -1384,3341 0,388 47,765 136,1127l-2282 1717 -1774 2178c0,0 -6835,-721 -5024,1452 1811,2173 5073,2325 4346,5795 -726,3471 3708,5821 2622,7088 -1086,1267 -11133,1786 -11133,1786 0,0 -2717,-1992 -3622,-905 -592,710 417,2976 1187,4461 -10747,-1022 -20396,-5808 -27614,-13025 -414,-415 -821,-838 -1219,-1268zm50202 -12264c-1558,724 -3086,1030 -3094,1031 109,-263 269,-501 468,-700 390,-390 930,-631 1526,-631 401,0 778,109 1100,300zm-26635 -36506c1304,0 2486,530 3341,1384l0 5c854,855 1383,2035 1383,3336 0,1300 -529,2481 -1383,3336l-5 5c-855,854 -2036,1384 -3336,1384 -1301,0 -2481,-530 -3336,-1384l-5 0c-854,-855 -1384,-2037 -1384,-3341 0,-1304 530,-2486 1384,-3341 855,-854 2037,-1384 3341,-1384zm1528 3196c-392,-387 -932,-629 -1528,-629 -596,0 -1136,242 -1526,632 -390,390 -632,930 -632,1526 0,596 242,1136 632,1526 387,391 928,632 1526,632 597,0 1139,-241 1528,-630 389,-389 630,-931 630,-1528 0,-598 -241,-1139 -630,-1529z"/>
   <path fill="#E31E24" fill-rule="nonzero" d="M31781 20905c2761,0 5261,1120 7070,2929 1809,1809 2929,4309 2929,7070 0,2757 -1120,5256 -2929,7065l-5 5c-1809,1809 -4308,2929 -7065,2929 -2761,0 -5261,-1120 -7070,-2929 -1809,-1809 -2929,-4309 -2929,-7070 0,-2755 1119,-5254 2929,-7065l5 -5c1811,-1810 4310,-2929 7065,-2929zm5255 4744c-1344,-1345 -3203,-2177 -5255,-2177 -2055,0 -3914,830 -5255,2172l-5 5c-1342,1341 -2172,3200 -2172,5255 0,2052 832,3911 2177,5255 1344,1345 3203,2177 5255,2177 2054,0 3913,-831 5258,-2174 1343,-1345 2174,-3204 2174,-5258 0,-2052 -832,-3911 -2177,-5255z"/>
   <path fill="#E97968" d="M30627 14590l2308 0 0 6520 -2308 0 0 -6520zm2308 32628l-2308 0 0 -6520 2308 0 0 6520zm15160 -17468l0 2308 -6520 0 0 -2308 6520 0zm-32628 2308l0 -2308 6520 0 0 2308 -6520 0z"/>
   <path fill="#7688A1" fill-rule="nonzero" d="M31781 7368c6499,0 12383,2634 16642,6893 4260,4259 6895,10144 6895,16643 0,6499 -2635,12384 -6895,16642 -4259,4260 -10143,6895 -16642,6895 -6499,0 -12384,-2635 -16643,-6895 -4259,-4259 -6893,-10143 -6893,-16642 0,-6499 2634,-12384 6893,-16643 4259,-4259 10144,-6893 16643,-6893zm25535 47176c2760,0 5260,1119 7070,2929 1809,1809 2929,4309 2929,7070 0,2760 -1120,5261 -2929,7070 -1810,1809 -4310,2929 -7070,2929 -2755,0 -5254,-1120 -7065,-2929l-5 -5c-1810,-1811 -2929,-4311 -2929,-7065 0,-2755 1119,-5254 2929,-7065l5 -5c1811,-1810 4310,-2929 7065,-2929zm5255 4743c-1344,-1344 -3203,-2177 -5255,-2177 -2056,0 -3914,831 -5256,2172l-5 5c-1341,1342 -2171,3200 -2171,5256 0,2055 830,3914 2171,5255l5 5c1342,1341 3200,2172 5256,2172 2052,0 3911,-832 5255,-2177 1344,-1344 2177,-3203 2177,-5255 0,-2053 -833,-3911 -2177,-5256zm-29636 -44528c4067,279 7730,2020 10449,4694 2981,2932 4825,6981 4825,11451 0,4470 -1844,8519 -4825,11451 -2719,2674 -6382,4415 -10449,4694l0 -3432c3140,-270 5958,-1631 8056,-3695 2086,-2052 3464,-4802 3743,-7864l3361 0 0 -2308 -3361 0c-279,-3062 -1657,-5812 -3743,-7864 -2098,-2064 -4916,-3425 -8056,-3695l0 -3432zm-2308 32290c-4067,-279 -7730,-2020 -10449,-4694 -2981,-2932 -4825,-6981 -4825,-11451 0,-4470 1844,-8519 4825,-11451 2719,-2674 6382,-4415 10449,-4694l0 3432c-3140,270 -5958,1631 -8056,3695 -2086,2052 -3464,4802 -3743,7864l-3361 0 0 2308 3361 0c279,3062 1657,5812 3743,7864 2098,2064 4916,3425 8056,3695l0 3432zm15377 -30368c-3639,-3639 -8668,-5891 -14223,-5891 -5554,0 -10583,2252 -14223,5891 -3639,3640 -5891,8669 -5891,14223 0,5555 2252,10584 5891,14223 3640,3640 8669,5891 14223,5891 5555,0 10584,-2251 14223,-5891 3640,-3639 5891,-8668 5891,-14223 0,-5554 -2251,-10583 -5891,-14223z"/>
   <path fill="#FEFEFE" d="M29462 31294c89,592 400,1152 918,1540 517,387 1142,528 1735,443 592,-85 1153,-396 1540,-914 388,-517 529,-1143 443,-1735 -84,-592 -396,-1153 -913,-1540 -517,-387 -1143,-528 -1735,-444 -591,82 -1152,395 -1540,914 -389,519 -532,1145 -448,1736zm25618 33752c89,592 400,1153 917,1540 517,388 1143,529 1735,444 593,-85 1153,-396 1540,-914 387,-517 529,-1143 444,-1735 -82,-591 -394,-1151 -914,-1540 -519,-389 -1145,-532 -1736,-448 -590,86 -1150,399 -1539,918 -389,519 -531,1144 -447,1735zm-751 3768c-1132,-848 -1814,-2075 -2000,-3373l3 -4c-186,-1297 122,-2665 967,-3795 846,-1128 2072,-1809 3370,-1995l7 -1c1298,-186 2666,122 3795,967 1129,846 1809,2072 1996,3370l4 3c186,1297 -124,2667 -971,3799 -848,1132 -2075,1813 -3373,1999 -1297,187 -2667,-122 -3798,-970zm-25618 -33753c-1132,-847 -1813,-2075 -2000,-3373l4 -4c-187,-1297 121,-2665 967,-3794 845,-1129 2072,-1810 3369,-1996l3 -4c1298,-186 2668,123 3799,970 1132,848 1814,2075 2000,3373 186,1298 -123,2667 -970,3799 -849,1132 -2075,1813 -3373,1999 -1298,187 -2667,-122 -3799,-970z"/>
  </g>
 </g>
</svg>
