<?xml version="1.0" encoding="UTF-8"?>
<!DOCTYPE svg PUBLIC "-//W3C//DTD SVG 1.1//EN" "http://www.w3.org/Graphics/SVG/1.1/DTD/svg11.dtd">
<!-- Creator: CorelDRAW X8 -->
<svg xmlns="http://www.w3.org/2000/svg" xml:space="preserve" width="1001px" height="565px" version="1.1" shape-rendering="geometricPrecision" text-rendering="geometricPrecision" image-rendering="optimizeQuality" fill-rule="evenodd" clip-rule="evenodd"
viewBox="0 0 109526 61764"
 xmlns:xlink="http://www.w3.org/1999/xlink">
 <g id="interface-icon-jump-to-galaxy">
  <metadata id="CorelCorpID_0Corel-Layer"/>
  <g id="interface-icon-jump-to-galaxy-body">
   <path fill="#FEFEFE" d="M39828 56753c379,0 684,287 684,642 0,354 -305,641 -684,641 -378,0 -684,-287 -684,-641 0,-355 306,-642 684,-642z"/>
   <path fill="#FEFEFE" d="M62637 52769c379,0 686,287 686,643 0,355 -307,642 -686,642 -378,0 -685,-287 -685,-642 0,-356 307,-643 685,-643z"/>
   <path fill="#FEFEFE" d="M19234 50713c457,0 827,347 827,775 0,428 -370,776 -827,776 -457,0 -827,-348 -827,-776 0,-428 370,-775 827,-775z"/>
   <path fill="#FEFEFE" d="M21473 41043c361,0 654,274 654,612 0,339 -293,613 -654,613 -360,0 -653,-274 -653,-613 0,-338 293,-612 653,-612z"/>
   <path fill="#FEFEFE" d="M33389 38248c361,0 653,274 653,612 0,339 -292,613 -653,613 -360,0 -653,-274 -653,-613 0,-338 293,-612 653,-612z"/>
   <path fill="#FEFEFE" d="M43461 40877c402,0 726,305 726,681 0,376 -324,681 -726,681 -401,0 -726,-305 -726,-681 0,-376 325,-681 726,-681z"/>
   <path fill="#FEFEFE" d="M11138 27518c361,0 653,274 653,613 0,337 -292,612 -653,612 -360,0 -653,-275 -653,-612 0,-339 293,-613 653,-613z"/>
   <path fill="#FEFEFE" d="M2458 28815c365,-116 558,-552 396,-870 -163,-323 -283,-275 -412,-260 11,297 17,596 17,897l-1 233z"/>
   <path fill="#FEFEFE" d="M87545 45247c250,0 453,203 453,453 0,251 -203,453 -453,453 -250,0 -453,-202 -453,-453 0,-250 203,-453 453,-453z"/>
   <path fill="#FEFEFE" d="M27961 37056c322,0 583,262 583,583 0,323 -261,584 -583,584 -322,0 -584,-261 -584,-584 0,-321 262,-583 584,-583z"/>
   <path fill="#FEFEFE" d="M50419 57520c457,0 827,346 827,775 0,428 -370,776 -827,776 -458,0 -828,-348 -828,-776 0,-429 370,-775 828,-775z"/>
   <path fill="#FEFEFE" d="M105474 23022c443,0 801,359 801,802 0,443 -358,802 -801,802 -443,0 -802,-359 -802,-802 0,-443 359,-802 802,-802z"/>
   <path fill="#0B3B53" d="M105445 36425c-742,-417 -3498,-262 -4370,39 -85,413 -8418,4209 -783,3009 410,-65 8578,-1982 5947,-2429 -697,-118 8,-169 -794,-619zm-77484 631c322,0 583,261 583,584 0,322 -261,583 -583,583 -322,0 -584,-261 -584,-583 0,-323 262,-584 584,-584zm-6488 3987c361,0 654,274 654,612 0,338 -293,613 -654,613 -360,0 -652,-275 -652,-613 0,-338 292,-612 652,-612zm74882 -12384c15,15 1299,810 1435,344 773,-2644 -452,-893 -3185,-1990 -944,-379 -3008,-845 -2112,952 310,623 3063,312 3595,939l267 -245zm-83166 -517c903,-565 295,-2451 1797,-2322 0,-888 -1099,-1325 -2111,-205 -1444,1599 -1425,286 -1305,2056 -116,-95 -266,-153 -432,-153 -130,0 -250,35 -352,96 1405,-2008 3305,-3678 4140,-2795 4168,4410 1470,-1466 391,-2316 -888,-698 -2584,1094 -3445,1296 -5500,1298 -1341,-4090 -1222,-4467 822,-2584 1944,-2434 3322,-2540 -139,125 -263,200 -364,192 0,892 2654,1020 -733,2123 -1380,450 -301,1920 -2316,2630 -884,311 -2225,2715 -553,1568 1538,-1056 2022,-218 3030,-2011 762,-1355 4136,-197 5219,-3178 615,-1692 -2166,202 -435,-1362 1203,-1086 0,-803 -982,-1157 2766,-2135 2884,-1045 5471,-2040 6366,-2449 2804,-658 6552,-252 1409,153 1725,-58 1536,-404 226,-25 486,-79 781,-172 794,-250 1932,-260 3008,-286 -1470,1425 -5635,1679 -6986,2643 -1588,1134 -2285,-1892 -3189,970 -600,1898 -3704,315 -2657,5439 642,3141 -2361,5921 3721,11025 1962,1647 4425,2877 5273,4202 371,579 848,1220 1401,1839 -281,237 -368,488 -29,714 209,140 610,482 975,349 29,-11 58,-19 86,-25 1300,1164 2843,2016 4347,1792 1863,-277 -6620,-6341 525,-3110 2300,1041 6022,320 5869,2170 -148,1782 -6839,-1971 -2946,2162 636,676 6412,2924 8196,2924 1782,0 8403,2498 7086,183 1277,-232 140,-1863 -875,-1863 -108,0 -413,-8 -802,-8l-237 -216c-3381,-3044 -9460,-411 -8886,-3793 335,-1971 7613,1060 9490,288 2630,-1083 8365,-13 11895,-1465 1536,-632 3201,1585 9482,-1776 2973,-1591 12641,-1806 15021,-3310 1771,-1120 5031,206 4381,-3046 -602,-3013 -9992,1891 -13188,2068 -5530,308 -3033,555 963,-2492 3469,-2647 5624,-5626 4654,-10386 -1430,-7025 -6411,-4464 -6228,-8750 90,-2109 -2539,-82 -1057,2004 981,1381 -145,1130 2751,3887 287,273 588,686 860,1170 -1120,-921 -3404,-3694 -3242,-2383 269,2179 -2325,-21 -2496,-960 -519,-2839 -2599,-1795 -4008,-3045 -4004,-3548 -3972,-1094 -5866,-1825 -2887,-1114 -3043,1245 -5353,458l-166 152c123,53 243,109 360,166 -3304,-641 -6900,-994 -10662,-996 -9,-2 -16,-2 -19,0 -990,0 -1968,25 -2932,73 -576,-184 -1168,-364 -1788,-339 -1259,50 -3102,-785 -6033,-424 -1289,160 -7449,1367 -7436,1394 78,157 136,307 179,450 -1461,27 -3532,-705 -3959,1168 -514,-23 -882,69 -1105,204 -676,-478 -1513,-938 -1666,-1046 -23,-16 4381,-1488 5704,-1488 1187,0 6410,-1179 6035,-2282 182,-28 345,-50 485,-61 240,-20 597,-293 772,-435 -41,-354 -960,-374 -2039,-406 -708,-1082 1963,-317 3345,-630 2066,-470 3303,-422 4109,-165 -1216,-62 -2661,107 -2786,372 -505,1070 684,-553 507,937 -12,98 7,129 104,201 407,305 1222,470 1364,-370 115,-672 1447,1342 2308,-76 398,432 739,740 1642,445 3790,-1238 4690,875 5359,739 2627,-535 4222,-4126 8878,-1919 5423,2571 1292,-3583 7492,-588 1715,828 3827,-2165 4865,-150 1130,2198 1578,1737 2147,2807 4581,-3378 1325,80 4662,2443 2508,1776 4712,5988 5315,6315 3413,1852 3892,4195 4921,4459 1984,-1660 1497,-4784 3252,-3534 1853,1320 3289,322 4070,1149 65,69 131,136 197,200 -184,697 -1153,843 -1765,2211 -100,221 -3469,928 -729,1838 139,420 4097,1316 1432,-961 -830,-709 1868,-625 1868,-1696 0,-295 41,-498 111,-640 880,629 1489,904 1166,1778 -1024,2770 1352,975 1283,2586 -13,291 -964,799 -2171,1304 -50,537 -248,1005 -584,1421l-2 -31c-22,-279 -948,-251 -1219,-476l-90 -52c-245,-425 -74,-862 255,-1191 179,-179 844,-686 254,-832 -198,-48 -683,237 -1280,237 -542,0 -373,126 -398,330 -104,-94 -267,-209 -510,-352 -157,-93 -39,-1424 -1270,-1036 -6,2 -559,701 -834,907 -619,464 249,1569 1034,1633 182,104 299,119 377,81 14,173 11,178 524,557 485,357 472,466 1204,610 276,54 979,199 1462,108 -596,495 -1426,906 -2465,1266 -556,192 174,3213 -1079,4705 -445,53 -971,307 -1317,755 -165,34 -343,56 -535,63 -6858,280 -4217,1257 -9591,2234 -3877,705 -3731,2952 -6866,3111 -17472,890 -2098,1857 -3822,6027 -1886,4562 -8270,-1207 -10782,1960 -880,1108 -7579,-1080 -8958,165 -1371,1239 -5104,348 -6529,-832 -1092,-906 -2550,-1030 -3681,-789 46,-70 111,-192 185,-443 166,-563 -332,-753 -832,-637 -92,445 -554,899 -227,1368 -533,251 -875,592 -875,931 -476,0 -1115,-70 -1683,-261 229,29 503,46 830,46 527,0 1554,-178 956,-783 -34,-35 -147,-210 -165,-242 -764,-1342 -1083,23 -2450,-205 -4,-1 -238,247 -239,521 -192,-237 -297,-529 -266,-886 212,-2474 -9062,-2855 -9797,-1874 -474,632 -1498,276 -2400,-312 110,64 232,132 368,206 280,151 1661,307 1252,-501 -94,-186 -132,-229 3,-396 298,-370 -714,-1073 -1011,-441 -184,391 -1572,183 -1375,557 -283,-243 -521,-487 -682,-694 -1140,-1468 -5780,-3153 -4654,-1616 3641,4973 -2818,3137 -5072,-596 -2737,-4533 -5349,-1891 -7772,-7780 -332,-805 318,-2426 1305,-3949 -3,25 -5,50 -5,77 0,337 293,612 653,612 190,0 362,-76 481,-198l6 120c32,760 -2940,3471 693,2934 745,-110 667,-2096 1149,-2730 100,-132 -317,-703 -278,-727zm68340 -6483c68,76 136,150 204,219 39,129 123,223 268,256 597,525 1140,671 1464,-92 216,-508 288,165 573,698 -507,170 -1240,133 -2261,-211 -66,-293 -148,-583 -248,-870zm-24560 -18808c-920,-286 -2492,-303 -3461,-742 -725,-328 -4634,-398 -3198,763 9,7 2455,612 2907,808 500,217 3936,587 4191,61 304,-627 -192,-813 -439,-890zm3491 313c-1864,-1346 -3263,1069 -1370,604 437,-106 3947,1154 3015,-172 -177,-254 -992,151 -1500,-395 -31,-34 -117,-18 -145,-37zm-38528 34912c2776,996 5457,-1870 509,-2876 -496,-101 -2487,-1934 -4389,-2593 -2402,-831 -657,1434 -431,1574 2463,1534 1265,2807 4311,3895zm-6010 -8005c897,-275 -161,-1807 -758,-2302 -1119,-928 -105,-2310 -1411,-474 -251,353 126,3529 -431,4486 -498,856 733,1193 1439,359 1150,-1357 746,315 1140,-1978l21 -91zm46374 15005c860,320 387,-120 1758,-310 230,-32 751,-1564 -2492,-1163 -3404,420 651,1442 734,1473zm6174 -1600c-373,17 -2440,145 -2210,468 611,861 2161,440 3778,1390 168,99 4535,492 2385,-1315 -446,-375 805,-1882 -2457,-539 -473,196 -1206,-18 -1496,-4zm8772 -34609c-52,-853 -677,-1053 -1411,-931 -463,78 -1740,-174 -1702,1013 24,760 1275,371 1310,666 121,987 1201,1810 1870,1092 425,-455 1798,744 1079,-634 -650,-1247 -621,-630 -950,-924 -44,-40 -195,-275 -196,-282zm7273 10061c63,154 121,309 175,466 -44,38 -91,84 -142,140 -17,-219 -24,-425 -33,-606zm433 1469c51,307 73,605 57,881l-35 -58c-101,-180 -179,-375 -238,-577 42,-37 83,-77 122,-121 34,-37 65,-80 94,-125zm-67831 -7445c1763,50 2258,455 3735,-872 1222,-1098 7381,-1830 7794,-2813 784,-1868 -5508,173 -7008,173 -3439,0 -2356,1217 -6303,1939 -740,136 -5582,1496 -3552,2942 681,486 5343,-1368 5334,-1369zm17542 -8076c2361,-142 2247,-662 5451,-478 20,1 2209,-518 3261,-518 2593,0 1721,-262 4077,553 1122,388 1587,-103 1102,740 6,11 2117,738 2594,-646 145,-422 3096,-480 3969,54 695,426 2626,-824 4572,-302 1226,330 1035,-361 3225,643 922,423 4379,153 1250,-1527 -1110,-596 745,-1529 -3390,-1106 -2506,257 -5252,-1708 -9490,-897 -2441,467 -6777,165 -10057,646 -1239,182 -16744,3447 -6564,2838z"/>
   <path fill="#025363" d="M49698 9672c-576,-184 -1168,-364 -1788,-339 -1259,50 -3102,-785 -6033,-424 -1289,160 -7449,1367 -7436,1394 78,157 136,307 179,450 99,-3 194,-8 286,-17 194,-21 2639,-189 2306,880 -22,66 -51,128 -91,184 3717,-1151 7991,-1902 12577,-2128zm-14345 2721c-366,29 -762,40 -1167,50 -1470,1425 -5635,1679 -6986,2643 -1588,1134 -2285,-1892 -3189,970 -600,1898 -3704,315 -2657,5439 642,3141 -2361,5921 3721,11025 1962,1647 4425,2877 5273,4202 371,579 848,1220 1401,1839 599,-506 2080,-945 2171,-933 157,22 1015,1879 830,2098 -765,907 -1285,-268 -1969,-127 1300,1164 2843,2016 4347,1792 1863,-277 -6620,-6341 525,-3110 2300,1041 6022,320 5869,2170 -148,1782 -6839,-1971 -2946,2162 636,676 6412,2924 8196,2924 1782,0 8403,2498 7086,183 -478,86 -1291,-22 -2575,-485l-366 -98c-188,37 -805,-284 -1021,-406 -1423,-805 934,-887 2285,-882l-237 -216c-3381,-3044 -9460,-411 -8886,-3793 335,-1971 7613,1060 9490,288 2630,-1083 8365,-13 11895,-1465 1536,-632 3201,1585 9482,-1776 2973,-1591 12641,-1806 15021,-3310 1771,-1120 5031,206 4381,-3046 -602,-3013 -9992,1891 -13188,2068 -5530,308 -3033,555 963,-2492 3469,-2647 5624,-5626 4654,-10386 -1430,-7025 -6411,-4464 -6228,-8750 90,-2109 -2539,-82 -1057,2004 981,1381 -145,1130 2751,3887 287,273 588,686 860,1170 111,91 211,164 295,214 98,56 119,318 138,682 63,154 121,309 175,466 594,-518 592,475 258,1003 51,307 73,605 57,881 564,907 2875,2951 -440,1971 -236,-70 -402,-276 -527,-509 -507,170 -1240,133 -2261,-211 120,534 183,1077 183,1627 0,8039 -13131,14556 -29330,14556 -16197,0 -29329,-6517 -29329,-14556 0,-4833 4746,-9115 12052,-11763zm17296 -2794c-9,-2 -16,-2 -19,0l19 0zm-9188 31278c402,0 726,305 726,681 0,376 -324,681 -726,681 -401,0 -726,-305 -726,-681 0,-376 325,-681 726,-681z"/>
   <g>
    <path fill="#177798" d="M99898 26324c-245,-425 -74,-862 255,-1191 179,-179 844,-686 254,-832 -198,-48 -683,237 -1280,237 -542,0 -373,126 -398,330 566,513 -705,364 -847,465 -213,152 -138,663 -356,768 14,173 11,178 524,557 485,357 472,466 1204,610 449,88 2019,417 1953,-416 -22,-279 -948,-251 -1219,-476l-90 -52zm-42929 -23473c-920,-286 -2492,-303 -3461,-742 -725,-328 -4634,-398 -3198,763 9,7 2455,612 2907,808 500,217 3936,587 4191,61 304,-627 -192,-813 -439,-890zm3491 313c-1864,-1346 -3263,1069 -1370,604 437,-106 3947,1154 3015,-172 -177,-254 -992,151 -1500,-395 -31,-34 -117,-18 -145,-37zm-38528 34912c2776,996 5457,-1870 509,-2876 -496,-101 -2487,-1934 -4389,-2593 -2402,-831 -657,1434 -431,1574 2463,1534 1265,2807 4311,3895zm-6010 -8005c897,-275 -161,-1807 -758,-2302 -1119,-928 -105,-2310 -1411,-474 -251,353 126,3529 -431,4486 -498,856 733,1193 1439,359 1150,-1357 746,315 1140,-1978l21 -91zm27358 15949c-764,-1342 -1083,23 -2450,-205 -10,-2 -1155,1230 1659,1230 527,0 1554,-178 956,-783 -34,-35 -147,-210 -165,-242zm10003 -785c4720,1701 3095,-1378 1700,-1378 -482,0 -4919,-162 -3087,874 216,122 833,443 1021,406l366 98zm9013 -159c860,320 387,-120 1758,-310 230,-32 751,-1564 -2492,-1163 -3404,420 651,1442 734,1473zm6174 -1600c-373,17 -2440,145 -2210,468 611,861 2161,440 3778,1390 168,99 4535,492 2385,-1315 -446,-375 805,-1882 -2457,-539 -473,196 -1206,-18 -1496,-4zm14470 -2049c-1140,-266 -3247,1270 -5518,1181 -701,-30 -2832,1797 194,2429l15 3 16 3 16 4 4 1 12 2 16 3 81 15 16 3 34 6 6 2 10 1 17 3 86 15 18 2 17 3 18 3 9 1 8 1 19 3 17 3 19 3 35 5 19 2 18 3 19 3 19 2 11 2 7 1 19 2 19 3 19 2 19 3 19 2 19 2 20 3 20 2 19 2 14 2 6 0 19 3 20 2 20 2 81 8 20 3 21 1 18 2 3 1 21 2 41 3 22 2 21 2 42 4 22 2 21 1 22 2 21 2 21 1 5 0 15 0 19 0 11 0 8 0 19 0 16 -1 3 0 18 -2 17 -2 3 0 32 -4 7 -2 10 -1 16 -3 11 -2 5 -2 31 -8 0 0 16 -4 15 -5 3 -1 11 -4 15 -6 7 -3 6 -3 14 -5 11 -6 3 -1 13 -7 14 -6 0 -1 13 -7 12 -7 5 -3 8 -5 11 -8 8 -5 5 -3 12 -8 10 -8 1 -1 12 -9 11 -9 3 -2 9 -7 10 -10 6 -4 5 -6 11 -9 9 -8 2 -2 11 -10 10 -11 1 -1 10 -10 10 -11 3 -3 7 -7 11 -12 6 -6 4 -4 10 -12 9 -10 1 -1 10 -12 10 -12 1 -1 9 -10 10 -12 4 -5 6 -7 10 -12 7 -9 2 -3 11 -13 10 -12 0 0 10 -12 10 -13 3 -3 7 -9 10 -13 6 -7 5 -5 10 -13 9 -10 2 -2 3 -5 4 -4 4 -5 4 -4 4 -5 3 -4 1 -1 4 -5 4 -4 4 -5 4 -5 4 -4 4 -5 0 0 4 -5 4 -4 4 -5 4 -4 4 -5 4 -5 1 -1 4 -4 4 -4 4 -5 4 -4 4 -5 5 -5 1 -1 3 -3 4 -5 5 -4 4 -5 5 -4 4 -5 2 -2 3 -3 4 -4 4 -5 5 -5 5 -4 4 -4 4 -3 1 -2 4 -4 5 -5 5 -4 4 -5 5 -4 4 -4 1 0 5 -5 4 -5 6 -4 4 -4 5 -5 5 -4 1 -1 4 -3 5 -5 5 -4 5 -4 6 -5 5 -4 1 -1 4 -3 5 -5 11 -8 5 -4 5 -4 3 -2 3 -3 5 -4 6 -4 20 -15 11 -7 11 -8 11 -7 3 -3 8 -5 22 -14 7 -5 5 -2 12 -8 11 -7 12 -6 0 0 12 -7 13 -6 12 -7 4 -2 9 -5 13 -6 12 -6 9 -4 5 -2 13 -6 14 -6 13 -6 0 0 15 -6 28 -11 4 -1 25 -10 15 -5 9 -3 6 -2 15 -5 16 -5 14 -4 2 -1 16 -4 16 -5 16 -4 4 -1 13 -3 17 -4 17 -4 10 -2 7 -1 36 -7 16 -3 2 -1 18 -3 18 -3 19 -3 5 0 34 -5 19 -3 11 -1 9 -1 20 -2 20 -2 19 -1 2 0 21 -2 42 -2 5 0 17 -1 22 -1 22 -1 13 0 10 0 23 0 23 0 20 0 3 0 24 0 24 0 8 0 8 1 8 0 5 0 3 0 8 0 8 1 8 0 9 1 24 1 9 0 8 0 6 1 3 0 9 0 8 1 8 1 9 0 9 1 8 0 9 1 9 1 8 0 7 1 2 0 9 1 9 0 8 1 9 1 10 1 8 1 9 1 9 0 10 2 7 0 2 0 9 1 9 1 10 1 18 3 9 1 10 1 9 1 10 1 8 1 1 0 10 2 9 1 10 1 9 1 10 1 10 2 9 1 11 2 9 1 10 1 0 1 10 1 10 1 10 2 10 2 10 1 10 2 10 1 11 2 10 2 10 1 2 1 1 0 1 0 3 1 5 1 3 2 2 0 7 2 8 2 1 0 8 2 10 3 6 2 6 1 13 4 11 3 2 1 15 4 16 4 3 1 13 4 18 4 10 3 8 3 20 5 19 5 1 0 22 6 22 6 6 2 17 4 24 7 16 4 9 3 26 7 26 7 0 0 27 7 28 8 10 2 18 6 30 7 22 6 8 2 30 9 32 8 3 1 29 8 32 8 16 4 17 5 34 9 29 8 6 1 35 9 35 9 7 3 29 7 36 9 21 6 16 4 37 10 36 9 2 0 39 10 38 11 11 2 28 7 39 10 26 7 14 3 40 11 40 10 1 0 40 10 41 11 16 4 25 6 41 10 31 8 10 2 42 11 42 10 5 1 37 10 42 10 20 5 22 5 43 11 35 8 7 2 6 1 6 2 6 1 6 2 6 1 6 2 7 2 6 1 6 1 6 2 6 1 6 1 6 2 6 2 6 1 3 1 3 0 6 2 6 2 7 1 6 1 6 2 6 1 6 1 6 2 6 1 6 2 6 1 7 1 5 2 6 2 6 1 6 1 1 0 23 6 22 5 22 5 23 6 9 2 13 3 22 5 23 5 22 5 20 5 3 1 22 5 22 5 22 5 23 5 7 1 15 4 22 5 22 5 22 5 18 3 4 1 22 5 22 5 21 5 22 5 6 1 16 3 21 5 21 4 22 5 15 3 6 2 21 4 21 5 21 4 21 4 4 1 17 3 21 5 20 4 21 4 13 3 7 1 21 4 20 4 20 4 20 4 2 1 18 3 19 4 20 4 19 3 11 2 9 2 19 3 19 4 19 3 19 3 0 1 18 3 19 3 18 3 18 3 9 2 9 1 18 4 17 2 18 3 17 3 0 0 18 2 16 3 34 5 7 1 9 1 16 3 24 3 22 3 22 3 22 3 22 2 2 0 18 3 21 2 20 2 4 0 16 2 19 2 18 1 6 1 13 0 17 1 17 1 7 1 10 0 16 0 16 1 8 0 7 0 15 0 14 -1 8 0 5 0 13 -1 12 -1 9 0 3 -1 11 -1 11 -2 7 -2 2 0 24 -6 3 -1 20 -9 14 -11 1 -1 7 -13 0 -2c1,-5 2,-9 1,-14l0 -3 -6 -17 0 -2c-6,-12 -16,-26 -30,-41l-5 -5 -3 -4 -9 -8 -10 -9 -7 -7 -3 -2 -12 -10 -12 -10 -10 -8 -3 -3 -14 -10 -15 -11 -14 -10 -2 -1 -17 -12 -17 -12 -19 -12 -6 -4 -6 -4 -6 -4 -7 -4 -6 -4 -6 -5 -6 -4 -6 -3 -7 -5 -18 -12 -6 -4 -18 -12 -6 -4 -6 -4 -6 -4 -6 -3 -5 -5 -6 -3 -6 -5 -6 -3 -3 -2 -3 -3 -6 -3 -6 -4 -6 -4 -5 -4 -6 -4 -5 -3 -78 -54 -6 -4 -5 -4 -10 -7 -1 0 -5 -4 -73 -52 -38 -27 -7 -6 -1 0 -7 -5 -7 -6 -7 -5 -8 -5 -14 -11 -7 -5 -7 -6 -7 -5 -7 -5 -7 -6 -7 -5 -7 -5 -7 -5 -7 -6 -6 -5 -2 -1 -5 -4 -7 -5 -7 -5 -6 -5 -7 -5 -6 -5 -7 -6 -6 -4 -6 -6 -7 -5 -6 -5 -7 -5 -6 -5 -6 -5 -6 -5 -6 -5 -2 -1 -5 -4 -5 -4 -6 -5 -7 -5 -5 -5 -6 -5 -6 -5 -6 -5 -5 -5 -6 -4 -12 -10 -5 -5 -6 -5 -6 -4 -5 -5 -2 -1 -3 -3 -5 -5 -6 -5 -6 -5 -30 -27 -28 -25 -5 -4 -1 -1 -62 -60 -7 -7 -2 -2 -20 -21 -43 -45 0 0 -53 -63 -1 -1 -44 -59 -2 -2 -33 -54 -3 -4c-29,-52 -46,-99 -53,-143l-1 -3 -1 -7 -2 -36 0 -4 4 -37 1 -6 9 -32 2 -4c5,-13 11,-25 18,-37l1 -1 23 -32 1 -2c9,-10 19,-21 30,-31l1 -1 38 -30 34 -23 20 -12 6 -3 17 -9 14 -8 3 -1 37 -17 14 -6 5 -3 1 0 39 -16 13 -4 7 -3 39 -13 4 -2 14 -4 9 -3 23 -7 23 -7 12 -3 12 -4 24 -6 16 -4 16 -4 4 -2 12 -2 16 -4 17 -4 16 -4 14 -3 3 -1 17 -3 17 -4 17 -4 18 -3 7 -2 10 -2 18 -4 18 -3 18 -3 18 -4 1 0 18 -3 18 -3 19 -3 18 -3 11 -2 8 -2 19 -3 19 -3 19 -3 20 -3 3 0 16 -3 20 -3 19 -3 20 -3 16 -2 4 -1 20 -3 20 -3 20 -2 21 -3 7 -2 13 -1 20 -3 21 -3 20 -3 20 -2 1 0 21 -3 21 -3 21 -2 20 -3 12 -2 9 -1 22 -3 21 -3 21 -2 21 -3 3 0 18 -3 22 -2 21 -3 21 -3 16 -2 6 0 21 -3 22 -3 22 -2 21 -3 7 -2 14 -1 22 -3 22 -2 21 -3 20 -3 2 0 22 -3 21 -3 34 -4 21 -3 12 -2 34 -4 33 -5 20 -2 14 -3 33 -4 33 -5 19 -3 14 -2 33 -5 33 -5 18 -2 15 -3 33 -5 33 -5 17 -3 16 -3 32 -5 32 -6 15 -3 17 -3 4 0 60 -11 14 -3 93 -19 18 -3 30 -7 30 -6 12 -3 19 -5 59 -14 11 -3 18 -5 58 -15 9 -2 75 -22 8 -3 80 -26 19 -7 25 -9 26 -10 6 -2 67 -27 5 -3 2 -1 62 -28 4 -2 61 -32 3 -3 58 -34 2 -2 53 -37 2 -2 0 0 48 -40 1 -1c16,-13 30,-29 44,-43l0 -1 1 0 37 -46c18,-22 25,-45 24,-67l0 -4 0 -1 0 -1c-1,-16 -6,-31 -15,-46l-1 -1 -1 -1 -4 -7 -9 -11 -1 -2 -1 -2 -4 -4 -6 -7 -6 -6 -7 -6 -15 -13 -7 -6 -6 -4 -3 -3 -9 -6 -9 -6 -9 -6 -3 -2 -7 -5 -10 -6 -11 -6 -10 -6 -1 0 -11 -7 -12 -6 -12 -6 -7 -3 -6 -3 -12 -6 -26 -11 -2 -1 -2 -2 -11 -4 -15 -6 -14 -7 -12 -5 -3 0 -15 -7 -16 -6 -16 -6 -8 -3 -8 -3 -17 -6 -16 -6 -17 -5 -2 -1 -16 -5 -17 -6 -18 -6 -14 -5 -4 -1 -19 -6 -19 -6 -19 -6 -8 -2 -11 -4 -20 -5 -20 -6 -20 -6 -1 0 -19 -6 -21 -5 -21 -6 -15 -4 -6 -1 -21 -6 -22 -6 -22 -6 -8 -2 -14 -3 -22 -6 -23 -6c-1190,-294 -3278,-517 -3706,-618zm1094 2131c4,-13 11,-25 18,-37l-18 37zm-49128 -32822c-1462,155 -3789,-814 -4245,1185 -1987,-89 -1791,1535 517,808 1868,-589 5637,154 6034,-1113 333,-1069 -2112,-901 -2306,-880zm9220 -3614c407,305 1222,470 1364,-370 123,-720 1643,1644 2486,-434 398,-982 -4232,-818 -4461,-334 -505,1070 684,-553 507,937 -12,98 7,129 104,201zm33116 1745c-52,-853 -677,-1053 -1411,-931 -463,78 -1740,-174 -1702,1013 24,760 1275,371 1310,666 121,987 1201,1810 1870,1092 425,-455 1798,744 1079,-634 -650,-1247 -621,-630 -950,-924 -44,-40 -195,-275 -196,-282z"/>
   </g>
   <path fill="#2A526B" d="M57738 50043c-737,2 -5055,-358 -5877,-918 -599,-409 495,-910 -1657,-910 -460,0 -2937,-330 -2997,-259 -828,977 294,1403 -1895,997 -620,-115 -2242,-68 -1203,1021 1512,1584 4852,1686 6914,1883 373,35 1989,778 2992,867 1270,113 1537,315 2985,151 1630,-184 1382,-735 3058,-386 661,137 1307,650 1901,1014 -4,-30 -7,-60 -7,-91 0,-355 307,-643 685,-643 379,0 686,288 686,643 0,179 -79,342 -206,458 284,-55 545,-270 777,-737 240,-482 899,487 1881,38 377,-172 1023,-130 -330,-921 -946,-553 -4571,-1859 -5693,-1859 -209,0 -1306,-351 -2014,-348zm29807 -4795c250,0 453,202 453,452 0,251 -203,453 -453,453 -250,0 -453,-202 -453,-453 0,-250 203,-452 453,-452zm-70073 -27358c750,104 836,66 173,735 -313,315 -682,1278 -1259,373 -83,-131 104,-573 433,-675 284,-88 319,-479 653,-433zm33180 31290c-596,71 997,-295 1053,389 108,1330 -2323,216 -2186,79 23,-23 844,-434 1133,-468zm45189 -41942c-196,212 -348,1128 -502,1558 -485,1368 4520,1893 2461,-273 -139,-145 -1491,-1790 -1959,-1285zm6001 6721c642,-1727 -54,-1228 2062,-2130 1115,-476 1066,-1265 -604,-1265 -764,0 -1295,338 -1946,462 94,58 203,130 329,220 0,1 410,681 397,850 -555,145 -1354,-121 -1630,-544 -332,-507 -1221,-451 -1674,-641 -454,355 -440,1226 990,2422 900,754 -600,622 1541,2245 788,598 -749,1118 -679,3175 33,968 -1107,963 -1795,2500 -100,221 -3469,928 -729,1838 139,420 4097,1316 1432,-961 -830,-709 1868,-625 1868,-1696 0,-2037 1939,283 1939,-2672 0,-1840 2147,-2038 748,-4019 -377,-535 -1336,1392 -1853,89 -61,-151 -297,-140 -396,127zm-5487 14700c15,15 1299,810 1435,344 773,-2644 -452,-893 -3185,-1990 -944,-379 -3008,-845 -2112,952 310,623 3063,312 3595,939l267 -245zm-1029 7398c189,-298 1212,35 2543,-1357 619,-648 3716,-128 2547,-834 -839,-507 -1307,515 -2601,-405 -513,-366 -1964,76 -2273,1281 -158,614 -3234,1384 -345,1509 168,7 93,-137 129,-194zm-17772 8967c-38,407 485,764 1746,1323 991,439 5395,-935 7833,-22 1892,707 573,-746 1868,-2399 1882,-2402 3033,128 6152,-952 718,-249 2895,-4217 -2856,-2726 -1989,515 -1820,-1943 -4216,1249 -166,222 -710,398 -1435,548 483,120 818,251 835,390 2,25 -5,50 -24,76 -254,345 -971,469 -1685,562 -462,61 -922,109 -1256,197 -524,138 -733,373 -137,908 108,97 242,204 406,322 108,78 229,160 363,248 405,264 177,302 -319,232 -344,-49 -818,-150 -1298,-264 -65,-15 -130,-30 -195,-46 -905,-219 -1773,-463 -1780,-464 -219,-36 -412,-55 -582,-59 -515,-12 -826,109 -1044,273 -118,88 -209,189 -291,288 -225,268 -385,526 -834,490 -464,-37 -857,-92 -1189,-161l-62 -13zm-14437 -34747c2310,787 2466,-1572 5353,-458 1894,731 1862,-1723 5866,1825 1409,1250 3489,206 4008,3045 171,939 2765,3139 2496,960 -178,-1441 2598,2051 3537,2597 147,85 122,630 172,1288 -36,39 -74,83 -113,132 -1034,1283 -594,-39 -1733,317 -473,148 -1132,1349 -970,1895 -986,-1010 -2050,-2807 -2488,-3141 -1051,-801 -2084,-3101 -4726,-4166 -3160,-1274 -6604,-1823 -9152,-2902 -804,-341 -1527,-855 -2416,-1240l166 -152zm21615 10366c59,202 137,397 238,577 495,874 2983,3031 -405,2029 -777,-230 -790,-1937 -1100,-1207 -324,763 -867,617 -1464,92 64,15 140,17 230,6 360,-44 442,-269 521,-493 143,-171 305,-320 527,-385 533,-157 1055,-264 1453,-619zm-53065 -12085c1040,577 6630,-1161 8447,-1310 240,-20 597,-293 772,-435 -77,-668 -3277,-145 -4780,-765 -789,-324 -5584,542 -7284,463 -1600,-75 -835,2426 804,1752 2675,-1099 2241,407 2041,295zm-21661 14747c1538,-1056 2022,-218 3030,-2011 762,-1355 4136,-197 5219,-3178 615,-1692 -2166,202 -435,-1362 1514,-1367 -784,-566 -1655,-1595 -675,-797 -1976,1871 -2557,1825 0,892 2654,1020 -733,2123 -1380,450 -301,1920 -2316,2630 -884,311 -2225,2715 -553,1568zm3183 4837c903,-565 295,-2451 1797,-2322 0,-888 -1099,-1325 -2111,-205 -1444,1599 -1425,286 -1305,2056 135,112 221,276 221,460 0,159 -65,304 -172,414l6 120c32,760 -2940,3471 693,2934 745,-110 667,-2096 1149,-2730 100,-132 -317,-703 -278,-727zm-3051 17331c-1135,-1490 -4964,-6420 -6443,-2586 -103,265 1128,4675 2252,5140 825,342 2837,1110 3537,36 371,-568 -826,-516 617,-2127 103,-114 112,-364 37,-463zm3927 1499c1052,-1923 71,-1073 -1445,-2921 -597,-728 -1070,1119 -187,2511 637,1006 -2937,4137 1746,5365 581,152 1982,-370 1379,-1741 -135,-307 -1496,-3208 -1493,-3214zm16851 8084c-1101,-471 -4382,-957 -4842,115 -566,1321 3212,1134 3947,983 1,-5 1048,-669 442,-1071l453 -27zm13561 2402c-438,-845 -322,-650 -1303,-692 -258,-11 -1582,2094 -924,2884 1418,1700 3699,-931 2133,-2119l94 -73zm4096 341c-1980,-1187 -1474,-393 -2328,1223 -452,854 3003,2049 2403,-747 -49,-227 171,-328 -75,-476z"/>
   <path fill="#6799B7" d="M29751 42573c298,-370 -714,-1073 -1011,-441 -257,544 -2846,-73 -244,1338 280,151 1661,307 1252,-501 -94,-186 -132,-229 3,-396zm3638 -4325c361,0 653,274 653,612 0,339 -292,613 -653,613 -360,0 -653,-274 -653,-613 0,-338 293,-612 653,-612zm68294 -27002c-1032,-736 -881,-274 -1930,-795 -350,-173 -1220,-657 -1250,94 -27,681 1490,308 1947,1007 276,423 1075,689 1630,544 13,-169 -397,-849 -397,-850zm-3801 14087c167,-119 1913,111 337,-817 -157,-93 -39,-1424 -1270,-1036 -6,2 -559,701 -834,907 -619,464 249,1569 1034,1633 687,392 443,-480 733,-687zm-14603 -4071c590,-174 1165,-286 1575,-740 473,-524 491,-1984 -418,-856 -1034,1283 -594,-39 -1733,317 -636,199 -1607,2296 -472,2157 360,-44 442,-269 521,-493 143,-171 305,-320 527,-385zm-65807 -3372c750,104 836,66 173,735 -313,315 -682,1278 -1259,373 -83,-131 104,-573 433,-675 284,-88 319,-479 653,-433zm33180 31290c-596,71 997,-295 1053,389 108,1330 -2323,216 -2186,79 23,-23 844,-434 1133,-468zm-5424 -2391c-355,-1008 -210,-316 48,-1191 166,-563 -332,-753 -832,-637 -104,504 -683,1019 -54,1555 178,152 492,666 843,327l-5 -54zm-12533 -7165c728,-267 1258,1047 2055,102 185,-219 -673,-2076 -830,-2098 -134,-18 -3264,938 -2200,1647 209,140 610,482 975,349z"/>
   <path fill="#031C33" d="M105445 36425c-742,-417 -3498,-262 -4370,39 -85,413 -8417,4209 -783,3009 410,-65 8578,-1982 5948,-2429 -698,-118 6,-169 -795,-619zm-55026 21094c457,0 827,347 827,776 0,428 -370,775 -827,775 -458,0 -828,-347 -828,-775 0,-429 370,-776 828,-776zm55055 -34497c443,0 802,359 802,802 0,443 -359,802 -802,802 -443,0 -802,-359 -802,-802 0,-443 359,-802 802,-802zm-86240 27691c457,0 827,347 827,775 0,429 -370,776 -827,776 -457,0 -827,-347 -827,-776 0,-428 370,-775 827,-775zm20594 6040c379,0 684,287 684,642 0,354 -305,641 -684,641 -378,0 -684,-287 -684,-641 0,-355 306,-642 684,-642zm17910 -6711c-737,3 -5056,-357 -5876,-917 -599,-409 494,-910 -1658,-910 -460,0 -2937,-330 -2998,-259 -827,977 295,1403 -1894,997 -620,-116 -2242,-68 -1203,1021 1512,1584 4852,1685 6914,1883 373,35 1989,779 2991,867 1271,113 1538,315 2986,150 1630,-183 1383,-734 3058,-385 661,137 1306,650 1901,1014 48,312 333,551 678,551 187,0 357,-70 480,-184 284,-54 545,-269 777,-737 240,-482 899,487 1881,38 377,-172 1023,-130 -329,-921 -946,-554 -4572,-1859 -5693,-1859 -210,0 -1307,-351 -2015,-349zm-9165 7757c-1980,-1187 -1474,-393 -2328,1223 -452,854 3003,2049 2403,-747 -49,-227 171,-328 -75,-476zm34367 -16372c-1140,-266 -3247,1270 -5518,1181 -701,-30 -2832,1797 194,2429l-62 -13c-38,407 485,764 1746,1323 991,439 5395,-935 7833,-23 1892,708 573,-745 1868,-2398 1882,-2402 3033,128 6152,-952 718,-249 2895,-4217 -2856,-2726 -1989,516 -1819,-1943 -4216,1250 -166,221 -710,397 -1435,547l0 0c-1190,-294 -3278,-518 -3706,-618zm2415 3532c1,-4 2,-9 1,-14 1,5 0,10 -1,14zm-5 -36c-6,-12 -16,-26 -30,-41 14,15 24,29 30,41zm2107 -2412c18,-22 25,-45 24,-67 1,22 -7,44 -24,67zm24 -73c-2,-15 -6,-30 -15,-46 8,14 13,29 15,42l0 4zm-78297 -10471c-176,-886 796,-3126 1306,-3913 24,-185 136,-344 296,-440 1405,-2008 3304,-3678 4140,-2795 4168,4410 1470,-1467 391,-2316 -888,-698 -2584,1094 -3445,1296 -1375,325 -2146,232 -2637,-183 -356,-2047 1352,-4085 1415,-4284 821,-2584 1944,-2434 3322,-2540 653,-589 1636,-2290 2193,-1633 179,213 419,346 673,438 2766,-2134 2884,-1045 5471,-2040 6366,-2449 2805,-658 6552,-251 1409,152 1725,-59 1536,-405 -1085,118 -1370,-453 -841,-776 -676,-478 -1513,-937 -1666,-1046 -23,-17 4381,-1488 5704,-1488 1187,0 6410,-1179 6035,-2282 -2169,343 -7003,1781 -7962,1250 200,110 634,-1395 -2041,-296 -1131,465 -1845,-581 -1654,-1250l-98 15c-1012,145 -15451,420 -13871,2563 365,496 -2245,-431 -4438,1983 -1494,1644 -2695,2692 -3696,3403 -4600,5042 -6198,8305 -5814,10148 98,471 709,3475 894,5322 444,4436 -1838,6179 1700,12173 446,719 980,1446 1521,2212 -324,-981 -519,-1833 -475,-1945 1479,-3834 5308,1096 6443,2586 75,100 66,348 -37,463 -1443,1611 -246,1559 -616,2127 -637,975 -2354,432 -3282,68 1520,2553 3788,2873 6223,3009 -1819,-1461 534,-3746 7,-4578 -883,-1392 -410,-3239 187,-2511 1516,1848 2497,998 1445,2921 -3,6 1358,2907 1493,3214 222,505 172,895 -9,1179 1396,194 2767,604 4008,1599 2208,1773 4258,1988 6614,3929 1116,917 5150,1211 5030,1221 -3,-12 -555,-844 -1232,-1950 -844,148 -4449,299 -3895,-993 289,-674 1696,-732 2973,-565 -1629,-2866 -2941,-5921 1291,-2417 1675,1385 868,4948 5149,5274 974,2032 2364,3320 4358,2052 766,-487 1500,-670 2238,-670 115,-921 899,-2087 1091,-2078 981,41 865,-154 1303,691l-94 72c664,505 636,1268 276,1850 1662,553 3506,1311 5852,1140 4033,-294 8185,4439 7586,-2837 -293,-3557 10758,2114 13533,-1747 2493,-3467 7619,226 9481,-400 2989,-1006 225,-1082 3168,-3141 2479,-1735 -8773,-4670 3845,-4625 4339,15 3012,-2246 8474,-3643 2085,-533 6086,-1758 7568,-3877 483,-136 870,-293 1133,-475 2510,-1732 4837,-10808 4082,-11674 -628,-719 -2062,-5086 -2721,-7402 186,-3112 57,-6629 -380,-7911 -828,-2427 -1516,-2286 -2769,-2219 1460,64 1459,805 393,1260 -2116,902 -1419,403 -2062,2129 100,-266 335,-277 396,-126 517,1303 1476,-623 1853,-89 1399,1981 -747,2179 -747,4019 0,2527 -1419,1197 -1829,2032 880,629 1489,904 1166,1778 -1024,2770 1352,975 1283,2586 -13,291 -964,799 -2171,1305 -49,535 -248,1004 -584,1419 8,299 -202,440 -493,495 -595,494 -1426,905 -2465,1265 -556,192 174,3213 -1079,4705 260,-31 492,6 643,113 1294,921 1761,-101 2601,405 1169,707 -1928,188 -2547,834 -1331,1393 -2354,1060 -2543,1359 -36,56 39,200 -129,194 -2890,-126 187,-896 345,-1509 63,-246 173,-459 313,-641 -165,33 -343,56 -535,64 -6858,279 -4217,1256 -9591,2234 -3877,704 -3732,2951 -6866,3110 -17471,890 -2099,1857 -3822,6027 -1886,4562 -8270,-1207 -10783,1960 -878,1108 -7578,-1080 -8957,165 -1371,1239 -5103,348 -6528,-832 -1093,-906 -2551,-1030 -3682,-789 -115,175 -116,30 137,748l5 54c-351,338 -664,-175 -843,-327 -73,-62 -129,-124 -173,-187 -532,251 -876,592 -876,931 -475,0 -1114,-70 -1682,-261 -850,-110 -1068,-399 -1067,-663 -193,-237 -298,-529 -267,-886 211,-2474 -9062,-2855 -9797,-1874 -474,632 -1498,276 -2400,-312 -475,-276 -700,-455 -763,-575 -283,-243 -521,-487 -682,-694 -1140,-1469 -5780,-3153 -4654,-1615 3641,4972 -2818,3136 -5072,-597 -2737,-4533 -5350,-1929 -7773,-7816zm93788 -21382c-1098,-1 -2591,-260 -4810,-2006 -258,-203 -517,-365 -782,-518 216,225 376,417 420,462 2059,2166 -2946,1641 -2460,273 153,-430 305,-1346 502,-1558 28,-32 60,-55 95,-70 -449,-339 -929,-788 -1459,-1463 -350,-446 -1121,-1339 -1572,-1144 -3150,1355 3938,4998 1629,6638 -33,23 -5265,1772 -6098,1064 -3467,-2944 -6017,-4393 -9632,-7364 -2314,-1900 -10338,-440 -14324,-1716 -227,-73 -465,-137 -712,-195 55,140 157,281 391,407 3129,1680 -328,1950 -1250,1527 -2190,-1004 -1999,-313 -3225,-643 -1946,-522 -3877,728 -4572,302 -873,-534 -3824,-476 -3969,-54 -477,1384 -2588,657 -2594,646 485,-843 20,-352 -1102,-740 -2356,-815 -1484,-552 -4077,-552 -1052,0 -3241,518 -3261,517 -3204,-184 -3090,336 -5451,478 -10180,608 5325,-2656 6564,-2838 3280,-480 7616,-179 10058,-646 955,-183 1835,-225 2653,-183 -111,-69 -216,-144 -314,-223 -3316,-2667 -25049,790 -29532,1990 -1467,394 -9688,495 -9688,3059 36,11 8068,-528 9654,-352 872,97 7600,155 6717,724 2079,-202 4763,-595 5335,-359 706,291 1786,330 2741,359 -708,-1082 1963,-317 3345,-631 2067,-469 3303,-420 4110,-163 1005,51 1854,261 1673,705 -56,139 -115,257 -176,358 398,431 737,741 1641,445 3790,-1238 4690,876 5359,739 2627,-535 4222,-4126 8878,-1919 5423,2571 1292,-3583 7492,-588 1715,828 3827,-2165 4864,-150 1131,2198 1578,1737 2148,2807 4581,-3378 1325,80 4662,2443 2508,1777 4711,5988 5315,6316 3412,1851 3892,4194 4921,4458 1984,-1660 1497,-4784 3252,-3534 1853,1320 3289,322 4070,1149 66,69 132,136 197,200 23,-87 34,-182 30,-289 -70,-2057 1467,-2577 679,-3175 -2141,-1624 -641,-1491 -1541,-2244 -1430,-1197 -1444,-2068 -990,-2423 -172,-72 -281,-179 -273,-366 30,-751 900,-267 1249,-94 922,458 918,157 1602,575 554,-105 1021,-366 1618,-441zm-85855 2367c1763,49 2258,455 3735,-873 1222,-1097 7381,-1829 7794,-2812 783,-1868 -5508,173 -7008,173 -3439,0 -2356,1217 -6303,1939 -739,136 -5582,1495 -3553,2942 682,486 5345,-1369 5335,-1369z"/>
   <path fill="#1B99C9" d="M35283 26866c139,408 -62,240 576,649 290,185 328,230 581,421l4384 1991c7702,2568 18026,2470 25607,-706 925,-388 1795,-984 2722,-1493 1022,-561 2884,-2042 3378,-3044 201,-407 100,-460 257,-780 163,-329 210,-171 446,-759 1859,-4642 -3101,-7569 -3295,-7800 -24,-28 -46,-68 -72,-96 -421,-454 -2746,-1745 -3657,-1826 132,556 37,241 1324,885 3223,1616 6468,4758 5208,8685 -1167,3637 -6392,6060 -9711,6979 -5026,1393 -9869,1692 -15184,1139 -7946,-824 -11329,-3921 -12564,-4245z"/>
   <path fill="#1B99C9" d="M37038 14520l4138 -1629c513,-186 335,-180 463,-379 -752,-138 -3239,933 -4111,1408 -712,389 -324,-7 -490,600z"/>
   <path fill="#1B99C9" d="M41639 12512c640,74 3375,-486 3750,-928 -615,-89 -1464,34 -2048,262 -551,215 -74,158 -770,316 -78,18 -446,72 -480,83 -530,169 -218,-268 -452,267z"/>
   <path fill="#045667" d="M77738 16657c1076,1897 1997,3352 1510,5787 -646,3233 -3856,6330 -6530,7621l-2559 1259c-478,280 -161,79 -629,264l-3544 1161c-1875,868 -511,-20 -2141,640 -1530,620 -3879,585 -4861,749 -3807,631 -10344,372 -14232,-104 -807,-99 -779,81 -1553,-219 -643,-250 -2344,-531 -3206,-559l-74 -400 -4632 -1420 -3818 -2061c-2314,-1455 -4767,-3792 -5387,-6559 -600,-2682 242,-4043 1442,-6159 -866,270 -2785,2796 -3244,3625 -551,997 -863,1982 -979,2941l0 1717c425,3548 3412,6622 6715,8527 5934,3421 13524,5059 21057,5245l2869 0c13399,-318 25924,-5145 27785,-12584 119,-477 197,-948 233,-1413l0 -1226c-85,-1068 -396,-2104 -928,-3110 -444,-841 -2435,-3454 -3294,-3722z"/>
   <path fill="#0D90BE" d="M37038 14520c166,-607 -222,-211 490,-600 872,-475 3359,-1546 4111,-1408 234,-535 -78,-98 452,-267 34,-11 402,-65 480,-83 696,-158 219,-101 770,-316 584,-228 1433,-351 2048,-262 684,89 1911,-210 2664,-313 935,-129 1932,-127 2887,-144 4316,-80 9066,198 13223,1585 374,125 1820,704 2047,711 911,81 3236,1372 3657,1826 26,28 48,68 72,96 194,231 5154,3158 3295,7800 -236,588 -283,430 -446,759 -157,320 -56,373 -257,780 -494,1002 -2356,2483 -3378,3044 -927,509 -1797,1105 -2722,1493 -7581,3176 -17905,3274 -25607,706l-4384 -1991c-253,-191 -291,-236 -581,-421 -638,-409 -437,-241 -576,-649l-1825 -1991c-249,-319 -222,-472 -413,-778 -1424,-2286 -1074,-4813 752,-6796 165,-179 295,-387 538,-636 939,-966 1917,-1313 2703,-2145zm-2926 -282c-172,156 354,-124 -97,206l-953 660c-2386,1878 -3962,3967 -3525,7270 304,2291 3978,5441 6313,6580 935,456 1999,1253 2914,1464l3390 907c571,140 1071,437 1625,537 4937,890 9011,1105 14079,508 5271,-620 4373,-1017 7176,-1495 970,-166 4983,-2092 5824,-2683 3279,-2304 2433,-2164 4315,-4355 713,-830 632,-2652 463,-3677 -250,-1507 -373,-1741 -1305,-2936l-1622 -1736c-278,-163 -449,-101 -744,-303 -257,-176 -265,-274 -652,-519l-1969 -1123c-878,-487 -1960,-1234 -2893,-1484 -424,-114 -646,-44 -1038,-174l-2321 -765c-2003,-941 -5271,-809 -7514,-1145 -3236,-485 -8795,160 -12095,853 -1305,274 -5598,1487 -6437,2078 -1332,936 -2621,1049 -2934,1332z"/>
   <path fill="#097B9E" d="M34112 14238c313,-283 1602,-396 2934,-1332 839,-591 5132,-1804 6437,-2078 3300,-693 8859,-1338 12095,-853 2243,336 5511,204 7514,1145l2321 765c392,130 614,60 1038,174 933,250 2015,997 2893,1484l1969 1123c387,245 395,343 652,519 295,202 466,140 744,303l1622 1736c932,1195 1055,1429 1305,2936 169,1025 250,2847 -463,3677 -1882,2191 -1036,2051 -4315,4355 -841,591 -4854,2517 -5824,2683 -2803,478 -1905,875 -7176,1495 -5068,597 -9142,382 -14079,-508 -554,-100 -1054,-397 -1625,-537l-3390 -907c-915,-211 -1979,-1008 -2914,-1464 -2335,-1139 -6009,-4289 -6313,-6580 -437,-3303 1139,-5392 3525,-7270l953 -660c451,-330 -75,-50 97,-206zm17359 -4639l2495 0c3081,57 6104,327 8651,820 1430,277 7513,1626 8293,2415 328,324 1587,1010 2063,1346 511,359 1359,1004 1795,1436 4356,4315 3313,8894 -1479,12507 -9595,7234 -31829,7245 -41397,-65 -2692,-2056 -4965,-5077 -3883,-8616 1267,-4142 5539,-5815 6343,-6608 771,-780 6961,-2175 8414,-2441 2561,-468 5605,-737 8705,-794z"/>
   <path fill="#0D6C87" d="M27524 16657c-1200,2116 -2042,3477 -1442,6159 620,2767 3073,5104 5387,6559l3818 2061 4632 1420 74 400c862,28 2563,309 3206,559 774,300 746,120 1553,219 3888,476 10425,735 14232,104 982,-164 3331,-129 4861,-749 1630,-660 266,228 2141,-640l3544 -1161c468,-185 151,16 629,-264l2559 -1259c2674,-1291 5884,-4388 6530,-7621 487,-2435 -434,-3890 -1510,-5787 -866,-1035 -5470,-3713 -6828,-3823 328,324 1587,1010 2063,1346 511,359 1359,1004 1795,1436 4356,4315 3313,8894 -1479,12507 -9595,7234 -31829,7245 -41397,-65 -2692,-2056 -4965,-5077 -3883,-8616 1267,-4142 5539,-5815 6343,-6608 -1358,110 -5963,2788 -6828,3823z"/>
   <path fill="#5C9AB9" d="M44844 13076c618,-259 5062,-670 5949,-686 2211,-41 4199,-53 6354,255 2791,398 4145,497 6458,1762 257,140 832,210 1207,423 286,162 661,413 990,593 1260,691 1937,1086 2980,2050l1323 2124c124,576 123,2653 6,3233 -290,1434 -1925,2952 -3172,3567 -1406,693 -937,1039 -4362,2221 -937,323 -1684,515 -2679,722 -7002,1454 -15955,1097 -21956,-3053 -3337,-2308 -4192,-6103 -1543,-8744 1766,-1761 4895,-3368 7394,-4063l1051 -404zm4779 -1285l-3223 333c-2258,368 -6463,1460 -8175,2694 -1701,1227 -4908,2889 -4946,5954 -23,1776 -50,1560 617,3082 365,832 349,1038 1488,2031 461,401 1524,1323 2056,1583 6285,3058 7248,2077 9693,2989 1494,557 7262,360 8954,300 1327,-48 4399,-947 6026,-1136 880,-102 1902,-561 2685,-865l2571 -1117c1982,-1287 4812,-3450 4844,-5981 43,-3343 -1330,-4505 -4275,-6542 -1528,-1056 -3620,-1386 -5263,-2102 -2560,-1115 -10297,-1712 -13052,-1223z"/>
   <path fill="#AF9E87" d="M39322 21803c-200,-1048 354,-2272 1019,-3099 543,-673 1060,-1042 1812,-1435 1852,-968 2788,-1714 5270,-2075 4941,-717 10371,-909 14870,1571 1025,565 2087,1216 2826,2180 1771,2312 420,5111 -1965,6268l-1606 883c-2466,1202 -5225,1584 -8256,1653 -2523,57 -6656,-194 -8675,-1238 -503,-260 -2966,-1406 -3263,-1744 -395,-450 63,-132 -554,-608 -753,-583 -1303,-1434 -1478,-2356zm16205 6965l64 91c163,-653 408,-385 2151,-690 799,-139 1513,-304 2284,-516 1393,-384 2677,-907 3950,-1635 1102,-631 2200,-1515 2868,-2569 796,-1257 709,-3406 -152,-4611 -4278,-5991 -19255,-6286 -25445,-2316 -981,629 -2223,1549 -2852,2583 -796,1307 -648,3392 198,4609 1810,2605 7116,4358 10171,4738 1079,135 863,222 1190,265 1617,211 3871,-173 5573,51z"/>
   <path fill="#719BAF" d="M68937 19706l321 -13c70,2711 245,2785 -1299,4877 -628,852 -2607,2180 -3573,2583 -6599,2750 -14283,3194 -21049,943 -2890,-961 -5812,-2444 -7066,-5298 -642,-1462 3,-3777 1018,-4793 1145,-1148 2100,-1904 3588,-2593 2956,-1370 6610,-2273 9910,-2393 4794,-173 11163,549 15215,3282 1127,760 2654,2015 2935,3405zm-32538 -2163c-2649,2641 -1794,6436 1543,8744 6001,4150 14954,4507 21956,3053 995,-207 1742,-399 2679,-722 3425,-1182 2956,-1528 4362,-2221 1247,-615 2882,-2133 3172,-3567 117,-580 118,-2657 -6,-3233l-1323 -2124c-1043,-964 -1720,-1359 -2980,-2050 -329,-180 -704,-431 -990,-593 -375,-213 -950,-283 -1207,-423 -2313,-1265 -3667,-1364 -6458,-1762 -2155,-308 -4143,-296 -6354,-255 -887,16 -5331,427 -5949,686l-1051 404c-2499,695 -5628,2302 -7394,4063z"/>
   <path fill="#399AC5" d="M49623 11791c2755,-489 10492,108 13052,1223 1643,716 3735,1046 5263,2102 2945,2037 4318,3199 4275,6542 -32,2531 -2862,4694 -4844,5981l-2571 1117c-783,304 -1805,763 -2685,865 -1627,189 -4699,1088 -6026,1136 -1692,60 -7460,257 -8954,-300 -2445,-912 -3408,69 -9693,-2989 -532,-260 -1595,-1182 -2056,-1583 -1139,-993 -1123,-1199 -1488,-2031 -667,-1522 -640,-1306 -617,-3082 38,-3065 3245,-4727 4946,-5954 1712,-1234 5917,-2326 8175,-2694l3223 -333zm-4234 -207c-375,442 -3110,1002 -3750,928 -128,199 50,193 -463,379l-4138 1629c-786,832 -1764,1179 -2703,2145 -243,249 -373,457 -538,636 -1826,1983 -2176,4510 -752,6796 191,306 164,459 413,778l1825 1991c1235,324 4618,3421 12564,4245 5315,553 10158,254 15184,-1139 3319,-919 8544,-3342 9711,-6979 1260,-3927 -1985,-7069 -5208,-8685 -1287,-644 -1192,-329 -1324,-885 -227,-7 -1673,-586 -2047,-711 -4157,-1387 -8907,-1665 -13223,-1585 -955,17 -1952,15 -2887,144 -753,103 -1980,402 -2664,313z"/>
   <path fill="#D2C086" d="M48741 16649c3295,-807 9623,-568 12732,2117 1874,1619 1713,3664 154,4902 -3225,2560 -8470,3036 -12414,2356 -2264,-391 -6481,-1774 -6787,-4527 -119,-1070 484,-1878 1128,-2523 1553,-1555 3320,-1867 5187,-2325zm11018 -226c-585,-50 -1398,-280 -1961,-446 -2652,-778 -7389,-842 -10018,-112 -1775,492 -1594,335 -3312,1092 -3053,1345 -4961,4167 -2717,6686 190,214 496,431 620,569 550,610 -136,201 258,485 141,101 204,-5 770,382 870,597 4616,1687 5924,1849 4350,538 8585,49 12487,-1784 796,-374 288,-57 522,-360 291,-377 2766,-2051 2013,-4331 -342,-1033 -1334,-2182 -1964,-2587 -459,-294 -2390,-1093 -2622,-1443z"/>
   <path fill="#F8EA7F" d="M58874 22380c-2087,1630 -3474,2020 -6170,2024 -2730,3 -4258,-306 -6317,-2021 -298,-1860 129,-2697 1811,-3491 388,-183 653,-214 918,-386l904 -404c771,-221 4335,-227 5115,-34l1831 783c1738,869 2255,1476 1908,3529zm-15066 -1892c-72,1845 608,2928 2577,3930 1449,738 3732,1142 5437,1173 2758,49 8644,-515 9575,-3747 971,-3375 -5601,-4905 -7954,-4965 -2489,-63 -5971,412 -8055,1882 -822,579 -1055,1251 -1580,1727z"/>
   <path fill="#BEAF89" d="M59759 16423c232,350 2163,1149 2622,1443 630,405 1622,1554 1964,2587 753,2280 -1722,3954 -2013,4331 -234,303 274,-14 -522,360 -3902,1833 -8137,2322 -12487,1784 -1308,-162 -5054,-1252 -5924,-1849 -566,-387 -629,-281 -770,-382 -394,-284 292,125 -258,-485 -124,-138 -430,-355 -620,-569 -2244,-2519 -336,-5341 2717,-6686 1718,-757 1537,-600 3312,-1092 2629,-730 7366,-666 10018,112 563,166 1376,396 1961,446zm-20437 5380c175,922 725,1773 1478,2356 617,476 159,158 554,608 297,338 2760,1484 3263,1744 2019,1044 6152,1295 8675,1238 3031,-69 5790,-451 8256,-1653l1606 -883c2385,-1157 3736,-3956 1965,-6268 -739,-964 -1801,-1615 -2826,-2180 -4499,-2480 -9929,-2288 -14870,-1571 -2482,361 -3418,1107 -5270,2075 -752,393 -1269,762 -1812,1435 -665,827 -1219,2051 -1019,3099z"/>
   <path fill="#9A9994" d="M55527 28768c-1702,-224 -3956,160 -5573,-51 -327,-43 -111,-130 -1190,-265 -3055,-380 -8361,-2133 -10171,-4738 -846,-1217 -994,-3302 -198,-4609 629,-1034 1871,-1954 2852,-2583 6190,-3970 21167,-3675 25445,2316 861,1205 948,3354 152,4611 -668,1054 -1766,1938 -2868,2569 -1273,728 -2557,1251 -3950,1635 -771,212 -1485,377 -2284,516 -1743,305 -1988,37 -2151,690 1686,-48 3462,-405 5050,-859 3223,-921 7909,-3140 7714,-7086 -185,-3753 -5242,-5594 -8141,-6584 -2857,-974 -7680,-1037 -10741,-759 -3691,336 -9999,1936 -12036,5460 -613,1059 -641,1006 -628,2332 24,2361 2019,3843 3836,5006 2143,1372 6720,2468 9113,2618l5162 45c759,-96 276,86 607,-264z"/>
   <path fill="#889CA5" d="M55591 28859l-64 -91c-331,350 152,168 -607,264l-5162 -45c-2393,-150 -6970,-1246 -9113,-2618 -1817,-1163 -3812,-2645 -3836,-5006 -13,-1326 15,-1273 628,-2332 2037,-3524 8345,-5124 12036,-5460 3061,-278 7884,-215 10741,759 2899,990 7956,2831 8141,6584 195,3946 -4491,6165 -7714,7086 -1588,454 -3364,811 -5050,859zm13346 -9153c-281,-1390 -1808,-2645 -2935,-3405 -4052,-2733 -10421,-3455 -15215,-3282 -3300,120 -6954,1023 -9910,2393 -1488,689 -2443,1445 -3588,2593 -1015,1016 -1660,3331 -1018,4793 1254,2854 4176,4337 7066,5298 6766,2251 14450,1807 21049,-943 966,-403 2945,-1731 3573,-2583 1544,-2092 1369,-2166 1299,-4877l-321 13z"/>
   <path fill="#E6D582" d="M43808 20488c525,-476 758,-1148 1580,-1727 2084,-1470 5566,-1945 8055,-1882 2353,60 8925,1590 7954,4965 -931,3232 -6817,3796 -9575,3747 -1705,-31 -3988,-435 -5437,-1173 -1969,-1002 -2649,-2085 -2577,-3930zm4933 -3839c-1867,458 -3634,770 -5187,2325 -644,645 -1247,1453 -1128,2523 306,2753 4523,4136 6787,4527 3944,680 9189,204 12414,-2356 1559,-1238 1720,-3283 -154,-4902 -3109,-2685 -9437,-2924 -12732,-2117z"/>
   <path fill="#F9F1B5" d="M49321 20911c1209,-1611 3083,-1185 5008,-1154 135,512 -117,-188 -14,246 860,188 832,388 1383,899l-70 878c-982,1044 -2234,996 -3662,955 -1269,-37 -2629,-366 -2645,-1824zm-1867 890c1767,1708 2721,2017 5691,1941 1121,-29 2211,-161 3168,-687 3106,-1707 1067,-4459 -4348,-4328 -990,24 -2169,284 -3066,748 -1097,569 -1501,1076 -1445,2326z"/>
   <path fill="#F9EF9D" d="M47454 21801c-56,-1250 348,-1757 1445,-2326 897,-464 2076,-724 3066,-748 5415,-131 7454,2621 4348,4328 -957,526 -2047,658 -3168,687 -2970,76 -3924,-233 -5691,-1941zm11420 579c347,-2053 -170,-2660 -1908,-3529l-1831 -783c-780,-193 -4344,-187 -5115,34l-904 404c-265,172 -530,203 -918,386 -1682,794 -2109,1631 -1811,3491 2059,1715 3587,2024 6317,2021 2696,-4 4083,-394 6170,-2024z"/>
   <path fill="#FCF8D3" d="M49321 20911c16,1458 1376,1787 2645,1824 1428,41 2680,89 3662,-955l70 -878c-551,-511 -523,-711 -1383,-899 -103,-434 149,266 14,-246 -1925,-31 -3799,-457 -5008,1154z"/>
  </g>
 </g>
</svg>
