<?xml version="1.0" encoding="UTF-8"?>
<!DOCTYPE svg PUBLIC "-//W3C//DTD SVG 1.1//EN" "http://www.w3.org/Graphics/SVG/1.1/DTD/svg11.dtd">
<!-- Creator: CorelDRAW X8 -->
<svg xmlns="http://www.w3.org/2000/svg" xml:space="preserve" width="1001px" height="668px" version="1.1" shape-rendering="geometricPrecision" text-rendering="geometricPrecision" image-rendering="optimizeQuality" fill-rule="evenodd" clip-rule="evenodd"
viewBox="0 0 98637 65872"
 xmlns:xlink="http://www.w3.org/1999/xlink">
 <g id="interface-icon-cc">
  <metadata id="CorelCorpID_0Corel-Layer"/>
  <g id="interface-icon-cc-body">
   <path fill="#D1D1D1" d="M78530 33840l44 365c286,4 644,-27 857,-164 -246,-290 -411,-414 -901,-201z"/>
   <path fill="#D1D1D1" d="M79606 33510l368 350c265,-123 357,-180 502,-355 -181,-141 -357,-179 -646,-214l-224 219z"/>
   <path fill="#D1D1D1" d="M80186 32701c-35,324 -91,229 201,331 170,59 254,86 431,40l88 -436c-280,-2 -537,-37 -720,65z"/>
   <path fill="#D1D1D1" d="M75298 33166l578 -175c-82,-170 -58,-189 -243,-304l-618 10c76,241 116,302 283,469z"/>
   <path fill="#D1D1D1" d="M74904 32292l712 17 44 -278c-42,-29 -50,-46 -134,-85 -41,-19 -105,-43 -149,-56 -107,-33 -211,-50 -340,-60l-133 462z"/>
   <polygon fill="#D1D1D1" points="79945,31947 80107,32252 80793,32257 80531,31763 "/>
   <path fill="#D1D1D1" d="M79076 31435c522,156 328,296 913,-7l-269 -204c-158,-79 -222,-100 -402,-123l-242 334z"/>
   <path fill="#D1D1D1" d="M75383 31490l578 176 296 -229c-15,-24 -29,-64 -34,-53l-135 -145c-61,-48 -128,-80 -187,-113 -236,101 -378,177 -518,364z"/>
   <path fill="#D1D1D1" d="M76464 30959l304 275 535 -65 -55 -368c-262,2 -613,23 -784,158z"/>
   <path fill="#44D8FF" d="M55496 10911c497,285 886,166 933,-404 -425,-157 -972,-169 -933,404z"/>
   <path fill="#44D8FF" d="M52614 10127c361,375 897,231 942,-360l-648 -134c-156,192 -254,237 -294,494z"/>
   <path fill="#44D8FF" d="M49804 9435c451,313 906,167 919,-382 -475,-156 -880,-181 -919,382z"/>
   <path fill="#44D8FF" d="M57306 8377c377,323 896,276 938,-351l-645 -130c-149,174 -246,246 -293,481z"/>
   <path fill="#44D8FF" d="M47024 8742c155,71 334,177 596,108 142,-38 389,-254 323,-444 -68,-200 -816,-393 -919,336z"/>
   <path fill="#44D8FF" d="M54469 7718c387,181 1029,167 893,-362 -395,-266 -852,-143 -893,362z"/>
   <path fill="#44D8FF" d="M51685 7014c436,280 828,167 908,-304 -346,-292 -891,-233 -908,304z"/>
   <path fill="#44D8FF" d="M85525 27409c-236,-273 -920,-494 -1002,160 300,83 576,194 909,119l93 -279z"/>
   <path fill="#44D8FF" d="M80594 26404c287,189 931,399 984,-134 -237,-258 -931,-423 -984,134z"/>
   <path fill="#44D8FF" d="M48942 6341c427,256 821,142 899,-300 -296,-288 -924,-203 -899,300z"/>
   <path fill="#44D8FF" d="M85767 25802c239,202 658,246 937,145l34 -279c-271,-202 -564,-239 -887,-154l-84 288z"/>
   <path fill="#44D8FF" d="M81885 24730c142,105 346,164 528,185 319,37 423,-36 443,-319 -317,-268 -905,-365 -971,134z"/>
   <path fill="#44D8FF" d="M86966 24127c202,205 1083,399 963,-47 -43,-161 -794,-514 -963,47z"/>
   <path fill="#44D8FF" d="M83152 23122c267,181 886,376 959,-122 -215,-183 -911,-422 -959,122z"/>
   <path fill="#44D8FF" d="M88160 22586c148,82 298,133 470,152 360,41 342,30 463,-219 -132,-265 -933,-526 -933,67z"/>
   <path fill="#44D8FF" d="M84352 21584c306,114 608,236 928,76 28,-298 -65,-362 -412,-406 -339,-42 -466,21 -516,330z"/>
   <path fill="#736E76" d="M68547 12566c424,22 399,-88 443,-506 -797,25 -597,131 -734,383 -185,-95 -127,-83 -371,-148 43,384 105,329 -228,451l311 133 -231 274 327 276c218,-136 307,-229 481,-341 -100,-257 11,-21 -185,-248l417 -2 -230 -272z"/>
   <path fill="#736E76" d="M66769 13911c247,59 630,-75 800,-249l-244 -276 -595 170 39 355z"/>
   <path fill="#736E76" d="M65630 13595c-77,176 -135,200 -197,423l794 34 -62 -422 -535 -35z"/>
   <path fill="#08243A" d="M47490 37934c97,-461 912,-1416 958,-1637 131,-629 -666,63 -228,-1135 119,-328 217,-790 577,-745 5,410 -305,692 -298,1165 177,201 622,514 993,456 369,-57 2234,-1726 2910,-1281 183,120 204,501 239,760 38,280 119,585 38,816 -215,273 -1279,588 -1541,448 90,-241 717,-373 1142,-502 89,-1752 -502,-1394 -1792,-524 -1628,1098 -1163,403 -1649,633 -351,167 -775,1521 -1349,1546zm5100 -3351c-1137,-286 -1936,614 -2701,1044 -204,114 -352,258 -581,198 -177,-45 -521,-191 -585,-313 -149,-285 439,-801 240,-1259 -533,-165 -694,313 -859,717 -217,532 -276,685 -25,965 369,413 224,196 -323,1113 -320,537 -531,634 -296,985 821,86 967,-1199 1482,-1490 523,-297 -63,422 1659,-684l572 -367c11,-6 30,-13 40,-18 9,-4 28,-11 37,-15l167 -110c346,-270 462,-166 489,-163 14,1 46,34 56,16 72,-128 173,452 132,915 -499,359 -708,64 -1128,603 299,342 444,275 944,109 479,-159 572,-202 977,-402 73,-533 -94,-1519 -297,-1844z"/>
   <path fill="#08243A" d="M58082 21179c43,-446 176,-788 337,-1143 174,-382 206,-754 617,-686 23,314 -556,870 -600,1896 -43,1019 547,1027 1462,1116 1374,133 1617,121 1979,-539 379,-694 956,-1297 965,-1648 -455,38 -557,309 -1013,342 49,-255 73,-217 280,-334 136,-78 284,-145 448,-217 311,-136 631,-364 984,-233 1,402 -1221,1602 -1528,2548 201,-54 59,21 199,-113l319 -479c601,-1038 551,-824 1073,-1616 40,-61 82,-107 96,-182 27,-146 74,-292 -147,-339 -410,-89 -782,183 -1278,393l-269 129c-127,80 -344,236 -256,389 208,225 444,37 745,-8 -58,196 -331,671 -435,814 -546,757 -368,1314 -2370,927 -796,-155 -1197,-265 -1062,-1211 116,-813 637,-1331 571,-1748 -637,-240 -767,431 -951,830 -224,485 -378,1072 -303,1681 120,-163 86,-441 137,-569z"/>
   <path fill="#08243A" d="M51662 30975c-215,-1214 94,-1594 962,-2053 930,-492 2219,-570 3098,114 537,417 755,964 665,1705 -77,622 -1219,1358 -1971,1201 -149,-186 -447,-1077 -218,-1383 498,-19 224,669 536,1003 687,290 1548,-756 1152,-1639 -23,594 23,1078 -482,1370 -189,111 -303,151 -546,137 -216,-470 -30,-825 -459,-1073 -351,52 -450,218 -391,551 28,153 93,630 174,830 332,818 2160,-172 2354,-850 287,-1006 -431,-1912 -923,-2160 -1172,-590 -2181,-426 -3260,185 -598,340 -1096,808 -890,1699l166 324c6,9 21,27 33,39z"/>
   <path fill="#08243A" d="M54669 25317c282,-425 1431,-417 1960,-491 396,-55 676,-145 863,-352 191,-212 280,-529 726,-490 -107,447 -480,325 -655,1163 -289,1388 -514,1425 47,1674 339,150 466,144 849,349 295,158 250,49 275,303 -273,163 -1155,-290 -1568,-485 -311,-148 -191,-90 -405,-316 27,-312 243,-606 313,-950 155,-749 -80,-634 -707,-603 104,72 25,31 184,67 369,85 585,-210 274,771 -310,977 -383,792 1191,1502 336,151 825,419 970,-117 -167,-261 -1218,-685 -1557,-881 55,-293 153,-411 230,-716 64,-255 60,-458 121,-723 132,-566 652,-653 614,-1134 -448,-197 -723,44 -928,296 -582,716 -722,341 -2004,648 -622,149 -821,109 -968,433 99,73 -139,197 175,52z"/>
   <path fill="#876C84" d="M51662 30975l159 404c-292,149 -1218,577 -1189,805 260,65 1454,-637 1618,-800 2,-505 -1162,-1668 934,-2445 1082,-401 2634,127 2702,984 396,883 -465,1929 -1152,1639 -312,-334 -38,-1022 -536,-1003 -229,306 69,1197 218,1383 752,157 1894,-579 1971,-1201 90,-741 -128,-1288 -665,-1705 -879,-684 -2168,-606 -3098,-114 -868,459 -1177,839 -962,2053z"/>
   <path fill="#876C84" d="M47490 37934c574,-25 998,-1379 1349,-1546 486,-230 21,465 1649,-633 1290,-870 1881,-1228 1792,524 -425,129 -1052,261 -1142,502 262,140 1326,-175 1541,-448 81,-231 0,-536 -38,-816 -35,-259 -56,-640 -239,-760 -676,-445 -2541,1224 -2910,1281 -371,58 -816,-255 -993,-456 -7,-473 303,-755 298,-1165 -360,-45 -458,417 -577,745 -438,1198 359,506 228,1135 -46,221 -861,1176 -958,1637z"/>
   <path fill="#876C84" d="M47040 40064c-528,-413 -1011,-17 -1617,-147 -278,-206 -112,-319 -402,-415 -166,116 -222,336 -65,561 153,220 469,179 737,154 544,-49 1203,-252 1215,388 -86,47 -2768,974 -2958,1407 231,135 1056,-375 1448,-565 346,-166 1187,-612 1606,-429 265,116 294,437 543,547 308,136 551,-62 824,-163 942,-349 1411,-292 1461,-596 -528,-346 -1497,639 -2083,429 -319,-286 -209,-779 -709,-1171z"/>
   <path fill="#876C84" d="M48022 42676c-507,-313 -1556,-86 -1133,544 313,466 1263,213 1133,-544z"/>
   <path fill="#876C84" d="M45594 42414c87,138 38,78 164,178 282,-14 396,-122 349,-386 -287,-170 -410,-24 -513,208z"/>
   <path fill="#C9C9C9" d="M73527 32634c-441,-1971 2413,-2772 4251,-2685 1961,94 4198,981 4548,2494 466,2017 -2445,2781 -4282,2688 -1622,-83 -4159,-899 -4517,-2497zm-293 -201c163,2298 5112,3657 7815,2335 3334,-1632 1024,-4676 -3081,-4934 -1829,-115 -4878,582 -4734,2599z"/>
   <path fill="#C9C9C9" d="M76352 32375l956 4c287,53 104,-74 193,121 -230,146 -782,61 -1116,92l2347 762c-90,-198 4,-66 -131,-202 -142,-144 -351,-244 -493,-451 304,-160 651,372 985,527 -47,-353 -224,-1278 -378,-1536 -622,509 -372,670 -379,835 -21,-159 -185,-238 -327,-333 -10,-6 -30,-18 -44,-29 143,-211 253,-322 353,-553l-1966 763z"/>
   <path fill="#C9C9C9" d="M76638 33501c-314,-171 -579,-243 -868,78 126,58 279,159 437,228 233,101 251,2 431,-69l143 294 254 -160c43,83 -63,369 914,338l-77 -392 -447 -74c-17,-121 -46,-56 88,-229 -553,-1 -363,-20 -674,-273 -98,141 -36,196 -201,259z"/>
   <path fill="#C9C9C9" d="M78508 31217c101,-166 119,-125 187,-317l-826 -133c10,492 148,438 639,450z"/>
   <path fill="#82757D" d="M37345 51119c106,99 10,39 176,109 116,-105 200,-183 277,-292 48,-67 52,-93 104,-163 94,-128 57,-83 109,-111 49,-184 87,-242 169,-354 161,-219 14,-81 209,-211 275,139 310,470 421,806 164,492 790,2288 747,2591 -506,31 -1351,-425 -1530,200 477,116 773,34 1283,261 372,165 588,460 1032,324 176,-493 -180,-867 -348,-1348 -65,-186 -182,-462 -232,-649 -95,-355 -31,-409 153,-637 354,-438 1442,-1376 1456,-2028 -552,-72 -1057,1653 -1845,1700 -157,-241 -145,-245 -247,-551 -69,-203 -111,-348 -181,-555 -104,-308 -178,-879 -572,-868 -359,9 -514,536 -684,825 -152,258 -425,689 -497,951z"/>
   <path fill="#82757D" d="M42270 51779c-887,-439 -1515,354 -1133,814 220,264 582,211 846,45 292,-183 376,-421 287,-859z"/>
   <path fill="#14426B" d="M62013 22281c-451,505 -1516,433 -2472,314 -852,-106 -1736,-317 -1459,-1416 -51,128 -17,406 -137,569 -75,-609 79,-1196 303,-1681 184,-399 314,-1070 951,-830 66,417 -455,935 -571,1748 -135,946 266,1056 1062,1211 2002,387 1824,-170 2370,-927 104,-143 377,-618 435,-814 -301,45 -537,233 -745,8 -88,-153 129,-309 256,-389l269 -129c496,-210 868,-482 1278,-393 221,47 174,193 147,339 -14,75 -56,121 -96,182 -522,792 -472,578 -1073,1616l-319 479c-140,134 2,59 -199,113zm-662 -1704c222,320 279,174 550,335 -333,662 -527,1077 -999,1093 -533,18 -1517,13 -1892,-275 -302,-1076 361,-1567 526,-2254 123,-511 -445,-677 -890,-487 -540,229 -1370,2288 -859,3219 310,563 1377,723 2177,748 2739,83 2008,-121 3546,-2245 142,-197 534,-628 546,-944 20,-498 -534,-543 -980,-432 -378,94 -699,272 -1035,438 -372,183 -742,280 -690,804z"/>
   <path fill="#14426B" d="M56367 25119c-297,56 -1516,291 -1698,198 -314,145 -76,21 -175,-52 147,-324 346,-284 968,-433 1282,-307 1422,68 2004,-648 205,-252 480,-493 928,-296 38,481 -482,568 -614,1134 -61,265 -57,468 -121,723 -77,305 -175,423 -230,716 339,196 1390,620 1557,881 -145,536 -634,268 -970,117 -1574,-710 -1501,-525 -1191,-1502 311,-981 95,-686 -274,-771 -159,-36 -80,5 -184,-67zm-2246 349c688,549 1553,37 2505,-12 -141,684 -642,1162 -89,1621 185,154 566,304 760,374 332,120 516,226 796,351 546,245 1477,50 1212,-607 -114,-282 -1056,-630 -1463,-791 -21,-247 172,-689 208,-1020 52,-492 95,-591 406,-884 875,-824 -265,-1223 -876,-813 -259,173 -424,536 -630,643 -180,93 -913,149 -1147,187 -334,54 -738,136 -1061,225 -462,127 -623,193 -621,726z"/>
   <path fill="#14426B" d="M65785 29131c41,222 -5,93 185,191 189,98 145,-30 479,302 158,156 388,375 470,612l-170 214c-270,13 -567,-25 -716,13 119,121 -96,15 178,129 7,2 174,42 176,42 118,18 290,24 408,9 1121,-146 -153,-1558 -969,-1576l-41 64z"/>
   <path fill="#6A6B76" d="M74513 27592l-206 219c260,160 275,-29 236,232 481,-39 2308,624 2900,778 943,245 1853,568 2796,824 918,249 1871,541 2796,821 892,271 2392,932 2662,130l-216 -171c134,342 49,108 -7,195 -249,-345 -1927,-736 -2517,-903l-7945 -2334c-199,192 -158,245 -499,209z"/>
   <path fill="#6A6B76" d="M66196 9489c1169,-78 2493,116 3346,835 1741,1467 487,4249 -3018,4623 -1938,207 -4332,-730 -4233,-2544 89,-1650 2139,-2798 3905,-2914zm100 -145c-3633,304 -5775,3478 -2947,5164 2470,1473 6842,188 7200,-2309 301,-2107 -2207,-3027 -4253,-2855z"/>
   <path fill="#6A6B76" d="M66560 11935c207,-186 521,-279 729,-487 -400,22 -772,80 -1172,133 -189,25 -367,47 -550,67 -352,37 -339,51 -458,152 356,55 568,185 932,169 -89,169 -164,224 -34,398 -67,-45 -265,-378 -1134,-405l1337 1264c76,-325 -108,-599 46,-791 354,29 116,94 242,518 88,296 7,89 115,214 202,-506 704,-966 933,-1510 -224,76 -383,178 -563,276 -246,134 -223,175 -423,2z"/>
   <path fill="#6A6B76" d="M68180 11466c137,276 75,284 752,180 -28,-228 -112,-341 -210,-493 -126,38 -187,54 -310,122l-232 191z"/>
   <path fill="#6A6B76" d="M63911 13196c226,-52 422,-150 509,-326l-97 -231 -695 107 283 450z"/>
   <path fill="#6A6B76" d="M64299 11935c-157,-106 -289,-133 -551,-152l-142 552 625 -95 68 -305z"/>
   <polygon fill="#6A6B76" points="66405,10761 66935,10798 67165,10398 66413,10350 "/>
   <path fill="#6A6B76" d="M64074 11425c498,61 592,112 828,-235 -97,-118 -148,-148 -251,-251 -277,96 -423,225 -577,486z"/>
   <path fill="#6A6B76" d="M67449 10928l346 175 527 -265c-171,-144 -359,-242 -593,-289l-280 379z"/>
   <path fill="#6A6B76" d="M65114 13452l-335 -192 -475 283c78,79 82,99 231,177 105,54 198,81 333,129l246 -397z"/>
   <path fill="#6A6B76" d="M65081 10693c316,311 231,293 773,160l-20 -373c-285,-12 -554,101 -753,213z"/>
   <path fill="#0E3466" d="M45021 39502c290,96 124,209 402,415 606,130 1089,-266 1617,147 500,392 390,885 709,1171 586,210 1555,-775 2083,-429 -50,304 -519,247 -1461,596 -273,101 -516,299 -824,163 -249,-110 -278,-431 -543,-547 -419,-183 -1260,263 -1606,429 -392,190 -1217,700 -1448,565 190,-433 2872,-1360 2958,-1407 -12,-640 -671,-437 -1215,-388 -268,25 -584,66 -737,-154 -157,-225 -101,-445 65,-561zm623 1093c-106,-22 -93,8 -302,116 -149,77 -209,102 -371,177 -452,211 -2181,921 -1320,1487 631,415 2325,-1036 3191,-1040 228,618 701,795 1429,518 276,-105 491,-189 780,-294 121,-44 264,-110 409,-145 193,-46 308,-33 499,-93 660,-207 517,-1054 -314,-1031 -577,16 -1097,392 -1617,459 -122,-499 -297,-866 -721,-1092 -667,-355 -872,-195 -1549,-164 -230,-214 -181,-477 -669,-465 -350,8 -633,195 -678,515 -45,318 114,723 278,857 225,183 617,164 955,195z"/>
   <path fill="#0E3466" d="M42270 51779c89,438 5,676 -287,859 -264,166 -626,219 -846,-45 -382,-460 246,-1253 1133,-814zm-691 -520c-1529,339 -1177,2263 349,1855 1404,-377 1153,-2187 -349,-1855z"/>
   <path fill="#083768" d="M51662 30975c-12,-12 -27,-30 -33,-39l-166 -324c-206,-891 292,-1359 890,-1699 1079,-611 2088,-775 3260,-185 492,248 1210,1154 923,2160 -194,678 -2022,1668 -2354,850 -81,-200 -146,-677 -174,-830 -59,-333 40,-499 391,-551 429,248 243,603 459,1073 243,14 357,-26 546,-137 505,-292 459,-776 482,-1370 -68,-857 -1620,-1385 -2702,-984 -2096,777 -932,1940 -934,2445 -164,163 -1358,865 -1618,800 -29,-228 897,-656 1189,-805l-159 -404zm-382 185c-436,416 -1261,384 -1172,1163 365,334 618,365 1124,92 352,-189 668,-331 1003,-537 1314,-811 -231,-1109 323,-2089 435,-768 2615,-1081 2962,367 158,656 -239,813 -415,959 -83,-342 -119,-755 -344,-924 -268,-202 -820,-115 -1009,121 -246,308 -64,701 8,1086 88,466 70,740 465,873 718,243 3240,-504 2596,-2537 -381,-1200 -1955,-1883 -3541,-1509 -592,139 -1355,547 -1705,913 -581,605 -491,1270 -295,2022z"/>
   <path fill="#083768" d="M38011 50662c-52,28 -15,-17 -109,111 -52,70 -56,96 -104,163 -77,109 -161,187 -277,292 -166,-70 -70,-10 -176,-109 -225,112 228,296 -129,3 5,-381 412,-915 596,-1252 232,-426 451,-847 1087,-643 349,418 364,1444 763,1824 771,-294 1022,-1738 1847,-1627 235,663 -926,1739 -1317,2160 -434,466 -238,652 -28,1253 167,479 487,884 392,1396 -451,348 -555,243 -981,-16 -752,-456 -2395,-381 -1445,-937 369,-216 807,-57 1229,-46 -21,-309 -746,-2679 -903,-2901 -243,106 -124,253 -445,329zm317 470l539 1684c-437,37 -680,-11 -1052,210 -301,179 -535,511 -305,916 310,548 635,-132 1950,662 870,525 1571,-28 1546,-663 -11,-270 -522,-1227 -702,-1948 360,-497 1721,-1662 1710,-2412 -10,-629 -845,-717 -1294,-282 -359,347 -514,938 -932,1161 -116,-447 -402,-1410 -829,-1590 -1000,-421 -1403,810 -1888,1604 -143,235 -391,509 -261,873 119,335 858,725 1518,-215z"/>
   <path fill="#083768" d="M48022 42676c130,757 -820,1010 -1133,544 -423,-630 626,-857 1133,-544zm-2428 -262c103,-232 226,-378 513,-208 47,264 -67,372 -349,386 -126,-100 -77,-40 -164,-178zm767 399c320,1472 1692,910 1986,518 310,-414 130,-917 -269,-1093 -484,-214 -975,-99 -1382,94l-75 -124c-6,-11 -15,-32 -21,-44 -561,-1200 -2059,154 -1136,678 317,180 583,49 897,-29z"/>
   <path fill="#C49B24" d="M84657 44345c607,-668 401,-451 927,-1292 2047,-3266 4218,-6849 6261,-10018 921,-1427 1983,-3306 2890,-4612 11,-16 43,-62 54,-78l172 -298c158,-275 290,-514 455,-750l1779 -2847c314,-522 541,-890 892,-1457 155,-251 324,-489 407,-751 145,-458 -43,-709 -96,-1063l-123 -200c-317,58 -202,-5 -347,275 -60,117 -92,211 -142,314 -337,692 -1064,1679 -1356,2189 -78,136 -96,178 -171,296 -129,203 -243,395 -385,619 -253,402 -500,776 -754,1189 -662,1075 -2346,3599 -2905,4593 -995,1769 -2916,4506 -4033,6414 -148,253 -241,353 -390,616l-2677 4225c-431,628 -154,193 -258,613 -59,239 -256,390 -268,686 -1,20 5,161 7,191l28 187c43,408 -237,479 -621,696 -1502,847 -1647,751 -3109,538 -638,-93 -3972,-1202 -4581,-1424 -974,-354 -1999,-693 -3008,-1016 -1825,-584 -4032,-1444 -5868,-2012l-2645 -851c-168,-39 -225,-58 -332,16l2392 950c2481,845 4830,1758 7401,2584 1666,535 3319,1147 4991,1701 821,272 1762,637 2794,494 689,-95 825,70 1470,-196 378,-156 770,-418 1149,-521z"/>
   <path fill="#C49B24" d="M98331 19304l-56 -118c-164,60 -92,20 -204,120 -51,46 -64,74 -116,162l-5935 9323c-2122,3280 -4137,6390 -6153,9588 -259,410 -511,833 -798,1211l-400 610c-453,749 222,861 -321,1212 -477,308 -1504,847 -2023,932 -919,152 -2609,-328 -3313,-622l-2958 -942c-1959,-670 -3990,-1367 -5901,-1986l-4442 -1457c-200,-69 -1130,-393 -1330,-387 -147,4 -61,-7 -141,38 219,338 5308,2003 5800,2173l8909 2962c2188,723 1327,483 3313,499 925,7 2274,-431 2718,-1244 152,-279 227,-360 387,-618 67,-108 132,-218 204,-338l960 -1438c2043,-3223 4126,-6460 6194,-9688 1079,-1684 2046,-3141 3086,-4826l2320 -3644c488,-809 350,-600 200,-1522z"/>
   <path fill="#C49B16" d="M24531 57951c-207,-25 -168,-8 -332,-85 -13,-6 -29,-16 -42,-23l-8527 -3867c-184,-79 -380,-129 -522,-276 -174,-179 115,-44 -199,-166 -163,-63 -28,26 -246,-58l-1085 -516c-222,-96 -360,-132 -557,-250 -327,-195 -661,-269 -978,-489 -218,-151 -288,-127 -559,-246 -241,-106 -217,-171 -540,-264 -301,-87 -356,-67 -603,-206 -133,-75 -59,-55 -251,-149l-2358 -1086c-4,-2 -20,-11 -24,-13l-1488 -658c-154,-82 -109,-86 -237,-149 -9,-4 -27,-12 -36,-16l-175 -71c-328,-153 -452,-74 -754,-276 -283,-189 -188,-293 -584,-414l-2083 -1030c-121,-78 -42,-36 -117,-82 -102,-62 -169,-80 -266,-138l-198 -138c-12,-8 -30,-17 -42,-25 -190,-117 -15,43 -241,-165 -272,-250 -443,-1010 -443,-1328 -1,-436 144,-574 340,-900l494 -709c83,-130 44,-117 143,-260l693 -635c222,-130 30,129 112,-120l424 -559c8,-13 17,-31 25,-43l53 -84c207,-286 451,-429 659,-745l2366 -2657c52,-74 55,-68 94,-110 168,-183 253,-259 178,-522l-988 980c-463,483 -687,940 -862,1072l-252 232c-420,545 -663,727 -811,931 -469,643 -349,400 -772,899 -10,11 -22,27 -31,38 -9,11 -21,27 -30,38l-343 391c-478,571 -299,260 -890,984l-660 811c-69,88 -125,198 -175,293 -125,242 -136,485 -146,727 -13,303 -75,490 73,813 125,275 236,319 72,591 -245,-45 -285,-148 -411,-373 -560,-999 -139,-1353 -124,-1957 -40,262 -212,572 -254,819 -158,941 604,2343 1124,2456 39,-92 69,31 -35,-97 -183,-227 -174,-44 -322,-393 454,64 760,306 1104,488l2131 960c306,142 626,346 948,506l7412 3339c427,160 585,312 951,498 1318,672 2735,1232 4120,1908 1223,598 1994,995 3225,1426l2035 962c1892,964 4274,2041 6221,2888l3638 1667c253,90 325,116 526,210 185,87 294,162 484,247l3641 1712c500,197 563,301 995,473 1197,477 2670,624 3899,13 427,-213 142,123 1051,-420 716,-428 1103,-928 1527,-1572l12693 -20531c130,-421 3710,-6061 4322,-7060 814,-1326 1625,-2559 2423,-4009 185,-337 389,-636 610,-991l4625 -7496c115,-195 194,-259 319,-480l921 -1491c125,-194 158,-305 291,-509 244,-373 396,-669 614,-997l2468 -3957c226,-380 398,-649 622,-1005 821,-1306 1671,-2640 2435,-3929l-111 -938c-28,-423 -161,-570 -322,-651 112,427 415,976 120,1478l-2075 3355c-900,1433 -1825,2903 -2767,4471 -916,1524 -1835,2892 -2779,4449l-2743 4426c-3302,5157 -6406,10455 -9662,15590 -2807,4428 -5475,8888 -8279,13353l-2774 4461c-742,1175 -1857,3367 -3260,3922l-1448 243c-442,16 -1253,-76 -1672,-156 -277,-54 -406,-198 -628,-312 -249,-128 -431,-98 -631,-255 -277,-217 0,-108 -249,-193 -122,-42 -234,-40 -386,-97l-1960 -802c-57,-47 -97,-162 -385,-221 -772,-158 -799,-378 -1208,-521 -552,-194 -1542,-639 -2011,-939 -239,-153 -531,-187 -805,-337 -609,-334 -750,-311 -1565,-653l-4908 -2250z"/>
   <path fill="#C49B16" d="M84641 44760c-161,467 -1570,993 -2053,1189 -902,367 -3020,-458 -3875,-730l-11828 -4035c-221,-74 -854,-301 -1083,-276l-90 32c625,509 12830,4646 14110,5070 1282,424 1397,277 2780,295 924,12 1639,-585 2275,-925 202,-389 561,-957 821,-1341 296,-439 610,-925 876,-1398 514,-916 1147,-1836 1702,-2797 152,-263 264,-400 417,-647l853 -1435c114,-198 316,-446 454,-674l7711 -12525c298,-483 724,-975 676,-1687 -335,134 -132,-10 -523,649l-2956 4812c-75,122 -141,211 -209,320l-6583 10704c-578,921 -1102,1810 -1682,2737 -411,655 -1275,2208 -1793,2662z"/>
   <path fill="#0A0A09" d="M41579 51259c1502,-332 1753,1478 349,1855 -1526,408 -1878,-1516 -349,-1855zm-3251 -127c-660,940 -1399,550 -1518,215 -130,-364 118,-638 261,-873 485,-794 888,-2025 1888,-1604 427,180 713,1143 829,1590 418,-223 573,-814 932,-1161 449,-435 1284,-347 1294,282 11,750 -1350,1915 -1710,2412 180,721 691,1678 702,1948 25,635 -676,1188 -1546,663 -1315,-794 -1640,-114 -1950,-662 -230,-405 4,-737 305,-916 372,-221 615,-173 1052,-210l-539 -1684zm8033 -8319c-314,78 -580,209 -897,29 -923,-524 575,-1878 1136,-678 6,12 15,33 21,44l75 124c407,-193 898,-308 1382,-94 399,176 579,679 269,1093 -294,392 -1666,954 -1986,-518zm1910 -960c-728,277 -1201,100 -1429,-518 -866,4 -2560,1455 -3191,1040 -861,-566 868,-1276 1320,-1487 162,-75 222,-100 371,-177 209,-108 196,-138 302,-116 -338,-31 -730,-12 -955,-195 -164,-134 -323,-539 -278,-857 45,-320 328,-507 678,-515 488,-12 439,251 669,465 677,-31 882,-191 1549,164 424,226 599,593 721,1092 520,-67 1040,-443 1617,-459 831,-23 974,824 314,1031 -191,60 -306,47 -499,93 -145,35 -288,101 -409,145 -289,105 -504,189 -780,294zm-350 -5602c-163,-277 -249,-169 -300,-472 -73,-436 458,-1507 583,-1636 251,-257 934,-318 1091,59 154,369 -199,808 -272,1178 434,352 607,123 956,-133 586,-431 2396,-1584 2967,-628 188,314 203,739 248,1162 62,577 29,786 -405,1006 -440,224 -1851,696 -2143,153 -122,-768 588,-731 1165,-958l-29 -531c-843,186 -1268,1192 -2711,1297 -400,574 -1084,2269 -2042,1321 -181,-359 596,-1248 892,-1818zm3359 -5091c-196,-752 -286,-1417 295,-2022 350,-366 1113,-774 1705,-913 1586,-374 3160,309 3541,1509 644,2033 -1878,2780 -2596,2537 -395,-133 -377,-407 -465,-873 -72,-385 -254,-778 -8,-1086 189,-236 741,-323 1009,-121 225,169 261,582 344,924 176,-146 573,-303 415,-959 -347,-1448 -2527,-1135 -2962,-367 -554,980 991,1278 -323,2089 -335,206 -651,348 -1003,537 -506,273 -759,242 -1124,-92 -89,-779 736,-747 1172,-1163zm2841 -5692c-2,-533 159,-599 621,-726 323,-89 727,-171 1061,-225 234,-38 967,-94 1147,-187 206,-107 371,-470 630,-643 611,-410 1751,-11 876,813 -311,293 -354,392 -406,884 -36,331 -229,773 -208,1020 407,161 1349,509 1463,791 265,657 -666,852 -1212,607 -280,-125 -464,-231 -796,-351 -194,-70 -575,-220 -760,-374 -553,-459 -52,-937 89,-1621 -952,49 -1817,561 -2505,12zm7230 -4891c-52,-524 318,-621 690,-804 336,-166 657,-344 1035,-438 446,-111 1000,-66 980,432 -12,316 -404,747 -546,944 -1538,2124 -807,2328 -3546,2245 -800,-25 -1867,-185 -2177,-748 -511,-931 319,-2990 859,-3219 445,-190 1013,-24 890,487 -165,687 -828,1178 -526,2254 375,288 1359,293 1892,275 472,-16 666,-431 999,-1093 -271,-161 -328,-15 -550,-335zm4945 -11233c2046,-172 4554,748 4253,2855 -358,2497 -4730,3782 -7200,2309 -2828,-1686 -686,-4860 2947,-5164zm-10800 1567c-39,-573 508,-561 933,-404 -47,570 -436,689 -933,404zm-2882 -784c40,-257 138,-302 294,-494l648 134c-45,591 -581,735 -942,360zm-2810 -692c39,-563 444,-538 919,-382 -13,549 -468,695 -919,382zm-2780 -693c103,-729 851,-536 919,-336 66,190 -181,406 -323,444 -262,69 -441,-37 -596,-108zm10282 -365c47,-235 144,-307 293,-481l645 130c-42,627 -561,674 -938,351zm887 5724c191,-433 890,-1325 1203,-1785l2394 -3365c461,-607 452,-822 996,-1218 580,-422 889,-172 906,119 20,333 -23,164 -116,327 -440,781 -3927,5684 -4300,6168 408,259 3879,1067 4655,1303 1309,399 2076,608 3349,1077 696,257 845,211 853,634 -812,542 -3977,-526 -5173,-887l-2007 -544c-463,-123 -1914,-580 -2334,-591 -38,228 -268,377 -424,588l-13117 18773c-129,183 -277,395 -409,596l-4832 6887c-143,210 -310,445 -445,627l-8173 10991c-185,227 -827,885 -1081,1012 226,-1045 860,-1861 1458,-2766l12918 -18707c169,-227 296,-438 442,-630l6516 -9226c1648,-2314 3634,-5217 5227,-7364 105,-141 733,-1147 781,-1171 -456,-20 -9091,-2376 -10204,-2695 -1651,-474 -3476,-907 -5113,-1380 -414,-120 -870,-225 -1273,-339 -1249,-352 -2684,-586 -3730,-1005 66,-141 48,-64 121,-148 145,-169 93,99 36,-40 -716,-210 -765,150 -1473,-282 -113,-69 -123,-19 -164,-170 -106,-384 -29,-88 30,-222 906,-443 9740,2025 11290,2478l11120 2920c-210,271 -389,347 -443,752 273,92 542,201 875,202 199,-166 435,-360 465,-745l-824 -174zm-3724 -6383c41,-505 498,-628 893,-362 136,529 -506,543 -893,362zm-2784 -704c17,-537 562,-596 908,-304 -80,471 -472,584 -908,304zm-2743 -673c-25,-503 603,-588 899,-300 -78,442 -472,556 -899,300zm-8208 54706c352,-314 823,-1159 1091,-1594 339,-549 679,-1020 1026,-1587 1986,-3250 4166,-6354 6132,-9609 1632,-2702 3472,-5323 5114,-8015 858,-1408 2300,-3456 3050,-4789 277,-493 719,-1114 1044,-1634l7149 -11204c353,-549 689,-1088 1049,-1631 498,-750 6931,-10748 7114,-11179l-32568 -7771 -1191 1339c-127,137 -176,245 -295,377 -121,136 -172,167 -288,317l-867 1008c-404,553 -2729,3103 -3469,4034l-842 966c-129,154 -189,175 -322,347l-546 661c-113,135 -176,161 -292,310 -760,974 -2167,2434 -2924,3371 -736,911 -1575,1745 -2280,2680 -472,626 -1184,1302 -1708,1976l-1162 1314c-146,181 -121,173 -306,362 -130,134 -151,205 -269,336 -132,145 -161,129 -294,310l-4055 4718c-189,181 -137,142 -281,325l-2607 3019c-130,145 -159,132 -290,312l-1735 2017c-138,187 -118,139 -284,316l-1423 1661c-139,185 -184,180 -322,347l-2311 2713c-133,148 -158,131 -291,312 -128,174 -114,169 -275,327l-2299 2659c-538,701 -1207,1309 -1735,2017l-1986 2279c203,225 8164,3707 9113,4114 3843,1648 7676,3462 11509,5103l6866 3048c1492,684 3135,1340 4594,2037 759,362 1556,700 2321,1028 552,236 1826,897 2345,953z"/>
   <path fill="#C79A06" d="M40734 61047c-519,-56 -1793,-717 -2345,-953 -765,-328 -1562,-666 -2321,-1028 -1459,-697 -3102,-1353 -4594,-2037l-6866 -3048c-3833,-1641 -7666,-3455 -11509,-5103 -949,-407 -8910,-3889 -9113,-4114l1986 -2279c528,-708 1197,-1316 1735,-2017l2299 -2659c161,-158 147,-153 275,-327 133,-181 158,-164 291,-312l2311 -2713c138,-167 183,-162 322,-347l1423 -1661c166,-177 146,-129 284,-316l1735 -2017c131,-180 160,-167 290,-312l2607 -3019c144,-183 92,-144 281,-325l4055 -4718c133,-181 162,-165 294,-310 118,-131 139,-202 269,-336 185,-189 160,-181 306,-362l1162 -1314c524,-674 1236,-1350 1708,-1976 705,-935 1544,-1769 2280,-2680 757,-937 2164,-2397 2924,-3371 116,-149 179,-175 292,-310l546 -661c133,-172 193,-193 322,-347l842 -966c740,-931 3065,-3481 3469,-4034l867 -1008c116,-150 167,-181 288,-317 119,-132 168,-240 295,-377l1191 -1339 32568 7771c-183,431 -6616,10429 -7114,11179 -360,543 -696,1082 -1049,1631l-7149 11204c-325,520 -767,1141 -1044,1634 -750,1333 -2192,3381 -3050,4789 -1642,2692 -3482,5313 -5114,8015 -1966,3255 -4146,6359 -6132,9609 -347,567 -687,1038 -1026,1587 -268,435 -739,1280 -1091,1594zm-16203 -3096l4908 2250c815,342 956,319 1565,653 274,150 566,184 805,337 469,300 1459,745 2011,939 409,143 436,363 1208,521 288,59 328,174 385,221l1960 802c152,57 264,55 386,97 249,85 -28,-24 249,193 200,157 382,127 631,255 222,114 351,258 628,312 419,80 1230,172 1672,156l1448 -243c1403,-555 2518,-2747 3260,-3922l2774 -4461c2804,-4465 5472,-8925 8279,-13353 3256,-5135 6360,-10433 9662,-15590l2743 -4426c944,-1557 1863,-2925 2779,-4449 942,-1568 1867,-3038 2767,-4471l2075 -3355c295,-502 -8,-1051 -120,-1478 -364,9 -164,-109 -511,-267l-4724 -1303c-205,-91 -458,-113 -618,-110 -176,2 -275,-33 -393,-71 -133,-44 -121,-48 -279,-88 -485,-124 -833,-159 -1310,-324l-1888 -494c-210,-39 -400,-65 -603,-126 -1169,-350 -2485,-542 -3699,-856l-2168 -550c-73,-17 -98,-22 -169,-42l-1328 -288c-1215,-330 -2439,-567 -3663,-834l-2308 -563c-385,-121 -2606,-543 -3559,-809l-3130 -767c-346,-115 -508,-111 -1084,-237l-1223 -308c-1554,-240 -1387,-479 -3443,-603 -72,149 -66,106 -125,232 -91,194 -102,263 -307,317l-153 47c-152,106 -88,103 -122,194l-17 343c1,10 14,31 -16,153 -57,-438 69,-160 -171,-247 -87,61 -157,117 -224,198l-102 205c-169,305 -1173,790 -839,1257 -416,104 69,-62 -251,34 -212,64 -45,23 -150,126 -192,189 -71,31 -222,147 -151,116 -206,316 -313,439l-622 748c-160,67 -263,323 -398,442 -264,234 -15,127 -405,453l-288 396c-105,200 -280,450 -495,543 -200,85 -41,-56 -194,113l-141 196c-62,106 -14,83 -118,200l-377 433c-127,215 1,53 -132,164l-416 498c-123,120 -214,419 -508,617l-87 57c-156,136 -42,12 -98,268l-596 650c-5,5 -17,19 -22,23 -4,5 -19,17 -23,21 -163,161 13,-35 -64,54 -334,387 294,-138 -83,113 -177,118 -286,93 -421,236 -181,191 -44,-10 -152,265l-416 620c-100,85 -48,23 -95,49l-207 189c-5,7 -18,22 -23,29 -4,8 -17,24 -21,32l-39 72c-7,14 -21,59 -27,71 -53,95 -13,-2 -149,103l-896 998c-113,144 -106,256 -248,349 -99,65 -56,-60 -144,173 -49,128 -60,303 -196,387 -102,62 -56,19 -110,34 -16,4 -109,20 -125,27 -141,64 -176,211 -229,274 -220,262 -156,-83 -141,412 -159,-69 -38,-35 -265,8 69,198 19,143 199,198 -232,39 -201,70 -371,167l-52 29c-183,86 -328,134 -399,291 -71,157 -316,246 -401,427 -160,340 -555,589 -756,928 -4,6 -12,23 -16,30l-254 478c-53,123 -58,71 -141,103 -9,4 -30,8 -40,12l-162 94c-78,62 -463,461 -532,555 -9,11 -20,28 -27,39l-1777 2034c-10,10 -25,23 -34,33l-479 594c-250,339 -193,228 -491,446 -366,269 -744,617 -1014,991l-114 212c-133,267 -784,856 -991,1095l-298 474c-170,208 -424,352 -584,582 -412,590 -308,321 -696,782l-646 833c-330,549 -310,363 -361,374 -120,25 -30,-22 -133,61 -85,67 110,-110 -66,66 -10,10 -24,26 -34,36l-1161 1263c-9,9 -23,24 -32,33l-62 60c-155,162 -135,351 -428,652 -10,10 -25,24 -34,34l-95 105c-85,134 -38,216 -93,344 -4,9 -14,25 -18,34 -130,229 -380,329 -539,512 -95,110 -105,173 -187,281 -354,467 -800,631 -799,1136 -172,-169 -7,-56 -311,-92l-255 610c-31,32 -147,103 -189,138 -487,404 -170,358 -324,695 -4,4 -316,64 -501,226l-458 451c-173,210 -122,272 -349,419 -220,142 -636,631 -489,915 -256,-59 -281,-30 -438,161 -9,11 -22,26 -31,38 -162,205 -342,353 -433,608l-22 74c-2,8 -8,26 -11,33 -2,8 -8,26 -10,33l-221 433c-160,236 -699,-38 -381,421 -352,16 -424,287 -652,502l-49 43c-6,5 -20,18 -26,23l-424 358c-164,188 -55,273 -210,461 -242,297 -305,-12 -240,561 -21,-7 -73,-44 -86,-48 -105,-33 -2,-15 -64,-13 -140,2 9,-127 -54,61 -201,70 -18,71 -56,201 -125,48 -62,-39 -163,55l-199 188c-15,9 -60,27 -76,33 -171,66 -228,109 -341,293 -314,514 -175,116 -408,330l-501 773c-76,78 -122,114 -200,202 -9,10 -23,25 -32,36l-59 77c-9,12 -20,29 -28,40l-292 284c-13,4 -53,11 -65,16 -43,19 -15,-35 -65,45 -193,306 290,562 -379,457 -91,276 -56,187 -213,328 -180,161 -124,105 -200,366 -34,119 51,-108 -28,81l-660 804c-48,56 -73,63 -130,137l-493 929c-207,201 -398,619 -557,733 -504,362 -323,365 -580,589 -193,169 -118,8 -230,232 -67,-45 12,-6 -130,-74 -7,-3 -121,-44 -144,-53 127,314 -17,-2 156,174 140,142 145,99 131,232l-21 68c-131,336 -235,112 -512,487l-92 112c169,118 137,40 200,266l-197 134c45,28 89,33 147,50 59,17 17,-18 113,27 -71,108 -78,144 -135,265 312,129 266,-219 263,340l270 -68c-66,258 -108,159 65,333l362 188c272,110 165,62 305,215 6,7 18,24 24,30 6,7 18,21 24,27l180 142c129,-335 -60,9 44,-262 231,310 51,15 251,133l134 114c112,65 363,85 484,298 91,161 17,87 259,208 304,153 183,232 439,361l608 201c127,19 178,57 189,67 509,450 523,253 779,374 14,6 87,54 110,73 127,111 97,106 178,237 160,-66 178,-29 315,-118 134,241 -14,142 223,254 108,52 111,26 189,47 232,62 -47,63 494,202 158,41 62,102 323,276l907 436c14,6 31,15 45,21l714 379c149,100 451,108 639,213l966 521c327,119 596,213 817,431l324 154c309,95 58,-1 270,131 94,60 195,118 326,144l299 28c545,201 459,394 726,472l1147 539c132,55 386,81 548,193 468,321 1177,518 1627,844 232,168 620,258 873,382l208 96c174,49 84,-14 307,85l4385 2110c266,133 958,338 1153,593z"/>
   <path fill="#171716" d="M73234 32433c-144,-2017 2905,-2714 4734,-2599 4105,258 6415,3302 3081,4934 -2703,1322 -7652,-37 -7815,-2335zm12291 -5024l-93 279c-333,75 -609,-36 -909,-119 82,-654 766,-433 1002,-160zm-4931 -1005c53,-557 747,-392 984,-134 -53,533 -697,323 -984,134zm5173 -602l84 -288c323,-85 616,-48 887,154l-34 279c-279,101 -698,57 -937,-145zm-3882 -1072c66,-499 654,-402 971,-134 -20,283 -124,356 -443,319 -182,-21 -386,-80 -528,-185zm5081 -603c169,-561 920,-208 963,-47 120,446 -761,252 -963,47zm-3814 -1005c48,-544 744,-305 959,-122 -73,498 -692,303 -959,122zm5941 -603c-121,249 -103,260 -463,219 -172,-19 -322,-70 -470,-152 0,-593 801,-332 933,-67zm-4225 -1265c347,44 440,108 412,406 -320,160 -622,38 -928,-76 50,-309 177,-372 516,-330zm-16571 3945c1554,386 3521,1058 5128,1466 370,94 523,203 846,90 85,-236 2150,-2637 2469,-2996l4392 -5187c227,-275 436,-481 654,-751 474,-588 2122,-2575 2887,-2590 290,461 133,506 -167,890l-568 629c-1030,1265 -8027,9783 -8688,10439 687,276 6595,1964 7806,2318 413,121 867,251 1294,376 250,72 1069,247 1131,542l216 171c-270,802 -1770,141 -2662,-130 -925,-280 -1878,-572 -2796,-821 -943,-256 -1853,-579 -2796,-824 -592,-154 -2419,-817 -2900,-778 -478,625 -970,1192 -1451,1782 -519,637 -1071,1111 -1572,1745 -239,463 -686,600 -955,956 -246,326 28,-52 -49,352 -116,72 -305,194 -459,270 -101,50 -144,77 -259,96 -685,111 -377,-630 -300,-707l265 -217c220,-175 289,-388 479,-656 235,-332 521,-911 795,-1041 238,-487 1499,-1905 1915,-2412 206,-252 559,-512 617,-872 -1659,-187 -846,-179 -1581,-357 -248,-36 -405,-88 -584,-243 15,-10 42,-36 51,-20l313 -99c12,-3 35,-6 50,-15 -295,-157 -3504,-1034 -3843,-1032 -261,553 -733,1097 -956,1610 451,51 911,113 1241,396l2 355c-625,189 -994,93 -1644,-93l-792 1226c816,18 2090,1430 969,1576 -118,15 -290,9 -408,-9 -2,0 -169,-40 -176,-42 -274,-114 -59,-8 -178,-129 149,-38 446,0 716,-13l170 -214c-82,-237 -312,-456 -470,-612 -334,-332 -290,-204 -479,-302 -190,-98 -144,31 -185,-191 -98,91 -50,-118 -97,154 81,66 12,36 149,98 14,6 86,22 107,28 510,177 1752,1578 -494,649 -299,-48 -282,76 -414,290 -92,149 -171,273 -278,469 -191,348 -426,550 -462,1011 300,-4 2770,787 2981,945 400,17 1940,574 2459,735 842,261 1635,516 2492,789 2759,880 5885,1805 8598,2720 665,224 661,223 1030,-304 3579,-5108 7054,-10309 10632,-15360 535,-757 2266,-3212 2636,-3860 -294,-227 -7645,-1931 -8237,-2092l-10999 -2702c-214,478 -663,1123 -941,1563l-2866 4643c-373,624 -3636,5772 -3784,6292z"/>
   <path fill="#956804" d="M59761 38994c58,-110 161,-253 207,-386 397,16 234,26 495,128l2380 910c323,126 154,-250 254,284 -764,130 -2156,-450 -2974,-750l-362 -186zm2743 -4412c307,73 718,231 1008,338l890 431c257,142 660,243 986,361 171,62 300,109 499,172 261,83 335,53 457,253l-1240 -325c-641,-240 -229,-26 -703,-130l-72 -18c-9,-3 -33,-10 -41,-14 -3,-1 -17,-8 -20,-10 -3,-1 -17,-9 -20,-11 -2,-1 -16,-10 -19,-12 -2,-1 -16,-9 -18,-11 -44,-20 38,-32 -77,-21 -126,13 8,-72 -147,205 -416,-222 -192,-122 -656,-61 -307,40 -264,-91 -449,-6 -150,70 -55,23 -98,171 -124,421 -21,247 82,399 58,85 14,-36 63,120 3,9 4,34 5,42 2,7 -2,50 -1,42 1,-9 -1,28 -5,42l-152 34c-244,24 -379,-49 -539,-108 -289,-107 -426,-63 -702,-281l969 -1602zm14535 -24054c-764,1289 -1614,2623 -2435,3929 -224,356 -396,625 -622,1005l-2468 3957c-218,328 -370,624 -614,997 -133,204 -166,315 -291,509l-921 1491c-125,221 -204,285 -319,480l-4625 7496c-221,355 -425,654 -610,991 -798,1450 -1609,2683 -2423,4009 -612,999 -4192,6639 -4322,7060 323,-136 175,-102 439,-501 120,-180 254,-353 387,-546 188,-271 463,-920 782,-1108l-163 258c-10,15 -68,116 -72,123 776,370 2229,792 3080,1092 1075,379 2036,713 3135,1099 577,202 1024,378 1521,543 577,192 1079,370 1587,563l10921 3819c905,318 1371,285 2246,294 1024,10 1120,-51 2012,-532 275,-148 530,-241 494,-453 -41,-15 9,-29 -108,2 -6,1 -162,66 -170,69 -369,165 -628,424 -1051,508 -253,50 -550,74 -847,100 -518,45 -1293,-33 -1808,-209l-4633 -1598c-202,-59 -599,-206 -796,-270l-7717 -2642c-597,-207 -1061,-336 -1549,-518l-2190 -750c-16,-6 -34,-10 -51,-16l-3539 -1216c-173,-61 -266,-134 -345,-293l131 -58c17,-4 42,-16 62,-19 216,-27 433,129 602,185 2341,780 4774,1706 7108,2479l7896 2757c1054,371 2124,741 3182,1109 1455,505 3605,1248 5156,452 251,-129 462,-260 674,-388 203,-123 441,-261 459,-498 -807,128 -1163,875 -3235,497 -1591,-290 -3219,-1001 -4710,-1504l-8419 -2901c-186,-71 -266,-85 -450,-134 -186,-49 -202,-73 -397,-137l-1582 -488c-902,-284 -640,-21 -1129,-55 -662,-46 -1321,-382 -1976,-590l-2687 -906c-6,-2 -200,-74 -201,-75l-148 -91c-13,-9 -34,-23 -49,-36 60,-230 210,-426 383,-603 469,62 1127,358 1599,516l11002 3808c512,175 993,385 1541,546 1184,347 3416,1171 4741,1617 1140,384 2033,821 3355,815 1116,-5 1587,-80 2476,-616 113,-68 218,-173 290,-246 181,-185 139,-86 249,-326 -636,340 -1351,937 -2275,925 -1383,-18 -1498,129 -2780,-295 -1280,-424 -13485,-4561 -14110,-5070l90 -32c229,-25 862,202 1083,276l11828 4035c855,272 2973,1097 3875,730 483,-196 1892,-722 2053,-1189 -223,76 -418,216 -673,365 -751,437 -1669,585 -2575,473 -743,-92 -1317,-239 -1954,-509 -224,-95 298,48 -136,-35 -199,-39 -33,5 -203,-40 -282,-76 -533,-189 -804,-284 -2526,-877 -5028,-1652 -7546,-2563l-9444 -3212c-502,-181 -965,-257 -1213,-493 307,-476 1049,-1806 1274,-1986l2172 756c107,49 55,19 123,67l77 75c327,334 2229,816 2474,959 303,15 6134,1982 6631,2158 737,261 1492,463 2243,723 591,203 5133,1743 5569,1794 443,52 897,90 1408,94 528,4 912,-57 1310,-210 340,-130 667,-391 1051,-419l-296 466c-32,32 -171,165 -214,196l-249 103c-126,38 -257,139 -423,236l-1696 344 -1213 -187c-141,-23 -107,-23 -256,-90l-918 -284c-222,-71 -363,-87 -587,-147 -253,-68 -303,-150 -559,-250 -220,-86 -363,-80 -577,-161l-1719 -618c-120,-38 -163,-26 -278,-57 -289,-77 -63,-81 -602,-208l-2475 -870c-207,-77 -334,-42 -596,-148 -1028,-415 -1754,-547 -2311,-776l-1016 -387c-387,-153 -457,-62 -880,-266 -474,-228 -36,78 -703,-311 -73,-42 -57,-33 -170,-83 -263,-158 -589,-224 -889,-297 -271,-65 -1186,-307 -1481,-283 -15,1 -35,5 -50,8 -13,2 -33,9 -46,11 -334,61 -129,-15 -384,-20l-132 19c-8,2 -27,9 -34,10 -6,0 -23,5 -29,5 -96,4 -103,-57 -280,-29 -11,1 -36,10 -44,12 -9,2 -31,9 -45,14 -31,70 -90,192 -35,424 77,326 -6,177 173,257l-946 -235c-210,-60 -70,-33 -218,-91 -502,-197 -428,-25 -496,28l2785 943c981,332 1799,611 2855,979l12742 4333c589,197 1001,244 1663,238 1274,-10 1290,88 2317,-446 431,-224 384,-135 544,-510 -379,103 -771,365 -1149,521 -645,266 -781,101 -1470,196 -1032,143 -1973,-222 -2794,-494 -1672,-554 -3325,-1166 -4991,-1701 -2571,-826 -4920,-1739 -7401,-2584l-2392 -950c107,-74 164,-55 332,-16l2645 851c1836,568 4043,1428 5868,2012 1009,323 2034,662 3008,1016 609,222 3943,1331 4581,1424 1462,213 1607,309 3109,-538 384,-217 664,-288 621,-696l-28 -187c-2,-30 -8,-171 -7,-191 12,-296 209,-447 268,-686 104,-420 -173,15 258,-613l2677 -4225c149,-263 242,-363 390,-616 1117,-1908 3038,-4645 4033,-6414 559,-994 2243,-3518 2905,-4593 254,-413 501,-787 754,-1189 142,-224 256,-416 385,-619 75,-118 93,-160 171,-296 292,-510 1019,-1497 1356,-2189 50,-103 82,-197 142,-314 145,-280 30,-217 347,-275 47,-327 284,-397 253,-784 -27,-336 -123,-610 -197,-891 150,922 288,713 -200,1522l-2320 3644c-1040,1685 -2007,3142 -3086,4826 -2068,3228 -4151,6465 -6194,9688l-960 1438c-72,120 -137,230 -204,338 -160,258 -235,339 -387,618 -444,813 -1793,1251 -2718,1244 -1986,-16 -1125,224 -3313,-499l-8909 -2962c-492,-170 -5581,-1835 -5800,-2173 80,-45 -6,-34 141,-38 200,-6 1130,318 1330,387l4442 1457c1911,619 3942,1316 5901,1986l2958 942c704,294 2394,774 3313,622 519,-85 1546,-624 2023,-932 543,-351 -132,-463 321,-1212l400 -610c287,-378 539,-801 798,-1211 2016,-3198 4031,-6308 6153,-9588l5935 -9323c52,-88 65,-116 116,-162 112,-100 40,-60 204,-120 93,-255 332,-456 359,-760 22,-266 -63,-789 -210,-998 72,352 246,697 63,1005 -56,286 -179,422 -381,702 -171,237 -266,380 -402,593l-5394 8280c-547,833 -1081,1605 -1560,2388l-764 1185c-283,447 -496,745 -774,1168l-1532 2352c-199,345 -545,861 -766,1179 -252,361 -549,796 -751,1130l-1160 1853c-292,396 -1390,882 -1935,980 -228,42 -1563,83 -1810,63 -1094,-89 -2132,-499 -3086,-822l-8686 -2828c-1783,-547 -4179,-1314 -5676,-2043 161,-176 -13,-81 235,-130 264,-52 917,240 1160,320l9061 2935c1782,586 3430,1120 5201,1692 585,189 2108,612 2836,520 539,-68 1989,-808 2293,-1086 -258,-339 -646,-441 -1058,-327 -485,134 115,33 -239,107 -192,40 -145,-23 -333,-45 -318,-36 -227,65 -550,-74l-728 -150c-731,7 -856,-310 -1145,-420 -99,-37 -445,-42 -636,-138l-175 -99c-129,-81 -24,-32 -104,-71 -160,-76 -6,-8 -303,-26 -463,-27 -709,-190 -1134,-267l-2155 -655c-10,-3 -30,-9 -40,-13 -173,-72 -254,-242 -347,-318 83,-159 -21,-4 -28,-4l-139 -9c-482,14 -226,-45 -532,-146 -79,-26 -243,12 -422,-170l-33 -71c-157,77 -351,42 -599,21l-557 -160c-127,-43 -18,-4 -165,-33 -338,-67 -624,-240 -951,-350 -19,-7 -74,-25 -92,-30 -12,-4 -30,-10 -41,-13l-1318 -356c-441,-191 -559,-173 -647,-380 -179,43 5,52 -203,126 -105,-319 -142,-149 -374,-199 -148,-31 -162,-63 -166,-65 -327,-98 -526,-317 -919,-401 -242,-52 -188,13 -448,-93l-503 -241c-362,-196 -270,-86 -720,-219l27 -414c-1,-3 -9,-17 -11,-19l-216 -210c-142,-89 -87,-60 -311,10l104 -187c26,-184 -2005,-821 -2206,-862 53,-132 -29,-94 117,-63 36,-461 271,-663 462,-1011 107,-196 186,-320 278,-469 132,-214 115,-338 414,-290l-108 -104 78 -126c105,-249 56,-266 289,-375 15,-11 7,-33 130,-63 278,-67 -4,-8 105,19 -21,-6 -93,-22 -107,-28 -137,-62 -68,-32 -149,-98 47,-272 -1,-63 97,-154l41 -64 792 -1226 71 -192c343,36 779,253 1048,95 -124,-209 -388,-186 -841,-260 40,-304 -33,-141 123,-301 223,-513 695,-1057 956,-1610 339,-2 3548,875 3843,1032 -15,9 -38,12 -50,15l-313 99c-9,-16 -36,10 -51,20 179,155 336,207 584,243 -56,-63 -73,-92 -148,-148 634,-3 1078,272 1373,39 -171,-200 -4487,-1167 -5024,-1540 61,-168 -47,-72 108,-134 148,-520 3411,-5668 3784,-6292l2866 -4643c278,-440 727,-1085 941,-1563l10999 2702c-258,-380 238,146 -106,-222l-129 -60c294,21 804,164 1116,243 385,99 686,162 1081,259l4414 1072c458,115 1878,572 2207,407 -146,-190 8,-76 -257,-167 -772,-265 -18897,-4624 -18950,-4630 65,-294 118,-419 312,-589 53,-221 38,-234 264,-357 116,-355 273,-460 376,-924 140,-633 28,-555 26,-1112 0,198 8,413 3,608 -3,104 -27,288 -36,316 -92,278 -55,148 -169,281z"/>
   <path fill="#C49E32" d="M86887 15403c592,161 7943,1865 8237,2092 -370,648 -2101,3103 -2636,3860 -3578,5051 -7053,10252 -10632,15360 -369,527 -365,528 -1030,304 -2713,-915 -5839,-1840 -8598,-2720 -857,-273 -1650,-528 -2492,-789 -519,-161 -2059,-718 -2459,-735l-145 37c259,73 267,110 464,209 474,239 1110,369 1552,636 6,4 22,14 28,17l188 38c488,40 899,251 1382,389 670,192 1364,420 1997,629 309,102 658,185 970,306 92,36 121,55 225,101 8,4 105,47 116,51 10,3 29,8 38,11l292 136c109,21 261,-21 501,68l1016 391c9,3 29,7 39,10 28,7 110,19 175,37 158,41 361,98 516,153 331,117 286,169 589,220l886 293c292,114 1121,283 1675,492l1070 351c16,5 59,14 76,18l735 158c12,-15 22,-37 28,-48l672 -1063c87,-107 49,-44 151,-190l381 -556c8,-11 20,-27 28,-39 8,-11 20,-27 28,-39l415 -348c330,-198 57,-157 349,-356l84 -51c188,-86 224,-38 406,6 40,-152 31,-262 157,-338 182,-110 62,-30 123,3l65 55c6,6 26,48 31,37 4,-12 19,27 30,39l133 -203c217,150 210,167 434,99 87,-26 124,49 107,-234l97 -424c82,-244 172,-335 395,-475 172,-109 62,-72 331,-70 118,2 132,-10 195,2l526 234c192,102 141,140 131,374 0,20 14,185 15,234l70 -10c3,0 29,14 31,4 3,-12 25,2 36,6 -50,137 -40,97 -100,191 -315,493 -140,96 -197,657l-227 480c-6,7 -20,21 -25,30l-274 464c-142,293 -441,503 -519,848 -74,333 -425,661 -590,987 -25,51 -35,65 -57,135l-169 562c267,-82 437,-197 565,-439l237 -352c10,-8 28,-18 39,-26l369 -302c202,-334 499,-769 751,-1130 221,-318 567,-834 766,-1179l1532 -2352c278,-423 491,-721 774,-1168l764 -1185c479,-783 1013,-1555 1560,-2388l5394 -8280c136,-213 231,-356 402,-593 202,-280 325,-416 381,-702 -206,107 -58,-54 -259,234l-418 615c-3,-9 -28,-104 -26,-118l21 -70c145,-325 506,-477 361,-895 -19,-53 -65,-114 -65,-115 -4,-8 -14,-24 -18,-32l-137 -423c-111,-38 -104,72 -180,-74 -202,-390 39,-478 -644,-670 -9,-2 -28,-9 -38,-12 -437,-132 -189,-6 -544,-178 -746,-358 -814,-256 -1295,-300 -193,-18 -15,11 -128,-41 -457,-210 -308,-53 -589,-166 -544,-218 -902,-217 -1067,-274 -272,-96 -164,-194 -411,42 -100,-266 -628,-399 -731,-407 -930,-77 -376,-71 -763,-177 -4,-1 -286,-43 -438,-73l-2975 -683c-871,-151 -654,-280 -1425,-287 -198,-2 -116,-22 -283,143 -147,-259 195,-114 -332,-351 -432,-193 -111,128 -920,-205 -104,-42 -244,-54 -301,-61 -398,-50 -486,-29 -640,-274 -279,338 -9,131 -328,10 -593,-225 -1552,-284 -1630,-314l-172 -58c-11,0 -87,106 -478,-115 -475,-269 -807,-245 -1273,-341 -584,-121 121,-42 -439,-143 -179,-32 -208,-53 -324,-74l-1016 -214c-12,-3 -31,-9 -43,-12l-540 -131c-2,-1 -142,-56 -147,-59 -421,-178 -245,-94 -621,-138l-428 -134c-276,-120 -68,27 -228,-142 -194,170 -247,295 -312,589 53,6 18178,4365 18950,4630 265,91 111,-23 257,167 -329,165 -1749,-292 -2207,-407l-4414 -1072c-395,-97 -696,-160 -1081,-259 -312,-79 -822,-222 -1116,-243l129 60c344,368 -152,-158 106,222z"/>
   <path fill="#C0C0C4" d="M58193 14101l824 174c-30,385 -266,579 -465,745 -333,-1 -602,-110 -875,-202 54,-405 233,-481 443,-752l-11120 -2920c-1550,-453 -10384,-2921 -11290,-2478 -59,134 -136,-162 -30,222 41,151 51,101 164,170 708,432 757,72 1473,282 57,139 109,-129 -36,40 -73,84 -55,7 -121,148 1046,419 2481,653 3730,1005 403,114 859,219 1273,339 1637,473 3462,906 5113,1380 1113,319 9748,2675 10204,2695 -48,24 -676,1030 -781,1171 -1593,2147 -3579,5050 -5227,7364l-6516 9226c-146,192 -273,403 -442,630l-12918 18707c-598,905 -1232,1721 -1458,2766 254,-127 896,-785 1081,-1012l8173 -10991c135,-182 302,-417 445,-627l4832 -6887c132,-201 280,-413 409,-596l13117 -18773c156,-211 386,-360 424,-588 420,11 1871,468 2334,591l2007 544c1196,361 4361,1429 5173,887 -8,-423 -157,-377 -853,-634 -1273,-469 -2040,-678 -3349,-1077 -776,-236 -4247,-1044 -4655,-1303 373,-484 3860,-5387 4300,-6168 93,-163 136,6 116,-327 -17,-291 -326,-541 -906,-119 -544,396 -535,611 -996,1218l-2394 3365c-313,460 -1012,1352 -1203,1785z"/>
   <path fill="#6B5416" d="M84657 44345c-160,375 -113,286 -544,510 -1027,534 -1043,436 -2317,446 -662,6 -1074,-41 -1663,-238l-12742 -4333c-1056,-368 -1874,-647 -2855,-979l-2785 -943c68,-53 -6,-225 496,-28 148,58 8,31 218,91l946 235c-179,-80 -96,69 -173,-257 -55,-232 4,-354 35,-424 14,-5 36,-12 45,-14 8,-2 33,-11 44,-12 177,-28 184,33 280,29 6,0 23,-5 29,-5 7,-1 26,-8 34,-10l132 -19c255,5 50,81 384,20 13,-2 33,-9 46,-11 15,-3 35,-7 50,-8 295,-24 1210,218 1481,283 300,73 626,139 889,297 -46,-98 -294,-98 -442,-152l-233 -110c-160,-82 -375,-115 -320,-238 58,-131 386,-100 453,81 125,-157 62,-77 -102,-237l170 14c-245,-143 -2147,-625 -2474,-959l-77 -75c-68,-48 -16,-18 -123,-67l-2172 -756c-225,180 -967,1510 -1274,1986 248,236 711,312 1213,493l9444 3212c2518,911 5020,1686 7546,2563 271,95 522,208 804,284 170,45 4,1 203,40 434,83 -88,-60 136,35 637,270 1211,417 1954,509 906,112 1824,-36 2575,-473 255,-149 450,-289 673,-365 518,-454 1382,-2007 1793,-2662 580,-927 1104,-1816 1682,-2737l6583 -10704c68,-109 134,-198 209,-320l2956 -4812c391,-659 188,-515 523,-649 48,712 -378,1204 -676,1687l-7711 12525c-138,228 -340,476 -454,674l-853 1435c-153,247 -265,384 -417,647 -555,961 -1188,1881 -1702,2797 -266,473 -580,959 -876,1398 -260,384 -619,952 -821,1341 -110,240 -68,141 -249,326 -72,73 -177,178 -290,246 -889,536 -1360,611 -2476,616 -1322,6 -2215,-431 -3355,-815 -1325,-446 -3557,-1270 -4741,-1617 -548,-161 -1029,-371 -1541,-546l-11002 -3808c-472,-158 -1130,-454 -1599,-516 -173,177 -323,373 -383,603 15,13 36,27 49,36l148 91c1,1 195,73 201,75l2687 906c655,208 1314,544 1976,590 489,34 227,-229 1129,55l1582 488c195,64 211,88 397,137 184,49 264,63 450,134l8419 2901c1491,503 3119,1214 4710,1504 2072,378 2428,-369 3235,-497 -18,237 -256,375 -459,498 -212,128 -423,259 -674,388 -1551,796 -3701,53 -5156,-452 -1058,-368 -2128,-738 -3182,-1109l-7896 -2757c-2334,-773 -4767,-1699 -7108,-2479 -169,-56 -386,-212 -602,-185 -20,3 -45,15 -62,19l-131 58c79,159 172,232 345,293l3539 1216c17,6 35,10 51,16l2190 750c488,182 952,311 1549,518l7717 2642c197,64 594,211 796,270l4633 1598c515,176 1290,254 1808,209 297,-26 594,-50 847,-100 423,-84 682,-343 1051,-508 8,-3 164,-68 170,-69 117,-31 67,-17 108,-2 36,212 -219,305 -494,453 -892,481 -988,542 -2012,532 -875,-9 -1341,24 -2246,-294l-10921 -3819c-508,-193 -1010,-371 -1587,-563 -497,-165 -944,-341 -1521,-543 -1099,-386 -2060,-720 -3135,-1099 -851,-300 -2304,-722 -3080,-1092 4,-7 62,-108 72,-123l163 -258c-319,188 -594,837 -782,1108 -133,193 -267,366 -387,546 -264,399 -116,365 -439,501l-12693 20531c-424,644 -811,1144 -1527,1572 -909,543 -624,207 -1051,420 -1229,611 -2702,464 -3899,-13 -432,-172 -495,-276 -995,-473l-3641 -1712c-190,-85 -299,-160 -484,-247 -201,-94 -273,-120 -526,-210l-3638 -1667c-1947,-847 -4329,-1924 -6221,-2888l-2035 -962c-1231,-431 -2002,-828 -3225,-1426 -1385,-676 -2802,-1236 -4120,-1908 -366,-186 -524,-338 -951,-498l-7412 -3339c-322,-160 -642,-364 -948,-506l-2131 -960c-344,-182 -650,-424 -1104,-488 148,349 139,166 322,393 104,128 74,5 35,97 190,277 2664,1305 3103,1526 1227,617 2979,1327 4266,1963 2172,1073 4850,2172 6967,3215 2487,1226 5439,2507 8015,3708l6967 3215c206,96 327,175 538,265 758,324 1426,659 2162,986l4260 1970c647,267 1502,807 2305,844 1876,88 3374,-313 4537,-1694 210,-249 442,-647 622,-919 967,-1456 2036,-3344 3001,-4836l10731 -17471c266,23 2972,1026 3492,1198l17415 6097c698,219 1300,260 1997,203 701,-57 1206,-332 1709,-636 828,-499 1044,-991 1617,-1933l3156 -5083c302,-510 598,-975 889,-1456l9327 -15324c183,-299 300,-440 225,-924 -87,-563 148,-475 169,-965 21,-473 -137,-626 -217,-938 53,354 241,605 96,1063 -83,262 -252,500 -407,751 -351,567 -578,935 -892,1457l-1779 2847c-165,236 -297,475 -455,750l-172 298c-11,16 -43,62 -54,78 -907,1306 -1969,3185 -2890,4612 -2043,3169 -4214,6752 -6261,10018 -526,841 -320,624 -927,1292z"/>
   <path fill="#A78527" d="M39461 605l350 -122 -1102 1191c-787,915 -1640,1782 -2363,2734l-354 439c-14,12 -54,55 -67,69l-1474 1690c-46,61 -98,141 -108,155l-1034 1155c-674,597 -1213,1383 -1801,2054 -74,84 14,-34 -130,118l-893 1044c-125,148 -164,190 -282,316l-3458 4111c-200,354 114,-24 -80,79 -313,166 -595,507 -842,817l-4129 4781c-109,130 -392,354 -541,525 -384,439 -682,828 -1054,1224l-4179 4799c-200,223 -322,376 -526,614 -96,111 -171,176 -257,280 -116,138 -105,137 -246,283l-3685 4220c-180,199 -341,347 -523,551l-1565 1858c-191,249 -248,528 -537,713 -223,141 -234,213 -407,413 -98,113 -157,172 -259,275l-1290 1432c75,263 -10,339 -178,522 -39,42 -42,36 -94,110l-2366 2657c-208,316 -452,459 -659,745l-53 84c-8,12 -17,30 -25,43l-424 559c-82,249 110,-10 -112,120l-693 635c-99,143 -60,130 -143,260l-494 709c-196,326 -341,464 -340,900 0,318 171,1078 443,1328 226,208 51,48 241,165 12,8 30,17 42,25l198 138c97,58 164,76 266,138 75,46 -4,4 117,82l2083 1030c396,121 301,225 584,414 302,202 426,123 754,276l175 71c9,4 27,12 36,16 128,63 83,67 237,149l1488 658c4,2 20,11 24,13l2358 1086c192,94 118,74 251,149 247,139 302,119 603,206 323,93 299,158 540,264 271,119 341,95 559,246 317,220 651,294 978,489 197,118 335,154 557,250l1085 516c218,84 83,-5 246,58 314,122 25,-13 199,166 142,147 338,197 522,276l8527 3867c13,7 29,17 42,23 164,77 125,60 332,85 -195,-255 -887,-460 -1153,-593l-4385 -2110c-223,-99 -133,-36 -307,-85l-208 -96c-253,-124 -641,-214 -873,-382 -450,-326 -1159,-523 -1627,-844 -162,-112 -416,-138 -548,-193l-1147 -539c-267,-78 -181,-271 -726,-472l-299 -28c-131,-26 -232,-84 -326,-144 -212,-132 39,-36 -270,-131l-324 -154c-221,-218 -490,-312 -817,-431l-966 -521c-188,-105 -490,-113 -639,-213l-714 -379c-14,-6 -31,-15 -45,-21l-907 -436c-261,-174 -165,-235 -323,-276 -541,-139 -262,-140 -494,-202 -78,-21 -81,5 -189,-47 -237,-112 -89,-13 -223,-254 -137,89 -155,52 -315,118 -81,-131 -51,-126 -178,-237 -23,-19 -96,-67 -110,-73 -256,-121 -270,76 -779,-374 -11,-10 -62,-48 -189,-67l-608 -201c-256,-129 -135,-208 -439,-361 -242,-121 -168,-47 -259,-208 -121,-213 -372,-233 -484,-298l-134 -114c-200,-118 -20,177 -251,-133 -104,271 85,-73 -44,262l-180 -142c-6,-6 -18,-20 -24,-27 -6,-6 -18,-23 -24,-30 -140,-153 -33,-105 -305,-215l-362 -188c-173,-174 -131,-75 -65,-333l-270 68c3,-559 49,-211 -263,-340 57,-121 64,-157 135,-265 -96,-45 -54,-10 -113,-27 -58,-17 -102,-22 -147,-50l197 -134c-63,-226 -31,-148 -200,-266l92 -112c277,-375 381,-151 512,-487l21 -68c14,-133 9,-90 -131,-232 -173,-176 -29,140 -156,-174 23,9 137,50 144,53 142,68 63,29 130,74 112,-224 37,-63 230,-232 257,-224 76,-227 580,-589 159,-114 350,-532 557,-733l493 -929c57,-74 82,-81 130,-137l660 -804c79,-189 -6,38 28,-81 76,-261 20,-205 200,-366 157,-141 122,-52 213,-328 669,105 186,-151 379,-457 50,-80 22,-26 65,-45 12,-5 52,-12 65,-16l292 -284c8,-11 19,-28 28,-40l59 -77c9,-11 23,-26 32,-36 78,-88 124,-124 200,-202l501 -773c233,-214 94,184 408,-330 113,-184 170,-227 341,-293 16,-6 61,-24 76,-33l199 -188c101,-94 38,-7 163,-55 38,-130 -145,-131 56,-201 63,-188 -86,-59 54,-61 62,-2 -41,-20 64,13 13,4 65,41 86,48 -65,-573 -2,-264 240,-561 155,-188 46,-273 210,-461l424 -358c6,-5 20,-18 26,-23l49 -43c228,-215 300,-486 652,-502 -318,-459 221,-185 381,-421l221 -433c2,-7 8,-25 10,-33 3,-7 9,-25 11,-33l22 -74c91,-255 271,-403 433,-608 9,-12 22,-27 31,-38 157,-191 182,-220 438,-161 -147,-284 269,-773 489,-915 227,-147 176,-209 349,-419l458 -451c185,-162 497,-222 501,-226 154,-337 -163,-291 324,-695 42,-35 158,-106 189,-138l255 -610c304,36 139,-77 311,92 -1,-505 445,-669 799,-1136 82,-108 92,-171 187,-281 159,-183 409,-283 539,-512 4,-9 14,-25 18,-34 55,-128 8,-210 93,-344l95 -105c9,-10 24,-24 34,-34 293,-301 273,-490 428,-652l62 -60c9,-9 23,-24 32,-33l1161 -1263c10,-10 24,-26 34,-36 176,-176 -19,1 66,-66 103,-83 13,-36 133,-61 51,-11 31,175 361,-374l646 -833c388,-461 284,-192 696,-782 160,-230 414,-374 584,-582l298 -474c207,-239 858,-828 991,-1095l114 -212c270,-374 648,-722 1014,-991 298,-218 241,-107 491,-446l479 -594c9,-10 24,-23 34,-33l1777 -2034c7,-11 18,-28 27,-39 69,-94 454,-493 532,-555l162 -94c10,-4 31,-8 40,-12 83,-32 88,20 141,-103l254 -478c4,-7 12,-24 16,-30 201,-339 596,-588 756,-928 85,-181 330,-270 401,-427 71,-157 216,-205 399,-291l52 -29c170,-97 139,-128 371,-167 -180,-55 -130,0 -199,-198 227,-43 106,-77 265,-8 -15,-495 -79,-150 141,-412 53,-63 88,-210 229,-274 16,-7 109,-23 125,-27 54,-15 8,28 110,-34 136,-84 147,-259 196,-387 88,-233 45,-108 144,-173 142,-93 135,-205 248,-349l896 -998c136,-105 96,-8 149,-103 6,-12 20,-57 27,-71l39 -72c4,-8 17,-24 21,-32 5,-7 18,-22 23,-29l207 -189c47,-26 -5,36 95,-49l416 -620c108,-275 -29,-74 152,-265 135,-143 244,-118 421,-236 377,-251 -251,274 83,-113 77,-89 -99,107 64,-54 4,-4 19,-16 23,-21 5,-4 17,-18 22,-23l596 -650c56,-256 -58,-132 98,-268l87 -57c294,-198 385,-497 508,-617l416 -498c133,-111 5,51 132,-164l377 -433c104,-117 56,-94 118,-200l141 -196c153,-169 -6,-28 194,-113 215,-93 390,-343 495,-543l288 -396c390,-326 141,-219 405,-453 135,-119 238,-375 398,-442l622 -748c107,-123 162,-323 313,-439 151,-116 30,42 222,-147 105,-103 -62,-62 150,-126 320,-96 -165,70 251,-34 -334,-467 670,-952 839,-1257l102 -205c67,-81 137,-137 224,-198 240,87 114,-191 171,247 30,-122 17,-143 16,-153l17 -343c34,-91 -30,-88 122,-194l153 -47c205,-54 216,-123 307,-317 59,-126 53,-83 125,-232 2056,124 1889,363 3443,603l1223 308c576,126 738,122 1084,237l3130 767c953,266 3174,688 3559,809l2308 563c1224,267 2448,504 3663,834l1328 288c71,20 96,25 169,42l2168 550c1214,314 2530,506 3699,856 203,61 393,87 603,126l1888 494c477,165 825,200 1310,324 158,40 146,44 279,88 118,38 217,73 393,71 160,-3 413,19 618,110l4724 1303c347,158 147,276 511,267 161,81 294,228 322,651l111 938c114,-133 77,-3 169,-281 9,-28 33,-212 36,-316 5,-195 -3,-410 -3,-608 -351,-698 -800,-1129 -1540,-1475 -603,-282 -8374,-1980 -9580,-2276l-4836 -1126c-2299,-577 -4910,-1092 -7234,-1675 -3068,-769 -6605,-1463 -9687,-2236 -366,-92 -782,-188 -1192,-282 -1146,-260 -2422,-451 -3485,115 -252,133 -108,-16 -226,237z"/>
   <path fill="#B58B19" d="M86163 37410l-369 302c-11,8 -29,18 -39,26l-237 352c-128,242 -298,357 -565,439l169 -562c22,-70 32,-84 57,-135 165,-326 516,-654 590,-987 78,-345 377,-555 519,-848l274 -464c5,-9 19,-23 25,-30l227 -480c57,-561 -118,-164 197,-657 60,-94 50,-54 100,-191 -11,-4 -33,-18 -36,-6 -2,10 -28,-4 -31,-4l-70 10c-1,-49 -15,-214 -15,-234 10,-234 61,-272 -131,-374l-526 -234c-63,-12 -77,0 -195,-2 -269,-2 -159,-39 -331,70 -223,140 -313,231 -395,475l-97 424c17,283 -20,208 -107,234 -224,68 -217,51 -434,-99l-133 203c-11,-12 -26,-51 -30,-39 -5,11 -25,-31 -31,-37l-65 -55c-61,-33 59,-113 -123,-3 -126,76 -117,186 -157,338 -182,-44 -218,-92 -406,-6l-84 51c-292,199 -19,158 -349,356l-415 348c-8,12 -20,28 -28,39 -8,12 -20,28 -28,39l-381 556c-102,146 -64,83 -151,190l-672 1063c-6,11 -16,33 -28,48l-735 -158c-17,-4 -60,-13 -76,-18l-1070 -351c-554,-209 -1383,-378 -1675,-492l-886 -293c-303,-51 -258,-103 -589,-220 -155,-55 -358,-112 -516,-153 -65,-18 -147,-30 -175,-37 -10,-3 -30,-7 -39,-10l-1016 -391c-240,-89 -392,-47 -501,-68l-292 -136c-9,-3 -28,-8 -38,-11 -11,-4 -108,-47 -116,-51 -104,-46 -133,-65 -225,-101 -312,-121 -661,-204 -970,-306 -633,-209 -1327,-437 -1997,-629 -483,-138 -894,-349 -1382,-389l-188 -38c-6,-3 -22,-13 -28,-17 -442,-267 -1078,-397 -1552,-636 -197,-99 -205,-136 -464,-209l145 -37c-211,-158 -2681,-949 -2981,-945 -146,-31 -64,-69 -117,63 201,41 2232,678 2206,862l-104 187c224,-70 169,-99 311,-10l216 210c2,2 10,16 11,19l-27 414c450,133 358,23 720,219l503 241c260,106 206,41 448,93 393,84 592,303 919,401 4,2 18,34 166,65 232,50 269,-120 374,199 208,-74 24,-83 203,-126 88,207 206,189 647,380l1318 356c11,3 29,9 41,13 18,5 73,23 92,30 327,110 613,283 951,350 147,29 38,-10 165,33l557 160c248,21 442,56 599,-21l33 71c179,182 343,144 422,170 306,101 50,160 532,146l139 9c7,0 111,-155 28,4 93,76 174,246 347,318 10,4 30,10 40,13l2155 655c425,77 671,240 1134,267 297,18 143,-50 303,26 80,39 -25,-10 104,71l175 99c191,96 537,101 636,138 289,110 414,427 1145,420l728 150c323,139 232,38 550,74 188,22 141,85 333,45 354,-74 -246,27 239,-107 412,-114 800,-12 1058,327 -304,278 -1754,1018 -2293,1086 -728,92 -2251,-331 -2836,-520 -1771,-572 -3419,-1106 -5201,-1692l-9061 -2935c-243,-80 -896,-372 -1160,-320 -248,49 -74,-46 -235,130 1497,729 3893,1496 5676,2043l8686 2828c954,323 1992,733 3086,822 247,20 1582,-21 1810,-63 545,-98 1643,-584 1935,-980l1160 -1853z"/>
   <path fill="#CBA43B" d="M39461 605c-483,-73 -1916,1779 -2261,2170l-6733 7602c-153,157 -164,214 -301,369 -117,132 -215,200 -331,338l-2749 3146c-727,748 -1757,2040 -2445,2780 -480,517 -726,846 -1350,1262 -622,414 -1352,817 -1620,1596 -229,668 148,249 -401,938l-916 1027c-137,155 -148,211 -302,369l-3650 4119c-137,154 -148,212 -301,369 -118,121 -193,179 -296,307l-4602 5245c-103,129 -179,186 -296,307l-623 716c-140,181 -156,201 -314,357l-2136 2418c-132,165 -146,203 -308,362 -531,523 -1842,2136 -2445,2780l-4255 4856c-236,263 -325,535 -551,855 -15,604 -436,958 124,1957 126,225 166,328 411,373 164,-272 53,-316 -72,-591 -148,-323 -86,-510 -73,-813 10,-242 21,-485 146,-727 50,-95 106,-205 175,-293l660 -811c591,-724 412,-413 890,-984l343 -391c9,-11 21,-27 30,-38 9,-11 21,-27 31,-38 423,-499 303,-256 772,-899 148,-204 391,-386 811,-931l252 -232c175,-132 399,-589 862,-1072l988 -980 1290 -1432c102,-103 161,-162 259,-275 173,-200 184,-272 407,-413 289,-185 346,-464 537,-713l1565 -1858c182,-204 343,-352 523,-551l3685 -4220c141,-146 130,-145 246,-283 86,-104 161,-169 257,-280 204,-238 326,-391 526,-614l4179 -4799c372,-396 670,-785 1054,-1224 149,-171 432,-395 541,-525l4129 -4781c247,-310 529,-651 842,-817 194,-103 -120,275 80,-79l3458 -4111c118,-126 157,-168 282,-316l893 -1044c144,-152 56,-34 130,-118 588,-671 1127,-1457 1801,-2054l1034 -1155c10,-14 62,-94 108,-155l1474 -1690c13,-14 53,-57 67,-69l354 -439c723,-952 1576,-1819 2363,-2734l1102 -1191 -350 122z"/>
   <path fill="#191918" d="M78530 33840c490,-213 655,-89 901,201 -213,137 -571,168 -857,164l-44 -365zm1300 -549c289,35 465,73 646,214 -145,175 -237,232 -502,355l-368 -350 224 -219zm-3192 210c165,-63 103,-118 201,-259 311,253 121,272 674,273 -134,173 -105,108 -88,229l447 74 77 392c-977,31 -871,-255 -914,-338l-254 160 -143 -294c-180,71 -198,170 -431,69 -158,-69 -311,-170 -437,-228 289,-321 554,-249 868,-78zm3749 -469c-292,-102 -236,-7 -201,-331 183,-102 440,-67 720,-65l-88 436c-177,46 -261,19 -431,-40zm-4511 -41l-578 175c-167,-167 -207,-228 -283,-469l618 -10c185,115 161,134 243,304zm-499 -1101c44,13 108,37 149,56 84,39 92,56 134,85l-44 278 -712 -17 133 -462c129,10 233,27 340,60zm5154 -127l262 494 -686 -5 -162 -305 586 -184zm-2213 -151c-100,231 -210,342 -353,553 14,11 34,23 44,29 142,95 306,174 327,333 7,-165 -243,-326 379,-835 154,258 331,1183 378,1536 -334,-155 -681,-687 -985,-527 142,207 351,307 493,451 135,136 41,4 131,202l-2347 -762c334,-31 886,54 1116,-92 -89,-195 94,-68 -193,-121l-956 -4 1966 -763zm-2935 -122c140,-187 282,-263 518,-364 59,33 126,65 187,113l135 145c5,-11 19,29 34,53l-296 229 -578 -176zm3935 -389c180,23 244,44 402,123l269 204c-585,303 -391,163 -913,7l242 -334zm-2854 -142c171,-135 522,-156 784,-158l55 368 -535 65 -304 -275zm2044 258c-491,-12 -629,42 -639,-450l826 133c-68,192 -86,151 -187,317zm-4981 1417c358,1598 2895,2414 4517,2497 1837,93 4748,-671 4282,-2688 -350,-1513 -2587,-2400 -4548,-2494 -1838,-87 -4692,714 -4251,2685z"/>
   <path fill="#121315" d="M65630 13595l535 35 62 422 -794 -34c62,-223 120,-247 197,-423zm1139 316l-39 -355 595 -170 244 276c-170,174 -553,308 -800,249zm-1901 -62c-135,-48 -228,-75 -333,-129 -149,-78 -153,-98 -231,-177l475 -283 335 192 -246 397zm-1240 -1103l695 -107 97 231c-87,176 -283,274 -509,326l-283 -450zm4919 -180l230 272 -417 2c196,227 85,-9 185,248 -174,112 -263,205 -481,341l-327 -276 231 -274 -311 -133c333,-122 271,-67 228,-451 244,65 186,53 371,148 137,-252 -63,-358 734,-383 -44,418 -19,528 -443,506zm-4316 -326l-625 95 142 -552c262,19 394,46 551,152l-68 305zm3949 -774l232 -191c123,-68 184,-84 310,-122 98,152 182,265 210,493 -677,104 -615,96 -752,-180zm-1620 469c200,173 177,132 423,-2 180,-98 339,-200 563,-276 -229,544 -731,1004 -933,1510 -108,-125 -27,82 -115,-214 -126,-424 112,-489 -242,-518 -154,192 30,466 -46,791l-1337 -1264c869,27 1067,360 1134,405 -130,-174 -55,-229 34,-398 -364,16 -576,-114 -932,-169 119,-101 106,-115 458,-152 183,-20 361,-42 550,-67 400,-53 772,-111 1172,-133 -208,208 -522,301 -729,487zm-2486 -510c154,-261 300,-390 577,-486 103,103 154,133 251,251 -236,347 -330,296 -828,235zm3655 -876c234,47 422,145 593,289l-527 265 -346 -175 280 -379zm-2648 144c199,-112 468,-225 753,-213l20 373c-542,133 -457,151 -773,-160zm1332 -343l752 48 -230 400 -530 -37 8 -411zm-217 -861c-1766,116 -3816,1264 -3905,2914 -99,1814 2295,2751 4233,2544 3505,-374 4759,-3156 3018,-4623 -853,-719 -2177,-913 -3346,-835z"/>
   <path fill="#AAAAAA" d="M74271 26755c105,-36 473,-315 543,-374 259,-215 235,-383 620,-398 -25,275 -325,680 -538,823 98,-80 201,96 201,264l-85 313 7945 2334c590,167 2268,558 2517,903 56,-87 141,147 7,-195 -62,-295 -881,-470 -1131,-542 -427,-125 -881,-255 -1294,-376 -1211,-354 -7119,-2042 -7806,-2318 661,-656 7658,-9174 8688,-10439l568 -629c300,-384 457,-429 167,-890 -765,15 -2413,2002 -2887,2590 -218,270 -427,476 -654,751l-4392 5187c-319,359 -2384,2760 -2469,2996z"/>
   <path fill="#D0AA52" d="M76575 11716c160,169 -48,22 228,142l428 134c376,44 200,-40 621,138 5,3 145,58 147,59l540 131c12,3 31,9 43,12l1016 214c116,21 145,42 324,74 560,101 -145,22 439,143 466,96 798,72 1273,341 391,221 467,115 478,115l172 58c78,30 1037,89 1630,314 319,121 49,328 328,-10 154,245 242,224 640,274 57,7 197,19 301,61 809,333 488,12 920,205 527,237 185,92 332,351 167,-165 85,-145 283,-143 771,7 554,136 1425,287l2975 683c152,30 434,72 438,73 387,106 -167,100 763,177 103,8 631,141 731,407 247,-236 139,-138 411,-42 165,57 523,56 1067,274 281,113 132,-44 589,166 113,52 -65,23 128,41 481,44 549,-58 1295,300 355,172 107,46 544,178 10,3 29,10 38,12 683,192 442,280 644,670 76,146 69,36 180,74l137 423c4,8 14,24 18,32 0,1 46,62 65,115 145,418 -216,570 -361,895l-21 70c-2,14 23,109 26,118l418 -615c201,-288 53,-127 259,-234 183,-308 9,-653 -63,-1005 -149,-392 -481,-657 -841,-849 -363,-194 -830,-385 -1249,-492 -941,-238 -1875,-432 -2816,-668 -904,-228 -1837,-443 -2746,-670l-8359 -2023c-901,-228 -1837,-431 -2761,-656l-2813 -711c-226,123 -211,136 -264,357z"/>
   <path fill="#A85800" d="M66687 38975c113,50 97,41 170,83 667,389 229,83 703,311 423,204 493,113 880,266l1016 387c557,229 1283,361 2311,776 262,106 389,71 596,148l2475 870c539,127 313,131 602,208 115,31 158,19 278,57l1719 618c214,81 357,75 577,161 256,100 306,182 559,250 224,60 365,76 587,147l918 284c149,67 115,67 256,90l1213 187 1696 -344c166,-97 297,-198 423,-236l249 -103c43,-31 182,-164 214,-196l296 -466c-384,28 -711,289 -1051,419 -398,153 -782,214 -1310,210 -511,-4 -965,-42 -1408,-94 -436,-51 -4978,-1591 -5569,-1794 -751,-260 -1506,-462 -2243,-723 -497,-176 -6328,-2143 -6631,-2158l-170 -14c164,160 227,80 102,237 -67,-181 -395,-212 -453,-81 -55,123 160,156 320,238l233 110c148,54 396,54 442,152z"/>
   <path fill="#063C76" d="M52590 34583c203,325 370,1311 297,1844 -405,200 -498,243 -977,402 -500,166 -645,233 -944,-109 420,-539 629,-244 1128,-603 41,-463 -60,-1043 -132,-915 -10,18 -42,-15 -56,-16 -27,-3 -143,-107 -489,163l-167 110c-9,4 -28,11 -37,15 -10,5 -29,12 -40,18l-572 367c-1722,1106 -1136,387 -1659,684 -515,291 -661,1576 -1482,1490 -235,-351 -24,-448 296,-985 547,-917 692,-700 323,-1113 -251,-280 -192,-433 25,-965 165,-404 326,-882 859,-717 199,458 -389,974 -240,1259 64,122 408,268 585,313 229,60 377,-84 581,-198 765,-430 1564,-1330 2701,-1044zm-4669 1668c-296,570 -1073,1459 -892,1818 958,948 1642,-747 2042,-1321 1443,-105 1868,-1111 2711,-1297l29 531c-577,227 -1287,190 -1165,958 292,543 1703,71 2143,-153 434,-220 467,-429 405,-1006 -45,-423 -60,-848 -248,-1162 -571,-956 -2381,197 -2967,628 -349,256 -522,485 -956,133 73,-370 426,-809 272,-1178 -157,-377 -840,-316 -1091,-59 -125,129 -656,1200 -583,1636 51,303 137,195 300,472z"/>
   <path fill="#949494" d="M71988 26982c735,178 -78,170 1581,357 -58,360 -411,620 -617,872 -416,507 -1677,1925 -1915,2412 81,50 1,46 113,-58 47,-44 131,-141 193,-211 124,-141 266,-280 380,-424l1811 -2080c10,-9 100,-88 107,-95 237,-192 201,-146 418,-82 -393,278 -584,669 -893,958 -235,219 -257,265 -442,491 -179,219 -313,290 -486,518l-1771 2100c262,-213 560,-531 785,-808 325,-399 490,-459 825,-783l1174 -1235c236,-166 260,-188 439,-337l-777 1133c-8,11 -22,25 -30,36 -107,127 -45,48 -151,185l-215 253c-26,31 -79,106 -87,116l-776 903c-38,40 -123,116 -154,188 -84,196 -143,51 20,179 501,-634 1053,-1108 1572,-1745 481,-590 973,-1157 1451,-1782 39,-261 24,-72 -236,-232l206 -219 -835 -239c70,-253 184,-353 348,-488 459,-60 694,88 1071,205 0,-168 -103,-344 -201,-264 213,-143 513,-548 538,-823 -385,15 -361,183 -620,398 -70,59 -438,338 -543,374 -323,113 -476,4 -846,-90 -1607,-408 -3574,-1080 -5128,-1466 -155,62 -47,-34 -108,134 537,373 4853,1340 5024,1540 -295,233 -739,-42 -1373,-39 75,56 92,85 148,148z"/>
   <path fill="#655750" d="M71037 30623c-274,130 -560,709 -795,1041 -190,268 -259,481 -479,656l-265 217c-77,77 -385,818 300,707 115,-19 158,-46 259,-96 154,-76 343,-198 459,-270 77,-404 -197,-26 49,-352 269,-356 716,-493 955,-956 -163,-128 -104,17 -20,-179 31,-72 116,-148 154,-188l776 -903c8,-10 61,-85 87,-116l215 -253c106,-137 44,-58 151,-185 8,-11 22,-25 30,-36l777 -1133c-179,149 -203,171 -439,337l-1174 1235c-335,324 -500,384 -825,783 -225,277 -523,595 -785,808l1771 -2100c173,-228 307,-299 486,-518 185,-226 207,-272 442,-491 309,-289 500,-680 893,-958 -217,-64 -181,-110 -418,82 -7,7 -97,86 -107,95l-1811 2080c-114,144 -256,283 -380,424 -62,70 -146,167 -193,211 -112,104 -32,108 -113,58z"/>
   <path fill="#061D35" d="M37345 51119c72,-262 345,-693 497,-951 170,-289 325,-816 684,-825 394,-11 468,560 572,868 70,207 112,352 181,555 102,306 90,310 247,551 788,-47 1293,-1772 1845,-1700 -14,652 -1102,1590 -1456,2028 -184,228 -248,282 -153,637 50,187 167,463 232,649 168,481 524,855 348,1348 -444,136 -660,-159 -1032,-324 -510,-227 -806,-145 -1283,-261 179,-625 1024,-169 1530,-200 43,-303 -583,-2099 -747,-2591 -111,-336 -146,-667 -421,-806 -195,130 -48,-8 -209,211 -82,112 -120,170 -169,354 321,-76 202,-223 445,-329 157,222 882,2592 903,2901 -422,-11 -860,-170 -1229,46 -950,556 693,481 1445,937 426,259 530,364 981,16 95,-512 -225,-917 -392,-1396 -210,-601 -406,-787 28,-1253 391,-421 1552,-1497 1317,-2160 -825,-111 -1076,1333 -1847,1627 -399,-380 -414,-1406 -763,-1824 -636,-204 -855,217 -1087,643 -184,337 -591,871 -596,1252 357,293 -96,109 129,-3z"/>
   <path fill="#777484" d="M58082 21179c-277,1099 607,1310 1459,1416 956,119 2021,191 2472,-314 307,-946 1529,-2146 1528,-2548 -353,-131 -673,97 -984,233 -164,72 -312,139 -448,217 -207,117 -231,79 -280,334 456,-33 558,-304 1013,-342 -9,351 -586,954 -965,1648 -362,660 -605,672 -1979,539 -915,-89 -1505,-97 -1462,-1116 44,-1026 623,-1582 600,-1896 -411,-68 -443,304 -617,686 -161,355 -294,697 -337,1143z"/>
   <path fill="#6E3600" d="M61535 36184c276,218 413,174 702,281 160,59 295,132 539,108l152 -34c4,-14 6,-51 5,-42 -1,8 3,-35 1,-42 -1,-8 -2,-33 -5,-42 -49,-156 -5,-35 -63,-120 -103,-152 -206,22 -82,-399 43,-148 -52,-101 98,-171 185,-85 142,46 449,6 464,-61 240,-161 656,61 155,-277 21,-192 147,-205 115,-11 33,1 77,21 2,2 16,10 18,11 3,2 17,11 19,12 3,2 17,10 20,11 3,2 17,9 20,10 8,4 32,11 41,14l72 18c474,104 62,-110 703,130l1240 325c-122,-200 -196,-170 -457,-253 -199,-63 -328,-110 -499,-172 -326,-118 -729,-219 -986,-361l-890 -431c-290,-107 -701,-265 -1008,-338l-969 1602z"/>
   <path fill="#847484" d="M54669 25317c182,93 1401,-142 1698,-198 627,-31 862,-146 707,603 -70,344 -286,638 -313,950 214,226 94,168 405,316 413,195 1295,648 1568,485 -25,-254 20,-145 -275,-303 -383,-205 -510,-199 -849,-349 -561,-249 -336,-286 -47,-1674 175,-838 548,-716 655,-1163 -446,-39 -535,278 -726,490 -187,207 -467,297 -863,352 -529,74 -1678,66 -1960,491z"/>
   <path fill="#664903" d="M63097 39930c-100,-534 69,-158 -254,-284l-2380 -910c-261,-102 -98,-112 -495,-128 -46,133 -149,276 -207,386l362 186c818,300 2210,880 2974,750z"/>
   <path fill="#0A3459" d="M66618 27841c650,186 1019,282 1644,93l-2 -355c-330,-283 -790,-345 -1241,-396 -156,160 -83,-3 -123,301 453,74 717,51 841,260 -269,158 -705,-59 -1048,-95l-71 192z"/>
   <path fill="#050505" d="M74513 27592c341,36 300,-17 499,-209l85 -313c-377,-117 -612,-265 -1071,-205 -164,135 -278,235 -348,488l835 239z"/>
   <path fill="#90794B" d="M65420 29830l-78 126 108 104c2246,929 1004,-472 494,-649 -109,-27 173,-86 -105,-19 -123,30 -115,52 -130,63 217,226 303,230 360,552l-649 -177z"/>
   <path fill="#081727" d="M65420 29830l649 177c-57,-322 -143,-326 -360,-552 -233,109 -184,126 -289,375z"/>
  </g>
 </g>

</svg>
