<?xml version="1.0" encoding="UTF-8"?>
<!DOCTYPE svg PUBLIC "-//W3C//DTD SVG 1.1//EN" "http://www.w3.org/Graphics/SVG/1.1/DTD/svg11.dtd">
<!-- Creator: CorelDRAW 2017 -->
<svg xmlns="http://www.w3.org/2000/svg" xml:space="preserve" width="1000px" height="1000px" version="1.1" shape-rendering="geometricPrecision" text-rendering="geometricPrecision" image-rendering="optimizeQuality" fill-rule="evenodd" clip-rule="evenodd"
viewBox="0 0 100000 100000"
 xmlns:xlink="http://www.w3.org/1999/xlink">
    <g id="interface-icon-sector-info">
        <metadata id="CorelCorpID_0Corel-Layer" />
        <g id="interface-icon-sector-info-bg-border">
            <circle fill="black" cx="50000" cy="50000" r="50000" />
            <path fill="#FEFEFE" d="M50895 15813c9252,0 17629,3750 23692,9814 6064,6064 9814,14440 9814,23692 0,3401 -507,6684 -1449,9777l-5134 -1566c791,-2597 1217,-5354 1217,-8211 0,-7770 -3150,-14806 -8242,-19898 -5092,-5092 -12128,-8242 -19898,-8242 -7771,0 -14807,3150 -19899,8242 -3868,3868 -6615,8857 -7712,14439 -1012,-1888 -2532,-3462 -4378,-4539 1633,-5232 4515,-9913 8296,-13694 6064,-6064 14440,-9814 23693,-9814zm-42048 51658c-1150,-2673 -2043,-5447 -2667,-8279 -52,-233 -101,-465 -149,-698 -1489,-1147 -2692,-2647 -3481,-4376 190,1908 493,3804 905,5675 637,2888 1537,5719 2690,8453l2702 -775zm61234 -58574c-319,-152 -641,-300 -964,-445l-2159 2485c0,0 -1490,-42 -3042,-460 -1553,-419 -2951,-1447 -2951,-1447l-108 -3331c-366,-83 -735,-162 -1105,-236l176 3950c0,0 2006,1505 3717,1992 1711,485 3761,491 3761,491l2675 -2999zm-55095 65176c-351,-510 -692,-1027 -1020,-1551l-1119 310 -1082 300c-150,-248 -298,-497 -443,-747l-2627 1030c395,695 809,1381 1240,2058l2821 -782 1097 -304 1133 -314zm-4779 -39414l814 918c146,-420 298,-840 457,-1258l-800 -903 -269 -303 -820 -925c-170,406 -332,814 -488,1223l833 940 273 308zm596 -1558l778 949c161,-415 330,-828 505,-1239l-765 -934 -257 -313 -784 -957c-185,400 -363,801 -535,1204l797 972 261 318zm653 -1520l741 978c177,-409 361,-815 552,-1219l-728 -962 -245 -323 -747 -985c-200,392 -394,786 -581,1182l759 1001 0 0 249 328zm82424 12749l326 -327c-154,-1248 -362,-2489 -623,-3718l-309 292 -922 872c243,1275 427,2563 552,3857l976 -976zm-6383 30716c1040,-1475 1992,-3014 2850,-4608l-567 -1310 -748 -1732c-749,1576 -1605,3122 -2568,4631 -121,189 -243,377 -366,564l791 1388 608 1067zm-37390 21483l-678 1169c4011,119 8011,-261 11906,-1121 875,-193 1739,-408 2591,-645l921 -1521 1986 -3282 952 -1575c-2376,994 -4874,1790 -7478,2364 -2732,603 -5446,936 -8120,1022l-645 1113 -1435 2476zm-25334 -7921l-648 1015c246,164 494,325 744,485 1254,801 2531,1536 3827,2208l1023 -821 2125 -1705 961 -771c-2130,-978 -4173,-2124 -6110,-3421l-600 939 -1322 2071zm-14035 -17258c-155,-283 -307,-567 -456,-853l-2672 904c166,327 336,652 510,975l2618 -1026zm-990 -1915c-142,-291 -281,-584 -417,-878l-2712 777c152,336 307,670 466,1003l2663 -902zm13536 -14657c1097,5582 3844,10572 7712,14440 5092,5092 12128,8242 19899,8242 1473,0 2920,-113 4332,-332l826 5303c-1682,260 -3404,395 -5158,395 -9253,0 -17629,-3750 -23693,-9814 -3781,-3782 -6663,-8463 -8297,-13695 1846,-1078 3367,-2651 4379,-4539z" />
            <path fill="#177798" fill-rule="nonzero" d="M50895 11115c10549,0 20100,4276 27014,11190 6913,6914 11190,16465 11190,27014 0,10550 -4277,20101 -11190,27015 -6913,6913 -16465,11190 -27014,11190 -10550,0 -20101,-4277 -27015,-11190 -4290,-4290 -7564,-9596 -9431,-15526 1167,-138 2281,-449 3316,-907 1706,5346 4669,10131 8543,14005 6292,6291 14985,10184 24587,10184 9601,0 18294,-3893 24586,-10184 6292,-6292 10184,-14985 10184,-24587 0,-9601 -3892,-18294 -10184,-24586 -6292,-6291 -14985,-10184 -24586,-10184 -9602,0 -18295,3893 -24587,10184 -3873,3874 -6837,8658 -8543,14004 -1034,-459 -2148,-770 -3316,-908 1868,-5929 5142,-11234 9431,-15524 6914,-6913 16465,-11190 27015,-11190z" />
            <path fill="#E97968" fill-rule="nonzero" d="M27632 85782c-9594,-6126 -15956,-15406 -18597,-25621 394,148 799,274 1212,378 2673,9705 8809,18493 17962,24338 9817,6269 21247,7965 31789,5639 10339,-2280 19824,-8429 26100,-17926l593 1042c-6435,9482 -16025,15630 -26462,17933 -10810,2384 -22530,645 -32597,-5783zm-18606 -47303c333,-1283 726,-2558 1182,-3819l813 917 110 -315c-333,940 -630,1887 -893,2839 -413,104 -818,231 -1212,378zm80006 28916c3354,-7053 4585,-14687 3872,-22089l975 -975c952,8154 -400,16622 -4287,24362l-560 -1298zm3320 -25946c-77,-405 -160,-809 -249,-1212 -2325,-10541 -8672,-20197 -18490,-26465 -1724,-1102 -3498,-2061 -5309,-2883l748 -838c1751,811 3468,1749 5139,2816 10067,6428 16576,16329 18960,27139 43,191 83,381 122,572l-921 871zm-32482 -33356c-2752,-597 -5536,-912 -8312,-952l3 -1073c2757,39 5523,342 8259,917l50 1108zm-46672 22327c-153,305 -303,612 -448,920l-730 -962c74,-151 149,-302 225,-452l953 494zm-2520 2997l127 -314 776 947c161,-415 330,-828 505,-1239l-763 -932c43,-99 88,-198 133,-297l741 977 109 -249c-352,794 -676,1595 -975,2402 49,-132 97,-262 147,-393l-800 -902zm1851 -1603c-73,159 -145,318 -215,477 70,-159 142,-318 215,-477zm-1227 2976c-51,138 -100,275 -149,413 49,-138 98,-275 149,-413z" />
            <path fill="#4F65B7" fill-rule="nonzero" d="M26096 86536c-4978,-3317 -9081,-7468 -12244,-12149l1 0 1128 -313c3051,4433 6975,8367 11712,11527l-597 935zm-15072 -57470l748 985 4 4 0 1 148 -296 -6 -3 4793 2481c166,-333 338,-664 514,-993l-657 -340 -5121 -2649c-26,48 -52,96 -78,145 -117,221 -232,442 -345,665zm1823 43766c-2578,-4182 -4434,-8741 -5524,-13475 417,239 849,453 1296,640 1110,4401 2904,8634 5344,12526l-1115 309 -1 0zm15909 14065c1328,784 2681,1490 4056,2119l-951 782 -17 -8 961 -771c-1389,-638 -2740,-1346 -4049,-2122zm967 4595c6498,3275 13470,4909 20394,5019l-10 18 -677 1168c-7055,-209 -14140,-1964 -20733,-5381l1022 -821 4 -3zm22471 1435c2472,-75 4930,-358 7345,-847 -2472,501 -4929,782 -7352,860l-594 1025 601 -1038zm8113 -1009c162,-36 325,-73 487,-110 -162,37 -324,74 -487,110zm979 -227c10091,-2470 19319,-8526 25605,-17709l606 1064 3 5c-5304,7555 -12572,12998 -20665,16073l950 -1570c-2077,869 -4246,1586 -6499,2137zm32296 -51406l-77 -357c-2405,-10900 -8968,-20884 -19119,-27366 -1653,-1056 -3351,-1986 -5082,-2794l770 -863c1670,794 3310,1701 4909,2722 10410,6647 17140,16884 19606,28062 243,1101 444,2211 604,3327l-987 987c-154,-1248 -362,-2489 -623,-3718l-1 0zm-33778 -33674c-2731,-567 -5491,-866 -8243,-904l0 360 -11 5054c-373,-6 -746,-7 -1118,-2l14 -6525c3103,-35 6223,253 9307,874l51 1143zm-50215 25577l158 -375 795 970 1 2 -134 329 0 -1 -820 -925zm693 -1578c55,-119 110,-238 167,-358l758 1001 0 0 0 1 -141 312 -2 -2 -782 -954z" />
        </g>
        <image xmlns="http://www.w3.org/2000/svg" x="28%" y="24%" width="48%" height="48%" xmlns:xlink="http://www.w3.org/1999/xlink" xlink:href="/_svg/interface/interface-icon-jump-to-sector-body.svg" />
        <g id="interface-icon-sector-info-i">
            <path fill="black" d="M13023 37053c6769,0 12256,5487 12256,12256 0,6769 -5487,12257 -12256,12257 -6769,0 -12256,-5488 -12256,-12257 0,-6769 5487,-12256 12256,-12256z" />
            <path fill="#4F65B7" d="M21029 58834c1051,-884 1972,-1957 2709,-3207 1745,-2959 2125,-6346 1329,-9428 -86,-333 -185,-662 -299,-986 -934,-2683 -2788,-5063 -5428,-6619 -1536,-906 -3188,-1443 -4852,-1640 -1541,-182 -3093,-71 -4575,311 -357,92 -711,201 -1058,324 -4,1 -7,3 -10,4 -2649,943 -4997,2787 -6537,5399 -1744,2959 -2124,6345 -1329,9427 378,1463 1021,2857 1908,4106 983,1381 2264,2583 3819,3499 2621,1546 5579,2020 8362,1555 358,-60 714,-135 1065,-226 1775,-458 3450,-1307 4884,-2510 4,-3 8,-6 12,-9zm-9882 -18360c-128,28 -256,57 -382,90 -399,103 -791,234 -1173,390l-43 17c-552,224 -1072,499 -1557,817l11 11c-1024,683 -1922,1586 -2617,2690l-32 -32c-71,110 -139,222 -205,335 -1163,1997 -1564,4438 -928,6850 635,2411 2189,4337 4186,5500 160,94 323,182 489,265l15 -56c1158,594 2392,913 3623,978l-8 33c897,43 1817,-49 2731,-291 433,-114 850,-258 1249,-428l13 -5 42 -18c1190,-506 2280,-1270 3176,-2268l-29 -16c397,-449 749,-936 1050,-1452 333,-571 603,-1178 805,-1811l51 29c543,-1663 576,-3416 154,-5051 -577,-2238 -2010,-4256 -4158,-5522 -865,-510 -1780,-859 -2710,-1057l0 45c-1204,-267 -2479,-289 -3753,-28l0 -15zm-5759 11077l67 -39c-22,-77 -44,-155 -64,-232 -504,-1953 -263,-4099 842,-5974 905,-1534 2248,-2649 3777,-3280 300,-121 612,-224 933,-309 2105,-555 4235,-205 5978,811 1205,702 2225,1721 2923,2980l74 -20c324,585 571,1207 737,1851 149,577 233,1171 249,1770l-70 19c42,1490 -345,2933 -1070,4178 -831,1426 -2107,2593 -3696,3274 -349,146 -709,267 -1074,361 -1953,504 -4099,264 -5974,-842 -637,-376 -1202,-827 -1690,-1336l-62 36c-855,-888 -1512,-1989 -1880,-3248zm-2090 -7975c1584,-2686 4106,-4475 6903,-5197 2797,-723 5870,-378 8556,1205 2685,1584 4474,4106 5197,6903 722,2797 377,5870 -1206,8555 -1583,2686 -4105,4475 -6902,5198 -2798,722 -5871,377 -8556,-1206 -2686,-1583 -4475,-4105 -5198,-6903 -722,-2797 -377,-5870 1206,-8555z" />
            <path fill="#F49911" fill-rule="nonzero" d="M15767 54972l0 -499c-1556,-140 -1572,-240 -1572,-1539l0 -6409c-1127,227 -2108,311 -3370,362l0 451c1454,192 1238,639 1238,1819l0 3777c0,1312 140,1425 -1393,1539l0 499 5097 0zm-3080 -9072c858,0 1498,-674 1498,-1447 0,-855 -640,-1497 -1460,-1497 -826,0 -1537,642 -1537,1497 0,773 711,1447 1499,1447z" />
        </g>
        <path id="interface-icon-sector-info-event-default" fill="#603882" d="M40150 2269l2022 9211c1597,-322 3232,-540 4897,-645l-453 -9417c-2201,131 -4360,419 -6466,851zm-18818 21792l-7205 -6081c-1323,1606 -2539,3304 -3636,5083l8093 4840c833,-1342 1752,-2625 2748,-3842zm-6469 -6953l7206 6080c1062,-1218 2205,-2365 3420,-3431l-6106 -7184c-1610,1404 -3121,2920 -4520,4535zm5390 -5275l6105 7184c1222,-1006 2510,-1934 3858,-2776l-4861 -8080c-1787,1108 -3491,2336 -5102,3672zm6080 -4261l4861 8079c1362,-792 2781,-1498 4248,-2110l-3491 -8761c-1944,804 -3820,1738 -5618,2792zm6679 -3214l3490 8760c1475,-561 2995,-1028 4555,-1394l-2022 -9211c-2065,478 -4076,1097 -6023,1845z" />
    </g>
</svg>
