<?xml version="1.0" encoding="UTF-8"?>
<!DOCTYPE svg PUBLIC "-//W3C//DTD SVG 1.1//EN" "http://www.w3.org/Graphics/SVG/1.1/DTD/svg11.dtd">
<!-- Creator: CorelDRAW X8 -->
<svg xmlns="http://www.w3.org/2000/svg" xml:space="preserve" width="963px" height="1000px" version="1.1" shape-rendering="geometricPrecision" text-rendering="geometricPrecision" image-rendering="optimizeQuality" fill-rule="evenodd" clip-rule="evenodd"
viewBox="0 0 93331 96909"
 xmlns:xlink="http://www.w3.org/1999/xlink">
 <g id="interface-icon-jump-to-star">
  <metadata id="CorelCorpID_0Corel-Layer"/>
  <g id="interface-icon-jump-to-star-body">
   <path fill="white" d="M41038 74868c-2222,-2222 -5293,-3597 -8685,-3597 -3380,0 -6443,1366 -8664,3576 1326,-307 2708,-469 4127,-469 5039,0 9602,2044 12904,5346 1585,1585 2880,3461 3798,5540 78,-559 118,-1130 118,-1710 0,-3392 -1375,-6463 -3598,-8686zm2654 -72800c-616,-615 -1468,-996 -2407,-996 -939,0 -1790,381 -2406,997 -615,615 -996,1466 -996,2406 0,938 381,1790 996,2405 615,616 1466,997 2406,997 941,0 1792,-381 2407,-996 615,-615 996,-1466 996,-2406 0,-941 -381,-1792 -996,-2407zm-34532 43737c-857,-857 -2042,-1388 -3350,-1388 -376,0 -743,44 -1094,127 -1092,1155 -1761,2715 -1761,4430 0,1781 722,3394 1889,4561 110,110 223,215 340,316l1 1c205,27 414,41 625,41 1308,0 2493,-531 3350,-1388 857,-857 1387,-2042 1387,-3350 0,-1308 -530,-2493 -1387,-3350zm77804 -24169c-515,198 -978,502 -1361,885 -706,706 -1142,1681 -1142,2757 0,1077 436,2052 1142,2757 705,706 1680,1143 2757,1143 876,0 1686,-290 2338,-779 118,-453 181,-929 181,-1419 0,-1546 -628,-2948 -1641,-3961 -628,-628 -1406,-1108 -2274,-1383z"/>
   <polygon fill="#FFE561" points="24802,29454 34767,38370 28602,38027 34113,40813 21024,43552 34113,46292 28602,49078 34767,48735 24802,57651 37507,53479 34128,58647 39296,55268 35123,67973 44039,58007 43697,64172 46483,58662 49222,71751 51961,58662 54748,64173 54405,58007 63321,67973 59149,55268 64317,58647 60938,53479 73642,57651 63677,48735 69842,49078 64331,46292 77421,43552 64331,40813 69843,38027 63677,38370 73642,29454 60938,33626 64317,28458 59149,31837 63321,19132 54405,29097 54748,22932 51961,28443 49222,15354 46483,28443 43697,22932 44039,29097 35123,19132 39296,31837 34128,28458 37507,33626 "/>
   <path fill="#7688A1" fill-rule="nonzero" d="M88360 20307c1372,0 2616,557 3515,1456 899,899 1456,2143 1456,3515 0,1373 -557,2616 -1456,3515 -899,899 -2143,1456 -3515,1456 -1373,0 -2616,-557 -3515,-1456 -899,-899 -1456,-2142 -1456,-3515 0,-1372 557,-2616 1456,-3515 899,-899 2142,-1456 3515,-1456zm-56007 49892c3688,0 7027,1495 9443,3911 2417,2417 3912,5756 3912,9444 0,3688 -1495,7026 -3912,9443 -2416,2417 -5755,3912 -9443,3912 -3688,0 -7027,-1495 -9443,-3912 -2417,-2417 -3912,-5755 -3912,-9443 0,-3688 1495,-7027 3912,-9444 2416,-2416 5755,-3911 9443,-3911zm8685 4669c-2222,-2222 -5293,-3597 -8685,-3597 -3391,0 -6463,1375 -8685,3597 -2223,2223 -3598,5294 -3598,8686 0,3391 1375,6463 3598,8685 2222,2223 5294,3598 8685,3598 3392,0 6463,-1375 8685,-3598 2223,-2222 3598,-5294 3598,-8685 0,-3392 -1375,-6463 -3598,-8686zm-35228 -31523c1604,0 3057,651 4107,1702 1051,1051 1702,2504 1702,4108 0,1604 -651,3057 -1702,4108 -1050,1051 -2503,1701 -4107,1701 -1605,0 -3058,-650 -4108,-1701 -1051,-1051 -1702,-2504 -1702,-4108 0,-1604 651,-3057 1702,-4108 1050,-1051 2503,-1702 4108,-1702zm3350 2460c-857,-857 -2042,-1388 -3350,-1388 -1308,0 -2493,531 -3350,1388 -857,857 -1388,2042 -1388,3350 0,1308 531,2493 1388,3350 857,857 2042,1388 3350,1388 1308,0 2493,-531 3350,-1388 857,-857 1387,-2042 1387,-3350 0,-1308 -530,-2493 -1387,-3350zm32125 -45805c1236,0 2355,501 3164,1311 809,811 1311,1929 1311,3164 0,1233 -502,2352 -1311,3161 -811,811 -1930,1313 -3164,1313 -1234,0 -2352,-502 -3161,-1311 -812,-809 -1313,-1928 -1313,-3163 0,-1236 501,-2355 1310,-3164 810,-810 1929,-1311 3164,-1311zm2407 2068c-616,-615 -1468,-996 -2407,-996 -939,0 -1790,381 -2406,997 -615,615 -996,1466 -996,2406 0,938 381,1790 996,2405 615,616 1466,997 2406,997 941,0 1792,-381 2407,-996 615,-615 996,-1466 996,-2406 0,-941 -381,-1792 -996,-2407zm47425 20453c-705,-705 -1681,-1142 -2757,-1142 -1077,0 -2052,437 -2757,1142 -706,706 -1142,1681 -1142,2757 0,1077 436,2052 1142,2757 705,706 1680,1143 2757,1143 1076,0 2052,-437 2757,-1143 705,-705 1142,-1680 1142,-2757 0,-1076 -437,-2051 -1142,-2757z"/>
  </g>
 </g>
</svg>
