<?xml version="1.0" encoding="iso-8859-1" ?>
<!-- Generator: Adobe Illustrator 17.0.0, SVG Export Plug-In . SVG Version: 6.00 Build 0)  -->
<!DOCTYPE svg PUBLIC "-//W3C//DTD SVG 1.1//EN" "http://www.w3.org/Graphics/SVG/1.1/DTD/svg11.dtd">
<svg id="achievement-10"
     version="1.1" xmlns="http://www.w3.org/2000/svg" xmlns:xlink="http://www.w3.org/1999/xlink" x="0px" y="0px"
     width="556px" height="556px"
     viewBox="0 0 556 556" style="enable-background:new 0 0 556 556;" xml:space="preserve">
<g>
<g>
<g>
<g>
<linearGradient id="SVGID_1_" gradientUnits="userSpaceOnUse" x1="278" y1="-1.950236e-005" x2="278" y2="555.9999">
<stop offset="0" style="stop-color:#C2CFD6" />
<stop offset="0.5393" style="stop-color:#899EAA" />
<stop offset="1" style="stop-color:#516976" />
				</linearGradient>
<path style="fill-rule:evenodd;clip-rule:evenodd;fill:url(#SVGID_1_);" d="M278,0C124.465,0,0,124.465,0,278
					s124.465,278,278,278s278-124.465,278-278S431.535,0,278,0z M277.312,526C139.414,526,27.625,414.295,27.625,276.5
					S139.414,27,277.312,27S527,138.705,527,276.5S415.211,526,277.312,526z" />
			</g>
		</g>
	</g>
</g>
<linearGradient id="SVGID_2_" gradientUnits="userSpaceOnUse" x1="278.5" y1="268.9999" x2="278.5" y2="405.9999">
<stop offset="0" style="stop-color:#C2CFD6" />
<stop offset="0.5393" style="stop-color:#899EAA" />
<stop offset="1" style="stop-color:#516976" />
</linearGradient>
<path style="fill-rule:evenodd;clip-rule:evenodd;fill:url(#SVGID_2_);" d="M278,269l-19,49l-53,2l41,34l-14,52l45-31l45,29l-14-51
	l42-33l-55-3L278,269z" />
<linearGradient id="SVGID_3_" gradientUnits="userSpaceOnUse" x1="374" y1="84" x2="374" y2="167">
<stop offset="0" style="stop-color:#C2CFD6" />
<stop offset="0.5393" style="stop-color:#899EAA" />
<stop offset="1" style="stop-color:#516976" />
</linearGradient>
<path style="fill-rule:evenodd;clip-rule:evenodd;fill:url(#SVGID_3_);" d="M373.697,84l-11.531,29.686L330,114.898l24.883,20.598
	L346.386,167l27.31-18.781l27.31,17.569l-8.497-30.898L418,114.898l-33.379-1.817L373.697,84z" />
<linearGradient id="SVGID_4_" gradientUnits="userSpaceOnUse" x1="188" y1="84" x2="188" y2="167">
<stop offset="0" style="stop-color:#C2CFD6" />
<stop offset="0.5393" style="stop-color:#899EAA" />
<stop offset="1" style="stop-color:#516976" />
</linearGradient>
<path style="fill-rule:evenodd;clip-rule:evenodd;fill:url(#SVGID_4_);" d="M187.697,84l-11.531,29.686L144,114.898l24.883,20.598
	L160.386,167l27.31-18.781l27.31,17.569l-8.497-30.898L232,114.898l-33.379-1.817L187.697,84z" />
<linearGradient id="SVGID_5_" gradientUnits="userSpaceOnUse" x1="81.5" y1="207" x2="81.5" y2="274">
<stop offset="0" style="stop-color:#C2CFD6" />
<stop offset="0.5393" style="stop-color:#899EAA" />
<stop offset="1" style="stop-color:#516976" />
</linearGradient>
<path style="fill-rule:evenodd;clip-rule:evenodd;fill:url(#SVGID_5_);" d="M81.255,207l-9.303,23.964L46,231.941l20.076,16.628
	L59.221,274l22.034-15.161l22.035,14.182l-6.855-24.942L117,231.941l-26.931-1.467L81.255,207z" />
<linearGradient id="SVGID_6_" gradientUnits="userSpaceOnUse" x1="481.5" y1="207" x2="481.5" y2="274">
<stop offset="0" style="stop-color:#C2CFD6" />
<stop offset="0.5393" style="stop-color:#899EAA" />
<stop offset="1" style="stop-color:#516976" />
</linearGradient>
<path style="fill-rule:evenodd;clip-rule:evenodd;fill:url(#SVGID_6_);" d="M481.255,207l-9.303,23.964L446,231.941l20.076,16.628
	L459.221,274l22.034-15.161l22.034,14.182l-6.855-24.942L517,231.941l-26.931-1.467L481.255,207z" />
<linearGradient id="SVGID_7_" gradientUnits="userSpaceOnUse" x1="482" y1="335" x2="482" y2="378">
<stop offset="0" style="stop-color:#C2CFD6" />
<stop offset="0.5393" style="stop-color:#899EAA" />
<stop offset="1" style="stop-color:#516976" />
</linearGradient>
<path style="fill-rule:evenodd;clip-rule:evenodd;fill:url(#SVGID_7_);" d="M481.841,335l-6.028,15.379L459,351.007l13.007,10.672
	L467.566,378l14.276-9.73l14.276,9.102l-4.441-16.007L505,351.007l-17.448-0.942L481.841,335z" />
<linearGradient id="SVGID_8_" gradientUnits="userSpaceOnUse" x1="81.0001" y1="335" x2="81.0001" y2="378">
<stop offset="0" style="stop-color:#C2CFD6" />
<stop offset="0.5393" style="stop-color:#899EAA" />
<stop offset="1" style="stop-color:#516976" />
</linearGradient>
<path style="fill-rule:evenodd;clip-rule:evenodd;fill:url(#SVGID_8_);" d="M80.841,335l-6.028,15.379L58,351.007l13.007,10.672
	L66.565,378l14.276-9.73l14.276,9.102l-4.441-16.007L104,351.007l-17.448-0.942L80.841,335z" />
<linearGradient id="SVGID_9_" gradientUnits="userSpaceOnUse" x1="420.5" y1="418.9999" x2="420.5" y2="457.9999">
<stop offset="0" style="stop-color:#C2CFD6" />
<stop offset="0.5393" style="stop-color:#899EAA" />
<stop offset="1" style="stop-color:#516976" />
</linearGradient>
<path style="fill-rule:evenodd;clip-rule:evenodd;fill:url(#SVGID_9_);" d="M420.359,419l-5.372,13.949L400,433.518l11.593,9.679
	L407.634,458l12.724-8.825l12.724,8.255l-3.959-14.518L441,433.518l-15.552-0.854L420.359,419z" />
<linearGradient id="SVGID_10_" gradientUnits="userSpaceOnUse" x1="143.5" y1="418.9999" x2="143.5" y2="457.9999">
<stop offset="0" style="stop-color:#C2CFD6" />
<stop offset="0.5393" style="stop-color:#899EAA" />
<stop offset="1" style="stop-color:#516976" />
</linearGradient>
<path style="fill-rule:evenodd;clip-rule:evenodd;fill:url(#SVGID_10_);" d="M143.359,419l-5.372,13.949L123,433.518l11.593,9.679
	L130.634,458l12.724-8.825l12.724,8.255l-3.959-14.518L164,433.518l-15.552-0.854L143.359,419z" />
<linearGradient id="SVGID_11_" gradientUnits="userSpaceOnUse" x1="342.5" y1="468" x2="342.5" y2="505">
<stop offset="0" style="stop-color:#C2CFD6" />
<stop offset="0.5393" style="stop-color:#899EAA" />
<stop offset="1" style="stop-color:#516976" />
</linearGradient>
<path style="fill-rule:evenodd;clip-rule:evenodd;fill:url(#SVGID_11_);" d="M342.366,468l-5.11,13.233L323,481.774l11.028,9.182
	L330.262,505l12.104-8.372l12.103,7.832l-3.766-13.774L362,481.774l-14.793-0.81L342.366,468z" />
<linearGradient id="SVGID_12_" gradientUnits="userSpaceOnUse" x1="219.5001" y1="468.9999" x2="219.5001" y2="505.9999">
<stop offset="0" style="stop-color:#C2CFD6" />
<stop offset="0.5393" style="stop-color:#899EAA" />
<stop offset="1" style="stop-color:#516976" />
</linearGradient>
<path style="fill-rule:evenodd;clip-rule:evenodd;fill:url(#SVGID_12_);" d="M219.365,469l-5.11,13.234L200,482.774l11.027,9.182
	L207.262,506l12.103-8.372l12.104,7.832l-3.766-13.774L239,482.774l-14.793-0.81L219.365,469z" />
<linearGradient id="SVGID_13_" gradientUnits="userSpaceOnUse" x1="149.9915" y1="57.8718" x2="149.9915" y2="508.9899">
<stop offset="0" style="stop-color:#C2CFD6" />
<stop offset="0.5393" style="stop-color:#899EAA" />
<stop offset="1" style="stop-color:#516976" />
</linearGradient>
<path style="fill-rule:evenodd;clip-rule:evenodd;fill:url(#SVGID_13_);" d="M188.75,341.583c0-45.665,34.105-83.364,78.233-89.017
	L266,56l-45,178L79,135l75,150l-121,5l110,64l-72,57l108,1l-17,68l74-38l30,52v-63.537
	C222.35,424.379,188.75,386.908,188.75,341.583z" />
<linearGradient id="SVGID_14_" gradientUnits="userSpaceOnUse" x1="407.0087" y1="32.484" x2="407.0087" y2="514.6584">
<stop offset="0" style="stop-color:#C2CFD6" />
<stop offset="0.5393" style="stop-color:#899EAA" />
<stop offset="1" style="stop-color:#516976" />
</linearGradient>
<path style="fill-rule:evenodd;clip-rule:evenodd;fill:url(#SVGID_14_);" d="M414,354l110-64l-121-5l75-150l-142,99L291,56
	l-0.983,196.566c44.128,5.653,78.233,43.352,78.233,89.017c0,45.325-33.6,82.796-77.25,88.879V494l30-52l74,38l-17-68l108-1L414,354
	z" />
</svg>
