<?xml version="1.0" encoding="UTF-8"?>
<!DOCTYPE svg PUBLIC "-//W3C//DTD SVG 1.1//EN" "http://www.w3.org/Graphics/SVG/1.1/DTD/svg11.dtd">
<!-- Creator: CorelDRAW X8 -->
<svg xmlns="http://www.w3.org/2000/svg" xml:space="preserve" width="1000px" height="1000px" version="1.1" style="shape-rendering:geometricPrecision; text-rendering:geometricPrecision; image-rendering:optimizeQuality; fill-rule:evenodd; clip-rule:evenodd"
viewBox="0 0 689 689"
 xmlns:xlink="http://www.w3.org/1999/xlink">
 <defs>
  <style type="text/css">
   <![CDATA[
    .fil7 {fill:#141414}
    .fil2 {fill:#174171}
    .fil0 {fill:#232125}
    .fil8 {fill:#2A9695}
    .fil1 {fill:#5C531A}
    .fil9 {fill:white}
    .fil3 {fill:#2A9695;fill-rule:nonzero}
    .fil4 {fill:#673521;fill-rule:nonzero}
    .fil6 {fill:url(#id0)}
    .fil5 {fill:url(#id1);fill-rule:nonzero}
   ]]>
  </style>
  <radialGradient id="id0" gradientUnits="userSpaceOnUse" gradientTransform="matrix(1 -0 -0 0.951044 0 9)" cx="344.308" cy="189.675" r="58.9141" fx="344.308" fy="189.675">
   <stop offset="0" style="stop-opacity:1; stop-color:#F1E8E8"/>
   <stop offset="0.741176" style="stop-opacity:1; stop-color:#AFAAAA"/>
   <stop offset="1" style="stop-opacity:1; stop-color:#6E6C6C"/>
  </radialGradient>
  <radialGradient id="id1" gradientUnits="userSpaceOnUse" gradientTransform="matrix(0.683772 -0 -0 1 109 0)" cx="344.269" cy="345.682" r="124.489" fx="344.269" fy="345.682">
   <stop offset="0" style="stop-opacity:1; stop-color:#DEDADA"/>
   <stop offset="0.141176" style="stop-opacity:1; stop-color:white"/>
   <stop offset="0.188235" style="stop-opacity:1; stop-color:#B6B2B2"/>
   <stop offset="1" style="stop-opacity:1; stop-color:#8F8B8B"/>
  </radialGradient>
 </defs>
 <g id="ach-president">
  <metadata id="CorelCorpID_0Corel-Layer"/>
  <path id="ach-president-fon" class="fil0" d="M344 0c190,0 345,154 345,344 0,190 -155,345 -345,345 -190,0 -344,-155 -344,-345 0,-190 154,-344 344,-344z"/>
  <path id="ach-president-big-triangles" class="fil1" d="M352 473l53 -93 53 -92 -87 50c1,3 1,5 1,8 0,13 -8,23 -20,27l0 100zm99 -197l-107 0 -106 0 87 50c5,-5 12,-8 19,-8 8,0 15,3 20,8l87 -50zm-220 12l53 92 53 93 0 -100c-12,-4 -21,-14 -21,-27 0,-3 1,-5 1,-8l-86 -50z"/>
  <path id="ach-president-small-stars-container" class="fil2" d="M362 146c23,2 46,8 66,18l-26 45c-13,-5 -26,-9 -40,-11l0 -52zm97 35c19,13 35,30 49,49l-46 26c-8,-11 -18,-21 -30,-29l27 -46zm66 79c10,21 16,43 18,67l-53 0c-1,-14 -5,-28 -11,-40l46 -27zm18 102c-2,23 -8,46 -18,66l-46 -26c6,-13 10,-26 11,-40l53 0zm-35 97c-14,19 -30,35 -49,49l-27 -46c12,-8 22,-18 30,-30l46 27zm-80 66c-20,10 -43,16 -66,18l0 -53c14,-1 27,-5 40,-11l26 46zm-101 18c-24,-2 -46,-8 -67,-18l26 -46c13,6 27,10 41,11l0 53zm-97 -35c-19,-14 -36,-30 -49,-49l46 -27c8,12 18,22 29,30l-26 46zm-66 -80c-10,-20 -16,-43 -18,-66l52 0c2,14 6,27 11,40l-45 26zm-18 -101c2,-24 8,-46 18,-67l45 26c-5,13 -9,27 -11,41l-52 0zm35 -97c13,-19 30,-36 49,-49l26 46c-11,8 -21,18 -29,29l-46 -26zm79 -66c21,-10 43,-16 67,-18l0 52c-14,2 -28,6 -40,11l-27 -45z"/>
  <path id="ach-president-arrows-circle" class="fil3" d="M344 94c69,0 132,28 177,73 46,46 74,108 74,177 0,69 -28,132 -74,177 -45,46 -108,74 -177,74 -69,0 -131,-28 -177,-74 -45,-45 -73,-108 -73,-177 0,-69 28,-131 73,-177 46,-45 108,-73 177,-73zm170 81c-44,-43 -104,-70 -170,-70 -6,0 -12,0 -18,1 -59,4 -112,30 -151,69 -43,43 -70,103 -70,169 0,66 27,126 70,170 43,43 103,70 169,70 66,0 126,-27 170,-70 43,-44 70,-104 70,-170 0,-66 -27,-126 -70,-169z"/>
  <path id="ach-president-circle-1" class="fil4" d="M344 32c86,0 164,35 221,92 56,56 91,134 91,220 0,86 -35,164 -91,221 -57,56 -135,91 -221,91 -86,0 -164,-35 -220,-91 -57,-57 -92,-135 -92,-221 0,-86 35,-164 92,-220 56,-57 134,-92 220,-92zm205 107c-52,-52 -125,-84 -205,-84 -80,0 -152,32 -205,84 -52,53 -84,125 -84,205 0,80 32,153 84,205 53,53 125,85 205,85 80,0 153,-32 205,-85 53,-52 85,-125 85,-205 0,-80 -32,-152 -85,-205z"/>
  <path id="ach-president-star-ray" class="fil5" d="M347 310c9,0 17,4 23,10 6,6 10,14 10,23 15,1 34,1 49,3 -15,1 -33,1 -49,1 0,10 -4,18 -10,24 -6,6 -14,10 -23,11 -1,30 -1,74 -3,88 -1,-14 -1,-58 -3,-88 -8,-1 -16,-5 -22,-11 -6,-6 -10,-14 -11,-24 -15,0 -33,0 -49,-1 16,-1 34,-2 49,-3 1,-9 5,-17 11,-23 6,-6 13,-10 22,-10 2,-30 1,-74 3,-89 2,15 1,59 3,89zm0 1c1,14 3,25 6,27 4,3 13,4 26,5 -1,-8 -4,-16 -10,-22 -6,-5 -13,-9 -22,-10zm32 36c-12,1 -22,2 -26,5 -3,2 -5,13 -6,28 9,0 16,-4 22,-10 6,-6 10,-14 10,-23zm-38 33c-1,-15 -2,-26 -5,-28 -4,-3 -14,-4 -26,-5 0,9 4,17 10,23 5,6 13,10 21,10zm-31 -37c12,-1 22,-2 26,-5 3,-2 4,-13 5,-27 -8,1 -16,5 -21,10 -6,6 -10,14 -10,22z"/>
  <polygon id="ach-president-main-star" class="fil6" points="344,128 358,171 403,171 367,197 381,240 344,214 308,240 322,197 285,171 330,171 "/>
  <path id="ach-president-dash" class="fil3" d="M380 25c-2,0 -3,-2 -3,-4 0,-2 2,-3 4,-3 16,2 32,5 48,9 16,4 31,10 46,16 2,1 3,3 2,5 -1,2 -3,2 -5,2 -14,-7 -29,-12 -45,-16 -15,-4 -31,-7 -47,-9zm155 61c-2,-2 -2,-4 -1,-5 1,-2 3,-2 5,-1 13,10 25,20 37,32 11,11 22,24 32,37 1,1 1,3 -1,5 -1,1 -4,0 -5,-1 -9,-13 -20,-25 -31,-36 -11,-12 -23,-22 -36,-31zm103 129c0,-2 0,-4 2,-5 2,0 4,0 5,2 6,15 12,30 16,46 4,16 8,32 9,49 1,1 -1,3 -3,3 -2,1 -3,-1 -4,-3 -1,-16 -4,-32 -9,-47 -4,-15 -9,-30 -16,-45zm26 164c0,-2 2,-3 4,-3 1,0 3,2 3,4 -2,17 -5,33 -9,48 -4,16 -10,32 -16,47 -1,2 -3,2 -5,2 -2,-1 -3,-3 -2,-5 6,-15 12,-30 16,-45 4,-16 7,-32 9,-48zm-61 155c1,-1 4,-2 5,0 2,1 2,3 1,5 -10,13 -20,25 -32,37 -12,12 -24,22 -37,32 -2,1 -4,1 -5,-1 -1,-1 -1,-3 0,-5 13,-9 26,-20 37,-31 11,-11 22,-24 31,-37zm-130 105c2,-1 4,0 5,1 1,2 0,4 -2,5 -15,7 -30,12 -46,16 -16,5 -32,8 -49,10 -2,0 -4,-2 -4,-4 0,-2 1,-3 3,-3 16,-2 32,-5 48,-9 15,-5 31,-10 45,-16zm-165 25c2,0 4,1 3,3 0,2 -2,4 -3,4 -17,-2 -33,-5 -48,-9 -16,-5 -32,-10 -47,-17 -1,0 -2,-2 -1,-4 0,-2 2,-3 4,-2 15,6 30,12 45,16 16,4 31,7 47,9zm-154 -61c2,1 2,3 1,5 -1,2 -4,2 -5,1 -13,-10 -26,-21 -37,-32 -12,-12 -23,-24 -32,-37 -2,-2 -1,-4 0,-5 2,-1 4,-1 5,1 10,13 20,25 32,36 11,11 23,22 36,31zm-104 -129c1,1 0,3 -2,4 -1,1 -4,0 -4,-2 -7,-14 -12,-30 -17,-46 -4,-15 -7,-31 -9,-48 0,-2 1,-4 3,-4 2,0 4,1 4,3 2,16 5,32 9,47 4,16 10,31 16,46zm-25 -165c0,2 -2,4 -4,3 -2,0 -3,-1 -3,-3 2,-17 5,-33 9,-49 4,-16 9,-31 16,-46 1,-2 3,-3 5,-2 1,1 2,3 1,5 -6,14 -11,29 -15,45 -4,15 -7,31 -9,47zm60 -155c-1,2 -3,2 -5,1 -1,-1 -2,-3 0,-5 9,-13 20,-26 32,-37 11,-12 24,-23 37,-33 2,-1 4,0 5,1 1,2 1,4 -1,5 -13,10 -25,20 -36,32 -12,11 -22,23 -32,36zm130 -104c-1,1 -4,0 -4,-2 -1,-2 0,-4 2,-4 15,-7 30,-13 46,-17 16,-4 32,-7 49,-9 1,0 3,1 3,3 1,2 -1,4 -3,4 -16,2 -32,5 -47,9 -16,4 -31,10 -46,16z"/>
  <path id="ach-president-arrows-shadow" class="fil7" d="M565 437l-22 20 -33 29 30 -5 7 -1 0 0 1 0 2 6 14 29 5 -42 3 -23 2 -21 -9 8zm-251 -330l29 9 42 14 -20 -24 -4 -6 0 0 -1 0 4 -5 18 -26 -38 17 -22 9 -19 8 11 4zm-160 382l-6 -29 -10 -44 -10 29 -3 7 0 0 0 0 -7 0 -31 -3 34 25 19 14 16 13 -2 -12z"/>
  <path id="ach-president-arrows" class="fil8" d="M87 450l34 24 18 14 17 13 -3 -12 -6 -29 -9 -43 -10 29 -3 6 0 0 0 1 -7 -1 -31 -2zm295 -381l-38 17 -22 9 -19 8 12 4 28 9 41 13 -19 -23 -5 -6 0 0 0 0 4 -5 18 -26zm182 445l5 -41 2 -23 3 -21 -9 9 -22 19 -33 29 31 -5 7 -1 0 0 0 0 3 6 13 28z"/>
  <polygon id="ach-president-small-star-1" class="fil9" points="442,227 460,230 463,248 471,231 489,233 476,221 484,204 468,213 455,201 458,219 "/>
  <polygon id="ach-president-small-star-2" class="fil9" points="487,292 502,303 496,320 511,310 525,321 520,303 535,293 517,293 512,275 506,292 "/>
  <polygon id="ach-president-small-star-3" class="fil9" points="495,370 502,387 488,399 506,398 513,415 517,397 535,395 520,386 524,368 510,380 "/>
  <polygon id="ach-president-small-star-4" class="fil9" points="461,442 459,460 441,463 458,471 455,489 468,476 484,484 475,468 488,455 470,458 "/>
  <polygon id="ach-president-small-star-5" class="fil9" points="397,487 386,502 369,496 379,511 368,525 385,520 396,535 396,517 414,512 396,506 "/>
  <polygon id="ach-president-small-star-10" class="fil9" points="247,227 228,230 225,248 217,231 199,233 213,221 205,204 221,213 234,201 231,219 "/>
  <polygon id="ach-president-small-star-9" class="fil9" points="201,292 187,303 193,320 178,310 163,321 168,303 153,293 172,293 177,275 183,292 "/>
  <polygon id="ach-president-small-star-8" class="fil9" points="194,370 187,387 201,399 183,398 176,415 172,397 153,395 169,386 165,368 179,380 "/>
  <polygon id="ach-president-small-star-7" class="fil9" points="227,442 230,460 248,463 231,471 233,489 221,476 204,484 213,468 201,455 219,458 "/>
  <polygon id="ach-president-small-star-6" class="fil9" points="292,487 303,502 320,496 310,511 321,525 303,520 293,535 293,517 275,512 292,506 "/>
 </g>
</svg>
