<?xml version="1.0" encoding="iso-8859-1" ?>
<!-- Generator: Adobe Illustrator 17.0.0, SVG Export Plug-In . SVG Version: 6.00 Build 0)  -->
<!DOCTYPE svg PUBLIC "-//W3C//DTD SVG 1.1//EN" "http://www.w3.org/Graphics/SVG/1.1/DTD/svg11.dtd">
<svg id="achievement-8"
     version="1.1" xmlns="http://www.w3.org/2000/svg" xmlns:xlink="http://www.w3.org/1999/xlink" x="0px" y="0px" width="556px" height="556px"
     viewBox="0 0 556 556" style="enable-background:new 0 0 556 556;" xml:space="preserve">
<path style="fill-rule:evenodd;clip-rule:evenodd;fill:#65140E;stroke:#65140E;stroke-miterlimit:10;" d="M278,0
	c153.535,0,278,124.465,278,278S431.535,556,278,556S0,431.535,0,278S124.465,0,278,0z" />
<path style="fill-rule:evenodd;clip-rule:evenodd;stroke:#65140E;stroke-miterlimit:10;" d="M277.5,27
	C415.295,27,527,138.705,527,276.5S415.295,526,277.5,526S28,414.295,28,276.5S139.705,27,277.5,27z" />
<path style="fill-rule:evenodd;clip-rule:evenodd;fill:#65140E;" d="M267,256l-1-200l-45,178L79,135l75,150l-121,5l110,64l-72,57
	l108,1l-17,68l74-38l30,52v-70C164.237,406.407,182.168,269.989,267,256z" />
<path style="fill-rule:evenodd;clip-rule:evenodd;fill:none;" d="M276,257c48.049,0,87,38.951,87,87c0,48.049-38.951,87-87,87
	c-48.049,0-87-38.951-87-87C189,295.951,227.951,257,276,257z" />
<path style="fill-rule:evenodd;clip-rule:evenodd;fill:#65140E;" d="M290,256l1-200l45,178l142-99l-75,150l121,5l-110,64l72,57
	l-108,1l17,68l-74-38l-30,52v-70C392.763,406.407,374.832,269.989,290,256z" />
<path style="fill-rule:evenodd;clip-rule:evenodd;fill:none;" d="M281,257c-48.049,0-87,38.951-87,87c0,48.049,38.951,87,87,87
	c48.049,0,87-38.951,87-87C368,295.951,329.049,257,281,257z" />
<path style="fill-rule:evenodd;clip-rule:evenodd;fill:#65140E;stroke:#65140E;stroke-miterlimit:10;" d="M278,269l-19,49l-53,2
	l41,34l-14,52l45-31l45,29l-14-51l42-33l-55-3L278,269z" />
<path style="fill-rule:evenodd;clip-rule:evenodd;fill:#65140E;" d="M373.697,84l-11.531,29.686L330,114.898l24.883,20.598
	L346.386,167l27.31-18.781l27.31,17.569l-8.497-30.898L418,114.898l-33.379-1.817L373.697,84z" />
<path style="fill-rule:evenodd;clip-rule:evenodd;fill:#65140E;" d="M187.697,84l-11.531,29.686L144,114.898l24.883,20.598
	L160.386,167l27.31-18.781l27.311,17.569l-8.497-30.898L232,114.898l-33.379-1.817L187.697,84z" />
<path style="fill-rule:evenodd;clip-rule:evenodd;fill:#65140E;" d="M81.255,207l-9.303,23.964L46,231.941l20.076,16.628L59.221,274
	l22.035-15.161l22.035,14.182l-6.855-24.942L117,231.941l-26.931-1.467L81.255,207z" />
<path style="fill-rule:evenodd;clip-rule:evenodd;fill:#65140E;" d="M481.255,207l-9.303,23.964L446,231.941l20.076,16.628
	L459.221,274l22.034-15.161l22.035,14.182l-6.855-24.942L517,231.941l-26.931-1.467L481.255,207z" />
<path style="fill-rule:evenodd;clip-rule:evenodd;fill:#65140E;" d="M481.841,335l-6.028,15.379L459,351.007l13.007,10.672
	L467.566,378l14.276-9.73l14.276,9.102l-4.441-16.007L505,351.007l-17.448-0.942L481.841,335z" />
<path style="fill-rule:evenodd;clip-rule:evenodd;fill:#65140E;" d="M80.841,335l-6.028,15.379L58,351.007l13.007,10.672L66.565,378
	l14.276-9.73l14.276,9.102l-4.441-16.007L104,351.007l-17.448-0.942L80.841,335z" />
<path style="fill-rule:evenodd;clip-rule:evenodd;fill:#65140E;" d="M420.359,419l-5.372,13.949L400,433.518l11.593,9.679
	L407.634,458l12.724-8.825l12.724,8.255l-3.959-14.518L441,433.518l-15.552-0.854L420.359,419z" />
<path style="fill-rule:evenodd;clip-rule:evenodd;fill:#65140E;" d="M143.359,419l-5.372,13.949L123,433.518l11.593,9.679
	L130.635,458l12.724-8.825l12.724,8.255l-3.959-14.518L164,433.518l-15.552-0.854L143.359,419z" />
<path style="fill-rule:evenodd;clip-rule:evenodd;fill:#65140E;" d="M342.366,468l-5.11,13.233L323,481.774l11.028,9.182
	L330.262,505l12.104-8.372l12.103,7.832l-3.766-13.774L362,481.774l-14.793-0.81L342.366,468z" />
<path style="fill-rule:evenodd;clip-rule:evenodd;fill:#65140E;" d="M219.365,469l-5.11,13.234L200,482.774l11.027,9.182
	L207.262,506l12.103-8.372l12.104,7.832l-3.765-13.774L239,482.774l-14.793-0.81L219.365,469z" />
</svg>
