<?xml version="1.0" encoding="iso-8859-1"?>
<!-- Generator: Adobe Illustrator 17.0.0, SVG Export Plug-In . SVG Version: 6.00 Build 0)  -->
<!DOCTYPE svg PUBLIC "-//W3C//DTD SVG 1.1//EN" "http://www.w3.org/Graphics/SVG/1.1/DTD/svg11.dtd">
<svg version="1.1" id="svg-skagry-1"
	 xmlns="http://www.w3.org/2000/svg" xmlns:xlink="http://www.w3.org/1999/xlink" x="0px" y="0px" width="556px" height="556px"
	 viewBox="0 0 556 556" style="enable-background:new 0 0 556 556;" xml:space="preserve">
<linearGradient id="SVGID_1_" gradientUnits="userSpaceOnUse" x1="278.3399" y1="474.4319" x2="282.3264" y2="80.7649">
	<stop  offset="0" style="stop-color:#C2CFD6"/>
	<stop  offset="0.5393" style="stop-color:#899EAA"/>
	<stop  offset="1" style="stop-color:#506975"/>
</linearGradient>
<linearGradient id="SVGID_2_" gradientUnits="userSpaceOnUse" x1="-0.5" y1="261.5098" x2="561.4798" y2="261.5098">
	<stop  offset="0" style="stop-color:#9AADB8"/>
	<stop  offset="0.5393" style="stop-color:#5F7884"/>
	<stop  offset="1" style="stop-color:#2A434E"/>
</linearGradient>
<path style="fill-rule:evenodd;clip-rule:evenodd;fill:url(#SVGID_1_);stroke:url(#SVGID_2_);stroke-miterlimit:10;" d="
	M516.946,319.507c30.321,0.466,45.478-20.695,42.888-50.747c-0.583,0-1.167,0-1.75,0c0.229,14.767-13.844,27.925-28.009,18.374
	c-11.652-7.857-9.723-24.038-8.753-40.248c3.642-2.677,5.048-8.031,8.753-10.499c8.601-5.732,21.166-1.118,25.383,5.25
	c2.162,3.265,1.181,10.88,4.376,13.124c0-1.167,0-2.333,0-3.5c2.587-4.051,0.121-12.418-0.875-15.749
	c-4.279-14.309-12.506-25.238-26.258-29.749c-5.009-1.643-14.626,0.109-19.256-2.625c-0.704-0.893-0.311-0.24-0.875-1.75
	c8.537-9.991,5.503-16.689,25.383-13.999c2.018,2.725,6.058,4.208,7.878,7c2.164,3.319,0.988,8.404,4.376,10.499
	c0-2.916,0-5.833,0-8.75c-3.322-5.165-2.894-12.565-6.127-17.499c-9.372-14.302-25.464-20.33-47.265-17.499
	c-0.292-0.875-0.584-1.75-0.875-2.625c-1.648-1.783-1.751-3.356-1.751-7c6.228-8.084,6.659-12.571,21.882-12.249
	c5.839,5.434,9.717,6.501,13.129,14.874c0.292,0,0.583,0,0.875,0c0-1.75,0-3.5,0-5.25c-2.631-3.843-2.796-9.191-5.252-13.124
	c-6.32-10.123-23.216-24.429-43.764-19.249c-3.522,0.888-6.458,2.833-10.503,3.5c-1.362-2.091-2.558-2.559-3.501-5.25
	c1.626-2.602,2.024-10.391,2.626-13.124c2.775-1.778,6.376-4.642,8.753-7c20.207-1.631,14.729,6.798,25.383,11.374
	c0-0.292,0-0.583,0-0.875c-2.244-2.905-2.381-7.293-4.376-10.499c-5.256-8.446-15.553-16.378-26.258-19.249
	c-11.542-3.095-25.068,0.853-32.385,5.25c-0.66,0.397-2.851,3.383-3.501,3.5c-2.944,0.529-7.78-4.999-8.753-7
	c-4.779-6.777,3.461-16.977,7.878-18.374c9.497-7.869,19.672,3.031,25.383,7c0-0.875,0-1.75,0-2.625
	c-4.177-4.202-6.575-10.452-11.379-13.999c-9.318-6.881-27.428-12.271-42.013-6.125c-6.436,2.712-10.754,9.878-17.506,11.374
	c-2.691-2.4-6.366-2.393-7.877-6.125c-3.28-4.797,1.242-11.633,3.501-13.999c9.434-9.881,18.164-6.238,28.009,0
	c0-0.583,0-1.167,0-1.75c-0.292,0-0.584,0-0.875,0c-5.895-17.043-39.123-20.509-55.142-10.5
	c-5.684,3.552-8.666,12.377-15.755,13.999c-2.289-1.738-6.859-2.398-9.628-3.5c-0.42-3.668-0.872-7.562-0.875-12.249
	c2.368-2.5,3.271-6.77,6.127-8.75c1.875-1.3,3.708-1.163,5.252-2.625c7.378-0.31,11.801-0.06,17.506,2.625c0-0.583,0-1.167,0-1.75
	c-0.292,0-0.584,0-0.875,0c-18.63-20.005-53.42-4.277-62.145,13.124c-4.43,8.836-5.271,25.486,4.376,28.874
	c4.414,2.67,12.062,1.182,17.505,2.625c11.896,3.153,24.801,5.084,35.886,9.625c44.977,18.425,83.181,46.911,107.659,85.746
	c10.615,16.841,19.671,36.45,26.258,56.872c10.327,32.016,12.422,83.736,1.75,117.244c-20.824,65.391-60.15,116.563-119.912,142.618
	c-19.116,8.334-40.546,13.208-63.02,18.374c-2.124,3.046-5.908,5.717-7.002,9.625c-2.299,8.207,3.334,13.147,6.127,16.624
	c13.986,17.412,36.427,11.501,53.392,2.625c0-0.583,0-1.167,0-1.75c-0.292,0-0.584,0-0.875,0c-6.714,6.637-22.865,2.426-25.383-5.25
	c-0.948-0.795-0.074,0.068-0.875-0.875c7.877-2.041,15.756-4.083,23.632-6.125c3.177,4.091,8.193,4.47,14.004,6.125
	c19.939,5.677,32.946-5.268,42.888-14.874c0-0.583,0-1.167,0-1.75c-0.292,0-0.584,0-0.875,0c-5.656,7.886-24.541,8.73-28.009-1.75
	c5.551-1.303,13.929-5.851,17.505-9.625c4.916,1.393,9.607,4.034,14.88,5.25c18.96,4.371,41.847-12.797,43.764-25.374
	c-0.292,0-0.583,0-0.875,0c-5.752,9.225-15.19,9.788-26.258,7c-1.459-1.75-2.918-3.5-4.377-5.25
	c6.037-3.833,10.687-11.532,17.506-13.999c4.165,3.302,14.087,4.057,20.131,2.625c20.698-4.906,28.827-12.427,35.886-30.624
	c-0.583,0-1.167,0-1.75,0c-2.94,5.978-6.944,7.173-11.379,11.374c-9.632,0.987-18.324-0.541-21.007-8.75c0.292,0,0.584,0,0.875,0
	c1.784-5.428,6.753-9.298,9.628-13.999c25.024,8.797,49.738-16.393,49.891-36.748c-0.292,0-0.584,0-0.875,0c0,0.292,0,0.583,0,0.875
	c-3.975,5.464-6.014,11.79-13.129,13.999c-8.981,2.789-17.786-2.231-18.381-8.75c2.042-4.083,4.085-8.167,6.127-12.249
	c4.324,1.494,9.992,0.262,14.004-0.875c19.602-5.555,32.819-18.421,32.385-43.748c-0.583,0-1.167,0-1.751,0
	c-0.632,14.217-10.667,19.667-25.383,17.499c-2.02-2.659-5.409-5.584-7.877-7.875C515.779,325.341,516.363,322.423,516.946,319.507z
	 M44.298,319.507c0.459,3.194,1.761,6.914,0.875,8.749c-2.662,8.285-11.885,9.335-21.882,7.875c-2.018-2.725-6.058-4.208-7.878-7
	c-2.164-3.319-0.988-8.404-4.376-10.499c0,2.916,0,5.833,0,8.75c1.836,2.829,1.213,7.107,2.626,10.499
	c4.125,9.904,13.734,19.518,23.632,23.624c4.432,1.838,18.199,1.426,20.131,2.625c3.089,3.213,5.662,9.298,6.127,14.874
	c-14.445,9.623-25.679,5.224-31.51-9.624c-0.292,0-0.584,0-0.875,0c0,1.75,0,3.5,0,5.25c1.167,3.208,2.334,6.417,3.501,9.625
	c4.262,8.207,12.292,16.448,21.007,20.124c4.88,2.059,23.188,1.269,25.383,2.625c4.356,3.411,6.505,9.326,10.503,13.124
	c-0.552,1.535-0.169,0.85-0.875,1.75c-2.14,3.245-5.182,4.4-7.878,7c-20.207,1.631-14.729-6.798-25.383-11.374
	c0,0.292,0,0.583,0,0.875c2.209,2.94,2.374,7.288,4.376,10.5c5.365,8.603,23.87,24.201,41.138,20.124
	c4.084-1.167,8.17-2.333,12.254-3.5c3.455,5.272,10.412,10.633,15.755,13.999c-0.795,0.948,0.068,0.074-0.875,0.875
	c-9.069,14.492-22.53,2.992-30.635-2.625c0,0.875,0,1.75,0,2.625c10.306,10.228,13.364,18.518,30.635,22.749
	c10.769,2.638,24.303-5.757,28.009-4.375c4.541,1.268,15.532,6.481,17.506,10.5c-0.292,0-0.584,0-0.875,0
	c-6.594,10.492-20.465,4.7-28.009,0c0,0.583,0,1.167,0,1.75c0.292,0,0.583,0,0.875,0c2.699,7.901,23.623,19.958,37.637,16.624
	c7.886-1.876,13.885-6.422,21.007-7.875c5.491,4.001,15.675,2.799,21.007,7c-7.326,7.294-15.729,10.633-27.133,5.25
	c0,0.583,0,1.167,0,1.75c0.292,0,0.583,0,0.875,0c16.835,17.998,59.089,8.844,58.643-19.249c-2.968-3.707-3.718-7.888-8.753-9.625
	c-4.958-3.64-13.38-2.492-20.131-4.375c-11.724-3.27-24.058-6.655-35.011-11.375c-40.184-17.316-74.175-45.879-97.155-80.496
	c-12.474-18.79-21.426-41.191-28.884-64.747c-12.931-40.845-6.141-98.655,7.878-132.119
	c27.294-65.152,71.314-109.588,140.919-132.118c13.341-4.318,27.495-5.014,42.013-7.875c1.977-2.994,5.138-6.699,6.127-10.5
	c1.309-5.03-1.613-10.098-2.626-13.124c-4.732-14.143-21.504-32.725-44.639-27.124c-7.707,1.866-13.186,5.588-19.256,8.75
	c0,0.583,0,1.167,0,1.75c0.292,0,0.583,0,0.875,0c4.891-4.613,16.594-3.631,21.882,0c2.832,1.944,3.848,6.21,6.127,8.75
	c0.191,4.784,0.288,9.717-1.751,12.249c-2.505,1.953-7.664,3.032-11.379,3.5c-7.527-12.325-27.563-26.212-49.015-18.374
	c-8.606,3.145-14.16,9.135-20.131,14.874c0,0.583,0,1.167,0,1.75c0.292,0,0.583,0,0.875,0c6.833-9.42,23.471-6.763,28.884,1.75
	c2.805,3.369,2.812,9.105,1.751,13.999c-3.549,1.667-5.98,3.654-10.503,4.375c-14.58-22.95-64.317-14.967-68.271,11.374
	c0.292,0,0.584,0,0.875,0c5.752-9.225,15.19-9.788,26.258-7c4.103,5.966,8.235,9.819,6.127,20.124
	c-2.752,0.957-4.854,4.829-7.002,5.25c0,0-19.239-8.812-22.757-9.624c-23.601-5.452-39.862,17.312-45.514,31.498
	c0.583,0,1.167,0,1.75,0c2.94-5.978,6.944-7.174,11.379-11.374c9.632-0.987,18.324,0.541,21.007,8.75
	c4.674,5.455,2.89,15.581-3.501,16.624c-5.146-4.798-19.989-4.212-27.134-1.75c-15.458,5.325-29.614,15.789-29.759,35.873
	c0.292,0,0.583,0,0.875,0c0-0.292,0-0.583,0-0.875c4.036-5.444,5.98-11.769,13.129-13.999c13.686-4.269,21.914,6.971,21.882,17.499
	c-2.148,2.292-1.264,3.524-5.252,4.375c-5.466-3.693-16.687-0.984-21.882,0.875c-17.317,6.198-29.315,19.071-28.884,42.873
	c0.584,0,1.167,0,1.751,0c0.632-14.217,10.667-19.667,25.383-17.499c1.82,2.413,5.345,3.674,7.002,6.125
	c1.694,2.505,1.559,5.757,3.501,7.875c-0.552,1.535-0.169,0.85-0.875,1.75c-4.502,2.675-16.646,1.315-21.882,3.5
	C8.626,213.852-0.534,230.554,1.41,254.76c0.584,0,1.167,0,1.751,0c-0.262-14.283,7.29-21.42,21.882-20.999
	c6.539,4.994,14.615,7.143,14.88,18.374c9.566,12.943-6.437,42.162-22.757,37.623c-5.312-1.477-11.289-6.479-13.129-11.375
	c-1.386-3.689,0.284-7.52-2.626-9.624c0,1.167,0,2.333,0,3.5c-3.74,5.739,0.958,17.206,2.626,20.999
	C10.782,308.595,21.921,319.964,44.298,319.507z M289.625,73.893c-5.835,0-11.671,0-17.505,0c-0.795,0.948,0.068,0.074-0.875,0.875
	c0.285,14.425-4.156,28.255-7.878,39.373c-11.759,35.13-24.068,62.873-43.764,89.246c-7.886,10.56-18.176,21.877-28.009,30.624
	c-4.067,3.618-9.646,4.444-10.503,11.374c14.509,9.594,26.592,26.565,31.51,45.498c0.704-0.893,0.311-0.24,0.875-1.75
	c1.43-1.673,1.343-5.06,2.626-7c2.552,3.815,16.999,15.647,21.882,16.624c0.582-2.804,1.521-7.269,2.626-7.875
	c0,0.292,0,0.583,0,0.875c5.641,5.452,14.891,21.166,22.757,22.749c0.469-1.326,0.591-1.482,0.875-3.5
	c-3.144-4.821-0.195-16.022,0-21.874c0.583,0,1.167,0,1.75,0c2.549,8.041,10.487,12.302,14.004,20.124
	c1.535-0.552,0.85-0.169,1.751-0.875c4.579-5.522,9.184-16.099,15.755-19.249c0,2.333,0,4.667,0,7
	c2.445,3.665,0.568,13.516,0,17.499c1.327,0.469,1.482,0.591,3.501,0.875c5.664-8.598,15.236-14.247,20.131-23.624
	c0.583,0,1.167,0,1.751,0c-1.301,3.662-0.719,6.961,3.501,7.875c4.158-6.109,13.918-12.589,20.131-16.624
	c0.031,4.397,0.914,5.619,1.75,8.75c0.704-0.893,0.311-0.24,0.875-1.75c5.556-6.218,9.241-21.289,14.88-28.874
	c4.517-6.076,15.465-9.444,16.63-18.374c-33.495-21.88-63.472-72.151-78.775-112.869c-4.418-11.755-6.54-24.495-9.628-36.748
	C290.658,85.95,291.565,79.557,289.625,73.893z M388.281,127.017c-0.583,0-1.167,0-1.75,0c0.795,0.948-0.068,0.074,0.875,0.875
	c3.578,5.347,9.39,9.016,13.129,13.999c10.733,14.305,21.951,29.343,28.009,48.123c3.858,11.958,3.956,32.672,0,44.623
	c-4.987,15.068-14.979,29.248-23.632,41.123c-3.298,4.526-5.514,11.039-8.753,15.749c-4.403,6.404-12.765,15.363-18.381,20.999
	c-2.626,2.333-5.252,4.667-7.877,7c-3.842,5.672-7.927,10.643-13.129,14.874c0.25,19.595-1.368,40.641-5.252,57.747
	c-0.583,6.416-1.167,12.833-1.75,19.249c-1.856,7.863-3.881,16.709-4.376,25.374c0.292,0,0.584,0,0.875,0
	c8.474-12.861,27.764-29.936,40.263-39.373c10.936-8.257,22.329-20.51,30.635-31.499c4.678-6.19,11.963-11.202,16.63-17.499
	c20.765-28.016,54.255-76.639,38.512-128.619c-2.976-9.827-7.153-19.789-12.254-27.999c-11.484-18.481-28.917-35.572-46.39-48.123
	C406.15,138.243,394.04,134.152,388.281,127.017z M172.964,127.017c-12.774,3.989-23.341,15.398-33.26,22.749
	c-25.046,18.56-42.497,39.545-52.516,73.496c-2.985,10.114-5.81,27.926-2.626,41.123c2.07,8.577,3.707,18.205,7.002,26.249
	c20.042,48.931,56.826,88.292,96.28,118.119c10.029,7.582,15.5,20.914,26.258,27.999c0-1.458,0-2.917,0-4.375
	c-3.461-5.402-1.806-13.815-3.501-20.999c-3.846-16.299-3.268-36.233-7.002-53.372c-1.626-7.462,1.847-17.952-1.751-23.624
	c-4.771-10.347-17.793-17.382-24.508-26.249c-23.719-31.321-66.29-77.184-41.138-132.118c5.618-12.27,14.883-23.649,22.757-34.123
	C162.942,136.593,169.171,132.676,172.964,127.017z M341.266,298.757c-1.459,0-2.918,0-4.376,0
	c-4.085,6.447-14.85,20.431-21.007,24.499c0-1.458,0-2.917,0-4.375c1.689-2.487,1.326-11.502,0.875-13.124
	c-6.698,3.386-13.513,11.352-17.505,17.499c-0.948-0.795-0.074,0.068-0.875-0.875c-3.482-4.031-3.725-11.527-7.878-14.874
	c0-0.292,0-0.583,0-0.875c-0.292,0-0.583,0-0.875,0c0,0.292,0,0.583,0,0.875c-2.938,4.409-2.364,14.845-7.002,17.499
	c-2.515-2.279-1.838-1.002-5.252,0c-0.68-6.322-3.087-12.942-5.252-18.374c-0.584,0.292-1.167,0.583-1.751,0.875
	c-2.334,5.249-4.668,10.5-7.002,15.749c-0.948-0.795-0.074,0.068-0.875-0.875c-3.203-2.241-15.01-17.793-17.505-15.749
	c-1.325,2.755,0.577,12.052,0.875,16.624c-0.292,0-0.583,0-0.875,0c-3.436-5.533-17.296-24.084-24.508-24.499
	c-0.469,1.326-0.591,1.482-0.875,3.5c2.048,3.478,0.601,8.534,1.751,13.124c1.779,7.103,3.474,16.261,5.252,23.624
	c0.292,3.208,0.584,6.417,0.875,9.624c2.385,5.784,10.393,9.289,13.129,14.874c3.256,6.648,4.056,12.535,7.002,19.249
	c4.442,10.124,10.422,21.338,14.88,31.499c3.804,8.672,12.467,37.657,19.256,41.123c2.869-12.097,12.498-27.079,17.505-38.498
	c7.88-17.97,13.212-35.673,21.882-53.372c2.503-5.11,9.299-8.438,12.254-13.124c2.73-4.33,1.226-10.975,2.626-16.624
	C338.289,324.578,343.719,308.129,341.266,298.757z"/>
</svg>
