<?xml version="1.0" encoding="UTF-8"?>
<!DOCTYPE svg PUBLIC "-//W3C//DTD SVG 1.1//EN" "http://www.w3.org/Graphics/SVG/1.1/DTD/svg11.dtd">
<!-- Creator: CorelDRAW X8 -->
<svg xmlns="http://www.w3.org/2000/svg" xml:space="preserve" width="1000px" height="1000px" version="1.1" shape-rendering="geometricPrecision" text-rendering="geometricPrecision" image-rendering="optimizeQuality" fill-rule="evenodd" clip-rule="evenodd"
viewBox="0 0 794 794"
 xmlns:xlink="http://www.w3.org/1999/xlink">
 <g id="images">
  <metadata id="CorelCorpID_0Corel-Layer"/>
  <circle fill="black" cx="397" cy="397" r="397"/>
  <path fill="#FEFEFE" d="M93 636c-11,-13 -20,-27 -29,-42l18 -14c-6,-10 -11,-20 -16,-31l-22 6c-3,-7 -6,-13 -8,-20l19 -12c-3,-9 -6,-18 -9,-27l-23 1c-1,-7 -3,-13 -5,-20l22 -9c-2,-10 -4,-19 -5,-29l-23 -1c0,-7 -1,-15 -1,-22l22 -5c0,-10 0,-19 0,-29l-22 -5c0,-7 1,-14 1,-21l23 -2c1,-10 3,-19 5,-29l-21 -8c1,-7 3,-14 5,-21l22 2c3,-9 6,-19 9,-28l-19 -12c2,-6 5,-13 8,-19l22 5c4,-9 9,-19 14,-28l-18 -14c3,-4 6,-9 9,-13l57 36c-16,26 -29,54 -37,83l-20 -2c-10,33 -14,68 -13,103l21 1c2,65 25,129 68,184 109,139 309,162 448,53 82,-65 109,-163 109,-162l20 3c9,-34 13,-68 12,-103l-20 -3c0,2 -2,-99 -68,-183 -65,-82 -163,-109 -162,-109l2 -20c-33,-9 -68,-13 -103,-12l-2 20c0,0 -3,0 -10,1l-5 -68c58,-5 116,4 170,25l-6 22c11,4 22,9 32,14l14 -18c6,4 13,7 19,11l-8 21c8,5 16,11 24,16l16 -15c6,4 12,8 17,13l-11 20c7,6 14,13 21,20l19 -13c5,5 10,10 14,16l-14 18c6,7 12,14 18,22l21 -9c4,6 8,11 12,17l-17 16c5,8 9,17 14,25l22 -6c3,6 6,13 9,19l-19 13c3,9 7,18 10,27l22 -3c2,7 4,14 6,21l-21 9c3,10 5,21 6,31l23 0c18,132 -32,270 -144,358 -168,132 -412,103 -544,-65zm396 103c-2,-8 2,-15 10,-18 7,-2 15,2 17,9 2,8 -2,16 -9,18 -8,2 -15,-2 -18,-9zm168 -101c-6,-5 -7,-14 -2,-20 5,-6 14,-6 20,-1 6,5 6,14 1,20 -5,5 -14,6 -19,1zm-37 34c-5,-6 -4,-15 2,-20 6,-5 14,-4 19,1 5,6 5,15 -1,20 -6,5 -14,5 -20,-1zm-40 28c-4,-6 -2,-15 4,-19 6,-4 15,-3 19,4 5,6 3,15 -4,19 -6,4 -15,3 -19,-4zm-44 23c-3,-7 0,-16 7,-19 7,-3 15,0 18,7 4,7 1,15 -6,18 -7,4 -16,1 -19,-6zm-433 -84l-10 -13c-2,-3 -2,-8 2,-11l31 -24c3,-2 7,-2 10,1l10 13c2,3 2,8 -1,10l-31 25c-3,2 -8,2 -11,-1zm357 133l-16 3c-4,0 -8,-3 -9,-7l-5 -39c-1,-4 2,-7 6,-8l16 -2c4,-1 8,2 8,6l6 39c1,4 -2,8 -6,8zm-66 5l-17 0c-4,0 -7,-4 -7,-8l1 -39c1,-4 4,-7 8,-7l16 0c4,0 8,4 7,8l-1 39c0,4 -3,8 -7,7zm-66 -6l-16 -3c-4,-1 -7,-5 -6,-9l8 -39c1,-4 5,-6 9,-5l16 3c4,1 6,5 5,9l-8 38c-1,4 -4,7 -8,6zm-64 -18l-15 -6c-4,-1 -6,-6 -5,-9l15 -37c2,-4 6,-6 10,-4l15 6c4,1 5,6 4,9l-15 37c-1,4 -6,6 -9,4zm-60 -28l-14 -9c-3,-2 -5,-7 -2,-10l20 -34c3,-3 7,-4 11,-2l13 8c4,3 5,7 3,11l-21 33c-2,4 -7,5 -10,3zm-54 -39l-12 -11c-3,-3 -4,-7 -1,-10l26 -30c3,-3 8,-3 11,0l12 11c3,2 3,7 1,10l-27 29c-2,3 -7,4 -10,1z"/>
  <path fill="#D40C0C" d="M168 577c-46,-58 -66,-127 -62,-196l-23 -3c-5,0 -9,-5 -8,-10l2 -19c1,-5 5,-9 10,-8l23 3c13,-68 49,-131 107,-177 58,-45 128,-65 196,-62l3 -23c0,-5 5,-8 10,-8l19 2c5,1 9,6 8,11l-3 23c68,12 131,48 177,106 45,58 65,128 62,196l23 3c5,1 9,5 8,10l-2 20c-1,5 -6,8 -11,8l-23 -3c-12,67 -48,130 -106,176 -127,100 -310,78 -410,-49zm11 -8c-95,-121 -74,-296 46,-391 121,-95 296,-74 391,47 95,120 74,295 -47,390 -120,95 -295,74 -390,-46z"/>
  <path fill="#3571C4" fill-rule="nonzero" d="M155 588c-46,-57 -67,-126 -67,-194l10 1c-1,66 20,132 64,187 51,65 124,103 200,112 76,9 156,-11 221,-62 55,-43 91,-103 106,-166l9 1c-15,66 -52,127 -110,172 -67,53 -149,74 -227,65 -79,-10 -154,-49 -206,-116zm-59 -261c16,-66 53,-128 110,-173 58,-45 126,-67 194,-66l-1 9c-66,0 -132,21 -187,64 -55,44 -91,103 -106,167l-10 -1zm371 -231c66,15 128,52 173,110 45,57 67,125 66,193l-9 -1c0,-65 -21,-131 -64,-187 -44,-55 -103,-91 -167,-106l1 -9z"/>
  <path fill="#E31104" d="M103 639c3,3 8,3 11,1l1 -2c-4,-3 -8,-7 -12,-11 -3,-4 -7,-7 -10,-10 -2,2 -2,6 0,9l10 13zm327 93l5 36c1,4 5,7 9,7l16 -3c4,0 7,-4 6,-8l-6 -39c-10,3 -20,5 -30,7zm-29 38l1 -35c-10,1 -20,1 -31,1l-1 33c0,4 3,8 7,8l17 0c4,1 7,-3 7,-7zm-65 -5l7 -30c-11,-1 -21,-2 -31,-3l-6 27c-1,4 2,8 6,9l16 3c4,1 7,-2 8,-6zm-63 -16l9 -23c-10,-2 -20,-5 -30,-8l-8 20c-1,3 1,8 5,9l15 6c3,2 8,0 9,-4zm-59 -27l9 -15c-9,-4 -19,-8 -28,-13l-7 12c-3,3 -1,8 2,10l14 9c3,2 8,1 10,-3zm-54 -37l7 -7c-9,-6 -17,-12 -26,-18l-4 5c-3,3 -2,7 1,10l12 11c3,3 8,2 10,-1z"/>
  <path id="interface-icon-galaxy-info-active" fill="#603882" d="M308 19l15 68c13,-2 25,-5 38,-6l-3 -71c-17,2 -34,5 -50,9zm-149 166l-53 -45c-11,12 -21,25 -30,39l60 36c7,-11 15,-20 23,-30zm-47 -51l53 45c9,-10 18,-18 28,-26l-46 -54c-12,11 -24,22 -35,35zm42 -40l46 53c9,-8 19,-14 30,-21l-36 -60c-14,8 -27,18 -40,28zm48 -33l36 60c11,-6 21,-11 33,-16l-26 -66c-15,7 -30,14 -43,22zm51 -25l26 65c12,-4 23,-8 35,-12l-15 -68c-16,4 -31,9 -46,15z"/>
  <g id="_866832656">
   <path fill="#D1D1D1" d="M540 389l0 2c2,0 3,0 4,-1 -1,-1 -2,-2 -4,-1z"/>
   <path fill="#D1D1D1" d="M545 388l2 1c2,0 2,-1 3,-1 -1,-1 -2,-1 -4,-1l-1 1z"/>
   <path fill="#D1D1D1" d="M548 384c0,1 0,1 1,1 1,1 2,1 2,0l1 -2c-2,0 -3,0 -4,1z"/>
   <path fill="#D1D1D1" d="M524 386l3 -1c-1,-1 -1,-1 -2,-1l-3 0c1,1 1,1 2,2z"/>
   <path fill="#D1D1D1" d="M522 382l3 0 1 -2c-1,0 -1,0 -1,0 0,0 -1,0 -1,0 0,-1 -1,-1 -2,-1l0 3z"/>
   <polygon fill="#D1D1D1" points="547,380 548,381 551,381 550,379 "/>
   <path fill="#D1D1D1" d="M543 377c2,1 1,2 4,0l-1 -1c-1,0 -1,0 -2,0l-1 1z"/>
   <path fill="#D1D1D1" d="M524 378l3 0 2 -1c-1,0 -1,0 -1,0l0 -1c-1,0 -1,0 -1,0 -1,0 -2,1 -3,2z"/>
   <path fill="#D1D1D1" d="M530 375l1 1 3 0 0 -2c-2,0 -4,0 -4,1z"/>
   <path fill="#44D8FF" d="M424 274c3,2 5,1 5,-2 -2,-1 -5,-1 -5,2z"/>
   <path fill="#44D8FF" d="M410 270c2,2 4,2 5,-1l-4 -1c0,1 -1,1 -1,2z"/>
   <path fill="#44D8FF" d="M396 267c2,1 4,1 5,-2 -3,-1 -5,-1 -5,2z"/>
   <path fill="#44D8FF" d="M434 262c1,1 4,1 4,-2l-3 -1c-1,1 -1,1 -1,3z"/>
   <path fill="#44D8FF" d="M382 263c1,1 2,1 3,1 1,0 2,-1 2,-2 -1,-1 -5,-2 -5,1z"/>
   <path fill="#44D8FF" d="M419 258c2,1 5,1 5,-2 -2,-1 -4,0 -5,2z"/>
   <path fill="#44D8FF" d="M405 255c3,1 4,1 5,-2 -2,-1 -5,-1 -5,2z"/>
   <path fill="#44D8FF" d="M575 357c-1,-1 -5,-2 -5,1 2,0 3,1 5,0l0 -1z"/>
   <path fill="#44D8FF" d="M550 352c2,1 5,2 5,-1 -1,-1 -4,-2 -5,1z"/>
   <path fill="#44D8FF" d="M392 251c2,2 4,1 4,-1 -1,-2 -5,-1 -4,1z"/>
   <path fill="#44D8FF" d="M576 349c1,1 4,1 5,1l0 -2c-1,-1 -3,-1 -4,0l-1 1z"/>
   <path fill="#44D8FF" d="M557 344c1,0 2,0 2,1 2,0 3,-1 3,-2 -2,-1 -5,-2 -5,1z"/>
   <path fill="#44D8FF" d="M582 341c1,1 6,2 5,-1 0,0 -4,-2 -5,1z"/>
   <path fill="#44D8FF" d="M563 336c1,0 5,1 5,-1 -1,-1 -5,-2 -5,1z"/>
   <path fill="#44D8FF" d="M588 333c1,0 2,1 3,1 1,0 1,0 2,-1 -1,-2 -5,-3 -5,0z"/>
   <path fill="#44D8FF" d="M569 328c2,0 3,1 5,0 0,-1 -1,-2 -2,-2 -2,0 -3,0 -3,2z"/>
   <path fill="#736E76" d="M490 283c2,0 2,-1 2,-3 -4,0 -3,1 -4,2 0,0 0,0 -1,-1 0,2 0,2 -2,2l2 1 -1 2 1 1c2,-1 2,-1 3,-2 -1,-1 0,0 -1,-1l2 0 -1 -1z"/>
   <path fill="#736E76" d="M481 289c1,1 3,0 4,-1l-1 -1 -3 1 0 1z"/>
   <path fill="#736E76" d="M475 288c0,1 0,1 -1,2l4 0 0 -2 -3 0z"/>
   <path fill="#08243A" d="M384 410c1,-2 5,-7 5,-8 1,-4 -3,0 -1,-6 1,-2 1,-4 3,-4 0,2 -2,4 -2,6 1,1 3,3 5,2 2,0 12,-8 15,-6 1,0 1,2 1,4 0,1 1,3 0,4 -1,1 -6,3 -7,2 0,-1 3,-2 5,-2 1,-9 -2,-7 -9,-3 -8,5 -5,2 -8,3 -2,1 -4,8 -7,8zm26 -17c-6,-1 -10,3 -14,5 -1,1 -1,2 -3,1 0,0 -2,-1 -3,-1 0,-2 3,-4 2,-7 -3,0 -4,2 -5,4 -1,3 -1,3 0,5 2,2 1,1 -1,5 -2,3 -3,4 -2,5 4,1 5,-6 8,-7 2,-2 -1,2 8,-4l3 -1c0,0 0,0 0,-1 0,0 0,0 0,0l1 0c2,-2 2,-1 2,-1 1,0 1,0 1,0 0,-1 1,2 0,5 -2,2 -3,0 -5,3 1,1 2,1 4,0 3,-1 3,-1 5,-2 1,-2 0,-7 -1,-9z"/>
   <path fill="#08243A" d="M437 326c1,-2 1,-4 2,-6 1,-2 1,-4 3,-3 0,1 -3,4 -3,9 0,5 3,5 8,6 6,0 8,0 9,-3 2,-3 5,-6 5,-8 -2,0 -3,1 -5,1 0,-1 1,-1 2,-1 0,-1 1,-1 2,-1 1,-1 3,-2 5,-1 0,2 -6,8 -8,12 1,0 0,0 1,0l2 -3c3,-5 2,-4 5,-8 0,0 1,0 1,-1 0,0 0,-1 -1,-1 -2,-1 -4,1 -7,2l-1 0c-1,1 -2,1 -1,2 1,1 2,0 4,0 -1,1 -2,4 -3,4 -2,4 -1,7 -12,5 -4,-1 -6,-1 -5,-6 1,-4 3,-7 3,-9 -3,-1 -4,2 -5,4 -1,3 -2,6 -1,9 0,-1 0,-3 0,-3z"/>
   <path fill="#08243A" d="M405 375c-1,-6 1,-8 5,-10 5,-3 11,-3 16,0 2,2 3,5 3,9 0,3 -6,7 -10,6 -1,-1 -2,-6 -1,-7 2,0 1,3 3,5 3,1 7,-4 5,-8 0,3 1,5 -2,7 -1,0 -2,0 -3,0 -1,-2 0,-4 -2,-5 -2,0 -2,1 -2,3 0,0 0,3 1,4 2,4 11,-1 12,-5 1,-5 -2,-9 -5,-10 -6,-3 -11,-2 -16,1 -3,1 -6,4 -5,8l1 2c0,0 0,0 0,0z"/>
   <path fill="#08243A" d="M420 347c2,-3 7,-3 10,-3 2,0 4,-1 4,-2 1,-1 2,-2 4,-2 0,2 -2,1 -3,6 -2,7 -3,7 0,8 2,1 2,1 4,2 2,1 2,0 2,1 -2,1 -6,-1 -8,-2 -2,-1 -1,-1 -2,-2 0,-1 1,-3 1,-4 1,-4 0,-4 -3,-3 0,0 0,0 1,0 2,0 3,-1 1,4 -1,5 -2,4 6,7 2,1 4,2 5,0 -1,-2 -6,-4 -8,-5 0,-1 1,-2 1,-3 1,-2 1,-3 1,-4 1,-3 3,-3 3,-6 -2,-1 -4,1 -5,2 -3,3 -3,2 -10,3 -3,1 -4,1 -5,2 1,1 0,1 1,1z"/>
   <path fill="#876C84" d="M405 375l1 2c-1,1 -6,3 -6,4 1,0 7,-3 8,-4 0,-3 -6,-8 5,-12 5,-2 13,0 13,5 2,4 -2,9 -5,8 -2,-2 -1,-5 -3,-5 -1,1 0,6 1,7 4,1 10,-3 10,-6 0,-4 -1,-7 -3,-9 -5,-3 -11,-3 -16,0 -4,2 -6,4 -5,10z"/>
   <path fill="#876C84" d="M384 410c3,0 5,-7 7,-8 3,-1 0,2 8,-3 7,-4 10,-6 9,3 -2,0 -5,1 -5,2 1,1 6,-1 7,-2 1,-1 0,-3 0,-4 0,-2 0,-4 -1,-4 -3,-2 -13,6 -15,6 -2,1 -4,-1 -5,-2 0,-2 2,-4 2,-6 -2,0 -2,2 -3,4 -2,6 2,2 1,6 0,1 -4,6 -5,8z"/>
   <path fill="#876C84" d="M382 420c-3,-2 -5,0 -8,0 -1,-1 -1,-2 -2,-2 -1,0 -1,1 0,2 0,2 2,1 3,1 3,0 6,-1 6,2 0,0 -14,5 -14,7 1,1 5,-2 7,-3 2,0 6,-3 8,-2 1,1 1,2 3,3 1,1 2,0 4,-1 4,-2 7,-1 7,-3 -3,-2 -7,3 -10,2 -2,-1 -1,-4 -4,-6z"/>
   <path fill="#876C84" d="M387 434c-3,-2 -8,-1 -6,2 2,3 7,1 6,-2z"/>
   <path fill="#876C84" d="M375 432c0,1 0,1 1,1 1,0 2,0 1,-2 -1,-1 -2,0 -2,1z"/>
   <path fill="#C9C9C9" d="M515 383c-2,-10 12,-14 21,-13 10,0 21,5 23,12 2,10 -12,14 -21,14 -9,-1 -21,-5 -23,-13zm-2 -1c1,12 26,19 40,12 16,-8 5,-24 -16,-25 -9,0 -24,3 -24,13z"/>
   <path fill="#C9C9C9" d="M529 382l5 0c1,0 0,0 1,1 -1,0 -4,0 -6,0l12 4c0,-1 0,0 -1,-1 0,-1 -1,-1 -2,-2 1,-1 3,1 5,2 0,-2 -1,-6 -2,-7 -3,2 -2,3 -2,4 0,-1 -1,-1 -2,-2 0,0 0,0 0,0 1,-1 1,-2 2,-3l-10 4z"/>
   <path fill="#C9C9C9" d="M530 388c-1,-1 -2,-2 -4,0 1,0 2,1 2,1 1,1 2,0 2,0l1 1 1 -1c1,1 0,2 5,2l0 -2 -3 0c0,-1 0,0 1,-1 -3,0 -2,0 -4,-2 0,1 0,1 -1,2z"/>
   <path fill="#C9C9C9" d="M540 376c0,-1 0,0 1,-1l-4 -1c0,2 0,2 3,2z"/>
   <path fill="#82757D" d="M333 476c1,0 0,0 1,0 1,0 1,0 2,-1 0,0 0,0 0,-1 1,0 1,0 1,0 0,-1 0,-2 1,-2 0,-1 0,-1 1,-1 1,1 1,2 2,4 1,2 4,11 4,13 -3,0 -7,-2 -8,1 2,0 4,0 6,1 2,1 3,2 5,2 1,-3 0,-5 -1,-7 -1,-1 -1,-2 -1,-3 -1,-2 -1,-2 0,-3 2,-3 8,-7 8,-11 -3,0 -6,9 -10,9 0,-1 0,-1 -1,-3 0,-1 0,-2 -1,-3 0,-1 -1,-4 -3,-4 -1,0 -2,3 -3,4 -1,1 -2,4 -3,5z"/>
   <path fill="#82757D" d="M358 479c-4,-2 -7,2 -6,4 2,2 3,1 5,1 1,-1 2,-3 1,-5z"/>
   <path fill="#14426B" d="M457 331c-2,3 -7,2 -12,2 -5,-1 -9,-2 -8,-7 0,0 0,2 0,3 -1,-3 0,-6 1,-9 1,-2 2,-5 5,-4 0,2 -2,5 -3,9 -1,5 1,5 5,6 11,2 10,-1 12,-5 1,0 2,-3 3,-4 -2,0 -3,1 -4,0 -1,-1 0,-1 1,-2l1 0c3,-1 5,-3 7,-2 1,0 1,1 1,1 0,1 -1,1 -1,1 -3,4 -2,3 -5,8l-2 3c-1,0 0,0 -1,0zm-3 -8c1,1 1,1 3,1 -2,4 -3,6 -5,6 -3,0 -8,0 -10,-1 -1,-6 2,-8 3,-12 0,-2 -3,-3 -5,-2 -2,1 -7,11 -4,16 1,3 7,4 11,4 14,0 10,-1 18,-12 0,-1 2,-3 2,-4 0,-3 -2,-3 -5,-2 -1,0 -3,1 -5,2 -2,1 -3,1 -3,4z"/>
   <path fill="#14426B" d="M429 346c-2,0 -8,1 -9,1 -1,0 0,0 -1,-1 1,-1 2,-1 5,-2 7,-1 7,0 10,-3 1,-1 3,-3 5,-2 0,3 -2,3 -3,6 0,1 0,2 -1,4 0,1 -1,2 -1,3 2,1 7,3 8,5 -1,2 -3,1 -5,0 -8,-3 -7,-2 -6,-7 2,-5 1,-4 -1,-4 -1,0 -1,0 -1,0zm-11 1c3,3 7,0 12,0 -1,4 -3,6 0,8 1,1 3,2 3,2 2,1 3,1 4,2 3,1 8,0 7,-3 -1,-1 -6,-3 -8,-4 0,-1 1,-3 1,-5 1,-3 1,-3 2,-5 5,-4 -1,-6 -4,-4 -1,1 -2,3 -3,4 -1,0 -5,0 -6,1 -2,0 -4,0 -5,1 -3,0 -3,1 -3,3z"/>
   <path fill="#14426B" d="M476 366c0,1 0,0 1,1 1,0 1,-1 2,1 1,1 2,2 3,3l-1 1c-1,0 -3,0 -4,0 1,1 0,0 1,1 0,0 1,0 1,0 1,0 2,0 2,0 6,0 -1,-8 -5,-8l0 1z"/>
   <path fill="#6A6B76" d="M520 358l-1 1c1,1 1,0 1,1 2,0 12,3 15,4 4,1 9,3 14,4 4,1 9,3 14,4 4,2 12,5 13,1l-1 -1c0,2 0,1 0,1 -1,-2 -10,-4 -13,-4l-40 -12c-1,1 0,1 -2,1z"/>
   <path fill="#6A6B76" d="M478 267c6,0 13,1 17,4 9,8 2,22 -15,24 -10,1 -22,-4 -21,-13 0,-8 10,-14 19,-15zm1 -1c-19,2 -29,18 -15,26 12,8 34,1 36,-11 1,-11 -11,-15 -21,-15z"/>
   <path fill="#6A6B76" d="M480 279c1,0 3,-1 4,-2 -2,0 -4,0 -6,1 -1,0 -2,0 -3,0 -2,0 -2,0 -2,1 1,0 3,1 4,1 0,0 0,1 0,2 0,-1 -1,-2 -6,-2l7 6c1,-2 0,-3 0,-4 2,0 1,0 2,3 0,1 0,0 0,1 1,-3 4,-5 5,-8 -1,0 -2,1 -3,1 -1,1 -1,1 -2,0z"/>
   <path fill="#6A6B76" d="M488 277c1,1 0,2 4,1 0,-1 -1,-2 -1,-2 -1,0 -1,0 -2,0l-1 1z"/>
   <path fill="#6A6B76" d="M467 286c1,-1 2,-1 2,-2l0 -1 -4 1 2 2z"/>
   <path fill="#6A6B76" d="M469 279c-1,0 -2,0 -3,0l-1 2 3 0 1 -2z"/>
   <polygon fill="#6A6B76" points="479,274 482,274 483,272 479,271 "/>
   <path fill="#6A6B76" d="M467 277c3,0 3,0 5,-1 -1,-1 -1,-1 -2,-2 -1,1 -2,2 -3,3z"/>
   <path fill="#6A6B76" d="M484 274l2 1 3 -1c-1,-1 -2,-1 -3,-2l-2 2z"/>
   <path fill="#6A6B76" d="M473 287l-2 -1 -2 1c0,1 0,1 1,1 0,1 1,1 1,1l2 -2z"/>
   <path fill="#6A6B76" d="M473 273c1,2 1,2 3,1l0 -2c-1,0 -2,1 -3,1z"/>
   <path fill="#0E3466" d="M372 418c1,0 1,1 2,2 3,0 5,-2 8,0 3,2 2,5 4,6 3,1 7,-4 10,-2 0,2 -3,1 -7,3 -2,1 -3,2 -4,1 -2,-1 -2,-2 -3,-3 -2,-1 -6,2 -8,2 -2,1 -6,4 -7,3 0,-2 14,-7 14,-7 0,-3 -3,-2 -6,-2 -1,0 -3,1 -3,-1 -1,-1 -1,-2 0,-2zm3 5c0,0 0,0 -1,1 -1,0 -2,0 -2,1 -3,1 -11,4 -7,7 3,2 12,-5 16,-5 1,3 4,4 7,2 2,0 3,0 4,-1 1,0 1,-1 2,-1 1,0 2,0 3,0 3,-1 2,-5 -2,-5 -3,0 -5,2 -8,2 -1,-3 -1,-4 -4,-6 -3,-1 -4,-1 -7,0 -2,-1 -1,-3 -4,-3 -1,0 -3,1 -3,3 0,1 0,4 1,4 1,1 3,1 5,1z"/>
   <path fill="#0E3466" d="M358 479c1,2 0,4 -1,5 -2,0 -3,1 -5,-1 -1,-2 2,-6 6,-4zm-3 -2c-8,1 -6,11 1,9 7,-2 6,-11 -1,-9z"/>
   <path fill="#083768" d="M405 375c0,0 0,0 0,0l-1 -2c-1,-4 2,-7 5,-8 5,-3 10,-4 16,-1 3,1 6,5 5,10 -1,4 -10,9 -12,5 -1,-1 -1,-4 -1,-4 0,-2 0,-3 2,-3 2,1 1,3 2,5 1,0 2,0 3,0 3,-2 2,-4 2,-7 0,-5 -8,-7 -13,-5 -11,4 -5,9 -5,12 -1,1 -7,4 -8,4 0,-1 5,-3 6,-4l-1 -2zm-2 1c-2,2 -6,2 -6,6 2,1 4,2 6,0 2,-1 3,-2 5,-3 7,-4 -1,-5 2,-10 2,-4 13,-5 15,2 0,3 -2,4 -3,5 0,-2 0,-4 -1,-5 -2,-1 -4,-1 -5,1 -2,1 -1,3 0,5 0,2 0,4 2,4 4,2 16,-2 13,-12 -2,-6 -10,-10 -18,-8 -3,1 -6,3 -8,5 -3,3 -3,6 -2,10z"/>
   <path fill="#083768" d="M337 474c0,0 0,0 -1,0 0,1 0,1 0,1 -1,1 -1,1 -2,1 -1,0 0,0 -1,0 -1,0 2,1 0,0 0,-2 2,-5 3,-6 1,-2 2,-5 5,-4 2,3 2,8 4,10 4,-2 5,-9 9,-9 1,4 -4,9 -6,11 -2,3 -1,4 0,7 0,2 2,4 2,7 -3,1 -3,1 -5,-1 -4,-2 -12,-1 -8,-4 2,-1 4,-1 7,0 -1,-2 -4,-14 -5,-15 -1,1 -1,1 -2,2zm1 2l3 8c-2,1 -3,0 -5,2 -2,0 -3,2 -2,4 2,3 3,-1 10,3 4,3 8,0 8,-3 0,-1 -3,-6 -4,-10 2,-2 9,-8 9,-12 0,-3 -4,-3 -7,-1 -1,2 -2,5 -4,6 -1,-3 -2,-7 -4,-8 -5,-2 -8,4 -10,8 -1,1 -2,2 -1,4 0,2 4,4 7,-1z"/>
   <path fill="#083768" d="M387 434c1,3 -4,5 -6,2 -2,-3 3,-4 6,-2zm-12 -2c0,-1 1,-2 2,-1 1,2 0,2 -1,2 -1,0 -1,0 -1,-1zm4 2c1,8 8,5 10,3 1,-2 0,-5 -2,-6 -2,-1 -5,0 -7,1l0 -1c0,0 0,0 0,0 -3,-6 -10,1 -6,3 2,1 3,1 5,0z"/>
   <path fill="#C49B24" d="M571 442c3,-3 2,-2 4,-7 11,-16 21,-34 32,-50 4,-7 10,-16 14,-23 0,0 0,0 1,0l0 -2c1,-1 2,-2 3,-4l9 -14c1,-2 2,-4 4,-7 1,-1 2,-3 2,-4 1,-2 0,-3 0,-5l-1 -1c-2,0 -1,0 -2,1 0,1 0,1 0,2 -2,3 -6,8 -7,11 -1,0 -1,1 -1,1 -1,1 -1,2 -2,3 -1,2 -3,4 -4,6 -3,6 -12,18 -14,23 -5,9 -15,23 -21,32 0,2 -1,2 -2,4l-13 21c-2,3 -1,1 -1,3 -1,1 -2,2 -2,3 0,0 0,1 0,1l1 1c0,2 -2,3 -4,4 -7,4 -8,3 -15,2 -3,0 -20,-6 -23,-7 -5,-2 -10,-3 -15,-5 -9,-3 -20,-7 -30,-10l-13 -4c-1,0 -1,-1 -2,0l12 5c13,4 25,8 38,13 8,2 16,5 25,8 4,1 8,3 14,3 3,-1 4,0 7,-1 2,-1 4,-3 6,-3z"/>
   <path fill="#C49B24" d="M639 316l0 0c-1,0 0,0 -1,0 0,1 0,1 -1,1l-29 47c-11,16 -21,32 -31,48 -2,2 -3,4 -4,6l-2 3c-3,4 1,4 -2,6 -2,2 -7,5 -10,5 -5,1 -13,-2 -17,-3l-14 -5c-10,-3 -20,-7 -30,-10l-22 -7c-1,-1 -6,-2 -7,-2 -1,0 0,0 -1,0 1,2 27,10 29,11l45 15c11,3 7,2 17,2 4,0 11,-2 13,-6 1,-1 1,-2 2,-3 1,-1 1,-1 1,-2l5 -7c10,-16 21,-32 31,-49 6,-8 10,-15 16,-24l11 -18c3,-4 2,-3 1,-8z"/>
   <path fill="#C49B16" d="M269 510c-1,0 -1,0 -1,0 -1,0 -1,0 -1,0l-42 -20c-1,0 -2,0 -3,-1 -1,-1 0,0 -1,-1 -1,0 0,0 -1,0l-6 -3c-1,0 -2,0 -3,-1 -1,-1 -3,-1 -4,-3 -2,0 -2,0 -3,-1 -1,0 -1,-1 -3,-1 -1,-1 -2,0 -3,-1 -1,-1 0,0 -1,-1l-12 -5c0,0 0,0 0,0l-8 -4c0,0 0,0 -1,0 0,0 0,0 0,-1l-1 0c-2,-1 -2,0 -4,-1 -1,-1 -1,-2 -3,-2l-10 -5c-1,-1 0,-1 -1,-1 0,0 -1,0 -1,-1l-1 0c0,0 0,0 0,0 -1,-1 0,0 -1,-1 -2,-1 -3,-5 -3,-7 0,-2 1,-3 2,-4l3 -4c0,-1 0,-1 0,-1l4 -3c1,-1 0,0 0,-1l2 -3c0,0 1,0 1,0l0 -1c1,-1 2,-2 3,-3l12 -14c0,0 0,0 0,0 1,-1 2,-1 1,-3l-5 5c-2,3 -3,5 -4,6l-1 1c-2,2 -3,3 -4,4 -3,4 -2,2 -4,5 0,0 0,0 0,0 0,0 0,0 0,0l-2 2c-3,3 -2,2 -5,5l-3 4c0,1 -1,1 -1,2 0,1 0,2 -1,3 0,2 0,3 1,4 0,2 1,2 0,3 -1,0 -1,0 -2,-1 -3,-5 -1,-7 0,-10 -1,1 -2,3 -2,4 -1,5 3,12 6,12 0,0 0,0 0,0 -1,-1 -1,-1 -2,-2 2,0 4,1 6,2l10 5c2,1 3,2 5,2l37 17c2,1 3,2 5,3 7,3 14,6 21,9 6,3 10,5 16,7l10 5c10,5 21,11 31,15l18 8c2,1 2,1 3,1 1,1 2,1 3,1l18 9c2,1 3,1 5,2 6,3 13,3 19,0 3,-1 1,1 6,-2 3,-2 5,-4 7,-8l64 -103c1,-2 19,-30 22,-35 4,-7 8,-13 12,-20 1,-2 2,-3 3,-5l23 -38c1,-1 1,-1 2,-2l4 -7c1,-1 1,-2 2,-3 1,-2 2,-3 3,-5l12 -20c1,-2 2,-3 3,-5 4,-6 9,-13 12,-20l0 -4c0,-2 -1,-3 -2,-4 1,3 2,5 1,8l-10 17c-5,7 -10,14 -14,22 -5,8 -10,15 -14,22l-14 23c-17,25 -32,52 -49,78 -14,22 -27,44 -41,67l-14 22c-4,6 -9,17 -16,20l-8 1c-2,0 -6,0 -8,-1 -1,0 -2,-1 -3,-1 -1,-1 -2,-1 -3,-2 -2,-1 0,0 -1,-1 -1,0 -2,0 -2,0l-10 -4c-1,0 -1,-1 -2,-1 -4,-1 -4,-2 -6,-3 -3,-1 -8,-3 -10,-5 -2,0 -3,0 -4,-1 -3,-2 -4,-2 -8,-4l-25 -11z"/>
   <path fill="#C49B16" d="M571 444c-1,2 -8,5 -11,6 -4,2 -15,-2 -19,-4l-59 -20c-2,0 -5,-1 -6,-1l0 0c3,2 64,23 70,25 7,2 7,2 14,2 5,0 9,-3 12,-5 1,-2 3,-5 4,-7 1,-2 3,-4 4,-7 3,-4 6,-9 9,-14 1,-1 1,-2 2,-3l4 -7c1,-1 2,-2 2,-3l39 -63c2,-3 4,-5 4,-9 -2,1 -1,0 -3,4l-15 24c0,0 -1,1 -1,1l-33 54c-3,5 -5,9 -8,14 -2,3 -7,11 -9,13z"/>
   <path fill="#0A0A09" d="M355 477c7,-2 8,7 1,9 -7,2 -9,-8 -1,-9zm-17 -1c-3,5 -7,3 -7,1 -1,-2 0,-3 1,-4 2,-4 5,-10 10,-8 2,1 3,5 4,8 2,-1 3,-4 4,-6 3,-2 7,-2 7,1 0,4 -7,10 -9,12 1,4 4,9 4,10 0,3 -4,6 -8,3 -7,-4 -8,0 -10,-3 -1,-2 0,-4 2,-4 2,-2 3,-1 5,-2l-3 -8zm41 -42c-2,1 -3,1 -5,0 -4,-2 3,-9 6,-3 0,0 0,0 0,0l0 1c2,-1 5,-2 7,-1 2,1 3,4 2,6 -2,2 -9,5 -10,-3zm9 -5c-3,2 -6,1 -7,-2 -4,0 -13,7 -16,5 -4,-3 4,-6 7,-7 0,-1 1,-1 2,-1 1,-1 1,-1 1,-1 -2,0 -4,0 -5,-1 -1,0 -1,-3 -1,-4 0,-2 2,-3 3,-3 3,0 2,2 4,3 3,-1 4,-1 7,0 3,2 3,3 4,6 3,0 5,-2 8,-2 4,0 5,4 2,5 -1,0 -2,0 -3,0 -1,0 -1,1 -2,1 -1,1 -2,1 -4,1zm-2 -28c0,-1 -1,0 -1,-2 0,-2 2,-8 3,-8 1,-1 5,-2 5,0 1,2 -1,4 -1,6 2,2 3,1 5,-1 3,-2 12,-8 15,-3 1,2 1,4 1,6 0,3 0,4 -2,5 -2,1 -9,4 -11,1 0,-4 3,-4 6,-5l0 -3c-4,1 -7,6 -14,7 -2,3 -5,11 -10,6 -1,-1 3,-6 4,-9zm17 -25c-1,-4 -1,-7 2,-10 2,-2 5,-4 8,-5 8,-2 16,2 18,8 3,10 -9,14 -13,12 -2,0 -2,-2 -2,-4 -1,-2 -2,-4 0,-5 1,-2 3,-2 5,-1 1,1 1,3 1,5 1,-1 3,-2 3,-5 -2,-7 -13,-6 -15,-2 -3,5 5,6 -2,10 -2,1 -3,2 -5,3 -2,2 -4,1 -6,0 0,-4 4,-4 6,-6zm15 -29c0,-2 0,-3 3,-3 1,-1 3,-1 5,-1 1,-1 5,-1 6,-1 1,-1 2,-3 3,-4 3,-2 9,0 4,4 -1,2 -1,2 -2,5 0,2 -1,4 -1,5 2,1 7,3 8,4 1,3 -4,4 -7,3 -1,-1 -2,-1 -4,-2 0,0 -2,-1 -3,-2 -3,-2 -1,-4 0,-8 -5,0 -9,3 -12,0zm36 -24c0,-3 1,-3 3,-4 2,-1 4,-2 5,-2 3,-1 5,-1 5,2 0,1 -2,3 -2,4 -8,11 -4,12 -18,12 -4,0 -10,-1 -11,-4 -3,-5 2,-15 4,-16 2,-1 5,0 5,2 -1,4 -4,6 -3,12 2,1 7,1 10,1 2,0 3,-2 5,-6 -2,0 -2,0 -3,-1zm25 -57c10,0 22,4 21,15 -2,12 -24,19 -36,11 -14,-8 -4,-24 15,-26zm-55 8c0,-3 3,-3 5,-2 0,3 -2,4 -5,2zm-14 -4c0,-1 1,-1 1,-2l4 1c-1,3 -3,3 -5,1zm-14 -3c0,-3 2,-3 5,-2 -1,3 -3,3 -5,2zm-14 -4c0,-3 4,-2 5,-1 0,1 -1,2 -2,2 -1,0 -2,0 -3,-1zm52 -1c0,-2 0,-2 1,-3l3 1c0,3 -3,3 -4,2zm4 28c1,-2 4,-6 6,-9l12 -17c2,-3 2,-4 5,-6 3,-2 4,-1 5,1 0,2 -1,1 -1,2 -2,4 -20,28 -22,31 2,1 20,5 24,6 6,2 10,3 17,5 3,2 4,2 4,4 -4,2 -20,-3 -26,-5l-10 -3c-3,0 -10,-2 -12,-2 0,1 -1,1 -2,2l-66 95c0,1 -1,2 -2,3l-24 34c-1,1 -2,2 -2,3l-41 55c-1,2 -4,5 -6,5 1,-5 5,-9 8,-13l64 -94c1,-1 2,-2 3,-3l32 -47c9,-11 18,-26 26,-37 1,0 4,-5 4,-5 -2,-1 -45,-12 -51,-14 -8,-2 -17,-5 -25,-7 -2,0 -5,-1 -7,-2 -6,-1 -13,-3 -19,-5 1,0 1,0 1,0 1,-1 1,0 0,-1 -3,-1 -4,1 -7,-1 -1,0 -1,0 -1,-1 0,-2 0,0 0,-1 5,-2 49,10 57,12l56 15c-1,1 -2,2 -3,4 2,0 3,1 5,1 1,-1 2,-2 2,-4l-4 -1zm-19 -32c1,-2 3,-3 5,-2 0,3 -3,3 -5,2zm-14 -3c0,-3 3,-3 5,-2 -1,3 -2,3 -5,2zm-13 -4c-1,-2 3,-3 4,-1 0,2 -2,3 -4,1zm-42 275c2,-2 5,-6 6,-8 2,-3 3,-5 5,-8 10,-17 21,-32 31,-48 8,-14 17,-27 25,-41 5,-7 12,-17 16,-24 1,-2 3,-5 5,-8l36 -56c2,-3 3,-5 5,-8 3,-4 35,-54 36,-56l-164 -39 -6 6c0,1 0,2 -1,2 -1,1 -1,1 -1,2l-5 5c-2,3 -14,16 -17,20l-4 5c-1,1 -1,1 -2,2l-3 3c0,1 -1,1 -1,2 -4,5 -11,12 -15,17 -4,4 -8,8 -11,13 -3,3 -6,7 -9,10l-6 7c0,0 0,0 -1,1 -1,1 -1,1 -2,2 0,1 0,1 -1,2l-20 23c-1,1 -1,1 -2,2l-13 15c-1,1 -1,1 -1,2l-9 10c-1,1 -1,0 -1,1l-8 9c0,1 -1,1 -1,1l-12 14c-1,1 -1,1 -1,2 -1,0 -1,0 -2,1l-11 14c-3,3 -6,6 -9,10l-10 11c1,1 41,19 46,21 19,8 38,17 58,25l34 16c7,3 16,6 23,10 4,2 8,3 12,5 2,1 9,4 11,5z"/>
   <path fill="#C79A06" d="M350 526c-2,-1 -9,-4 -11,-5 -4,-2 -8,-3 -12,-5 -7,-4 -16,-7 -23,-10l-34 -16c-20,-8 -39,-17 -58,-25 -5,-2 -45,-20 -46,-21l10 -11c3,-4 6,-7 9,-10l11 -14c1,-1 1,-1 2,-1 0,-1 0,-1 1,-2l12 -14c0,0 1,0 1,-1l8 -9c0,-1 0,0 1,-1l9 -10c0,-1 0,-1 1,-2l13 -15c1,-1 1,-1 2,-2l20 -23c1,-1 1,-1 1,-2 1,-1 1,-1 2,-2 1,-1 1,-1 1,-1l6 -7c3,-3 6,-7 9,-10 3,-5 7,-9 11,-13 4,-5 11,-12 15,-17 0,-1 1,-1 1,-2l3 -3c1,-1 1,-1 2,-2l4 -5c3,-4 15,-17 17,-20l5 -5c0,-1 0,-1 1,-2 1,0 1,-1 1,-2l6 -6 164 39c-1,2 -33,52 -36,56 -2,3 -3,5 -5,8l-36 56c-2,3 -4,6 -5,8 -4,7 -11,17 -16,24 -8,14 -17,27 -25,41 -10,16 -21,31 -31,48 -2,3 -3,5 -5,8 -1,2 -4,6 -6,8zm-81 -16l25 11c4,2 5,2 8,4 1,1 2,1 4,1 2,2 7,4 10,5 2,1 2,2 6,3 1,0 1,1 2,1l10 4c0,0 1,0 2,0 1,1 -1,0 1,1 1,1 2,1 3,2 1,0 2,1 3,1 2,1 6,1 8,1l8 -1c7,-3 12,-14 16,-20l14 -22c14,-23 27,-45 41,-67 17,-26 32,-53 49,-78l14 -23c4,-7 9,-14 14,-22 4,-8 9,-15 14,-22l10 -17c1,-3 0,-5 -1,-8 -2,0 -1,0 -2,-1l-24 -6c-1,-1 -2,-1 -3,-1 -1,0 -1,0 -2,0 -1,-1 -1,-1 -1,-1 -3,0 -5,-1 -7,-1l-9 -3c-2,0 -2,0 -3,-1 -6,-1 -13,-2 -19,-4l-11 -3c0,0 0,0 -1,0l-6 -1c-6,-2 -13,-3 -19,-4l-11 -3c-2,-1 -13,-3 -18,-4l-16 -4c-2,-1 -2,-1 -5,-1l-6 -2c-8,-1 -7,-2 -18,-3 0,1 0,1 0,1 -1,1 -1,2 -2,2l-1 0c0,1 0,1 0,1l0 2c0,0 0,0 0,1 -1,-3 0,-1 -1,-2 -1,1 -1,1 -1,1l-1 1c-1,2 -6,4 -4,7 -2,0 0,-1 -1,0 -1,0 -1,0 -1,0 -1,1 0,1 -1,1 -1,1 -1,2 -2,2l-3 4c-1,0 -1,2 -2,2 -1,2 0,1 -2,3l-1 2c-1,1 -2,2 -3,2 -1,1 0,0 -1,1l-1 1c0,0 0,0 0,1l-2 2c-1,1 0,0 -1,1l-2 2c0,1 -1,2 -2,3l-1 1c-1,0 0,0 0,1l-3 3c0,0 0,0 0,0 0,0 0,1 -1,1 0,0 1,-1 0,0 -1,2 2,-1 0,0 -1,1 -2,1 -2,2 -1,1 -1,0 -1,1l-2 3c-1,0 0,0 -1,0l-1 1c0,0 0,0 0,0 0,0 0,0 0,1l0 0c0,0 0,0 0,0 -1,1 0,0 -1,1l-5 5c0,0 0,1 -1,2 0,0 0,-1 0,0 -1,1 -1,2 -1,2 -1,1 -1,0 -1,0 0,1 -1,1 -1,1 0,0 -1,1 -1,1 -1,1 -1,0 0,2 -1,0 -1,0 -2,0 1,1 0,1 1,1 -1,0 -1,0 -2,1l0 0c-1,1 -2,1 -2,2 0,0 -2,1 -2,2 -1,1 -3,3 -4,4 0,0 0,0 0,0l-1 3c0,0 0,0 -1,0 0,0 0,0 0,0l-1 1c0,0 -2,2 -2,3 -1,0 -1,0 -1,0l-9 10c0,0 0,0 0,0l-2 3c-1,2 -1,1 -3,2 -1,2 -3,4 -5,5l0 2c-1,1 -4,4 -5,5l-2 2c-1,1 -2,2 -3,3 -2,3 -1,2 -3,4l-3 4c-2,3 -2,2 -2,2 -1,0 0,0 -1,1 0,0 1,-1 0,0 0,0 0,0 0,0l-6 6c0,0 0,1 0,1l-1 0c0,1 0,2 -2,3 0,0 0,0 0,0l0 1c-1,1 -1,1 -1,2 0,0 0,0 0,0 -1,1 -2,1 -3,2 0,1 0,1 -1,2 -1,2 -4,3 -4,5 0,0 0,0 -1,0l-1 3c-1,0 -1,1 -1,1 -3,2 -1,2 -2,3 0,0 -2,1 -3,1l-2 3c-1,1 0,1 -2,2 -1,0 -3,3 -2,4 -1,0 -1,0 -2,1 0,0 0,0 0,0 -1,1 -2,2 -3,3l0 1c0,0 0,0 0,0 0,0 0,0 0,0l-1 2c-1,1 -3,0 -2,2 -2,0 -2,2 -3,3l0 0c0,0 0,0 0,0l-3 2c0,1 0,1 -1,2 -1,2 -1,0 -1,3 0,0 0,0 0,0 -1,0 0,0 -1,0 0,0 0,-1 0,0 -1,0 0,0 0,1 -1,0 0,0 -1,0l-1 1c0,0 0,0 0,0 -1,1 -1,1 -2,2 -2,3 -1,1 -2,2l-3 3c0,1 0,1 -1,1 0,1 0,1 0,1l0 0c0,0 0,0 0,0l-2 2c0,0 0,0 0,0 0,0 0,0 0,0 -1,2 1,3 -2,2 -1,2 0,1 -1,2 -1,1 -1,0 -1,2 0,0 0,-1 0,0l-4 4c0,0 0,1 0,1l-3 5c-1,1 -2,3 -3,3 -2,2 -1,2 -3,3 -1,1 0,0 -1,1 0,0 0,0 0,0 0,0 -1,0 -1,0 1,1 0,0 1,1 0,0 0,0 0,1l0 0c0,2 -1,1 -2,3l-1 0c1,1 1,0 1,1l-1 1c0,0 1,0 1,0 0,0 0,0 1,0 -1,1 -1,1 -1,2 1,0 1,-1 1,2l2 -1c-1,1 -1,1 0,2l2 1c1,0 1,0 1,1 0,0 0,0 0,0 0,0 0,0 0,0l1 1c1,-2 0,0 1,-1 1,1 0,0 1,0l0 1c1,0 2,0 3,1 0,1 0,1 1,1 2,1 1,1 2,2l3 1c1,0 1,0 1,0 3,3 3,2 4,2 0,0 1,1 1,1 1,0 0,0 1,1 1,0 1,0 1,-1 1,2 0,1 1,2 1,0 1,0 1,0 2,0 0,0 3,1 1,0 0,0 2,1l4 2c0,0 0,0 0,1l4 1c1,1 2,1 3,1l5 3c2,1 3,1 4,2l2 1c1,1 0,0 1,1 0,0 1,0 2,0l1 1c3,1 2,2 4,2l6 3c0,0 1,0 2,1 3,1 6,2 8,4 2,1 4,1 5,2l1 0c1,0 0,0 1,1l22 10c2,1 5,2 6,3z"/>
   <path fill="#171716" d="M513 382c0,-10 15,-13 24,-13 21,1 32,17 16,25 -14,7 -39,0 -40,-12zm62 -25l0 1c-2,1 -3,0 -5,0 0,-3 4,-2 5,-1zm-25 -5c1,-3 4,-2 5,-1 0,3 -3,2 -5,1zm26 -3l1 -1c1,-1 3,-1 4,0l0 2c-1,0 -4,0 -5,-1zm-19 -5c0,-3 3,-2 5,-1 0,1 -1,2 -3,2 0,-1 -1,-1 -2,-1zm25 -3c1,-3 5,-1 5,-1 1,3 -4,2 -5,1zm-19 -5c0,-3 4,-2 5,-1 0,2 -4,1 -5,1zm30 -3c-1,1 -1,1 -2,1 -1,0 -2,-1 -3,-1 0,-3 4,-2 5,0zm-21 -7c1,0 2,1 2,2 -2,1 -3,0 -5,0 0,-2 1,-2 3,-2zm-83 20c7,2 17,5 25,7 2,1 3,1 5,1 0,-1 10,-13 12,-15l22 -26c1,-2 2,-3 3,-4 3,-3 11,-13 15,-13 1,2 0,3 -1,4l-3 4c-5,6 -40,49 -43,52 3,1 33,10 39,12 2,0 4,1 6,1 1,1 6,2 6,3l1 1c-1,4 -9,1 -13,-1 -5,-1 -10,-3 -14,-4 -5,-1 -10,-3 -14,-4 -3,-1 -13,-4 -15,-4 -2,3 -5,6 -7,9 -3,3 -6,6 -8,9 -1,2 -4,3 -5,5 -1,1 0,-1 0,1 -1,1 -2,1 -3,2 0,0 0,0 -1,0 -3,1 -2,-3 -1,-3l1 -1c1,-1 1,-2 2,-4 2,-1 3,-4 4,-5 2,-2 8,-9 10,-12 1,-1 3,-3 3,-4 -8,-1 -4,-1 -8,-2 -1,0 -2,-1 -3,-1 0,0 0,-1 0,0l2 -1c0,0 0,0 0,0 -1,-1 -17,-5 -19,-5 -1,3 -4,5 -5,8 2,0 5,0 6,2l0 2c-3,1 -5,0 -8,-1l-4 6c4,0 11,8 5,8 0,0 -1,0 -2,0 0,0 -1,0 -1,0 -1,-1 0,0 -1,-1 1,0 3,0 4,0l1 -1c-1,-1 -2,-2 -3,-3 -1,-2 -1,-1 -2,-1 -1,-1 -1,0 -1,-1 0,0 0,-1 0,0 0,1 0,1 0,1 0,0 1,0 1,0 2,1 9,8 -3,3 -1,0 -1,1 -2,2 0,1 -1,1 -1,2 -1,2 -2,3 -2,5 1,0 13,4 15,5 2,0 9,3 12,4 4,1 8,2 12,4 14,4 30,9 43,13 4,1 4,1 6,-1 18,-26 35,-52 53,-77 3,-4 11,-16 13,-20 -1,-1 -38,-9 -41,-10l-55 -14c-1,3 -4,6 -5,8l-14 23c-2,4 -19,29 -19,32z"/>
   <path fill="#956804" d="M446 415c0,0 1,-1 1,-2 2,0 1,0 2,1l12 4c2,1 1,-1 2,2 -4,0 -11,-2 -15,-4l-2 -1zm14 -22c1,0 3,1 5,2l4 2c1,1 3,1 5,2 1,0 2,0 3,1 1,0 1,0 2,1l-6 -2c-4,-1 -2,0 -4,0l0 -1c0,0 0,0 0,0 0,0 -1,0 -1,0 0,0 0,0 0,0 0,0 0,0 0,0 0,0 0,0 0,0 0,0 0,0 0,0 -1,0 0,0 -1,1 -2,-1 -1,-1 -3,0 -2,0 -2,-1 -3,0 0,0 0,0 0,1 -1,2 0,1 0,2 1,0 0,-1 1,0 0,0 0,0 0,0 0,0 0,1 0,1 0,0 0,0 0,0l-1 0c-1,0 -2,0 -3,-1 -1,0 -2,0 -3,-1l5 -8zm72 -121c-3,7 -8,14 -12,20 -1,2 -2,3 -3,5l-12 20c-1,2 -2,3 -3,5 -1,1 -1,2 -2,3l-4 7c-1,1 -1,1 -2,2l-23 38c-1,2 -2,3 -3,5 -4,7 -8,13 -12,20 -3,5 -21,33 -22,35 2,0 1,0 2,-2 1,-1 1,-2 2,-3 1,-1 2,-4 4,-5l-1 1c0,0 0,1 0,1 4,1 11,4 15,5 6,2 10,4 16,6 3,1 5,1 8,2 3,1 5,2 8,3l54 19c5,2 7,2 12,2 5,0 5,-1 10,-3 1,-1 2,-1 2,-2 0,0 0,0 0,0 0,0 -1,0 -1,0 -2,1 -3,2 -5,3 -2,0 -3,0 -5,0 -2,0 -6,0 -9,-1l-23 -8c-1,0 -3,-1 -4,-1l-39 -13c-3,-1 -5,-2 -7,-3l-11 -4c-1,0 -1,0 -1,0l-17 -6c-1,0 -2,-1 -2,-1l0 -1c1,0 1,0 1,0 1,0 2,1 3,1 12,4 24,9 35,13l40 13c5,2 11,4 16,6 7,2 18,6 26,2 1,0 2,-1 3,-2 1,0 2,-1 3,-2 -5,0 -6,4 -17,2 -8,-1 -16,-5 -23,-7l-43 -15c0,0 -1,0 -2,-1 -1,0 -1,0 -2,0l-8 -3c-4,-1 -3,0 -5,0 -4,0 -7,-2 -10,-3l-14 -4c0,0 -1,-1 -1,-1l-1 0c0,0 0,0 0,0 1,-2 1,-3 2,-4 3,1 6,2 8,3l55 19c3,1 5,2 8,3 6,2 17,6 24,8 6,2 10,4 17,4 5,0 8,0 12,-3 1,0 1,-1 2,-1 0,-1 0,-1 1,-2 -3,2 -7,5 -12,5 -7,0 -7,0 -14,-2 -6,-2 -67,-23 -70,-25l0 0c1,0 4,1 6,1l59 20c4,2 15,6 19,4 3,-1 10,-4 11,-6 -2,0 -2,1 -4,2 -4,2 -8,3 -13,2 -3,0 -6,-1 -9,-2 -2,-1 1,0 -1,0 -1,-1 0,0 -1,-1 -2,0 -3,-1 -4,-1 -13,-5 -25,-8 -38,-13l-47 -16c-3,-1 -5,-1 -6,-3 1,-2 5,-9 6,-9l11 3c0,1 0,0 0,1l1 0c1,2 11,4 12,5 2,0 31,10 33,11 4,1 8,2 12,3 3,1 25,9 28,9 2,1 4,1 7,1 2,0 4,-1 6,-1 2,-1 4,-2 6,-2l-2 2c0,0 -1,1 -1,1l-1 0c-1,1 -2,1 -2,2l-9 1 -6 -1c-1,0 -1,0 -1,0l-5 -1c-1,-1 -2,-1 -3,-1 -1,-1 -1,-1 -3,-1 -1,-1 -1,-1 -3,-1l-8 -3c-1,-1 -1,-1 -2,-1 -1,0 0,0 -3,-1l-12 -4c-1,0 -2,0 -3,-1 -5,-2 -9,-3 -12,-4l-5 -2c-2,0 -2,0 -4,-1 -2,-1 0,0 -4,-2 0,0 0,0 0,0 -2,-1 -3,-1 -5,-1 -1,-1 -6,-2 -7,-2 0,0 0,0 -1,0 0,0 0,0 0,0 -1,1 0,0 -2,0l0 0c0,0 -1,0 -1,0 0,0 0,0 0,0 0,0 0,0 -1,0 0,0 0,0 0,0 0,0 0,0 -1,0 0,1 0,1 0,2 1,2 0,1 1,2l-5 -1c-1,-1 0,-1 -1,-1 -2,-1 -2,0 -2,0l14 5c5,2 9,3 14,5l64 22c3,1 5,1 8,1 7,0 7,0 12,-2 2,-2 2,-1 3,-3 -2,0 -4,2 -6,3 -3,1 -4,0 -7,1 -6,0 -10,-2 -14,-3 -9,-3 -17,-6 -25,-8 -13,-5 -25,-9 -38,-13l-12 -5c1,-1 1,0 2,0l13 4c10,3 21,7 30,10 5,2 10,3 15,5 3,1 20,7 23,7 7,1 8,2 15,-2 2,-1 4,-2 4,-4l-1 -1c0,0 0,-1 0,-1 0,-1 1,-2 2,-3 0,-2 -1,0 1,-3l13 -21c1,-2 2,-2 2,-4 6,-9 16,-23 21,-32 2,-5 11,-17 14,-23 1,-2 3,-4 4,-6 1,-1 1,-2 2,-3 0,0 0,-1 1,-1 1,-3 5,-8 7,-11 0,-1 0,-1 0,-2 1,-1 0,-1 2,-1 0,-2 1,-2 1,-4 0,-2 0,-3 -1,-5 1,5 2,4 -1,8l-11 18c-6,9 -10,16 -16,24 -10,17 -21,33 -31,49l-5 7c0,1 0,1 -1,2 -1,1 -1,2 -2,3 -2,4 -9,6 -13,6 -10,0 -6,1 -17,-2l-45 -15c-2,-1 -28,-9 -29,-11 1,0 0,0 1,0 1,0 6,1 7,2l22 7c10,3 20,7 30,10l14 5c4,1 12,4 17,3 3,0 8,-3 10,-5 3,-2 -1,-2 2,-6l2 -3c1,-2 2,-4 4,-6 10,-16 20,-32 31,-48l29 -47c1,0 1,0 1,-1 1,0 0,0 1,0 0,-1 2,-2 2,-4 0,-1 -1,-4 -1,-5 0,2 1,3 0,5 0,1 -1,2 -2,4 -1,1 -1,1 -2,3l-27 41c-3,4 -5,8 -8,12l-4 6c-1,2 -2,4 -3,6l-8 12c-1,1 -3,4 -4,6 -1,1 -3,4 -4,5l-6 9c-1,2 -7,5 -9,5 -1,1 -8,1 -9,1 -6,-1 -11,-3 -16,-4l-43 -15c-9,-2 -21,-6 -29,-10 1,-1 0,0 1,0 2,-1 5,1 6,1l46 15c9,3 17,5 26,8 3,1 10,3 14,3 3,0 10,-4 11,-6 -1,-1 -3,-2 -5,-1 -2,1 1,0 -1,0 -1,1 -1,0 -2,0 -1,0 -1,0 -3,0l-3 -1c-4,0 -4,-2 -6,-2 0,0 -2,0 -3,-1l-1 0c-1,-1 0,0 -1,-1 0,0 0,0 -1,0 -2,0 -4,-1 -6,-1l-11 -3c0,0 0,0 0,0 -1,-1 -1,-2 -1,-2 0,-1 -1,0 -1,0l0 0c-3,0 -1,0 -3,-1 0,0 -1,0 -2,-1l0 0c-1,0 -2,0 -3,0l-3 -1c-1,0 0,0 -1,0 -2,0 -3,-1 -5,-2 0,0 0,0 0,0 0,0 0,0 0,0l-7 -2c-2,-1 -3,-1 -3,-2 -1,1 0,1 -1,1 -1,-2 -1,-1 -2,-1 -1,0 -1,0 -1,0 -2,-1 -3,-2 -5,-2 -1,-1 0,0 -2,-1l-2 -1c-2,-1 -2,0 -4,-1l0 -2c0,0 0,0 0,0l-1 -1c-1,-1 0,-1 -1,0l0 -1c0,-1 -10,-4 -11,-4 0,-1 0,-1 1,-1 0,-2 1,-3 2,-5 0,-1 1,-1 1,-2 1,-1 1,-2 2,-2l0 0 0 -1c1,-1 0,-1 2,-2 0,0 0,0 0,0 2,0 0,0 1,0 0,0 -1,0 -1,0 0,0 0,0 0,-1 0,-1 0,0 0,0l0 -1 4 -6 1 -1c1,0 3,2 5,1 -1,-1 -2,-1 -4,-2 0,-1 -1,0 0,-1 1,-3 4,-5 5,-8 2,0 18,4 19,5 0,0 0,0 0,0l-2 1c0,-1 0,0 0,0 1,0 2,1 3,1 0,0 0,-1 -1,-1 4,0 6,2 7,0 -1,-1 -22,-6 -25,-7 0,-1 0,-1 1,-1 0,-3 17,-28 19,-32l14 -23c1,-2 4,-5 5,-8l55 14c-1,-2 1,1 -1,-1l0 -1c1,1 4,1 5,2 2,0 4,0 6,1l22 5c2,1 9,3 11,2 -1,-1 0,0 -1,0 -4,-2 -95,-24 -95,-24 0,-1 0,-2 1,-3 0,-1 0,-1 1,-1 1,-2 2,-3 2,-5 1,-3 1,-3 0,-6 0,1 1,2 1,3 -1,1 -1,2 -1,2 0,1 0,1 -1,1z"/>
   <path fill="#C49E32" d="M582 297c3,1 40,9 41,10 -2,4 -10,16 -13,20 -18,25 -35,51 -53,77 -2,2 -2,2 -6,1 -13,-4 -29,-9 -43,-13 -4,-2 -8,-3 -12,-4 -3,-1 -10,-4 -12,-4l-1 0c1,0 1,1 2,1 3,1 6,2 8,3 0,0 0,0 0,0l1 1c2,0 5,1 7,2 3,1 7,2 10,3 1,0 3,1 5,1 0,0 0,1 1,1 0,0 0,0 1,0 0,0 0,0 0,0l1 1c1,0 1,0 3,0l5 2c0,0 0,0 0,0 0,0 1,0 1,0 1,1 2,1 2,1 2,1 2,1 3,1l5 2c1,0 5,1 8,2l6 2c0,0 0,0 0,0l4 1c0,0 0,0 0,0l3 -6c1,0 0,0 1,-1l2 -3c0,0 0,0 0,0 0,0 0,0 0,0l2 -2c2,-1 0,0 2,-1l0 -1c1,0 2,0 2,0 1,0 1,-1 1,-1 1,-1 1,-1 1,0l0 0c0,0 0,0 0,0 0,0 0,0 0,0l1 -1c1,1 1,1 2,1 1,0 1,0 1,-1l0 -3c1,-1 1,-1 2,-2 1,0 1,0 2,0 1,0 1,0 1,0l3 1c1,0 0,1 0,2 0,0 0,1 0,1l1 0c0,0 0,0 0,0 0,0 0,0 0,0 0,1 0,0 -1,1 -1,2 0,0 0,3l-2 3c0,0 0,0 0,0l-1 2c-1,2 -2,3 -3,4 0,2 -2,4 -3,5 0,1 0,1 0,1l-1 3c2,-1 2,-1 3,-2l1 -2c0,0 0,0 0,0l2 -2c1,-1 3,-4 4,-5 1,-2 3,-5 4,-6l8 -12c1,-2 2,-4 3,-6l4 -6c3,-4 5,-8 8,-12l27 -41c1,-2 1,-2 2,-3 1,-2 2,-3 2,-4 -1,1 0,0 -1,1l-2 3c0,0 0,0 0,0l0 -1c0,-1 2,-2 1,-4 0,0 0,-1 0,-1 0,0 0,0 0,0l-1 -2c0,0 0,0 -1,0 -1,-2 1,-3 -3,-4 0,0 0,0 0,0 -2,0 -1,0 -3,-1 -3,-1 -4,-1 -6,-1 -1,0 0,0 -1,0 -2,-1 -1,-1 -3,-1 -3,-1 -4,-1 -5,-2 -2,0 -1,-1 -2,1 -1,-2 -3,-2 -4,-2 -5,-1 -2,-1 -4,-1 0,0 -1,-1 -2,-1l-15 -3c-4,-1 -3,-2 -7,-2 -1,0 -1,0 -1,1 -1,-1 1,0 -2,-2 -2,-1 -1,1 -5,-1 0,0 -1,0 -1,0 -2,0 -3,0 -3,-1 -2,1 0,0 -2,0 -3,-1 -8,-2 -8,-2l-1 0c0,0 -1,0 -2,-1 -3,-1 -5,-1 -7,-1 -3,-1 1,-1 -2,-1 -1,0 -1,0 -2,-1l-5 -1c0,0 0,0 0,0l-3 0c0,0 0,-1 0,-1 -3,0 -2,0 -4,0l-2 -1c-1,-1 0,0 -1,-1 -1,1 -1,2 -1,3 0,0 91,22 95,24 1,0 0,-1 1,0 -2,1 -9,-1 -11,-2l-22 -5c-2,-1 -4,-1 -6,-1 -1,-1 -4,-1 -5,-2l0 1c2,2 0,-1 1,1z"/>
   <path fill="#C0C0C4" d="M438 290l4 1c0,2 -1,3 -2,4 -2,0 -3,-1 -5,-1 1,-2 2,-3 3,-4l-56 -15c-8,-2 -52,-14 -57,-12 0,1 0,-1 0,1 0,1 0,1 1,1 3,2 4,0 7,1 1,1 1,0 0,1 0,0 0,0 -1,0 6,2 13,4 19,5 2,1 5,2 7,2 8,2 17,5 25,7 6,2 49,13 51,14 0,0 -3,5 -4,5 -8,11 -17,26 -26,37l-32 47c-1,1 -2,2 -3,3l-64 94c-3,4 -7,8 -8,13 2,0 5,-3 6,-5l41 -55c0,-1 1,-2 2,-3l24 -34c1,-1 2,-2 2,-3l66 -95c1,-1 2,-1 2,-2 2,0 9,2 12,2l10 3c6,2 22,7 26,5 0,-2 -1,-2 -4,-4 -7,-2 -11,-3 -17,-5 -4,-1 -22,-5 -24,-6 2,-3 20,-27 22,-31 0,-1 1,0 1,-2 -1,-2 -2,-3 -5,-1 -3,2 -3,3 -5,6l-12 17c-2,3 -5,7 -6,9z"/>
   <path fill="#6B5416" d="M571 442c-1,2 -1,1 -3,3 -5,2 -5,2 -12,2 -3,0 -5,0 -8,-1l-64 -22c-5,-2 -9,-3 -14,-5l-14 -5c0,0 0,-1 2,0 1,0 0,0 1,1l5 1c-1,-1 0,0 -1,-2 0,-1 0,-1 0,-2 1,0 1,0 1,0 0,0 0,0 0,0 1,0 1,0 1,0 0,0 0,0 0,0 0,0 1,0 1,0l0 0c2,0 1,1 2,0 0,0 0,0 0,0 1,0 1,0 1,0 1,0 6,1 7,2 2,0 3,0 5,1 -1,0 -2,0 -3,-1l-1 0c-1,-1 -2,-1 -1,-1 0,-1 2,-1 2,0 0,-1 0,0 -1,-1l1 0c-1,-1 -11,-3 -12,-5l-1 0c0,-1 0,0 0,-1l-11 -3c-1,0 -5,7 -6,9 1,2 3,2 6,3l47 16c13,5 25,8 38,13 1,0 2,1 4,1 1,1 0,0 1,1 2,0 -1,-1 1,0 3,1 6,2 9,2 5,1 9,0 13,-2 2,-1 2,-2 4,-2 2,-2 7,-10 9,-13 3,-5 5,-9 8,-14l33 -54c0,0 1,-1 1,-1l15 -24c2,-4 1,-3 3,-4 0,4 -2,6 -4,9l-39 63c0,1 -1,2 -2,3l-4 7c-1,1 -1,2 -2,3 -3,5 -6,10 -9,14 -1,3 -3,5 -4,7 -1,2 -3,5 -4,7 -1,1 -1,1 -1,2 -1,0 -1,1 -2,1 -4,3 -7,3 -12,3 -7,0 -11,-2 -17,-4 -7,-2 -18,-6 -24,-8 -3,-1 -5,-2 -8,-3l-55 -19c-2,-1 -5,-2 -8,-3 -1,1 -1,2 -2,4 0,0 0,0 0,0l1 0c0,0 1,1 1,1l14 4c3,1 6,3 10,3 2,0 1,-1 5,0l8 3c1,0 1,0 2,0 1,1 2,1 2,1l43 15c7,2 15,6 23,7 11,2 12,-2 17,-2 -1,1 -2,2 -3,2 -1,1 -2,2 -3,2 -8,4 -19,0 -26,-2 -5,-2 -11,-4 -16,-6l-40 -13c-11,-4 -23,-9 -35,-13 -1,0 -2,-1 -3,-1 0,0 0,0 -1,0l0 1c0,0 1,1 2,1l17 6c0,0 0,0 1,0l11 4c2,1 4,2 7,3l39 13c1,0 3,1 4,1l23 8c3,1 7,1 9,1 2,0 3,0 5,0 2,-1 3,-2 5,-3 0,0 1,0 1,0 0,0 0,0 0,0 0,1 -1,1 -2,2 -5,2 -5,3 -10,3 -5,0 -7,0 -12,-2l-54 -19c-3,-1 -5,-2 -8,-3 -3,-1 -5,-1 -8,-2 -6,-2 -10,-4 -16,-6 -4,-1 -11,-4 -15,-5 0,0 0,-1 0,-1l1 -1c-2,1 -3,4 -4,5 -1,1 -1,2 -2,3 -1,2 0,2 -2,2l-64 103c-2,4 -4,6 -7,8 -5,3 -3,1 -6,2 -6,3 -13,3 -19,0 -2,-1 -3,-1 -5,-2l-18 -9c-1,0 -2,0 -3,-1 -1,0 -1,0 -3,-1l-18 -8c-10,-4 -21,-10 -31,-15l-10 -5c-6,-2 -10,-4 -16,-7 -7,-3 -14,-6 -21,-9 -2,-1 -3,-2 -5,-3l-37 -17c-2,0 -3,-1 -5,-2l-10 -5c-2,-1 -4,-2 -6,-2 1,1 1,1 2,2 0,0 0,0 0,0 1,2 13,7 15,8 7,3 15,6 22,10 11,5 24,11 35,16 12,6 27,12 40,18l35 16c1,1 2,1 3,2 3,1 7,3 10,5l22 10c3,1 7,4 11,4 10,0 17,-2 23,-9 1,-1 2,-3 3,-4 5,-8 10,-17 15,-24l54 -88c1,0 15,5 18,6l87 30c3,2 6,2 10,1 3,0 6,-1 9,-3 4,-2 5,-5 8,-9l15 -26c2,-2 3,-5 5,-7l47 -77c1,-2 1,-2 1,-5 -1,-2 1,-2 1,-5 0,-2 -1,-3 -1,-4 0,2 1,3 0,5 0,1 -1,3 -2,4 -2,3 -3,5 -4,7l-9 14c-1,2 -2,3 -3,4l0 2c-1,0 -1,0 -1,0 -4,7 -10,16 -14,23 -11,16 -21,34 -32,50 -2,5 -1,4 -4,7z"/>
   <path fill="#A78527" d="M344 223l2 -1 -6 6c-4,5 -8,9 -12,14l-1 2c0,0 -1,0 -1,0l-7 9c0,0 -1,0 -1,0l-5 6c-3,3 -6,7 -9,11 0,0 0,-1 0,0l-5 5c-1,1 -1,1 -1,2l-18 21c-1,1 1,-1 0,0 -2,1 -3,3 -4,4l-21 24c-1,1 -2,2 -3,3 -2,2 -3,4 -5,6l-21 24c-1,1 -2,2 -3,3 0,1 -1,1 -1,1 -1,1 0,1 -1,2l-19 21c-1,1 -1,2 -2,3l-8 9c-1,1 -1,3 -3,4 -1,0 -1,1 -2,2 0,0 -1,1 -1,1l-7 7c1,2 0,2 -1,3 0,0 0,0 0,0l-12 14c-1,1 -2,2 -3,3l0 1c0,0 -1,0 -1,0l-2 3c0,1 1,0 0,1l-4 3c0,0 0,0 0,1l-3 4c-1,1 -2,2 -2,4 0,2 1,6 3,7 1,1 0,0 1,1 0,0 0,0 0,0l1 0c0,1 1,1 1,1 1,0 0,0 1,1l10 5c2,0 2,1 3,2 2,1 2,0 4,1l1 0c0,1 0,1 0,1 1,0 1,0 1,0l8 4c0,0 0,0 0,0l12 5c1,1 0,0 1,1 1,1 2,0 3,1 2,0 2,1 3,1 1,1 1,1 3,1 1,2 3,2 4,3 1,1 2,1 3,1l6 3c1,0 0,0 1,0 1,1 0,0 1,1 1,1 2,1 3,1l42 20c0,0 0,0 1,0 0,0 0,0 1,0 -1,-1 -4,-2 -6,-3l-22 -10c-1,-1 0,-1 -1,-1l-1 0c-1,-1 -3,-1 -5,-2 -2,-2 -5,-3 -8,-4 -1,-1 -2,-1 -2,-1l-6 -3c-2,0 -1,-1 -4,-2l-1 -1c-1,0 -2,0 -2,0 -1,-1 0,0 -1,-1l-2 -1c-1,-1 -2,-1 -4,-2l-5 -3c-1,0 -2,0 -3,-1l-4 -1c0,-1 0,-1 0,-1l-4 -2c-2,-1 -1,-1 -2,-1 -3,-1 -1,-1 -3,-1 0,0 0,0 -1,0 -1,-1 0,0 -1,-2 0,1 0,1 -1,1 -1,-1 0,-1 -1,-1 0,0 -1,-1 -1,-1 -1,0 -1,1 -4,-2 0,0 0,0 -1,0l-3 -1c-1,-1 0,-1 -2,-2 -1,0 -1,0 -1,-1 -1,-1 -2,-1 -3,-1l0 -1c-1,0 0,1 -1,0 -1,1 0,-1 -1,1l-1 -1c0,0 0,0 0,0 0,0 0,0 0,0 0,-1 0,-1 -1,-1l-2 -1c-1,-1 -1,-1 0,-2l-2 1c0,-3 0,-2 -1,-2 0,-1 0,-1 1,-2 -1,0 -1,0 -1,0 0,0 -1,0 -1,0l1 -1c0,-1 0,0 -1,-1l1 0c1,-2 2,-1 2,-3l0 0c0,-1 0,-1 0,-1 -1,-1 0,0 -1,-1 0,0 1,0 1,0 0,0 0,0 0,0 1,-1 0,0 1,-1 2,-1 1,-1 3,-3 1,0 2,-2 3,-3l3 -5c0,0 0,-1 0,-1l4 -4c0,-1 0,0 0,0 0,-2 0,-1 1,-2 1,-1 0,0 1,-2 3,1 1,0 2,-2 0,0 0,0 0,0 0,0 0,0 0,0l2 -2c0,0 0,0 0,0l0 0c0,0 0,0 0,-1 1,0 1,0 1,-1l3 -3c1,-1 0,1 2,-2 1,-1 1,-1 2,-2 0,0 0,0 0,0l1 -1c1,0 0,0 1,0 0,-1 -1,-1 0,-1 0,-1 0,0 0,0 1,0 0,0 1,0 0,0 0,0 0,0 0,-3 0,-1 1,-3 1,-1 1,-1 1,-2l3 -2c0,0 0,0 0,0l0 0c1,-1 1,-3 3,-3 -1,-2 1,-1 2,-2l1 -2c0,0 0,0 0,0 0,0 0,0 0,0l0 -1c1,-1 2,-2 3,-3 0,0 0,0 0,0 1,-1 1,-1 2,-1 -1,-1 1,-4 2,-4 2,-1 1,-1 2,-2l2 -3c1,0 3,-1 3,-1 1,-1 -1,-1 2,-3 0,0 0,-1 1,-1l1 -3c1,0 1,0 1,0 0,-2 3,-3 4,-5 1,-1 1,-1 1,-2 1,-1 2,-1 3,-2 0,0 0,0 0,0 0,-1 0,-1 1,-2l0 -1c0,0 0,0 0,0 2,-1 2,-2 2,-3l1 0c0,0 0,-1 0,-1l6 -6c0,0 0,0 0,0 1,-1 0,0 0,0 1,-1 0,-1 1,-1 0,0 0,1 2,-2l3 -4c2,-2 1,-1 3,-4 1,-1 2,-2 3,-3l2 -2c1,-1 4,-4 5,-5l0 -2c2,-1 4,-3 5,-5 2,-1 2,0 3,-2l2 -3c0,0 0,0 0,0l9 -10c0,0 0,0 1,0 0,-1 2,-3 2,-3l1 -1c0,0 0,0 0,0 1,0 1,0 1,0l1 -3c0,0 0,0 0,0 1,-1 3,-3 4,-4 0,-1 2,-2 2,-2 0,-1 1,-1 2,-2l0 0c1,-1 1,-1 2,-1 -1,0 0,0 -1,-1 1,0 1,0 2,0 -1,-2 -1,-1 0,-2 0,0 1,-1 1,-1 0,0 1,0 1,-1 0,0 0,1 1,0 0,0 0,-1 1,-2 0,-1 0,0 0,0 1,-1 1,-2 1,-2l5 -5c1,-1 0,0 1,-1 0,0 0,0 0,0l0 0c0,-1 0,-1 0,-1 0,0 0,0 0,0l1 -1c1,0 0,0 1,0l2 -3c0,-1 0,0 1,-1 0,-1 1,-1 2,-2 2,-1 -1,2 0,0 1,-1 0,0 0,0 1,0 1,-1 1,-1 0,0 0,0 0,0l3 -3c0,-1 -1,-1 0,-1l1 -1c1,-1 2,-2 2,-3l2 -2c1,-1 0,0 1,-1l2 -2c0,-1 0,-1 0,-1l1 -1c1,-1 0,0 1,-1 1,0 2,-1 3,-2l1 -2c2,-2 1,-1 2,-3 1,0 1,-2 2,-2l3 -4c1,0 1,-1 2,-2 1,0 0,0 1,-1 0,0 0,0 1,0 1,-1 -1,0 1,0 -2,-3 3,-5 4,-7l1 -1c0,0 0,0 1,-1 1,1 0,-1 1,2 0,-1 0,-1 0,-1l0 -2c0,0 0,0 0,-1l1 0c1,0 1,-1 2,-2 0,0 0,0 0,-1 11,1 10,2 18,3l6 2c3,0 3,0 5,1l16 4c5,1 16,3 18,4l11 3c6,1 13,2 19,4l6 1c1,0 1,0 1,0l11 3c6,2 13,3 19,4 1,1 1,1 3,1l9 3c2,0 4,1 7,1 0,0 0,0 1,1 1,0 1,0 2,0 1,0 2,0 3,1l24 6c1,1 0,1 2,1 1,1 2,2 2,4l0 4c1,0 1,0 1,-1 0,0 0,-1 1,-2 0,-1 -1,-2 -1,-3 -1,-3 -4,-5 -7,-7 -3,-1 -42,-10 -48,-11l-25 -6c-11,-3 -24,-6 -36,-9 -15,-3 -33,-7 -48,-11 -2,0 -4,-1 -6,-1 -6,-1 -12,-2 -18,0 -1,1 0,0 -1,2z"/>
   <path fill="#B58B19" d="M578 407l-2 2c0,0 0,0 0,0l-1 2c-1,1 -1,1 -3,2l1 -3c0,0 0,0 0,-1 1,-1 3,-3 3,-5 1,-1 2,-2 3,-4l1 -2c0,0 0,0 0,0l2 -3c0,-3 -1,-1 0,-3 1,-1 1,0 1,-1 0,0 0,0 0,0 0,0 0,0 0,0l-1 0c0,0 0,-1 0,-1 0,-1 1,-2 0,-2l-3 -1c0,0 0,0 -1,0 -1,0 -1,0 -2,0 -1,1 -1,1 -2,2l0 3c0,1 0,1 -1,1 -1,0 -1,0 -2,-1l-1 1c0,0 0,0 0,0 0,0 0,0 0,0l0 0c0,-1 0,-1 -1,0 0,0 0,1 -1,1 0,0 -1,0 -2,0l0 1c-2,1 0,0 -2,1l-2 2c0,0 0,0 0,0 0,0 0,0 0,0l-2 3c-1,1 0,1 -1,1l-3 6c0,0 0,0 0,0l-4 -1c0,0 0,0 0,0l-6 -2c-3,-1 -7,-2 -8,-2l-5 -2c-1,0 -1,0 -3,-1 0,0 -1,0 -2,-1 0,0 -1,0 -1,0 0,0 0,0 0,0l-5 -2c-2,0 -2,0 -3,0l-1 -1c0,0 0,0 0,0 -1,0 -1,0 -1,0 -1,0 -1,-1 -1,-1 -2,0 -4,-1 -5,-1 -3,-1 -7,-2 -10,-3 -2,-1 -5,-2 -7,-2l-1 -1c0,0 0,0 0,0 -2,-1 -5,-2 -8,-3 -1,0 -1,-1 -2,-1l1 0c-2,-1 -14,-5 -15,-5 -1,0 -1,0 -1,1 1,0 11,3 11,4l0 1c1,-1 0,-1 1,0l1 1c0,0 0,0 0,0l0 2c2,1 2,0 4,1l2 1c2,1 1,0 2,1 2,0 3,1 5,2 0,0 0,0 1,0 1,0 1,-1 2,1 1,0 0,0 1,-1 0,1 1,1 3,2l7 2c0,0 0,0 0,0 0,0 0,0 0,0 2,1 3,2 5,2 1,0 0,0 1,0l3 1c1,0 2,0 3,0l0 0c1,1 2,1 2,1 2,1 0,1 3,1l0 0c0,0 1,-1 1,0 0,0 0,1 1,2 0,0 0,0 0,0l11 3c2,0 4,1 6,1 1,0 1,0 1,0 1,1 0,0 1,1l1 0c1,1 3,1 3,1 2,0 2,2 6,2l3 1c2,0 2,0 3,0 1,0 1,1 2,0 2,0 -1,1 1,0 2,-1 4,0 5,1 -1,2 -8,6 -11,6 -4,0 -11,-2 -14,-3 -9,-3 -17,-5 -26,-8l-46 -15c-1,0 -4,-2 -6,-1 -1,0 0,-1 -1,0 8,4 20,8 29,10l43 15c5,1 10,3 16,4 1,0 8,0 9,-1 2,0 8,-3 9,-5l6 -9z"/>
   <path fill="#CBA43B" d="M344 223c-2,-1 -10,9 -11,10l-34 39c-1,0 -1,1 -2,1 0,1 -1,1 -1,2l-14 16c-4,4 -9,10 -12,14 -3,2 -4,4 -7,6 -3,2 -7,4 -8,8 -1,4 1,1 -2,5l-5 5c0,1 -1,1 -1,2l-19 21c0,0 0,1 -1,1 -1,1 -1,1 -2,2l-23 26c0,1 -1,1 -1,2l-3 3c-1,1 -1,1 -2,2l-11 12c0,1 0,1 -1,2 -3,3 -9,11 -12,14l-22 24c-1,2 -1,3 -2,5 -1,3 -3,5 0,10 1,1 1,1 2,1 1,-1 0,-1 0,-3 -1,-1 -1,-2 -1,-4 1,-1 1,-2 1,-3 0,-1 1,-1 1,-2l3 -4c3,-3 2,-2 5,-5l2 -2c0,0 0,0 0,0 0,0 0,0 0,0 2,-3 1,-1 4,-5 1,-1 2,-2 4,-4l1 -1c1,-1 2,-3 4,-6l5 -5 7 -7c0,0 1,-1 1,-1 1,-1 1,-2 2,-2 2,-1 2,-3 3,-4l8 -9c1,-1 1,-2 2,-3l19 -21c1,-1 0,-1 1,-2 0,0 1,0 1,-1 1,-1 2,-2 3,-3l21 -24c2,-2 3,-4 5,-6 1,-1 2,-2 3,-3l21 -24c1,-1 2,-3 4,-4 1,-1 -1,1 0,0l18 -21c0,-1 0,-1 1,-2l5 -5c0,-1 0,0 0,0 3,-4 6,-8 9,-11l5 -6c0,0 1,0 1,0l7 -9c0,0 1,0 1,0l1 -2c4,-5 8,-9 12,-14l6 -6 -2 1z"/>
   <path fill="#191918" d="M540 389c2,-1 3,0 4,1 -1,1 -2,1 -4,1l0 -2zm6 -2c2,0 3,0 4,1 -1,0 -1,1 -3,1l-2 -1 1 -1zm-16 1c1,-1 1,-1 1,-2 2,2 1,2 4,2 -1,1 -1,0 -1,1l3 0 0 2c-5,0 -4,-1 -5,-2l-1 1 -1 -1c0,0 -1,1 -2,0 0,0 -1,-1 -2,-1 2,-2 3,-1 4,0zm19 -3c-1,0 -1,0 -1,-1 1,-1 2,-1 4,-1l-1 2c0,1 -1,1 -2,0zm-22 0l-3 1c-1,-1 -1,-1 -2,-2l3 0c1,0 1,0 2,1zm-3 -5c0,0 1,0 1,0 0,0 0,0 1,0l-1 2 -3 0 0 -3c1,0 2,0 2,1zm26 -1l1 2 -3 0 -1 -1 3 -1zm-11 -1c-1,1 -1,2 -2,3 0,0 0,0 0,0 1,1 2,1 2,2 0,-1 -1,-2 2,-4 1,1 2,5 2,7 -2,-1 -4,-3 -5,-2 1,1 2,1 2,2 1,1 1,0 1,1l-12 -4c2,0 5,0 6,0 -1,-1 0,-1 -1,-1l-5 0 10 -4zm-15 0c1,-1 2,-2 3,-2 0,0 0,0 1,0l0 1c0,0 0,0 1,0l-2 1 -3 0zm20 -2c1,0 1,0 2,0l1 1c-3,2 -2,1 -4,0l1 -1zm-14 -1c0,-1 2,-1 4,-1l0 2 -3 0 -1 -1zm10 1c-3,0 -3,0 -3,-2l4 1c-1,1 -1,0 -1,1zm-25 7c2,8 14,12 23,13 9,0 23,-4 21,-14 -2,-7 -13,-12 -23,-12 -9,-1 -23,3 -21,13z"/>
   <path fill="#121315" d="M475 288l3 0 0 2 -4 0c1,-1 1,-1 1,-2zm6 1l0 -1 3 -1 1 1c-1,1 -3,2 -4,1zm-10 0c0,0 -1,0 -1,-1 -1,0 -1,0 -1,-1l2 -1 2 1 -2 2zm-6 -5l4 -1 0 1c0,1 -1,1 -2,2l-2 -2zm25 -1l1 1 -2 0c1,1 0,0 1,1 -1,1 -1,1 -3,2l-1 -1 1 -2 -2 -1c2,0 2,0 2,-2 1,1 1,1 1,1 1,-1 0,-2 4,-2 0,2 0,3 -2,3zm-22 -2l-3 0 1 -2c1,0 2,0 3,0l-1 2zm20 -4l1 -1c1,0 1,0 2,0 0,0 1,1 1,2 -4,1 -3,0 -4,-1zm-8 2c1,1 1,1 2,0 1,0 2,-1 3,-1 -1,3 -4,5 -5,8 0,-1 0,0 0,-1 -1,-3 0,-3 -2,-3 0,1 1,2 0,4l-7 -6c5,0 6,1 6,2 0,-1 0,-2 0,-2 -1,0 -3,-1 -4,-1 0,-1 0,-1 2,-1 1,0 2,0 3,0 2,-1 4,-1 6,-1 -1,1 -3,2 -4,2zm-13 -2c1,-1 2,-2 3,-3 1,1 1,1 2,2 -2,1 -2,1 -5,1zm19 -5c1,1 2,1 3,2l-3 1 -2 -1 2 -2zm-13 1c1,0 2,-1 3,-1l0 2c-2,1 -2,1 -3,-1zm6 -2l4 1 -1 2 -3 0 0 -3zm-1 -4c-9,1 -19,7 -19,15 -1,9 11,14 21,13 17,-2 24,-16 15,-24 -4,-3 -11,-4 -17,-4z"/>
   <path fill="#AAAAAA" d="M519 354c0,0 2,-2 2,-2 2,-1 2,-2 3,-2 0,1 -1,3 -2,4 0,0 1,0 1,1l-1 2 40 12c3,0 12,2 13,4 0,0 0,1 0,-1 0,-1 -5,-2 -6,-3 -2,0 -4,-1 -6,-1 -6,-2 -36,-11 -39,-12 3,-3 38,-46 43,-52l3 -4c1,-1 2,-2 1,-4 -4,0 -12,10 -15,13 -1,1 -2,2 -3,4l-22 26c-2,2 -12,14 -12,15z"/>
   <path fill="#D0AA52" d="M530 278c1,1 0,0 1,1l2 1c2,0 1,0 4,0 0,0 0,1 0,1l3 0c0,0 0,0 0,0l5 1c1,1 1,1 2,1 3,0 -1,0 2,1 2,0 4,0 7,1 1,1 2,1 2,1l1 0c0,0 5,1 8,2 2,0 0,1 2,0 0,1 1,1 3,1 0,0 1,0 1,0 4,2 3,0 5,1 3,2 1,1 2,2 0,-1 0,-1 1,-1 4,0 3,1 7,2l15 3c1,0 2,1 2,1 2,0 -1,0 4,1 1,0 3,0 4,2 1,-2 0,-1 2,-1 1,1 2,1 5,2 2,0 1,0 3,1 1,0 0,0 1,0 2,0 3,0 6,1 2,1 1,1 3,1 0,0 0,0 0,0 4,1 2,2 3,4 1,0 1,0 1,0l1 2c0,0 0,0 0,0 0,0 0,1 0,1 1,2 -1,3 -1,4l0 1c0,0 0,0 0,0l2 -3c1,-1 0,0 1,-1 1,-2 0,-3 0,-5 -1,-2 -3,-3 -4,-4 -2,-1 -5,-2 -7,-3 -4,-1 -9,-2 -14,-3 -4,-1 -9,-2 -14,-3l-42 -11c-4,-1 -9,-2 -13,-3l-15 -3c-1,0 -1,0 -1,1z"/>
   <path fill="#A85800" d="M481 415c0,0 0,0 0,0 4,2 2,1 4,2 2,1 2,1 4,1l5 2c3,1 7,2 12,4 1,1 2,1 3,1l12 4c3,1 2,1 3,1 1,0 1,0 2,1l8 3c2,0 2,0 3,1 2,0 2,0 3,1 1,0 2,0 3,1l5 1c0,0 0,0 1,0l6 1 9 -1c0,-1 1,-1 2,-2l1 0c0,0 1,-1 1,-1l2 -2c-2,0 -4,1 -6,2 -2,0 -4,1 -6,1 -3,0 -5,0 -7,-1 -3,0 -25,-8 -28,-9 -4,-1 -8,-2 -12,-3 -2,-1 -31,-11 -33,-11l-1 0c1,1 1,0 1,1 0,-1 -2,-1 -2,0 -1,0 0,0 1,1l1 0c1,1 2,1 3,1z"/>
   <path fill="#063C76" d="M410 393c1,2 2,7 1,9 -2,1 -2,1 -5,2 -2,1 -3,1 -4,0 2,-3 3,-1 5,-3 1,-3 0,-6 0,-5 0,0 0,0 -1,0 0,0 0,-1 -2,1l-1 0c0,0 0,0 0,0 0,1 0,1 0,1l-3 1c-9,6 -6,2 -8,4 -3,1 -4,8 -8,7 -1,-1 0,-2 2,-5 2,-4 3,-3 1,-5 -1,-2 -1,-2 0,-5 1,-2 2,-4 5,-4 1,3 -2,5 -2,7 1,0 3,1 3,1 2,1 2,0 3,-1 4,-2 8,-6 14,-5zm-24 8c-1,3 -5,8 -4,9 5,5 8,-3 10,-6 7,-1 10,-6 14,-7l0 3c-3,1 -6,1 -6,5 2,3 9,0 11,-1 2,-1 2,-2 2,-5 0,-2 0,-4 -1,-6 -3,-5 -12,1 -15,3 -2,2 -3,3 -5,1 0,-2 2,-4 1,-6 0,-2 -4,-1 -5,0 -1,0 -3,6 -3,8 0,2 1,1 1,2z"/>
   <path fill="#949494" d="M507 355c4,1 0,1 8,2 0,1 -2,3 -3,4 -2,3 -8,10 -10,12 1,0 0,0 1,0 0,0 1,-1 1,-1 1,-1 1,-2 2,-2l9 -11c0,0 0,0 0,0 2,-1 1,-1 3,-1 -2,2 -3,4 -5,5 -1,1 -1,1 -2,3 -1,1 -2,1 -3,2l-8 11c1,-1 2,-3 3,-4 2,-2 3,-3 5,-4l5 -6c2,-1 2,-1 3,-2l-4 6c0,0 0,0 0,0 -1,0 -1,0 -1,1l-1 1c0,0 -1,0 -1,1l-4 4c0,0 0,1 0,1 -1,1 -1,0 0,1 2,-3 5,-6 8,-9 2,-3 5,-6 7,-9 0,-1 0,0 -1,-1l1 -1 -4 -1c0,-2 1,-2 1,-3 3,0 4,1 6,1 0,-1 -1,-1 -1,-1 1,-1 2,-3 2,-4 -1,0 -1,1 -3,2 0,0 -2,2 -2,2 -2,0 -3,0 -5,-1 -8,-2 -18,-5 -25,-7 -1,0 -1,0 -1,1 3,1 24,6 25,7 -1,2 -3,0 -7,0 1,0 1,1 1,1z"/>
   <path fill="#655750" d="M502 373c-1,1 -2,4 -4,5 -1,2 -1,3 -2,4l-1 1c-1,0 -2,4 1,3 1,0 1,0 1,0 1,-1 2,-1 3,-2 0,-2 -1,0 0,-1 1,-2 4,-3 5,-5 -1,-1 -1,0 0,-1 0,0 0,-1 0,-1l4 -4c0,-1 1,-1 1,-1l1 -1c0,-1 0,-1 1,-1 0,0 0,0 0,0l4 -6c-1,1 -1,1 -3,2l-5 6c-2,1 -3,2 -5,4 -1,1 -2,3 -3,4l8 -11c1,-1 2,-1 3,-2 1,-2 1,-2 2,-3 2,-1 3,-3 5,-5 -2,0 -1,0 -3,1 0,0 0,0 0,0l-9 11c-1,0 -1,1 -2,2 0,0 -1,1 -1,1 -1,0 0,0 -1,0z"/>
   <path fill="#061D35" d="M333 476c1,-1 2,-4 3,-5 1,-1 2,-4 3,-4 2,0 3,3 3,4 1,1 1,2 1,3 1,2 1,2 1,3 4,0 7,-9 10,-9 0,4 -6,8 -8,11 -1,1 -1,1 0,3 0,1 0,2 1,3 1,2 2,4 1,7 -2,0 -3,-1 -5,-2 -2,-1 -4,-1 -6,-1 1,-3 5,-1 8,-1 0,-2 -3,-11 -4,-13 -1,-2 -1,-3 -2,-4 -1,0 -1,0 -1,1 -1,0 -1,1 -1,2 1,-1 1,-1 2,-2 1,1 4,13 5,15 -3,-1 -5,-1 -7,0 -4,3 4,2 8,4 2,2 2,2 5,1 0,-3 -2,-5 -2,-7 -1,-3 -2,-4 0,-7 2,-2 7,-7 6,-11 -4,0 -5,7 -9,9 -2,-2 -2,-7 -4,-10 -3,-1 -4,2 -5,4 -1,1 -3,4 -3,6 2,1 -1,0 0,0z"/>
   <path fill="#777484" d="M437 326c-1,5 3,6 8,7 5,0 10,1 12,-2 2,-4 8,-10 8,-12 -2,-1 -4,0 -5,1 -1,0 -2,0 -2,1 -1,0 -2,0 -2,1 2,0 3,-1 5,-1 0,2 -3,5 -5,8 -1,3 -3,3 -9,3 -5,-1 -8,-1 -8,-6 0,-5 3,-8 3,-9 -2,-1 -2,1 -3,3 -1,2 -1,4 -2,6z"/>
   <path fill="#6E3600" d="M455 401c1,1 2,1 3,1 1,1 2,1 3,1l1 0c0,0 0,0 0,0 0,0 0,-1 0,-1 0,0 0,0 0,0 -1,-1 0,0 -1,0 0,-1 -1,0 0,-2 0,-1 0,-1 0,-1 1,-1 1,0 3,0 2,-1 1,-1 3,0 1,-1 0,-1 1,-1 0,0 0,0 0,0 0,0 0,0 0,0 0,0 0,0 0,0 0,0 0,0 0,0 0,0 1,0 1,0 0,0 0,0 0,0l0 1c2,0 0,-1 4,0l6 2c-1,-1 -1,-1 -2,-1 -1,-1 -2,-1 -3,-1 -2,-1 -4,-1 -5,-2l-4 -2c-2,-1 -4,-2 -5,-2l-5 8z"/>
   <path fill="#847484" d="M420 347c1,0 7,-1 9,-1 3,-1 4,-1 3,3 0,1 -1,3 -1,4 1,1 0,1 2,2 2,1 6,3 8,2 0,-1 0,0 -2,-1 -2,-1 -2,-1 -4,-2 -3,-1 -2,-1 0,-8 1,-5 3,-4 3,-6 -2,0 -3,1 -4,2 0,1 -2,2 -4,2 -3,0 -8,0 -10,3z"/>
   <path fill="#664903" d="M463 420c-1,-3 0,-1 -2,-2l-12 -4c-1,-1 0,-1 -2,-1 0,1 -1,2 -1,2l2 1c4,2 11,4 15,4z"/>
   <path fill="#0A3459" d="M480 359c3,1 5,2 8,1l0 -2c-1,-2 -4,-2 -6,-2 -1,1 0,0 0,1 2,1 3,1 4,2 -2,1 -4,-1 -5,-1l-1 1z"/>
   <path fill="#050505" d="M520 358c2,0 1,0 2,-1l1 -2c-2,0 -3,-1 -6,-1 0,1 -1,1 -1,3l4 1z"/>
   <path fill="#90794B" d="M474 369l0 1 0 0c12,5 5,-2 3,-3 -1,0 1,0 -1,0 0,0 0,0 0,0 1,1 1,1 1,3l-3 -1z"/>
   <path fill="#081727" d="M474 369l3 1c0,-2 0,-2 -1,-3 -2,1 -1,1 -2,2z"/>
  </g>
  <g id="_866849328">
   <path fill="#D1D1D1" d="M540 389l0 2c2,0 3,0 4,-1 -1,-1 -2,-2 -4,-1z"/>
   <path fill="#D1D1D1" d="M545 388l2 1c2,0 2,-1 3,-1 -1,-1 -2,-1 -4,-1l-1 1z"/>
   <path fill="#D1D1D1" d="M548 384c0,1 0,1 1,1 1,1 2,1 2,0l1 -2c-2,0 -3,0 -4,1z"/>
   <path fill="#D1D1D1" d="M524 386l3 -1c-1,-1 -1,-1 -2,-1l-3 0c1,1 1,1 2,2z"/>
   <path fill="#D1D1D1" d="M522 382l3 0 1 -2c-1,0 -1,0 -1,0 0,0 -1,0 -1,0 0,-1 -1,-1 -2,-1l0 3z"/>
   <polygon fill="#D1D1D1" points="547,380 548,381 551,381 550,379 "/>
   <path fill="#D1D1D1" d="M543 377c2,1 1,2 4,0l-1 -1c-1,0 -1,0 -2,0l-1 1z"/>
   <path fill="#D1D1D1" d="M524 378l3 0 2 -1c-1,0 -1,0 -1,0l0 -1c-1,0 -1,0 -1,0 -1,0 -2,1 -3,2z"/>
   <path fill="#D1D1D1" d="M530 375l1 1 3 0 0 -2c-2,0 -4,0 -4,1z"/>
   <path fill="#44D8FF" d="M424 274c3,2 5,1 5,-2 -2,-1 -5,-1 -5,2z"/>
   <path fill="#44D8FF" d="M410 270c2,2 4,2 5,-1l-4 -1c0,1 -1,1 -1,2z"/>
   <path fill="#44D8FF" d="M396 267c2,1 4,1 5,-2 -3,-1 -5,-1 -5,2z"/>
   <path fill="#44D8FF" d="M434 262c1,1 4,1 4,-2l-3 -1c-1,1 -1,1 -1,3z"/>
   <path fill="#44D8FF" d="M382 263c1,1 2,1 3,1 1,0 2,-1 2,-2 -1,-1 -5,-2 -5,1z"/>
   <path fill="#44D8FF" d="M419 258c2,1 5,1 5,-2 -2,-1 -4,0 -5,2z"/>
   <path fill="#44D8FF" d="M405 255c3,1 4,1 5,-2 -2,-1 -5,-1 -5,2z"/>
   <path fill="#44D8FF" d="M575 357c-1,-1 -5,-2 -5,1 2,0 3,1 5,0l0 -1z"/>
   <path fill="#44D8FF" d="M550 352c2,1 5,2 5,-1 -1,-1 -4,-2 -5,1z"/>
   <path fill="#44D8FF" d="M392 251c2,2 4,1 4,-1 -1,-2 -5,-1 -4,1z"/>
   <path fill="#44D8FF" d="M576 349c1,1 4,1 5,1l0 -2c-1,-1 -3,-1 -4,0l-1 1z"/>
   <path fill="#44D8FF" d="M557 344c1,0 2,0 2,1 2,0 3,-1 3,-2 -2,-1 -5,-2 -5,1z"/>
   <path fill="#44D8FF" d="M582 341c1,1 6,2 5,-1 0,0 -4,-2 -5,1z"/>
   <path fill="#44D8FF" d="M563 336c1,0 5,1 5,-1 -1,-1 -5,-2 -5,1z"/>
   <path fill="#44D8FF" d="M588 333c1,0 2,1 3,1 1,0 1,0 2,-1 -1,-2 -5,-3 -5,0z"/>
   <path fill="#44D8FF" d="M569 328c2,0 3,1 5,0 0,-1 -1,-2 -2,-2 -2,0 -3,0 -3,2z"/>
   <path fill="#736E76" d="M490 283c2,0 2,-1 2,-3 -4,0 -3,1 -4,2 0,0 0,0 -1,-1 0,2 0,2 -2,2l2 1 -1 2 1 1c2,-1 2,-1 3,-2 -1,-1 0,0 -1,-1l2 0 -1 -1z"/>
   <path fill="#736E76" d="M481 289c1,1 3,0 4,-1l-1 -1 -3 1 0 1z"/>
   <path fill="#736E76" d="M475 288c0,1 0,1 -1,2l4 0 0 -2 -3 0z"/>
   <path fill="#08243A" d="M384 410c1,-2 5,-7 5,-8 1,-4 -3,0 -1,-6 1,-2 1,-4 3,-4 0,2 -2,4 -2,6 1,1 3,3 5,2 2,0 12,-8 15,-6 1,0 1,2 1,4 0,1 1,3 0,4 -1,1 -6,3 -7,2 0,-1 3,-2 5,-2 1,-9 -2,-7 -9,-3 -8,5 -5,2 -8,3 -2,1 -4,8 -7,8zm26 -17c-6,-1 -10,3 -14,5 -1,1 -1,2 -3,1 0,0 -2,-1 -3,-1 0,-2 3,-4 2,-7 -3,0 -4,2 -5,4 -1,3 -1,3 0,5 2,2 1,1 -1,5 -2,3 -3,4 -2,5 4,1 5,-6 8,-7 2,-2 -1,2 8,-4l3 -1c0,0 0,0 0,-1 0,0 0,0 0,0l1 0c2,-2 2,-1 2,-1 1,0 1,0 1,0 0,-1 1,2 0,5 -2,2 -3,0 -5,3 1,1 2,1 4,0 3,-1 3,-1 5,-2 1,-2 0,-7 -1,-9z"/>
   <path fill="#08243A" d="M437 326c1,-2 1,-4 2,-6 1,-2 1,-4 3,-3 0,1 -3,4 -3,9 0,5 3,5 8,6 6,0 8,0 9,-3 2,-3 5,-6 5,-8 -2,0 -3,1 -5,1 0,-1 1,-1 2,-1 0,-1 1,-1 2,-1 1,-1 3,-2 5,-1 0,2 -6,8 -8,12 1,0 0,0 1,0l2 -3c3,-5 2,-4 5,-8 0,0 1,0 1,-1 0,0 0,-1 -1,-1 -2,-1 -4,1 -7,2l-1 0c-1,1 -2,1 -1,2 1,1 2,0 4,0 -1,1 -2,4 -3,4 -2,4 -1,7 -12,5 -4,-1 -6,-1 -5,-6 1,-4 3,-7 3,-9 -3,-1 -4,2 -5,4 -1,3 -2,6 -1,9 0,-1 0,-3 0,-3z"/>
   <path fill="#08243A" d="M405 375c-1,-6 1,-8 5,-10 5,-3 11,-3 16,0 2,2 3,5 3,9 0,3 -6,7 -10,6 -1,-1 -2,-6 -1,-7 2,0 1,3 3,5 3,1 7,-4 5,-8 0,3 1,5 -2,7 -1,0 -2,0 -3,0 -1,-2 0,-4 -2,-5 -2,0 -2,1 -2,3 0,0 0,3 1,4 2,4 11,-1 12,-5 1,-5 -2,-9 -5,-10 -6,-3 -11,-2 -16,1 -3,1 -6,4 -5,8l1 2c0,0 0,0 0,0z"/>
   <path fill="#08243A" d="M420 347c2,-3 7,-3 10,-3 2,0 4,-1 4,-2 1,-1 2,-2 4,-2 0,2 -2,1 -3,6 -2,7 -3,7 0,8 2,1 2,1 4,2 2,1 2,0 2,1 -2,1 -6,-1 -8,-2 -2,-1 -1,-1 -2,-2 0,-1 1,-3 1,-4 1,-4 0,-4 -3,-3 0,0 0,0 1,0 2,0 3,-1 1,4 -1,5 -2,4 6,7 2,1 4,2 5,0 -1,-2 -6,-4 -8,-5 0,-1 1,-2 1,-3 1,-2 1,-3 1,-4 1,-3 3,-3 3,-6 -2,-1 -4,1 -5,2 -3,3 -3,2 -10,3 -3,1 -4,1 -5,2 1,1 0,1 1,1z"/>
   <path fill="#876C84" d="M405 375l1 2c-1,1 -6,3 -6,4 1,0 7,-3 8,-4 0,-3 -6,-8 5,-12 5,-2 13,0 13,5 2,4 -2,9 -5,8 -2,-2 -1,-5 -3,-5 -1,1 0,6 1,7 4,1 10,-3 10,-6 0,-4 -1,-7 -3,-9 -5,-3 -11,-3 -16,0 -4,2 -6,4 -5,10z"/>
   <path fill="#876C84" d="M384 410c3,0 5,-7 7,-8 3,-1 0,2 8,-3 7,-4 10,-6 9,3 -2,0 -5,1 -5,2 1,1 6,-1 7,-2 1,-1 0,-3 0,-4 0,-2 0,-4 -1,-4 -3,-2 -13,6 -15,6 -2,1 -4,-1 -5,-2 0,-2 2,-4 2,-6 -2,0 -2,2 -3,4 -2,6 2,2 1,6 0,1 -4,6 -5,8z"/>
   <path fill="#876C84" d="M382 420c-3,-2 -5,0 -8,0 -1,-1 -1,-2 -2,-2 -1,0 -1,1 0,2 0,2 2,1 3,1 3,0 6,-1 6,2 0,0 -14,5 -14,7 1,1 5,-2 7,-3 2,0 6,-3 8,-2 1,1 1,2 3,3 1,1 2,0 4,-1 4,-2 7,-1 7,-3 -3,-2 -7,3 -10,2 -2,-1 -1,-4 -4,-6z"/>
   <path fill="#876C84" d="M387 434c-3,-2 -8,-1 -6,2 2,3 7,1 6,-2z"/>
   <path fill="#876C84" d="M375 432c0,1 0,1 1,1 1,0 2,0 1,-2 -1,-1 -2,0 -2,1z"/>
   <path fill="#C9C9C9" d="M515 383c-2,-10 12,-14 21,-13 10,0 21,5 23,12 2,10 -12,14 -21,14 -9,-1 -21,-5 -23,-13zm-2 -1c1,12 26,19 40,12 16,-8 5,-24 -16,-25 -9,0 -24,3 -24,13z"/>
   <path fill="#C9C9C9" d="M529 382l5 0c1,0 0,0 1,1 -1,0 -4,0 -6,0l12 4c0,-1 0,0 -1,-1 0,-1 -1,-1 -2,-2 1,-1 3,1 5,2 0,-2 -1,-6 -2,-7 -3,2 -2,3 -2,4 0,-1 -1,-1 -2,-2 0,0 0,0 0,0 1,-1 1,-2 2,-3l-10 4z"/>
   <path fill="#C9C9C9" d="M530 388c-1,-1 -2,-2 -4,0 1,0 2,1 2,1 1,1 2,0 2,0l1 1 1 -1c1,1 0,2 5,2l0 -2 -3 0c0,-1 0,0 1,-1 -3,0 -2,0 -4,-2 0,1 0,1 -1,2z"/>
   <path fill="#C9C9C9" d="M540 376c0,-1 0,0 1,-1l-4 -1c0,2 0,2 3,2z"/>
   <path fill="#82757D" d="M333 476c1,0 0,0 1,0 1,0 1,0 2,-1 0,0 0,0 0,-1 1,0 1,0 1,0 0,-1 0,-2 1,-2 0,-1 0,-1 1,-1 1,1 1,2 2,4 1,2 4,11 4,13 -3,0 -7,-2 -8,1 2,0 4,0 6,1 2,1 3,2 5,2 1,-3 0,-5 -1,-7 -1,-1 -1,-2 -1,-3 -1,-2 -1,-2 0,-3 2,-3 8,-7 8,-11 -3,0 -6,9 -10,9 0,-1 0,-1 -1,-3 0,-1 0,-2 -1,-3 0,-1 -1,-4 -3,-4 -1,0 -2,3 -3,4 -1,1 -2,4 -3,5z"/>
   <path fill="#82757D" d="M358 479c-4,-2 -7,2 -6,4 2,2 3,1 5,1 1,-1 2,-3 1,-5z"/>
   <path fill="#14426B" d="M457 331c-2,3 -7,2 -12,2 -5,-1 -9,-2 -8,-7 0,0 0,2 0,3 -1,-3 0,-6 1,-9 1,-2 2,-5 5,-4 0,2 -2,5 -3,9 -1,5 1,5 5,6 11,2 10,-1 12,-5 1,0 2,-3 3,-4 -2,0 -3,1 -4,0 -1,-1 0,-1 1,-2l1 0c3,-1 5,-3 7,-2 1,0 1,1 1,1 0,1 -1,1 -1,1 -3,4 -2,3 -5,8l-2 3c-1,0 0,0 -1,0zm-3 -8c1,1 1,1 3,1 -2,4 -3,6 -5,6 -3,0 -8,0 -10,-1 -1,-6 2,-8 3,-12 0,-2 -3,-3 -5,-2 -2,1 -7,11 -4,16 1,3 7,4 11,4 14,0 10,-1 18,-12 0,-1 2,-3 2,-4 0,-3 -2,-3 -5,-2 -1,0 -3,1 -5,2 -2,1 -3,1 -3,4z"/>
   <path fill="#14426B" d="M429 346c-2,0 -8,1 -9,1 -1,0 0,0 -1,-1 1,-1 2,-1 5,-2 7,-1 7,0 10,-3 1,-1 3,-3 5,-2 0,3 -2,3 -3,6 0,1 0,2 -1,4 0,1 -1,2 -1,3 2,1 7,3 8,5 -1,2 -3,1 -5,0 -8,-3 -7,-2 -6,-7 2,-5 1,-4 -1,-4 -1,0 -1,0 -1,0zm-11 1c3,3 7,0 12,0 -1,4 -3,6 0,8 1,1 3,2 3,2 2,1 3,1 4,2 3,1 8,0 7,-3 -1,-1 -6,-3 -8,-4 0,-1 1,-3 1,-5 1,-3 1,-3 2,-5 5,-4 -1,-6 -4,-4 -1,1 -2,3 -3,4 -1,0 -5,0 -6,1 -2,0 -4,0 -5,1 -3,0 -3,1 -3,3z"/>
   <path fill="#14426B" d="M476 366c0,1 0,0 1,1 1,0 1,-1 2,1 1,1 2,2 3,3l-1 1c-1,0 -3,0 -4,0 1,1 0,0 1,1 0,0 1,0 1,0 1,0 2,0 2,0 6,0 -1,-8 -5,-8l0 1z"/>
   <path fill="#6A6B76" d="M520 358l-1 1c1,1 1,0 1,1 2,0 12,3 15,4 4,1 9,3 14,4 4,1 9,3 14,4 4,2 12,5 13,1l-1 -1c0,2 0,1 0,1 -1,-2 -10,-4 -13,-4l-40 -12c-1,1 0,1 -2,1z"/>
   <path fill="#6A6B76" d="M478 267c6,0 13,1 17,4 9,8 2,22 -15,24 -10,1 -22,-4 -21,-13 0,-8 10,-14 19,-15zm1 -1c-19,2 -29,18 -15,26 12,8 34,1 36,-11 1,-11 -11,-15 -21,-15z"/>
   <path fill="#6A6B76" d="M480 279c1,0 3,-1 4,-2 -2,0 -4,0 -6,1 -1,0 -2,0 -3,0 -2,0 -2,0 -2,1 1,0 3,1 4,1 0,0 0,1 0,2 0,-1 -1,-2 -6,-2l7 6c1,-2 0,-3 0,-4 2,0 1,0 2,3 0,1 0,0 0,1 1,-3 4,-5 5,-8 -1,0 -2,1 -3,1 -1,1 -1,1 -2,0z"/>
   <path fill="#6A6B76" d="M488 277c1,1 0,2 4,1 0,-1 -1,-2 -1,-2 -1,0 -1,0 -2,0l-1 1z"/>
   <path fill="#6A6B76" d="M467 286c1,-1 2,-1 2,-2l0 -1 -4 1 2 2z"/>
   <path fill="#6A6B76" d="M469 279c-1,0 -2,0 -3,0l-1 2 3 0 1 -2z"/>
   <polygon fill="#6A6B76" points="479,274 482,274 483,272 479,271 "/>
   <path fill="#6A6B76" d="M467 277c3,0 3,0 5,-1 -1,-1 -1,-1 -2,-2 -1,1 -2,2 -3,3z"/>
   <path fill="#6A6B76" d="M484 274l2 1 3 -1c-1,-1 -2,-1 -3,-2l-2 2z"/>
   <path fill="#6A6B76" d="M473 287l-2 -1 -2 1c0,1 0,1 1,1 0,1 1,1 1,1l2 -2z"/>
   <path fill="#6A6B76" d="M473 273c1,2 1,2 3,1l0 -2c-1,0 -2,1 -3,1z"/>
   <path fill="#0E3466" d="M372 418c1,0 1,1 2,2 3,0 5,-2 8,0 3,2 2,5 4,6 3,1 7,-4 10,-2 0,2 -3,1 -7,3 -2,1 -3,2 -4,1 -2,-1 -2,-2 -3,-3 -2,-1 -6,2 -8,2 -2,1 -6,4 -7,3 0,-2 14,-7 14,-7 0,-3 -3,-2 -6,-2 -1,0 -3,1 -3,-1 -1,-1 -1,-2 0,-2zm3 5c0,0 0,0 -1,1 -1,0 -2,0 -2,1 -3,1 -11,4 -7,7 3,2 12,-5 16,-5 1,3 4,4 7,2 2,0 3,0 4,-1 1,0 1,-1 2,-1 1,0 2,0 3,0 3,-1 2,-5 -2,-5 -3,0 -5,2 -8,2 -1,-3 -1,-4 -4,-6 -3,-1 -4,-1 -7,0 -2,-1 -1,-3 -4,-3 -1,0 -3,1 -3,3 0,1 0,4 1,4 1,1 3,1 5,1z"/>
   <path fill="#0E3466" d="M358 479c1,2 0,4 -1,5 -2,0 -3,1 -5,-1 -1,-2 2,-6 6,-4zm-3 -2c-8,1 -6,11 1,9 7,-2 6,-11 -1,-9z"/>
   <path fill="#083768" d="M405 375c0,0 0,0 0,0l-1 -2c-1,-4 2,-7 5,-8 5,-3 10,-4 16,-1 3,1 6,5 5,10 -1,4 -10,9 -12,5 -1,-1 -1,-4 -1,-4 0,-2 0,-3 2,-3 2,1 1,3 2,5 1,0 2,0 3,0 3,-2 2,-4 2,-7 0,-5 -8,-7 -13,-5 -11,4 -5,9 -5,12 -1,1 -7,4 -8,4 0,-1 5,-3 6,-4l-1 -2zm-2 1c-2,2 -6,2 -6,6 2,1 4,2 6,0 2,-1 3,-2 5,-3 7,-4 -1,-5 2,-10 2,-4 13,-5 15,2 0,3 -2,4 -3,5 0,-2 0,-4 -1,-5 -2,-1 -4,-1 -5,1 -2,1 -1,3 0,5 0,2 0,4 2,4 4,2 16,-2 13,-12 -2,-6 -10,-10 -18,-8 -3,1 -6,3 -8,5 -3,3 -3,6 -2,10z"/>
   <path fill="#083768" d="M337 474c0,0 0,0 -1,0 0,1 0,1 0,1 -1,1 -1,1 -2,1 -1,0 0,0 -1,0 -1,0 2,1 0,0 0,-2 2,-5 3,-6 1,-2 2,-5 5,-4 2,3 2,8 4,10 4,-2 5,-9 9,-9 1,4 -4,9 -6,11 -2,3 -1,4 0,7 0,2 2,4 2,7 -3,1 -3,1 -5,-1 -4,-2 -12,-1 -8,-4 2,-1 4,-1 7,0 -1,-2 -4,-14 -5,-15 -1,1 -1,1 -2,2zm1 2l3 8c-2,1 -3,0 -5,2 -2,0 -3,2 -2,4 2,3 3,-1 10,3 4,3 8,0 8,-3 0,-1 -3,-6 -4,-10 2,-2 9,-8 9,-12 0,-3 -4,-3 -7,-1 -1,2 -2,5 -4,6 -1,-3 -2,-7 -4,-8 -5,-2 -8,4 -10,8 -1,1 -2,2 -1,4 0,2 4,4 7,-1z"/>
   <path fill="#083768" d="M387 434c1,3 -4,5 -6,2 -2,-3 3,-4 6,-2zm-12 -2c0,-1 1,-2 2,-1 1,2 0,2 -1,2 -1,0 -1,0 -1,-1zm4 2c1,8 8,5 10,3 1,-2 0,-5 -2,-6 -2,-1 -5,0 -7,1l0 -1c0,0 0,0 0,0 -3,-6 -10,1 -6,3 2,1 3,1 5,0z"/>
   <path fill="#C49B24" d="M571 442c3,-3 2,-2 4,-7 11,-16 21,-34 32,-50 4,-7 10,-16 14,-23 0,0 0,0 1,0l0 -2c1,-1 2,-2 3,-4l9 -14c1,-2 2,-4 4,-7 1,-1 2,-3 2,-4 1,-2 0,-3 0,-5l-1 -1c-2,0 -1,0 -2,1 0,1 0,1 0,2 -2,3 -6,8 -7,11 -1,0 -1,1 -1,1 -1,1 -1,2 -2,3 -1,2 -3,4 -4,6 -3,6 -12,18 -14,23 -5,9 -15,23 -21,32 0,2 -1,2 -2,4l-13 21c-2,3 -1,1 -1,3 -1,1 -2,2 -2,3 0,0 0,1 0,1l1 1c0,2 -2,3 -4,4 -7,4 -8,3 -15,2 -3,0 -20,-6 -23,-7 -5,-2 -10,-3 -15,-5 -9,-3 -20,-7 -30,-10l-13 -4c-1,0 -1,-1 -2,0l12 5c13,4 25,8 38,13 8,2 16,5 25,8 4,1 8,3 14,3 3,-1 4,0 7,-1 2,-1 4,-3 6,-3z"/>
   <path fill="#C49B24" d="M639 316l0 0c-1,0 0,0 -1,0 0,1 0,1 -1,1l-29 47c-11,16 -21,32 -31,48 -2,2 -3,4 -4,6l-2 3c-3,4 1,4 -2,6 -2,2 -7,5 -10,5 -5,1 -13,-2 -17,-3l-14 -5c-10,-3 -20,-7 -30,-10l-22 -7c-1,-1 -6,-2 -7,-2 -1,0 0,0 -1,0 1,2 27,10 29,11l45 15c11,3 7,2 17,2 4,0 11,-2 13,-6 1,-1 1,-2 2,-3 1,-1 1,-1 1,-2l5 -7c10,-16 21,-32 31,-49 6,-8 10,-15 16,-24l11 -18c3,-4 2,-3 1,-8z"/>
   <path fill="#C49B16" d="M269 510c-1,0 -1,0 -1,0 -1,0 -1,0 -1,0l-42 -20c-1,0 -2,0 -3,-1 -1,-1 0,0 -1,-1 -1,0 0,0 -1,0l-6 -3c-1,0 -2,0 -3,-1 -1,-1 -3,-1 -4,-3 -2,0 -2,0 -3,-1 -1,0 -1,-1 -3,-1 -1,-1 -2,0 -3,-1 -1,-1 0,0 -1,-1l-12 -5c0,0 0,0 0,0l-8 -4c0,0 0,0 -1,0 0,0 0,0 0,-1l-1 0c-2,-1 -2,0 -4,-1 -1,-1 -1,-2 -3,-2l-10 -5c-1,-1 0,-1 -1,-1 0,0 -1,0 -1,-1l-1 0c0,0 0,0 0,0 -1,-1 0,0 -1,-1 -2,-1 -3,-5 -3,-7 0,-2 1,-3 2,-4l3 -4c0,-1 0,-1 0,-1l4 -3c1,-1 0,0 0,-1l2 -3c0,0 1,0 1,0l0 -1c1,-1 2,-2 3,-3l12 -14c0,0 0,0 0,0 1,-1 2,-1 1,-3l-5 5c-2,3 -3,5 -4,6l-1 1c-2,2 -3,3 -4,4 -3,4 -2,2 -4,5 0,0 0,0 0,0 0,0 0,0 0,0l-2 2c-3,3 -2,2 -5,5l-3 4c0,1 -1,1 -1,2 0,1 0,2 -1,3 0,2 0,3 1,4 0,2 1,2 0,3 -1,0 -1,0 -2,-1 -3,-5 -1,-7 0,-10 -1,1 -2,3 -2,4 -1,5 3,12 6,12 0,0 0,0 0,0 -1,-1 -1,-1 -2,-2 2,0 4,1 6,2l10 5c2,1 3,2 5,2l37 17c2,1 3,2 5,3 7,3 14,6 21,9 6,3 10,5 16,7l10 5c10,5 21,11 31,15l18 8c2,1 2,1 3,1 1,1 2,1 3,1l18 9c2,1 3,1 5,2 6,3 13,3 19,0 3,-1 1,1 6,-2 3,-2 5,-4 7,-8l64 -103c1,-2 19,-30 22,-35 4,-7 8,-13 12,-20 1,-2 2,-3 3,-5l23 -38c1,-1 1,-1 2,-2l4 -7c1,-1 1,-2 2,-3 1,-2 2,-3 3,-5l12 -20c1,-2 2,-3 3,-5 4,-6 9,-13 12,-20l0 -4c0,-2 -1,-3 -2,-4 1,3 2,5 1,8l-10 17c-5,7 -10,14 -14,22 -5,8 -10,15 -14,22l-14 23c-17,25 -32,52 -49,78 -14,22 -27,44 -41,67l-14 22c-4,6 -9,17 -16,20l-8 1c-2,0 -6,0 -8,-1 -1,0 -2,-1 -3,-1 -1,-1 -2,-1 -3,-2 -2,-1 0,0 -1,-1 -1,0 -2,0 -2,0l-10 -4c-1,0 -1,-1 -2,-1 -4,-1 -4,-2 -6,-3 -3,-1 -8,-3 -10,-5 -2,0 -3,0 -4,-1 -3,-2 -4,-2 -8,-4l-25 -11z"/>
   <path fill="#C49B16" d="M571 444c-1,2 -8,5 -11,6 -4,2 -15,-2 -19,-4l-59 -20c-2,0 -5,-1 -6,-1l0 0c3,2 64,23 70,25 7,2 7,2 14,2 5,0 9,-3 12,-5 1,-2 3,-5 4,-7 1,-2 3,-4 4,-7 3,-4 6,-9 9,-14 1,-1 1,-2 2,-3l4 -7c1,-1 2,-2 2,-3l39 -63c2,-3 4,-5 4,-9 -2,1 -1,0 -3,4l-15 24c0,0 -1,1 -1,1l-33 54c-3,5 -5,9 -8,14 -2,3 -7,11 -9,13z"/>
   <path fill="#0A0A09" d="M355 477c7,-2 8,7 1,9 -7,2 -9,-8 -1,-9zm-17 -1c-3,5 -7,3 -7,1 -1,-2 0,-3 1,-4 2,-4 5,-10 10,-8 2,1 3,5 4,8 2,-1 3,-4 4,-6 3,-2 7,-2 7,1 0,4 -7,10 -9,12 1,4 4,9 4,10 0,3 -4,6 -8,3 -7,-4 -8,0 -10,-3 -1,-2 0,-4 2,-4 2,-2 3,-1 5,-2l-3 -8zm41 -42c-2,1 -3,1 -5,0 -4,-2 3,-9 6,-3 0,0 0,0 0,0l0 1c2,-1 5,-2 7,-1 2,1 3,4 2,6 -2,2 -9,5 -10,-3zm9 -5c-3,2 -6,1 -7,-2 -4,0 -13,7 -16,5 -4,-3 4,-6 7,-7 0,-1 1,-1 2,-1 1,-1 1,-1 1,-1 -2,0 -4,0 -5,-1 -1,0 -1,-3 -1,-4 0,-2 2,-3 3,-3 3,0 2,2 4,3 3,-1 4,-1 7,0 3,2 3,3 4,6 3,0 5,-2 8,-2 4,0 5,4 2,5 -1,0 -2,0 -3,0 -1,0 -1,1 -2,1 -1,1 -2,1 -4,1zm-2 -28c0,-1 -1,0 -1,-2 0,-2 2,-8 3,-8 1,-1 5,-2 5,0 1,2 -1,4 -1,6 2,2 3,1 5,-1 3,-2 12,-8 15,-3 1,2 1,4 1,6 0,3 0,4 -2,5 -2,1 -9,4 -11,1 0,-4 3,-4 6,-5l0 -3c-4,1 -7,6 -14,7 -2,3 -5,11 -10,6 -1,-1 3,-6 4,-9zm17 -25c-1,-4 -1,-7 2,-10 2,-2 5,-4 8,-5 8,-2 16,2 18,8 3,10 -9,14 -13,12 -2,0 -2,-2 -2,-4 -1,-2 -2,-4 0,-5 1,-2 3,-2 5,-1 1,1 1,3 1,5 1,-1 3,-2 3,-5 -2,-7 -13,-6 -15,-2 -3,5 5,6 -2,10 -2,1 -3,2 -5,3 -2,2 -4,1 -6,0 0,-4 4,-4 6,-6zm15 -29c0,-2 0,-3 3,-3 1,-1 3,-1 5,-1 1,-1 5,-1 6,-1 1,-1 2,-3 3,-4 3,-2 9,0 4,4 -1,2 -1,2 -2,5 0,2 -1,4 -1,5 2,1 7,3 8,4 1,3 -4,4 -7,3 -1,-1 -2,-1 -4,-2 0,0 -2,-1 -3,-2 -3,-2 -1,-4 0,-8 -5,0 -9,3 -12,0zm36 -24c0,-3 1,-3 3,-4 2,-1 4,-2 5,-2 3,-1 5,-1 5,2 0,1 -2,3 -2,4 -8,11 -4,12 -18,12 -4,0 -10,-1 -11,-4 -3,-5 2,-15 4,-16 2,-1 5,0 5,2 -1,4 -4,6 -3,12 2,1 7,1 10,1 2,0 3,-2 5,-6 -2,0 -2,0 -3,-1zm25 -57c10,0 22,4 21,15 -2,12 -24,19 -36,11 -14,-8 -4,-24 15,-26zm-55 8c0,-3 3,-3 5,-2 0,3 -2,4 -5,2zm-14 -4c0,-1 1,-1 1,-2l4 1c-1,3 -3,3 -5,1zm-14 -3c0,-3 2,-3 5,-2 -1,3 -3,3 -5,2zm-14 -4c0,-3 4,-2 5,-1 0,1 -1,2 -2,2 -1,0 -2,0 -3,-1zm52 -1c0,-2 0,-2 1,-3l3 1c0,3 -3,3 -4,2zm4 28c1,-2 4,-6 6,-9l12 -17c2,-3 2,-4 5,-6 3,-2 4,-1 5,1 0,2 -1,1 -1,2 -2,4 -20,28 -22,31 2,1 20,5 24,6 6,2 10,3 17,5 3,2 4,2 4,4 -4,2 -20,-3 -26,-5l-10 -3c-3,0 -10,-2 -12,-2 0,1 -1,1 -2,2l-66 95c0,1 -1,2 -2,3l-24 34c-1,1 -2,2 -2,3l-41 55c-1,2 -4,5 -6,5 1,-5 5,-9 8,-13l64 -94c1,-1 2,-2 3,-3l32 -47c9,-11 18,-26 26,-37 1,0 4,-5 4,-5 -2,-1 -45,-12 -51,-14 -8,-2 -17,-5 -25,-7 -2,0 -5,-1 -7,-2 -6,-1 -13,-3 -19,-5 1,0 1,0 1,0 1,-1 1,0 0,-1 -3,-1 -4,1 -7,-1 -1,0 -1,0 -1,-1 0,-2 0,0 0,-1 5,-2 49,10 57,12l56 15c-1,1 -2,2 -3,4 2,0 3,1 5,1 1,-1 2,-2 2,-4l-4 -1zm-19 -32c1,-2 3,-3 5,-2 0,3 -3,3 -5,2zm-14 -3c0,-3 3,-3 5,-2 -1,3 -2,3 -5,2zm-13 -4c-1,-2 3,-3 4,-1 0,2 -2,3 -4,1zm-42 275c2,-2 5,-6 6,-8 2,-3 3,-5 5,-8 10,-17 21,-32 31,-48 8,-14 17,-27 25,-41 5,-7 12,-17 16,-24 1,-2 3,-5 5,-8l36 -56c2,-3 3,-5 5,-8 3,-4 35,-54 36,-56l-164 -39 -6 6c0,1 0,2 -1,2 -1,1 -1,1 -1,2l-5 5c-2,3 -14,16 -17,20l-4 5c-1,1 -1,1 -2,2l-3 3c0,1 -1,1 -1,2 -4,5 -11,12 -15,17 -4,4 -8,8 -11,13 -3,3 -6,7 -9,10l-6 7c0,0 0,0 -1,1 -1,1 -1,1 -2,2 0,1 0,1 -1,2l-20 23c-1,1 -1,1 -2,2l-13 15c-1,1 -1,1 -1,2l-9 10c-1,1 -1,0 -1,1l-8 9c0,1 -1,1 -1,1l-12 14c-1,1 -1,1 -1,2 -1,0 -1,0 -2,1l-11 14c-3,3 -6,6 -9,10l-10 11c1,1 41,19 46,21 19,8 38,17 58,25l34 16c7,3 16,6 23,10 4,2 8,3 12,5 2,1 9,4 11,5z"/>
   <path fill="#C79A06" d="M350 526c-2,-1 -9,-4 -11,-5 -4,-2 -8,-3 -12,-5 -7,-4 -16,-7 -23,-10l-34 -16c-20,-8 -39,-17 -58,-25 -5,-2 -45,-20 -46,-21l10 -11c3,-4 6,-7 9,-10l11 -14c1,-1 1,-1 2,-1 0,-1 0,-1 1,-2l12 -14c0,0 1,0 1,-1l8 -9c0,-1 0,0 1,-1l9 -10c0,-1 0,-1 1,-2l13 -15c1,-1 1,-1 2,-2l20 -23c1,-1 1,-1 1,-2 1,-1 1,-1 2,-2 1,-1 1,-1 1,-1l6 -7c3,-3 6,-7 9,-10 3,-5 7,-9 11,-13 4,-5 11,-12 15,-17 0,-1 1,-1 1,-2l3 -3c1,-1 1,-1 2,-2l4 -5c3,-4 15,-17 17,-20l5 -5c0,-1 0,-1 1,-2 1,0 1,-1 1,-2l6 -6 164 39c-1,2 -33,52 -36,56 -2,3 -3,5 -5,8l-36 56c-2,3 -4,6 -5,8 -4,7 -11,17 -16,24 -8,14 -17,27 -25,41 -10,16 -21,31 -31,48 -2,3 -3,5 -5,8 -1,2 -4,6 -6,8zm-81 -16l25 11c4,2 5,2 8,4 1,1 2,1 4,1 2,2 7,4 10,5 2,1 2,2 6,3 1,0 1,1 2,1l10 4c0,0 1,0 2,0 1,1 -1,0 1,1 1,1 2,1 3,2 1,0 2,1 3,1 2,1 6,1 8,1l8 -1c7,-3 12,-14 16,-20l14 -22c14,-23 27,-45 41,-67 17,-26 32,-53 49,-78l14 -23c4,-7 9,-14 14,-22 4,-8 9,-15 14,-22l10 -17c1,-3 0,-5 -1,-8 -2,0 -1,0 -2,-1l-24 -6c-1,-1 -2,-1 -3,-1 -1,0 -1,0 -2,0 -1,-1 -1,-1 -1,-1 -3,0 -5,-1 -7,-1l-9 -3c-2,0 -2,0 -3,-1 -6,-1 -13,-2 -19,-4l-11 -3c0,0 0,0 -1,0l-6 -1c-6,-2 -13,-3 -19,-4l-11 -3c-2,-1 -13,-3 -18,-4l-16 -4c-2,-1 -2,-1 -5,-1l-6 -2c-8,-1 -7,-2 -18,-3 0,1 0,1 0,1 -1,1 -1,2 -2,2l-1 0c0,1 0,1 0,1l0 2c0,0 0,0 0,1 -1,-3 0,-1 -1,-2 -1,1 -1,1 -1,1l-1 1c-1,2 -6,4 -4,7 -2,0 0,-1 -1,0 -1,0 -1,0 -1,0 -1,1 0,1 -1,1 -1,1 -1,2 -2,2l-3 4c-1,0 -1,2 -2,2 -1,2 0,1 -2,3l-1 2c-1,1 -2,2 -3,2 -1,1 0,0 -1,1l-1 1c0,0 0,0 0,1l-2 2c-1,1 0,0 -1,1l-2 2c0,1 -1,2 -2,3l-1 1c-1,0 0,0 0,1l-3 3c0,0 0,0 0,0 0,0 0,1 -1,1 0,0 1,-1 0,0 -1,2 2,-1 0,0 -1,1 -2,1 -2,2 -1,1 -1,0 -1,1l-2 3c-1,0 0,0 -1,0l-1 1c0,0 0,0 0,0 0,0 0,0 0,1l0 0c0,0 0,0 0,0 -1,1 0,0 -1,1l-5 5c0,0 0,1 -1,2 0,0 0,-1 0,0 -1,1 -1,2 -1,2 -1,1 -1,0 -1,0 0,1 -1,1 -1,1 0,0 -1,1 -1,1 -1,1 -1,0 0,2 -1,0 -1,0 -2,0 1,1 0,1 1,1 -1,0 -1,0 -2,1l0 0c-1,1 -2,1 -2,2 0,0 -2,1 -2,2 -1,1 -3,3 -4,4 0,0 0,0 0,0l-1 3c0,0 0,0 -1,0 0,0 0,0 0,0l-1 1c0,0 -2,2 -2,3 -1,0 -1,0 -1,0l-9 10c0,0 0,0 0,0l-2 3c-1,2 -1,1 -3,2 -1,2 -3,4 -5,5l0 2c-1,1 -4,4 -5,5l-2 2c-1,1 -2,2 -3,3 -2,3 -1,2 -3,4l-3 4c-2,3 -2,2 -2,2 -1,0 0,0 -1,1 0,0 1,-1 0,0 0,0 0,0 0,0l-6 6c0,0 0,1 0,1l-1 0c0,1 0,2 -2,3 0,0 0,0 0,0l0 1c-1,1 -1,1 -1,2 0,0 0,0 0,0 -1,1 -2,1 -3,2 0,1 0,1 -1,2 -1,2 -4,3 -4,5 0,0 0,0 -1,0l-1 3c-1,0 -1,1 -1,1 -3,2 -1,2 -2,3 0,0 -2,1 -3,1l-2 3c-1,1 0,1 -2,2 -1,0 -3,3 -2,4 -1,0 -1,0 -2,1 0,0 0,0 0,0 -1,1 -2,2 -3,3l0 1c0,0 0,0 0,0 0,0 0,0 0,0l-1 2c-1,1 -3,0 -2,2 -2,0 -2,2 -3,3l0 0c0,0 0,0 0,0l-3 2c0,1 0,1 -1,2 -1,2 -1,0 -1,3 0,0 0,0 0,0 -1,0 0,0 -1,0 0,0 0,-1 0,0 -1,0 0,0 0,1 -1,0 0,0 -1,0l-1 1c0,0 0,0 0,0 -1,1 -1,1 -2,2 -2,3 -1,1 -2,2l-3 3c0,1 0,1 -1,1 0,1 0,1 0,1l0 0c0,0 0,0 0,0l-2 2c0,0 0,0 0,0 0,0 0,0 0,0 -1,2 1,3 -2,2 -1,2 0,1 -1,2 -1,1 -1,0 -1,2 0,0 0,-1 0,0l-4 4c0,0 0,1 0,1l-3 5c-1,1 -2,3 -3,3 -2,2 -1,2 -3,3 -1,1 0,0 -1,1 0,0 0,0 0,0 0,0 -1,0 -1,0 1,1 0,0 1,1 0,0 0,0 0,1l0 0c0,2 -1,1 -2,3l-1 0c1,1 1,0 1,1l-1 1c0,0 1,0 1,0 0,0 0,0 1,0 -1,1 -1,1 -1,2 1,0 1,-1 1,2l2 -1c-1,1 -1,1 0,2l2 1c1,0 1,0 1,1 0,0 0,0 0,0 0,0 0,0 0,0l1 1c1,-2 0,0 1,-1 1,1 0,0 1,0l0 1c1,0 2,0 3,1 0,1 0,1 1,1 2,1 1,1 2,2l3 1c1,0 1,0 1,0 3,3 3,2 4,2 0,0 1,1 1,1 1,0 0,0 1,1 1,0 1,0 1,-1 1,2 0,1 1,2 1,0 1,0 1,0 2,0 0,0 3,1 1,0 0,0 2,1l4 2c0,0 0,0 0,1l4 1c1,1 2,1 3,1l5 3c2,1 3,1 4,2l2 1c1,1 0,0 1,1 0,0 1,0 2,0l1 1c3,1 2,2 4,2l6 3c0,0 1,0 2,1 3,1 6,2 8,4 2,1 4,1 5,2l1 0c1,0 0,0 1,1l22 10c2,1 5,2 6,3z"/>
   <path fill="#171716" d="M513 382c0,-10 15,-13 24,-13 21,1 32,17 16,25 -14,7 -39,0 -40,-12zm62 -25l0 1c-2,1 -3,0 -5,0 0,-3 4,-2 5,-1zm-25 -5c1,-3 4,-2 5,-1 0,3 -3,2 -5,1zm26 -3l1 -1c1,-1 3,-1 4,0l0 2c-1,0 -4,0 -5,-1zm-19 -5c0,-3 3,-2 5,-1 0,1 -1,2 -3,2 0,-1 -1,-1 -2,-1zm25 -3c1,-3 5,-1 5,-1 1,3 -4,2 -5,1zm-19 -5c0,-3 4,-2 5,-1 0,2 -4,1 -5,1zm30 -3c-1,1 -1,1 -2,1 -1,0 -2,-1 -3,-1 0,-3 4,-2 5,0zm-21 -7c1,0 2,1 2,2 -2,1 -3,0 -5,0 0,-2 1,-2 3,-2zm-83 20c7,2 17,5 25,7 2,1 3,1 5,1 0,-1 10,-13 12,-15l22 -26c1,-2 2,-3 3,-4 3,-3 11,-13 15,-13 1,2 0,3 -1,4l-3 4c-5,6 -40,49 -43,52 3,1 33,10 39,12 2,0 4,1 6,1 1,1 6,2 6,3l1 1c-1,4 -9,1 -13,-1 -5,-1 -10,-3 -14,-4 -5,-1 -10,-3 -14,-4 -3,-1 -13,-4 -15,-4 -2,3 -5,6 -7,9 -3,3 -6,6 -8,9 -1,2 -4,3 -5,5 -1,1 0,-1 0,1 -1,1 -2,1 -3,2 0,0 0,0 -1,0 -3,1 -2,-3 -1,-3l1 -1c1,-1 1,-2 2,-4 2,-1 3,-4 4,-5 2,-2 8,-9 10,-12 1,-1 3,-3 3,-4 -8,-1 -4,-1 -8,-2 -1,0 -2,-1 -3,-1 0,0 0,-1 0,0l2 -1c0,0 0,0 0,0 -1,-1 -17,-5 -19,-5 -1,3 -4,5 -5,8 2,0 5,0 6,2l0 2c-3,1 -5,0 -8,-1l-4 6c4,0 11,8 5,8 0,0 -1,0 -2,0 0,0 -1,0 -1,0 -1,-1 0,0 -1,-1 1,0 3,0 4,0l1 -1c-1,-1 -2,-2 -3,-3 -1,-2 -1,-1 -2,-1 -1,-1 -1,0 -1,-1 0,0 0,-1 0,0 0,1 0,1 0,1 0,0 1,0 1,0 2,1 9,8 -3,3 -1,0 -1,1 -2,2 0,1 -1,1 -1,2 -1,2 -2,3 -2,5 1,0 13,4 15,5 2,0 9,3 12,4 4,1 8,2 12,4 14,4 30,9 43,13 4,1 4,1 6,-1 18,-26 35,-52 53,-77 3,-4 11,-16 13,-20 -1,-1 -38,-9 -41,-10l-55 -14c-1,3 -4,6 -5,8l-14 23c-2,4 -19,29 -19,32z"/>
   <path fill="#956804" d="M446 415c0,0 1,-1 1,-2 2,0 1,0 2,1l12 4c2,1 1,-1 2,2 -4,0 -11,-2 -15,-4l-2 -1zm14 -22c1,0 3,1 5,2l4 2c1,1 3,1 5,2 1,0 2,0 3,1 1,0 1,0 2,1l-6 -2c-4,-1 -2,0 -4,0l0 -1c0,0 0,0 0,0 0,0 -1,0 -1,0 0,0 0,0 0,0 0,0 0,0 0,0 0,0 0,0 0,0 0,0 0,0 0,0 -1,0 0,0 -1,1 -2,-1 -1,-1 -3,0 -2,0 -2,-1 -3,0 0,0 0,0 0,1 -1,2 0,1 0,2 1,0 0,-1 1,0 0,0 0,0 0,0 0,0 0,1 0,1 0,0 0,0 0,0l-1 0c-1,0 -2,0 -3,-1 -1,0 -2,0 -3,-1l5 -8zm72 -121c-3,7 -8,14 -12,20 -1,2 -2,3 -3,5l-12 20c-1,2 -2,3 -3,5 -1,1 -1,2 -2,3l-4 7c-1,1 -1,1 -2,2l-23 38c-1,2 -2,3 -3,5 -4,7 -8,13 -12,20 -3,5 -21,33 -22,35 2,0 1,0 2,-2 1,-1 1,-2 2,-3 1,-1 2,-4 4,-5l-1 1c0,0 0,1 0,1 4,1 11,4 15,5 6,2 10,4 16,6 3,1 5,1 8,2 3,1 5,2 8,3l54 19c5,2 7,2 12,2 5,0 5,-1 10,-3 1,-1 2,-1 2,-2 0,0 0,0 0,0 0,0 -1,0 -1,0 -2,1 -3,2 -5,3 -2,0 -3,0 -5,0 -2,0 -6,0 -9,-1l-23 -8c-1,0 -3,-1 -4,-1l-39 -13c-3,-1 -5,-2 -7,-3l-11 -4c-1,0 -1,0 -1,0l-17 -6c-1,0 -2,-1 -2,-1l0 -1c1,0 1,0 1,0 1,0 2,1 3,1 12,4 24,9 35,13l40 13c5,2 11,4 16,6 7,2 18,6 26,2 1,0 2,-1 3,-2 1,0 2,-1 3,-2 -5,0 -6,4 -17,2 -8,-1 -16,-5 -23,-7l-43 -15c0,0 -1,0 -2,-1 -1,0 -1,0 -2,0l-8 -3c-4,-1 -3,0 -5,0 -4,0 -7,-2 -10,-3l-14 -4c0,0 -1,-1 -1,-1l-1 0c0,0 0,0 0,0 1,-2 1,-3 2,-4 3,1 6,2 8,3l55 19c3,1 5,2 8,3 6,2 17,6 24,8 6,2 10,4 17,4 5,0 8,0 12,-3 1,0 1,-1 2,-1 0,-1 0,-1 1,-2 -3,2 -7,5 -12,5 -7,0 -7,0 -14,-2 -6,-2 -67,-23 -70,-25l0 0c1,0 4,1 6,1l59 20c4,2 15,6 19,4 3,-1 10,-4 11,-6 -2,0 -2,1 -4,2 -4,2 -8,3 -13,2 -3,0 -6,-1 -9,-2 -2,-1 1,0 -1,0 -1,-1 0,0 -1,-1 -2,0 -3,-1 -4,-1 -13,-5 -25,-8 -38,-13l-47 -16c-3,-1 -5,-1 -6,-3 1,-2 5,-9 6,-9l11 3c0,1 0,0 0,1l1 0c1,2 11,4 12,5 2,0 31,10 33,11 4,1 8,2 12,3 3,1 25,9 28,9 2,1 4,1 7,1 2,0 4,-1 6,-1 2,-1 4,-2 6,-2l-2 2c0,0 -1,1 -1,1l-1 0c-1,1 -2,1 -2,2l-9 1 -6 -1c-1,0 -1,0 -1,0l-5 -1c-1,-1 -2,-1 -3,-1 -1,-1 -1,-1 -3,-1 -1,-1 -1,-1 -3,-1l-8 -3c-1,-1 -1,-1 -2,-1 -1,0 0,0 -3,-1l-12 -4c-1,0 -2,0 -3,-1 -5,-2 -9,-3 -12,-4l-5 -2c-2,0 -2,0 -4,-1 -2,-1 0,0 -4,-2 0,0 0,0 0,0 -2,-1 -3,-1 -5,-1 -1,-1 -6,-2 -7,-2 0,0 0,0 -1,0 0,0 0,0 0,0 -1,1 0,0 -2,0l0 0c0,0 -1,0 -1,0 0,0 0,0 0,0 0,0 0,0 -1,0 0,0 0,0 0,0 0,0 0,0 -1,0 0,1 0,1 0,2 1,2 0,1 1,2l-5 -1c-1,-1 0,-1 -1,-1 -2,-1 -2,0 -2,0l14 5c5,2 9,3 14,5l64 22c3,1 5,1 8,1 7,0 7,0 12,-2 2,-2 2,-1 3,-3 -2,0 -4,2 -6,3 -3,1 -4,0 -7,1 -6,0 -10,-2 -14,-3 -9,-3 -17,-6 -25,-8 -13,-5 -25,-9 -38,-13l-12 -5c1,-1 1,0 2,0l13 4c10,3 21,7 30,10 5,2 10,3 15,5 3,1 20,7 23,7 7,1 8,2 15,-2 2,-1 4,-2 4,-4l-1 -1c0,0 0,-1 0,-1 0,-1 1,-2 2,-3 0,-2 -1,0 1,-3l13 -21c1,-2 2,-2 2,-4 6,-9 16,-23 21,-32 2,-5 11,-17 14,-23 1,-2 3,-4 4,-6 1,-1 1,-2 2,-3 0,0 0,-1 1,-1 1,-3 5,-8 7,-11 0,-1 0,-1 0,-2 1,-1 0,-1 2,-1 0,-2 1,-2 1,-4 0,-2 0,-3 -1,-5 1,5 2,4 -1,8l-11 18c-6,9 -10,16 -16,24 -10,17 -21,33 -31,49l-5 7c0,1 0,1 -1,2 -1,1 -1,2 -2,3 -2,4 -9,6 -13,6 -10,0 -6,1 -17,-2l-45 -15c-2,-1 -28,-9 -29,-11 1,0 0,0 1,0 1,0 6,1 7,2l22 7c10,3 20,7 30,10l14 5c4,1 12,4 17,3 3,0 8,-3 10,-5 3,-2 -1,-2 2,-6l2 -3c1,-2 2,-4 4,-6 10,-16 20,-32 31,-48l29 -47c1,0 1,0 1,-1 1,0 0,0 1,0 0,-1 2,-2 2,-4 0,-1 -1,-4 -1,-5 0,2 1,3 0,5 0,1 -1,2 -2,4 -1,1 -1,1 -2,3l-27 41c-3,4 -5,8 -8,12l-4 6c-1,2 -2,4 -3,6l-8 12c-1,1 -3,4 -4,6 -1,1 -3,4 -4,5l-6 9c-1,2 -7,5 -9,5 -1,1 -8,1 -9,1 -6,-1 -11,-3 -16,-4l-43 -15c-9,-2 -21,-6 -29,-10 1,-1 0,0 1,0 2,-1 5,1 6,1l46 15c9,3 17,5 26,8 3,1 10,3 14,3 3,0 10,-4 11,-6 -1,-1 -3,-2 -5,-1 -2,1 1,0 -1,0 -1,1 -1,0 -2,0 -1,0 -1,0 -3,0l-3 -1c-4,0 -4,-2 -6,-2 0,0 -2,0 -3,-1l-1 0c-1,-1 0,0 -1,-1 0,0 0,0 -1,0 -2,0 -4,-1 -6,-1l-11 -3c0,0 0,0 0,0 -1,-1 -1,-2 -1,-2 0,-1 -1,0 -1,0l0 0c-3,0 -1,0 -3,-1 0,0 -1,0 -2,-1l0 0c-1,0 -2,0 -3,0l-3 -1c-1,0 0,0 -1,0 -2,0 -3,-1 -5,-2 0,0 0,0 0,0 0,0 0,0 0,0l-7 -2c-2,-1 -3,-1 -3,-2 -1,1 0,1 -1,1 -1,-2 -1,-1 -2,-1 -1,0 -1,0 -1,0 -2,-1 -3,-2 -5,-2 -1,-1 0,0 -2,-1l-2 -1c-2,-1 -2,0 -4,-1l0 -2c0,0 0,0 0,0l-1 -1c-1,-1 0,-1 -1,0l0 -1c0,-1 -10,-4 -11,-4 0,-1 0,-1 1,-1 0,-2 1,-3 2,-5 0,-1 1,-1 1,-2 1,-1 1,-2 2,-2l0 0 0 -1c1,-1 0,-1 2,-2 0,0 0,0 0,0 2,0 0,0 1,0 0,0 -1,0 -1,0 0,0 0,0 0,-1 0,-1 0,0 0,0l0 -1 4 -6 1 -1c1,0 3,2 5,1 -1,-1 -2,-1 -4,-2 0,-1 -1,0 0,-1 1,-3 4,-5 5,-8 2,0 18,4 19,5 0,0 0,0 0,0l-2 1c0,-1 0,0 0,0 1,0 2,1 3,1 0,0 0,-1 -1,-1 4,0 6,2 7,0 -1,-1 -22,-6 -25,-7 0,-1 0,-1 1,-1 0,-3 17,-28 19,-32l14 -23c1,-2 4,-5 5,-8l55 14c-1,-2 1,1 -1,-1l0 -1c1,1 4,1 5,2 2,0 4,0 6,1l22 5c2,1 9,3 11,2 -1,-1 0,0 -1,0 -4,-2 -95,-24 -95,-24 0,-1 0,-2 1,-3 0,-1 0,-1 1,-1 1,-2 2,-3 2,-5 1,-3 1,-3 0,-6 0,1 1,2 1,3 -1,1 -1,2 -1,2 0,1 0,1 -1,1z"/>
   <path fill="#C49E32" d="M582 297c3,1 40,9 41,10 -2,4 -10,16 -13,20 -18,25 -35,51 -53,77 -2,2 -2,2 -6,1 -13,-4 -29,-9 -43,-13 -4,-2 -8,-3 -12,-4 -3,-1 -10,-4 -12,-4l-1 0c1,0 1,1 2,1 3,1 6,2 8,3 0,0 0,0 0,0l1 1c2,0 5,1 7,2 3,1 7,2 10,3 1,0 3,1 5,1 0,0 0,1 1,1 0,0 0,0 1,0 0,0 0,0 0,0l1 1c1,0 1,0 3,0l5 2c0,0 0,0 0,0 0,0 1,0 1,0 1,1 2,1 2,1 2,1 2,1 3,1l5 2c1,0 5,1 8,2l6 2c0,0 0,0 0,0l4 1c0,0 0,0 0,0l3 -6c1,0 0,0 1,-1l2 -3c0,0 0,0 0,0 0,0 0,0 0,0l2 -2c2,-1 0,0 2,-1l0 -1c1,0 2,0 2,0 1,0 1,-1 1,-1 1,-1 1,-1 1,0l0 0c0,0 0,0 0,0 0,0 0,0 0,0l1 -1c1,1 1,1 2,1 1,0 1,0 1,-1l0 -3c1,-1 1,-1 2,-2 1,0 1,0 2,0 1,0 1,0 1,0l3 1c1,0 0,1 0,2 0,0 0,1 0,1l1 0c0,0 0,0 0,0 0,0 0,0 0,0 0,1 0,0 -1,1 -1,2 0,0 0,3l-2 3c0,0 0,0 0,0l-1 2c-1,2 -2,3 -3,4 0,2 -2,4 -3,5 0,1 0,1 0,1l-1 3c2,-1 2,-1 3,-2l1 -2c0,0 0,0 0,0l2 -2c1,-1 3,-4 4,-5 1,-2 3,-5 4,-6l8 -12c1,-2 2,-4 3,-6l4 -6c3,-4 5,-8 8,-12l27 -41c1,-2 1,-2 2,-3 1,-2 2,-3 2,-4 -1,1 0,0 -1,1l-2 3c0,0 0,0 0,0l0 -1c0,-1 2,-2 1,-4 0,0 0,-1 0,-1 0,0 0,0 0,0l-1 -2c0,0 0,0 -1,0 -1,-2 1,-3 -3,-4 0,0 0,0 0,0 -2,0 -1,0 -3,-1 -3,-1 -4,-1 -6,-1 -1,0 0,0 -1,0 -2,-1 -1,-1 -3,-1 -3,-1 -4,-1 -5,-2 -2,0 -1,-1 -2,1 -1,-2 -3,-2 -4,-2 -5,-1 -2,-1 -4,-1 0,0 -1,-1 -2,-1l-15 -3c-4,-1 -3,-2 -7,-2 -1,0 -1,0 -1,1 -1,-1 1,0 -2,-2 -2,-1 -1,1 -5,-1 0,0 -1,0 -1,0 -2,0 -3,0 -3,-1 -2,1 0,0 -2,0 -3,-1 -8,-2 -8,-2l-1 0c0,0 -1,0 -2,-1 -3,-1 -5,-1 -7,-1 -3,-1 1,-1 -2,-1 -1,0 -1,0 -2,-1l-5 -1c0,0 0,0 0,0l-3 0c0,0 0,-1 0,-1 -3,0 -2,0 -4,0l-2 -1c-1,-1 0,0 -1,-1 -1,1 -1,2 -1,3 0,0 91,22 95,24 1,0 0,-1 1,0 -2,1 -9,-1 -11,-2l-22 -5c-2,-1 -4,-1 -6,-1 -1,-1 -4,-1 -5,-2l0 1c2,2 0,-1 1,1z"/>
   <path fill="#C0C0C4" d="M438 290l4 1c0,2 -1,3 -2,4 -2,0 -3,-1 -5,-1 1,-2 2,-3 3,-4l-56 -15c-8,-2 -52,-14 -57,-12 0,1 0,-1 0,1 0,1 0,1 1,1 3,2 4,0 7,1 1,1 1,0 0,1 0,0 0,0 -1,0 6,2 13,4 19,5 2,1 5,2 7,2 8,2 17,5 25,7 6,2 49,13 51,14 0,0 -3,5 -4,5 -8,11 -17,26 -26,37l-32 47c-1,1 -2,2 -3,3l-64 94c-3,4 -7,8 -8,13 2,0 5,-3 6,-5l41 -55c0,-1 1,-2 2,-3l24 -34c1,-1 2,-2 2,-3l66 -95c1,-1 2,-1 2,-2 2,0 9,2 12,2l10 3c6,2 22,7 26,5 0,-2 -1,-2 -4,-4 -7,-2 -11,-3 -17,-5 -4,-1 -22,-5 -24,-6 2,-3 20,-27 22,-31 0,-1 1,0 1,-2 -1,-2 -2,-3 -5,-1 -3,2 -3,3 -5,6l-12 17c-2,3 -5,7 -6,9z"/>
   <path fill="#6B5416" d="M571 442c-1,2 -1,1 -3,3 -5,2 -5,2 -12,2 -3,0 -5,0 -8,-1l-64 -22c-5,-2 -9,-3 -14,-5l-14 -5c0,0 0,-1 2,0 1,0 0,0 1,1l5 1c-1,-1 0,0 -1,-2 0,-1 0,-1 0,-2 1,0 1,0 1,0 0,0 0,0 0,0 1,0 1,0 1,0 0,0 0,0 0,0 0,0 1,0 1,0l0 0c2,0 1,1 2,0 0,0 0,0 0,0 1,0 1,0 1,0 1,0 6,1 7,2 2,0 3,0 5,1 -1,0 -2,0 -3,-1l-1 0c-1,-1 -2,-1 -1,-1 0,-1 2,-1 2,0 0,-1 0,0 -1,-1l1 0c-1,-1 -11,-3 -12,-5l-1 0c0,-1 0,0 0,-1l-11 -3c-1,0 -5,7 -6,9 1,2 3,2 6,3l47 16c13,5 25,8 38,13 1,0 2,1 4,1 1,1 0,0 1,1 2,0 -1,-1 1,0 3,1 6,2 9,2 5,1 9,0 13,-2 2,-1 2,-2 4,-2 2,-2 7,-10 9,-13 3,-5 5,-9 8,-14l33 -54c0,0 1,-1 1,-1l15 -24c2,-4 1,-3 3,-4 0,4 -2,6 -4,9l-39 63c0,1 -1,2 -2,3l-4 7c-1,1 -1,2 -2,3 -3,5 -6,10 -9,14 -1,3 -3,5 -4,7 -1,2 -3,5 -4,7 -1,1 -1,1 -1,2 -1,0 -1,1 -2,1 -4,3 -7,3 -12,3 -7,0 -11,-2 -17,-4 -7,-2 -18,-6 -24,-8 -3,-1 -5,-2 -8,-3l-55 -19c-2,-1 -5,-2 -8,-3 -1,1 -1,2 -2,4 0,0 0,0 0,0l1 0c0,0 1,1 1,1l14 4c3,1 6,3 10,3 2,0 1,-1 5,0l8 3c1,0 1,0 2,0 1,1 2,1 2,1l43 15c7,2 15,6 23,7 11,2 12,-2 17,-2 -1,1 -2,2 -3,2 -1,1 -2,2 -3,2 -8,4 -19,0 -26,-2 -5,-2 -11,-4 -16,-6l-40 -13c-11,-4 -23,-9 -35,-13 -1,0 -2,-1 -3,-1 0,0 0,0 -1,0l0 1c0,0 1,1 2,1l17 6c0,0 0,0 1,0l11 4c2,1 4,2 7,3l39 13c1,0 3,1 4,1l23 8c3,1 7,1 9,1 2,0 3,0 5,0 2,-1 3,-2 5,-3 0,0 1,0 1,0 0,0 0,0 0,0 0,1 -1,1 -2,2 -5,2 -5,3 -10,3 -5,0 -7,0 -12,-2l-54 -19c-3,-1 -5,-2 -8,-3 -3,-1 -5,-1 -8,-2 -6,-2 -10,-4 -16,-6 -4,-1 -11,-4 -15,-5 0,0 0,-1 0,-1l1 -1c-2,1 -3,4 -4,5 -1,1 -1,2 -2,3 -1,2 0,2 -2,2l-64 103c-2,4 -4,6 -7,8 -5,3 -3,1 -6,2 -6,3 -13,3 -19,0 -2,-1 -3,-1 -5,-2l-18 -9c-1,0 -2,0 -3,-1 -1,0 -1,0 -3,-1l-18 -8c-10,-4 -21,-10 -31,-15l-10 -5c-6,-2 -10,-4 -16,-7 -7,-3 -14,-6 -21,-9 -2,-1 -3,-2 -5,-3l-37 -17c-2,0 -3,-1 -5,-2l-10 -5c-2,-1 -4,-2 -6,-2 1,1 1,1 2,2 0,0 0,0 0,0 1,2 13,7 15,8 7,3 15,6 22,10 11,5 24,11 35,16 12,6 27,12 40,18l35 16c1,1 2,1 3,2 3,1 7,3 10,5l22 10c3,1 7,4 11,4 10,0 17,-2 23,-9 1,-1 2,-3 3,-4 5,-8 10,-17 15,-24l54 -88c1,0 15,5 18,6l87 30c3,2 6,2 10,1 3,0 6,-1 9,-3 4,-2 5,-5 8,-9l15 -26c2,-2 3,-5 5,-7l47 -77c1,-2 1,-2 1,-5 -1,-2 1,-2 1,-5 0,-2 -1,-3 -1,-4 0,2 1,3 0,5 0,1 -1,3 -2,4 -2,3 -3,5 -4,7l-9 14c-1,2 -2,3 -3,4l0 2c-1,0 -1,0 -1,0 -4,7 -10,16 -14,23 -11,16 -21,34 -32,50 -2,5 -1,4 -4,7z"/>
   <path fill="#A78527" d="M344 223l2 -1 -6 6c-4,5 -8,9 -12,14l-1 2c0,0 -1,0 -1,0l-7 9c0,0 -1,0 -1,0l-5 6c-3,3 -6,7 -9,11 0,0 0,-1 0,0l-5 5c-1,1 -1,1 -1,2l-18 21c-1,1 1,-1 0,0 -2,1 -3,3 -4,4l-21 24c-1,1 -2,2 -3,3 -2,2 -3,4 -5,6l-21 24c-1,1 -2,2 -3,3 0,1 -1,1 -1,1 -1,1 0,1 -1,2l-19 21c-1,1 -1,2 -2,3l-8 9c-1,1 -1,3 -3,4 -1,0 -1,1 -2,2 0,0 -1,1 -1,1l-7 7c1,2 0,2 -1,3 0,0 0,0 0,0l-12 14c-1,1 -2,2 -3,3l0 1c0,0 -1,0 -1,0l-2 3c0,1 1,0 0,1l-4 3c0,0 0,0 0,1l-3 4c-1,1 -2,2 -2,4 0,2 1,6 3,7 1,1 0,0 1,1 0,0 0,0 0,0l1 0c0,1 1,1 1,1 1,0 0,0 1,1l10 5c2,0 2,1 3,2 2,1 2,0 4,1l1 0c0,1 0,1 0,1 1,0 1,0 1,0l8 4c0,0 0,0 0,0l12 5c1,1 0,0 1,1 1,1 2,0 3,1 2,0 2,1 3,1 1,1 1,1 3,1 1,2 3,2 4,3 1,1 2,1 3,1l6 3c1,0 0,0 1,0 1,1 0,0 1,1 1,1 2,1 3,1l42 20c0,0 0,0 1,0 0,0 0,0 1,0 -1,-1 -4,-2 -6,-3l-22 -10c-1,-1 0,-1 -1,-1l-1 0c-1,-1 -3,-1 -5,-2 -2,-2 -5,-3 -8,-4 -1,-1 -2,-1 -2,-1l-6 -3c-2,0 -1,-1 -4,-2l-1 -1c-1,0 -2,0 -2,0 -1,-1 0,0 -1,-1l-2 -1c-1,-1 -2,-1 -4,-2l-5 -3c-1,0 -2,0 -3,-1l-4 -1c0,-1 0,-1 0,-1l-4 -2c-2,-1 -1,-1 -2,-1 -3,-1 -1,-1 -3,-1 0,0 0,0 -1,0 -1,-1 0,0 -1,-2 0,1 0,1 -1,1 -1,-1 0,-1 -1,-1 0,0 -1,-1 -1,-1 -1,0 -1,1 -4,-2 0,0 0,0 -1,0l-3 -1c-1,-1 0,-1 -2,-2 -1,0 -1,0 -1,-1 -1,-1 -2,-1 -3,-1l0 -1c-1,0 0,1 -1,0 -1,1 0,-1 -1,1l-1 -1c0,0 0,0 0,0 0,0 0,0 0,0 0,-1 0,-1 -1,-1l-2 -1c-1,-1 -1,-1 0,-2l-2 1c0,-3 0,-2 -1,-2 0,-1 0,-1 1,-2 -1,0 -1,0 -1,0 0,0 -1,0 -1,0l1 -1c0,-1 0,0 -1,-1l1 0c1,-2 2,-1 2,-3l0 0c0,-1 0,-1 0,-1 -1,-1 0,0 -1,-1 0,0 1,0 1,0 0,0 0,0 0,0 1,-1 0,0 1,-1 2,-1 1,-1 3,-3 1,0 2,-2 3,-3l3 -5c0,0 0,-1 0,-1l4 -4c0,-1 0,0 0,0 0,-2 0,-1 1,-2 1,-1 0,0 1,-2 3,1 1,0 2,-2 0,0 0,0 0,0 0,0 0,0 0,0l2 -2c0,0 0,0 0,0l0 0c0,0 0,0 0,-1 1,0 1,0 1,-1l3 -3c1,-1 0,1 2,-2 1,-1 1,-1 2,-2 0,0 0,0 0,0l1 -1c1,0 0,0 1,0 0,-1 -1,-1 0,-1 0,-1 0,0 0,0 1,0 0,0 1,0 0,0 0,0 0,0 0,-3 0,-1 1,-3 1,-1 1,-1 1,-2l3 -2c0,0 0,0 0,0l0 0c1,-1 1,-3 3,-3 -1,-2 1,-1 2,-2l1 -2c0,0 0,0 0,0 0,0 0,0 0,0l0 -1c1,-1 2,-2 3,-3 0,0 0,0 0,0 1,-1 1,-1 2,-1 -1,-1 1,-4 2,-4 2,-1 1,-1 2,-2l2 -3c1,0 3,-1 3,-1 1,-1 -1,-1 2,-3 0,0 0,-1 1,-1l1 -3c1,0 1,0 1,0 0,-2 3,-3 4,-5 1,-1 1,-1 1,-2 1,-1 2,-1 3,-2 0,0 0,0 0,0 0,-1 0,-1 1,-2l0 -1c0,0 0,0 0,0 2,-1 2,-2 2,-3l1 0c0,0 0,-1 0,-1l6 -6c0,0 0,0 0,0 1,-1 0,0 0,0 1,-1 0,-1 1,-1 0,0 0,1 2,-2l3 -4c2,-2 1,-1 3,-4 1,-1 2,-2 3,-3l2 -2c1,-1 4,-4 5,-5l0 -2c2,-1 4,-3 5,-5 2,-1 2,0 3,-2l2 -3c0,0 0,0 0,0l9 -10c0,0 0,0 1,0 0,-1 2,-3 2,-3l1 -1c0,0 0,0 0,0 1,0 1,0 1,0l1 -3c0,0 0,0 0,0 1,-1 3,-3 4,-4 0,-1 2,-2 2,-2 0,-1 1,-1 2,-2l0 0c1,-1 1,-1 2,-1 -1,0 0,0 -1,-1 1,0 1,0 2,0 -1,-2 -1,-1 0,-2 0,0 1,-1 1,-1 0,0 1,0 1,-1 0,0 0,1 1,0 0,0 0,-1 1,-2 0,-1 0,0 0,0 1,-1 1,-2 1,-2l5 -5c1,-1 0,0 1,-1 0,0 0,0 0,0l0 0c0,-1 0,-1 0,-1 0,0 0,0 0,0l1 -1c1,0 0,0 1,0l2 -3c0,-1 0,0 1,-1 0,-1 1,-1 2,-2 2,-1 -1,2 0,0 1,-1 0,0 0,0 1,0 1,-1 1,-1 0,0 0,0 0,0l3 -3c0,-1 -1,-1 0,-1l1 -1c1,-1 2,-2 2,-3l2 -2c1,-1 0,0 1,-1l2 -2c0,-1 0,-1 0,-1l1 -1c1,-1 0,0 1,-1 1,0 2,-1 3,-2l1 -2c2,-2 1,-1 2,-3 1,0 1,-2 2,-2l3 -4c1,0 1,-1 2,-2 1,0 0,0 1,-1 0,0 0,0 1,0 1,-1 -1,0 1,0 -2,-3 3,-5 4,-7l1 -1c0,0 0,0 1,-1 1,1 0,-1 1,2 0,-1 0,-1 0,-1l0 -2c0,0 0,0 0,-1l1 0c1,0 1,-1 2,-2 0,0 0,0 0,-1 11,1 10,2 18,3l6 2c3,0 3,0 5,1l16 4c5,1 16,3 18,4l11 3c6,1 13,2 19,4l6 1c1,0 1,0 1,0l11 3c6,2 13,3 19,4 1,1 1,1 3,1l9 3c2,0 4,1 7,1 0,0 0,0 1,1 1,0 1,0 2,0 1,0 2,0 3,1l24 6c1,1 0,1 2,1 1,1 2,2 2,4l0 4c1,0 1,0 1,-1 0,0 0,-1 1,-2 0,-1 -1,-2 -1,-3 -1,-3 -4,-5 -7,-7 -3,-1 -42,-10 -48,-11l-25 -6c-11,-3 -24,-6 -36,-9 -15,-3 -33,-7 -48,-11 -2,0 -4,-1 -6,-1 -6,-1 -12,-2 -18,0 -1,1 0,0 -1,2z"/>
   <path fill="#B58B19" d="M578 407l-2 2c0,0 0,0 0,0l-1 2c-1,1 -1,1 -3,2l1 -3c0,0 0,0 0,-1 1,-1 3,-3 3,-5 1,-1 2,-2 3,-4l1 -2c0,0 0,0 0,0l2 -3c0,-3 -1,-1 0,-3 1,-1 1,0 1,-1 0,0 0,0 0,0 0,0 0,0 0,0l-1 0c0,0 0,-1 0,-1 0,-1 1,-2 0,-2l-3 -1c0,0 0,0 -1,0 -1,0 -1,0 -2,0 -1,1 -1,1 -2,2l0 3c0,1 0,1 -1,1 -1,0 -1,0 -2,-1l-1 1c0,0 0,0 0,0 0,0 0,0 0,0l0 0c0,-1 0,-1 -1,0 0,0 0,1 -1,1 0,0 -1,0 -2,0l0 1c-2,1 0,0 -2,1l-2 2c0,0 0,0 0,0 0,0 0,0 0,0l-2 3c-1,1 0,1 -1,1l-3 6c0,0 0,0 0,0l-4 -1c0,0 0,0 0,0l-6 -2c-3,-1 -7,-2 -8,-2l-5 -2c-1,0 -1,0 -3,-1 0,0 -1,0 -2,-1 0,0 -1,0 -1,0 0,0 0,0 0,0l-5 -2c-2,0 -2,0 -3,0l-1 -1c0,0 0,0 0,0 -1,0 -1,0 -1,0 -1,0 -1,-1 -1,-1 -2,0 -4,-1 -5,-1 -3,-1 -7,-2 -10,-3 -2,-1 -5,-2 -7,-2l-1 -1c0,0 0,0 0,0 -2,-1 -5,-2 -8,-3 -1,0 -1,-1 -2,-1l1 0c-2,-1 -14,-5 -15,-5 -1,0 -1,0 -1,1 1,0 11,3 11,4l0 1c1,-1 0,-1 1,0l1 1c0,0 0,0 0,0l0 2c2,1 2,0 4,1l2 1c2,1 1,0 2,1 2,0 3,1 5,2 0,0 0,0 1,0 1,0 1,-1 2,1 1,0 0,0 1,-1 0,1 1,1 3,2l7 2c0,0 0,0 0,0 0,0 0,0 0,0 2,1 3,2 5,2 1,0 0,0 1,0l3 1c1,0 2,0 3,0l0 0c1,1 2,1 2,1 2,1 0,1 3,1l0 0c0,0 1,-1 1,0 0,0 0,1 1,2 0,0 0,0 0,0l11 3c2,0 4,1 6,1 1,0 1,0 1,0 1,1 0,0 1,1l1 0c1,1 3,1 3,1 2,0 2,2 6,2l3 1c2,0 2,0 3,0 1,0 1,1 2,0 2,0 -1,1 1,0 2,-1 4,0 5,1 -1,2 -8,6 -11,6 -4,0 -11,-2 -14,-3 -9,-3 -17,-5 -26,-8l-46 -15c-1,0 -4,-2 -6,-1 -1,0 0,-1 -1,0 8,4 20,8 29,10l43 15c5,1 10,3 16,4 1,0 8,0 9,-1 2,0 8,-3 9,-5l6 -9z"/>
   <path fill="#CBA43B" d="M344 223c-2,-1 -10,9 -11,10l-34 39c-1,0 -1,1 -2,1 0,1 -1,1 -1,2l-14 16c-4,4 -9,10 -12,14 -3,2 -4,4 -7,6 -3,2 -7,4 -8,8 -1,4 1,1 -2,5l-5 5c0,1 -1,1 -1,2l-19 21c0,0 0,1 -1,1 -1,1 -1,1 -2,2l-23 26c0,1 -1,1 -1,2l-3 3c-1,1 -1,1 -2,2l-11 12c0,1 0,1 -1,2 -3,3 -9,11 -12,14l-22 24c-1,2 -1,3 -2,5 -1,3 -3,5 0,10 1,1 1,1 2,1 1,-1 0,-1 0,-3 -1,-1 -1,-2 -1,-4 1,-1 1,-2 1,-3 0,-1 1,-1 1,-2l3 -4c3,-3 2,-2 5,-5l2 -2c0,0 0,0 0,0 0,0 0,0 0,0 2,-3 1,-1 4,-5 1,-1 2,-2 4,-4l1 -1c1,-1 2,-3 4,-6l5 -5 7 -7c0,0 1,-1 1,-1 1,-1 1,-2 2,-2 2,-1 2,-3 3,-4l8 -9c1,-1 1,-2 2,-3l19 -21c1,-1 0,-1 1,-2 0,0 1,0 1,-1 1,-1 2,-2 3,-3l21 -24c2,-2 3,-4 5,-6 1,-1 2,-2 3,-3l21 -24c1,-1 2,-3 4,-4 1,-1 -1,1 0,0l18 -21c0,-1 0,-1 1,-2l5 -5c0,-1 0,0 0,0 3,-4 6,-8 9,-11l5 -6c0,0 1,0 1,0l7 -9c0,0 1,0 1,0l1 -2c4,-5 8,-9 12,-14l6 -6 -2 1z"/>
   <path fill="#191918" d="M540 389c2,-1 3,0 4,1 -1,1 -2,1 -4,1l0 -2zm6 -2c2,0 3,0 4,1 -1,0 -1,1 -3,1l-2 -1 1 -1zm-16 1c1,-1 1,-1 1,-2 2,2 1,2 4,2 -1,1 -1,0 -1,1l3 0 0 2c-5,0 -4,-1 -5,-2l-1 1 -1 -1c0,0 -1,1 -2,0 0,0 -1,-1 -2,-1 2,-2 3,-1 4,0zm19 -3c-1,0 -1,0 -1,-1 1,-1 2,-1 4,-1l-1 2c0,1 -1,1 -2,0zm-22 0l-3 1c-1,-1 -1,-1 -2,-2l3 0c1,0 1,0 2,1zm-3 -5c0,0 1,0 1,0 0,0 0,0 1,0l-1 2 -3 0 0 -3c1,0 2,0 2,1zm26 -1l1 2 -3 0 -1 -1 3 -1zm-11 -1c-1,1 -1,2 -2,3 0,0 0,0 0,0 1,1 2,1 2,2 0,-1 -1,-2 2,-4 1,1 2,5 2,7 -2,-1 -4,-3 -5,-2 1,1 2,1 2,2 1,1 1,0 1,1l-12 -4c2,0 5,0 6,0 -1,-1 0,-1 -1,-1l-5 0 10 -4zm-15 0c1,-1 2,-2 3,-2 0,0 0,0 1,0l0 1c0,0 0,0 1,0l-2 1 -3 0zm20 -2c1,0 1,0 2,0l1 1c-3,2 -2,1 -4,0l1 -1zm-14 -1c0,-1 2,-1 4,-1l0 2 -3 0 -1 -1zm10 1c-3,0 -3,0 -3,-2l4 1c-1,1 -1,0 -1,1zm-25 7c2,8 14,12 23,13 9,0 23,-4 21,-14 -2,-7 -13,-12 -23,-12 -9,-1 -23,3 -21,13z"/>
   <path fill="#121315" d="M475 288l3 0 0 2 -4 0c1,-1 1,-1 1,-2zm6 1l0 -1 3 -1 1 1c-1,1 -3,2 -4,1zm-10 0c0,0 -1,0 -1,-1 -1,0 -1,0 -1,-1l2 -1 2 1 -2 2zm-6 -5l4 -1 0 1c0,1 -1,1 -2,2l-2 -2zm25 -1l1 1 -2 0c1,1 0,0 1,1 -1,1 -1,1 -3,2l-1 -1 1 -2 -2 -1c2,0 2,0 2,-2 1,1 1,1 1,1 1,-1 0,-2 4,-2 0,2 0,3 -2,3zm-22 -2l-3 0 1 -2c1,0 2,0 3,0l-1 2zm20 -4l1 -1c1,0 1,0 2,0 0,0 1,1 1,2 -4,1 -3,0 -4,-1zm-8 2c1,1 1,1 2,0 1,0 2,-1 3,-1 -1,3 -4,5 -5,8 0,-1 0,0 0,-1 -1,-3 0,-3 -2,-3 0,1 1,2 0,4l-7 -6c5,0 6,1 6,2 0,-1 0,-2 0,-2 -1,0 -3,-1 -4,-1 0,-1 0,-1 2,-1 1,0 2,0 3,0 2,-1 4,-1 6,-1 -1,1 -3,2 -4,2zm-13 -2c1,-1 2,-2 3,-3 1,1 1,1 2,2 -2,1 -2,1 -5,1zm19 -5c1,1 2,1 3,2l-3 1 -2 -1 2 -2zm-13 1c1,0 2,-1 3,-1l0 2c-2,1 -2,1 -3,-1zm6 -2l4 1 -1 2 -3 0 0 -3zm-1 -4c-9,1 -19,7 -19,15 -1,9 11,14 21,13 17,-2 24,-16 15,-24 -4,-3 -11,-4 -17,-4z"/>
   <path fill="#AAAAAA" d="M519 354c0,0 2,-2 2,-2 2,-1 2,-2 3,-2 0,1 -1,3 -2,4 0,0 1,0 1,1l-1 2 40 12c3,0 12,2 13,4 0,0 0,1 0,-1 0,-1 -5,-2 -6,-3 -2,0 -4,-1 -6,-1 -6,-2 -36,-11 -39,-12 3,-3 38,-46 43,-52l3 -4c1,-1 2,-2 1,-4 -4,0 -12,10 -15,13 -1,1 -2,2 -3,4l-22 26c-2,2 -12,14 -12,15z"/>
   <path fill="#D0AA52" d="M530 278c1,1 0,0 1,1l2 1c2,0 1,0 4,0 0,0 0,1 0,1l3 0c0,0 0,0 0,0l5 1c1,1 1,1 2,1 3,0 -1,0 2,1 2,0 4,0 7,1 1,1 2,1 2,1l1 0c0,0 5,1 8,2 2,0 0,1 2,0 0,1 1,1 3,1 0,0 1,0 1,0 4,2 3,0 5,1 3,2 1,1 2,2 0,-1 0,-1 1,-1 4,0 3,1 7,2l15 3c1,0 2,1 2,1 2,0 -1,0 4,1 1,0 3,0 4,2 1,-2 0,-1 2,-1 1,1 2,1 5,2 2,0 1,0 3,1 1,0 0,0 1,0 2,0 3,0 6,1 2,1 1,1 3,1 0,0 0,0 0,0 4,1 2,2 3,4 1,0 1,0 1,0l1 2c0,0 0,0 0,0 0,0 0,1 0,1 1,2 -1,3 -1,4l0 1c0,0 0,0 0,0l2 -3c1,-1 0,0 1,-1 1,-2 0,-3 0,-5 -1,-2 -3,-3 -4,-4 -2,-1 -5,-2 -7,-3 -4,-1 -9,-2 -14,-3 -4,-1 -9,-2 -14,-3l-42 -11c-4,-1 -9,-2 -13,-3l-15 -3c-1,0 -1,0 -1,1z"/>
   <path fill="#A85800" d="M481 415c0,0 0,0 0,0 4,2 2,1 4,2 2,1 2,1 4,1l5 2c3,1 7,2 12,4 1,1 2,1 3,1l12 4c3,1 2,1 3,1 1,0 1,0 2,1l8 3c2,0 2,0 3,1 2,0 2,0 3,1 1,0 2,0 3,1l5 1c0,0 0,0 1,0l6 1 9 -1c0,-1 1,-1 2,-2l1 0c0,0 1,-1 1,-1l2 -2c-2,0 -4,1 -6,2 -2,0 -4,1 -6,1 -3,0 -5,0 -7,-1 -3,0 -25,-8 -28,-9 -4,-1 -8,-2 -12,-3 -2,-1 -31,-11 -33,-11l-1 0c1,1 1,0 1,1 0,-1 -2,-1 -2,0 -1,0 0,0 1,1l1 0c1,1 2,1 3,1z"/>
   <path fill="#063C76" d="M410 393c1,2 2,7 1,9 -2,1 -2,1 -5,2 -2,1 -3,1 -4,0 2,-3 3,-1 5,-3 1,-3 0,-6 0,-5 0,0 0,0 -1,0 0,0 0,-1 -2,1l-1 0c0,0 0,0 0,0 0,1 0,1 0,1l-3 1c-9,6 -6,2 -8,4 -3,1 -4,8 -8,7 -1,-1 0,-2 2,-5 2,-4 3,-3 1,-5 -1,-2 -1,-2 0,-5 1,-2 2,-4 5,-4 1,3 -2,5 -2,7 1,0 3,1 3,1 2,1 2,0 3,-1 4,-2 8,-6 14,-5zm-24 8c-1,3 -5,8 -4,9 5,5 8,-3 10,-6 7,-1 10,-6 14,-7l0 3c-3,1 -6,1 -6,5 2,3 9,0 11,-1 2,-1 2,-2 2,-5 0,-2 0,-4 -1,-6 -3,-5 -12,1 -15,3 -2,2 -3,3 -5,1 0,-2 2,-4 1,-6 0,-2 -4,-1 -5,0 -1,0 -3,6 -3,8 0,2 1,1 1,2z"/>
   <path fill="#949494" d="M507 355c4,1 0,1 8,2 0,1 -2,3 -3,4 -2,3 -8,10 -10,12 1,0 0,0 1,0 0,0 1,-1 1,-1 1,-1 1,-2 2,-2l9 -11c0,0 0,0 0,0 2,-1 1,-1 3,-1 -2,2 -3,4 -5,5 -1,1 -1,1 -2,3 -1,1 -2,1 -3,2l-8 11c1,-1 2,-3 3,-4 2,-2 3,-3 5,-4l5 -6c2,-1 2,-1 3,-2l-4 6c0,0 0,0 0,0 -1,0 -1,0 -1,1l-1 1c0,0 -1,0 -1,1l-4 4c0,0 0,1 0,1 -1,1 -1,0 0,1 2,-3 5,-6 8,-9 2,-3 5,-6 7,-9 0,-1 0,0 -1,-1l1 -1 -4 -1c0,-2 1,-2 1,-3 3,0 4,1 6,1 0,-1 -1,-1 -1,-1 1,-1 2,-3 2,-4 -1,0 -1,1 -3,2 0,0 -2,2 -2,2 -2,0 -3,0 -5,-1 -8,-2 -18,-5 -25,-7 -1,0 -1,0 -1,1 3,1 24,6 25,7 -1,2 -3,0 -7,0 1,0 1,1 1,1z"/>
   <path fill="#655750" d="M502 373c-1,1 -2,4 -4,5 -1,2 -1,3 -2,4l-1 1c-1,0 -2,4 1,3 1,0 1,0 1,0 1,-1 2,-1 3,-2 0,-2 -1,0 0,-1 1,-2 4,-3 5,-5 -1,-1 -1,0 0,-1 0,0 0,-1 0,-1l4 -4c0,-1 1,-1 1,-1l1 -1c0,-1 0,-1 1,-1 0,0 0,0 0,0l4 -6c-1,1 -1,1 -3,2l-5 6c-2,1 -3,2 -5,4 -1,1 -2,3 -3,4l8 -11c1,-1 2,-1 3,-2 1,-2 1,-2 2,-3 2,-1 3,-3 5,-5 -2,0 -1,0 -3,1 0,0 0,0 0,0l-9 11c-1,0 -1,1 -2,2 0,0 -1,1 -1,1 -1,0 0,0 -1,0z"/>
   <path fill="#061D35" d="M333 476c1,-1 2,-4 3,-5 1,-1 2,-4 3,-4 2,0 3,3 3,4 1,1 1,2 1,3 1,2 1,2 1,3 4,0 7,-9 10,-9 0,4 -6,8 -8,11 -1,1 -1,1 0,3 0,1 0,2 1,3 1,2 2,4 1,7 -2,0 -3,-1 -5,-2 -2,-1 -4,-1 -6,-1 1,-3 5,-1 8,-1 0,-2 -3,-11 -4,-13 -1,-2 -1,-3 -2,-4 -1,0 -1,0 -1,1 -1,0 -1,1 -1,2 1,-1 1,-1 2,-2 1,1 4,13 5,15 -3,-1 -5,-1 -7,0 -4,3 4,2 8,4 2,2 2,2 5,1 0,-3 -2,-5 -2,-7 -1,-3 -2,-4 0,-7 2,-2 7,-7 6,-11 -4,0 -5,7 -9,9 -2,-2 -2,-7 -4,-10 -3,-1 -4,2 -5,4 -1,1 -3,4 -3,6 2,1 -1,0 0,0z"/>
   <path fill="#777484" d="M437 326c-1,5 3,6 8,7 5,0 10,1 12,-2 2,-4 8,-10 8,-12 -2,-1 -4,0 -5,1 -1,0 -2,0 -2,1 -1,0 -2,0 -2,1 2,0 3,-1 5,-1 0,2 -3,5 -5,8 -1,3 -3,3 -9,3 -5,-1 -8,-1 -8,-6 0,-5 3,-8 3,-9 -2,-1 -2,1 -3,3 -1,2 -1,4 -2,6z"/>
   <path fill="#6E3600" d="M455 401c1,1 2,1 3,1 1,1 2,1 3,1l1 0c0,0 0,0 0,0 0,0 0,-1 0,-1 0,0 0,0 0,0 -1,-1 0,0 -1,0 0,-1 -1,0 0,-2 0,-1 0,-1 0,-1 1,-1 1,0 3,0 2,-1 1,-1 3,0 1,-1 0,-1 1,-1 0,0 0,0 0,0 0,0 0,0 0,0 0,0 0,0 0,0 0,0 0,0 0,0 0,0 1,0 1,0 0,0 0,0 0,0l0 1c2,0 0,-1 4,0l6 2c-1,-1 -1,-1 -2,-1 -1,-1 -2,-1 -3,-1 -2,-1 -4,-1 -5,-2l-4 -2c-2,-1 -4,-2 -5,-2l-5 8z"/>
   <path fill="#847484" d="M420 347c1,0 7,-1 9,-1 3,-1 4,-1 3,3 0,1 -1,3 -1,4 1,1 0,1 2,2 2,1 6,3 8,2 0,-1 0,0 -2,-1 -2,-1 -2,-1 -4,-2 -3,-1 -2,-1 0,-8 1,-5 3,-4 3,-6 -2,0 -3,1 -4,2 0,1 -2,2 -4,2 -3,0 -8,0 -10,3z"/>
   <path fill="#664903" d="M463 420c-1,-3 0,-1 -2,-2l-12 -4c-1,-1 0,-1 -2,-1 0,1 -1,2 -1,2l2 1c4,2 11,4 15,4z"/>
   <path fill="#0A3459" d="M480 359c3,1 5,2 8,1l0 -2c-1,-2 -4,-2 -6,-2 -1,1 0,0 0,1 2,1 3,1 4,2 -2,1 -4,-1 -5,-1l-1 1z"/>
   <path fill="#050505" d="M520 358c2,0 1,0 2,-1l1 -2c-2,0 -3,-1 -6,-1 0,1 -1,1 -1,3l4 1z"/>
   <path fill="#90794B" d="M474 369l0 1 0 0c12,5 5,-2 3,-3 -1,0 1,0 -1,0 0,0 0,0 0,0 1,1 1,1 1,3l-3 -1z"/>
   <path fill="#081727" d="M474 369l3 1c0,-2 0,-2 -1,-3 -2,1 -1,1 -2,2z"/>
  </g>
 </g>
</svg>
