<?xml version="1.0" encoding="UTF-8"?>
<!DOCTYPE svg PUBLIC "-//W3C//DTD SVG 1.1//EN" "http://www.w3.org/Graphics/SVG/1.1/DTD/svg11.dtd">
<!-- Creator: CorelDRAW X8 -->
<svg xmlns="http://www.w3.org/2000/svg" xml:space="preserve" width="1000px" height="1000px" version="1.1" shape-rendering="geometricPrecision" text-rendering="geometricPrecision" image-rendering="optimizeQuality" fill-rule="evenodd" clip-rule="evenodd"
viewBox="0 0 1000 1000"
 xmlns:xlink="http://www.w3.org/1999/xlink">
 <g id="Слой_x0020_4">
  <metadata id="CorelCorpID_0Corel-Layer"/>
  <circle fill="black" cx="500" cy="500" r="500"/>
  <path fill="black" d="M500 221c154,0 279,125 279,279 0,155 -125,280 -279,280 -154,0 -279,-125 -279,-280 0,-154 125,-279 279,-279zm-9 209c39,-4 74,24 78,62 5,39 -23,74 -62,78 -39,5 -73,-23 -78,-62 -4,-39 24,-74 62,-78zm252 122c-40,92 -147,134 -238,94 -81,-36 -123,-123 -104,-206 -42,97 3,210 100,252 97,42 211,-2 253,-100 24,-53 21,-111 -3,-160 11,38 9,81 -8,120zm-411 133c-59,-80 -42,-194 38,-253 71,-52 168,-45 231,13 -64,-84 -183,-102 -269,-39 -85,63 -103,183 -40,269 34,47 86,74 140,78 -39,-10 -74,-33 -100,-68zm91 -422c99,-11 188,60 200,160 9,87 -45,168 -127,193 105,-13 180,-108 168,-213 -11,-106 -107,-182 -212,-170 -58,7 -108,38 -138,83 28,-29 66,-48 109,-53z"/>
  <path fill="#177798" d="M499 102l2 0c3,0 6,3 6,6l0 65c0,3 -3,6 -6,6l-2 0c-3,0 -6,-3 -6,-6l0 -65c0,-3 3,-6 6,-6zm2 797l-2 0c-3,0 -6,-3 -6,-6l0 -65c0,-3 3,-6 6,-6l2 0c3,0 6,3 6,6l0 65c0,3 -3,6 -6,6zm344 -201l-1 3c-1,2 -5,3 -7,2l-57 -33c-3,-2 -4,-5 -2,-8l1 -2c2,-3 5,-3 8,-2l56 33c3,1 4,5 2,7zm-689 3l-2 -3c-1,-2 0,-6 3,-7l56 -33c3,-2 6,-1 8,2l1 2c2,3 1,6 -2,8l-57 33c-2,1 -6,0 -7,-2zm688 -401l1 2c2,3 1,6 -2,8l-56 33c-3,1 -6,0 -8,-2l-1 -3c-2,-2 -1,-6 2,-7l57 -33c2,-1 6,-1 7,2zm-690 2l2 -2c1,-3 5,-3 7,-2l57 33c3,1 4,5 2,7l-1 3c-2,2 -5,3 -8,2l-56 -33c-3,-2 -4,-5 -3,-8z"/>
  <path fill="#7688A1" fill-rule="nonzero" d="M500 86c115,0 218,46 293,121 75,75 122,179 122,293 0,115 -47,219 -122,294 -75,75 -178,121 -293,121 -115,0 -218,-46 -293,-121 -75,-75 -122,-179 -122,-294 0,-80 23,-155 63,-219l17 10c-38,61 -60,133 -60,209 0,109 44,208 116,280 71,71 170,115 279,115 109,0 208,-44 279,-115 72,-72 116,-171 116,-280 0,-109 -44,-208 -116,-279 -71,-72 -170,-116 -279,-116 -9,0 -19,1 -28,1l-1 -19c10,-1 19,-1 29,-1z"/>
  <path fill="#FEFEFE" d="M379 909l-13 41c25,8 51,13 77,16l4 -43c-23,-3 -46,-8 -68,-14zm-215 -147c-72,-92 -100,-205 -87,-314 8,-60 28,-119 61,-172l-38 -22c-12,20 -23,41 -32,62 21,41 11,93 -27,122 -2,2 -5,4 -7,5 -15,119 16,244 96,346 11,14 22,27 34,40l31 -31c-11,-11 -21,-23 -31,-36zm307 -687c27,-1 54,-1 81,3 68,8 133,32 191,72l25 -35c-63,-45 -136,-72 -211,-81 -29,-3 -58,-4 -87,-2l1 43zm328 729l52 8c65,-73 104,-162 115,-254 4,-31 5,-61 2,-92l-43 4c2,27 1,55 -2,82 -12,93 -54,182 -124,252zm-34 30l44 20c12,-10 24,-22 35,-33l-54 -9c-8,8 -16,15 -25,22zm-9 6c-7,6 -15,12 -23,17l23 37c11,-7 22,-15 33,-24 4,-3 8,-6 11,-9l-44 -21zm-255 86l-1 44c11,0 22,0 33,-1l-4 -44c-9,1 -19,1 -28,1zm-41 -2l-5 44c11,1 22,2 33,2l0 -44c-9,0 -19,-1 -28,-2z"/>
  <path fill="#0B3B53" fill-rule="nonzero" d="M235 834l-28 33c8,7 17,14 26,20l24 -37c-7,-5 -15,-10 -22,-16zm347 84l8 43c10,-2 21,-4 31,-7l-11 -42c-10,2 -19,5 -28,6zm-40 6l3 44c11,-1 22,-3 32,-4l-7 -43c-10,1 -19,2 -28,3zm155 -46l20 39c10,-5 19,-10 28,-16l-23 -37c-8,5 -16,9 -25,14zm-37 17l16 41c10,-4 20,-9 30,-13l-20 -39c-8,4 -17,7 -26,11zm-38 14l12 42c10,-3 20,-7 30,-11l-16 -40c-8,3 -17,6 -26,9zm156 -787l-25 35c7,6 15,12 22,18l29 -33c-9,-7 -17,-14 -26,-20zm185 299l-43 8c2,10 3,19 4,28l43 -3c-1,-11 -2,-22 -4,-33zm-10 -44l-42 12c3,10 5,19 7,28l43 -8c-2,-11 -5,-21 -8,-32zm-13 -42l-41 16c3,8 6,17 9,26l42 -12c-3,-10 -7,-20 -10,-30zm-18 -42l-39 20c4,8 8,17 11,26l41 -16c-4,-10 -9,-20 -13,-30zm-22 -39l-37 23c5,8 9,16 14,25l39 -20c-5,-10 -11,-19 -16,-28zm-26 -37l-34 26c5,8 11,16 16,24l37 -24c-6,-9 -12,-18 -19,-26zm-29 -35l-31 30c6,7 12,14 18,21l34 -26c-6,-9 -13,-17 -21,-25zm-32 -32l-28 33c6,7 13,13 20,20l32 -30c-8,-8 -16,-15 -24,-23zm-609 657l-31 31c8,7 16,14 24,21l28 -33c-7,-6 -14,-13 -21,-19zm136 88l-17 41c10,4 20,7 31,11l13 -42c-9,-3 -18,-6 -27,-10zm-37 -17l-21 39c10,5 20,9 30,14l17 -41c-9,-3 -17,-8 -26,-12zm-35 -20l-25 36c10,6 19,11 28,17l21 -39c-8,-4 -16,-9 -24,-14z"/>
  <path fill="#177798" fill-rule="nonzero" d="M746 255c-62,-62 -146,-100 -239,-102l0 -33c102,2 195,44 262,111 22,22 41,47 57,73l0 0 -28 17c-15,-24 -32,-47 -52,-66zm-253 -102c-93,2 -177,40 -239,102 -20,19 -37,42 -52,66l-28 -17 0 0c16,-26 35,-51 57,-73 67,-67 160,-109 262,-111l0 33zm-297 179c-28,50 -43,107 -43,168 0,61 15,119 43,168l-29 17 0 0c-30,-55 -47,-118 -47,-185 0,-67 17,-129 47,-184l0 0 29 16zm6 348c15,24 32,46 52,66 62,61 146,100 239,102l0 33c-102,-2 -195,-44 -262,-112 -22,-22 -41,-46 -57,-73l0 0 28 -16zm305 168c93,-2 177,-41 239,-102 20,-20 37,-42 52,-66l28 16 0 0c-16,27 -35,51 -57,73 -67,68 -160,110 -262,112l0 -33zm297 -180c28,-49 43,-107 43,-168 0,-61 -15,-118 -43,-168l29 -16 0 0c30,55 47,117 47,184 0,67 -17,130 -47,185l0 0 -29 -17z"/>
  <path fill="#6315A6" d="M491 430c39,-4 74,24 78,62 5,39 -23,74 -62,78 -39,5 -73,-23 -78,-62 -4,-39 24,-74 62,-78zm252 122c-40,92 -147,134 -238,94 -81,-36 -123,-123 -104,-206 -42,97 3,210 100,252 97,42 211,-2 253,-100 24,-53 21,-111 -3,-160 11,38 9,81 -8,120zm-411 133c-59,-80 -42,-194 38,-253 71,-52 168,-45 231,13 -64,-84 -183,-102 -269,-39 -85,63 -103,183 -40,269 34,47 86,74 140,78 -39,-10 -74,-33 -100,-68zm91 -422c99,-11 188,60 200,160 9,87 -45,168 -127,193 105,-13 180,-108 168,-213 -11,-106 -107,-182 -212,-170 -58,7 -108,38 -138,83 28,-29 66,-48 109,-53z"/>
  <g id="interface-icon-dm-energy">
   <path id="interface-icon-dm-energy00" fill="#232324" d="M508 215l0 -43 -16 0 0 43 16 0zm-30 1l-5 -43 -15 1 4 43 16 -1zm-30 4l-9 -43 -15 3 9 43 15 -3zm-29 7l-13 -42 -15 5 13 41 15 -4zm-28 9l-18 -39 -14 6 18 40 14 -7zm-27 13l-22 -37 -13 8 22 37 13 -8zm-26 16l-25 -35 -12 9 25 35 12 -9zm-23 18l-29 -32 -12 10 29 32 12 -10zm-22 21l-32 -29 -10 11 32 29 10 -11zm-19 22l-35 -25 -9 12 35 26 9 -13zm-17 25l-38 -22 -8 14 38 21 8 -13zm-15 26l-39 -17 -6 14 39 17 6 -14zm-11 28l-41 -14 -5 15 41 14 5 -15zm-9 28l-42 -9 -3 16 42 9 3 -16zm-7 45l2 -15 -43 -5 -2 16 43 4zm0 30l0 -15 -44 0 0 15 44 0zm2 30l-2 -15 -43 4 2 15 43 -4zm5 29l-3 -15 -42 9 3 15 42 -9zm9 29l-5 -15 -41 14 5 14 41 -13zm11 28l-6 -15 -39 18 6 14 39 -17zm15 26l-8 -14 -38 22 8 13 38 -21zm17 24l-9 -12 -35 25 9 13 35 -26zm19 23l-10 -11 -32 29 10 11 32 -29zm-7 53l29 -32 -12 -11 -29 32 12 11zm27 21l25 -35 -12 -9 -25 35 12 9zm29 18l22 -38 -13 -7 -22 37 13 8zm31 15l18 -40 -14 -6 -18 39 14 7zm33 11l13 -41 -15 -5 -13 42 15 4zm33 8l9 -42 -15 -3 -9 42 15 3zm34 5l5 -43 -16 -2 -4 43 15 2zm35 1l0 -43 -16 0 0 43 16 0zm34 -3l-4 -43 -16 2 5 43 15 -2zm34 -6l-9 -42 -15 3 9 42 15 -3zm33 -9l-13 -42 -15 5 13 41 15 -4zm32 -14l-18 -39 -14 6 18 40 14 -7zm30 -16l-22 -37 -13 7 22 38 13 -8zm28 -19l-25 -35 -12 9 25 35 12 -9zm27 -23l-29 -32 -12 11 29 32 12 -11zm23 -24l-32 -29 -10 11 32 29 10 -11zm21 -28l-35 -25 -9 12 35 26 9 -13zm19 -29l-38 -22 -8 14 38 21 8 -13zm14 -31l-39 -18 -6 14 39 18 6 -14zm12 -32l-41 -14 -5 15 41 13 5 -14zm8 -34l-42 -9 -3 15 42 9 3 -15zm5 -34l-43 -5 -2 16 43 4 2 -15zm1 -34l-44 0 0 15 44 0 0 -15zm-1 -19l-2 -16 -43 5 2 15 43 -4zm-5 -34l-3 -16 -42 9 3 16 42 -9zm-8 -34l-5 -15 -41 14 5 15 41 -14zm-12 -32l-6 -14 -39 17 6 14 39 -17zm-14 -31l-8 -14 -38 22 8 13 38 -21zm-54 -4l35 -26 -9 -12 -35 25 9 13zm-18 -24l32 -29 -10 -11 -32 29 10 11zm-20 -22l29 -32 -12 -10 -29 32 12 10zm-23 -19l25 -35 -12 -9 -26 35 13 9zm-25 -17l22 -37 -13 -8 -22 37 13 8zm-26 -14l18 -40 -14 -6 -18 39 14 7zm-27 -12l13 -41 -15 -5 -13 42 15 4zm-29 -8l9 -43 -15 -3 -9 43 15 3zm-29 -6l4 -43 -15 -1 -5 43 16 1z"/>
   <path id="interface-icon-dm-energy12" fill="#E31104" d="M329 220l13 -8 22 37 -13 8 -22 -37zm62 -30l15 -5 13 42 -15 4 -13 -41zm67 -16l15 -1 5 43 -16 1 -4 -43zm-34 6l15 -3 9 43 -15 3 -9 -43zm-65 23l14 -6 18 39 -14 7 -18 -40z"/>
   <path id="interface-icon-dm-energy11" fill="#C52C04" d="M211 343l8 -14 38 22 -8 13 -38 -21zm90 -104l12 -9 25 35 -12 9 -25 -35zm-27 22l12 -10 29 32 -12 10 -29 -32zm-23 25l10 -11 32 29 -10 11 -32 -29zm-21 27l9 -12 35 25 -9 13 -35 -26z"/>
   <path id="interface-icon-dm-energy10" fill="#B23E04" d="M171 508l0 -15 44 0 0 15 -44 0zm26 -134l6 -14 39 17 -6 14 -39 -17zm-12 32l5 -15 41 14 -5 15 -41 -14zm-8 34l3 -16 42 9 -3 16 -42 -9zm-5 34l2 -16 43 5 -2 15 -43 -4z"/>
   <path id="interface-icon-dm-energy09" fill="#995504" d="M219 671l-8 -13 38 -22 8 14 -38 21zm-45 -129l-2 -15 43 -4 2 15 -43 4zm6 34l-3 -15 42 -9 3 15 -42 9zm10 33l-5 -14 41 -14 5 15 -41 13zm13 32l-6 -14 39 -18 6 15 -39 17z"/>
   <path id="interface-icon-dm-energy08" fill="#8C6104" d="M342 789l-13 -8 22 -37 13 7 -22 38zm-103 -89l-9 -13 35 -25 9 12 -35 26zm22 26l-10 -11 32 -29 10 11 -32 29zm25 24l-12 -11 29 -32 12 11 -29 32zm27 21l-12 -9 25 -35 12 9 -25 35z"/>
   <path id="interface-icon-dm-energy07" fill="#816B04" d="M508 829l-16 0 0 -43 16 0 0 43zm-135 -25l-14 -7 18 -39 14 6 -18 40zm33 11l-15 -4 13 -42 15 5 -13 41zm33 8l-15 -3 9 -42 15 3 -9 42zm34 5l-15 -2 4 -43 16 2 -5 43z"/>
   <path id="interface-icon-dm-energy06" fill="#6C7D04" d="M671 781l-13 8 -22 -38 13 -7 22 37zm-129 45l-15 2 -5 -43 16 -2 4 43zm34 -6l-15 3 -9 -42 15 -3 9 42zm33 -9l-15 4 -13 -41 15 -5 13 42zm32 -14l-14 7 -18 -40 14 -6 18 39z"/>
   <path id="interface-icon-dm-energy05" fill="#40A603" d="M789 658l-8 13 -38 -21 8 -14 38 22zm-90 104l-12 9 -25 -35 12 -9 25 35zm27 -23l-12 11 -29 -32 12 -11 29 32zm23 -24l-10 11 -32 -29 10 -11 32 29zm21 -28l-9 13 -35 -26 9 -12 35 25z"/>
   <path id="interface-icon-dm-energy04" fill="#40A603" d="M829 493l0 15 -44 0 0 -15 44 0zm-26 134l-6 14 -39 -18 6 -14 39 18zm12 -32l-5 14 -41 -13 5 -15 41 14zm8 -34l-3 15 -42 -9 3 -15 42 9zm5 -34l-2 15 -43 -4 2 -16 43 5z"/>
   <path id="interface-icon-dm-energy03" fill="#28BC03" d="M781 329l8 14 -38 21 -8 -13 38 -22zm45 129l2 16 -43 4 -2 -15 43 -5zm-6 -34l3 16 -42 9 -3 -16 42 -9zm-10 -33l5 15 -41 14 -5 -15 41 -14zm-13 -31l6 14 -39 17 -6 -14 39 -17z"/>
   <path id="interface-icon-dm-energy02" fill="#0ED403" d="M658 212l13 8 -22 37 -13 -8 22 -37zm103 89l9 12 -35 26 -9 -13 35 -25zm-22 -26l10 11 -32 29 -10 -11 32 -29zm-25 -24l12 10 -29 32 -12 -10 29 -32zm-27 -21l12 9 -25 35 -13 -9 26 -35z"/>
   <path id="interface-icon-dm-energy01" fill="#0ED403" d="M492 172l16 0 0 43 -16 0 0 -43zm135 25l14 6 -18 40 -14 -7 18 -39zm-33 -12l15 5 -13 41 -15 -4 13 -42zm-33 -8l15 3 -9 43 -15 -3 9 -43zm-34 -4l15 1 -4 43 -16 -1 5 -43z"/>
  </g>
  <path id="interface-icon-dm-active" fill="#603882" d="M391 27l20 92c16,-3 33,-6 49,-7l-4 -93c-22,1 -44,4 -65,8zm-187 217l-72 -60c-13,16 -25,32 -36,50l81 48c8,-13 17,-26 27,-38zm-64 -69l71 60c11,-12 22,-23 34,-34l-60 -71c-17,14 -32,29 -45,45zm53 -53l61 72c12,-10 25,-19 38,-28l-48 -80c-18,11 -35,23 -51,36zm61 -42l48 80c14,-8 28,-15 42,-21l-34 -87c-20,8 -38,17 -56,28zm66 -32l35 87c15,-5 30,-10 45,-14l-20 -91c-20,4 -40,10 -60,18z"/>
  <path fill="black" d="M500 221c154,0 279,125 279,279 0,155 -125,280 -279,280 -154,0 -279,-125 -279,-280 0,-154 125,-279 279,-279zm-9 209c39,-4 74,24 78,62 5,39 -23,74 -62,78 -39,5 -73,-23 -78,-62 -4,-39 24,-74 62,-78zm252 122c-40,92 -147,134 -238,94 -81,-36 -123,-123 -104,-206 -42,97 3,210 100,252 97,42 211,-2 253,-100 24,-53 21,-111 -3,-160 11,38 9,81 -8,120zm-411 133c-59,-80 -42,-194 38,-253 71,-52 168,-45 231,13 -64,-84 -183,-102 -269,-39 -85,63 -103,183 -40,269 34,47 86,74 140,78 -39,-10 -74,-33 -100,-68zm91 -422c99,-11 188,60 200,160 9,87 -45,168 -127,193 105,-13 180,-108 168,-213 -11,-106 -107,-182 -212,-170 -58,7 -108,38 -138,83 28,-29 66,-48 109,-53z"/>
 </g>
</svg>
