<?xml version="1.0" encoding="UTF-8"?>
<!DOCTYPE svg PUBLIC "-//W3C//DTD SVG 1.1//EN" "http://www.w3.org/Graphics/SVG/1.1/DTD/svg11.dtd">
<!-- Creator: CorelDRAW X8 -->
<svg xmlns="http://www.w3.org/2000/svg" xml:space="preserve" width="1000px" height="1000px" version="1.1" shape-rendering="geometricPrecision" text-rendering="geometricPrecision" image-rendering="optimizeQuality" fill-rule="evenodd" clip-rule="evenodd"
viewBox="0 0 1000 1000"
 xmlns:xlink="http://www.w3.org/1999/xlink">
 <defs>
   <radialGradient id="id0" gradientUnits="userSpaceOnUse" gradientTransform="matrix(1.00005 -0 -0 1.00004 0 0)" cx="499.953" cy="499.949" r="6.30779" fx="499.953" fy="499.949">
    <stop offset="0" stop-opacity="1" stop-color="#FEFEFE"/>
    <stop offset="0.45098" stop-opacity="1" stop-color="#F8F8F8"/>
    <stop offset="0.223529" stop-opacity="1" stop-color="#908F91"/>
    <stop offset="1" stop-opacity="1" stop-color="#232125"/>
   </radialGradient>
 </defs>
 <g id="_1-Конфедерация">
  <metadata id="CorelCorpID_0Corel-Layer"/>
  <circle fill="black" cx="500" cy="500" r="500"/>
  <path fill="#603882" d="M392 22l20 92c16,-4 32,-6 49,-7l-5 -93c-22,1 -43,4 -64,8zm-187 217l-72 -61c-13,16 -25,33 -36,51l80 48c8,-13 18,-26 28,-38zm-65 -69l72 60c10,-12 22,-23 34,-34l-61 -71c-16,14 -31,29 -45,45zm54 -53l61 72c12,-10 25,-20 38,-28l-48 -80c-18,11 -35,23 -51,36zm60 -42l49 80c13,-8 27,-15 42,-21l-35 -87c-19,8 -38,17 -56,28zm67 -32l35 87c14,-6 29,-10 45,-14l-20 -92c-21,5 -41,11 -60,19z"/>
  <path fill="#5C531A" d="M509 664l68 -118 26 -44c-19,1 -40,1 -57,2 0,12 -5,22 -13,30 -7,7 -15,11 -24,13l0 117zm94 -163l42 -72 -101 58c1,4 2,8 2,12 17,1 38,1 57,2zm-61 -13l-7 4c0,2 0,4 1,6 2,0 5,0 8,0 0,-3 -1,-7 -2,-10zm-6 16c-1,16 -12,28 -27,32l0 9c9,-2 16,-6 22,-12 8,-7 13,-18 13,-29 -3,0 -6,0 -8,0zm100 -92l-134 0c0,15 1,31 2,44 11,1 21,6 29,13 0,1 1,1 1,2l102 -59zm-139 0l-133 0 102 59c0,-1 1,-1 1,-2 8,-7 18,-12 29,-13 1,-13 1,-29 1,-44zm-30 60l8 4c5,-5 12,-9 20,-10 1,-3 1,-5 1,-8 -11,1 -20,5 -27,12 -1,1 -1,1 -2,2zm38 -6c8,1 15,5 20,10l8 -4c-1,-1 -1,-1 -2,-2 -7,-7 -16,-11 -27,-12 0,3 0,5 1,8zm-150 -37l42 72c18,-1 39,-1 57,-2 0,-4 1,-8 2,-12l-101 -58zm42 73l26 44 68 118 0 -117c-9,-2 -17,-6 -24,-13 -7,-7 -13,-18 -13,-30 -17,-1 -38,-1 -57,-2zm94 43l0 -9c-15,-4 -25,-16 -27,-32 -2,0 -5,0 -8,0 0,11 5,22 13,29 6,6 13,10 22,12zm-27 -47c1,-2 1,-4 1,-6l-7 -4c-1,3 -2,7 -2,11 3,-1 6,-1 8,-1z"/>
  <path fill="url(#id0)" d="M500 463c20,0 37,17 37,37 0,20 -17,37 -37,37 -20,0 -37,-17 -37,-37 0,-20 17,-37 37,-37z"/>
  <path fill="#174171" d="M375 351l-23 3 -4 23 -10 -22 -23 4 17 -17 -10 -21 20 12 17 -16 -4 22 20 12zm147 -105c31,3 59,11 85,23l-33 58c-14,-6 -29,-10 -45,-12l0 -3 46 -33 -53 0 0 -33zm103 105l23 3 4 23 10 -22 23 4 -17 -17 10 -21 -20 12 -17 -16 4 22 -20 12zm58 82l18 14 -8 22 20 -13 18 14 -7 -22 20 -13 -24 -1 -6 -22 -8 22 -23 -1zm9 100l9 22 -18 15 23 -2 9 22 6 -23 23 -2 -20 -12 5 -23 -17 16 -20 -13zm-43 92l-3 23 -23 4 22 10 -4 23 17 -17 21 10 -12 -20 17 -17 -23 4 -12 -20zm-82 58l-14 18 -22 -8 13 20 -14 18 22 -7 13 20 1 -24 22 -6 -22 -8 1 -23zm-134 0l14 18 22 -8 -13 20 14 18 -22 -7 -13 20 -1 -24 -22 -6 22 -8 -1 -23zm-82 -58l3 23 23 4 -22 10 4 23 -17 -17 -21 10 12 -20 -16 -17 22 4 12 -20zm-43 -92l-9 22 18 15 -23 -2 -9 22 -6 -23 -23 -2 20 -12 -5 -23 17 16 20 -13zm9 -100l-18 14 8 22 -20 -13 -18 14 7 -22 -20 -13 24 -1 6 -22 8 22 23 -1zm329 -141c24,17 45,38 62,62l-58 34c-11,-15 -23,-27 -38,-38l34 -58zm85 101c12,26 20,54 23,85l-68 0c-2,-18 -7,-36 -13,-52l58 -33zm23 129c-3,31 -11,59 -23,85l-58 -33c6,-16 11,-34 13,-52l68 0zm-46 124c-17,24 -38,45 -62,62l-34 -58c15,-11 27,-23 38,-38l58 34zm-101 85c-26,12 -54,20 -85,23l0 -68c18,-2 36,-7 52,-13l33 58zm-129 23c-31,-3 -59,-11 -85,-23l33 -58c16,6 34,11 52,13l0 68zm-124 -46c-24,-17 -45,-38 -62,-62l58 -34c11,15 23,27 38,38l-34 58zm-85 -101c-12,-26 -20,-54 -22,-85l67 0c2,18 7,36 14,52l-59 33zm-22 -129c2,-31 10,-59 22,-85l59 33c-7,16 -12,34 -14,52l-67 0zm45 -124c17,-24 38,-45 62,-62l34 58c-15,11 -27,23 -38,38l-58 -34zm101 -85c26,-12 54,-20 85,-23l0 33 -53 0 46 33 0 3c-16,2 -31,7 -45,12l-33 -58z"/>
  <path fill="#2A9695" fill-rule="nonzero" d="M525 181c78,6 149,41 201,93 58,58 94,138 94,226 0,48 -11,94 -30,135l0 0 3 -26 -11 10c15,-37 24,-77 24,-119 0,-84 -35,-161 -90,-216 -49,-50 -116,-82 -190,-88l0 0 -6 -7 0 -1 0 0 5 -7zm238 500c-11,16 -23,31 -37,45 -58,58 -138,94 -226,94 -88,0 -168,-36 -226,-94 -13,-13 -25,-27 -36,-42l21 15 -3 -15 0 0c9,11 18,22 28,32 55,55 132,90 216,90 84,0 161,-35 216,-90 13,-13 24,-26 35,-41l0 0 9 -2 0 1 0 -1 3 8zm-552 -43c-20,-42 -31,-89 -31,-138 0,-88 36,-168 94,-226 52,-52 121,-86 198,-92l-24 10 14 5 0 0c-69,8 -131,40 -178,87 -55,55 -90,132 -90,216 0,46 11,90 29,130l-3 8 0 0 0 0 -9 0 0 0z"/>
  <path fill="#E97968" fill-rule="nonzero" d="M500 102c110,0 210,44 282,116 72,72 116,172 116,282 0,110 -44,210 -116,282 -72,72 -172,116 -282,116 -110,0 -210,-44 -282,-116 -72,-72 -116,-172 -116,-282 0,-78 22,-150 60,-211l14 8c65,-102 176,-171 304,-178l-1 -17c7,0 14,0 21,0zm262 136c-67,-66 -160,-108 -262,-108 -102,0 -195,42 -262,108 -66,67 -108,160 -108,262 0,102 42,195 108,262 67,66 160,108 262,108 102,0 195,-42 262,-108 66,-67 108,-160 108,-262 0,-102 -42,-195 -108,-262z"/>
  <path fill="#2A9695" d="M172 634l43 32 23 18 21 15 -3 -15 -7 -36 -12 -55 -14 37 -3 8 0 0 0 0 -9 0 -39 -4zm376 -485l-49 21 -27 12 -24 10 14 5 36 11 53 18 -25 -30 -6 -7 0 -1 0 0 5 -7 23 -32zm232 568l7 -53 3 -29 3 -26 -12 10 -27 25 -42 37 39 -6 9 -2 0 1 0 -1 3 8 17 36z"/>
  <path fill="white" d="M375 351l-23 3 -4 23 -10 -22 -23 4 17 -17 -10 -21 20 12 17 -16 -4 22 20 12zm125 -127l18 55 57 0 -46 33 17 55 -46 -34 -46 34 17 -55 -46 -33 57 0 18 -55zm4 232c11,1 21,6 29,13 7,8 12,18 13,30 19,1 43,1 63,3 -20,1 -44,1 -63,2 0,12 -5,22 -13,30 -8,8 -18,13 -29,14 -2,38 -1,94 -4,113 -2,-19 -1,-75 -4,-113 -11,-1 -21,-6 -29,-14 -7,-7 -13,-18 -13,-30 -19,-1 -43,-1 -63,-2 20,-1 44,-2 63,-3 1,-12 6,-22 13,-30 8,-7 18,-12 29,-13 2,-38 1,-94 4,-113 2,18 1,75 4,113zm0 2c1,18 3,31 7,34 5,4 17,5 33,6 -1,-10 -5,-20 -13,-28 -7,-7 -16,-11 -27,-12zm40 46c-16,1 -28,2 -33,6 -4,2 -6,17 -7,36 11,-1 20,-6 27,-13 8,-7 13,-18 13,-29zm-48 42c-1,-19 -3,-34 -7,-36 -5,-4 -17,-5 -33,-6 0,11 5,22 13,29 7,7 17,12 27,13zm-40 -47c16,-1 28,-3 33,-7 4,-3 6,-16 7,-34 -11,1 -20,5 -27,12 -8,8 -12,18 -13,29zm169 -148l23 3 4 23 10 -22 23 4 -17 -17 10 -21 -20 12 -17 -16 4 22 -20 12zm58 82l18 14 -8 22 20 -13 18 14 -7 -22 20 -13 -24 -1 -6 -22 -8 22 -23 -1zm9 100l9 22 -18 15 23 -2 9 22 6 -23 23 -2 -20 -12 5 -23 -17 16 -20 -13zm-43 92l-3 23 -23 4 22 10 -4 23 17 -17 21 10 -12 -20 17 -17 -23 4 -12 -20zm-82 58l-14 18 -22 -8 13 20 -14 18 22 -7 13 20 1 -24 22 -6 -22 -8 1 -23zm-134 0l14 18 22 -8 -13 20 14 18 -22 -7 -13 20 -1 -24 -22 -6 22 -8 -1 -23zm-82 -58l3 23 23 4 -22 10 4 23 -17 -17 -21 10 12 -20 -16 -17 22 4 12 -20zm-43 -92l-9 22 18 15 -23 -2 -9 22 -6 -23 -23 -2 20 -12 -5 -23 17 16 20 -13zm9 -100l-18 14 8 22 -20 -13 -18 14 7 -22 -20 -13 24 -1 6 -22 8 22 23 -1z"/>
  <path fill="#FDFCEF" d="M971 479c-4,91 -37,178 -93,250l39 5c44,-78 65,-167 62,-257l-8 2zm-146 259c-31,43 -71,80 -120,108l22 39c51,-40 91,-89 118,-144l-20 -3zm-136 118c-5,2 -9,4 -13,6l24 42c4,-2 8,-5 12,-8l-23 -40zm-30 14c-187,80 -408,9 -511,-172 -76,-133 -68,-292 7,-414l-63 -39c-24,39 -43,81 -55,126l36 48c-13,70 -9,143 14,214l-35 37c9,22 19,44 31,65 7,13 15,25 23,37l21 -14c6,8 12,17 19,25l-20 16c7,8 14,17 22,25l18 -17c7,8 15,15 23,23l-17 18c8,7 16,15 24,21l16 -19c8,7 17,14 25,20l-14 20c9,6 19,12 28,18l13 -21c9,6 18,11 27,16l-11 21c10,5 20,10 30,14l10 -22c9,5 19,8 29,12l-7 22c10,4 20,7 31,10l6 -23c11,3 21,6 31,8l-4 23c10,2 21,4 32,5l3 -23c11,1 21,2 32,3l-1 23c70,-2 142,-22 205,-58l7 -4 -25 -44zm196 -694c-72,-80 -167,-131 -268,-150l-12 74c113,21 215,90 276,197l13 -7c-15,-27 -34,-52 -53,-73l44 -41zm-98 -10c13,11 26,22 38,34l28 -32c-13,-12 -25,-23 -38,-33l-28 31zm-82 -49l15 -39c-15,-7 -31,-13 -47,-19l-15 39c16,6 32,12 47,19zm64 36l22 -36c-14,-9 -29,-18 -44,-26l-22 36c15,8 30,16 44,26zm-182 -131c-11,-2 -22,-3 -33,-3l-3 74c8,1 17,1 25,2l11 -73zm-49 71l4 -75c-12,0 -23,0 -34,0l4 75 26 0zm348 213c45,83 57,175 42,261l31 -9c5,-31 6,-63 3,-95l0 0c0,-8 -1,-17 -3,-25l43 -22c-6,-34 -15,-68 -29,-100l-87 -10zm39 279c-2,8 -4,15 -6,23l31 -5c3,-9 5,-18 6,-27l-31 9zm-46 118c-4,7 -9,13 -13,20l32 5c4,-8 9,-16 13,-24l-32 -1zm19 -38c-3,7 -7,15 -10,22l32 1c4,-8 7,-17 11,-25l-33 2zm16 -39c-3,7 -6,15 -9,22l32 -2c3,-9 6,-17 9,-26l-32 6z"/>
 </g>
</svg>
